<svg xmlns="http://www.w3.org/2000/svg" viewBox="0 0 55.93 55.08"><defs><style>.cls-1,.cls-2{fill:none;stroke-linecap:round;stroke-linejoin:round;stroke-width:2px;}.cls-1{stroke:#025450;}.cls-2{stroke:#a5ddef;}</style></defs><title>deeper-analysis-icon-gb</title><g id="Layer_2" data-name="Layer 2"><g id="Layer_1-2" data-name="Layer 1"><path class="cls-1" d="M43.7,47.16H4.46A3.46,3.46,0,0,1,1,43.7V4.46A3.46,3.46,0,0,1,4.46,1H43.7a3.46,3.46,0,0,1,3.46,3.46v5.77"/><rect class="cls-1" x="13.69" y="47.16" width="20.77" height="6.92"/><line class="cls-1" x1="4.46" y1="54.08" x2="43.7" y2="54.08"/><circle class="cls-1" cx="31" cy="24.08" r="17.31"/><polyline class="cls-1" points="41.08 38.77 50.31 48 54.93 43.39 45.7 34.16"/><line class="cls-2" x1="30.16" y1="18.31" x2="30.16" y2="32.16"/><line class="cls-2" x1="25.23" y1="22.93" x2="25.23" y2="32.16"/><line class="cls-2" x1="40.86" y1="16" x2="40.86" y2="32.16"/><line class="cls-2" x1="35.09" y1="20.62" x2="35.09" y2="32.16"/><line class="cls-2" x1="20.31" y1="27.54" x2="20.31" y2="32.16"/></g></g></svg>