<svg xmlns="http://www.w3.org/2000/svg" width="52" height="49.83" viewBox="0 0 52 49.83"><defs><style>.cls-1,.cls-2{fill:none;stroke-linejoin:round;stroke-width:2px;}.cls-1{stroke:#025450;}.cls-2{stroke:#a5ddef;}</style></defs><title>education-icon</title><g id="Layer_2" data-name="Layer 2"><g id="Layer_1-2" data-name="Layer 1"><rect class="cls-1" x="1" y="30.35" width="8.7" height="15.22"/><polyline class="cls-1" points="9.7 44.48 29.26 48.83 51 37.96 51 33.61 35.78 36.87"/><polyline class="cls-1" points="9.7 31.43 20.57 30.35 27.09 34.7 35.78 34.7 35.78 39.04 26 41.22 18.39 39.04"/><line class="cls-1" x1="5.35" y1="40.13" x2="5.35" y2="42.3"/><polygon class="cls-2" points="26 16.22 1 8.61 26 1 51 8.61 26 16.22"/><polygon class="cls-2" points="26 16.22 12.96 12.25 12.96 22.74 26 27.09 39.04 22.74 39.04 12.25 26 16.22"/><line class="cls-2" x1="51" y1="8.61" x2="51" y2="18.39"/></g></g></svg>