<?xml version="1.0" encoding="UTF-8"?>
<svg width="74px" height="75px" viewBox="0 0 74 75" version="1.1" xmlns="http://www.w3.org/2000/svg" xmlns:xlink="http://www.w3.org/1999/xlink">
    <title>dedicated-expertise-icon-gb</title>
    <g id="Page-1" stroke="none" stroke-width="1" fill="none" fill-rule="evenodd" stroke-linecap="round" stroke-linejoin="round">
        <g id="icons" transform="translate(-644.000000, -1168.000000)" stroke-width="2">
            <g id="dedicated-expertise-icon-gb" transform="translate(645.000000, 1169.000000)">
                <path d="M20.9752199,45.2377904 C20.9752199,49.5157499 18.084574,53 14.5063473,53 C10.9281205,53 8.02344237,49.5157499 8.02344237,45.2377904 C7.86696346,43.547885 8.49954279,41.8783637 9.75086757,40.678721 C11.0021923,39.4790782 12.7436386,38.8726256 14.5063473,39.0226417 C16.2680029,38.8719767 18.0085377,39.4787254 19.2578075,40.678996 C20.5070774,41.8792667 21.1361926,43.5492249 20.9752199,45.2377904 Z" id="Path" stroke="#025450"></path>
                <path d="M0,73 L0,60.04 C0.00121111702,56.9019763 2.38615222,54.266405 5.53801732,53.92 L14,53" id="Path" stroke="#025450"></path>
                <line x1="6.5" y1="61" x2="6.5" y2="73" id="Path" stroke="#025450"></line>
                <line x1="21.5" y1="61" x2="21.5" y2="73" id="Path" stroke="#025450"></line>
                <path d="M41.9765576,45.2377904 C41.9765576,49.5157499 39.0718795,53 35.4936527,53 C31.915426,53 29.0247801,49.5157499 29.0247801,45.2377904 C28.8638074,43.5492249 29.4929226,41.8792667 30.7421925,40.678996 C31.9914623,39.4787254 33.7319971,38.8719767 35.4936527,39.0226417 C37.2563614,38.8726256 38.9978077,39.4790782 40.2491324,40.678721 C41.5004572,41.8783637 42.1330365,43.547885 41.9765576,45.2377904 Z" id="Path" stroke="#025450"></path>
                <path d="M22,73 L22,60.04 C21.9943016,56.9042124 24.3772992,54.2669047 27.5298713,53.92 L36,53" id="Path" stroke="#025450"></path>
                <line x1="28.5" y1="61" x2="28.5" y2="73" id="Path" stroke="#025450"></line>
                <path d="M50,73 L50,60.04 C49.9987889,56.9019763 47.6138478,54.266405 44.4619827,53.92 L36,53" id="Path" stroke="#025450"></path>
                <line x1="43.5" y1="61" x2="43.5" y2="73" id="Path" stroke="#025450"></line>
                <path d="M63.9752199,45.2377904 C63.9752199,49.5157499 61.084574,53 57.5063473,53 C53.9281205,53 51.0234424,49.5157499 51.0234424,45.2377904 C50.8669635,43.547885 51.4995428,41.8783637 52.7508676,40.678721 C54.0021923,39.4790782 55.7436386,38.8726256 57.5063473,39.0226417 C59.2680029,38.8719767 61.0085377,39.4787254 62.2578075,40.678996 C63.5070774,41.8792667 64.1361926,43.5492249 63.9752199,45.2377904 Z" id="Path" stroke="#025450"></path>
                <line x1="49.5" y1="61" x2="49.5" y2="73" id="Path" stroke="#025450"></line>
                <path d="M72,73 L72,60.04 C72.0072467,56.9133089 69.6344131,54.2794605 66.4864764,53.92 L58,53" id="Path" stroke="#025450"></path>
                <line x1="65.5" y1="61" x2="65.5" y2="73" id="Path" stroke="#025450"></line>
                <polygon id="Path" stroke="#025450" points="0 0 0 23.25 9.38481823 23.25 14.0907892 31 18.7831983 23.25 31.3008099 23.25 35.9932191 31 40.6856282 23.25 53.2168017 23.25 57.9092108 31 62.6016199 23.25 72 23.25 72 0"></polygon>
                <line x1="45" y1="7.5" x2="59" y2="7.5" id="Path" stroke="#A5DDEF"></line>
                <line x1="28" y1="7.5" x2="40" y2="7.5" id="Path" stroke="#A5DDEF"></line>
                <line x1="12" y1="7.5" x2="22" y2="7.5" id="Path" stroke="#A5DDEF"></line>
                <line x1="47" y1="13.5" x2="54" y2="13.5" id="Path" stroke="#A5DDEF"></line>
                <line x1="33" y1="13.5" x2="42" y2="13.5" id="Path" stroke="#A5DDEF"></line>
                <line x1="13" y1="13.5" x2="28" y2="13.5" id="Path" stroke="#A5DDEF"></line>
            </g>
        </g>
    </g>
</svg>