<svg xmlns="http://www.w3.org/2000/svg" viewBox="0 0 55.08 55.08"><defs><style>.cls-1,.cls-2{fill:none;stroke-linecap:round;stroke-linejoin:round;stroke-width:2px;}.cls-1{stroke:#025450;}.cls-2{stroke:#a5ddef;}</style></defs><title>intuitive-platform-icon-gb</title><g id="Layer_2" data-name="Layer 2"><g id="Layer_1-2" data-name="Layer 1"><rect class="cls-1" x="1" y="1" width="53.08" height="53.08"/><line class="cls-1" x1="4.46" y1="5.62" x2="6.77" y2="5.62"/><line class="cls-1" x1="9.92" y1="5.62" x2="12.23" y2="5.62"/><line class="cls-1" x1="15.38" y1="5.62" x2="17.69" y2="5.62"/><line class="cls-1" x1="1" y1="10.23" x2="54.08" y2="10.23"/><rect class="cls-2" x="6.77" y="16" width="24.23" height="31.16"/><polyline class="cls-2" points="6.77 31 12.54 25.23 22.93 35.62"/><polyline class="cls-2" points="11.39 47.16 26.39 32.16 31 36.77"/><circle class="cls-2" cx="22.93" cy="24.08" r="3.46"/><line class="cls-1" x1="44.54" y1="17.16" x2="50.31" y2="17.16"/><line class="cls-1" x1="35.62" y1="17.16" x2="41.39" y2="17.16"/><line class="cls-1" x1="35.62" y1="22.93" x2="49.47" y2="22.93"/><line class="cls-1" x1="35.62" y1="28.7" x2="46.01" y2="28.7"/><line class="cls-1" x1="35.62" y1="34.47" x2="49.47" y2="34.47"/><line class="cls-1" x1="44.54" y1="40.24" x2="50.31" y2="40.24"/><line class="cls-1" x1="35.62" y1="40.24" x2="41.39" y2="40.24"/><line class="cls-1" x1="35.62" y1="46.01" x2="46.01" y2="46.01"/></g></g></svg>