<svg xmlns="http://www.w3.org/2000/svg" viewBox="0 0 55 55"><defs><style>.cls-1,.cls-2,.cls-3,.cls-4{fill:none;stroke-linejoin:round;stroke-width:2px;}.cls-1,.cls-4{stroke:#a5ddef;}.cls-1,.cls-3{stroke-linecap:round;}.cls-2,.cls-3{stroke:#025450;}</style></defs><title>no-effort-icon-gb</title><g id="Layer_2" data-name="Layer 2"><g id="Layer_1-2" data-name="Layer 1"><line class="cls-1" x1="30.96" y1="29.5" x2="40.17" y2="29.5"/><line class="cls-1" x1="27.5" y1="12.22" x2="27.5" y2="26.04"/><line class="cls-2" x1="5.61" y1="26.35" x2="5.61" y2="28.65"/><line class="cls-2" x1="49.39" y1="26.35" x2="49.39" y2="28.65"/><line class="cls-2" x1="45.93" y1="15.98" x2="45.93" y2="18.28"/><line class="cls-2" x1="39.02" y1="7.91" x2="39.02" y2="10.22"/><line class="cls-2" x1="27.5" y1="4.46" x2="27.5" y2="6.76"/><line class="cls-2" x1="39.02" y1="45.93" x2="36.72" y2="45.93"/><line class="cls-2" x1="47.09" y1="39.02" x2="44.78" y2="39.02"/><line class="cls-2" x1="27.5" y1="48.24" x2="27.5" y2="50.54"/><line class="cls-2" x1="15.98" y1="47.09" x2="15.98" y2="44.78"/><line class="cls-2" x1="15.98" y1="9.07" x2="18.28" y2="9.07"/><line class="cls-2" x1="7.91" y1="15.98" x2="10.22" y2="15.98"/><path class="cls-3" d="M2.65,36.72a26.45,26.45,0,1,1,1.57,3.46"/><polyline class="cls-2" points="11.37 40.17 3.3 40.17 3.3 48.24"/><circle class="cls-4" cx="27.5" cy="29.5" r="3.46"/></g></g></svg>