<svg xmlns="http://www.w3.org/2000/svg" viewBox="0 0 55.08 55.08"><defs><style>.cls-1,.cls-2{fill:none;stroke-linecap:round;stroke-linejoin:round;stroke-width:2px;}.cls-1{stroke:#025450;}.cls-2{stroke:#a5ddef;}</style></defs><title>partner-discovery-icon-gb</title><g id="Layer_2" data-name="Layer 2"><g id="Layer_1-2" data-name="Layer 1"><polyline class="cls-1" points="24.08 54.09 1 54.09 10.23 41.39 18.31 41.39"/><polyline class="cls-1" points="36.77 41.39 44.85 41.39 54.09 54.09 31 54.09"/><path class="cls-1" d="M47.16,20.62A19.62,19.62,0,1,0,20.45,38.9l7.09,15.18L34.63,38.9A19.62,19.62,0,0,0,47.16,20.62Z"/><path class="cls-2" d="M32.16,18.31c0,3.19-2.07,5.77-4.62,5.77s-4.61-2.58-4.61-5.77a4.25,4.25,0,0,1,4.61-4.62A4.26,4.26,0,0,1,32.16,18.31Z"/><path class="cls-2" d="M36.77,29.85V28.29a3.45,3.45,0,0,0-3-3.43l-6.2-.78-6.2.78a3.45,3.45,0,0,0-3,3.43v1.56"/><circle class="cls-1" cx="27.54" cy="20.62" r="12.69"/></g></g></svg>