<svg xmlns="http://www.w3.org/2000/svg" viewBox="0 0 54 51.83"><defs><style>.cls-1,.cls-2{fill:none;stroke-linecap:round;stroke-linejoin:round;stroke-width:2px;}.cls-1{stroke:#025450;}.cls-2{stroke:#a5ddef;}</style></defs><title>strategic-expertise-icon-gb-2</title><g id="Layer_2" data-name="Layer 2"><g id="Layer_1-2" data-name="Layer 1"><rect class="cls-1" x="4.25" y="1" width="45.5" height="36.83"/><path class="cls-2" d="M32.42,19.42h6a4.88,4.88,0,0,0,4.87-4.88h0a4.87,4.87,0,0,0-4.87-4.87H21.58"/><path class="cls-2" d="M22.67,29.17H15.62a4.88,4.88,0,0,1-4.87-4.88h0a4.87,4.87,0,0,1,4.87-4.87H30.25"/><line class="cls-2" x1="44.33" y1="29.17" x2="24.83" y2="29.17"/><polyline class="cls-1" points="42.17 50.83 36.75 37.83 17.25 37.83 11.83 50.83"/><line class="cls-1" x1="1" y1="1" x2="53" y2="1"/><line class="cls-1" x1="1" y1="37.83" x2="53" y2="37.83"/><line class="cls-1" x1="14" y1="44.33" x2="40" y2="44.33"/><polyline class="cls-2" points="27 15.08 21.58 9.67 27 4.25"/><circle class="cls-1" cx="12.92" cy="9.67" r="3.25"/></g></g></svg>