<?xml version="1.0" encoding="UTF-8"?>
<svg width="40px" height="42px" viewBox="0 0 40 42" version="1.1" xmlns="http://www.w3.org/2000/svg" xmlns:xlink="http://www.w3.org/1999/xlink">
    <title>Group</title>
    <g id="Page-1" stroke="none" stroke-width="1" fill="none" fill-rule="evenodd" stroke-linecap="round" stroke-linejoin="round">
        <g id="icons" transform="translate(-606.000000, -333.000000)" stroke-width="2">
            <g id="Group" transform="translate(607.000000, 334.000000)">
                <path d="M22.5199114,4.43072714 C22.5199114,6.40206796 20.9206918,8 18.9480634,8 C16.9728597,8 15.3762153,6.40206796 15.3762153,4.43072714 C15.3762153,2.45809871 16.9728597,0.860166667 18.9480634,0.860166667 C20.9206918,0.860166667 22.5199114,2.45809871 22.5199114,4.43072714 L22.5199114,4.43072714 Z" id="Stroke-1829" stroke="#A5DDEF"></path>
                <path d="M25.0903271,14.6777344 L12.8060764,14.6777344 C12.8060764,11.2883551 15.5546706,8.535609 18.9468178,8.535609 C22.3431169,8.535609 25.0903271,11.2883551 25.0903271,14.6777344 L25.0903271,14.6777344 Z" id="Stroke-1830" stroke="#A5DDEF"></path>
                <path d="M9.71236842,29.93 C9.71236842,31.77 8.22070175,33.2633333 6.37903509,33.2633333 C4.53736842,33.2633333 3.04570175,31.77 3.04570175,29.93 C3.04570175,28.0866667 4.53736842,26.5966667 6.37903509,26.5966667 C8.22070175,26.5966667 9.71236842,28.0866667 9.71236842,29.93 L9.71236842,29.93 Z" id="Stroke-1831" stroke="#025450"></path>
                <path d="M12.2872018,39.17 L0.470535088,39.17 C0.470535088,35.9066667 3.11386842,33.2633333 6.37886842,33.2633333 C9.64220175,33.2633333 12.2872018,35.9066667 12.2872018,39.17 L12.2872018,39.17 Z" id="Stroke-1832" stroke="#025450"></path>
                <path d="M34.7123684,29.93 C34.7123684,31.77 33.2207018,33.2633333 31.3790351,33.2633333 C29.5373684,33.2633333 28.0457018,31.77 28.0457018,29.93 C28.0457018,28.0866667 29.5373684,26.5966667 31.3790351,26.5966667 C33.2207018,26.5966667 34.7123684,28.0866667 34.7123684,29.93 L34.7123684,29.93 Z" id="Stroke-1833" stroke="#254A5D"></path>
                <path d="M37.2872018,39.17 L25.4705351,39.17 C25.4705351,35.9066667 28.1138684,33.2633333 31.3788684,33.2633333 C34.6422018,33.2633333 37.2872018,35.9066667 37.2872018,39.17 L37.2872018,39.17 Z" id="Stroke-1834" stroke="#254A5D"></path>
                <path d="M34.7123684,29.93 C34.7123684,31.77 33.2207018,33.2633333 31.3790351,33.2633333 C29.5373684,33.2633333 28.0457018,31.77 28.0457018,29.93 C28.0457018,28.0866667 29.5373684,26.5966667 31.3790351,26.5966667 C33.2207018,26.5966667 34.7123684,28.0866667 34.7123684,29.93 L34.7123684,29.93 Z" id="Stroke-1835" stroke="#025450"></path>
                <path d="M37.2872018,39.17 L25.4705351,39.17 C25.4705351,35.9066667 28.1138684,33.2633333 31.3788684,33.2633333 C34.6422018,33.2633333 37.2872018,35.9066667 37.2872018,39.17 L37.2872018,39.17 Z" id="Stroke-1836" stroke="#025450"></path>
                <path d="M22.2807018,29.93 C22.2807018,31.77 20.7890351,33.2633333 18.9473684,33.2633333 C17.1057018,33.2633333 15.6140351,31.77 15.6140351,29.93 C15.6140351,28.0866667 17.1057018,26.5966667 18.9473684,26.5966667 C20.7890351,26.5966667 22.2807018,28.0866667 22.2807018,29.93 L22.2807018,29.93 Z" id="Stroke-1837" stroke="#025450"></path>
                <path d="M24.8555351,39.17 L13.0405351,39.17 C13.0405351,35.9066667 15.6838684,33.2633333 18.9472018,33.2633333 C22.2122018,33.2633333 24.8555351,35.9066667 24.8555351,39.17 L24.8555351,39.17 Z" id="Stroke-1838" stroke="#025450"></path>
                <polyline id="Stroke-1839" stroke="#025450" points="6.44736842 23.4658333 6.44736842 21.8341667 31.4473684 21.8341667 31.4473684 23.4658333"></polyline>
                <line x1="18.9473684" y1="18.5" x2="18.9473684" y2="23.465" id="Stroke-1840" stroke="#025450"></line>
            </g>
        </g>
    </g>
</svg>