<?xml version="1.0" encoding="UTF-8"?>
<svg width="40px" height="39px" viewBox="0 0 40 39" version="1.1" xmlns="http://www.w3.org/2000/svg" xmlns:xlink="http://www.w3.org/1999/xlink">
    <title>Group</title>
    <g id="Page-1" stroke="none" stroke-width="1" fill="none" fill-rule="evenodd" stroke-linecap="round" stroke-linejoin="round">
        <g id="icons" transform="translate(-426.000000, -776.000000)" stroke-width="2">
            <g id="Group" transform="translate(427.000000, 777.000000)">
                <path d="M15.8333333,10.972025 C15.8333333,12.2846083 14.7693333,13.347025 13.4583333,13.347025 C12.1473333,13.347025 11.0833333,12.2846083 11.0833333,10.972025 C11.0833333,9.661025 12.1473333,8.597025 13.4583333,8.597025 C14.7693333,8.597025 15.8333333,9.661025 15.8333333,10.972025 L15.8333333,10.972025 Z" id="Stroke-5738" stroke="#A5DDEF"></path>
                <path d="M14.596275,25.828125 C14.596275,27.1407083 13.5338583,28.203125 12.221275,28.203125 C10.910275,28.203125 9.846275,27.1407083 9.846275,25.828125 C9.846275,24.517125 10.910275,23.453125 12.221275,23.453125 C13.5338583,23.453125 14.596275,24.517125 14.596275,25.828125 L14.596275,25.828125 Z" id="Stroke-5739" stroke="#025450"></path>
                <path d="M27.90625,14.7447917 C27.90625,16.057375 26.84225,17.1197917 25.53125,17.1197917 C24.22025,17.1197917 23.15625,16.057375 23.15625,14.7447917 C23.15625,13.4337917 24.22025,12.3697917 25.53125,12.3697917 C26.84225,12.3697917 27.90625,13.4337917 27.90625,14.7447917 L27.90625,14.7447917 Z" id="Stroke-5740" stroke="#A5DDEF"></path>
                <path d="M26.3229167,25.828125 C26.3229167,27.1407083 25.2589167,28.203125 23.9479167,28.203125 C22.6369167,28.203125 21.5729167,27.1407083 21.5729167,25.828125 C21.5729167,24.517125 22.6369167,23.453125 23.9479167,23.453125 C25.2589167,23.453125 26.3229167,24.517125 26.3229167,25.828125 L26.3229167,25.828125 Z" id="Stroke-5741" stroke="#025450"></path>
                <path d="M37.2083333,19.4947917 C37.2083333,20.807375 36.1443333,21.8697917 34.8333333,21.8697917 C33.5223333,21.8697917 32.4583333,20.807375 32.4583333,19.4947917 C32.4583333,18.1837917 33.5223333,17.1197917 34.8333333,17.1197917 C36.1443333,17.1197917 37.2083333,18.1837917 37.2083333,19.4947917 L37.2083333,19.4947917 Z" id="Stroke-5742" stroke="#025450"></path>
                <path d="M37.2083333,3.16666667 C37.2083333,4.47766667 36.1443333,5.54166667 34.8333333,5.54166667 C33.5223333,5.54166667 32.4583333,4.47766667 32.4583333,3.16666667 C32.4583333,1.85566667 33.5223333,0.791666667 34.8333333,0.791666667 C36.1443333,0.791666667 37.2083333,1.85566667 37.2083333,3.16666667 L37.2083333,3.16666667 Z" id="Stroke-5743" stroke="#A5DDEF"></path>
                <line x1="26.9815833" y1="12.86775" x2="33.2373333" y2="4.921" id="Stroke-5744" stroke="#A5DDEF"></line>
                <line x1="15.7266167" y1="11.7033667" x2="23.2363667" y2="14.12745" id="Stroke-5745" stroke="#A5DDEF"></line>
                <line x1="0.791666667" y1="18.6535667" x2="11.4300833" y2="12.2014833" id="Stroke-5746" stroke="#A5DDEF"></line>
                <line x1="26.00435" y1="24.6437917" x2="32.7810167" y2="20.6917917" id="Stroke-5747" stroke="#025450"></line>
                <line x1="14.596275" y1="25.828125" x2="21.5724417" y2="25.828125" id="Stroke-5748" stroke="#025450"></line>
                <line x1="1.08236667" y1="33.0289667" x2="10.1817833" y2="27.0408" id="Stroke-5749" stroke="#025450"></line>
                <polyline id="Stroke-5737" stroke="#025450" points="36.4166667 36.9114583 0.791666667 36.9114583 0.791666667 1.28645833"></polyline>
            </g>
        </g>
    </g>
</svg>