<?xml version="1.0" encoding="UTF-8"?><svg xmlns="http://www.w3.org/2000/svg" viewBox="0 0 21.34 21.34"><defs><style>.f{fill:#025450;}.g{fill:#a5ddef;}</style></defs><g id="a"/><g id="b"><g id="c"><g><circle class="g" cx="6.22" cy="13.78" r="1.39"/><circle class="g" cx="9.34" cy="8" r="1.39"/><circle class="g" cx="14.71" cy="11.18" r="1.39"/><circle class="g" cx="19.56" cy="3.56" r="1.39"/><g id="d"><g id="e"><path class="f" d="M12.89,21.34H2.22c-1.23,0-2.22-1-2.22-2.22V2.22C0,1,1,0,2.22,0H12.89c1.23,0,2.22,1,2.22,2.22v1.78c0,.25-.2,.44-.44,.44H.89v12.45H14.67c.25,0,.44,.2,.44,.44v1.78c0,1.23-1,2.22-2.22,2.22ZM.89,17.78v1.33c0,.74,.6,1.33,1.33,1.33H12.89c.74,0,1.33-.6,1.33-1.33v-1.33H.89ZM.89,3.56H14.23v-1.33c0-.74-.6-1.33-1.33-1.33H2.22c-.74,0-1.33,.6-1.33,1.33v1.33Z"/><rect class="f" x="5.34" y="1.78" width="4.45" height=".89"/><rect class="f" x="10.67" y="1.78" width=".89" height=".89"/><rect class="f" x="10.67" y="18.67" width=".89" height=".89"/><rect class="f" x="7.11" y="18.67" width=".89" height=".89"/><rect class="f" x="3.56" y="18.67" width=".89" height=".89"/><path class="f" d="M6.22,15.56c-.98,0-1.78-.8-1.78-1.78s.8-1.78,1.78-1.78,1.78,.8,1.78,1.78-.8,1.78-1.78,1.78Zm0-2.67c-.49,0-.89,.4-.89,.89s.4,.89,.89,.89,.89-.4,.89-.89-.4-.89-.89-.89Z"/><path class="f" d="M9.34,9.78c-.98,0-1.78-.8-1.78-1.78s.8-1.78,1.78-1.78,1.78,.8,1.78,1.78-.8,1.78-1.78,1.78Zm0-2.67c-.49,0-.89,.4-.89,.89s.4,.89,.89,.89,.89-.4,.89-.89-.4-.89-.89-.89Z"/><path class="f" d="M14.67,12.89c-.98,0-1.78-.8-1.78-1.78s.8-1.78,1.78-1.78,1.78,.8,1.78,1.78-.8,1.78-1.78,1.78Zm0-2.67c-.49,0-.89,.4-.89,.89s.4,.89,.89,.89,.89-.4,.89-.89-.4-.89-.89-.89Z"/><path class="f" d="M19.56,5.34c-.98,0-1.78-.8-1.78-1.78s.8-1.78,1.78-1.78,1.78,.8,1.78,1.78-.8,1.78-1.78,1.78Zm0-2.67c-.49,0-.89,.4-.89,.89s.4,.89,.89,.89,.89-.4,.89-.89-.4-.89-.89-.89Z"/><rect class="f" x="2.34" y="8.55" width=".89" height="5.7" transform="translate(-8.17 7.2) rotate(-55.3)"/><rect class="f" x="5.83" y="10.45" width="3.9" height=".89" transform="translate(-5.5 12.59) rotate(-61.73)"/><rect class="f" x="11.56" y="7.8" width=".89" height="3.51" transform="translate(-2.3 15.11) rotate(-59.74)"/><rect class="f" x="13.95" y="6.89" width="6.34" height=".89" transform="translate(1.66 17.73) rotate(-57.12)"/><rect class="f" x="14.23" y="13.78" width=".89" height="3.56"/><rect class="f" x="14.23" y="4" width=".89" height="4.45"/></g></g></g></g></g></svg>