<?xml version="1.0" encoding="UTF-8"?><svg xmlns="http://www.w3.org/2000/svg" viewBox="0 0 23 23"><defs><style>.f{fill:#025450;}.g{fill:#a5ddef;}</style></defs><g id="a"/><g id="b"><g id="c"><g><path class="g" d="M6.44,8.09s.58-3.77,3.49-3.97,5.76-.28,6.63,3.25l-1.34,.11-2.67,.15-2.12,1.23h-2.2l-1.78-.77Z"/><g id="d"><g id="e"><path class="f" d="M8.26,22.52C2.14,20.71-1.34,14.3,.48,8.22,1.94,3.36,6.41,.02,11.5,0V.96C5.65,.95,.91,5.67,.9,11.49c0,4.69,3.1,8.82,7.62,10.13l-.27,.9Z"/><path class="f" d="M11.5,23v-.96c5.85,0,10.59-4.71,10.6-10.53,0-4.69-3.1-8.82-7.62-10.13l.27-.9c6.11,1.81,9.59,8.22,7.77,14.31-1.45,4.85-5.93,8.19-11.02,8.22Z"/><path class="f" d="M8.61,23h-3.37v-.96h2.59l-1.09-2.18,.86-.43,1.44,2.88c.12,.24,.02,.52-.21,.64-.07,.03-.14,.05-.22,.05Z"/><path class="f" d="M15.4,3.57l-1.44-2.88c-.12-.24-.02-.52,.21-.64,.07-.03,.14-.05,.22-.05h3.37V.96h-2.59l1.09,2.18-.86,.43Z"/><path class="f" d="M16.08,19.1c-2.6-1.44-2.17-3.77-2.17-3.86l.96,.18-.48-.09,.48,.09c0,.07-.29,1.75,1.69,2.88l-.48,.81Z"/><path class="f" d="M6.92,19.1l-.48-.83c1.98-1.1,1.7-2.78,1.69-2.88l.96-.18c0,.12,.43,2.45-2.17,3.89Z"/><path class="f" d="M11.5,16.77c-3.35,0-5.78-3.04-5.78-7.23,0-3.8,2.21-6.19,5.78-6.19s5.78,2.4,5.78,6.19c0,4.19-2.41,7.23-5.78,7.23Zm0-12.46c-3.06,0-4.81,1.92-4.81,5.23,0,3.63,2.03,6.27,4.81,6.27s4.81-2.64,4.81-6.27c0-3.32-1.75-5.23-4.81-5.23Z"/><path class="f" d="M9.13,9.4c-1.11-.03-2.19-.32-3.16-.84l.48-.83s2.79,1.55,4.76,.04c2.08-1.6,4.86-1.05,5.93,.04l-.68,.67c-.79-.8-3.05-1.19-4.66,.04-.76,.58-1.7,.89-2.67,.88Z"/></g></g></g></g></g></svg>