<?xml version="1.0" encoding="UTF-8"?>
<svg width="42px" height="41px" viewBox="0 0 42 41" version="1.1" xmlns="http://www.w3.org/2000/svg" xmlns:xlink="http://www.w3.org/1999/xlink">
    <title>Group Copy 3</title>
    <g id="Page-1" stroke="none" stroke-width="1" fill="none" fill-rule="evenodd" stroke-linecap="round">
        <g id="icons" transform="translate(-339.000000, -223.000000)">
            <g id="Group-Copy-3" transform="translate(340.000000, 224.000000)">
                <path d="M39.1666667,30.8412698 C39.1666667,32.5848889 37.675,34 35.8333333,34 L4.16666667,34 C2.32666667,34 0.833333333,32.5848889 0.833333333,30.8412698 L0.833333333,3.99206349 C0.833333333,2.24844444 2.32666667,0.833333333 4.16666667,0.833333333 L35.8333333,0.833333333 C37.675,0.833333333 39.1666667,2.24844444 39.1666667,3.99206349 L39.1666667,30.8412698 L39.1666667,30.8412698 Z" id="Stroke-358" stroke="#025450" stroke-width="2" stroke-linejoin="round"></path>
                <rect id="Rectangle-3" stroke="#A5DDEF" stroke-width="2" fill="#A5DDEF" fill-rule="nonzero" stroke-linejoin="round" x="5" y="23" width="2" height="7"></rect>
                <rect id="Rectangle-3-Copy" stroke="#A5DDEF" stroke-width="2" fill="#A5DDEF" fill-rule="nonzero" stroke-linejoin="round" x="12" y="21" width="2" height="9"></rect>
                <rect id="Rectangle-3-Copy-2" stroke="#A5DDEF" stroke-width="2" fill="#A5DDEF" fill-rule="nonzero" stroke-linejoin="round" x="19" y="17" width="2" height="13"></rect>
                <rect id="Rectangle-3-Copy-3" stroke="#A5DDEF" stroke-width="2" fill="#A5DDEF" fill-rule="nonzero" stroke-linejoin="round" x="26" y="19" width="2" height="11"></rect>
                <rect id="Rectangle-3-Copy-4" stroke="#A5DDEF" stroke-width="2" fill="#A5DDEF" fill-rule="nonzero" stroke-linejoin="round" x="33" y="14" width="2" height="16"></rect>
                <line x1="1" y1="38.5" x2="39" y2="38.5" id="Line" stroke="#025450" stroke-width="2" fill-rule="nonzero"></line>
                <line x1="0.833333333" y1="9.16666667" x2="39.1666667" y2="9.16666667" id="Stroke-359" stroke="#025450" stroke-width="2" stroke-linejoin="round"></line>
                <path d="M6.83333333,5.16666667 C6.83333333,5.71866667 6.38533333,6.16666667 5.83333333,6.16666667 C5.28133333,6.16666667 4.83333333,5.71866667 4.83333333,5.16666667 C4.83333333,4.61466667 5.28133333,4.16666667 5.83333333,4.16666667 C6.38533333,4.16666667 6.83333333,4.61466667 6.83333333,5.16666667 L6.83333333,5.16666667 Z" id="Stroke-360" stroke="#025450" fill="#254A5D" stroke-linejoin="round"></path>
                <path d="M10.8333333,5.16666667 C10.8333333,5.71866667 10.3853333,6.16666667 9.83333333,6.16666667 C9.28133333,6.16666667 8.83333333,5.71866667 8.83333333,5.16666667 C8.83333333,4.61466667 9.28133333,4.16666667 9.83333333,4.16666667 C10.3853333,4.16666667 10.8333333,4.61466667 10.8333333,5.16666667 L10.8333333,5.16666667 Z" id="Stroke-361" stroke="#025450" fill="#254A5D" stroke-linejoin="round"></path>
                <path d="M14.8333333,5.16666667 C14.8333333,5.71866667 14.3853333,6.16666667 13.8333333,6.16666667 C13.2813333,6.16666667 12.8333333,5.71866667 12.8333333,5.16666667 C12.8333333,4.61466667 13.2813333,4.16666667 13.8333333,4.16666667 C14.3853333,4.16666667 14.8333333,4.61466667 14.8333333,5.16666667 L14.8333333,5.16666667 Z" id="Stroke-362" stroke="#025450" fill="#254A5D" stroke-linejoin="round"></path>
            </g>
        </g>
    </g>
</svg>