<?xml version="1.0" encoding="UTF-8"?>
<svg width="41px" height="41px" viewBox="0 0 41 41" version="1.1" xmlns="http://www.w3.org/2000/svg" xmlns:xlink="http://www.w3.org/1999/xlink">
    <title>Group 51</title>
    <g id="Page-1" stroke="none" stroke-width="1" fill="none" fill-rule="evenodd" stroke-linejoin="round">
        <g id="icons" transform="translate(-336.000000, -444.000000)" stroke-width="2">
            <g id="Group-51" transform="translate(337.000000, 445.000000)">
                <path d="M38.1875,19.5 C38.1875,29.822 29.822,38.1875 19.5,38.1875 C9.178,38.1875 0.8125,29.822 0.8125,19.5 C0.8125,9.178 9.178,0.8125 19.5,0.8125 C29.822,0.8125 38.1875,9.178 38.1875,19.5 Z" id="Stroke-1" stroke="#025450"></path>
                <path d="M14.5630875,5.2622375 C14.2267125,4.1101125 13.9959625,2.9076125 13.8870875,1.6726125" id="Stroke-3" stroke="#025450"></path>
                <path d="M28.7469,18.30985 C24.10915,17.3641 20.0954,14.700725 17.40115,11.0136" id="Stroke-5" stroke="#025450"></path>
                <path d="M38.1875,17.7607625 C37.207625,18.0792625 36.339875,18.3246375 35.296625,18.4790125" id="Stroke-7" stroke="#025450"></path>
                <path d="M25.1225,29.5451 C22.18775,32.881225 18.72325,35.6616 14.911,37.8066" id="Stroke-9" stroke="#025450"></path>
                <path d="M30.5829875,21.5122375 C29.8549875,22.9406125 29.0473625,24.4388625 28.1682375,25.7421125" id="Stroke-11" stroke="#025450"></path>
                <path d="M34.5947875,8.4803875 C34.3104125,10.8545125 33.8310375,13.1587625 33.0900375,15.5166375" id="Stroke-13" stroke="#025450"></path>
                <path d="M6.1650875,26.9680125 C4.8618375,26.6641375 3.2807125,26.3180125 2.0359625,25.9312625" id="Stroke-15" stroke="#025450"></path>
                <path d="M16.9879125,28.4518 C14.2774125,28.3413 11.7635375,28.053675 9.2772875,27.624675" id="Stroke-17" stroke="#025450"></path>
                <path d="M24.3384375,28.3343125 C23.4950625,28.3944375 22.7703125,28.4399375 21.9366875,28.4675625" id="Stroke-19" stroke="#254A5D"></path>
                <path d="M36.7339375,26.26975 C34.1550625,26.9685 31.7126875,27.46575 29.1175625,27.834625" id="Stroke-21" stroke="#025450"></path>
                <path d="M12.4271875,7.82665 C12.2451875,7.782775 12.0599375,7.7324 11.8763125,7.682025 C10.1099375,7.18965 8.4751875,6.460025 6.9948125,5.537025" id="Stroke-23" stroke="#025450"></path>
                <path d="M29.3722,3.6309 C26.5187,6.1334 22.8072,7.82665 18.986825,8.2589" id="Stroke-25" stroke="#025450"></path>
                <path d="M20.92025,30.31795 C22.238125,32.367075 23.827375,35.071075 24.60575,37.42895" id="Stroke-27" stroke="#025450"></path>
                <path d="M12.2525,21.7247875 C14.132625,22.8980375 16.39625,24.8919125 17.961125,26.4486625" id="Stroke-29" stroke="#025450"></path>
                <path d="M0.9124375,17.5862375 C2.8088125,17.8576125 4.5329375,18.3093625 6.2944375,18.9236125" id="Stroke-31" stroke="#025450"></path>
                <path d="M7.04275,29.13105 C6.5975,29.98905 5.971875,31.0128 5.41125,31.79605" id="Stroke-33" stroke="#025450"></path>
                <path d="M8.8915125,23.4641875 C8.7468875,24.3205625 8.5486375,25.3183125 8.2983875,26.1340625" id="Stroke-35" stroke="#254A5D"></path>
                <path d="M4.91465,7.7584 C6.963775,10.3714 8.3759,13.506025 8.920275,16.9299" id="Stroke-37" stroke="#025450"></path>
                <path d="M18.9921875,8.32975 C18.9921875,10.12375 17.5361875,11.57975 15.7421875,11.57975 C13.9481875,11.57975 12.4921875,10.12375 12.4921875,8.32975 C12.4921875,6.534125 13.9481875,5.07975 15.7421875,5.07975 C17.5361875,5.07975 18.9921875,6.534125 18.9921875,8.32975 Z" id="Stroke-39" stroke="#025450" fill="#A5DDEF"></path>
                <path d="M12.527125,20.2109375 C12.527125,22.0049375 11.071125,23.4609375 9.277125,23.4609375 C7.483125,23.4609375 6.027125,22.0049375 6.027125,20.2109375 C6.027125,18.4169375 7.483125,16.9609375 9.277125,16.9609375 C11.071125,16.9609375 12.527125,18.4169375 12.527125,20.2109375 Z" id="Stroke-41" stroke="#025450" fill="#A5DDEF"></path>
                <path d="M9.277125,27.625 C9.277125,28.522 8.549125,29.25 7.652125,29.25 C6.7535,29.25 6.027125,28.522 6.027125,27.625 C6.027125,26.729625 6.7535,26 7.652125,26 C8.549125,26 9.277125,26.729625 9.277125,27.625 Z" id="Stroke-43" stroke="#025450" fill="#A5DDEF"></path>
                <path d="M21.9375,28.3359375 C21.9375,29.6814375 20.847125,30.7734375 19.5,30.7734375 C18.152875,30.7734375 17.0625,29.6814375 17.0625,28.3359375 C17.0625,26.9920625 18.152875,25.8984375 19.5,25.8984375 C20.847125,25.8984375 21.9375,26.9920625 21.9375,28.3359375 Z" id="Stroke-45" stroke="#025450" fill="#A5DDEF"></path>
                <path d="M29.1230875,27.6758625 C29.1230875,29.0229875 28.0327125,30.1133625 26.6855875,30.1133625 C25.3400875,30.1133625 24.2480875,29.0229875 24.2480875,27.6758625 C24.2480875,26.3303625 25.3400875,25.2383625 26.6855875,25.2383625 C28.0327125,25.2383625 29.1230875,26.3303625 29.1230875,27.6758625 Z" id="Stroke-47" stroke="#025450" fill="#A5DDEF"></path>
                <path d="M35.277125,18.5859375 C35.277125,20.3799375 33.821125,21.8359375 32.027125,21.8359375 C30.233125,21.8359375 28.777125,20.3799375 28.777125,18.5859375 C28.777125,16.7919375 30.233125,15.3359375 32.027125,15.3359375 C33.821125,15.3359375 35.277125,16.7919375 35.277125,18.5859375 Z" id="Stroke-49" stroke="#025450" fill="#A5DDEF"></path>
            </g>
        </g>
    </g>
</svg>