<?xml version="1.0" encoding="UTF-8"?>
<svg width="40px" height="40px" viewBox="0 0 40 40" version="1.1" xmlns="http://www.w3.org/2000/svg" xmlns:xlink="http://www.w3.org/1999/xlink">
    <title>Group 17</title>
    <g id="Page-1" stroke="none" stroke-width="1" fill="none" fill-rule="evenodd" stroke-linecap="round" stroke-linejoin="round">
        <g id="icons" transform="translate(-516.000000, -667.000000)" stroke-width="2">
            <g id="Group-17" transform="translate(517.000000, 668.000000)">
                <path d="M32.186375,31.604625 C35.399,28.247375 37.375,23.699 37.375,18.6875 C37.375,8.3655 29.0095,-2.66453526e-14 18.6875,-2.66453526e-14 C8.367125,-2.66453526e-14 -3.55271368e-15,8.3655 -3.55271368e-15,18.6875 C-3.55271368e-15,23.699 1.977625,28.247375 5.19025,31.604625" id="Stroke-3" stroke="#A5DDEF"></path>
                <path d="M8.788975,25.7775375 C7.3541,23.7787875 6.500975,21.3347875 6.500975,18.6876625 C6.500975,11.9552875 11.9561,6.5001625 18.688475,6.5001625 C25.4176,6.5001625 30.875975,11.9552875 30.875975,18.6876625 C30.875975,21.3347875 30.021225,23.7787875 28.587975,25.7775375" id="Stroke-5" stroke="#A5DDEF"></path>
                <path d="M13.013325,18.9362875 C13.010075,18.8517875 13.000325,18.7689125 13.000325,18.6876625 C13.000325,15.5075375 15.600325,13.0001625 18.687825,13.0001625 C21.781825,13.0001625 24.375325,15.5107875 24.375325,18.6876625 C24.375325,18.7689125 24.365575,18.8517875 24.362325,18.9362875" id="Stroke-7" stroke="#A5DDEF"></path>
                <path d="M25.625,37.75 L11,37.75 C11,34.8496667 14.274375,30.75 18.3125,30.75 C22.350625,30.75 25.625,34.8496667 25.625,37.75 Z" id="Stroke-1" stroke="#025450"></path>
                <path d="M22.6875,26.5 C22.6875,28.984 20.7275,31 18.3125,31 C15.8975,31 13.9375,28.984 13.9375,26.5 C13.9375,24.0145 15.8975,22 18.3125,22 C20.7275,22 22.6875,24.0145 22.6875,26.5 Z" id="Stroke-3" stroke="#025450"></path>
            </g>
        </g>
    </g>
</svg>