<?xml version="1.0" encoding="UTF-8"?>
<svg width="40px" height="26px" viewBox="0 0 40 26" version="1.1" xmlns="http://www.w3.org/2000/svg" xmlns:xlink="http://www.w3.org/1999/xlink">
    <title>Group 15</title>
    <g id="Page-1" stroke="none" stroke-width="1" fill="none" fill-rule="evenodd" stroke-linejoin="round">
        <g id="icons" transform="translate(-427.000000, -451.000000)" stroke-width="2">
            <g id="Group-15" transform="translate(428.000000, 452.000000)">
                <path d="M32.487815,0.7125 C35.45324,3.677925 37.287215,7.7748 37.287215,12.3006 C37.287215,16.8264 35.45324,20.923275 32.487815,23.890125" id="Stroke-1" stroke="#025450" stroke-linecap="round"></path>
                <path d="M28.4563475,4.7439675 C30.3900725,6.6776925 31.5870725,9.3495675 31.5870725,12.3007425 C31.5870725,15.2519175 30.3900725,17.9223675 28.4563475,19.8575175" id="Stroke-3" stroke="#025450" stroke-linecap="round"></path>
                <path d="M24.426305,8.77401 C25.329755,9.676035 25.88693,10.92291 25.88693,12.300885 C25.88693,13.677435 25.329755,14.92431 24.426305,15.826335" id="Stroke-5" stroke="#025450" stroke-linecap="round"></path>
                <path d="M5.512185,0.7125 C2.54676,3.677925 0.712785,7.7748 0.712785,12.3006 C0.712785,16.8264 2.54676,20.923275 5.512185,23.890125" id="Stroke-7" stroke="#025450" stroke-linecap="round"></path>
                <path d="M9.5422275,4.7439675 C7.6099275,6.6776925 6.4129275,9.3495675 6.4129275,12.3007425 C6.4129275,15.2519175 7.6099275,17.9223675 9.5422275,19.8575175" id="Stroke-9" stroke="#025450" stroke-linecap="round"></path>
                <path d="M13.573695,8.77401 C12.670245,9.676035 12.11307,10.92291 12.11307,12.300885 C12.11307,13.677435 12.670245,14.92431 13.573695,15.826335" id="Stroke-11" stroke="#025450" stroke-linecap="round"></path>
                <path d="M20.9,12.35 C20.9,13.395 20.0488,14.25 19,14.25 C17.9512,14.25 17.1,13.395 17.1,12.35 C17.1,11.3012 17.9512,10.45 19,10.45 C20.0488,10.45 20.9,11.3012 20.9,12.35 Z" id="Stroke-13" stroke="#A5DDEF" fill="#A5DDEF"></path>
            </g>
        </g>
    </g>
</svg>