<?xml version="1.0" encoding="UTF-8"?>
<svg width="39px" height="38px" viewBox="0 0 39 38" version="1.1" xmlns="http://www.w3.org/2000/svg" xmlns:xlink="http://www.w3.org/1999/xlink">
    <title>Group</title>
    <g id="Page-1" stroke="none" stroke-width="1" fill="none" fill-rule="evenodd" stroke-linecap="round" stroke-linejoin="round">
        <g id="icons" transform="translate(-695.000000, -223.000000)" stroke-width="2">
            <g id="Group" transform="translate(696.000000, 224.000000)">
                <path d="M10.7391304,21.4757826 C10.7391304,23.7574348 8.89034783,25.6062174 6.60869565,25.6062174 C4.3253913,25.6062174 2.47826087,23.7574348 2.47826087,21.4757826 C2.47826087,19.1941304 4.3253913,17.3453478 6.60869565,17.3453478 C8.89034783,17.3453478 10.7391304,19.1941304 10.7391304,21.4757826 L10.7391304,21.4757826 Z" id="Stroke-1788" stroke="#025450"></path>
                <path d="M9.2159913,32.214913 L0.000165217391,32.214913 C0.000165217391,28.566913 2.95755652,25.6062174 6.60886087,25.6062174 C8.7979913,25.6062174 10.7376435,26.6702174 11.9387739,28.3091739" id="Stroke-1789" stroke="#025450"></path>
                <path d="M33.8695652,21.4757826 C33.8695652,23.7574348 32.0207826,25.6062174 29.7391304,25.6062174 C27.4558261,25.6062174 25.6086957,23.7574348 25.6086957,21.4757826 C25.6086957,19.1941304 27.4558261,17.3453478 29.7391304,17.3453478 C32.0207826,17.3453478 33.8695652,19.1941304 33.8695652,21.4757826 L33.8695652,21.4757826 Z" id="Stroke-1790" stroke="#025450"></path>
                <path d="M24.405087,28.3111565 C25.6062174,26.6722 27.5475217,25.6065478 29.7399565,25.6065478 C33.3912609,25.6065478 36.3486522,28.5655913 36.3486522,32.2152435 L27.1311739,32.2152435" id="Stroke-1791" stroke="#025450"></path>
                <path d="M24.1404087,20.0309565 C24.1404087,23.3270435 21.4688435,25.9969565 18.1744087,25.9969565 C14.8766696,25.9969565 12.2067565,23.3270435 12.2067565,20.0309565 C12.2067565,16.7365217 14.8766696,14.0649565 18.1744087,14.0649565 C21.4688435,14.0649565 24.1404087,16.7365217 24.1404087,20.0309565 L24.1404087,20.0309565 Z" id="Stroke-1792" stroke="#025450"></path>
                <path d="M9.68074783,13.2294522 C11.6435304,10.6966696 14.7165739,9.06432174 18.1745739,9.06432174 C21.6259652,9.06432174 24.7006609,10.6950174 26.6634435,13.2278" id="Stroke-1793" stroke="#A5DDEF"></path>
                <path d="M6.58606087,10.4808957 C9.31049565,7.09889565 13.4871913,4.93454783 18.1744087,4.93454783 C22.8500609,4.93454783 27.0218,7.09228696 29.7495391,10.4660261" id="Stroke-1794" stroke="#A5DDEF"></path>
                <path d="M3.28022609,8.00197391 C6.75805217,3.61545217 12.1342261,0.803452174 18.1745739,0.803452174 C24.2182261,0.803452174 29.6010087,3.62371304 33.080487,8.02014783" id="Stroke-1795" stroke="#A5DDEF"></path>
                <path d="M27.7190174,35.5435478 L8.62814783,35.5435478 C8.62814783,30.2714609 12.8990174,25.997287 18.1744087,25.997287 C23.4464957,25.997287 27.7190174,30.2714609 27.7190174,35.5435478 L27.7190174,35.5435478 Z" id="Stroke-1796" stroke="#025450"></path>
            </g>
        </g>
    </g>
</svg>