<?xml version="1.0" encoding="UTF-8"?>
<svg width="66px" height="61px" viewBox="0 0 66 61" version="1.1" xmlns="http://www.w3.org/2000/svg" xmlns:xlink="http://www.w3.org/1999/xlink">
    <!-- Generator: Sketch 51.2 (57519) - http://www.bohemiancoding.com/sketch -->
    <title>Fill 1</title>
    <desc>Created with Sketch.</desc>
    <defs></defs>
    <g id="Advertisers" stroke="none" stroke-width="1" fill="none" fill-rule="evenodd">
        <g id="advertisers" transform="translate(-204.000000, -8150.000000)" fill="#FFFFFF">
            <g id="Group" transform="translate(110.000000, 7295.000000)">
                <g id="testimonial" transform="translate(94.000000, 855.000000)">
                    <path d="M63.3714634,34.1422612 L63.3714634,60.4733377 L39.0559235,60.4733377 L39.0559235,39.685741 C39.0559235,28.4316747 40.3982069,20.2838634 43.0869967,15.2441169 C46.6149399,8.52546047 52.1994423,3.44469143 59.8435202,0 L65.387,8.81865137 C60.7671319,10.7521428 57.3652729,13.6279474 55.1820262,17.4490814 C52.9969698,21.2720253 51.7807705,26.8348098 51.5286022,34.1422612 L63.3714634,34.1422612 Z M24.3155399,34.1422612 L24.3155399,60.4733377 L0,60.4733377 L0,39.685741 C0,28.4316747 1.34288671,20.2838634 4.0316765,15.2441169 C7.55901639,8.52546047 13.144122,3.44469143 20.7875967,0 L26.3310765,8.81865137 C21.7112084,10.7521428 18.3093494,13.6279474 16.126706,17.4490814 C13.9410463,21.2720253 12.7242437,26.8348098 12.4726787,34.1422612 L24.3155399,34.1422612 Z" id="Fill-1"></path>
                </g>
            </g>
        </g>
    </g>
</svg>