<?xml version="1.0" encoding="UTF-8"?>
<svg width="78px" height="81px" viewBox="0 0 78 81" version="1.1" xmlns="http://www.w3.org/2000/svg" xmlns:xlink="http://www.w3.org/1999/xlink">
    <title>committed-publishers-med</title>
    <g id="Page-1" stroke="none" stroke-width="1" fill="none" fill-rule="evenodd" stroke-linecap="round" stroke-linejoin="round">
        <g id="icons-copy" transform="translate(-642.000000, -874.000000)" stroke-width="2">
            <g id="committed-publishers-med" transform="translate(643.000000, 875.000000)">
                <path d="M32.9777905,51.6751851 C32.9777905,56.2776391 30.0722354,60 26.4929283,60 C22.9136213,60 20.0221026,56.3353501 20.0221026,51.6751851 C19.8705937,49.8679157 20.5035105,48.084153 21.7513948,46.8014849 C22.9992791,45.5188167 24.7346691,44.8682578 26.4929283,45.0239899 C28.2535115,44.8637226 29.9928753,45.5122714 31.2440215,46.7955088 C32.4951677,48.0787461 33.1298964,49.865184 32.9777905,51.6751851 Z" id="Path" stroke="#025450"></path>
                <path d="M12,79 L12,67.9141732 C12.0004724,64.398271 14.550333,61.4429733 17.9248555,61.0472441 L27,60" id="Path" stroke="#025450"></path>
                <line x1="19" y1="69" x2="19" y2="79" id="Path" stroke="#025450"></line>
                <path d="M42,79 L42,67.9141732 C41.9987024,64.3931624 39.4434083,61.4359269 36.06641,61.0472441 L27,60" id="Path" stroke="#025450"></path>
                <line x1="35" y1="69" x2="35" y2="79" id="Path" stroke="#025450"></line>
                <path d="M56.9778147,54.6751851 C56.9778147,59.2776391 54.0754172,63 50.5,63 C46.9245828,63 44.0221853,59.2776391 44.0221853,54.6751851 C43.8702448,52.865184 44.5042836,51.0787461 45.7540701,49.7955088 C47.0038566,48.5122714 48.7413302,47.8637226 50.5,48.0239899 C52.2586698,47.8637226 53.9961434,48.5122714 55.2459299,49.7955088 C56.4957164,51.0787461 57.1297552,52.865184 56.9778147,54.6751851 Z" id="Path" stroke="#025450"></path>
                <line x1="42" y1="69" x2="42" y2="79" id="Path" stroke="#025450"></line>
                <path d="M65,79 L65,71.6371511 C64.9987024,68.2393872 62.4434083,65.3856647 59.06641,65.0105871 L50,64" id="Path" stroke="#025450"></path>
                <line x1="58" y1="72" x2="58" y2="79" id="Path" stroke="#025450"></line>
                <polyline id="Path" stroke="#025450" points="19.8767939 32.164 13.2464121 32.164 0 44 0 0 53 0 53 6.776"></polyline>
                <polygon id="Path" stroke="#025450" points="23 38.33213 62.7392364 38.33213 76 50 76 10 23 10"></polygon>
                <line x1="54" y1="20" x2="69" y2="20" id="Path" stroke="#5575C4"></line>
                <line x1="29" y1="20" x2="48" y2="20" id="Path" stroke="#5575C4"></line>
                <line x1="48" y1="29" x2="63" y2="29" id="Path" stroke="#5575C4"></line>
                <line x1="30" y1="29" x2="43" y2="29" id="Path" stroke="#5575C4"></line>
            </g>
        </g>
    </g>
</svg>