<?xml version="1.0" encoding="UTF-8"?>
<svg width="67px" height="75px" viewBox="0 0 67 75" version="1.1" xmlns="http://www.w3.org/2000/svg" xmlns:xlink="http://www.w3.org/1999/xlink">
    <title>program-compliance-services-med-icon</title>
    <g id="Page-1" stroke="none" stroke-width="1" fill="none" fill-rule="evenodd" stroke-linecap="round" stroke-linejoin="round">
        <g id="icons-copy" transform="translate(-644.000000, -1074.000000)" stroke-width="2">
            <g id="program-compliance-services-med-icon" transform="translate(645.000000, 1075.000000)">
                <circle id="Oval" stroke="#5575C4" cx="37" cy="27" r="7"></circle>
                <path d="M57,29.8077646 L57,25.2044458 L50.8833124,24.496243 C50.5427229,22.9535998 49.934094,21.4824103 49.0850063,20.1493425 L52.8773526,15.3506575 L49.6355082,12.1149029 L44.8277917,15.9001252 C43.4959517,15.0539396 42.0262417,14.4464987 40.4849435,14.1051972 L39.7754078,8 L35.2123588,8 L34.5028231,14.1051972 C32.9572766,14.445147 31.4833182,15.0526325 30.1477415,15.9001252 L25.3400251,12.1149029 L22.1348808,15.3506575 L25.9272271,20.1493425 C25.0791249,21.4843152 24.4667319,22.9546015 24.1166876,24.496243 L18,25.2044458 L18,29.8077646 L24.1166876,30.5159674 C24.4646336,32.0582753 25.0771717,33.5289099 25.9272271,34.8628679 L22.1348808,39.6371321 L25.3767252,42.8728867 L30.1844417,39.0876644 C31.5219268,39.9341734 32.9949803,40.545416 34.5395232,40.8948028 L35.249059,47 L39.8365747,47 L40.5461104,40.8948028 C42.0906533,40.545416 43.5637068,39.9341734 44.901192,39.0876644 L49.7089084,42.8728867 L52.9507528,39.6371321 L49.1584065,34.8384471 C50.0093041,33.506318 50.6180693,32.034799 50.9567127,30.4915466 L57,29.8077646 Z" id="Path" stroke="#5575C4"></path>
                <path d="M57.2702883,73 L57.2702883,62.5808081 C57.1686531,55.2800692 58.7793746,48.05765 61.972403,41.4966887 C64.0269403,37.2932833 65.0632381,32.6624784 64.9969404,27.9812276 C65.1932581,14.7158466 55.9222065,3.20127287 42.9557775,0.606275379 C35.2460479,-1.03037037 27.2061096,0.68151262 20.8231902,5.31879908 C14.4402709,9.95608554 10.3099837,17.0860535 9.45320986,24.9463922 C9.24539535,27.0751609 8.62123289,29.14191 7.61644629,31.0283497 L0,45.047569 L6.75928996,47.762948 C7.33254377,47.9951447 7.71622684,48.5437547 7.73889719,49.1636412 L7.73889719,58.9930675 C7.73560227,59.404663 7.89709709,59.800361 8.18716081,60.0914123 C8.47722454,60.3824636 8.87157978,60.5445083 9.2817786,60.5412022 L20.1186837,60.5412022 C20.5300117,60.5411892 20.9243168,60.7059813 21.2140178,60.9989757 C21.5037188,61.2919701 21.6648296,61.6889081 21.6615651,62.1016236 L21.6615651,73" id="Path" stroke="#025450"></path>
            </g>
        </g>
    </g>
</svg>