<?xml version="1.0" encoding="UTF-8"?>
<svg width="78px" height="79px" viewBox="0 0 78 79" version="1.1" xmlns="http://www.w3.org/2000/svg" xmlns:xlink="http://www.w3.org/1999/xlink">
    <title>strategic-expertise-icon-med</title>
    <g id="Page-1" stroke="none" stroke-width="1" fill="none" fill-rule="evenodd">
        <g id="icons-copy" transform="translate(-338.000000, -876.000000)">
            <g id="strategic-expertise-icon-med" transform="translate(339.000000, 877.000000)">
                <path d="M6,1 L70,1 L70,63.2550676 C70,64.7710519 68.7598452,66 67.2300368,66 L8.76996321,66 C7.24015477,66 6,64.7710519 6,63.2550676 L6,1 Z" id="Path" stroke="#025450" stroke-width="2" stroke-linecap="round" stroke-linejoin="round"></path>
                <path d="M61.1139971,13.71206 L61.1139971,55.28794 L56.8860029,55.28794 L56.8860029,13.71206 L61.1139971,13.71206 M64,11 L54,11 L54,58 L64,58 L64,11 Z" id="Shape" fill="#5575C4" fill-rule="nonzero"></path>
                <path d="M49.1139971,28.7693639 L49.1139971,55.2306361 L44.8860029,55.2306361 L44.8860029,28.7693639 L49.1139971,28.7693639 M52,26 L42,26 L42,58 L52,58 L52,26 Z" id="Shape" fill="#5575C4" fill-rule="nonzero"></path>
                <path d="M37.1139971,44.7610009 L37.1139971,55.1837791 L32.8860029,55.1837791 L32.8860029,44.7610009 L37.1139971,44.7610009 M40,42 L30,42 L30,58 L40,58 L40,42 Z" id="Shape" fill="#5575C4" fill-rule="nonzero"></path>
                <line x1="0" y1="0.5" x2="76" y2="0.5" id="Path" stroke="#025450" stroke-width="2" stroke-linecap="round" stroke-linejoin="round"></line>
                <line x1="38.5" y1="67" x2="38.5" y2="76" id="Path" stroke="#025450" stroke-width="2" stroke-linecap="round" stroke-linejoin="round"></line>
                <line x1="33" y1="76.5" x2="43" y2="76.5" id="Path" stroke="#025450" stroke-width="2" stroke-linecap="round" stroke-linejoin="round"></line>
                <line x1="32" y1="10.5" x2="43" y2="10.5" id="Path" stroke="#025450" stroke-width="2" stroke-linecap="round" stroke-linejoin="round"></line>
                <line x1="14" y1="10.5" x2="27" y2="10.5" id="Path" stroke="#025450" stroke-width="2" stroke-linecap="round" stroke-linejoin="round"></line>
                <line x1="27" y1="18.5" x2="43" y2="18.5" id="Path" stroke="#025450" stroke-width="2" stroke-linecap="round" stroke-linejoin="round"></line>
                <line x1="14" y1="18.5" x2="22" y2="18.5" id="Path" stroke="#025450" stroke-width="2" stroke-linecap="round" stroke-linejoin="round"></line>
                <line x1="14" y1="26.5" x2="33" y2="26.5" id="Path" stroke="#025450" stroke-width="2" stroke-linecap="round" stroke-linejoin="round"></line>
                <line x1="14" y1="34.5" x2="33" y2="34.5" id="Path" stroke="#025450" stroke-width="2" stroke-linecap="round" stroke-linejoin="round"></line>
                <line x1="14" y1="42.5" x2="24" y2="42.5" id="Path" stroke="#025450" stroke-width="2" stroke-linecap="round" stroke-linejoin="round"></line>
                <line x1="14" y1="50.5" x2="24" y2="50.5" id="Path" stroke="#025450" stroke-width="2" stroke-linecap="round" stroke-linejoin="round"></line>
                <line x1="14" y1="58.5" x2="24" y2="58.5" id="Path" stroke="#025450" stroke-width="2" stroke-linecap="round" stroke-linejoin="round"></line>
            </g>
        </g>
    </g>
</svg>