<?xml version="1.0" encoding="UTF-8"?>
<svg width="79px" height="80px" viewBox="0 0 79 80" version="1.1" xmlns="http://www.w3.org/2000/svg" xmlns:xlink="http://www.w3.org/1999/xlink">
    <title>technology-icon-gb</title>
    <g id="Page-1" stroke="none" stroke-width="1" fill="none" fill-rule="evenodd" stroke-linecap="round" stroke-linejoin="round">
        <g id="icons-copy" transform="translate(-795.000000, -874.000000)" stroke-width="2">
            <g id="technology-icon-gb" transform="translate(796.000000, 875.000000)">
                <rect id="Rectangle" stroke="#025450" x="0" y="0" width="77" height="67" rx="3"></rect>
                <polygon id="Path" stroke="#5575C4" points="38 13 18 21.5 38 30 58 21.5"></polygon>
                <polygon id="Path" stroke="#5575C4" points="58 22 38 30.4195166 18 22 18 45.5804834 38 54 58 45.5804834"></polygon>
                <polyline id="Path" stroke="#025450" points="55 9 68 9 68 22"></polyline>
                <polyline id="Path" stroke="#025450" points="9 22 9 9 22 9"></polyline>
                <polyline id="Path" stroke="#025450" points="22 58 9 58 9 45"></polyline>
                <polyline id="Path" stroke="#025450" points="68 45 68 58 55 58"></polyline>
                <rect id="Rectangle" stroke="#025450" x="22" y="67" width="33" height="10"></rect>
                <line x1="8" y1="77.5" x2="68" y2="77.5" id="Path" stroke="#025450"></line>
                <line x1="38.5" y1="30" x2="38.5" y2="53" id="Path" stroke="#5575C4"></line>
            </g>
        </g>
    </g>
</svg>