<svg xmlns="http://www.w3.org/2000/svg" viewBox="0 0 55.08 56.24"><defs><style>.cls-1,.cls-2{fill:none;stroke-linecap:round;stroke-linejoin:round;stroke-width:2px;}.cls-1{stroke:#025450;}.cls-2{stroke:#a5ddef;}</style></defs><title>dedicated-expertise-icon-gb</title><g id="Layer_2" data-name="Layer 2"><g id="Layer_1-2" data-name="Layer 1"><path class="cls-1" d="M16,34.47c0,3.18-2.06,5.77-4.61,5.77s-4.62-2.59-4.62-5.77a4.26,4.26,0,0,1,4.62-4.62A4.25,4.25,0,0,1,16,34.47Z"/><path class="cls-1" d="M1,55.24V45.52a4.62,4.62,0,0,1,4.11-4.59l6.28-.69"/><line class="cls-1" x1="5.62" y1="46.01" x2="5.62" y2="55.24"/><line class="cls-1" x1="17.16" y1="46.01" x2="17.16" y2="55.24"/><path class="cls-1" d="M32.16,34.47c0,3.18-2.07,5.77-4.62,5.77s-4.61-2.59-4.61-5.77a4.25,4.25,0,0,1,4.61-4.62A4.26,4.26,0,0,1,32.16,34.47Z"/><path class="cls-1" d="M17.16,55.24V45.52a4.61,4.61,0,0,1,4.1-4.59l6.28-.69"/><line class="cls-1" x1="21.77" y1="46.01" x2="21.77" y2="55.24"/><path class="cls-1" d="M37.93,55.24V45.52a4.62,4.62,0,0,0-4.11-4.59l-6.28-.69"/><line class="cls-1" x1="33.31" y1="46.01" x2="33.31" y2="55.24"/><path class="cls-1" d="M48.31,34.47c0,3.18-2.06,5.77-4.61,5.77s-4.62-2.59-4.62-5.77a4.26,4.26,0,0,1,4.62-4.62A4.25,4.25,0,0,1,48.31,34.47Z"/><line class="cls-1" x1="37.93" y1="46.01" x2="37.93" y2="55.24"/><path class="cls-1" d="M54.08,55.24V45.52A4.61,4.61,0,0,0,50,40.93l-6.28-.69"/><line class="cls-1" x1="49.47" y1="46.01" x2="49.47" y2="55.24"/><polygon class="cls-1" points="1 1 1 18.31 7.92 18.31 11.39 24.08 14.85 18.31 24.08 18.31 27.54 24.08 31 18.31 40.24 18.31 43.7 24.08 47.16 18.31 54.09 18.31 54.09 1 1 1"/><line class="cls-2" x1="33.92" y1="6.77" x2="44.51" y2="6.77"/><line class="cls-2" x1="21.63" y1="6.77" x2="30.6" y2="6.77"/><line class="cls-2" x1="10.14" y1="6.77" x2="17.48" y2="6.77"/><line class="cls-2" x1="35.97" y1="10.98" x2="41.07" y2="10.98"/><line class="cls-2" x1="25.23" y1="10.85" x2="32.12" y2="10.85"/><line class="cls-2" x1="10.14" y1="10.85" x2="21.55" y2="10.85"/></g></g></svg>