<?xml version="1.0" encoding="utf-8"?>
<!-- Generator: Adobe Illustrator 26.4.1, SVG Export Plug-In . SVG Version: 6.00 Build 0)  -->
<svg version="1.1" id="Layer_1" xmlns="http://www.w3.org/2000/svg" xmlns:xlink="http://www.w3.org/1999/xlink" x="0px" y="0px"
	 viewBox="0 0 55.1 56.2" style="enable-background:new 0 0 55.1 56.2;" xml:space="preserve">
<style type="text/css">
	.st0{fill:none;stroke:#025450;stroke-width:1.9343;stroke-linecap:round;stroke-linejoin:round;stroke-miterlimit:10;}
	.st1{fill:#A5DDEF;}
</style>
<g>
	<path class="st0" d="M47.8,47.9H7.5c-1.1,0-1.9-0.9-1.9-1.9V1.6h44.2V46C49.7,47.1,48.8,47.9,47.8,47.9z"/>
	<g>
		<path class="st1" d="M43.6,10.3v30.1h-2.8V10.3H43.6 M45.5,8.4h-6.6v33.9h6.6V8.4L45.5,8.4z"/>
	</g>
	<g>
		<path class="st1" d="M35.3,21.6v18.7h-2.8V21.6H35.3 M37.3,19.7h-6.6v22.6h6.6V19.7L37.3,19.7z"/>
	</g>
	<g>
		<path class="st1" d="M27.1,32.9v7.4h-2.8v-7.4H27.1 M29,31h-6.6v11.3H29V31L29,31z"/>
	</g>
	<line class="st0" x1="1.1" y1="1.6" x2="54.1" y2="1.6"/>
	<line class="st0" x1="27.6" y1="48.5" x2="27.6" y2="55.2"/>
	<line class="st0" x1="24.3" y1="55.2" x2="30.9" y2="55.2"/>
	<line class="st0" x1="23.2" y1="8.4" x2="30.9" y2="8.4"/>
	<line class="st0" x1="11.1" y1="8.4" x2="19.9" y2="8.4"/>
	<line class="st0" x1="19.9" y1="14" x2="30.9" y2="14"/>
	<line class="st0" x1="11.1" y1="14" x2="16.6" y2="14"/>
	<line class="st0" x1="11.1" y1="19.7" x2="24.3" y2="19.7"/>
	<line class="st0" x1="11.1" y1="25.3" x2="24.3" y2="25.3"/>
	<line class="st0" x1="11.1" y1="31" x2="17.7" y2="31"/>
	<line class="st0" x1="11.1" y1="36.6" x2="17.7" y2="36.6"/>
	<line class="st0" x1="11.1" y1="42.3" x2="17.7" y2="42.3"/>
</g>
</svg>
