<?xml version="1.0" encoding="UTF-8"?>
<svg width="76px" height="76px" viewBox="0 0 76 76" version="1.1" xmlns="http://www.w3.org/2000/svg" xmlns:xlink="http://www.w3.org/1999/xlink">
    <title>Group 31</title>
    <g id="Page-1" stroke="none" stroke-width="1" fill="none" fill-rule="evenodd">
        <g id="icons" transform="translate(-491.000000, -1168.000000)">
            <g id="Group-31" transform="translate(492.000000, 1169.000000)">
                <path d="M2,34.5806452 C2,36.5571613 3.60412903,38.1612903 5.58064516,38.1612903 C7.55716129,38.1612903 9.16129032,36.5571613 9.16129032,34.5806452 C9.16129032,32.604129 7.55716129,31 5.58064516,31 C3.60412903,31 2,32.604129 2,34.5806452 Z" id="Stroke-1" stroke="#025450" stroke-width="2" stroke-linejoin="round"></path>
                <path d="M10,64.483871 C10,65.8015484 11.0694194,66.8709677 12.3870968,66.8709677 L17.1612903,66.8709677 C18.4789677,66.8709677 19.5483871,65.8015484 19.5483871,64.483871 L19.5483871,45.3870968 C19.5483871,44.0694194 18.4789677,43 17.1612903,43 L12.3870968,43 C11.0694194,43 10,44.0694194 10,45.3870968 L10,64.483871 Z" id="Stroke-3" stroke="#025450" stroke-width="2" stroke-linejoin="round"></path>
                <g id="Group-22" transform="translate(28.000000, 53.000000)" fill="#A5DDEF" fill-rule="nonzero" stroke="#A5DDEF">
                    <circle id="Oval-7" cx="9.5" cy="1.5" r="1.5"></circle>
                    <circle id="Oval-7-Copy-2" cx="17.5" cy="1.5" r="1.5"></circle>
                    <circle id="Oval-7-Copy" cx="1.5" cy="1.5" r="1.5"></circle>
                </g>
                <path d="M43.9354839,71.5806452 C43.9354839,72.8983226 42.8660645,73.9677419 41.5483871,73.9677419 L34.3870968,73.9677419 C33.0694194,73.9677419 32,72.8983226 32,71.5806452 L32,70.3870968 C32,69.0694194 33.0694194,68 34.3870968,68 L41.5483871,68 C42.8660645,68 43.9354839,69.0694194 43.9354839,70.3870968 L43.9354839,71.5806452 Z" id="Stroke-11" stroke="#025450" stroke-width="2" stroke-linejoin="round"></path>
                <path d="M42,73.5483871 L61.0967742,73.5483871 C63.0732903,73.5483871 64.6774194,71.9442581 64.6774194,69.9677419 L64.6774194,64" id="Stroke-13" stroke="#025450" stroke-width="2" stroke-linejoin="round"></path>
                <path d="M9.5483871,64.0967742 C4.27529032,64.0967742 0,59.8214839 0,54.5483871 C0,49.2752903 4.27529032,45 9.5483871,45" id="Stroke-15" stroke="#025450" stroke-width="2" stroke-linejoin="round"></path>
                <polyline id="Stroke-17" stroke="#025450" stroke-width="2" stroke-linejoin="round" points="3.19354839 38 2 41.5806452 2 48.7419355"></polyline>
                <path d="M71.1612903,34.5806452 C71.1612903,36.5571613 69.5571613,38.1612903 67.5806452,38.1612903 C65.604129,38.1612903 64,36.5571613 64,34.5806452 C64,32.604129 65.604129,31 67.5806452,31 C69.5571613,31 71.1612903,32.604129 71.1612903,34.5806452 Z" id="Stroke-19" stroke="#025450" stroke-width="2" stroke-linejoin="round"></path>
                <path d="M64.5483871,64.483871 C64.5483871,65.8015484 63.4789677,66.8709677 62.1612903,66.8709677 L57.3870968,66.8709677 C56.0694194,66.8709677 55,65.8015484 55,64.483871 L55,45.3870968 C55,44.0694194 56.0694194,43 57.3870968,43 L62.1612903,43 C63.4789677,43 64.5483871,44.0694194 64.5483871,45.3870968 L64.5483871,64.483871 Z" id="Stroke-21" stroke="#025450" stroke-width="2" stroke-linejoin="round"></path>
                <path d="M64,64.0967742 C69.2730968,64.0967742 73.5483871,59.8214839 73.5483871,54.5483871 C73.5483871,49.2752903 69.2730968,45 64,45" id="Stroke-23" stroke="#025450" stroke-width="2" stroke-linejoin="round"></path>
                <polyline id="Stroke-25" stroke="#025450" stroke-width="2" stroke-linejoin="round" points="70 38 71.1935484 41.5806452 71.1935484 48.7419355"></polyline>
                <path d="M4,31.6261695 C4.77374738,14.0294803 19.2854409,0 37.0728089,0 C54.9061759,0 69.4469044,14.1021359 70.1513449,31.7627584" id="Stroke-27" stroke="#025450" stroke-width="2" stroke-linejoin="round"></path>
                <path d="M8,30.7547059 C8.75865349,15.2988188 21.5308628,3 37.1748774,3 C52.8280675,3 65.6060825,15.3132498 66.3510773,30.7819044" id="Stroke-29" stroke="#025450" stroke-width="2" stroke-linejoin="round"></path>
            </g>
        </g>
    </g>
</svg>