<?xml version="1.0" encoding="utf-8"?>
<!-- Generator: Adobe Illustrator 26.4.1, SVG Export Plug-In . SVG Version: 6.00 Build 0)  -->
<svg version="1.1" id="Layer_1" xmlns="http://www.w3.org/2000/svg" xmlns:xlink="http://www.w3.org/1999/xlink" x="0px" y="0px"
	 viewBox="0 0 76 76" style="enable-background:new 0 0 76 76;" xml:space="preserve">
<style type="text/css">
	.st0{fill:none;stroke:#025450;stroke-width:2.6613;stroke-linecap:round;stroke-linejoin:round;stroke-miterlimit:10;}
	.st1{fill:none;stroke:#A5DDEF;stroke-width:2.6613;stroke-linecap:round;stroke-linejoin:round;stroke-miterlimit:10;}
</style>
<g>
	
		<rect x="29.3" y="64.6" transform="matrix(-1 -1.224647e-16 1.224647e-16 -1 86.2135 138.4231)" class="st0" width="27.6" height="9.2"/>
	<path class="st0" d="M12.4,43.1v18.4c0,1.7,1.4,3.1,3.1,3.1h55.3c1.7,0,3.1-1.4,3.1-3.1V15.5c0-1.7-1.4-3.1-3.1-3.1H43.1"/>
	<line class="st0" x1="69.2" y1="73.8" x2="17" y2="73.8"/>
	<path class="st0" d="M30.8,17c0,4.2-2.8,7.7-6.1,7.7s-6.1-3.4-6.1-7.7s2.8-6.1,6.1-6.1S30.8,12.8,30.8,17z"/>
	<path class="st0" d="M10.9,41.6V30.3c0-2.3,1.8-4.3,4.1-4.6l9.7-1.1"/>
	<line class="st0" x1="17" y1="32.4" x2="17" y2="44.6"/>
	<line class="st0" x1="32.4" y1="44.6" x2="32.4" y2="32.4"/>
	<path class="st0" d="M24.7,24.7l9.7,1.1c2.3,0.3,4.1,2.2,4.1,4.6v0.5"/>
	<path class="st0" d="M40.5,39.2c-3.9,4.3-9.6,6.9-15.8,6.9c-11.9,0-21.5-9.6-21.5-21.5S12.8,3.2,24.7,3.2
		c11.9,0,21.5,9.6,21.5,21.5c0,4-1.1,7.8-3,11"/>
	<polygon class="st1" points="52.3,47.7 47.7,58.5 38.5,33.9 63.1,43.1 	"/>
</g>
</svg>
