<?xml version="1.0" encoding="UTF-8"?>
<svg width="518px" height="517.5px" viewBox="0 0 518 517.5" version="1.1" xmlns="http://www.w3.org/2000/svg" xmlns:xlink="http://www.w3.org/1999/xlink">
    <title>Group 35</title>
    <defs>
        <rect id="path-1" x="0" y="0" width="1140" height="724"></rect>
    </defs>
    <g id="CJ-Influence-Page_Modules" stroke="none" stroke-width="1" fill="none" fill-rule="evenodd">
        <g id="Group-35" transform="translate(-622, -206.5)">
            <mask id="mask-2" fill="white">
                <use xlink:href="#path-1"></use>
            </mask>
            <g id="Mask"></g>
            <g id="Group-17" mask="url(#mask-2)" fill="#A5DDEF" fill-opacity="0.2">
                <g transform="translate(622, 206.5)">
                    <path d="M539,519 C539,529.49332 530.49332,538 520,538 C509.50668,538 501,529.49332 501,519 C501,508.50668 509.50668,500 520,500 C530.49332,500 539,508.50668 539,519" id="Fill-1"></path>
                    <path d="M517.5,385.263881 C443.482004,385.263881 383.263881,445.482004 383.263881,519.5 C383.263881,593.517996 443.482004,653.736119 517.5,653.736119 C591.517996,653.736119 651.736119,593.517996 651.736119,519.5 C651.736119,445.482004 591.517996,385.263881 517.5,385.263881 M517.5,673 C432.8599,673 364,604.1401 364,519.5 C364,434.8599 432.8599,366 517.5,366 C602.1401,366 671,434.8599 671,519.5 C671,604.1401 602.1401,673 517.5,673" id="Fill-3"></path>
                    <path d="M519.500383,311.144825 C464.380807,311.144825 412.560273,332.609237 373.585172,371.585037 C334.609306,410.560071 313.144857,462.380518 313.144857,517.5 C313.144857,572.618717 334.609306,624.439163 373.585172,663.414963 C412.560273,702.389997 464.380807,723.855175 519.500383,723.855175 C574.619959,723.855175 626.440493,702.389997 665.415594,663.414963 C704.390694,624.439163 725.855143,572.618717 725.855143,517.5 C725.855143,462.380518 704.390694,410.560071 665.415594,371.585037 C626.440493,332.609237 574.619959,311.144825 519.500383,311.144825 M519.500383,743 C459.266833,743 402.638642,719.543761 360.047461,676.952652 C317.456279,634.360777 294,577.733448 294,517.5 C294,457.266552 317.456279,400.638457 360.047461,358.047348 C402.638642,315.456239 459.266833,292 519.500383,292 C579.733167,292 636.361358,315.456239 678.952539,358.047348 C721.543721,400.638457 745,457.267318 745,517.5 C745,577.732682 721.543721,634.360777 678.952539,676.952652 C636.361358,719.543761 579.733167,743 519.500383,743" id="Fill-5"></path>
                    <path d="M517,165.199838 C469.502772,165.199838 423.432473,174.499471 380.066273,192.842228 C338.175386,210.559838 300.551462,235.9282 268.239738,268.239991 C235.928014,300.551014 210.560473,338.175016 192.842131,380.065989 C174.50018,423.432279 165.199798,469.502673 165.199798,517 C165.199798,564.497327 174.50018,610.567721 192.842131,653.934011 C210.560473,695.824984 235.928014,733.448986 268.239738,765.760009 C300.551462,798.072568 338.175386,823.440162 380.066273,841.157772 C423.432473,859.500529 469.502772,868.800162 517,868.800162 C564.497228,868.800162 610.567527,859.500529 653.933727,841.157772 C695.824614,823.440162 733.448538,798.072568 765.760262,765.760009 C798.071986,733.448986 823.439527,695.824984 841.157869,653.934011 C859.49982,610.567721 868.800202,564.497327 868.800202,517 C868.800202,469.502673 859.49982,423.432279 841.157869,380.065989 C823.439527,338.175016 798.071986,300.551014 765.760262,268.239991 C733.448538,235.9282 695.824614,210.559838 653.933727,192.842228 C610.567527,174.499471 564.497228,165.199838 517,165.199838 M517,888 C466.920015,888 418.332238,878.189651 372.5868,858.84159 C328.408065,840.154772 288.732066,813.405559 254.663945,779.336599 C220.595055,745.268406 193.845897,705.593094 175.159117,661.412731 C155.811097,615.667966 146,567.080857 146,517 C146,466.919143 155.811097,418.332802 175.159117,372.587269 C193.845897,328.407674 220.595055,288.732362 254.663945,254.663401 C288.732066,220.594441 328.408065,193.845228 372.5868,175.159178 C418.332238,155.810349 466.920015,146 517,146 C567.079985,146 615.667762,155.810349 661.4132,175.159178 C705.591935,193.845228 745.267934,220.594441 779.336055,254.663401 C813.404945,288.732362 840.154103,328.407674 858.840883,372.587269 C878.188903,418.332802 888,466.919143 888,517 C888,567.080857 878.188903,615.667966 858.840883,661.412731 C840.154103,705.593094 813.404945,745.268406 779.336055,779.336599 C745.267934,813.405559 705.591935,840.154772 661.4132,858.84159 C615.667762,878.189651 567.079985,888 517,888" id="Fill-7"></path>
                    <path d="M517.5,93.1713813 C460.211311,93.1713813 404.642679,104.38894 352.334715,126.513481 C301.80739,147.88497 256.427196,178.481728 217.454079,217.454079 C178.481728,256.427196 147.884203,301.80739 126.512714,352.334715 C104.38894,404.641912 93.1713813,460.212078 93.1713813,517.5 C93.1713813,574.787922 104.38894,630.358088 126.512714,682.665285 C147.884203,733.191843 178.481728,778.572804 217.454079,817.545921 C256.427196,856.518272 301.80739,887.11503 352.334715,908.486519 C404.642679,930.61106 460.211311,941.828619 517.5,941.828619 C574.788689,941.828619 630.357321,930.61106 682.665285,908.486519 C733.19261,887.11503 778.572804,856.518272 817.545921,817.545921 C856.518272,778.572804 887.115797,733.191843 908.487286,682.665285 C930.61106,630.358088 941.828619,574.787922 941.828619,517.5 C941.828619,460.212078 930.61106,404.641912 908.487286,352.334715 C887.115797,301.80739 856.518272,256.427196 817.545921,217.454079 C778.572804,178.481728 733.19261,147.88497 682.665285,126.513481 C630.357321,104.38894 574.788689,93.1713813 517.5,93.1713813 M517.5,961 C457.632377,961 399.549227,949.272483 344.866312,926.144128 C292.053758,903.805635 244.625294,871.829304 203.897611,831.101622 C163.170696,790.374706 131.194365,742.946242 108.855872,690.132921 C85.7275174,635.450007 74,577.367623 74,517.5 C74,457.632377 85.7275174,399.549227 108.855872,344.867079 C131.194365,292.053758 163.170696,244.625294 203.897611,203.898378 C244.625294,163.170696 292.053758,131.194365 344.866312,108.855872 C399.549227,85.7275174 457.632377,74 517.5,74 C577.367623,74 635.450773,85.7275174 690.133688,108.855872 C742.946242,131.194365 790.374706,163.170696 831.102389,203.898378 C871.829304,244.625294 903.805635,292.053758 926.144128,344.867079 C949.272483,399.549227 961,457.632377 961,517.5 C961,577.367623 949.272483,635.450007 926.144128,690.132921 C903.805635,742.946242 871.829304,790.374706 831.102389,831.101622 C790.374706,871.829304 742.946242,903.805635 690.133688,926.144128 C635.450773,949.272483 577.367623,961 517.5,961" id="Fill-9"></path>
                    <path d="M518,19.1709845 C450.654632,19.1709845 385.328352,32.3583212 323.836269,58.3672124 C264.436891,83.491171 211.089409,119.459772 165.274591,165.274591 C119.459772,211.088642 83.491171,264.436891 58.3672124,323.836269 C32.3583212,385.327585 19.1709845,450.654632 19.1709845,518 C19.1709845,585.345368 32.3583212,650.672415 58.3672124,712.163731 C83.491171,771.563109 119.459772,824.911358 165.274591,870.725409 C211.089409,916.540228 264.436891,952.508829 323.836269,977.632788 C385.328352,1003.64168 450.654632,1016.82902 518,1016.82902 C585.345368,1016.82902 650.671648,1003.64168 712.163731,977.632788 C771.563109,952.508829 824.910591,916.540228 870.725409,870.725409 C916.540228,824.911358 952.508829,771.563109 977.632788,712.163731 C1003.64168,650.672415 1016.82902,585.345368 1016.82902,518 C1016.82902,450.654632 1003.64168,385.327585 977.632788,323.836269 C952.508829,264.436891 916.540228,211.088642 870.725409,165.274591 C824.910591,119.459772 771.563109,83.491171 712.163731,58.3672124 C650.671648,32.3583212 585.345368,19.1709845 518,19.1709845 M518,1036 C448.074218,1036 380.235772,1022.30348 316.368021,995.289264 C254.684228,969.199088 199.287751,931.850943 151.719171,884.280829 C104.149824,836.712249 66.8009119,781.316539 40.7107358,719.631979 C13.697285,655.764228 0,587.925782 0,518 C0,448.074218 13.697285,380.235772 40.7107358,316.368021 C66.8009119,254.683461 104.149824,199.287751 151.719171,151.719171 C199.287751,104.149057 254.684228,66.8009119 316.368021,40.7107358 C380.235772,13.6965181 448.074218,0 518,0 C587.925782,0 655.764228,13.6965181 719.631979,40.7107358 C781.315772,66.8009119 836.712249,104.149057 884.280829,151.719171 C931.850176,199.287751 969.199088,254.683461 995.289264,316.368021 C1022.30272,380.235772 1036,448.074218 1036,518 C1036,587.925782 1022.30272,655.764228 995.289264,719.631979 C969.199088,781.316539 931.850176,836.712249 884.280829,884.280829 C836.712249,931.850943 781.315772,969.199088 719.631979,995.289264 C655.764228,1022.30348 587.925782,1036 518,1036" id="Fill-11"></path>
                    <path d="M517.5,237.21229 C442.632685,237.21229 372.245682,266.367324 319.306534,319.306404 C266.367386,372.246252 237.212314,442.633165 237.212314,517.500384 C237.212314,592.367603 266.367386,662.753748 319.306534,715.693596 C372.245682,768.633445 442.632685,797.78771 517.5,797.78771 C592.367315,797.78771 662.754318,768.633445 715.693466,715.693596 C768.632614,662.753748 797.787686,592.367603 797.787686,517.500384 C797.787686,442.633165 768.632614,372.246252 715.693466,319.306404 C662.754318,266.367324 592.367315,237.21229 517.5,237.21229 M517.5,817 C477.071911,817 437.84805,809.080694 400.91814,793.459566 C365.253168,778.374076 333.223934,756.780999 305.721122,729.278991 C278.219078,701.776214 256.625205,669.747021 241.540465,634.082095 C225.920084,597.151463 218,557.927653 218,517.500384 C218,477.072347 225.920084,437.848537 241.540465,400.917905 C256.625205,365.252979 278.219078,333.224555 305.721122,305.721009 C333.223934,278.219001 365.253168,256.625924 400.91814,241.540434 C437.84805,225.920074 477.071911,218 517.5,218 C557.928089,218 597.15195,225.920074 634.08186,241.540434 C669.746832,256.625924 701.776066,278.219001 729.278878,305.721009 C756.780922,333.224555 778.374795,365.252979 793.459535,400.917905 C809.079916,437.848537 817,477.072347 817,517.500384 C817,557.927653 809.079916,597.151463 793.459535,634.082095 C778.374795,669.747021 756.780922,701.776214 729.278878,729.278991 C701.776066,756.780999 669.746832,778.374076 634.08186,793.459566 C597.15195,809.080694 557.928089,817 517.5,817" id="Fill-13"></path>
                    <path d="M519,456.130213 C484.88487,456.130213 457.130123,483.885091 457.130123,518.000383 C457.130123,552.115674 484.88487,579.869787 519,579.869787 C553.11513,579.869787 580.869877,552.115674 580.869877,518.000383 C580.869877,483.885091 553.11513,456.130213 519,456.130213 M519,599 C474.33652,599 438,562.664073 438,518.000383 C438,473.335927 474.33652,437 519,437 C563.66348,437 600,473.335927 600,518.000383 C600,562.664073 563.66348,599 519,599" id="Fill-15"></path>
                </g>
            </g>
        </g>
    </g>
</svg>