<svg xmlns="http://www.w3.org/2000/svg" width="1416.49" height="823.86" viewBox="0 0 1416.49 823.86">
  <title>barnes-noble-advertiser-logo</title>
  <g id="Layer_2" data-name="Layer 2">
    <g id="Layer_1-2" data-name="Layer 1">
      <g>
        <path d="M946.57,397.94c-18.17,0-35.82-.07-53.47.06-3.38,0-3.55-2.23-4.2-4.44-7.41-25.39-14.94-50.74-22.23-76.17-8.8-30.67-17.55-61.35-26-92.12-2.49-9.1-3.89-18.49-6-28.82.64,67.66,1.28,134.18,1.92,201.1H772.47V10.35c1.37-.14,2.64-.38,3.91-.38,18.33,0,36.66,0,55-.07,2.77,0,4.55.36,5.39,3.56Q860,102.28,883.41,191c1,3.78,1.93,7.58,3,11.59-.59-64.21-1.18-128.1-1.76-192.33h62Z" transform="translate(-9.13 -3.65)"/>
        <path d="M452.43,812.65H388.25V425H393c18,0,36,0,54-.05,2.85,0,4.37.55,5.2,3.74Q475,516,498.16,603.25c1.1,4.17,2,8.39,3.45,12.54V425.35H562v387.2c-1.21.13-2.48.37-3.74.38-16.16,0-32.33,0-48.49.07-2.84,0-4.44-.51-5.33-3.62-15.55-54.17-31.34-108.27-46.76-162.48-3.18-11.17-5.05-22.71-7.54-34.08-.12-.57-.31-1.12-.12-.46C450.82,678.28,451.62,745.31,452.43,812.65Z" transform="translate(-9.13 -3.65)"/>
        <path d="M660.6,198.35C668,203.93,676,208.61,682.31,215c11.93,12,17,27.77,19.37,44.06,2.06,14.12,2.92,28.46,3.59,42.73,1.17,24.43,1.61,48.9,2.73,73.34.34,7.43,1.92,14.81,3,22.53h-70.1c-1.29-9.84-3.4-19.66-3.69-29.53-.79-26.79-.77-53.61-1.15-80.42-.19-13.65-2.36-26.89-9.32-38.9-4.83-8.35-11.65-14.51-21-17.48-2.15-.68-4.5-.73-7.47-1.18V397.63H529.21V10H534c33.66,0,67.32-.16,101,.05,22.38.14,42.36,6.64,57.42,24.21,11.07,12.9,16.4,28.42,18.94,44.94,3.88,25.29,3.69,50.45-4.4,75-7.52,22.86-21.51,39.18-46.27,44.09C660.46,198.31,660.3,198.72,660.6,198.35ZM598.28,57.62V171.44c8.66,0,17.11.28,25.53-.08,7.78-.34,13-4.77,15.61-12,1.18-3.27,2.5-6.71,2.58-10.1.4-17.77,1-35.57.32-53.33-.27-7.82-2.77-15.67-5.07-23.27A19.38,19.38,0,0,0,625,59.6C616.37,56.48,607.43,57.25,598.28,57.62Z" transform="translate(-9.13 -3.65)"/>
        <path d="M850.51,425H939.7c12.24,0,24.23,1.59,35.77,5.81,22.89,8.37,35.52,25.82,41.14,48.51,6.92,28,8.14,56.38,2.12,84.64-3.74,17.57-12,32.49-30.23,39.36-2.16.81-4.36,1.51-6.53,2.28-.1,0-.13.27-.53,1.16a8.63,8.63,0,0,0,1.09.33c19.57,4.07,31.39,17.07,39.35,34.37,10.14,22,11.93,45.49,11.37,69.3-.4,17.07-2.54,33.86-8.53,50-10.83,29.11-32.27,45.25-62.45,50.11a181.06,181.06,0,0,1-26.84,2.08c-27,.26-54,.09-81,.09-1.16,0-2.32-.1-3.93-.17Zm66.75,206.13V767.6c7.24,0,14.19.26,21.11-.07,9.47-.45,15.43-5.84,17.87-14.74,1.7-6.21,3.4-12.63,3.66-19,.76-18.94,1.49-37.93.88-56.85-.34-10.48-2.8-21-5.44-31.23-1.9-7.38-7.16-13.34-15.08-14.41C932.8,630.29,925.1,631.08,917.26,631.08Zm0-49c4.56,0,8.86-.24,13.12,0,15.5,1,22-6.4,23.48-19.21,1.69-15,2-30.16,2-45.25a140,140,0,0,0-2.69-26.2c-3.52-18.47-13.63-24-36-20.64Z" transform="translate(-9.13 -3.65)"/>
        <path d="M92.29,397.94V10.25c1.62-.11,3.06-.29,4.5-.29,27.33,0,54.66-.12,82,0,16,.09,31.46,2.71,45.56,10.93,15.26,8.91,24.37,22.63,29,39.11,8.28,29.28,9.61,59.13,3.24,88.9-1.83,8.54-6.3,16.74-10.72,24.43-4.62,8-12.41,12.78-21.3,15.53-1.55.47-3.06,1.1-5.51,2a22.61,22.61,0,0,0,3.1,1.44c16.72,4.13,27.81,15,35.62,29.76,7.51,14.21,11.15,29.53,12.55,45.38,2.16,24.21,1.59,48.28-5.48,71.78-10.33,34.3-35.39,55.17-71.18,57.37-24.74,1.53-49.6,1-74.41,1.33C110.47,398,101.65,397.94,92.29,397.94Zm62.76-182.1V340.46c0,12.5,0,12.5,12.44,12.5,20.14,0,25.9-4.82,29.44-24.65.15-.82.21-1.65.31-2.47a341.45,341.45,0,0,0,1.32-69.72c-.76-9.77-3.68-19.51-6.72-28.9A16.24,16.24,0,0,0,177.66,216C170.45,215.31,163.12,215.84,155.05,215.84Zm.43-160.75v112c4.9,0,9.39-.27,13.85,0,15.47,1.1,21.56-7.61,22.64-19a411.51,411.51,0,0,0,1.83-48.26C193.57,89.51,191.53,79.07,189,69c-2.12-8.51-8.9-13.1-17.67-13.83C166.25,54.74,161.07,55.09,155.48,55.09Z" transform="translate(-9.13 -3.65)"/>
        <path d="M798.41,618c-1.85,32-3.2,64.15-5.72,96.15a212.1,212.1,0,0,1-13.8,61.62c-11.31,28.59-32.25,43.85-62.86,44.83a170.12,170.12,0,0,1-36.22-2.37c-23.29-4.35-36.89-20.46-45.53-41.43-8.06-19.56-12.33-40.14-14-61q-3.36-42-4.51-84.21c-1.09-40.62,0-81.23,5.43-121.58,2.53-18.83,6.42-37.35,14.84-54.65,10.27-21.11,27.18-32.58,50.27-35.27a157.67,157.67,0,0,1,44.77.74c23.5,4,38.64,17.93,47.76,39.36,7.23,17,10.69,34.94,13,53.11,4.5,34.75,5.35,69.68,5.17,104.67Zm-112.07,1.89h.7c0,37.32-.36,74.63.2,111.94.19,12,2.64,24.07,4.42,36.06.63,4.26,3.09,8,7.58,9.12,12.09,2.87,19,.39,21.13-11.14a35.64,35.64,0,0,0,.87-4.4c1.51-26.91,3.81-53.8,4.25-80.72.71-43.64.47-87.3.06-131-.19-20.62-1.43-41.26-2.76-61.85-.46-7.05-2.26-14.11-4.2-20.95-1.56-5.51-5.86-8.12-11.8-8.09-9.07,0-13.28,3.32-15.74,13.39-4.86,19.94-4.26,40.35-4.59,60.61C686,561.89,686.34,590.89,686.34,619.88Z" transform="translate(-9.13 -3.65)"/>
        <path d="M357.72,397.86H298.09c1.16-8.21,2.25-16.18,3.4-24.15q7.77-53.56,15.56-107.15,7.86-54.08,15.71-108.15,7.68-53.09,15.31-106.18c2-14,4-28,6.21-42,.17-1.13,1.83-2.91,2.81-2.92,21.13-.17,42.27-.13,63.84-.13q33.35,195.42,66.64,390.57c-1.81.1-3.27.25-4.73.25-20.66,0-41.33-.14-62,.13-4.53.06-5.46-1.62-5.87-5.64-1.88-18.69-4.09-37.34-6.22-56.37h-44C362.45,356.53,360.11,377,357.72,397.86Zm11.85-105.23h35.22c-6.5-59.21-13-118.07-19.34-176.25C380.21,174.55,374.9,233.42,369.57,292.63Z" transform="translate(-9.13 -3.65)"/>
        <path d="M212,730.47c3.52-7.52,6.56-13.73,9.36-20.05q11.93-26.86,23.7-53.79c7.07-16.07,17.18-29.57,32.59-38.62,18.78-11,44.94-9.32,61.37,4.1,13.66,11.16,16.86,31.47,7.15,45.37a19.68,19.68,0,0,1-21.49,8c-6-1.63-8.92-6.25-10.28-11.83-1.28-5.3-1.91-10.76-3-16.12-3.26-16.77-18-22.13-31.44-11-4.54,3.75-9,8.27-11.75,13.39-9,17-17.36,34.38-25.55,51.81-6.22,13.22-11.92,26.69-17.57,40.17-1.05,2.52-2,6.22-.87,8.32,8.12,15.81,18.22,30.22,32.51,41.19,17.27,13.27,33.76,13.31,51.17.16,5.16-3.9,10.11-8.09,15.82-12.69,2.09,2.84,4.39,5.59,6.19,8.63.49.83-.1,2.87-.87,3.78-13.85,16.48-29.8,29.88-51.55,34.68-17.68,3.9-33.5-1-47.21-11.66-10.44-8.13-19.75-17.78-29.17-27.14-3.3-3.27-5.12-3.42-8.27,0-15.37,16.73-33.46,29.71-55.61,35.5-35.5,9.27-69.36,6.19-98.88-17.7-17.22-13.92-25.85-32.92-28.29-54.82C7.11,723.71,11,698.57,24,675.05c11.46-20.81,27.68-37.36,46.12-51.91,7.7-6.08,15.62-11.91,23.75-17.38,3.92-2.63,4.48-5.07,3-9.44-8.39-25.71-13.54-52-12.76-79.2,1.09-37.93,17.21-68,47-91.05,15-11.59,31.85-19.82,50.56-22.05,23.94-2.85,47.77-1.82,67.42,15.25C267,434.76,272.6,455,270.25,477.76c-3.68,35.61-24.67,60.64-52.57,79.89-21,14.5-43.82,26.4-65.94,39.27-7.54,4.4-7.73,4.16-4.46,12.06,12.82,30.93,28.78,60.27,45.37,89.28q7.44,13,15,25.93C208.61,725.88,209.84,727.42,212,730.47Zm-105-102a67.09,67.09,0,0,0-5.45,4.48c-4.78,4.86-9.75,9.58-14.11,14.81-22.6,27.16-36.64,57.71-34.61,93.82a61.65,61.65,0,0,0,20.47,43c18.44,16.82,40.65,19.84,64.32,16.18,17.91-2.77,31.92-12.41,44-25.4,3-3.17,3.22-5.39.67-9-27.89-39.14-50.68-81.14-69.7-125.23C110.88,637.15,109.06,633.11,107,628.46Zm29.86-47.15c2.47-1,4.1-1.37,5.42-2.21,20.26-13,41.06-25.32,60.56-39.4,24.86-18,37.35-42.65,34.48-73.94a39.05,39.05,0,0,0-35.3-35c-40.66-3.77-66,27.69-71.32,56.08a176,176,0,0,0-.86,61.46C131.64,559.2,134.4,569.92,136.86,581.31Zm-19.49-103.9-.79-.27c-.7,1.41-1.49,2.8-2.1,4.25-7.93,18.91-9.75,38.67-9,59,1,26.86,7,52.61,16.51,77.51,20.55,54,49.17,103.54,84.38,149.3,4.6,6,9.6,11.63,14.42,17.43a5.14,5.14,0,0,0-1-3.92c-6.5-10.07-13.17-20-19.49-30.21-26.52-42.75-50.42-86.86-67.49-134.33-14.31-39.8-22.16-80.62-17.57-123.16C115.86,487.79,116.68,482.61,117.37,477.41Z" transform="translate(-9.13 -3.65)"/>
        <path d="M1266.87,268c-.76,8.52-2.07,16.6-2.09,24.69,0,14.27.63,28.56,1.24,42.82.12,2.94,1.15,5.88,2,8.73,3.73,11.92,12.77,16.51,26,14.07,5.39-1,8.74-4.52,11-9.27,5-10.52,5.15-21.92,5.89-33.19,1.93-29.48-10.68-53.62-28.2-75.83-14.53-18.43-29.78-36.31-44-55-14.63-19.29-27.24-39.91-34.26-63.35-7.86-26.29-5.27-52.16,5.42-77.06,8.69-20.27,24.6-32.73,46.07-37.78a111.13,111.13,0,0,1,57.27,1.33c21.83,6.37,36.85,20.44,44.21,41.86,7.68,22.38,8.88,45.26,2.38,68.27-.32,1.11-.78,2.18-1.17,3.25H1303c0-12.92.35-25.54-.13-38.14a132,132,0,0,0-3-23.7c-2.22-10-9.23-14.21-19.31-13.16-5.48.56-9.53,3.26-11.56,8.26a54.12,54.12,0,0,0-3.13,11.49c-5.11,30.32,3.4,56.83,22.29,80.63,17.79,22.43,35.5,44.94,52.66,67.85,13.91,18.55,27.21,38,31.38,61.23,6.51,36.3,2.09,71.26-20.5,101.68C1338.16,395.85,1319,405,1296,404.9c-13.94,0-27.88.84-41.53-3.77-28-9.44-43.67-29.46-49.94-57.34-5.25-23.33-5-46.9-.55-70.42.71-3.75,1.94-5.6,6.36-5.54C1229,268.12,1247.62,268,1266.87,268Z" transform="translate(-9.13 -3.65)"/>
        <path d="M1407.55,588.05v53.68h-65.1V755h83.18v57.63h-151V425.26h141.13V482.6h-73.24V588.05Z" transform="translate(-9.13 -3.65)"/>
        <path d="M1142.55,172.94v53.74h-64.71V339.81h83.64v57.84H1009.92V10.33H1151V67.65h-73.3V172.94Z" transform="translate(-9.13 -3.65)"/>
        <path d="M1235.64,812.72H1083.53V425.36h70V754.75h82.06Z" transform="translate(-9.13 -3.65)"/>
      </g>
    </g>
  </g>
</svg>
