<svg xmlns="http://www.w3.org/2000/svg" width="356.69" height="164.88" viewBox="0 0 356.69 164.88">
  <title>blue-apron-advertiser-logo</title>
  <g id="Layer_2" data-name="Layer 2">
    <g id="Layer_1-2" data-name="Layer 1">
      <g>
        <path d="M83.12,2.6A97.59,97.59,0,0,0,71,0L69.35,27.06H42.64L41,0A97.61,97.61,0,0,0,28.88,2.61C27.22,19.94,32.77,62.76,0,83.22v56.55s19.9,21.4,56,21.4,56-22.77,56-22.77V83.22C79.22,62.76,84.77,19.93,83.12,2.6"/>
        <path d="M160.75,41.91h-7.57V59.79q2.37-.09,5.34,0a22.74,22.74,0,0,0,5.52-.46,7.38,7.38,0,0,0,4.28-2.66,9,9,0,0,0,1.74-5.87,9.38,9.38,0,0,0-2.24-6.23c-1.49-1.78-3.85-2.66-7.07-2.66m-7.57-25.22V31.45h6.47q4.38,0,6.15-2.15A8,8,0,0,0,167.58,24a7.56,7.56,0,0,0-1.82-5.18c-1.22-1.37-3.25-2.06-6.11-2.06H156c-1.06,0-2,0-2.78-.09m-13.94-10q7.42-.18,12.7-.28t8.49-.09q10,0,15.73,4.18T181.89,23a13.51,13.51,0,0,1-2.29,7.53,13.26,13.26,0,0,1-5.85,5,14,14,0,0,1,4.35,2.34,16.55,16.55,0,0,1,3.52,3.76A19.68,19.68,0,0,1,184,46.36a15.74,15.74,0,0,1,.87,5.18q0,9.45-6,14t-17,4.53q-3.39,0-9-.09t-13.57-.27l-.64-.64V7.33Z"/>
        <path d="M205.92,59h2.48a17.94,17.94,0,0,1,1.09,6.1,18,18,0,0,1-.27,4,59.49,59.49,0,0,1-9.81.92q-6.24,0-8.86-3.07t-2.61-9.68V2.65l.55-.64h5.6q4.31,0,6,1.92t1.74,6.69v44c0,2.87,1.34,4.31,4,4.31"/>
        <path d="M211.51,54V35.21q0-6-2.2-9.17a11.94,11.94,0,0,1,8.25-3q4.88,0,6.61,2.21c1.16,1.46,1.74,3.7,1.74,6.69V51.35a11.09,11.09,0,0,0,.73,4.68c.49,1,1.78,1.47,3.86,1.47s4.06-1,6.14-3.12V23.75a39.61,39.61,0,0,1,7.06-.55,42.88,42.88,0,0,1,7.25.55V56.4c0,3.3.85,5.53,2.57,6.69a15,15,0,0,1-1.75,4,10.54,10.54,0,0,1-2.65,3.17c-5-.19-8.63-2.32-10.83-6.42q-7.24,6.51-13.66,6.51t-9.77-4.45q-3.35-4.44-3.35-11.88"/>
        <path d="M270.21,41.36h12v-1a9.75,9.75,0,0,0-1.5-5.6,5.1,5.1,0,0,0-4.5-2.2,4.87,4.87,0,0,0-4.33,2.07q-1.41,2.06-1.68,6.74m23.94,9.9H270.3a10.3,10.3,0,0,0,2.1,6.36q1.92,2.27,6.3,2.26a24,24,0,0,0,5.08-.62,46.51,46.51,0,0,0,6.62-2,14.7,14.7,0,0,1,3.75,8.44q-7.35,5.24-18,5.23a22.75,22.75,0,0,1-9.68-1.83,16.39,16.39,0,0,1-6.32-5.14,20.37,20.37,0,0,1-3.44-7.8,44.26,44.26,0,0,1-1-9.81A34.81,34.81,0,0,1,257,36.82a21.61,21.61,0,0,1,3.77-7.57,17.43,17.43,0,0,1,6.42-5,21.09,21.09,0,0,1,9.12-1.84,20.45,20.45,0,0,1,7.93,1.47A17.21,17.21,0,0,1,294,34a22.41,22.41,0,0,1,1.33,7.8,32.44,32.44,0,0,1-1.19,9.44"/>
        <path d="M153.55,120.4l3.67-.09h6.69c.31,0,.84,0,1.61,0s1.33.05,1.69.05l-1.56-5.69q-2.19-7.69-5-18.89h-.55q-.74,3.95-4.4,17.52Zm.27,11.55c-1.65,0-2.87,0-3.67-.09l-3.94,13.3a26.49,26.49,0,0,1-6.14.55,21.26,21.26,0,0,1-7.16-1l-.46-.73,20.18-61.54a55.25,55.25,0,0,1,8.35-.55,45.78,45.78,0,0,1,8.62.64l19.81,61.63a15,15,0,0,1-7.25,1.75q-4.77,0-6.69-1.65t-3.3-6.33l-1.75-6.06c-.79.06-2,.09-3.57.09Z"/>
        <path d="M212.7,109.39c-2.56,0-4.8,1.23-6.69,3.67v20.18a12.06,12.06,0,0,0,6,2.11q6.24,0,6.24-13.85,0-12.1-5.51-12.11m1.72,36.6a20.08,20.08,0,0,1-8.41-1.93v12.2q0,4.77-1.74,6.69c-1.17,1.29-3.21,1.93-6.15,1.93h-5.5l-.64-.64V99.31l.64-.65h3.76a8.4,8.4,0,0,1,7.79,4.5,17.26,17.26,0,0,1,12.71-5.23,13.36,13.36,0,0,1,6.77,1.69,15,15,0,0,1,5,4.82,23.51,23.51,0,0,1,3.11,7.52,42.87,42.87,0,0,1,1,9.91,32.89,32.89,0,0,1-1.42,10,23.36,23.36,0,0,1-3.88,7.62,17.54,17.54,0,0,1-5.81,4.81,15.78,15.78,0,0,1-7.26,1.7"/>
        <path d="M234.9,105.91a16.15,16.15,0,0,1,1.74-4.08,11.12,11.12,0,0,1,2.57-3.26A13,13,0,0,1,251,106.92q3.48-8.26,11.46-8.26a32.17,32.17,0,0,1,6.06.74,28.39,28.39,0,0,1-1,6.74,24.16,24.16,0,0,1-2.61,6.65,22.61,22.61,0,0,0-4.68-.92q-4.59,0-7.52,4.68v28.52a40,40,0,0,1-7.11.55,41.53,41.53,0,0,1-7.2-.55V115.45q0-6.89-3.48-9.54"/>
        <path d="M289.24,108.66a5.22,5.22,0,0,0-3.28,1,6.67,6.67,0,0,0-2,2.62,13.45,13.45,0,0,0-1,3.8,35.45,35.45,0,0,0-.28,4.63q0,3.85.23,6.65a17.84,17.84,0,0,0,.92,4.68,6,6,0,0,0,1.94,2.8,5.44,5.44,0,0,0,3.28.92q4.06,0,5.36-3.54a30.49,30.49,0,0,0,1.29-10q0-6.6-1.29-10a5,5,0,0,0-5.17-3.44m14.63-5.32q6.6,6.6,6.6,18.89a33,33,0,0,1-1.42,10,21.6,21.6,0,0,1-4.13,7.66,17.89,17.89,0,0,1-6.65,4.86,22.8,22.8,0,0,1-9.08,1.7,22,22,0,0,1-9-1.75,18.64,18.64,0,0,1-6.61-4.9,21.21,21.21,0,0,1-4.08-7.66,36.67,36.67,0,0,1,0-19.86,22.06,22.06,0,0,1,4-7.66,17.69,17.69,0,0,1,6.6-5,22.32,22.32,0,0,1,9.08-1.74q9.09,0,14.68,5.41"/>
        <path d="M354.49,114.8v18.81c0,4,.74,7.06,2.2,9.08a12.1,12.1,0,0,1-8.34,3.11q-4.77,0-6.52-2.2c-1.16-1.46-1.74-3.7-1.74-6.69V117.37a9.74,9.74,0,0,0-.82-4.58q-.82-1.47-3.21-1.47a8.13,8.13,0,0,0-3.12.73,13.21,13.21,0,0,0-3.58,2.39v30.63c-1,.18-2.17.32-3.39.41s-2.48.14-3.76.14-2.54-.05-3.76-.14-2.36-.23-3.4-.41V99.3l.65-.64h5.41q5.59,0,7.52,5.5,6.42-5.68,12.75-5.68t9.77,4.45q3.35,4.44,3.34,11.87"/>
      </g>
    </g>
  </g>
</svg>
