<svg xmlns="http://www.w3.org/2000/svg" width="2893.14" height="1037.04" viewBox="0 0 2893.14 1037.04">
  <title>IHG-logo-new</title>
  <g id="Layer_2" data-name="Layer 2">
    <g id="Layer_1-2" data-name="Layer 1">
      <g>
        <path d="M1149.8,438.64V698.75h324.31V439.32c8.09-2.46,75.75-3.09,90.75-.93q.18,296.79,0,593.79c-7.59,2.2-75.44,2.82-90.34.85V762.39H1150.19c-.07,12.73-.16,25.56-.19,38.4,0,12.67,0,25.33,0,38v194.52h-88.32c-2-7-2.88-575.34-.89-594.2C1067.73,436.81,1137.73,436.29,1149.8,438.64Z" transform="translate(-53.38 -427.36)"/>
        <path d="M2203,747.29h90.43V995l-45,16c-39,13.86-78.56,25.62-119.86,30.08-83.08,9-162.37-2.77-234.7-46.74-70.48-42.85-114.74-105.36-132.13-186-18.13-84.1-6.12-163.87,40.07-237S1915.16,454.74,1998.91,436c42.32-9.49,85.1-10.11,128.17-6.69a887.56,887.56,0,0,1,138.82,22.58c1.91.46,3.78,1.06,5.44,1.53,2.38,9.21,2.23,95.82-.13,103.68-4.66.86-6-3.36-8.33-5.77-10.94-11.17-21.21-23.07-32.78-33.54-35.51-32.14-77.6-49.35-125.16-54.18-37.11-3.77-73.21-.48-107.9,13.56-49.13,19.88-84.21,55.2-108.58,101.54-26.72,50.8-36.29,105.47-34.68,162.35,1.33,46.86,11.09,91.88,31.84,134.1,25.69,52.25,63.11,93.27,117.63,115.93,61.74,25.65,123.48,22.9,184.22-4.32,15.76-7.06,15.55-7.54,15.55-24.4v-215Z" transform="translate(-53.38 -427.36)"/>
        <path d="M707.18,437.8h87.07c2.25,7.36,3.32,570.34,1.18,594.46-6.89,2.2-68.53,3-87.36,1.15C705.87,1026.37,704.88,459.77,707.18,437.8Z" transform="translate(-53.38 -427.36)"/>
        <path d="M377.79,1296.07c23.64.3,47.6,4.94,69,18.71,18.4,11.83,31.46,27.92,35.29,49.89,5.63,32.25-5.17,58.28-31.49,77.75-17.68,13.08-38.1,18.91-59.57,20.89-27.37,2.52-53.87-1.25-78.44-14.3-19.24-10.22-33.58-25-40.39-46.16-11.11-34.38,3.74-71,36.17-89.86C329.41,1300.75,352.32,1296.2,377.79,1296.07Zm1.37,150.38a98,98,0,0,0,43.76-9c22.15-10.4,35.87-27.21,37.66-52.34,1.89-26.6-9.1-46.38-32-59.76-14.81-8.64-31.11-12-47.86-12.45-20.52-.57-40.43,2.49-58.79,12.85-39.51,22.31-40.38,80.91-3.56,104.76C336.35,1442.16,356.11,1446.62,379.16,1446.45Z" transform="translate(-53.38 -427.36)"/>
        <path d="M2273.62,1296.16c25.09.1,49,5,70.51,18.47,43.69,27.35,44.61,78.26,23.74,107.95a82.51,82.51,0,0,1-35,28.88c-41.47,17.94-83,17.48-123.4-3-21.46-10.85-36.41-28.11-41.39-52.22-6.38-30.93,3.36-56.55,27.87-76.26,20.85-16.77,45.61-22.49,71.71-23.83C2269.62,1296.08,2271.62,1296.16,2273.62,1296.16Zm2.3,150.29a102,102,0,0,0,43.94-8.79c15.79-7.14,28.08-18,34.22-34.59,11.44-30.78,1.05-64.67-32.95-80.15-31.64-14.4-64.23-14.13-95.89,0-23.28,10.39-35.66,29.29-36.22,55.17s11.68,44.42,34.05,56.65C2239,1443.43,2256.18,1446.56,2275.92,1446.45Z" transform="translate(-53.38 -427.36)"/>
        <path d="M2527.82,1394.43c19.48,22.2,38.3,43.66,57.88,66-8.68,2.36-16.52,1.53-24.14.8-2.33-.22-4.53-3.59-6.48-5.79-15.67-17.67-31.42-35.29-46.81-53.22-4.06-4.73-8.28-6.75-14.56-6.54-13.92.45-27.86.14-42.83.14v65.15h-20.54c-2.22-6.85-2.65-151.56-.3-162.32,2.76-.14,5.69-.43,8.61-.43q34.95-.06,69.92,0c12.41,0,24.62,1.76,36.15,6.46,28.56,11.64,38.31,46,19.79,69.25-7.11,8.91-16.83,13.9-27.31,17.64C2534.44,1392.51,2531.6,1393.27,2527.82,1394.43Zm-76.94-80.54c-.28,23-.85,43.69.35,65.7,24-.52,46.93-.83,69.83-1.69,4.49-.17,9.1-2,13.32-3.89,11.88-5.19,18.18-15.78,17.59-28.7-.72-15.91-10.64-27.27-28.92-28.84C2499.6,1314.45,2476,1314.68,2450.88,1313.89Z" transform="translate(-53.38 -427.36)"/>
        <path d="M1698.17,1395.12l58.33,66.4c-9.71,0-17.2.55-24.53-.29-2.69-.32-5.3-3.69-7.45-6.11-15.72-17.67-31.43-35.35-46.84-53.28-3.81-4.42-7.75-6.42-13.65-6.19-11.31.44-22.65.09-34,.15-2.92,0-5.84.33-9.7.56v64.69h-20.48c-2-7-2.79-145.21-.82-162a45.61,45.61,0,0,1,6.44-.9c25-.06,50-.21,75,0,12.39.13,24.56,2.14,36,7.27,15.86,7.13,25.44,19,26.81,36.69,1.41,18.25-5.39,32.75-21.2,42.15C1715,1388.53,1707,1391.19,1698.17,1395.12Zm-77.52-17.06a29.22,29.22,0,0,0,5.09,1c18.63.06,37.27.49,55.87-.19a70.37,70.37,0,0,0,22.2-4.86c12.22-4.71,18.28-15.16,17.9-28.32s-6.82-22.08-18.88-26.69a47.72,47.72,0,0,0-15.49-3.38c-21.25-.57-42.52-.58-63.78-.72-.88,0-1.76.76-2.91,1.29Z" transform="translate(-53.38 -427.36)"/>
        <path d="M837.65,1298.81v16.5H723v54.14c10.32.73,20.85.25,31.34.33,11,.09,22,0,33,0h32.37v16.42h-97c-.55,19.49-.24,37.94-.15,57.38,10.14,1.71,20,.61,29.84.79,10.33.2,20.66,0,31,0h60.15V1461H701V1298.81Z" transform="translate(-53.38 -427.36)"/>
        <path d="M200.06,1371.23V1299h20.13c1.92,6.87,2.61,146.51.67,162H200.65v-69.18c-7.93-2.39-106.09-3.17-124.25-1.16v70.23H55.18c-2-7.18-2.56-149.52-.51-161.95H75.94v72.35Z" transform="translate(-53.38 -427.36)"/>
        <path d="M1798.35,1298.63h136.46V1315c-12.48.09-25,.21-37.53.25s-25.31,0-38,0h-39.15c-1,9.28-.41,18.17-.5,27-.1,8.64,0,17.28,0,27.21,11,.59,21.56.23,32.07.29,11,.06,22,0,33,0H1917v16.58h-96.61v57.84h119.8V1460c-7.11,2.1-129.89,2.56-141.81.47Z" transform="translate(-53.38 -427.36)"/>
        <path d="M1359.8,1370.83c-2.51-3.19-5.29-6.45-7.77-9.92-14.75-20.62-11.46-58,27.4-64.32a47.79,47.79,0,0,1,28.32,3.48c21.81,10.11,28.61,36.63,13.4,55.3-5.12,6.27-12.51,10.74-19.07,15.78-2.31,1.78-5.21,2.79-9.07,4.78,11.73,14.18,25,25.88,37.88,39.28,6.61-9.85,13.31-18.25,18.24-27.58,5.34-10.12,12.77-12.42,24.42-9.22l-15.69,24-15.71,24,33.93,35.29c-8.84,0-15.35.42-21.77-.21-2.59-.25-5.34-2.41-7.36-4.37-5.48-5.32-10.61-11-16.27-16.94-2.31,1.87-4.36,3.42-6.32,5.1-22.62,19.44-48.26,22.71-75.71,13.2-34-11.79-34.73-54.15-12.31-72.21C1343.52,1380.46,1351.79,1376,1359.8,1370.83Zm60.1,58.49c-15.07-15.44-29.44-30.19-43.86-44.91a40.26,40.26,0,0,0-4.3-3.15c-7,4.41-14.83,8.24-21.24,13.75-8.94,7.67-12,18.14-9.42,29.84,2.5,11.35,10.31,17.86,21.06,20.25C1383.55,1449.87,1403,1446,1419.9,1429.32Zm-40.2-63c10.54-4.48,19.18-8.75,25.68-16.23,9.89-11.4,8.14-27.55-3.61-34.83-9.16-5.68-25-4.38-32.88,2.68-8.06,7.23-9.89,20.43-3.28,31.16C1369.36,1355.18,1374.71,1360.3,1379.7,1366.3Z" transform="translate(-53.38 -427.36)"/>
        <path d="M1971.93,1412.26h21c4.85,20.65,19.57,29.54,38.61,32.82,16.54,2.84,33.24,3.25,49.57-1.09a53.82,53.82,0,0,0,17.92-8.25c16-11.88,13.32-34.59-5.4-41.3-12.08-4.33-25.17-6-37.88-8.39-12.09-2.32-24.38-3.62-36.37-6.34a77.81,77.81,0,0,1-20.38-7.86c-22.67-12.66-25.73-42-5.79-58.72a65.92,65.92,0,0,1,22.62-12.14,119.5,119.5,0,0,1,74.68,1.49c17.15,5.87,28.91,17.45,32.64,35.91a12.31,12.31,0,0,1-.18,2.69h-18.75c-5.92-19.73-21.56-25.8-40.45-27.56-13.73-1.29-27.31-1-40.65,2.44a41.33,41.33,0,0,0-12.68,5.61c-14.08,9.56-13.3,28.55,2.2,35.45,10.16,4.53,21.55,6.65,32.59,8.82,13.38,2.63,27.06,3.72,40.43,6.36a119,119,0,0,1,22.7,7.39c28,11.78,26.14,47.46,11.68,62.38a64,64,0,0,1-29.89,17.26c-25.36,6.91-50.8,6.72-75.87-1.09C1992.16,1451.24,1976.64,1437.53,1971.93,1412.26Z" transform="translate(-53.38 -427.36)"/>
        <path d="M2939.54,1341.4h-18.6c-.29-.31-.62-.51-.71-.79-6.66-19.14-21.74-25.43-40.31-27.08-13.39-1.2-26.63-1-39.68,2.14a44.06,44.06,0,0,0-12.89,5.15c-15.35,9.62-14.71,29.36,1.84,36.52,10.23,4.43,21.62,6.44,32.67,8.59,13,2.54,26.39,3.63,39.44,6.21a112.67,112.67,0,0,1,22.72,7.29c27.26,11.78,28,45.65,11.48,62.89-8.36,8.7-18.62,14-30,17.08a133.26,133.26,0,0,1-75.86-1.43c-20.62-6.5-35.63-19.17-40.86-41.21a34.77,34.77,0,0,1-.38-4.46h20.4c5.71,23.83,23.82,31.23,45.28,33.72,14.63,1.7,29.36,2,43.63-2.16a53.91,53.91,0,0,0,17.77-8.57c15.35-11.91,12.49-34.23-5.66-40.75-12.09-4.34-25.16-6-37.87-8.47-12.08-2.33-24.35-3.73-36.38-6.29a78.88,78.88,0,0,1-18.72-6.73c-24.17-12.18-28.15-41.85-7.9-59.81a53.45,53.45,0,0,1,16.94-10.26c28-10,56.32-9.76,84,1C2926.07,1310.26,2936.56,1322.22,2939.54,1341.4Z" transform="translate(-53.38 -427.36)"/>
        <path d="M1193.76,1341.45h-19.53c-6-21.27-23-26.39-42.3-28.09-13.4-1.18-26.69-.85-39.62,2.86a40.34,40.34,0,0,0-14.11,7.08c-11.74,9.59-10,25.93,3.21,33.32,10.67,5.94,22.64,7.62,34.49,9.45,13.16,2,26.4,3.6,39.48,6.06a114.38,114.38,0,0,1,21,6.35c31.29,12.51,29.72,51.59,9.51,67.31-6.47,5-13.95,9.5-21.68,12-29.16,9.41-58.49,8.76-87.11-2.33-17.79-6.9-29.84-19.69-34.31-38.76a28.7,28.7,0,0,1-.26-4.4h20.42c5.54,23.46,23.15,31.14,44.32,33.66,15,1.78,29.93,1.84,44.66-2,7.85-2,15.1-5.23,20.7-11.39,11.69-12.85,8.39-31.87-7.88-37.66-12.71-4.53-26.46-6.25-39.79-9-14-2.84-28.14-5.1-42.1-8.17-4.78-1-9.41-3.4-13.73-5.83-22.55-12.61-25.48-41.71-6.11-58.93,8.73-7.76,19.19-12,30.38-14.3,20.54-4.2,41.17-4,61.36,1.82S1189.7,1317.94,1193.76,1341.45Z" transform="translate(-53.38 -427.36)"/>
        <path d="M2674.62,1315.2h-66.51v-16.39h154.53c.28,2.67.7,5.22.78,7.77.06,2.3-.25,4.61-.49,8.31-21.86,1-43.68-.12-66.32.68v145.28h-22Z" transform="translate(-53.38 -427.36)"/>
        <path d="M658,1298.8v16.37H591.87v145.95H570.71c-1-9.27-.33-18.81-.44-28.29-.11-9.66,0-19.32,0-29v-88.29l-66.29-.52V1298.8Z" transform="translate(-53.38 -427.36)"/>
        <path d="M888.27,1460.74V1298.9h21v145.42h104.2V1460C1006.83,1462.13,904.75,1462.88,888.27,1460.74Z" transform="translate(-53.38 -427.36)"/>
        <path d="M2316,479.46c.07-20.65,15.37-35.78,36.12-35.71,20.42.06,36,15.82,35.74,36.2s-16,35.32-36.82,35.09C2330.72,514.81,2315.91,499.77,2316,479.46Zm64.7.07c.09-17.39-12.11-29.78-29.21-29.65-16.45.13-28.34,12.34-28.62,29.38-.27,16.62,11.86,29.39,28.28,29.74C2368,509.37,2380.59,496.84,2380.68,479.53Z" transform="translate(-53.38 -427.36)"/>
        <path d="M2348.3,484.08c-.43,3.75-.86,7.5-1.36,11.89l-6.81,1v-35.2c4.82-.12,9.62-.39,14.42-.29,4.57.09,8.48,1.78,10.38,6.32s.81,8.4-2.5,11.83c-.89.93-1.73,1.9-2.82,3.09l7.27,12.61c-4.09,2.83-7.16,2.36-9.79-1.8-2.19-3.45-4.52-6.81-6.78-10.21Zm-.28-6.87c4.93.4,8.58,0,9.25-4.57.2-1.31-1.57-3.67-3-4.26-1.78-.75-4.12-.18-6.27-.18Z" transform="translate(-53.38 -427.36)"/>
      </g>
    </g>
  </g>
</svg>
