<svg xmlns="http://www.w3.org/2000/svg" width="705.87" height="134.1" viewBox="0 0 705.87 134.1">
  <title>jcrew-advertiser-logo</title>
  <g id="Layer_2" data-name="Layer 2">
    <g id="Layer_1-2" data-name="Layer 1">
      <g id="_73w1pN" data-name="73w1pN">
        <g>
          <path d="M596.9,105c2.28-5.26,4.13-9.36,5.83-13.51,3.3-8,6.64-16,9.68-24.14a8.88,8.88,0,0,0,0-5.76c-5.35-14.1-11-28.1-16.39-42.16C593.14,12,588.48,6.94,580.18,5.77c-1.32-.18-2.43-1.93-3.63-3,1.51-.81,3-2.3,4.52-2.33C591.52.27,602,.3,612.43.46c1.24,0,2.45,1.23,3.68,1.9-.9,1.07-1.59,2.64-2.73,3.12-3.42,1.43-5.14,3.84-4,7.27,3.56,10.43,7.44,20.76,11.22,31.12.09.26.54.41,1.21.88a22.4,22.4,0,0,0,1.93-3.19c3.09-7.72,6.2-15.43,9.11-23.22,2.8-7.47,1.45-10-5.93-13-1.26-.51-2.09-2.09-3.12-3.17,1.43-.55,2.85-1.55,4.28-1.57Q639.32.46,650.5.83c1.28,0,2.53,1.12,3.79,1.71-.93,1-1.67,2.64-2.82,3a12,12,0,0,0-7.68,7c-5.5,13-11.11,26-16.22,39.14a13.7,13.7,0,0,0,.06,9.24c5.68,14,11.86,27.74,17.92,41.55a34,34,0,0,0,2.73,4.2,39.59,39.59,0,0,0,3-5Q668.15,60.26,684.9,18.8a28,28,0,0,0,1.19-4.47c.72-3.24-.44-5.62-3.51-6.88C680.39,6.54,678,6,675.9,5c-.89-.43-1.38-1.69-2.06-2.57.93-.56,1.85-1.6,2.78-1.6q13.18,0,26.37.44c1,0,2.9,1.16,2.88,1.73a4.2,4.2,0,0,1-1.81,3.23c-4.39,1.89-6.9,5.34-8.69,9.48q-17.94,41.57-35.84,83.13c-4.27,9.93-8.48,19.88-12.76,29.81-.58,1.36-1.39,2.62-2.64,4.93-1.35-2-2.43-3.11-3-4.46Q630,103.08,619,77c-.27-.62-.61-1.21-.92-1.81l-1.3-.39c-7.76,19.29-15.51,38.59-23.63,58.8-1.43-1.8-2.44-2.62-2.87-3.69Q569.46,78.36,548.7,26.8c-1.28-3.19-3-6.22-4.32-9.38-2.93-6.73-7.81-10.85-15.16-12.1C528,5.11,527,3.65,526,2.76,527.22,2,528.48.5,529.76.48c10.81-.19,21.62-.16,32.42,0,1,0,2.06,1.13,3.08,1.73-.79,1-1.37,2.46-2.41,2.92-4.83,2.18-5.75,3.11-4,8.13,4.25,12.09,8.69,24.12,13.52,36,6.85,16.83,14.1,33.5,21.24,50.21A56.31,56.31,0,0,0,596.9,105Z"/>
          <path d="M358.17,65.84c5.63,8.47,10.78,16.75,16.46,24.64C381.7,100.3,389,110,396.68,119.32c2.32,2.78,6.52,4,9.84,5.94,1.11.65,2.14,1.44,3.21,2.16-1.09,1-2.07,2.58-3.27,2.75-9.08,1.31-18,.83-25-6a70.51,70.51,0,0,1-9.75-11.77c-6.63-10-12.86-20.27-19.27-30.42-1-1.6-2.19-3.1-3.2-4.71-5.31-8.43-13.76-7.77-22-7.26-1.25.08-3.36,2.7-3.35,4.15,0,13.29,0,26.62.94,39.86.53,7.27,5.38,10.73,13.47,12a19.91,19.91,0,0,1,4.21.69c1,.39,1.73,1.46,2.59,2.23-1,.59-2.05,1.65-3.08,1.67-3.67,0-7.36-.46-11-.42-9.73.1-19.45.37-29.18.58-.95,0-2,.41-2.82.13a3.64,3.64,0,0,1-2.24-1.85,2.8,2.8,0,0,1,1.41-2.34c9.57-2.54,11.7-9.51,11.62-18.29-.2-20.68-.06-41.37-.2-62.06q-.09-13-.79-26c-.47-8.76-2.12-10.45-10.41-12.94-2-.6-5.62-.17-5-3.53.19-1,3.89-1.94,6-2,13.53-.3,27.08-.57,40.61-.36a80.22,80.22,0,0,1,18.29,2.21C381,9.5,384.24,34,376.27,48A45.3,45.3,0,0,1,361.92,63.1C360.85,63.82,359.84,64.61,358.17,65.84ZM337.4,63.55l0-.21c1.54,0,3.09,0,4.63,0,12.4-.29,21.57-7.36,23.3-18.87C368.71,22,354,6.27,329.71,8.38c-3.81.33-6.06,2.82-6.09,6.7q-.17,21.38-.1,42.76a4.49,4.49,0,0,0,4.32,4.8C331,63,334.21,63.25,337.4,63.55Z"/>
          <path d="M496.26,45.44A32.75,32.75,0,0,1,497,49.9c.16,9.74.28,19.48.28,29.22,0,1.11-.75,2.21-1.15,3.32-.93-.89-2.3-1.61-2.71-2.7-4.1-11-5.27-12.07-16.95-12.28-7.13-.13-14.27.18-21.4.27-3.5,0-5.11,1.53-5,5.26.39,13.19.28,26.4,1,39.57.33,6.48,3.07,8.94,9.53,8.38,11.81-1,23.6-2.54,35.28-4.57,6.86-1.2,12.3-5.39,16.24-11.37.71-1.08,2.34-1.56,3.54-2.31.23,1.47,1.13,3.32.56,4.36a134.1,134.1,0,0,1-9.67,16c-3.25,4.38-8.11,6.3-13.82,6-9.14-.45-18.3-.93-27.45-.8-11.87.17-23.74,1-35.61,1.38A19.55,19.55,0,0,1,424,129a2.58,2.58,0,0,1-1.45-2c0-.6,1.14-1.42,1.9-1.61,9.75-2.42,12-4.83,12-14.65q-.15-45.15-.71-90.28c-.1-8.59-4.17-12.62-13-14.12-1.09-.18-2-1.43-3-2.19,1-.79,2.05-2.24,3.1-2.27,6.89-.21,13.79-.06,20.68-.13q28.19-.3,56.37-.7c5.8-.08,6,.17,5.44,5.88-.55,5.31-.7,10.68-1.31,16-.14,1.22-1.48,2.3-2.26,3.44-.65-1.07-1.75-2.08-1.9-3.21-1.3-10.42-4.63-13.78-15.07-14-9.27-.25-18.55-.15-27.82,0-4.76.06-6.69,1.79-6.82,6.37-.32,11.88-.6,23.77-.52,35.66.05,7.44,1.26,8.42,8.67,8.26,7.95-.17,15.92-.33,23.84-1,5.83-.52,9.88-3.73,11-9.92.2-1.08,1.16-2,1.77-3Z"/>
          <path d="M273.87,97.05c-.16,1.58-.17,3.2-.48,4.75-.82,4.07-1.56,8.18-2.75,12.15a9.56,9.56,0,0,1-3.2,4.79c-8.63,6.29-18.57,9.44-29,11.25-12.78,2.21-25.54,2.51-38.19-.93-19.86-5.41-33.55-17.66-39.68-37.36-6-19.24-4.78-38.42,3.9-56.66C176.35,10.07,201.7-3,229.13.6A96.74,96.74,0,0,1,265.18,13l4.59-2.28a19.82,19.82,0,0,1,1,3.24c.85,7.68,1.7,15.36,2.35,23.06.11,1.3-.71,2.69-1.1,4-1.08-.89-2.57-1.57-3.17-2.71-6.28-12-14.58-22.06-27-28-28.2-13.41-60.63,2.34-67.4,32.78-4.45,20-2.53,39.3,8.1,57.17,20.69,34.78,68.06,31.12,85.66,1a40.84,40.84,0,0,1,4.21-5.15Z"/>
          <path d="M68.19,54.14c0-11.42.23-22.85-.09-34.26-.21-7.54-4.31-11.72-11.68-13.11-1.51-.28-3.18-.18-4.54-.79-1.2-.55-2.07-1.84-3.09-2.8C50,2.27,51.07.8,52.38.56c2-.39,4.25.1,6.39.14q16.56.27,33.12.5c1.07,0,2.25-.27,3.19.09A12.51,12.51,0,0,1,97.93,3.4a28.92,28.92,0,0,1-2.32,2.72,3.74,3.74,0,0,1-1.68.53c-8.2,1.91-9.23,2.77-9.39,11.2-.39,19.15-.49,38.31-.64,57.46-.09,10.56-1.53,20.84-5.83,30.6C65.93,133.47,27.35,141.13,6.5,120a16.92,16.92,0,0,1-3.84-7A79.9,79.9,0,0,1,0,99.73c-.19-1.61.62-4.22,1.82-4.91,2.18-1.26,3.88.45,5,2.6,2.45,4.74,4.62,9.69,7.59,14.08,6.72,9.91,16.45,13.73,28.17,12.2,11.52-1.5,18.89-8.56,21.88-19.34a127,127,0,0,0,3.79-24.52c.62-8.52.14-17.13.14-25.7Z"/>
          <path d="M108.11,122.45,120.54,109l11.85,12.92-11.2,12.22Z"/>
        </g>
      </g>
    </g>
  </g>
</svg>
