<svg xmlns="http://www.w3.org/2000/svg" width="2827.05" height="1197.05" viewBox="0 0 2827.05 1197.05">
  <title>office-depot-advertiser-logo</title>
  <g id="Layer_2" data-name="Layer 2">
    <g id="Layer_1-2" data-name="Layer 1">
      <g id="GzwLeZ">
        <g>
          <path d="M1,347.71c1-8.57,1.83-17.15,3-25.7,8.66-64.77,35.44-120.89,81.16-167.64C133.68,104.72,193.27,75,260.28,59.08c49.9-11.81,100.44-13.73,151.36-9.3,41.87,3.65,82.63,12.1,121.4,28.61,86.28,36.75,138.78,101.47,157.34,193.11C702,328.71,701.77,386,685.08,442.43,661.22,523,610.44,582,537.46,622.41c-42.86,23.75-89,37.81-137.45,44.07-62,8-123.62,5.46-184.5-9.16-46.95-11.29-89.91-31-126.27-63.4-41-36.59-65.51-82.82-78.14-135.78a351.26,351.26,0,0,1-9.2-64.62,52.83,52.83,0,0,0-.9-5.84Zm178.59,6c0,33.32,3.42,62.45,13.32,90.54,16.35,46.41,47.22,78.06,95,91.81,30.71,8.83,62.06,10.57,93.42,4.47,61.07-11.89,105-45.63,125.52-105.16,19.8-57.55,17.72-115.69-4.14-172.43-14.31-37.14-41.05-63.22-78.61-76.79-42.5-15.35-86-17.25-129.5-4.46C245.82,196,212,227.44,193.36,274.74,182.89,301.25,179.15,329,179.59,353.7Z" transform="translate(-1 -1.95)"/>
          <path d="M1927.32,1199c-9.73-1-19.48-1.9-29.19-3.07-42.51-5.12-83.37-15.58-120.48-37.84-50.45-30.26-79.93-75.13-91-132.31-7.35-37.84-7.88-75.76,2.34-113.28,13.56-49.76,42.44-89.08,83.19-120,39-29.62,83.4-47.27,131.16-57a401.22,401.22,0,0,1,87.86-7.79c49.08,1,97.23,7.34,142.87,26.69,46,19.52,82.37,49.79,104.62,95.37,14.1,28.86,20.21,59.65,21.8,91.55,2.84,56.92-11.82,108.39-47.76,153.1-27.95,34.78-63.64,59.24-104.5,76.46-37.13,15.66-76,24.2-116.09,27.16a40,40,0,0,0-4.81.93Zm159.22-237.14,1.37-.2c-2.22-15.09-3.28-30.46-6.89-45.21-9.11-37.27-32.83-60.81-70.29-69.83-21.25-5.12-42.86-6.35-64.42-2.3-43.18,8.11-73,32.15-85,75.13-9.83,35.24-7.8,70.62,4.63,105,10.51,29,31.32,47.69,61.19,55.93a146.12,146.12,0,0,0,65.78,2.74c36.11-6.58,64.46-24.34,81-58.22C2083.53,1005,2086.56,983.72,2086.54,961.86Z" transform="translate(-1 -1.95)"/>
          <path d="M93.66,1189.8v-5.56c0-22.64.08-45.29-.08-67.93,0-3.93.65-6,5.16-6.51,22.48-2.41,44.91-5.27,67.39-7.63,3.86-.4,5-1.36,5-5.25Q171,963.56,171,830.2c0-1.45-.17-2.91-.27-4.5-12-.82-23.8-1.41-35.52-2.49-12.59-1.16-25.14-2.78-37.71-4.18-2.39-.27-3.92-1-3.9-3.95.1-25.3.07-50.61.1-75.91a13.92,13.92,0,0,1,.57-2.49h5.33c42.14-.11,84.28-.1,126.42-.38,34-.22,67.92-1,101.88-1.17,31-.14,62-.65,92.88.56,47.26,1.83,93.77,8.72,137.92,26.86,40.91,16.81,74.41,42.42,95.93,82,13.25,24.34,20.2,50.58,22.86,78,3.19,32.87,1.81,65.48-7.45,97.43-16.34,56.35-51.76,97.4-101.9,126.53-36.57,21.24-76.36,33.22-117.78,40.48-40.06,7-80.47,7.76-121,7-33.78-.61-67.56-1.65-101.34-2.21-43.44-.72-86.89-1.15-130.34-1.71C96.59,1190,95.46,1189.91,93.66,1189.8ZM334.19,962.67c0,38.78.05,77.57-.08,116.35,0,3.86.83,5.82,5,6,23.29,1,46.61,2.1,69.61-2.92,47.92-10.46,79.81-37.93,90.67-86.93,5.14-23.19,4.09-46.62.85-70-2-14.62-6.13-28.6-13.95-41.28-12.75-20.67-32.23-31.69-55-37.58-29.89-7.73-60.33-6.88-90.81-5.26-4.82.26-6.43,1.67-6.4,6.75C334.29,886.11,334.19,924.39,334.19,962.67Z" transform="translate(-1 -1.95)"/>
          <path d="M1076.29,659.09H725c-.09-1.61-.26-3.2-.26-4.79,0-26,0-52-.09-77.94,0-3.79.68-5.5,5-6,28.29-3.14,56.52-6.66,84.8-9.86,3.56-.41,4.69-1.55,4.69-5.2Q818.92,440.67,819,326c0-1.29-.16-2.58-.26-4.21H718.25V217.26H819c0-2.51,0-4.45,0-6.37.5-20-.13-40,1.75-59.85,6.5-68.65,43.34-113.24,109-134.14,28-8.89,56.75-12.74,85.94-14.19a592.38,592.38,0,0,1,114.55,5.54c1.3.19,2.56.61,4.37,1.06-3.26,36.42-6.51,72.78-9.79,109.43-11.35-1.86-22.1-3.83-32.92-5.36-20.37-2.87-40.75-3.93-61.09.48-28.27,6.12-45.36,24.79-47.22,53.6-1,16.21-.19,32.54-.19,49.52H1096V321.46H982.69v5.9q0,113.42-.08,226.81c0,4.29.93,5.94,5.55,6.45,28.29,3.12,56.53,6.64,84.79,10,2.6.3,3.77,1.13,3.76,4-.1,27.48-.07,55-.09,82.43A14.49,14.49,0,0,1,1076.29,659.09Z" transform="translate(-1 -1.95)"/>
          <path d="M1140.29,659v-5.61c0-25.47.07-50.94-.07-76.42,0-4.1.6-6.1,5.45-6.63,27.78-3.05,55.52-6.52,83.27-9.85,1.47-.18,2.92-.46,4.62-.73V321.87H1133.05V217.18h100.8c0-2.69-.06-4.79,0-6.9.84-22.09.16-44.37,2.84-66.24,7.7-62.7,42.53-104.13,102-125,27.22-9.57,55.43-14,84.07-15.86a587.89,587.89,0,0,1,107.18,3c6.4.75,12.76,1.84,19.71,2.86-3.09,36.84-6.15,73.22-9.19,109.58-14.41-2.16-28.16-4.57-42-6.22-19.94-2.38-39.86-2.61-59.38,3.33-24.38,7.42-38,24.28-40.34,49.15-1.57,16.67-.67,33.58-.85,50.38a6.62,6.62,0,0,0,.63,1.79h111.15V321.48H1398.07c-.1,2.27-.24,4-.24,5.83q0,113.38-.12,226.77c0,4.7,1.34,6.07,6,6.58,28.11,3.1,56.18,6.56,84.24,10.1,1.3.16,3.37,2.27,3.38,3.48.19,28.13.15,56.25.15,84.74Z" transform="translate(-1 -1.95)"/>
          <path d="M2794.21,536.37c1.62,11,3.18,21.29,4.68,31.63,3.17,21.89,6.19,43.8,9.57,65.66.59,3.84.07,5.54-3.85,6.79a615.44,615.44,0,0,1-112.54,24,649.26,649.26,0,0,1-103.17,4.62c-45.15-1.73-89.51-7.88-131.51-25.72-63.24-26.87-101.31-74.26-114.15-141.61-8.92-46.8-8.25-93.48,6.51-139.12,22.27-68.85,68.94-114.28,136.5-138.8,39.53-14.34,80.59-18.44,122.36-17.22,33,1,65.28,5.76,96.31,17.39,43.89,16.44,78.31,44,100.21,86.11,12.47,23.93,19.1,49.58,21.68,76.29,2.67,27.66.75,55.19-3.12,82.62a20.47,20.47,0,0,1-.72,2.42H2504c.33,18.1,4.45,34.43,14.44,49,13.44,19.55,33.1,29.82,55.24,36.12,25.29,7.19,51.23,7.91,77.26,7.16a455.34,455.34,0,0,0,140.19-26.31C2791.91,537.13,2792.68,536.88,2794.21,536.37ZM2505.35,381.64h115.2c13.82,0,27.64-.16,41.46.1,4.29.08,5.64-1.38,5.17-5.42-.49-4.29-.46-8.65-1.1-12.91-3.6-24-15.54-42.18-38.51-51.18-26.84-10.51-53.93-9.84-79.72,3.44C2521.61,329.18,2508.75,352,2505.35,381.64Z" transform="translate(-1 -1.95)"/>
          <path d="M1158.93,736.68h5.85c38-.2,75.94-.19,113.91-.65,47.78-.58,95.55-2.25,143.32-2.14,45.23.11,90.07,4.69,133.22,19.61,27.74,9.6,53,23.27,72.79,45.58s29.42,48.81,30.38,78.4c2.12,65.58-29.83,110.9-85.54,141.48-30.6,16.8-63.91,25.66-98.44,28.9-23.81,2.23-47.85,2.07-71.78,3l-5.09.24v14c0,10.65.13,21.31-.08,32-.07,3.65,1.1,4.68,4.75,5.07,22.81,2.46,45.58,5.28,68.37,7.9,2.69.31,4.25,1,4.24,4.18-.1,24.47-.08,49-.11,73.42a11.78,11.78,0,0,1-.43,2.11H1158.62c-.12-1.73-.32-3.32-.32-4.92,0-23,.06-46-.09-68.93,0-3.86.92-5.62,5.06-6.08,22-2.44,43.91-5.28,65.89-7.67,3.74-.4,5.18-1.18,5.17-5.2q-.15-133.37,0-266.74c0-4-1.28-4.82-5.11-5.13-22.38-1.81-44.74-4-67.1-6.07-2.42-.22-3.89-1-3.88-4,.1-25.31.07-50.62.11-75.93A12.9,12.9,0,0,1,1158.93,736.68Zm238.62,161.06c0,19.14,0,38.28-.06,57.42,0,3.15.6,4.86,4.21,5.19,25.17,2.3,48.87-2,69.69-16.84,19.88-14.21,27.5-34.22,23.84-58.08-3.45-22.47-17.66-36.18-38.56-43.52-17.58-6.18-35.75-7-54.17-5.85-3.83.25-5.08,1.32-5,5.27C1397.66,860.13,1397.55,878.94,1397.55,897.74Z" transform="translate(-1 -1.95)"/>
          <path d="M1109.67,737.1V860.75c-1.93.08-3.68.23-5.44.23-38.65,0-77.3-.08-116,.14-4.31,0-5.83-1.45-6.56-5.3-1.07-5.71-2.36-11.4-3.93-17-.36-1.28-2.2-3.05-3.37-3.06-19.33-.16-38.65-.08-58,0a6.28,6.28,0,0,0-1.6.53v79h52.45c1.7-5.17,3.19-10.27,5.15-15.18a5.22,5.22,0,0,1,3.85-2.72c34.81-.14,69.63-.11,104.84-.11v122.7c-1.55.09-3.15.26-4.75.26-32.66,0-65.31-.08-98,.12-4.09,0-6.17-1.26-7.11-5-.32-1.28-1-2.48-1.36-3.75-2.84-9-2.83-9-12.51-9H914.83v88c1.59.11,3.17.31,4.75.32,17.83,0,35.66-.12,53.48.11,3.93,0,5.07-1.48,5.7-5,1.33-7.5,3.09-14.92,4.69-22.47h128.9v126.24H675c-.09-1.26-.23-2.38-.23-3.5,0-23.65.07-47.3-.09-70.94,0-3.59,1-4.92,4.62-5.33,22.31-2.49,44.58-5.32,66.9-7.76,3.44-.38,4.94-1,4.94-4.83Q751,963.19,751,829.05c0-1-.17-2-.25-2.9l-75.69-7V737.1Z" transform="translate(-1 -1.95)"/>
          <path d="M2618,840.66v260.17l75.75,9.06v80H2378.18c-.11-1.7-.31-3.3-.31-4.91,0-23,.05-46-.09-68.93,0-3.76.7-5.69,4.95-6.15,22.48-2.46,44.91-5.35,67.39-7.72,3.71-.4,4.77-1.36,4.76-5q-.12-125.88,0-251.76c0-3.61-.89-5-4.74-4.92-13.8.2-27.6.08-41.19.08-3,15.59-5.85,30.73-8.76,46h-125V737h521.56V886.73c-1.83.09-3.45.23-5.07.23-38.15,0-76.3-.05-114.45.1-4.09,0-5.82-.95-6.48-5.24-1.94-12.65-4.35-25.23-6.76-37.8-.23-1.24-1.71-3.2-2.63-3.22C2647.09,840.6,2632.8,840.66,2618,840.66Z" transform="translate(-1 -1.95)"/>
          <path d="M2294,533.2c3.76,39.48,7.45,78.18,11.19,117.42-12.55,2.57-24.7,5.3-36.94,7.54-48,8.81-96.52,11.36-145.22,8.89-39.57-2-78.39-8.44-115.28-23.69-66.41-27.46-105.8-76.47-116.48-147.67-7.73-51.55-3.4-102,18.25-149.94,23-51.09,61.93-86.15,112.69-108.65,33.64-14.91,69.11-22.63,105.59-26.25a516.81,516.81,0,0,1,89.27-.9,557.44,557.44,0,0,1,81.37,12.16,16.34,16.34,0,0,1,2.38,1v151h-105.6l-6.88-34.48c-.65-3.26-1.62-6.5-1.85-9.79-.3-4.2-2.17-6.18-6.33-6.75-23.51-3.26-46.55-2.55-68.25,8.38-23.82,12-38.63,31.75-46.51,56.68-9.52,30.09-9.79,60.67-1.73,91.07,9.18,34.62,32.89,54.84,66.6,64.3,26.78,7.52,54.17,8.34,81.71,6.51A306.9,306.9,0,0,0,2294,533.2Z" transform="translate(-1 -1.95)"/>
          <path d="M1549,311.6V224.76c85.6-8.38,171.15-10.67,257.37-8v343c8.51,1,16.6,1.72,24.65,2.8,19.46,2.59,38.9,5.37,58.35,8,2.65.35,3.73,1.3,3.72,4.08-.08,27.31,0,54.62-.07,81.93a15.72,15.72,0,0,1-.37,2.26H1549.08c-.11-1.45-.32-2.89-.32-4.33,0-26.14,0-52.29-.1-78.43,0-3.76,1-5.15,4.89-5.59,27.94-3.19,55.84-6.67,83.77-9.91,3.4-.4,4.87-1.32,4.87-5.12q-.17-115.39,0-230.8c0-3.63-1.11-4.83-4.75-5.14-27.52-2.35-55-4.92-82.53-7.41C1553.08,311.88,1551.26,311.77,1549,311.6Z" transform="translate(-1 -1.95)"/>
          <path d="M1726.18,171c-27.73-.07-51.69-6.92-72.27-23.33-40.43-32.24-39.28-84.95,2.52-115.44C1680.08,15,1707,9.15,1735.81,11.56c23.27,1.94,44.56,9.47,62.5,24.83,36.63,31.37,35.6,80.72-2.26,110.76C1775.15,163.74,1751,170.92,1726.18,171Z" transform="translate(-1 -1.95)"/>
          <path d="M2786.31,1153.16c-.45,19.52-14,33-32.77,32.56-17.81-.46-31.67-15.57-31.21-34,.47-19,15.32-33.13,34.2-32.65C2773.5,1119.46,2786.74,1134.63,2786.31,1153.16Zm-57.37-.81c0,15.44,12.12,28.51,26.23,28.35s25.75-13.17,25.52-28.42c-.23-15.57-11.66-28-25.91-28.13C2741,1124,2728.92,1137.15,2728.94,1152.35Z" transform="translate(-1 -1.95)"/>
          <path d="M2763,1152.5l5.85,18.27c-6.33,1.79-6.91,1.34-7.78-5.56-1.06-8.29-4-10.64-12.16-9.16v15.39h-5.51v-37.68c4.39,0,8.65-.24,12.87.07,5,.35,9.56,1.63,11,7.48C2768.67,1146.8,2766.63,1150.66,2763,1152.5Zm-13.8-13.52v12.11c4.57.26,9.28,1.3,11.7-3.47a7,7,0,0,0-.7-6.28C2757.44,1138,2753.36,1138,2749.24,1139Z" transform="translate(-1 -1.95)"/>
        </g>
      </g>
    </g>
  </g>
</svg>
