<svg xmlns="http://www.w3.org/2000/svg" width="2545.74" height="435.36" viewBox="0 0 2545.74 435.36">
  <title>overstock-advertiser-logo</title>
  <g id="Layer_2" data-name="Layer 2">
    <g id="Layer_1-2" data-name="Layer 1">
      <g id="_4WTLUm" data-name="4WTLUm">
        <g>
          <path d="M437.83,1c-.08,2.32-.22,4.64-.22,7q0,210.77,0,421.52v6.88H212.89c5-2.13,9.19-4,13.45-5.77a230.41,230.41,0,0,0,61.81-38c8.5-7.35,17.12-14.68,24.78-22.87a244.83,244.83,0,0,0,49.26-77.08c6.15-15.41,10.78-31.29,12.58-47.66,1.36-12.37.78-25,.23-37.51-.93-20.81-7.77-40-17.6-58.21a149.83,149.83,0,0,0-34.59-42.66,152.56,152.56,0,0,0-62.74-32.44,149.15,149.15,0,0,0-48.59-4.45A230.34,230.34,0,0,0,108.67,103a262.28,262.28,0,0,0-58.39,47.7A248.06,248.06,0,0,0,1,230.47V1Z" transform="translate(-1 -1)"/>
          <path d="M2275.11,1V224.59c8.72-7.52,16.77-14.44,24.81-21.38q18.66-16.12,37.29-32.27c8.81-7.68,17.49-15.52,26.3-23.2,12.52-10.92,25.1-21.75,37.65-32.63,5.34-4.63,10.61-9.35,16-13.91a5.93,5.93,0,0,1,3.47-1.37c13.33-.08,26.66,0,40,0,.41,0,.81.32,1.88.77-10.34,8.7-20.34,17-30.25,25.5-8.13,6.94-16.09,14.08-24.21,21-10.84,9.3-21.78,18.48-32.65,27.75-7.51,6.4-15,12.87-22.45,19.29-1.93,1.65-2.3,3-.53,5.37,11.33,15.35,22.41,30.88,33.6,46.33q16.5,22.77,33.05,45.53c16.46,22.67,32.94,45.34,50,68.77-10.21,0-19.79-.54-29.29.16-8.47.62-13.71-1.71-18.77-9.25-13.92-20.69-29.19-40.47-43.87-60.65-16.95-23.3-33.85-46.64-51-70.32-11,9.25-21.75,18.34-32.56,27.37-5.28,4.41-10.83,8.51-15.87,13.17a9.64,9.64,0,0,0-2.44,6.42c-.15,29.76-.1,59.52-.1,89.28v5.58h-33V1Z" transform="translate(-1 -1)"/>
          <path d="M303.72,257.19c-1,37.81-7.92,71.88-25.77,103.11-13.68,23.94-31.64,43.64-57.35,55.07a90.37,90.37,0,0,1-48,7.66c-21.63-2.47-39.56-11.78-55.76-25.76-19.08-16.46-31.3-37.42-40.51-60.3A180.46,180.46,0,0,1,63.2,276.85c-.35-8.42-1.24-16.86-.89-25.26,1-24.67,5.38-48.72,14.81-71.74s22.41-43.27,41.21-59.55c13.84-12,29.59-20.15,48-23.45,21.29-3.82,41.22-.3,60.07,9.48,20.84,10.82,36.37,27.37,48.6,47.16,13.18,21.31,21,44.61,25.5,69.09,1.34,7.41,1.5,15,2.19,22.56C303.09,249.9,303.5,254.65,303.72,257.19Z" transform="translate(-1 -1)"/>
          <path d="M1201,239.44H999c1,8.35,1.41,16.47,2.94,24.38,2.68,13.79,7.26,27,14.87,39,12.32,19.34,29.07,32.52,52.23,36.46,19.55,3.32,38.33,1.46,56.14-7.88,13.53-7.08,23.42-17.69,30.28-31,4.21-8.2,7.47-16.9,11.33-25.79H1199c-1.34,5.44-2.28,10.61-3.9,15.57-6.35,19.5-15.32,37.57-30.7,51.67a93.63,93.63,0,0,1-50.88,24.33c-9.73,1.4-19.59,3.06-29.35,2.84-19.22-.42-38-3.6-55.38-12.7a100.35,100.35,0,0,1-42-41.45c-9.55-17.33-15.62-35.84-17.13-55.6-1.1-14.46-2.49-29-1.82-43.47,1-22.41,5.75-44.36,16-64.49,15.62-30.58,39.86-50.58,74.4-56.37,10.49-1.76,21.26-3.22,31.84-2.84,24.38.89,46.74,7.84,65.69,24.33,18.67,16.25,29.88,36.71,36.77,60a160.86,160.86,0,0,1,7,40.89C1199.8,224.47,1200.47,231.66,1201,239.44Zm-200.8-28.21H1167.5c-1-7.06-1.59-13.91-3-20.57-4.6-21.27-13.81-39.95-31.27-53.86-21.34-17-45.19-20.86-71-13.25-23.3,6.86-38.68,23.12-49.43,44A119,119,0,0,0,1000.18,211.23Z" transform="translate(-1 -1)"/>
          <path d="M1823.43,91.66c22.58.44,41.73,3.87,59.55,13,20.69,10.66,36.3,26.43,47.63,46.67a141.62,141.62,0,0,1,17.59,55.35c1,9.31,2.21,18.7,1.87,28-.92,25.82-5.72,50.9-18.54,73.75-17.5,31.2-43.23,51.54-79.11,57.64-9,1.54-18.24,3-27.34,2.85-26.93-.45-52.06-7.45-73.56-24.26-17.27-13.5-29.19-31.17-37.25-51.48-7.12-17.93-10.35-36.5-11.15-55.82-.84-20.49,1.27-40.5,7.47-59.85a133,133,0,0,1,26.92-47.8c17.14-19.49,38.75-30.5,63.61-35.73C1809.27,92.32,1817.77,92.23,1823.43,91.66Zm93.84,138.68,1.21-.19c-1.74-11.63-2.84-23.39-5.38-34.84-5.06-22.84-16.1-42.69-34.44-57.46-19.33-15.55-42.08-20.85-66.47-16.9-19.25,3.13-35.32,12.5-48.23,27.44-16.89,19.54-25,42.7-27.31,67.73-1.19,13.21,0,26.87,1.88,40.07,3.46,24,13.65,45,31.32,62.23,15.9,15.5,35.29,22.26,56.86,22.52,9,.11,18.22-2,26.87-4.63,23.11-7.06,38.81-23.14,49.6-44.08A126.75,126.75,0,0,0,1917.27,230.34Z" transform="translate(-1 -1)"/>
          <path d="M745.07,230.63c.07,26.61-5.05,52.08-17.46,75.65-15.7,29.82-39.84,50-72.69,58.52a133.63,133.63,0,0,1-34.55,4.11c-27.76-.3-53.79-7.44-75.56-25.45a115.86,115.86,0,0,1-27.9-33.62,149.79,149.79,0,0,1-16.86-49.55A191.19,191.19,0,0,1,498.58,214c1.85-20.91,6.8-40.82,16.34-59.38,11.09-21.58,27.13-38.83,49-49.82,14.23-7.13,29.46-10.78,45.48-12.28a129.52,129.52,0,0,1,54.21,6.24c27.29,9.23,47.29,27.26,61.7,52,10.1,17.31,15.31,36.15,18.23,55.69C744.77,214.4,744.62,222.56,745.07,230.63Zm-32.65-.44c-.9-7.82-1.55-15.67-2.73-23.44-3.69-24.33-12.86-46-30.81-63.52C659,123.79,635,117,608.09,121c-20.7,3-38.05,12.85-51.58,29.33-17.27,21.05-25.25,45.5-26.47,72.12-.51,11.2,1.09,22.62,2.87,33.76C536.72,280,546.28,301.05,564,318c21.81,20.89,48,26.64,76.65,20.59,26.61-5.61,44.87-22.76,57-46.4C707.57,272.86,712.13,252.07,712.42,230.19Z" transform="translate(-1 -1)"/>
          <path d="M1354.66,275.57h32.56c1.77,7.52,3,15.06,5.34,22.24,5.77,17.63,18.36,29.12,35,36.31,9.19,4,19,5.41,29,6.29a96,96,0,0,0,49.53-8.76c20.42-9.51,30.27-23.76,28.1-46.39-1.56-16.29-11.59-27-26.84-31.59-18.35-5.5-37.11-9.66-55.74-14.19-22.19-5.4-44.35-10.68-63.69-23.75-14.23-9.62-21.29-23-23.66-39.81-3.19-22.57,5.24-40.54,21-55.35,14.69-13.76,32.52-22.23,52.43-25.7,9.18-1.6,18.6-3.25,27.83-2.86,27.15,1.14,51.84,9.33,71,29.6a74,74,0,0,1,20.78,46.88c.17,2.53.68,5,1.08,7.87h-31.44c-2.61-8.42-4.39-16.88-7.82-24.62-5.65-12.74-16.14-20.89-28.92-25.93a88.91,88.91,0,0,0-38.57-6c-11.39.75-22.84,2.14-33.24,7.37-12.43,6.26-19.27,16.31-21.23,30.29-1.54,11,.14,21.24,7.49,29.16,5,5.43,11.94,10.29,18.93,12.53,17.61,5.64,35.74,9.65,53.66,14.32,14,3.64,28.32,6.34,41.91,11.14,20.55,7.27,37.22,20.24,44.2,41.58,8.55,26.12,5,50.78-14.34,71.68-14.22,15.38-32.76,22.9-52.74,27.14-8,1.69-16.22,2.05-24.33,3.12-15.19,2-30.14,0-44.93-3.07-15-3.16-28.72-9.22-40.61-19.25-17.94-15.15-26.59-35-30.06-57.58C1355.83,284.12,1355.28,280,1354.66,275.57Z" transform="translate(-1 -1)"/>
          <path d="M2207.69,182.58c-10.58,0-20.14.12-29.69-.14a5.19,5.19,0,0,1-3.73-3.13c-4.23-16.94-12-31.76-25.33-43.34-9-7.8-19.67-12.23-31.23-14.13-18.93-3.1-37.25-.85-54.54,7.87-15.43,7.78-26.69,19.81-35.23,34.58a125.12,125.12,0,0,0-15.82,49.31c-3,27,.13,53,12.11,77.45,12.53,25.62,32.19,43.42,60.7,48.82,32.6,6.17,61.67-5.11,80.06-35.16a82.18,82.18,0,0,0,11.28-33.46c.16-1.37,1.82-3.65,2.83-3.68,10.27-.28,20.55-.17,31-.17-3.32,22.41-10.11,42.8-23.38,60.87a98.6,98.6,0,0,1-44.06,34c-17.11,6.81-34.94,8.05-52.87,6.75-23.06-1.68-44.39-9.09-62.76-23.52-19.37-15.21-32.11-35.08-39.8-58.31-4.64-14-7-28.35-8.23-43.09A167.77,167.77,0,0,1,1989.38,169c13.4-35,37.17-60.08,73.68-71.41,8.49-2.63,17.57-3.43,26.44-4.71,19.58-2.83,38.64,0,56.92,7,20.78,8,37.34,21.13,47.93,41.26a103.81,103.81,0,0,1,11.87,37.45C2206.3,179.33,2206.75,180.07,2207.69,182.58Z" transform="translate(-1 -1)"/>
          <path d="M873.23,360.08H837.31L736.53,99.79c12.08,0,23.68-.08,35.27.13,1,0,2.44,1.8,2.9,3q12.39,33.86,24.57,67.78,19.46,53.82,38.91,107.65c5.28,14.66,10.37,29.39,15.61,44.07a32.44,32.44,0,0,0,2.42,4.44Q896.27,213.21,936.15,100H970.8C938.22,186.88,905.77,273.35,873.23,360.08Z" transform="translate(-1 -1)"/>
          <path d="M1645.35,127.54v6.83q0,85.27,0,170.54c0,7.54.49,14.92,4.63,21.67,3.65,5.94,9.32,8.35,15.6,8.5,9.93.24,19.89-.51,29.84-.82.8,0,1.6.09,2.65.16v28.46c-1.31.09-2.73.3-4.15.27-13.92-.3-27.92.15-41.74-1.17-19.49-1.87-33-10.32-37.71-32.28a90.77,90.77,0,0,1-2-18.51q-.23-88.5-.09-177v-6.25h-29.58v-28h29.37V22.36h33V99.72h52.9v27.82Z" transform="translate(-1 -1)"/>
          <path d="M1270.48,100.16v59.58c15.22-35.65,41-56.12,79-62.38,0,10.61.09,20.54-.14,30.47,0,1-1.89,2.55-3.09,2.77a87.43,87.43,0,0,0-70.67,70.49,117,117,0,0,0-2,20c-.17,44.21-.09,88.42-.09,132.63v6.16h-32.58V100.16Z" transform="translate(-1 -1)"/>
          <path d="M2512.33,326.48c8.82-.56,8.8-.55,11.47,7.23,1.79,5.21,3.64,10.4,5.8,16.56,2.32-6,4.48-11.25,6.38-16.59,2.84-7.94,2.76-8,10.76-7v33c-2.44,1-3.81.7-3.76-2.52a198.93,198.93,0,0,0-.72-22.13c-2.74,6.81-5.36,13.68-8.32,20.39-.8,1.82-2.64,3.17-4,4.74-1.32-1.62-3.06-3-3.88-4.88-3-6.61-5.6-13.36-8.92-21.42v25.9l-4.8.52Z" transform="translate(-1 -1)"/>
          <path d="M2495.06,360h-4.85V330.37H2478.3v-4.89h27.37c.12,1.37.25,2.75.42,4.66h-11Z" transform="translate(-1 -1)"/>
        </g>
      </g>
    </g>
  </g>
</svg>
