<svg xmlns="http://www.w3.org/2000/svg" width="836.81" height="199.74" viewBox="0 0 836.81 199.74">
  <defs>
    <style>
      .cls-1 {
        fill: #050505;
      }
    </style>
  </defs>
  <title>priceline-advertiser-logo</title>
  <g id="Layer_2" data-name="Layer 2">
    <g id="Layer_1-2" data-name="Layer 1">
      <g>
        <path class="cls-1" d="M33.26,153.65v46.09H0V49H29.33v8.51c.68,0,1.09.13,1.25,0,21.8-20.17,57.26-14,71.5,12.42a67.09,67.09,0,0,1,7.6,28.64,82.07,82.07,0,0,1-3.07,28.62c-3,9.88-7.69,18.79-15.65,25.6-12.89,11-34.92,14.09-51,4.8Zm44.51-49.9c.21-11-2.28-19.31-5.53-24.79a19.27,19.27,0,0,0-28-6.25,24,24,0,0,0-9.55,13A60.46,60.46,0,0,0,32.1,97.32c-1.06,10.18-.61,20.28,4,29.71,3.75,7.71,10.05,11.78,18.64,11.89,8.39.12,14-4.4,17.83-11.46C76.61,120,77.91,111.84,77.77,103.75Z"/>
        <path class="cls-1" d="M460.52,111.68H381.14a24.25,24.25,0,0,0,19.33,27.44c13.87,2.65,25.94-4.11,31.51-14.77.75-1.44,1.63-2.83,2.59-4.49,7.55,3.81,14.94,7.53,22.31,11.28a23.27,23.27,0,0,1,2.4,1.64c-1.77,2.55-3.38,5-5.15,7.39-11.43,15.25-26.56,23.63-45.65,25-9.93.72-19.57-.29-28.8-3.95-17.92-7.1-28.13-20.81-31.7-39.32-3.33-17.25-1.58-34.15,6.76-49.91,7.74-14.62,20-23.23,36.21-26.15C401.73,43.92,412.5,44,423,47.24c17.2,5.38,28.08,17.21,33.51,34.14a93.34,93.34,0,0,1,4.16,27C460.71,109.33,460.59,110.29,460.52,111.68Zm-34.36-21.1c-.53-14.15-8.71-22-22.38-22.12-12.32-.09-21.37,8.81-22.85,22.12Z"/>
        <path class="cls-1" d="M813.84,111.55H734A26.94,26.94,0,0,0,737.4,127c5.15,9.58,14.68,13.71,25.6,12.57,10.59-1.09,17.69-6.89,22.77-15.78.33-.58.64-1.17,1-1.74s.67-1.13,1.3-2.17l24.79,12.68c-11.94,19.47-28.27,31.26-51.36,32.67-11.32.7-22.23-.7-32.43-5.73-14.31-7.07-23.16-18.81-26.9-34.12-4.58-18.76-2.78-37,6.54-54.16C716.4,57,728.55,48.71,744.39,45.86a68.31,68.31,0,0,1,29.2.61c17.86,4.55,29.66,15.88,35.75,33.06A84.72,84.72,0,0,1,813.84,111.55Zm-34.48-21c.36-14.36-10.14-21.39-20.59-22-13.83-.84-24.11,10.8-24,22Z"/>
        <path class="cls-1" d="M587.12,49h33.23v8.76a9.44,9.44,0,0,0,1.75-1c10.41-10.33,23.3-11.77,37-10.32a35.76,35.76,0,0,1,13.65,4.35c6.15,3.39,10.34,8.38,12,15.22a54.21,54.21,0,0,1,1.9,12.27c.19,26.52.13,53,.13,79.55a16,16,0,0,1-.27,2H653.8v-4.84q0-30,0-60c0-2.33,0-4.67-.07-7-.2-13.59-10.85-17-19.45-15.72-9.54,1.37-12.63,7-13.49,14.76a161.22,161.22,0,0,0-.84,16.45c-.1,17,0,34,0,51v5.24H587.12Z"/>
        <path class="cls-1" d="M345.27,60.06a61.89,61.89,0,0,0-14.55,25c-2.69-3-4.86-5.9-7.5-8.27a20.67,20.67,0,0,0-19.91-4.86c-6.45,1.64-10.75,6.14-13.46,11.81-7,14.69-7.26,29.55.85,43.94,7.86,13.94,26.43,15.29,36.6,2.94.73-.89,1.39-1.82,2.58-3.37,3.45,8.94,7.26,17.12,14.16,23.67-4.67,5.08-10.4,8-16.33,10.48-21.25,8.79-48.66,2.89-63.49-14.25-7.07-8.17-10.91-17.67-12.59-28.23a74.51,74.51,0,0,1,2.16-34.52C259.88,65,272.4,52.07,292.6,47.54,308.6,44,324,45.59,338,54.66,340.39,56.17,342.53,58,345.27,60.06Z"/>
        <path class="cls-1" d="M475.75,0h33.51V159.79H475.75Z"/>
        <path class="cls-1" d="M124.85,48.31H156.5V59.89c9.81-8.14,20.28-11.65,32-12.53V76.27l-14.88,2.6c-.17,0-.34,0-.5,0-11.3,2.49-15.73,5.57-15.62,18.49.15,19,0,38,0,57v4.86c-3.82,1-24.75,1.25-32.68.43Z"/>
        <path class="cls-1" d="M563.19,159.91H530.83V49.41c3.35-.91,26-1.15,32.36-.3Z"/>
        <path class="cls-1" d="M203.71,48.89H235.6V159.82H203.71Z"/>
        <path class="cls-1" d="M219.79,2.69c10.13-.27,17.69,8.3,17.72,17.78,0,9.7-8.26,17.54-18.14,17.43-9.51-.11-17.77-8.15-17.45-17.6C202.32,8.92,211.08,2.3,219.79,2.69Z"/>
        <path class="cls-1" d="M530.6,20.25c-.38-9.33,7.7-17.67,17.69-17.66a17.84,17.84,0,0,1,17.53,17.89,17.61,17.61,0,0,1-35.22-.23Z"/>
        <path d="M814.73,48.46a11,11,0,1,1,10.61,11.48A11,11,0,0,1,814.73,48.46Zm15.58,8.13a15.08,15.08,0,0,0,1.84-1.65,8.43,8.43,0,0,0,.6-11.68,8.69,8.69,0,0,0-12.39-1.57,9,9,0,0,0-1.9,12.43c2.85,4,8.18,5.1,11.85,2.47"/>
      </g>
      <path d="M822.89,44.1a11.93,11.93,0,0,1,2.3-.2,3.77,3.77,0,0,1,2.67.76,2.28,2.28,0,0,1,.73,1.75,2.44,2.44,0,0,1-1.74,2.37v0a2.27,2.27,0,0,1,1.35,1.86,15.68,15.68,0,0,0,.72,2.54h-1.24a12.3,12.3,0,0,1-.61-2.21c-.28-1.27-.77-1.75-1.86-1.8h-1.12v4h-1.2Zm1.2,4.21h1.22c1.28,0,2.09-.7,2.09-1.76s-.87-1.71-2.13-1.73a5.14,5.14,0,0,0-1.18.11Z"/>
    </g>
  </g>
</svg>
