<svg xmlns="http://www.w3.org/2000/svg" width="507.24" height="185.76" viewBox="0 0 507.24 185.76">
  <defs>
    <style>
      .cls-1 {
        fill: #020202;
      }

      .cls-2 {
        fill: none;
      }
    </style>
  </defs>
  <title>turbotax-advertiser-logo</title>
  <g id="Layer_2" data-name="Layer 2">
    <g id="Artwork">
      <g id="TurboTax_-_Clearspace_Lockup" data-name="TurboTax - Clearspace &amp; Lockup">
        <g id="Cornerstone_Lockup" data-name="Cornerstone Lockup">
          <g id="Wordmark">
            <path id="_" data-name="®" d="M473.56,127.84c0-1.07-.91-1.47-1.85-1.47H470v5h.89v-2.09h.65l1.17,2.09h1.09l-1.35-2.19A1.32,1.32,0,0,0,473.56,127.84Zm-2.71.72v-1.43h.82c.47,0,1,.14,1,.69s-.59.74-1.1.74Zm.84-4.1a4.41,4.41,0,1,0,4.45,4.43A4.42,4.42,0,0,0,471.69,124.46Zm0,8.17a3.74,3.74,0,1,1,3.75-3.74A3.75,3.75,0,0,1,471.69,132.63Z"/>
            <path id="turbotax" d="M278.11,93.47c-4.89,0-8.49,2.14-11.89,5.32H266V73.24H255.34v60h10.22v-5.47h.16a14.43,14.43,0,0,0,12.15,6.56c11,0,19.39-8.66,19.39-20.59C297.26,102,289,93.47,278.11,93.47ZM276,125.21c-6.45,0-10.3-5.75-10.3-11.3s3.94-11.47,10.3-11.47c6.91,0,10.35,5.86,10.35,11.31C286.36,119.45,282.61,125.21,276,125.21Zm-70.23-9.44c0,4.55-3,9.44-8.49,9.44-4.26,0-6.53-3-6.53-9.28V94.56H180.08v24c0,8,4,15.77,14.64,15.77,5,0,9.24-4,11.37-6.88h.15v5.79h10.22V94.56H205.78Zm-42.7-32H152.56V94.56H146v8.54h6.54v17c0,6,1.45,14,12.93,14a21.75,21.75,0,0,0,6.76-1.1l-.26-8.36a14.68,14.68,0,0,1-4.68.8c-3.12,0-4.23-2.19-4.23-5.41v-17h9.34V94.56h-9.34ZM236,100.53h-.16v-6H225.53v38.69h10.68V112.58c0-.09.48-9.45,9.73-9.45a14.81,14.81,0,0,1,3.32.42V93.79a18.84,18.84,0,0,0-3.06-.32C242,93.47,238.41,96.92,236,100.53ZM397.6,93.47A25.14,25.14,0,0,0,381,99.83L386.5,106a15.76,15.76,0,0,1,10.32-4.11c3.81,0,7.69,1.9,7.69,6.45V109C393.29,109,379,110.39,379,121.92c0,8.47,7.37,12.26,14.68,12.26a14.86,14.86,0,0,0,10.91-5.41h.24v4.48h10.06V109.86C414.92,103.74,412.67,93.47,397.6,93.47Zm7.1,23.39c0,5.74-3.24,9.33-9.13,9.33-2.18,0-6.09-.65-6.09-4.13,0-3.73,4.67-6,13.8-6h1.42ZM323.17,93.47c-12.15,0-21,8.53-21,20.28,0,12.16,9,20.69,21,20.69s21-8.61,21-20.69C344.15,102,335.33,93.47,323.17,93.47Zm0,31.74c-7,0-10.14-5.94-10.14-11.46s3.18-11.31,10.14-11.31,10.14,5.86,10.14,11.31S330.14,125.21,323.17,125.21Zm123.31-12.47,13.89-18.18H447.93l-8,11.1-7.75-11.1H419.29l14,18.18-15.68,20.51h12.75l9.45-13.13,9.38,13.13h13.08Zm-82-29H354V94.56h-6.54v8.54H354v17c0,6,1.45,14,12.93,14a21.75,21.75,0,0,0,6.76-1.1l-.26-8.36a14.68,14.68,0,0,1-4.68.8c-3.12,0-4.23-2.19-4.23-5.41v-17h9.34V94.56h-9.34Z"/>
          </g>
          <path class="cls-1" d="M90,50.75a45,45,0,1,0,45,45A45,45,0,0,0,90,50.75Zm-5,79.33a209.05,209.05,0,0,1-24.71-18c1.4-4,3-8,4.72-11.78A190.12,190.12,0,0,0,80,112.25,126.08,126.08,0,0,1,114.74,71a35.15,35.15,0,0,1,6.91,9.82A113.51,113.51,0,0,0,85.05,130.08Z"/>
          <path id="intuit" d="M173.33,53a6.7,6.7,0,0,0-6.11,3.73h-.09V53.53h-4.67V73.21h4.92V62.38c0-2.62,1.48-5.33,4.59-5.33s3.69,2.91,3.69,5.25V73.21h4.92V60.91C180.58,56.89,178.45,53,173.33,53ZM152.5,73.21h4.92V53.53H152.5ZM234,53.51v4.36h5.52V73.21h4.92V57.87H250V53.51ZM242,51a3,3,0,1,0-3-3A3,3,0,0,0,242,51Zm-50.91,0a3,3,0,1,0-3-3A3,3,0,0,0,191.07,51Zm34.57,22.26h4.92V53.53h-4.92Zm-10-8.86c0,2.63-1.48,5.33-4.6,5.33s-3.69-2.91-3.69-5.25V53.53h-4.92v12.3c0,4,2.13,8,7.26,8a6.7,6.7,0,0,0,6.11-3.73h.08v3.16h4.68V53.53h-4.92Zm-32.59-6.48h5.52V73.21h4.92V57.87h5.52V53.51h-16Z"/>
        </g>
        <rect id="Clearspace" class="cls-2" width="507.24" height="185.76"/>
      </g>
    </g>
  </g>
</svg>
