<?xml version="1.0" encoding="UTF-8"?>
<svg id="Layer_2" data-name="Layer 2" xmlns="http://www.w3.org/2000/svg" viewBox="0 0 806.36 278.57">
  <defs>
    <style>
      .cls-1 {
        fill: #a38fef;
      }

      .cls-1, .cls-2 {
        stroke-width: 0px;
      }

      .cls-2 {
        fill: #025450;
      }

      .cls-3 {
        isolation: isolate;
      }
    </style>
  </defs>
  <g id="Layer_1-2" data-name="Layer 1-2">
    <g>
      <g>
        <polygon class="cls-1" points="0 23.65 0 32.35 215.89 32.35 5.74 242.5 11.89 248.65 222.04 38.5 222.04 247.63 230.74 247.63 230.74 23.65 0 23.65"/>
        <g class="cls-3">
          <g class="cls-3">
            <path class="cls-2" d="M306.81,22.48h26.98l38.07,104.92h-24.13l-8.09-22.93h-39.87l-8.09,22.93h-23.23l38.37-104.92ZM333.49,86.33l-13.94-39.87-13.79,39.87h27.73Z"/>
            <path class="cls-2" d="M500.46,85.13v42.42h-21.13v-43.17c0-11.54-4.2-17.54-13.34-17.54s-15.29,6.75-15.29,18.44v42.27h-21.13v-43.17c0-11.54-4.2-17.54-13.49-17.54s-15.14,7.04-15.14,18.59v42.12h-21.13V50.36h18.44l1.95,9.59c4.8-6,11.39-10.34,22.78-10.49,9.44,0,18.14,3.3,22.93,13.04,5.55-8.24,14.84-13.04,26.53-13.04,14.69,0,28.03,8.09,28.03,35.67Z"/>
            <path class="cls-2" d="M593.83,89.03c0,23.98-14.99,39.27-35.67,39.27-10.64,0-18.29-4.35-23.23-10.64v39.72h-21.13V50.36h18.44l2.1,10.64c4.95-6.59,12.74-11.54,23.68-11.54,20.83-.15,35.82,15.29,35.82,39.57ZM572.4,88.73c0-13.04-7.49-22.03-19.04-22.03s-18.74,8.99-18.74,22.03,7.2,22.33,18.74,22.33,19.04-9.14,19.04-22.33Z"/>
            <path class="cls-2" d="M626.65,22.48v104.92h-21.13V22.48h21.13Z"/>
            <path class="cls-2" d="M664.12,30.12c0,6.89-5.25,11.99-12.14,11.99s-12.29-5.1-12.29-11.99,5.25-11.84,12.29-11.84,12.14,4.95,12.14,11.84ZM662.47,50.36v77.04h-21.13V50.36h21.13Z"/>
          </g>
          <g class="cls-3">
            <path class="cls-2" d="M682.11,50.36v-6.75c0-13.34,7.64-21.13,23.23-21.13h17.24v17.99h-13.04c-4.35,0-6.29,1.95-6.29,6.29v3.6h19.33v17.84h-19.33v59.21h-21.13v-59.21h-12.74v-17.84h12.74Z"/>
          </g>
          <g class="cls-3">
            <path class="cls-2" d="M746.7,50.36l18.74,55.31,18.29-55.31h22.63l-34.17,87.98c-4.8,12.74-8.69,19.04-20.68,19.04h-20.53v-17.84h11.69c5.4,0,7.19-1.35,9.29-6.59l1.95-5.1-29.68-77.49h22.48Z"/>
          </g>
        </g>
      </g>
      <g>
        <path class="cls-2" d="M305.95,141.91c21.41,0,33.26,10.17,33.26,27.03,0,12.91-7.14,21.71-20.2,24.6,15.18,2.43,25.06,10.33,25.06,25.81,0,17.61-12.76,28.85-37.51,28.85h-36.9v-106.29h36.29ZM277.86,190.2h28.4c15.79,0,24.75-7.74,24.75-20.5s-8.81-20.35-24.75-20.35h-28.4v40.85h0ZM277.86,240.76h28.7c19.13,0,29-8.35,29-21.71s-10.63-21.41-29-21.41h-28.7v43.13h0Z"/>
        <path class="cls-2" d="M386.58,170.31c20.35,0,34.77,13.36,35.53,36.29,0,.91,0,2.13-.15,3.19h-62.71c-.15.61-.15,1.21-.15,1.82.3,18.07,11.84,30.52,28.24,30.52,12.6,0,22.63-7.44,25.66-19.44h7.9c-3.49,15.49-16.1,26.42-32.95,26.42-21.87,0-36.9-16.1-36.9-39.48s14.58-39.33,35.53-39.33h0ZM414.07,203.26c-1.37-16.85-12.3-26.12-27.33-26.12-14.12,0-25.66,10.48-27.03,26.12h54.36Z"/>
        <path class="cls-2" d="M427.73,171.22l26.73,67.88,26.27-67.88h8.35l-36.9,91.26c-4.86,12.3-7.29,16.1-17.61,16.1h-11.84v-7.14h9.72c7.9,0,9.11-2.28,12.76-10.93l5.01-12-30.83-77.29h8.35-.01Z"/>
        <path class="cls-2" d="M486.34,209.63c0-23.23,15.19-39.33,36.9-39.33s37.05,16.1,37.05,39.33-15.19,39.48-37.05,39.48-36.9-16.1-36.9-39.48ZM552.4,209.63c0-18.98-11.84-32.5-29.16-32.5s-29,13.51-29,32.5,11.84,32.5,29,32.5,29.16-13.36,29.16-32.5Z"/>
        <path class="cls-2" d="M634.24,205.08v43.13h-7.74v-42.82c0-18.22-8.96-27.94-23.84-27.94-16.4,0-26.57,12.76-26.57,32.8v37.96h-7.74v-76.99h6.68l1.22,16.4c4.4-10.02,13.51-17.31,27.64-17.31,17.46,0,30.37,10.48,30.37,34.77h-.02Z"/>
        <path class="cls-2" d="M714.72,141.91v106.29h-6.68l-1.22-17.46c-4.86,10.63-15.03,18.37-29.31,18.37-21.11,0-36.29-15.18-36.29-39.48s15.19-39.33,36.29-39.33c14.43,0,24.75,7.29,29.46,18.22v-46.62h7.75ZM707.13,209.79c0-19.13-11.84-32.65-29-32.65s-29,13.51-29,32.5,11.84,32.5,29,32.5,29-13.36,29-32.34h0Z"/>
      </g>
    </g>
  </g>
</svg>