<svg width="350" height="325" viewBox="0 0 350 325" fill="none" xmlns="http://www.w3.org/2000/svg">
<g style="mix-blend-mode:multiply">
<path d="M204.9 41.25C204.9 39.81 205.98 38.76 207.45 38.76C208.89 38.76 210 39.81 210 41.25C210 42.72 208.89 43.74 207.45 43.74C205.98 43.74 204.9 42.72 204.9 41.25ZM204.9 51.69C204.9 50.22 205.98 49.17 207.45 49.17C208.89 49.17 210 50.22 210 51.69C210 53.13 208.89 54.18 207.45 54.18C205.98 54.18 204.9 53.13 204.9 51.69Z" fill="#025450"/>
<path d="M187.169 46.3199C187.169 41.4899 190.289 38.3999 194.939 38.3999C199.619 38.3999 202.829 41.2799 202.889 45.8099C202.889 46.2599 202.859 46.7699 202.769 47.2499H191.579V47.3699C191.759 49.5899 193.019 50.9699 195.209 50.9699C196.919 50.9699 198.119 50.2199 198.479 48.7799H202.649C202.169 51.7799 199.559 54.1799 195.509 54.1799C190.289 54.1799 187.169 51.0899 187.169 46.3199ZM191.669 44.4899H198.659C198.359 42.5999 197.039 41.5499 195.119 41.5499C193.289 41.5499 191.909 42.6599 191.669 44.4899Z" fill="#025450"/>
<path d="M178.25 38.4001C182.42 38.3701 185.42 41.4601 185.42 46.3201C185.42 51.1201 182.42 54.1801 178.28 54.1801C176.15 54.1801 174.62 53.3101 173.63 52.0501V60.0001H169.4V38.5801H173.09L173.51 40.7101C174.5 39.3901 176.06 38.4001 178.25 38.4001ZM177.32 50.7301C179.63 50.7301 181.13 48.9001 181.13 46.2601C181.13 43.6501 179.63 41.8501 177.32 41.8501C175.01 41.8501 173.57 43.6501 173.57 46.2601C173.57 48.9001 175.01 50.7301 177.32 50.7301Z" fill="#025450"/>
<path d="M151.523 38.5801H156.023L159.773 49.6501L163.433 38.5801H167.963L161.123 56.1901C160.163 58.7401 159.383 60.0001 156.983 60.0001H152.873V56.4301H155.213C156.293 56.4301 156.653 56.1601 157.073 55.1101L157.463 54.0901L151.523 38.5801Z" fill="#025450"/>
<path d="M135.25 33H151.87V36.87H145.81V54H141.31V36.87H135.25V33Z" fill="#025450"/>
<path d="M118.183 38.5801H122.683L126.433 49.6501L130.093 38.5801H134.623L127.783 56.1901C126.823 58.7401 126.043 60.0001 123.643 60.0001H119.533V56.4301H121.873C122.953 56.4301 123.313 56.1601 123.733 55.1101L124.123 54.0901L118.183 38.5801Z" fill="#025450"/>
<path d="M111.365 38.3999C114.515 38.3999 117.545 40.0199 117.545 45.6299V53.9999H113.315V45.8699C113.315 43.2599 112.325 41.8799 110.195 41.8799C108.005 41.8799 106.745 43.4399 106.745 46.1099V53.9999H102.515V38.5799H106.205L106.595 40.4999C107.585 39.2999 108.995 38.3999 111.365 38.3999Z" fill="#025450"/>
<path d="M100.399 50.4299H100.879V53.9999H98.7185C96.5285 53.9999 95.8385 52.9499 95.8685 51.4799C94.7885 53.1899 93.2285 54.1799 90.8285 54.1799C87.4985 54.1799 85.0985 52.5899 85.0985 49.6499C85.0985 46.3799 87.5585 44.5199 92.1785 44.5199H95.2385V43.7699C95.2385 42.3899 94.1285 41.4899 92.3585 41.4899C90.7985 41.4899 89.7185 42.2399 89.5385 43.3799H85.4585C85.7585 40.1699 88.4585 38.3999 92.5685 38.3999C96.8885 38.3999 99.4085 40.3199 99.4085 44.0099V49.4399C99.4085 50.2199 99.7685 50.4299 100.399 50.4299ZM95.2385 47.6399V47.3399H92.1485C90.4085 47.3399 89.3585 48.0599 89.3585 49.3499C89.3585 50.4299 90.2285 51.1199 91.6385 51.1199C93.8585 51.1199 95.2085 49.7399 95.2385 47.6399Z" fill="#025450"/>
<path d="M76.1793 38.4001C80.3493 38.3701 83.3493 41.4601 83.3493 46.3201C83.3493 51.1201 80.3493 54.1801 76.2093 54.1801C74.0793 54.1801 72.5493 53.3101 71.5593 52.0501V60.0001H67.3293V38.5801H71.0193L71.4393 40.7101C72.4293 39.3901 73.9893 38.4001 76.1793 38.4001ZM75.2493 50.7301C77.5593 50.7301 79.0593 48.9001 79.0593 46.2601C79.0593 43.6501 77.5593 41.8501 75.2493 41.8501C72.9393 41.8501 71.4993 43.6501 71.4993 46.2601C71.4993 48.9001 72.9393 50.7301 75.2493 50.7301Z" fill="#025450"/>
<path d="M59.0627 38.3999C62.0027 38.3999 64.6727 40.0199 64.6727 45.5399V54.0299H60.4427V45.3899C60.4427 43.0799 59.6027 41.8799 57.7727 41.8799C55.9427 41.8799 54.7127 43.2299 54.7127 45.5699V54.0299H50.4827V45.3899C50.4827 43.0799 49.6427 41.8799 47.7827 41.8799C45.9527 41.8799 44.7527 43.2899 44.7527 45.5999V54.0299H40.5227V38.5799H44.2127L44.6027 40.4999C45.5627 39.2999 46.8827 38.4299 49.1627 38.3999C51.0527 38.3999 52.7927 39.0599 53.7527 41.0099C54.8627 39.3599 56.7227 38.3999 59.0627 38.3999Z" fill="#025450"/>
<path d="M30.0644 54.1799C25.1444 54.1799 21.9344 51.0299 21.9344 46.2899C21.9344 41.5499 25.1444 38.3999 30.0644 38.3999C34.9844 38.3999 38.1944 41.5499 38.1944 46.2899C38.1944 51.0599 34.9844 54.1799 30.0644 54.1799ZM30.0644 50.7299C32.4344 50.7299 33.9044 48.8999 33.9044 46.2899C33.9044 43.6799 32.4344 41.8499 30.0644 41.8499C27.6944 41.8499 26.2544 43.6799 26.2544 46.2899C26.2544 48.8999 27.6944 50.7299 30.0644 50.7299Z" fill="#025450"/>
<path d="M0.959961 43.5001C0.959961 37.0501 4.88996 32.8201 11.25 32.8201C16.23 32.8201 19.74 35.9401 20.25 40.5001H15.75C15.24 38.1601 13.53 36.6301 11.01 36.6301C7.58996 36.6301 5.54996 39.4501 5.54996 43.5001C5.54996 47.5201 7.58996 50.3701 11.01 50.3701C13.53 50.3701 15.24 48.8401 15.75 46.5001H20.25C19.74 51.0601 16.23 54.1801 11.25 54.1801C4.88996 54.1801 0.959961 49.9501 0.959961 43.5001Z" fill="#025450"/>
<path d="M146.329 13.3199C146.329 8.4899 149.449 5.3999 154.099 5.3999C158.779 5.3999 161.989 8.2799 162.049 12.8099C162.049 13.2599 162.019 13.7699 161.929 14.2499H150.739V14.3699C150.919 16.5899 152.179 17.9699 154.369 17.9699C156.079 17.9699 157.279 17.2199 157.639 15.7799H161.809C161.329 18.7799 158.719 21.1799 154.669 21.1799C149.449 21.1799 146.329 18.0899 146.329 13.3199ZM150.829 11.4899H157.819C157.519 9.5999 156.199 8.5499 154.279 8.5499C152.449 8.5499 151.069 9.6599 150.829 11.4899Z" fill="#025450"/>
<path d="M144.845 15.1499C144.275 18.8699 141.575 21.1799 137.375 21.1799C132.515 21.1799 129.425 18.0299 129.425 13.2899C129.425 8.4899 132.545 5.3999 137.405 5.3999C141.575 5.3999 144.245 7.6799 144.845 11.3399H140.465C140.105 9.8399 138.995 8.8499 137.375 8.8499C135.155 8.8499 133.745 10.6499 133.745 13.2899C133.745 15.8999 135.155 17.7299 137.375 17.7299C139.055 17.7299 140.165 16.7399 140.495 15.1499H144.845Z" fill="#025450"/>
<path d="M121.179 5.3999C124.329 5.3999 127.359 7.0199 127.359 12.6299V20.9999H123.129V12.8699C123.129 10.2599 122.139 8.8799 120.009 8.8799C117.819 8.8799 116.559 10.4399 116.559 13.1099V20.9999H112.329V5.5799H116.019L116.409 7.4999C117.399 6.2999 118.809 5.3999 121.179 5.3999Z" fill="#025450"/>
<path d="M110.213 17.4299H110.693V20.9999H108.533C106.343 20.9999 105.653 19.9499 105.683 18.4799C104.603 20.1899 103.043 21.1799 100.643 21.1799C97.313 21.1799 94.913 19.5899 94.913 16.6499C94.913 13.3799 97.373 11.5199 101.993 11.5199H105.053V10.7699C105.053 9.3899 103.943 8.4899 102.173 8.4899C100.613 8.4899 99.533 9.2399 99.353 10.3799H95.273C95.573 7.1699 98.273 5.3999 102.383 5.3999C106.703 5.3999 109.223 7.3199 109.223 11.0099V16.4399C109.223 17.2199 109.583 17.4299 110.213 17.4299ZM105.053 14.6399V14.3399H101.963C100.223 14.3399 99.173 15.0599 99.173 16.3499C99.173 17.4299 100.043 18.1199 101.453 18.1199C103.673 18.1199 105.023 16.7399 105.053 14.6399Z" fill="#025450"/>
<path d="M88.3338 0H92.5638V21H88.8738L88.4538 18.87C87.4338 20.19 85.9338 21.18 83.7138 21.18C79.5738 21.21 76.5438 18.15 76.5438 13.26C76.5438 8.49 79.5738 5.4 83.6838 5.4C85.8138 5.4 87.3438 6.24 88.3338 7.5V0ZM84.6438 17.73C86.9538 17.73 88.3938 15.93 88.3938 13.32C88.3938 10.68 86.9538 8.85 84.6438 8.85C82.3338 8.85 80.8638 10.65 80.8638 13.29C80.8638 15.93 82.3338 17.73 84.6438 17.73Z" fill="#025450"/>
<path d="M68.2985 5.3999C71.4485 5.3999 74.4785 7.0199 74.4785 12.6299V20.9999H70.2485V12.8699C70.2485 10.2599 69.2585 8.8799 67.1285 8.8799C64.9385 8.8799 63.6785 10.4399 63.6785 13.1099V20.9999H59.4485V5.5799H63.1385L63.5285 7.4999C64.5185 6.2999 65.9285 5.3999 68.2985 5.3999Z" fill="#025450"/>
<path d="M41.4169 13.3199C41.4169 8.4899 44.5369 5.3999 49.1869 5.3999C53.8669 5.3999 57.0769 8.2799 57.1369 12.8099C57.1369 13.2599 57.1069 13.7699 57.0169 14.2499H45.8269V14.3699C46.0069 16.5899 47.2669 17.9699 49.4569 17.9699C51.1669 17.9699 52.3669 17.2199 52.7269 15.7799H56.8969C56.4169 18.7799 53.8069 21.1799 49.7569 21.1799C44.5369 21.1799 41.4169 18.0899 41.4169 13.3199ZM45.9169 11.4899H52.9069C52.6069 9.5999 51.2869 8.5499 49.3669 8.5499C47.5369 8.5499 46.1569 9.6599 45.9169 11.4899Z" fill="#025450"/>
<path d="M38.247 17.43H40.437V21H36.927C33.987 21 32.517 19.53 32.517 16.59V9.15001H26.817V15.9C26.817 16.98 27.237 17.43 28.317 17.43H30.117V21H26.997C24.057 21 22.587 19.53 22.587 16.59V9.15001H20.037V5.58001H22.587V1.26001H26.817V5.58001H32.517V1.26001H36.747V5.58001H40.287V9.15001H36.747V15.9C36.747 16.98 37.197 17.43 38.247 17.43Z" fill="#025450"/>
<path d="M0.119995 21L7.8 0H13.2L20.82 21H15.99L14.37 16.41H6.39L4.77 21H0.119995ZM7.59 12.78H13.14L10.35 4.8L7.59 12.78Z" fill="#025450"/>
<path fill-rule="evenodd" clip-rule="evenodd" d="M0.5 82H159.5V84H0.5V82Z" fill="#A6DEEF"/>
<path d="M24.2363 103.208C24.2363 100.808 26.1083 99.0559 28.6283 99.0559C31.1723 99.0559 33.0203 100.808 33.0203 103.208C33.0203 105.608 31.1723 107.36 28.6283 107.36C26.1083 107.36 24.2363 105.608 24.2363 103.208ZM26.9483 116L38.4683 99.1999H41.8043L30.2843 116H26.9483ZM30.3083 103.208C30.3083 102.224 29.5883 101.504 28.6283 101.504C27.6923 101.504 26.9723 102.224 26.9723 103.208C26.9723 104.192 27.6923 104.912 28.6283 104.912C29.5883 104.912 30.3083 104.192 30.3083 103.208ZM35.7083 111.992C35.7083 109.592 37.5563 107.84 40.1003 107.84C42.6203 107.84 44.4923 109.592 44.4923 111.992C44.4923 114.392 42.6203 116.144 40.1003 116.144C37.5563 116.144 35.7083 114.392 35.7083 111.992ZM41.7563 111.992C41.7563 111.032 41.0363 110.288 40.1003 110.288C39.1403 110.288 38.4203 111.032 38.4203 111.992C38.4203 112.976 39.1403 113.696 40.1003 113.696C41.0363 113.696 41.7563 112.976 41.7563 111.992Z" fill="#025450"/>
<path d="M18.2809 99.2H21.6649V116H18.2089V105.272C17.9689 105.368 17.6569 105.392 17.2969 105.392H14.4889V102.536H17.0089C17.8729 102.536 18.2809 101.744 18.2809 100.832V99.2Z" fill="#025450"/>
<path d="M0.504028 109.544L7.92003 99.2H12.192V109.52H14.52V112.4H12.192V116H8.80803V112.4H0.504028V109.544ZM3.79203 109.52H8.80803V102.56L3.79203 109.52Z" fill="#025450"/>
<path d="M62.3626 132H61.3876V124.5H62.1076L62.3626 125.52H62.4376C62.7526 125.04 63.5476 124.35 64.4626 124.35C64.6426 124.35 64.8526 124.365 65.0026 124.41V125.385C64.8226 125.34 64.6576 125.325 64.4926 125.325C63.2626 125.325 62.3626 126.21 62.3626 127.71V132Z" fill="#025450"/>
<path d="M59.7209 128.025C59.7209 128.31 59.7059 128.55 59.6609 128.73H53.8409C54.0059 130.275 55.0109 131.235 56.3909 131.235C57.3359 131.235 58.0109 130.83 58.4759 130.05H59.4509C59.0009 131.235 57.8159 132.15 56.3609 132.15C54.3809 132.15 52.8359 130.575 52.8359 128.25C52.8359 125.97 54.4259 124.35 56.3609 124.35C58.2959 124.35 59.7209 125.955 59.7209 128.025ZM56.3609 125.265C55.1009 125.265 53.9909 126.3 53.8259 127.845H58.7309C58.6409 126.345 57.6659 125.265 56.3609 125.265Z" fill="#025450"/>
<path d="M49.0774 132.15C47.4874 132.15 46.4074 131.025 46.3174 129.825H47.2924C47.3824 130.65 48.0124 131.235 49.0774 131.235C50.1274 131.235 50.6674 130.695 50.6674 130.02C50.6674 128.19 46.5124 129.045 46.5124 126.45C46.5124 125.295 47.4724 124.35 48.9724 124.35C50.4424 124.35 51.4624 125.37 51.5374 126.6H50.5624C50.4724 125.76 49.9174 125.265 48.9724 125.265C47.9974 125.265 47.4874 125.775 47.4874 126.405C47.4874 128.175 51.6424 127.395 51.6424 130.02C51.6424 131.205 50.6974 132.15 49.0774 132.15Z" fill="#025450"/>
<path d="M44.1726 123.3C43.7976 123.3 43.4976 123.015 43.4976 122.625C43.4976 122.22 43.7976 121.95 44.1726 121.95C44.5626 121.95 44.8476 122.22 44.8476 122.625C44.8476 123.015 44.5626 123.3 44.1726 123.3ZM44.6526 132H43.6776V124.5H44.6526V132Z" fill="#025450"/>
<path d="M41.4229 132.15C40.2529 132.15 39.3529 131.28 39.3529 129.75V125.415H38.0179V124.5H38.6029C39.2029 124.5 39.5179 124.2 39.5179 123.6V122.505H40.3279V124.5H42.0829V125.415H40.3279V129.765C40.3279 130.785 40.8229 131.235 41.5729 131.235C41.7679 131.235 41.9179 131.205 42.0829 131.145V132.03C41.9179 132.09 41.7379 132.15 41.4229 132.15Z" fill="#025450"/>
<path d="M34.8821 132H33.9071V124.5H34.6271L34.8821 125.52H34.9571C35.2721 125.04 36.0671 124.35 36.9821 124.35C37.1621 124.35 37.3721 124.365 37.5221 124.41V125.385C37.3421 125.34 37.1771 125.325 37.0121 125.325C35.7821 125.325 34.8821 126.21 34.8821 127.71V132Z" fill="#025450"/>
<path d="M32.2405 128.025C32.2405 128.31 32.2255 128.55 32.1805 128.73H26.3605C26.5255 130.275 27.5305 131.235 28.9105 131.235C29.8555 131.235 30.5305 130.83 30.9955 130.05H31.9705C31.5205 131.235 30.3355 132.15 28.8805 132.15C26.9005 132.15 25.3555 130.575 25.3555 128.25C25.3555 125.97 26.9455 124.35 28.8805 124.35C30.8155 124.35 32.2405 125.955 32.2405 128.025ZM28.8805 125.265C27.6205 125.265 26.5105 126.3 26.3455 127.845H31.2505C31.1605 126.345 30.1855 125.265 28.8805 125.265Z" fill="#025450"/>
<path d="M21.3539 130.695L23.7989 124.5H24.8189L21.7889 132H20.9189L17.8589 124.5H18.9089L21.3539 130.695Z" fill="#025450"/>
<path d="M13.1463 132.15C11.2563 132.15 9.69629 130.56 9.69629 128.25C9.69629 125.94 11.2563 124.35 13.1463 124.35C14.3913 124.35 15.3213 125.19 15.5463 125.52H15.6213V121.5H16.5963V132H15.8763L15.6213 130.98H15.5463C15.3213 131.295 14.3913 132.15 13.1463 132.15ZM13.1463 131.235C14.4963 131.235 15.6213 130.035 15.6213 128.25C15.6213 126.465 14.4963 125.265 13.1463 125.265C11.7963 125.265 10.6713 126.465 10.6713 128.25C10.6713 130.035 11.7963 131.235 13.1463 131.235Z" fill="#025450"/>
<path d="M9.02995 132H7.90495L6.89995 129.33H2.15995L1.15495 132H0.0749512L4.06495 121.5H5.03995L9.02995 132ZM6.53995 128.355L4.52995 123L2.51995 128.355H6.53995Z" fill="#025450"/>
<path fill-rule="evenodd" clip-rule="evenodd" d="M0.5 175H159.5V177H0.5V175Z" fill="#FF6C54"/>
<path d="M28.7128 196.208C28.7128 193.808 30.5848 192.056 33.1048 192.056C35.6488 192.056 37.4968 193.808 37.4968 196.208C37.4968 198.608 35.6488 200.36 33.1048 200.36C30.5848 200.36 28.7128 198.608 28.7128 196.208ZM31.4248 209L42.9448 192.2H46.2808L34.7608 209H31.4248ZM34.7848 196.208C34.7848 195.224 34.0648 194.504 33.1048 194.504C32.1688 194.504 31.4488 195.224 31.4488 196.208C31.4488 197.192 32.1688 197.912 33.1048 197.912C34.0648 197.912 34.7848 197.192 34.7848 196.208ZM40.1848 204.992C40.1848 202.592 42.0328 200.84 44.5768 200.84C47.0968 200.84 48.9688 202.592 48.9688 204.992C48.9688 207.392 47.0968 209.144 44.5768 209.144C42.0328 209.144 40.1848 207.392 40.1848 204.992ZM46.2328 204.992C46.2328 204.032 45.5128 203.288 44.5768 203.288C43.6168 203.288 42.8968 204.032 42.8968 204.992C42.8968 205.976 43.6168 206.696 44.5768 206.696C45.5128 206.696 46.2328 205.976 46.2328 204.992Z" fill="#025450"/>
<path d="M14.5487 206.336L20.9087 201.056C22.3727 199.856 23.2847 198.848 23.2847 197.48C23.2847 195.824 22.2047 194.936 20.5967 194.936C19.0607 194.936 17.9567 196.064 17.9567 197.864V198.128H14.4767V197.672C14.4767 194.48 16.8767 192.032 20.5967 192.032C24.6287 192.032 26.7887 194.192 26.7887 197.336C26.7887 199.808 25.4207 201.32 23.3087 203.024L19.5407 206.096H26.8607V209H14.5487V206.336Z" fill="#025450"/>
<path d="M0.743997 206.336L7.104 201.056C8.568 199.856 9.48 198.848 9.48 197.48C9.48 195.824 8.4 194.936 6.792 194.936C5.256 194.936 4.152 196.064 4.152 197.864V198.128H0.671997V197.672C0.671997 194.48 3.072 192.032 6.792 192.032C10.824 192.032 12.984 194.192 12.984 197.336C12.984 199.808 11.616 201.32 9.504 203.024L5.736 206.096H13.056V209H0.743997V206.336Z" fill="#025450"/>
<path d="M56.8255 225H55.8505V217.5H56.5705L56.8255 218.52H56.9005C57.2155 218.04 58.0105 217.35 58.9255 217.35C59.1055 217.35 59.3155 217.365 59.4655 217.41V218.385C59.2855 218.34 59.1205 218.325 58.9555 218.325C57.7255 218.325 56.8255 219.21 56.8255 220.71V225Z" fill="#025450"/>
<path d="M54.1838 221.025C54.1838 221.31 54.1688 221.55 54.1238 221.73H48.3038C48.4688 223.275 49.4738 224.235 50.8538 224.235C51.7988 224.235 52.4738 223.83 52.9388 223.05H53.9138C53.4638 224.235 52.2788 225.15 50.8238 225.15C48.8438 225.15 47.2988 223.575 47.2988 221.25C47.2988 218.97 48.8888 217.35 50.8238 217.35C52.7588 217.35 54.1838 218.955 54.1838 221.025ZM50.8238 218.265C49.5638 218.265 48.4538 219.3 48.2888 220.845H53.1938C53.1038 219.345 52.1288 218.265 50.8238 218.265Z" fill="#025450"/>
<path d="M40.4502 225H39.4752V214.5H40.4502V218.52H40.5252C40.8552 218.01 41.6202 217.35 42.7302 217.35C44.4252 217.35 45.7152 218.64 45.7152 220.65V225H44.7402V220.65C44.7402 219.15 43.8552 218.265 42.6402 218.265C41.3502 218.265 40.4502 219.15 40.4502 220.65V225Z" fill="#025450"/>
<path d="M35.1467 225.15C33.5567 225.15 32.4767 224.025 32.3867 222.825H33.3617C33.4517 223.65 34.0817 224.235 35.1467 224.235C36.1967 224.235 36.7367 223.695 36.7367 223.02C36.7367 221.19 32.5817 222.045 32.5817 219.45C32.5817 218.295 33.5417 217.35 35.0417 217.35C36.5117 217.35 37.5317 218.37 37.6067 219.6H36.6317C36.5417 218.76 35.9867 218.265 35.0417 218.265C34.0667 218.265 33.5567 218.775 33.5567 219.405C33.5567 221.175 37.7117 220.395 37.7117 223.02C37.7117 224.205 36.7667 225.15 35.1467 225.15Z" fill="#025450"/>
<path d="M30.2419 216.3C29.8669 216.3 29.5669 216.015 29.5669 215.625C29.5669 215.22 29.8669 214.95 30.2419 214.95C30.6319 214.95 30.9169 215.22 30.9169 215.625C30.9169 216.015 30.6319 216.3 30.2419 216.3ZM30.7219 225H29.7469V217.5H30.7219V225Z" fill="#025450"/>
<path d="M27.5156 225H26.5406V214.5H27.5156V225Z" fill="#025450"/>
<path d="M21.3481 225.15C20.1031 225.15 19.1731 224.295 18.9481 223.98H18.8731L18.6181 225H17.8981V214.5H18.8731V218.52H18.9481C19.1731 218.19 20.1031 217.35 21.3481 217.35C23.2381 217.35 24.7981 218.94 24.7981 221.25C24.7981 223.56 23.2381 225.15 21.3481 225.15ZM21.3481 224.235C22.6981 224.235 23.8231 223.035 23.8231 221.25C23.8231 219.465 22.6981 218.265 21.3481 218.265C19.9981 218.265 18.8731 219.465 18.8731 221.25C18.8731 223.035 19.9981 224.235 21.3481 224.235Z" fill="#025450"/>
<path d="M12.4129 225.15C10.7179 225.15 9.42786 223.86 9.42786 221.85V217.5H10.4029V221.85C10.4029 223.35 11.2879 224.235 12.5029 224.235C13.7929 224.235 14.6929 223.35 14.6929 221.85V217.5H15.6679V225H14.9479L14.6929 223.98H14.6179C14.2879 224.49 13.5229 225.15 12.4129 225.15Z" fill="#025450"/>
<path d="M1.33496 214.5H4.66496C6.55496 214.5 8.03996 215.94 8.03996 217.74C8.03996 219.555 6.55496 220.995 4.66496 220.995H2.38496V225H1.33496V214.5ZM2.38496 220.02H4.66496C5.99996 220.02 6.98996 219.06 6.98996 217.74C6.98996 216.435 5.99996 215.475 4.66496 215.475H2.38496V220.02Z" fill="#025450"/>
<path fill-rule="evenodd" clip-rule="evenodd" d="M190.5 82H349.5V84H190.5V82Z" fill="#42BFB6"/>
<path d="M219.463 103.208C219.463 100.808 221.335 99.0559 223.855 99.0559C226.399 99.0559 228.247 100.808 228.247 103.208C228.247 105.608 226.399 107.36 223.855 107.36C221.335 107.36 219.463 105.608 219.463 103.208ZM222.175 116L233.695 99.1999H237.031L225.511 116H222.175ZM225.535 103.208C225.535 102.224 224.815 101.504 223.855 101.504C222.919 101.504 222.199 102.224 222.199 103.208C222.199 104.192 222.919 104.912 223.855 104.912C224.815 104.912 225.535 104.192 225.535 103.208ZM230.935 111.992C230.935 109.592 232.783 107.84 235.327 107.84C237.847 107.84 239.719 109.592 239.719 111.992C239.719 114.392 237.847 116.144 235.327 116.144C232.783 116.144 230.935 114.392 230.935 111.992ZM236.983 111.992C236.983 111.032 236.263 110.288 235.327 110.288C234.367 110.288 233.647 111.032 233.647 111.992C233.647 112.976 234.367 113.696 235.327 113.696C236.263 113.696 236.983 112.976 236.983 111.992Z" fill="#025450"/>
<path d="M214.029 107.24C215.853 107.624 217.533 108.92 217.533 111.44C217.533 114.2 215.229 116.144 211.077 116.144C206.901 116.144 204.621 114.2 204.621 111.44C204.621 108.944 206.277 107.648 208.125 107.24C206.541 106.808 205.101 105.584 205.101 103.472C205.101 100.832 207.309 99.032 211.077 99.032C214.845 99.032 217.053 100.832 217.053 103.472C217.053 105.44 215.613 106.808 214.029 107.24ZM211.077 101.48C209.541 101.48 208.485 102.368 208.485 103.64C208.485 104.936 209.541 105.848 211.077 105.848C212.589 105.848 213.669 104.936 213.669 103.64C213.669 102.368 212.589 101.48 211.077 101.48ZM211.077 113.72C212.781 113.72 214.077 112.664 214.077 111.224C214.077 109.76 212.781 108.656 211.077 108.656C209.349 108.656 208.053 109.76 208.053 111.224C208.053 112.664 209.373 113.72 211.077 113.72Z" fill="#025450"/>
<path d="M190.744 113.336L197.104 108.056C198.568 106.856 199.48 105.848 199.48 104.48C199.48 102.824 198.4 101.936 196.792 101.936C195.256 101.936 194.152 103.064 194.152 104.864V105.128H190.672V104.672C190.672 101.48 193.072 99.032 196.792 99.032C200.824 99.032 202.984 101.192 202.984 104.336C202.984 106.808 201.616 108.32 199.504 110.024L195.736 113.096H203.056V116H190.744V113.336Z" fill="#025450"/>
<path d="M335.024 132H334.049V124.5H334.769L335.024 125.52H335.099C335.414 125.04 336.209 124.35 337.124 124.35C337.304 124.35 337.514 124.365 337.664 124.41V125.385C337.484 125.34 337.319 125.325 337.154 125.325C335.924 125.325 335.024 126.21 335.024 127.71V132Z" fill="#025450"/>
<path d="M332.382 128.025C332.382 128.31 332.367 128.55 332.322 128.73H326.502C326.667 130.275 327.672 131.235 329.052 131.235C329.997 131.235 330.672 130.83 331.137 130.05H332.112C331.662 131.235 330.477 132.15 329.022 132.15C327.042 132.15 325.497 130.575 325.497 128.25C325.497 125.97 327.087 124.35 329.022 124.35C330.957 124.35 332.382 125.955 332.382 128.025ZM329.022 125.265C327.762 125.265 326.652 126.3 326.487 127.845H331.392C331.302 126.345 330.327 125.265 329.022 125.265Z" fill="#025450"/>
<path d="M318.649 132H317.674V121.5H318.649V125.52H318.724C319.054 125.01 319.819 124.35 320.929 124.35C322.624 124.35 323.914 125.64 323.914 127.65V132H322.939V127.65C322.939 126.15 322.054 125.265 320.839 125.265C319.549 125.265 318.649 126.15 318.649 127.65V132Z" fill="#025450"/>
<path d="M313.345 132.15C311.755 132.15 310.675 131.025 310.585 129.825H311.56C311.65 130.65 312.28 131.235 313.345 131.235C314.395 131.235 314.935 130.695 314.935 130.02C314.935 128.19 310.78 129.045 310.78 126.45C310.78 125.295 311.74 124.35 313.24 124.35C314.71 124.35 315.73 125.37 315.805 126.6H314.83C314.74 125.76 314.185 125.265 313.24 125.265C312.265 125.265 311.755 125.775 311.755 126.405C311.755 128.175 315.91 127.395 315.91 130.02C315.91 131.205 314.965 132.15 313.345 132.15Z" fill="#025450"/>
<path d="M308.44 123.3C308.065 123.3 307.765 123.015 307.765 122.625C307.765 122.22 308.065 121.95 308.44 121.95C308.83 121.95 309.115 122.22 309.115 122.625C309.115 123.015 308.83 123.3 308.44 123.3ZM308.92 132H307.945V124.5H308.92V132Z" fill="#025450"/>
<path d="M305.714 132H304.739V121.5H305.714V132Z" fill="#025450"/>
<path d="M299.546 132.15C298.301 132.15 297.371 131.295 297.146 130.98H297.071L296.816 132H296.096V121.5H297.071V125.52H297.146C297.371 125.19 298.301 124.35 299.546 124.35C301.436 124.35 302.996 125.94 302.996 128.25C302.996 130.56 301.436 132.15 299.546 132.15ZM299.546 131.235C300.896 131.235 302.021 130.035 302.021 128.25C302.021 126.465 300.896 125.265 299.546 125.265C298.196 125.265 297.071 126.465 297.071 128.25C297.071 130.035 298.196 131.235 299.546 131.235Z" fill="#025450"/>
<path d="M290.611 132.15C288.916 132.15 287.626 130.86 287.626 128.85V124.5H288.601V128.85C288.601 130.35 289.486 131.235 290.701 131.235C291.991 131.235 292.891 130.35 292.891 128.85V124.5H293.866V132H293.146L292.891 130.98H292.816C292.486 131.49 291.721 132.15 290.611 132.15Z" fill="#025450"/>
<path d="M279.533 121.5H282.863C284.753 121.5 286.238 122.94 286.238 124.74C286.238 126.555 284.753 127.995 282.863 127.995H280.583V132H279.533V121.5ZM280.583 127.02H282.863C284.198 127.02 285.188 126.06 285.188 124.74C285.188 123.435 284.198 122.475 282.863 122.475H280.583V127.02Z" fill="#025450"/>
<path d="M272.314 132H271.339V124.5H272.059L272.314 125.52H272.389C272.704 125.04 273.499 124.35 274.414 124.35C274.594 124.35 274.804 124.365 274.954 124.41V125.385C274.774 125.34 274.609 125.325 274.444 125.325C273.214 125.325 272.314 126.21 272.314 127.71V132Z" fill="#025450"/>
<path d="M269.672 128.025C269.672 128.31 269.657 128.55 269.612 128.73H263.792C263.957 130.275 264.962 131.235 266.342 131.235C267.287 131.235 267.962 130.83 268.427 130.05H269.402C268.952 131.235 267.767 132.15 266.312 132.15C264.332 132.15 262.787 130.575 262.787 128.25C262.787 125.97 264.377 124.35 266.312 124.35C268.247 124.35 269.672 125.955 269.672 128.025ZM266.312 125.265C265.052 125.265 263.942 126.3 263.777 127.845H268.682C268.592 126.345 267.617 125.265 266.312 125.265Z" fill="#025450"/>
<path d="M258.722 124.35C260.072 124.35 261.197 125.52 261.197 127.41V132H260.222V127.41C260.222 126.03 259.532 125.265 258.542 125.265C257.582 125.265 256.787 126.105 256.787 127.41V132H255.812V127.41C255.812 126.03 255.107 125.265 254.132 125.265C253.157 125.265 252.377 126.105 252.377 127.41V132H251.402V124.5H252.122L252.377 125.52H252.452C252.707 125.085 253.307 124.35 254.297 124.35C255.572 124.35 256.247 125.31 256.472 125.835C256.727 125.31 257.402 124.35 258.722 124.35Z" fill="#025450"/>
<path d="M247.558 132H246.583V124.5H247.303L247.558 125.52H247.633C247.948 125.04 248.743 124.35 249.658 124.35C249.838 124.35 250.048 124.365 250.198 124.41V125.385C250.018 125.34 249.853 125.325 249.688 125.325C248.458 125.325 247.558 126.21 247.558 127.71V132Z" fill="#025450"/>
<path d="M241.395 132.15C239.46 132.15 237.87 130.53 237.87 128.25C237.87 125.97 239.46 124.35 241.395 124.35C243.33 124.35 244.92 125.97 244.92 128.25C244.92 130.53 243.33 132.15 241.395 132.15ZM241.395 131.235C242.76 131.235 243.945 130.035 243.945 128.25C243.945 126.465 242.76 125.265 241.395 125.265C240.03 125.265 238.845 126.465 238.845 128.25C238.845 130.035 240.03 131.235 241.395 131.235Z" fill="#025450"/>
<path d="M236.742 122.265C235.992 122.265 235.497 122.715 235.497 123.735V124.5H237.252V125.415H235.497V132H234.522V125.415H233.442V124.5H234.522V123.75C234.522 122.22 235.422 121.35 236.592 121.35C236.907 121.35 237.087 121.41 237.252 121.47V122.355C237.087 122.295 236.937 122.265 236.742 122.265Z" fill="#025450"/>
<path d="M230.258 132H229.283V124.5H230.003L230.258 125.52H230.333C230.648 125.04 231.443 124.35 232.358 124.35C232.538 124.35 232.748 124.365 232.898 124.41V125.385C232.718 125.34 232.553 125.325 232.388 125.325C231.158 125.325 230.258 126.21 230.258 127.71V132Z" fill="#025450"/>
<path d="M227.616 128.025C227.616 128.31 227.601 128.55 227.556 128.73H221.736C221.901 130.275 222.906 131.235 224.286 131.235C225.231 131.235 225.906 130.83 226.371 130.05H227.346C226.896 131.235 225.711 132.15 224.256 132.15C222.276 132.15 220.731 130.575 220.731 128.25C220.731 125.97 222.321 124.35 224.256 124.35C226.191 124.35 227.616 125.955 227.616 128.025ZM224.256 125.265C222.996 125.265 221.886 126.3 221.721 127.845H226.626C226.536 126.345 225.561 125.265 224.256 125.265Z" fill="#025450"/>
<path d="M213.059 121.5H216.389C218.279 121.5 219.764 122.94 219.764 124.74C219.764 126.555 218.279 127.995 216.389 127.995H214.109V132H213.059V121.5ZM214.109 127.02H216.389C217.724 127.02 218.714 126.06 218.714 124.74C218.714 123.435 217.724 122.475 216.389 122.475H214.109V127.02Z" fill="#025450"/>
<path d="M203.718 132.15C201.798 132.15 200.523 130.755 200.523 129.165H201.573C201.573 130.185 202.443 131.175 203.718 131.175C205.008 131.175 205.833 130.29 205.833 128.985V121.5H206.883V128.985C206.883 130.86 205.638 132.15 203.718 132.15Z" fill="#025450"/>
<path d="M195.52 132.15C192.94 132.15 190.66 129.87 190.66 126.75C190.66 123.63 192.94 121.35 195.52 121.35C197.665 121.35 199.405 122.94 199.9 125.01H198.85C198.37 123.525 197.23 122.325 195.52 122.325C193.51 122.325 191.71 124.11 191.71 126.75C191.71 129.39 193.51 131.175 195.52 131.175C197.29 131.175 198.445 129.975 198.925 128.49H199.975C199.465 130.56 197.74 132.15 195.52 132.15Z" fill="#025450"/>
<path fill-rule="evenodd" clip-rule="evenodd" d="M190.5 175H349.5V177H190.5V175Z" fill="#A38FEF"/>
<path d="M205.893 196.208C205.893 193.808 207.765 192.056 210.285 192.056C212.829 192.056 214.677 193.808 214.677 196.208C214.677 198.608 212.829 200.36 210.285 200.36C207.765 200.36 205.893 198.608 205.893 196.208ZM208.605 209L220.125 192.2H223.461L211.941 209H208.605ZM211.965 196.208C211.965 195.224 211.245 194.504 210.285 194.504C209.349 194.504 208.629 195.224 208.629 196.208C208.629 197.192 209.349 197.912 210.285 197.912C211.245 197.912 211.965 197.192 211.965 196.208ZM217.365 204.992C217.365 202.592 219.213 200.84 221.757 200.84C224.277 200.84 226.149 202.592 226.149 204.992C226.149 207.392 224.277 209.144 221.757 209.144C219.213 209.144 217.365 207.392 217.365 204.992ZM223.413 204.992C223.413 204.032 222.693 203.288 221.757 203.288C220.797 203.288 220.077 204.032 220.077 204.992C220.077 205.976 220.797 206.696 221.757 206.696C222.693 206.696 223.413 205.976 223.413 204.992Z" fill="#025450"/>
<path d="M192.376 206.504C191.392 205.088 190.84 203.096 190.84 200.768C190.84 195.152 193.528 192.032 197.752 192.032C200.896 192.032 203.368 193.856 203.752 196.928H200.344C200.032 195.584 199 194.816 197.488 194.816C195.328 194.816 194.104 196.568 194.104 199.664V200.072C194.176 199.952 194.224 199.856 194.32 199.712C195.112 198.512 196.552 197.744 198.28 197.744C201.664 197.744 203.968 200.048 203.968 203.432C203.968 206.864 201.448 209.144 197.704 209.144C195.352 209.144 193.552 208.184 192.376 206.504ZM200.536 203.432C200.536 201.704 199.432 200.432 197.728 200.432C196.024 200.432 194.848 201.68 194.848 203.432C194.848 205.184 195.976 206.432 197.68 206.432C199.384 206.432 200.536 205.16 200.536 203.432Z" fill="#025450"/>
<path d="M235.216 223.59L237.601 217.5H238.621L235.306 225.75C234.631 227.415 234.016 227.775 233.281 227.775C233.041 227.775 232.861 227.715 232.696 227.655V226.77C232.861 226.83 233.011 226.86 233.161 226.86C233.611 226.86 233.986 226.62 234.301 225.855L234.706 224.835L231.721 217.5H232.771L235.216 223.59Z" fill="#025450"/>
<path d="M227.977 225.15C226.042 225.15 224.452 223.53 224.452 221.25C224.452 218.97 226.042 217.35 227.977 217.35C229.702 217.35 230.962 218.67 231.247 220.155H230.272C229.942 219.045 229.192 218.265 227.977 218.265C226.612 218.265 225.427 219.465 225.427 221.25C225.427 223.035 226.612 224.235 227.977 224.235C229.192 224.235 229.942 223.47 230.272 222.345H231.247C230.962 223.815 229.702 225.15 227.977 225.15Z" fill="#025450"/>
<path d="M217.602 225H216.627V217.5H217.347L217.602 218.52H217.677C218.007 218.01 218.772 217.35 219.882 217.35C221.577 217.35 222.867 218.64 222.867 220.65V225H221.892V220.65C221.892 219.15 221.007 218.265 219.792 218.265C218.502 218.265 217.602 219.15 217.602 220.65V225Z" fill="#025450"/>
<path d="M214.96 221.025C214.96 221.31 214.945 221.55 214.9 221.73H209.08C209.245 223.275 210.25 224.235 211.63 224.235C212.575 224.235 213.25 223.83 213.715 223.05H214.69C214.24 224.235 213.055 225.15 211.6 225.15C209.62 225.15 208.075 223.575 208.075 221.25C208.075 218.97 209.665 217.35 211.6 217.35C213.535 217.35 214.96 218.955 214.96 221.025ZM211.6 218.265C210.34 218.265 209.23 219.3 209.065 220.845H213.97C213.88 219.345 212.905 218.265 211.6 218.265Z" fill="#025450"/>
<path d="M203.206 227.85C201.586 227.85 200.356 226.965 200.026 225.585H201.001C201.286 226.425 202.081 226.935 203.206 226.935C204.541 226.935 205.441 226.08 205.441 224.745V223.56H205.366C205.141 223.905 204.256 224.745 203.056 224.745C201.211 224.745 199.696 223.185 199.696 221.055C199.696 218.895 201.211 217.35 203.056 217.35C204.256 217.35 205.141 218.175 205.366 218.52H205.441L205.696 217.5H206.416V224.745C206.416 226.605 205.126 227.85 203.206 227.85ZM203.056 223.83C204.331 223.83 205.441 222.66 205.441 221.055C205.441 219.435 204.331 218.265 203.056 218.265C201.766 218.265 200.671 219.435 200.671 221.055C200.671 222.66 201.766 223.83 203.056 223.83Z" fill="#025450"/>
<path d="M199.03 225H197.905L196.9 222.33H192.16L191.155 225H190.075L194.065 214.5H195.04L199.03 225ZM196.54 221.355L194.53 216L192.52 221.355H196.54Z" fill="#025450"/>
<path fill-rule="evenodd" clip-rule="evenodd" d="M0.5 268H159.5V270H0.5V268Z" fill="#FDBD68"/>
<path d="M16.1035 289.208C16.1035 286.808 17.9755 285.056 20.4955 285.056C23.0395 285.056 24.8875 286.808 24.8875 289.208C24.8875 291.608 23.0395 293.36 20.4955 293.36C17.9755 293.36 16.1035 291.608 16.1035 289.208ZM18.8155 302L30.3355 285.2H33.6715L22.1515 302H18.8155ZM22.1755 289.208C22.1755 288.224 21.4555 287.504 20.4955 287.504C19.5595 287.504 18.8395 288.224 18.8395 289.208C18.8395 290.192 19.5595 290.912 20.4955 290.912C21.4555 290.912 22.1755 290.192 22.1755 289.208ZM27.5755 297.992C27.5755 295.592 29.4235 293.84 31.9675 293.84C34.4875 293.84 36.3595 295.592 36.3595 297.992C36.3595 300.392 34.4875 302.144 31.9675 302.144C29.4235 302.144 27.5755 300.392 27.5755 297.992ZM33.6235 297.992C33.6235 297.032 32.9035 296.288 31.9675 296.288C31.0075 296.288 30.2875 297.032 30.2875 297.992C30.2875 298.976 31.0075 299.696 31.9675 299.696C32.9035 299.696 33.6235 298.976 33.6235 297.992Z" fill="#025450"/>
<path d="M0.504028 295.544L7.92003 285.2H12.192V295.52H14.52V298.4H12.192V302H8.80803V298.4H0.504028V295.544ZM3.79203 295.52H8.80803V288.56L3.79203 295.52Z" fill="#025450"/>
<path d="M104.726 318H103.751V310.5H104.471L104.726 311.52H104.801C105.116 311.04 105.911 310.35 106.826 310.35C107.006 310.35 107.216 310.365 107.366 310.41V311.385C107.186 311.34 107.021 311.325 106.856 311.325C105.626 311.325 104.726 312.21 104.726 313.71V318Z" fill="#025450"/>
<path d="M102.084 314.025C102.084 314.31 102.069 314.55 102.024 314.73H96.2043C96.3693 316.275 97.3743 317.235 98.7543 317.235C99.6993 317.235 100.374 316.83 100.839 316.05H101.814C101.364 317.235 100.179 318.15 98.7243 318.15C96.7443 318.15 95.1993 316.575 95.1993 314.25C95.1993 311.97 96.7893 310.35 98.7243 310.35C100.659 310.35 102.084 311.955 102.084 314.025ZM98.7243 311.265C97.4643 311.265 96.3543 312.3 96.1893 313.845H101.094C101.004 312.345 100.029 311.265 98.7243 311.265Z" fill="#025450"/>
<path d="M88.349 318H87.374V310.5H88.094L88.349 311.52H88.424C88.754 311.01 89.519 310.35 90.629 310.35C92.324 310.35 93.614 311.64 93.614 313.65V318H92.639V313.65C92.639 312.15 91.754 311.265 90.539 311.265C89.249 311.265 88.349 312.15 88.349 313.65V318Z" fill="#025450"/>
<path d="M85.1193 318.15C83.9493 318.15 83.0493 317.28 83.0493 315.75V311.415H81.7143V310.5H82.2993C82.8993 310.5 83.2143 310.2 83.2143 309.6V308.505H84.0243V310.5H85.7793V311.415H84.0243V315.765C84.0243 316.785 84.5193 317.235 85.2693 317.235C85.4643 317.235 85.6143 317.205 85.7793 317.145V318.03C85.6143 318.09 85.4343 318.15 85.1193 318.15Z" fill="#025450"/>
<path d="M78.5785 318H77.6035V310.5H78.3235L78.5785 311.52H78.6535C78.9685 311.04 79.7635 310.35 80.6785 310.35C80.8585 310.35 81.0685 310.365 81.2185 310.41V311.385C81.0385 311.34 80.8735 311.325 80.7085 311.325C79.4785 311.325 78.5785 312.21 78.5785 313.71V318Z" fill="#025450"/>
<path d="M72.7424 310.35C74.3474 310.35 75.5174 311.49 75.5174 313.125V318H74.7974L74.5424 316.98H74.4674C74.1674 317.445 73.4174 318.15 72.1574 318.15C70.6124 318.15 69.6674 317.115 69.6674 315.9C69.6674 314.52 71.0024 313.56 72.9374 313.56H74.5424V313.125C74.5424 312 73.8074 311.265 72.7424 311.265C71.6774 311.265 71.1224 311.88 70.9724 312.675H69.9974C70.1474 311.43 71.2274 310.35 72.7424 310.35ZM72.2624 317.235C73.6724 317.235 74.5424 316.305 74.5424 315.09V314.445H73.0874C71.5574 314.445 70.6424 314.97 70.6424 315.9C70.6424 316.68 71.1974 317.235 72.2624 317.235Z" fill="#025450"/>
<path d="M61.9796 307.5H65.3096C67.1996 307.5 68.6846 308.94 68.6846 310.74C68.6846 312.555 67.1996 313.995 65.3096 313.995H63.0296V318H61.9796V307.5ZM63.0296 313.02H65.3096C66.6446 313.02 67.6346 312.06 67.6346 310.74C67.6346 309.435 66.6446 308.475 65.3096 308.475H63.0296V313.02Z" fill="#025450"/>
<path d="M53.2849 318.15C51.3499 318.15 49.7599 316.53 49.7599 314.25C49.7599 311.97 51.3499 310.35 53.2849 310.35C55.0099 310.35 56.2699 311.67 56.5549 313.155H55.5799C55.2499 312.045 54.4999 311.265 53.2849 311.265C51.9199 311.265 50.7349 312.465 50.7349 314.25C50.7349 316.035 51.9199 317.235 53.2849 317.235C54.4999 317.235 55.2499 316.47 55.5799 315.345H56.5549C56.2699 316.815 55.0099 318.15 53.2849 318.15Z" fill="#025450"/>
<path d="M47.6151 309.3C47.2401 309.3 46.9401 309.015 46.9401 308.625C46.9401 308.22 47.2401 307.95 47.6151 307.95C48.0051 307.95 48.2901 308.22 48.2901 308.625C48.2901 309.015 48.0051 309.3 47.6151 309.3ZM48.0951 318H47.1201V310.5H48.0951V318Z" fill="#025450"/>
<path d="M41.7562 320.85C40.1362 320.85 38.9062 319.965 38.5762 318.585H39.5512C39.8362 319.425 40.6312 319.935 41.7562 319.935C43.0912 319.935 43.9912 319.08 43.9912 317.745V316.56H43.9162C43.6912 316.905 42.8062 317.745 41.6062 317.745C39.7612 317.745 38.2462 316.185 38.2462 314.055C38.2462 311.895 39.7612 310.35 41.6062 310.35C42.8062 310.35 43.6912 311.175 43.9162 311.52H43.9912L44.2462 310.5H44.9662V317.745C44.9662 319.605 43.6762 320.85 41.7562 320.85ZM41.6062 316.83C42.8812 316.83 43.9912 315.66 43.9912 314.055C43.9912 312.435 42.8812 311.265 41.6062 311.265C40.3162 311.265 39.2212 312.435 39.2212 314.055C39.2212 315.66 40.3162 316.83 41.6062 316.83Z" fill="#025450"/>
<path d="M37.0746 314.025C37.0746 314.31 37.0596 314.55 37.0146 314.73H31.1946C31.3596 316.275 32.3646 317.235 33.7446 317.235C34.6896 317.235 35.3646 316.83 35.8296 316.05H36.8046C36.3546 317.235 35.1696 318.15 33.7146 318.15C31.7346 318.15 30.1896 316.575 30.1896 314.25C30.1896 311.97 31.7796 310.35 33.7146 310.35C35.6496 310.35 37.0746 311.955 37.0746 314.025ZM33.7146 311.265C32.4546 311.265 31.3446 312.3 31.1796 313.845H36.0846C35.9946 312.345 35.0196 311.265 33.7146 311.265Z" fill="#025450"/>
<path d="M28.5763 318.15C27.4063 318.15 26.5063 317.28 26.5063 315.75V311.415H25.1713V310.5H25.7563C26.3563 310.5 26.6713 310.2 26.6713 309.6V308.505H27.4813V310.5H29.2363V311.415H27.4813V315.765C27.4813 316.785 27.9763 317.235 28.7263 317.235C28.9213 317.235 29.0713 317.205 29.2363 317.145V318.03C29.0713 318.09 28.8913 318.15 28.5763 318.15Z" fill="#025450"/>
<path d="M21.3117 310.35C22.9167 310.35 24.0867 311.49 24.0867 313.125V318H23.3667L23.1117 316.98H23.0367C22.7367 317.445 21.9867 318.15 20.7267 318.15C19.1817 318.15 18.2367 317.115 18.2367 315.9C18.2367 314.52 19.5717 313.56 21.5067 313.56H23.1117V313.125C23.1117 312 22.3767 311.265 21.3117 311.265C20.2467 311.265 19.6917 311.88 19.5417 312.675H18.5667C18.7167 311.43 19.7967 310.35 21.3117 310.35ZM20.8317 317.235C22.2417 317.235 23.1117 316.305 23.1117 315.09V314.445H21.6567C20.1267 314.445 19.2117 314.97 19.2117 315.9C19.2117 316.68 19.7667 317.235 20.8317 317.235Z" fill="#025450"/>
<path d="M15.0189 318H14.0439V310.5H14.7639L15.0189 311.52H15.0939C15.4089 311.04 16.2039 310.35 17.1189 310.35C17.2989 310.35 17.5089 310.365 17.6589 310.41V311.385C17.4789 311.34 17.3139 311.325 17.1489 311.325C15.9189 311.325 15.0189 312.21 15.0189 313.71V318Z" fill="#025450"/>
<path d="M11.7892 318.15C10.6192 318.15 9.71916 317.28 9.71916 315.75V311.415H8.38416V310.5H8.96916C9.56916 310.5 9.88416 310.2 9.88416 309.6V308.505H10.6942V310.5H12.4492V311.415H10.6942V315.765C10.6942 316.785 11.1892 317.235 11.9392 317.235C12.1342 317.235 12.2842 317.205 12.4492 317.145V318.03C12.2842 318.09 12.1042 318.15 11.7892 318.15Z" fill="#025450"/>
<path d="M4.18503 318.15C2.05503 318.15 0.765034 316.83 0.660034 314.94H1.71003C1.81503 316.35 2.71503 317.175 4.20003 317.175C5.73003 317.175 6.52503 316.38 6.52503 315.3C6.52503 312.405 0.915034 313.755 0.915034 310.125C0.915034 308.535 2.10003 307.35 4.09503 307.35C6.12003 307.35 7.32003 308.715 7.41003 310.485H6.36003C6.28504 309.18 5.41503 308.325 4.09503 308.325C2.73003 308.325 1.96503 309.09 1.96503 310.125C1.96503 312.915 7.57503 311.46 7.57503 315.3C7.57503 316.965 6.39003 318.15 4.18503 318.15Z" fill="#025450"/>
</g>
</svg>
