<svg width="350" height="350" viewBox="0 0 350 350" fill="none" xmlns="http://www.w3.org/2000/svg">
<path d="M349.764 167.328C349.713 162.507 349.14 157.728 348.576 152.948C347.675 145.272 346.18 137.719 344.193 130.268C341.673 120.77 338.385 111.538 334.299 102.593C330.191 93.6069 325.357 85.0302 319.795 76.8629C316.456 71.9605 312.841 67.2832 309.062 62.7083C306.501 59.6072 303.623 56.8131 301.073 53.7222C299.587 52.2381 298.113 50.7643 296.627 49.2803C292.684 45.8517 288.925 42.2183 284.808 39.0046C282.524 37.2136 280.24 35.4327 277.894 33.7235C269.608 27.685 260.841 22.4448 251.623 17.9518C247.024 15.7104 242.333 13.6839 237.56 11.8621C229.09 8.62793 220.414 6.05902 211.534 4.227C209.025 3.71526 206.495 3.24446 203.996 2.74296C201.036 2.14935 197.994 2.24146 195.065 1.44315C193.877 1.11564 192.555 1.25892 191.296 1.18728C189.093 1.0747 186.912 0.747187 184.689 0.849535C183.685 0.900708 182.661 0.696014 181.647 0.614136C179.517 0.62437 177.397 0.634605 175.266 0.655075C175.266 0.808596 175.246 0.962117 175.236 1.12587C175.236 1.61714 175.256 2.10841 175.256 2.59967C175.256 25.3617 175.256 48.1238 175.256 70.8858C232.695 71.0189 279.205 117.587 279.205 175.014C279.205 209.505 262.418 240.086 236.556 259.031C236.689 259.225 236.833 259.42 236.966 259.614C247.761 275.048 259.12 290.083 270.1 305.384C272.456 308.669 274.852 311.934 277.228 315.209C277.28 315.281 277.331 315.363 277.382 315.435C277.536 315.66 277.7 315.885 277.966 315.998C279.973 315.117 281.53 313.582 283.23 312.272C287.42 309.028 291.506 305.66 295.327 301.976C295.88 301.444 296.515 300.983 297.109 300.492C297.365 300.175 297.641 299.868 297.928 299.571C298.215 299.284 298.522 299.008 298.87 298.783C299.925 297.544 301.073 296.398 302.302 295.344C302.496 295.047 302.722 294.781 302.967 294.535C303.213 294.29 303.49 294.064 303.766 293.85C306.87 290.165 310.188 286.685 313.199 282.919C318.659 276.062 323.595 268.867 327.948 261.262C333.674 251.253 338.262 240.752 341.745 229.77C344.449 221.244 346.507 212.555 347.818 203.702C348.648 198.093 349.406 192.485 349.549 186.815C349.57 185.924 349.57 184.952 350 184.092V168.372C349.703 168.075 349.775 167.686 349.775 167.328H349.764Z" fill="#A6DEEF"/>
<path d="M277.382 315.424C277.331 315.353 277.28 315.271 277.228 315.199C274.852 311.924 272.456 308.659 270.1 305.374C259.13 290.063 247.761 275.038 236.966 259.604C236.833 259.41 236.689 259.215 236.556 259.021C219.308 271.661 198.035 279.132 175 279.132C131.276 279.132 93.8502 252.225 78.3843 214.07C71.2762 216.946 64.1885 219.863 57.0803 222.728C48.3641 226.249 39.6172 229.719 30.901 233.239C27.9922 234.416 25.0834 235.604 22.1746 236.801C19.2658 237.999 16.3569 239.186 13.4584 240.383C16.1009 247.22 19.1941 253.852 22.8096 260.228C31.7614 276 42.7923 290.165 56.0664 302.539C79.0911 324.001 106.018 338.156 136.684 345.228C141.907 346.436 147.182 347.367 152.477 348.094C156.277 348.616 160.118 348.953 163.959 349.209C165.587 349.322 167.216 349.332 168.844 349.424C173.023 349.414 177.202 349.394 181.371 349.383C181.647 349.383 181.955 349.322 182.129 349.639H182.866C183.071 349.26 183.45 349.373 183.747 349.383C187.567 349.414 191.367 348.974 195.136 348.585C201.384 347.93 207.54 346.64 213.706 345.402C215.846 344.972 217.956 344.409 220.056 343.877C221.91 343.406 223.805 342.905 225.648 342.28C228.209 341.41 230.78 340.53 233.35 339.711C235.829 338.913 238.226 337.859 240.663 336.928C247.761 334.195 254.48 330.684 261.168 327.082C266.003 324.472 270.53 321.371 275.088 318.321C276.112 317.635 277.249 317.082 277.976 316.028C277.71 315.916 277.546 315.691 277.392 315.465L277.382 315.424Z" fill="#43BFB5"/>
<path d="M22.1746 236.791C25.0834 235.604 27.9922 234.406 30.901 233.229C39.6172 229.708 48.3642 226.239 57.0804 222.718C64.1885 219.852 71.2762 216.935 78.3843 214.059C73.4988 201.993 70.7948 188.81 70.7948 175.004C70.7948 145.548 83.0446 118.948 102.72 100.004C101.491 98.8163 100.262 97.6393 99.166 96.3293C97.0049 93.7603 94.4136 91.6213 92.1807 89.1342C87.1108 83.4744 81.7336 78.1319 76.4281 72.6972C71.8088 67.9586 67.2202 63.1892 62.6214 58.4198C59.7638 55.4517 56.9165 52.4632 54.0691 49.4849C48.9377 54.2031 44.2877 59.3614 39.8426 64.7039C31.874 74.2734 24.9605 84.5491 19.1531 95.5719C13.612 106.103 9.26929 117.096 6.06344 128.548C4.36322 134.638 3.04196 140.799 1.99725 147.022C1.2598 151.413 0.860353 155.854 0.419934 160.286C0.2663 161.832 0.594054 163.428 0 164.922V181.38C0.419934 181.626 0.225331 182.035 0.235573 182.373C0.39945 187.337 1.00375 192.259 1.6695 197.182C2.5913 203.958 3.94329 210.631 5.66399 217.242C7.69197 225.011 10.1501 232.646 13.2638 240.056C13.3048 240.168 13.3867 240.26 13.4584 240.363C16.3672 239.175 19.276 237.978 22.1746 236.781V236.791Z" fill="#F1765D"/>
<path d="M151.187 2.5894C151.443 5.28114 151.852 7.95241 152.242 10.6339C152.58 12.9674 152.877 15.3009 153.163 17.6345C153.46 20.0294 153.819 22.4141 154.147 24.809C154.577 27.9715 155.109 31.1238 155.57 34.2864C156.134 38.1653 156.697 42.0443 157.23 45.9233C157.609 48.6457 157.906 51.3682 158.285 54.0906C158.786 57.7035 159.35 61.2959 159.872 64.9087C160.2 67.2218 160.517 69.5348 160.845 71.8581C165.475 71.2338 170.196 70.896 174.99 70.896C175.072 70.896 175.154 70.896 175.246 70.896C175.246 48.134 175.246 25.3719 175.246 2.60987C175.246 2.11861 175.236 1.62734 175.225 1.13607C173.668 1.13607 172.112 1.13607 170.555 1.13607C170.022 1.13607 169.541 1.12584 169.572 0.39917H168.342C168.302 0.59363 168.322 0.849498 168.199 0.972315C167.626 1.6171 165.321 1.54546 164.655 0.890437C164.409 0.890437 164.164 0.890437 163.918 0.890437C163.201 1.83203 162.033 1.94462 161.214 1.13607C161.05 1.13607 160.886 1.13607 160.722 1.13607C160.702 1.25889 160.661 1.37147 160.61 1.45335C160.446 1.71945 160.149 1.83203 159.852 1.83203C156.933 1.83203 154.085 2.63034 151.166 2.60987L151.187 2.5894Z" fill="#FDBD68"/>
<path d="M170.575 1.11563C172.132 1.11563 173.689 1.11563 175.246 1.11563C175.246 0.962107 175.266 0.808586 175.276 0.644831C175.276 0.552718 175.266 0.460605 175.256 0.378728H169.602C169.561 1.10539 170.053 1.12586 170.586 1.11563H170.575Z" fill="#FDBD68"/>
<path d="M181.36 349.363C177.182 349.373 173.003 349.393 168.834 349.404C168.855 349.475 168.855 349.547 168.855 349.619H182.129C181.954 349.301 181.647 349.363 181.371 349.363H181.36Z" fill="#B5E1DC"/>
<path d="M168.22 0.951779C168.332 0.818728 168.322 0.573094 168.363 0.378634H166.151C165.884 1.21788 165.178 0.73685 164.676 0.869902C165.342 1.52492 167.646 1.59657 168.22 0.951779Z" fill="#FDBD68"/>
<path d="M181.637 0.614084C181.637 0.532206 181.637 0.460563 181.637 0.378685H175.246C175.246 0.470798 175.256 0.56291 175.266 0.644788C177.397 0.634554 179.517 0.624319 181.647 0.603849L181.637 0.614084Z" fill="#D9F0F6"/>
<path d="M76.4383 72.6973C81.7336 78.132 87.121 83.4847 92.191 89.1343C94.4238 91.6213 97.0151 93.7604 99.1762 96.3293C100.272 97.6291 101.501 98.8164 102.73 100.004C118.258 85.0609 138.425 74.8875 160.855 71.8376C160.538 69.5245 160.22 67.2013 159.882 64.8882C159.36 61.2856 158.797 57.683 158.295 54.0701C157.916 51.3579 157.609 48.6252 157.24 45.9028C156.707 42.0238 156.144 38.1448 155.581 34.2659C155.12 31.1033 154.587 27.9613 154.157 24.7885C153.829 22.3936 153.471 20.0089 153.174 17.614C152.877 15.2804 152.58 12.9469 152.252 10.6134C151.863 7.94214 151.453 5.27087 151.197 2.5689C151.146 2.51773 151.125 2.44608 151.146 2.37444C149.456 2.15951 147.837 2.63031 146.209 2.89641C137.39 4.33951 128.705 6.38646 120.193 9.1089C99.4118 15.7512 80.8015 26.2828 64.1476 40.3146C60.6754 43.2315 57.2442 46.1996 54.0999 49.4645C56.9472 52.4428 59.7946 55.4313 62.6522 58.3994C67.2407 63.1688 71.8293 67.9382 76.4588 72.6768L76.4383 72.6973Z" fill="#A38FEF"/>
<path d="M297.119 300.492C298.184 300.42 298.748 299.827 298.87 298.783C298.522 299.018 298.215 299.284 297.928 299.571C297.641 299.857 297.375 300.175 297.109 300.492H297.119Z" fill="#FDFEFF"/>
<path d="M302.302 295.344C303.244 295.293 303.746 294.801 303.777 293.85C303.49 294.065 303.223 294.29 302.978 294.535C302.732 294.781 302.506 295.047 302.312 295.344H302.302Z" fill="#FDFEFF"/>
<path d="M159.872 1.81156C160.179 1.81156 160.476 1.69898 160.63 1.43288C160.681 1.34076 160.722 1.23842 160.743 1.1156C158.756 1.29983 156.758 1.39194 154.792 1.69898C153.573 1.89344 152.262 1.72968 151.125 2.39494C151.115 2.46659 151.125 2.52799 151.176 2.5894C154.095 2.60987 156.943 1.8218 159.862 1.81156H159.872Z" fill="#FDBD68"/>
<path d="M163.938 0.869901C163.017 0.726615 162.146 1.1053 161.234 1.11553C162.054 1.92408 163.221 1.8115 163.938 0.869901Z" fill="#FDBD68"/>
</svg>
