<?xml version="1.0" encoding="UTF-8"?>
<svg width="706px" height="633px" viewBox="0 0 706 633" version="1.1" xmlns="http://www.w3.org/2000/svg" xmlns:xlink="http://www.w3.org/1999/xlink">
    <title>Group 3</title>
    <defs>
        <rect id="path-1" x="0" y="0" width="706" height="633"></rect>
        <linearGradient x1="0%" y1="37.6178129%" x2="63.9280985%" y2="36.3506%" id="linearGradient-3">
            <stop stop-color="#FCF3E8" offset="0%"></stop>
            <stop stop-color="#F7E3CD" offset="100%"></stop>
        </linearGradient>
        <path d="M510.5,584 C524.030976,584 535,594.969024 535,608.5 C535,622.030976 524.030976,633 510.5,633 C496.969024,633 486,622.030976 486,608.5 C486,594.969024 496.969024,584 510.5,584 Z M608.5,584 C622.030976,584 633,594.969024 633,608.5 C633,622.030976 622.030976,633 608.5,633 C594.969024,633 584,622.030976 584,608.5 C584,594.969024 594.969024,584 608.5,584 Z M705.5,584 C719.030976,584 730,594.969024 730,608.5 C730,622.030976 719.030976,633 705.5,633 C691.969024,633 681,622.030976 681,608.5 C681,594.969024 691.969024,584 705.5,584 Z M413.5,584 C427.030976,584 438,594.969024 438,608.5 C438,622.030976 427.030976,633 413.5,633 C399.969024,633 389,622.030976 389,608.5 C389,594.969024 399.969024,584 413.5,584 Z M316.5,584 C330.030976,584 341,594.969024 341,608.5 C341,622.030976 330.030976,633 316.5,633 C302.969024,633 292,622.030976 292,608.5 C292,594.969024 302.969024,584 316.5,584 Z M218.5,584 C232.030976,584 243,594.969024 243,608.5 C243,622.030976 232.030976,633 218.5,633 C204.969024,633 194,622.030976 194,608.5 C194,594.969024 204.969024,584 218.5,584 Z M121.5,584 C135.030976,584 146,594.969024 146,608.5 C146,622.030976 135.030976,633 121.5,633 C107.969024,633 97,622.030976 97,608.5 C97,594.969024 107.969024,584 121.5,584 Z M24.5,584 C38.0309764,584 49,594.969024 49,608.5 C49,622.030976 38.0309764,633 24.5,633 C10.9690236,633 0,622.030976 0,608.5 C0,594.969024 10.9690236,584 24.5,584 Z M316.5,487 C330.030976,487 341,497.969024 341,511.5 C341,525.030976 330.030976,536 316.5,536 C302.969024,536 292,525.030976 292,511.5 C292,497.969024 302.969024,487 316.5,487 Z M705.5,487 C719.030976,487 730,497.969024 730,511.5 C730,525.030976 719.030976,536 705.5,536 C691.969024,536 681,525.030976 681,511.5 C681,497.969024 691.969024,487 705.5,487 Z M218.5,487 C232.030976,487 243,497.969024 243,511.5 C243,525.030976 232.030976,536 218.5,536 C204.969024,536 194,525.030976 194,511.5 C194,497.969024 204.969024,487 218.5,487 Z M608.5,487 C622.030976,487 633,497.969024 633,511.5 C633,525.030976 622.030976,536 608.5,536 C594.969024,536 584,525.030976 584,511.5 C584,497.969024 594.969024,487 608.5,487 Z M121.5,487 C135.030976,487 146,497.969024 146,511.5 C146,525.030976 135.030976,536 121.5,536 C107.969024,536 97,525.030976 97,511.5 C97,497.969024 107.969024,487 121.5,487 Z M413.5,487 C427.030976,487 438,497.969024 438,511.5 C438,525.030976 427.030976,536 413.5,536 C399.969024,536 389,525.030976 389,511.5 C389,497.969024 399.969024,487 413.5,487 Z M24.5,487 C38.0309764,487 49,497.969024 49,511.5 C49,525.030976 38.0309764,536 24.5,536 C10.9690236,536 0,525.030976 0,511.5 C0,497.969024 10.9690236,487 24.5,487 Z M510.5,487 C524.030976,487 535,497.969024 535,511.5 C535,525.030976 524.030976,536 510.5,536 C496.969024,536 486,525.030976 486,511.5 C486,497.969024 496.969024,487 510.5,487 Z M510.5,389 C524.030976,389 535,399.969024 535,413.5 C535,427.030976 524.030976,438 510.5,438 C496.969024,438 486,427.030976 486,413.5 C486,399.969024 496.969024,389 510.5,389 Z M608.5,389 C622.030976,389 633,399.969024 633,413.5 C633,427.030976 622.030976,438 608.5,438 C594.969024,438 584,427.030976 584,413.5 C584,399.969024 594.969024,389 608.5,389 Z M705.5,389 C719.030976,389 730,399.969024 730,413.5 C730,427.030976 719.030976,438 705.5,438 C691.969024,438 681,427.030976 681,413.5 C681,399.969024 691.969024,389 705.5,389 Z M413.5,389 C427.030976,389 438,399.969024 438,413.5 C438,427.030976 427.030976,438 413.5,438 C399.969024,438 389,427.030976 389,413.5 C389,399.969024 399.969024,389 413.5,389 Z M316.5,389 C330.030976,389 341,399.969024 341,413.5 C341,427.030976 330.030976,438 316.5,438 C302.969024,438 292,427.030976 292,413.5 C292,399.969024 302.969024,389 316.5,389 Z M218.5,389 C232.030976,389 243,399.969024 243,413.5 C243,427.030976 232.030976,438 218.5,438 C204.969024,438 194,427.030976 194,413.5 C194,399.969024 204.969024,389 218.5,389 Z M121.5,389 C135.030976,389 146,399.969024 146,413.5 C146,427.030976 135.030976,438 121.5,438 C107.969024,438 97,427.030976 97,413.5 C97,399.969024 107.969024,389 121.5,389 Z M24.5,389 C38.0309764,389 49,399.969024 49,413.5 C49,427.030976 38.0309764,438 24.5,438 C10.9690236,438 0,427.030976 0,413.5 C0,399.969024 10.9690236,389 24.5,389 Z M510.5,292 C524.030976,292 535,302.969024 535,316.5 C535,330.030976 524.030976,341 510.5,341 C496.969024,341 486,330.030976 486,316.5 C486,302.969024 496.969024,292 510.5,292 Z M705.5,292 C719.030976,292 730,302.969024 730,316.5 C730,330.030976 719.030976,341 705.5,341 C691.969024,341 681,330.030976 681,316.5 C681,302.969024 691.969024,292 705.5,292 Z M316.5,292 C330.030976,292 341,302.969024 341,316.5 C341,330.030976 330.030976,341 316.5,341 C302.969024,341 292,330.030976 292,316.5 C292,302.969024 302.969024,292 316.5,292 Z M121.5,292 C135.030976,292 146,302.969024 146,316.5 C146,330.030976 135.030976,341 121.5,341 C107.969024,341 97,330.030976 97,316.5 C97,302.969024 107.969024,292 121.5,292 Z M24.5,292 C38.0309764,292 49,302.969024 49,316.5 C49,330.030976 38.0309764,341 24.5,341 C10.9690236,341 0,330.030976 0,316.5 C0,302.969024 10.9690236,292 24.5,292 Z M608.5,292 C622.030976,292 633,302.969024 633,316.5 C633,330.030976 622.030976,341 608.5,341 C594.969024,341 584,330.030976 584,316.5 C584,302.969024 594.969024,292 608.5,292 Z M218.5,292 C232.030976,292 243,302.969024 243,316.5 C243,330.030976 232.030976,341 218.5,341 C204.969024,341 194,330.030976 194,316.5 C194,302.969024 204.969024,292 218.5,292 Z M413.5,292 C427.030976,292 438,302.969024 438,316.5 C438,330.030976 427.030976,341 413.5,341 C399.969024,341 389,330.030976 389,316.5 C389,302.969024 399.969024,292 413.5,292 Z M121.5,194 C135.030976,194 146,204.969024 146,218.5 C146,232.030976 135.030976,243 121.5,243 C107.969024,243 97,232.030976 97,218.5 C97,204.969024 107.969024,194 121.5,194 Z M608.5,194 C622.030976,194 633,204.969024 633,218.5 C633,232.030976 622.030976,243 608.5,243 C594.969024,243 584,232.030976 584,218.5 C584,204.969024 594.969024,194 608.5,194 Z M218.5,194 C232.030976,194 243,204.969024 243,218.5 C243,232.030976 232.030976,243 218.5,243 C204.969024,243 194,232.030976 194,218.5 C194,204.969024 204.969024,194 218.5,194 Z M413.5,194 C427.030976,194 438,204.969024 438,218.5 C438,232.030976 427.030976,243 413.5,243 C399.969024,243 389,232.030976 389,218.5 C389,204.969024 399.969024,194 413.5,194 Z M316.5,194 C330.030976,194 341,204.969024 341,218.5 C341,232.030976 330.030976,243 316.5,243 C302.969024,243 292,232.030976 292,218.5 C292,204.969024 302.969024,194 316.5,194 Z M510.5,194 C524.030976,194 535,204.969024 535,218.5 C535,232.030976 524.030976,243 510.5,243 C496.969024,243 486,232.030976 486,218.5 C486,204.969024 496.969024,194 510.5,194 Z M24.5,194 C38.0309764,194 49,204.969024 49,218.5 C49,232.030976 38.0309764,243 24.5,243 C10.9690236,243 0,232.030976 0,218.5 C0,204.969024 10.9690236,194 24.5,194 Z M705.5,194 C719.030976,194 730,204.969024 730,218.5 C730,232.030976 719.030976,243 705.5,243 C691.969024,243 681,232.030976 681,218.5 C681,204.969024 691.969024,194 705.5,194 Z M24.5,97 C38.0309764,97 49,107.969024 49,121.5 C49,135.030976 38.0309764,146 24.5,146 C10.9690236,146 0,135.030976 0,121.5 C0,107.969024 10.9690236,97 24.5,97 Z M121.5,97 C135.030976,97 146,107.969024 146,121.5 C146,135.030976 135.030976,146 121.5,146 C107.969024,146 97,135.030976 97,121.5 C97,107.969024 107.969024,97 121.5,97 Z M608.5,97 C622.030976,97 633,107.969024 633,121.5 C633,135.030976 622.030976,146 608.5,146 C594.969024,146 584,135.030976 584,121.5 C584,107.969024 594.969024,97 608.5,97 Z M705.5,97 C719.030976,97 730,107.969024 730,121.5 C730,135.030976 719.030976,146 705.5,146 C691.969024,146 681,135.030976 681,121.5 C681,107.969024 691.969024,97 705.5,97 Z M510.5,97 C524.030976,97 535,107.969024 535,121.5 C535,135.030976 524.030976,146 510.5,146 C496.969024,146 486,135.030976 486,121.5 C486,107.969024 496.969024,97 510.5,97 Z M413.5,97 C427.030976,97 438,107.969024 438,121.5 C438,135.030976 427.030976,146 413.5,146 C399.969024,146 389,135.030976 389,121.5 C389,107.969024 399.969024,97 413.5,97 Z M316.5,97 C330.030976,97 341,107.969024 341,121.5 C341,135.030976 330.030976,146 316.5,146 C302.969024,146 292,135.030976 292,121.5 C292,107.969024 302.969024,97 316.5,97 Z M218.5,97 C232.030976,97 243,107.969024 243,121.5 C243,135.030976 232.030976,146 218.5,146 C204.969024,146 194,135.030976 194,121.5 C194,107.969024 204.969024,97 218.5,97 Z M510.5,0 C524.030976,0 535,10.9690236 535,24.5 C535,38.0309764 524.030976,49 510.5,49 C496.969024,49 486,38.0309764 486,24.5 C486,10.9690236 496.969024,0 510.5,0 Z M608.5,0 C622.030976,0 633,10.9690236 633,24.5 C633,38.0309764 622.030976,49 608.5,49 C594.969024,49 584,38.0309764 584,24.5 C584,10.9690236 594.969024,0 608.5,0 Z M705.5,0 C719.030976,0 730,10.9690236 730,24.5 C730,38.0309764 719.030976,49 705.5,49 C691.969024,49 681,38.0309764 681,24.5 C681,10.9690236 691.969024,0 705.5,0 Z M413.5,0 C427.030976,0 438,10.9690236 438,24.5 C438,38.0309764 427.030976,49 413.5,49 C399.969024,49 389,38.0309764 389,24.5 C389,10.9690236 399.969024,0 413.5,0 Z M316.5,0 C330.030976,0 341,10.9690236 341,24.5 C341,38.0309764 330.030976,49 316.5,49 C302.969024,49 292,38.0309764 292,24.5 C292,10.9690236 302.969024,0 316.5,0 Z M218.5,0 C232.030976,0 243,10.9690236 243,24.5 C243,38.0309764 232.030976,49 218.5,49 C204.969024,49 194,38.0309764 194,24.5 C194,10.9690236 204.969024,0 218.5,0 Z M121.5,0 C135.030976,0 146,10.9690236 146,24.5 C146,38.0309764 135.030976,49 121.5,49 C107.969024,49 97,38.0309764 97,24.5 C97,10.9690236 107.969024,0 121.5,0 Z M24.5,0 C38.0309764,0 49,10.9690236 49,24.5 C49,38.0309764 38.0309764,49 24.5,49 C10.9690236,49 0,38.0309764 0,24.5 C0,10.9690236 10.9690236,0 24.5,0 Z" id="path-4"></path>
    </defs>
    <g id="Publisher" stroke="none" stroke-width="1" fill="none" fill-rule="evenodd">
        <g id="Assets" transform="translate(-545.000000, -114.000000)">
            <g id="Group-3" transform="translate(545.000000, 114.000000)">
                <mask id="mask-2" fill="white">
                    <use xlink:href="#path-1"></use>
                </mask>
                <g id="Rectangle"></g>
                <g id="Group-2" mask="url(#mask-2)">
                    <mask id="mask-5" fill="white">
                        <use xlink:href="#path-4"></use>
                    </mask>
                    <use id="Combined-Shape" fill="url(#linearGradient-3)" xlink:href="#path-4"></use>
                </g>
            </g>
        </g>
    </g>
</svg>