<svg xmlns="http://www.w3.org/2000/svg" width="1152.11" height="471.39" viewBox="0 0 1152.11 471.39">
  <defs>
    <style>
      .cls-1 {
        fill: #020202;
      }
    </style>
  </defs>
  <title>55-haitao-publisher-logo</title>
  <g id="Layer_2" data-name="Layer 2">
    <g id="Layer_1-2" data-name="Layer 1">
      <g id="LDi4Pk">
        <g>
          <path class="cls-1" d="M666.89,77.93c22.66,0,45.33.15,68,0a44,44,0,0,1,41.71,28.63A40.54,40.54,0,0,1,779,119.67c.29,14.15.11,28.32.1,42.48,0,1.17.07,2.34,0,3.5-.14,2.24.67,3.38,3.11,3.39,2.1,0,5.18-.29,6.06.88,1.17,1.55.75,4.39.78,6.68q.09,10.74,0,21.49c0,3.84-.12,3.84-4,4-.5,0-1,0-1.5,0-4.38.12-4.45.12-4.46,4.52,0,16.49,0,33,0,49.48a57.61,57.61,0,0,1-5.61,25.12c-6.26,12.92-17,19.71-30.89,21.72a133.79,133.79,0,0,1-18.89,1.1c-39.32.1-78.64,0-118,.08A70.94,70.94,0,0,1,586.42,302c-13.82-3.82-24.06-11.85-29.55-25.36A39.25,39.25,0,0,1,554,261.52q0-26.25,0-52.49c0-1,0-2,0-3-.14-3.78-.2-3.83-4-4-.5,0-1,0-1.5,0-6.5,0-6.36.59-6.35-6.14,0-7.5,0-15,0-22.49,0-4.34.08-4.34,4.53-4.43h.5c7.45,0,6.82.77,6.83-7.13,0-13.33.61-26.7-.13-40-1-18.64,14-38.23,32.26-42.35A62.28,62.28,0,0,1,598.41,78c11.5-.2,23-.06,34.49-.06Zm15.21,172.2H655c-6.1,0-6.12,0-6.12-5.91q0-17.75,0-35.48c0-1.33,0-2.66-.09-4a2.49,2.49,0,0,0-2.49-2.59c-1-.07-2-.08-3-.08h-50c-1,0-2,0-3,.06a2.24,2.24,0,0,0-2.41,2.53c0,1.17,0,2.33,0,3.5,0,10.82-.05,21.65,0,32.47,0,4.61-1,9.08-.17,13.85,1.59,9,5.82,14.09,15,15.45,3.39.51,6.91.2,10.38.2H723a54.39,54.39,0,0,0,6-.13c7.45-.86,12.79-4.66,15.08-11.91a36.38,36.38,0,0,0,1.8-10.26c.2-14,.12-28,.06-42,0-3.5-.24-3.75-3.68-3.76q-28.23-.06-56.46,0c-3.44,0-3.64.25-3.68,3.76-.08,7.16,0,14.32,0,21.48ZM666.54,111H620c-4.66,0-9.33-.1-14,0-10.32.3-16.65,6.58-18.29,16.8-.65,4.1.23,7.91.2,11.85-.07,8.17-.05,16.33,0,24.5,0,4.73.07,4.8,4.69,4.81q25.75,0,51.5,0c4.7,0,4.75-.06,4.77-4.69,0-9.5,0-19,0-28.5,0-4.78.09-4.84,4.63-4.9,8.83-.13,17.65-.27,26.48-.27a2.62,2.62,0,0,1,1.93,1.51,11.75,11.75,0,0,1,.13,3.47c0,9.67,0,19.33,0,29,0,4.26.09,4.36,4.08,4.37q28,.06,56,0c3.57,0,3.76-.19,3.77-3.65.06-11.67.17-23.34,0-35-.14-8.77-4.83-15.41-12.57-18a27.21,27.21,0,0,0-8.32-1.26C705.54,111,686,111,666.54,111Z"/>
          <path class="cls-1" d="M918.94,139.39V120c0-4.5,0-9,0-13.5,0-2,.37-3.52,2.36-4.51,7.55-3.78,10.44-10.83,12.55-18.34A31.36,31.36,0,0,0,935,77.23c.17-2.23,1-3.29,3.35-3.27,9.83.06,19.66,0,29.5,0,3,0,3.11.31,2.66,3.24-.3,2-.52,4-1,5.9s.07,2.9,2.12,2.89c1.5,0,3,0,4.5,0h111.49c1,0,2,0,3,0,3.17.15,3.37.25,3.4,3.53.07,8.67,0,17.34,0,26,0,4.33-.07,4.39-4.53,4.4q-26.74,0-53.5,0c-3.33,0-6.66.06-10,0-2.09,0-3,.88-3,3,0,9.33,0,18.66,0,28,0,2.43,1.15,3.17,3.39,3.16,7.67,0,15.33,0,23,0,12.67,0,25.33,0,38,0,4.67,0,4.71.07,4.73,4.76q.06,12.25,0,24.5c0,4.59-.08,4.65-4.82,4.65q-28.76,0-57.5,0c-7.33,0-6.79-.58-6.79,6.7q0,28.5,0,57c0,1.17,0,2.34,0,3.5,0,1.91,1,2.67,2.81,2.67,8,0,16,.18,24-.09,5.08-.17,8-3.47,8.21-8.9.4-10,.63-19.94.89-29.92.08-2.83-.06-5.66,0-8.49.11-3.13.32-3.38,3.57-3.41q13-.1,26,0c3.22,0,3.45.23,3.47,3.46,0,14.49.09,29,0,43.49a64.84,64.84,0,0,1-1,11.9c-2,10.36-7.5,18.37-17.17,23.16a22.2,22.2,0,0,1-10.18,2q-46.24,0-92.5,0c-7.16,0-14.33.16-21.49-.06a41.1,41.1,0,0,1-10.31-1.5c-11.9-3.53-18.15-10.76-18.91-23.62-1.08-18.43-.34-37-.3-55.48,0-3.11.26-3.31,3.58-3.34q12.75-.09,25.5,0c3.77,0,3.92.18,3.94,4,0,10,0,20,0,30a55.19,55.19,0,0,0,.82,8.4c.94,5.75,2.49,7.75,8.27,8.12,8.13.52,16.32.19,24.48.21,1.66,0,2.38-1,2.42-2.53q0-1.5,0-3v-58.5c0-1,0-2,0-3a2.41,2.41,0,0,0-2.73-2.76c-1.34,0-2.67,0-4,0h-56.5c-1,0-2,0-3,0-3.62-.13-3.8-.19-3.82-3.6q-.11-13.26,0-26.5c0-3.58.19-3.72,3.63-3.81s7,0,10.5,0h49c1,0,2,0,3,0,3.72-.15,3.9-.24,3.93-4.08q.09-13,0-26c0-3.84-.16-4-4-4-8.83-.07-17.67,0-26.5,0a5.62,5.62,0,0,0-4.72,2.14C944.92,132.58,933.47,138.31,918.94,139.39Z"/>
          <path class="cls-1" d="M269.71,133.52c4.64-2.44,9.14-4.85,13.68-7.19a77.53,77.53,0,0,1,31.58-8.4c22.2-1.27,42.68,4.29,62,14.92,14.21,7.8,24.68,19.19,31.94,33.4,5.47,10.69,8.55,22.21,10.31,34.22,2.42,16.57-1.6,32-6.55,47.42a85.38,85.38,0,0,1-52,53.13,134.36,134.36,0,0,1-64.83,6.91,105.88,105.88,0,0,1-30.67-8.46c-18.81-8.74-32.51-22.42-39.21-42.31-2.32-6.9-3.76-14.11-5.42-21.22-.82-3.53-.46-3.95,2.92-4,10.34-.07,20.67,0,31-.06,2.55,0,3.38,1.11,3.85,3.45a81.9,81.9,0,0,0,3.29,12.51c7,18.57,21.13,28.42,40.1,32,4.88.93,9.88,2,14.79,1.88,14.4-.39,28-3.66,39.46-13.12s17.48-22.37,20.91-36.54a72.1,72.1,0,0,0,2.5-15.21,78.92,78.92,0,0,0-1.75-16.24,61.69,61.69,0,0,0-14.48-29.72c-5.4-6.09-12.34-10.17-19.8-13.18-9.32-3.76-19-6.44-29.15-5.65a83.07,83.07,0,0,0-15.66,2.72c-11.44,3.17-21.26,9.35-30,17.35a5.83,5.83,0,0,0-1.3,1.51c-2.69,5.08-7.16,5.79-12.29,5.28-4.62-.46-9.27-.68-13.91-.94-10.7-.61-9.63-1.17-8.48-10.08q1.68-13.08,3.47-26.15c1.39-10.37,2.83-20.72,4.22-31.09,1.28-9.54,2.51-19.09,3.77-28.63,1-7.9,2.06-15.8,3.14-23.69,1.24-9,2.53-18.08,3.79-27.12.37-2.63.76-5.26,1-7.9A2.31,2.31,0,0,1,254.67,21c1.16,0,2.33,0,3.5,0h139c.66,0,1.33,0,2,0,3.6.15,3.8.23,3.83,3.63.06,9.67,0,19.33,0,29,0,2.25-.72,3.48-3.15,3.34-1.33-.08-2.67,0-4,0h-109c-6.66,0-6.74,0-7.65,6.58-1.82,13.16-3.49,26.33-5.33,39.49-1.35,9.7-2.88,19.37-4.31,29.06A5.91,5.91,0,0,0,269.71,133.52Z"/>
          <path class="cls-1" d="M49.4,133.69c1.28-.69,2.31-1.17,3.25-1.78a90,90,0,0,1,41.6-14.09c13.21-1.14,25.77,1.44,38.25,4.9C144.61,126.08,156,131.12,166,139a78.56,78.56,0,0,1,20.41,23.57c7.15,12.85,11,26.6,12.9,41.15,1.52,11.74-1,22.85-3.77,33.91a96.11,96.11,0,0,1-15.06,33A81.17,81.17,0,0,1,153.12,295c-17.6,9.58-36.59,13.72-56.53,14.17a126.25,126.25,0,0,1-43.22-6.33C33,295.93,17.23,283.38,8,263.34,4.11,254.77,1.9,245.78.25,236.6-.46,232.66.2,232,4.34,232q14.75-.07,29.5,0c3.58,0,3.59.1,4.23,3.89a61.16,61.16,0,0,0,8.58,22.71C52.44,267.79,61,273.26,70.78,277a68.07,68.07,0,0,0,26.38,4.67c22.7-.72,41.44-9.16,52.32-30.53,6.14-12,9.88-24.89,9.38-38.39-.53-14-4.61-27.24-13.4-38.53A49.8,49.8,0,0,0,130,161a69.5,69.5,0,0,0-33.41-9,65.48,65.48,0,0,0-42,14.9,117.53,117.53,0,0,0-10.25,9.47A7.33,7.33,0,0,1,38.18,179c-8.43-.59-16.87-1-25.3-1.61-1.94-.13-1.83-1.66-1.65-3,.67-4.93,1.44-9.85,2.1-14.79,1.28-9.54,2.49-19.09,3.77-28.63,1.51-11.18,3.1-22.36,4.61-33.54,1.14-8.39,2.21-16.8,3.36-25.19,1.16-8.55,2.39-17.09,3.57-25.64.81-5.92,1.58-11.85,2.35-17.77.09-.66,0-1.35.13-2C32.67,19.8,32,21,38,21q69,0,138,0c6.7,0,6.11-.22,6.12,6.36,0,7.83,0,15.66,0,23.5,0,6.63.23,6.11-6.37,6.12H67.24C60,57,60,57,58.92,64.39q-3.48,24.17-7,48.32c-.9,6.24-1.88,12.47-2.78,18.7A11.22,11.22,0,0,0,49.4,133.69Z"/>
          <path class="cls-1" d="M910.41,86.14c-.16-2.09-.34-3.39-.34-4.69,0-11,.06-22-.07-33a11.1,11.1,0,0,1,3.16-8.06A67,67,0,0,0,930.05,6.47c.14-.82.32-1.63.52-2.44,1-3.92,1-4,4.88-4,8.66,0,17.32,0,26,0,3.67,0,3.76.18,2.89,3.7s-2,7-2.85,10.6c-.74,2.91-.28,3.48,2.82,3.64,1.33.07,2.66,0,4,0,46.31,0,92.63-.13,138.94.07,17.45.07,31.27,7.19,39.55,23.17A42.29,42.29,0,0,1,1152,60.81c0,65.81.23,131.62-.14,197.42-.1,18.41-8,33.12-25.33,41.51a45.73,45.73,0,0,1-18.34,4.19c-4.33.17-8.67.08-13,0-4.1-.06-4.25-.18-4.28-4.21-.06-7.33,0-14.66,0-22,0-7.7-.06-7.67,7.62-7.74a23.51,23.51,0,0,0,6-.41c9.26-2.49,11.89-6,13.41-15.79a104.13,104.13,0,0,0,1-15.89q.09-82,0-163.94a33.33,33.33,0,0,0-.83-7.38c-1.94-8.48-7-13.2-15.66-14.45a93.77,93.77,0,0,0-13.39-1c-44.81-.08-89.63,0-134.45-.16-4.69,0-7.54,1.32-10.2,5.25C935.87,68.8,924.6,78.48,910.41,86.14Z"/>
          <path class="cls-1" d="M608.59,1.22c-.81,4.57-1.52,8.49-2.21,12.41s-.26,4.25,3.74,4.36c1.16,0,2.33,0,3.49,0H779.05c1,0,2,0,3,0,5,.05,5,.05,5,4.93,0,8,0,16,0,24,0,3.87-.14,3.92-3.9,4-1.16,0-2.33,0-3.49,0q-91,0-181.94-.08c-4.53,0-7.55,1.09-10.44,5C576.56,70.41,562.39,80,546.42,86.35a17.07,17.07,0,0,1-.44-2.8c0-10.17,0-20.33-.06-30.49,0-2.55.6-4.49,2.71-6,14.24-10.35,21.76-24.77,25.12-41.7C574.61,1,574.7,1,579.12,1q12.75,0,25.49,0C605.74,1,606.88,1.12,608.59,1.22Z"/>
          <path class="cls-1" d="M1015.31,382.35c8.6-11.16,18.6-17.75,32.28-17.31s23.09,7.22,28.66,20.15c1.78-2.26,3.17-3.88,4.4-5.61,6.53-9.2,15.75-13.49,26.7-14.51a39.47,39.47,0,0,1,19.52,3.1c8.07,3.46,12.73,10,15,18.2A84.33,84.33,0,0,1,1144,400.1c2,20.59.48,41.25,1,61.87a18.62,18.62,0,0,1-.06,3c-.38,2.85-1.88,4-4.73,3.92s-5.55-.07-8.32,0-4.43-1.11-4.79-3.88a31.19,31.19,0,0,1-.08-4c0-16.83.24-33.66-.12-50.48a84.06,84.06,0,0,0-2.69-18.14c-1.81-7.34-7.15-11-14.55-12.5-10.86-2.22-18.27,2.65-24.34,10.76-4.7,6.27-6,13.67-6.12,21.21-.2,16.65-.06,33.31-.07,50,0,6.58-.85,7.38-7.47,7.16a6.6,6.6,0,0,1-1,0c-6.59-1.14-8.69-.87-8.64-9.22.1-15.66.18-31.32,0-47a105.77,105.77,0,0,0-1.78-16.73c-2.64-14.83-17.33-19.6-29.26-15.29-6.05,2.18-9.93,7.08-12.85,12.69s-3.84,12-3.93,18.35c-.2,14-.09,28,0,42,0,2,.59,4,.6,5.93A20.15,20.15,0,0,1,1014,466a4.48,4.48,0,0,1-3.09,2.67,59.08,59.08,0,0,1-10.36-.68c-2.21-.31-3.38-2-3.51-4.25-.08-1.33-.09-2.66-.09-4q0-43,0-85.95c0-6.69.11-6.79,6.62-6.81,9.83,0,9.9.08,10.49,9.88A40.68,40.68,0,0,0,1015.31,382.35Z"/>
          <path class="cls-1" d="M519,227.51q0,28.49,0,57c0,5.53,0,5.55-5.4,5.56-10.66,0-21.32,0-32,0-4.6,0-4.66-.07-4.67-4.81q0-57.72,0-115.45c0-4.75.06-4.8,4.67-4.82q16.5,0,33,0c4.32,0,4.38.09,4.39,4.58Q519,198.52,519,227.51Z"/>
          <path class="cls-1" d="M840,227.55V171.63c0-1.16.06-2.33,0-3.49-.13-2.38,1-3.24,3.31-3.21,5.33.06,10.66,0,16,0,6,0,12,0,18,0,4.85,0,4.85.05,4.9,5.08,0,.33,0,.66,0,1q0,56.41,0,112.84c0,6.62.25,6.17-6.31,6.18-10.32,0-20.64,0-31,0C840,290,840,290,840,285Q839.94,256.26,840,227.55Z"/>
          <path class="cls-1" d="M249.82,383.07c.68-.92,1.36-1.84,2-2.78,9.6-13.5,26.37-18.09,42.25-13.83,12.24,3.29,18.79,11.49,20.9,23.46a121.18,121.18,0,0,1,1.88,19.28c.26,17.16-.07,34.32.16,51.48.11,7.85-2.72,8.93-9.47,8.16-7.62-.88-7.61-1-7.61-8.56,0-16.82.19-33.65-.12-50.48a57.31,57.31,0,0,0-2.51-15.13C294.44,385,287,379.14,277,379.26s-18.71,4.19-23.91,13.61A40.24,40.24,0,0,0,248,413.42c.21,15.83.06,31.66.06,47.49a35.38,35.38,0,0,1-.06,4c-.33,2.83-1.85,4.09-4.67,4.08-2.12,0-4.25,0-6.37,0a5.63,5.63,0,0,1-5.84-5,27.08,27.08,0,0,1-.07-3.49V325.05c0-7,0-7,6.88-7,1.67,0,3.34-.1,5,.06,3.29.32,4.7,1.76,5.06,5.08a35.56,35.56,0,0,1,.07,4q0,24.74,0,49.48c0,1.93.13,3.86.21,5.79Z"/>
          <path class="cls-1" d="M62.27,327q14.25,0,28.5,0c5.68,0,6.18.53,6.24,6.36,0,1.83,0,3.67,0,5.5a2.88,2.88,0,0,1-3.16,3.08c-1.33,0-2.67,0-4,0-13.67,0-27.33,0-41,0-5.34,0-5.78.44-5.81,5.62q-.06,15,0,30c0,4.33.15,4.49,4.59,4.43a131.75,131.75,0,0,1,23.3,1.88c16.15,2.63,30.47,16.47,32.33,33.48,1.74,15.78-1.47,29.85-13.22,41-6.79,6.46-15.28,9.95-24.5,11.59-11.3,2-22.52,1.1-33.68-1.09a24.43,24.43,0,0,1-5.22-1.67c-3.43-1.54-4.51-3.85-4-7.58a52.32,52.32,0,0,0,.36-5.46c.16-4.3.32-4.44,4.23-3.29,3.67,1.08,7.3,2.33,11,3.24,4.35,1.08,8.73,2.49,13.15,2.69,19.9.91,34.82-11.82,34.53-32-.16-11.52-6-20.15-17.37-24.4a42.67,42.67,0,0,0-12.64-2.38c-7.49-.35-15,0-22.5-.05-5.22,0-6.25-1-6.26-6.07q-.06-29.49,0-59c0-5.34.7-5.94,6.15-5.95Q47.77,327,62.27,327Z"/>
          <path class="cls-1" d="M131.11,362.32c0-10,0-20,0-30,0-5,.39-5.33,5.48-5.34q29,0,58,0c4.59,0,4.88.35,5.49,5.09.15,1.15.41,2.29.61,3.43.87,5-.26,6.43-5.23,6.44-13.66,0-27.32,0-41,0-7.45,0-7.45,0-7.46,7.47,0,8.83,0,17.66,0,26.49,0,5.57.09,6,5.66,6.66,4.6.57,9.31.2,14,.47,12.18.7,23.16,4.21,31.64,13.62a35.32,35.32,0,0,1,8.37,16.73,51.91,51.91,0,0,1-2.88,31.23c-5.24,12.55-15,20.19-27.64,24.07-10.15,3.12-20.66,3.11-31.13,1.49-4.25-.65-8.52-1.36-12.7-2.38-4.66-1.15-6-3-6.18-7.75-.1-2.17-.08-4.34,0-6.5.13-3.62.55-3.94,4.29-2.94,3.21.85,6.34,2,9.56,2.83,5,1.25,10,3.12,15,3.31,21.89.84,37.46-12.08,34.75-36.16C188.45,409,180.4,402,169.4,399.28c-5.68-1.41-11.8-1.18-17.73-1.38-5.32-.18-10.65.14-16,.1-4.07,0-4.53-.5-4.55-4.7C131.08,383,131.12,372.65,131.11,362.32Z"/>
          <path class="cls-1" d="M927.11,471.38a53,53,0,0,1-28.25-7.31,43.48,43.48,0,0,1-20.76-29.24,76.78,76.78,0,0,1-1.89-14.29c-.32-16.42,4-31.29,16-43.15,6.75-6.68,15.28-9.93,24.52-11.3a66.57,66.57,0,0,1,12.89-.95c11.6.54,22.71,2.72,32,10.6a41.6,41.6,0,0,1,14,23,89.36,89.36,0,0,1,2.27,20.73c-.2,13.08-3.54,25.4-12.54,35.45-7.08,7.9-15.77,13.26-26.39,15C935,470.62,931.06,470.92,927.11,471.38ZM960.8,418c-1-5.71-1.48-11.55-3.06-17.08-2.89-10-9.23-17.22-19.56-20.22a48,48,0,0,0-6.39-.93,31.16,31.16,0,0,0-23.56,5.54c-6.68,4.77-10.35,11.43-12.53,19.19-1.65,5.87-1.72,11.8-1.7,17.8a38.29,38.29,0,0,0,5.13,18.58,27.35,27.35,0,0,0,12.77,12.2c7.17,3.21,14.35,4.53,22.26,3.15,11.47-2,18.93-8.31,23-19A63.67,63.67,0,0,0,960.8,418Z"/>
          <path class="cls-1" d="M600.62,454.17c-1,1.31-2,2.59-2.94,3.93-5.41,7.83-13.45,11.41-22.36,12.7A40.07,40.07,0,0,1,552,467.16c-8-3.82-12.31-10.29-13.61-18.47a53.79,53.79,0,0,1,.49-16.35c1.46-9.34,7.23-15.22,16.12-18.58,9.1-3.43,18.5-5.3,28-6.75,5.08-.77,10.2-1.33,15.28-2.1,2.91-.44,3.62-1.31,3.71-4.32.32-10.89-7.53-21.5-20-21.68-11.11-.16-20.88,3.41-30.2,8.91-.72.42-1.41.89-2.14,1.28a4.94,4.94,0,0,1-1.28.17c-.85-4.21-.45-8.48-.27-12.71.11-2.65,2.2-4.1,4.33-5.07,15.42-6.94,31.27-8.91,47.59-3.58,11.31,3.69,18.25,13.7,18.87,25.71.68,13.28.76,26.59,1,39.89.15,9.17.08,18.33.11,27.5,0,1.16.06,2.34,0,3.49-.3,3.42-1.92,4.6-5.3,4.27a38.83,38.83,0,0,0-7.38-.24c-3.79.34-5.12-.62-5.24-4.57-.09-3,0-5.95,0-8.92Zm1.42-27.7c0-1.16,0-2.33,0-3.49-.06-4.82-.42-5.17-5.07-4.9-.82,0-1.64.2-2.46.32-3.76.57-7.55,1-11.28,1.74q-8.76,1.74-17.45,3.82c-6.3,1.51-9.34,6.2-10.43,12.07-1.16,6.19.29,11.78,5.16,16.3,3.16,2.93,7,3.43,11,4.09a23.94,23.94,0,0,0,21-6.31C599.47,443.78,602.41,435.78,602,426.47Z"/>
          <path class="cls-1" d="M636.56,420c.47-5.62.56-11.3,1.48-16.85,3.25-19.8,20.27-35.31,39.57-37.35,10.63-1.12,20.87-.6,31,2.58,9.85,3.1,16.9,9.66,21.91,18.53,3.81,6.77,5.46,14.15,6.7,21.78,1.83,11.2,0,21.85-3.66,32.29-3.4,9.56-9.81,16.88-18.23,22.37-11.76,7.68-24.73,8.77-38.33,7-9.94-1.31-18.73-5.13-25.76-12-8.26-8.06-14-17.75-14.24-29.82-.06-2.83,0-5.67,0-8.5Zm83.69-1.89c-.59-4.26-.88-10.47-2.39-16.37-2.85-11.09-9.52-18.89-21.27-21.36a46.37,46.37,0,0,0-6.38-1.05c-9.3-.67-18.12.93-24.79,7.93a45.15,45.15,0,0,0-7.43,51c6.5,13.25,17,19.24,31.28,18.69,10.28-.39,18.84-4.64,24.71-13.64C718.64,436.11,719.72,428.17,720.25,418.1Z"/>
          <path class="cls-1" d="M343.57,390.1a42.56,42.56,0,0,1-.18-13.39c.35-2.49,2.19-4,4.43-5a66.33,66.33,0,0,1,22.88-6.55,71.38,71.38,0,0,1,22.77,1.95c11.75,2.86,19.75,14,20.54,25.47,1.62,23.44.91,46.92,1,70.39,0,5.39-1.09,6.19-6.65,5.45a14.13,14.13,0,0,0-3.95.06c-5.51.82-6.34.12-6.4-5.6,0-2.76-.08-5.52-.12-8.28l-1.09-.48a40.51,40.51,0,0,0-3.59,3.71A31.48,31.48,0,0,1,367.09,471a60.51,60.51,0,0,1-11.87-1c-8.85-1.73-15.69-6.35-19.23-15-4.66-11.39-4.26-22.33,2.9-32.73,4.14-6,10.21-9.12,16.88-10.79,7.55-1.9,15.3-3,23-4.33,5.23-.88,10.51-1.51,15.78-2.12,2.59-.3,3.25-2,3.44-4.13.92-10.39-8-21-18.57-21.78-10.27-.8-19.76,2-28.7,6.84C348.43,387.14,346.22,388.54,343.57,390.1Zm54.47,36c0-1.17,0-2.33,0-3.49-.14-4.13-1.2-5-5.15-4.42-4.25.63-8.54,1-12.76,1.84-6.18,1.17-12.39,2.31-18.42,4a15.63,15.63,0,0,0-7.48,4.56c-4.19,5-5.09,11-2.66,17.28,2.31,6,6.68,9.33,13,10.09.83.1,1.66.12,2.48.27a24,24,0,0,0,21.52-6.39C395.47,443.54,398.05,435.31,398,426.13Z"/>
          <path class="cls-1" d="M464,40.16c-.35-18.25,13.89-33.65,33.39-33.8,19.34-.16,34.18,13.62,34.35,34,.17,19.82-15.59,33.84-34,33.75C478.45,74,463.9,59.36,464,40.16Z"/>
          <path class="cls-1" d="M860.79,74.12A33.68,33.68,0,0,1,827,40.65,33.7,33.7,0,0,1,860.6,6.33c19.94-.11,34.12,15.09,34.26,33.59A33.48,33.48,0,0,1,860.79,74.12Z"/>
          <path class="cls-1" d="M487.08,411.81c0-8.16,0-16.33,0-24.49,0-5.66-.53-6.13-6.38-6.22-1.67,0-3.34,0-5,0a9.71,9.71,0,0,1-2.48-.2c-2.81-.78-3.64-3.18-3.21-9,.23-3.16,1.17-4.49,4-4.72,3.14-.26,6.32-.06,9.48-.18s3.47-.33,3.53-3.47c.11-5,0-10,0-15s.72-5.9,5.55-7.48c2.69-.88,5.41-1.65,8.14-2.38s3.21-.45,3.27,2.53c.12,5.66,0,11.32.05,17,0,1.33-.06,2.67,0,4,.24,3.52,1.38,4.72,5,4.81,4.83.11,9.66,0,14.5,0,1.16,0,2.33,0,3.49.08a2.87,2.87,0,0,1,2.89,2.85c0,.17,0,.34,0,.5,1.25,10.15.79,10.67-9.38,10.66-3.33,0-6.67-.11-10,.05-4.41.22-6.43,2.13-6.47,6.58q-.18,20.23,0,40.48c0,4.8.63,9.59.88,14.4.41,7.69,5.34,15.16,16.31,13.63,1.31-.18,2.66-.12,4-.31,4.68-.65,4.68-.67,4.74,4.25.1,8.05-.31,8.25-8.35,10a36.59,36.59,0,0,1-16.79-.44c-7.69-1.87-13.16-6.43-15.18-14.28A58.05,58.05,0,0,1,488,444.2c-.6-10.79-.93-21.58-1.37-32.38Z"/>
          <path class="cls-1" d="M865.06,449.2c0,4.67,0,8.47,0,12.28a4.72,4.72,0,0,1-2.74,4.42,22.91,22.91,0,0,1-3.63,1.68c-12.81,4.1-25.78,5.33-38.7.87-18.3-6.31-28.22-19.53-31.06-38.52-1.71-11.42-1.19-22.69,3.24-33.29,7.23-17.33,19.87-28.16,39.1-30.8,7.88-1.08,15.56-.53,23.32.22.17,0,.34,0,.5.05,8.59,1.2,10,2.83,10,11.5v7.93a37.46,37.46,0,0,1-3.57-1.28,51.74,51.74,0,0,0-17.16-5,34.52,34.52,0,0,0-20.19,4.38c-12,6.48-16.58,17.54-18.17,30.33a43.71,43.71,0,0,0,4.3,25.6c7.21,14.38,24,19.09,35.85,17A43.33,43.33,0,0,0,859.28,452C860.88,451.09,862.55,450.38,865.06,449.2Z"/>
          <path class="cls-1" d="M439,416.48V374.05c0-1.33,0-2.66.06-4,.07-1.75,1-2.9,2.73-2.95,3.16-.09,6.33-.13,9.48.06a3.86,3.86,0,0,1,3.71,3.46,43.89,43.89,0,0,1,.93,6.88q.09,41.92,0,83.86a19.84,19.84,0,0,1-.1,3c-.4,2.78-1.73,4.44-4.48,4.47a45.89,45.89,0,0,1-9.83-1.07c-.95-.2-1.92-1.77-2.27-2.91a15.28,15.28,0,0,1-.26-4.45Q439,438.44,439,416.48Z"/>
          <path class="cls-1" d="M481,121.59c-1-9.6,7.53-16.81,16.78-16.91,11.38-.12,17.17,9.46,17.11,16.92-.07,9.37-8,17.69-17.12,17.19C486.7,138.17,480.24,130.14,481,121.59Z"/>
          <path class="cls-1" d="M844,121.92c-.67-8.64,6.37-17,16.13-17.41a17,17,0,0,1,17.91,16.8c.09,9.09-6.23,17.16-17.32,17.43C850.53,139,843.1,129.2,844,121.92Z"/>
          <path class="cls-1" d="M774.12,459.39c.62,5.79-3.55,11.17-11.09,11.42-6,.2-11.9-5.74-11.78-11.4A11.86,11.86,0,0,1,763,448.1C769.74,448.08,774.14,452.55,774.12,459.39Z"/>
          <path class="cls-1" d="M447,320c7.41-.29,11.54,5.46,11.89,11,.38,6-5.21,11-11.77,11a11,11,0,0,1-.12-22Z"/>
        </g>
      </g>
    </g>
  </g>
</svg>
