<svg xmlns="http://www.w3.org/2000/svg" width="2500" height="442.72" viewBox="0 0 2500 442.72">
  <defs>
    <style>
      .cls-1 {
        fill: #020202;
      }
    </style>
  </defs>
  <title>Asset 1</title>
  <g id="Layer_2" data-name="Layer 2">
    <g id="Layer_1-2" data-name="Layer 1">
      <path class="cls-1" d="M0,.26c70.38.09,140.79-1,211.13.64C265.36,2.15,307.85,39,317,89.29c10.35,57-19.2,105.58-64.78,118.63-1.16.33-2.1,1.4-3.66,2.49,43.45,12.44,69.39,41.2,76.69,84.28,12,71.1-27.17,129.51-101.25,137.78-16.43,1.83-33.12,1.78-49.69,1.87-58.1.31-116.2.3-174.3.41ZM93.57,351.8c1.2.41,2.41,1.19,3.61,1.19,29.16.05,58.38,1.08,87.48-.3,30.11-1.43,48-19.93,48.81-47.21s-15.73-47.16-45.22-50.7c-18.64-2.24-37.68-1.21-56.55-1.48-12.5-.17-25,0-38.13,0V351.8Zm-.64-179.38c27.18,0,53,.05,78.81,0,5,0,10,0,14.88-.94,18.22-3.66,31.95-13,36.72-32,7.61-30.29-11.69-56.45-43-58-14.57-.72-29.2-.2-43.81-.21-14.16,0-28.33,0-42.93,0-.29,3.13-.62,5.05-.62,7,0,27.52,0,55,0,84.25Zm1585.25,270.3c-11-2-22.12-3.61-33-6.22-85.09-20.4-128.45-93.64-121-174.57,6.23-67.76,40.39-117.3,105.45-140.23,90.84-32,196.18,11.21,211.73,132.07,2.05,16,2,32.22,2.92,49.77H1609.69c5.44,29.78,20.45,50.67,46.64,61.77,42.54,18,82.4,9.05,120-15.14,2.23-1.43,4.27-3.13,6.43-4.66.22-.15.63,0,2.14,0l36.71,54c-12.1,7.55-23.27,15.73-35.46,21.85-22.43,11.28-46.55,17.25-71.6,19.34-2.86.23-5.64,1.31-8.45,2Zm85.12-196.37c1.64-39-35.54-68.83-82.62-67-39.15,1.54-74,34.7-69.78,67ZM2015,442.72c-13.54-2.72-27.3-4.65-40.58-8.31-63.41-17.5-107.16-71.13-112.92-136.67-5.43-61.83,12.49-114.23,62.12-153.23,75.21-59.11,223-45.7,252.38,94.14a213.27,213.27,0,0,1,4,30.53c.67,10.86.15,21.8.15,34.35h-233c2,17.48,8.81,31.54,20.08,43.17,25.77,26.6,57.94,31.61,92.7,25.51,22.15-3.89,42.59-12.3,61-28.07l37.52,55c-9.77,6.53-18.62,13.45-28.34,18.76-24.16,13.22-50.31,20.2-77.69,22.76-3.18.29-6.29,1.35-9.43,2.06Zm-67.37-196.43H2100.2c2-37.82-34.34-67.87-80-67-40.47.79-75.51,32.8-72.6,67ZM472.36,442.72c-10-2-20-3.81-29.9-6.17C381.18,422,345,376.07,344.93,313q-.07-90.67,0-181.33V120.86h82.83V132.4c0,57.12.17,114.24-.07,171.36-.12,25.91,7.81,47.86,32.36,59.13,26.61,12.22,53.86,11.77,78.48-5.76,18-12.84,23.12-32.49,23.16-53.6q.17-85.18,0-170.37V120.67h81.94v11.19q0,89.67,0,179.34c0,72.14-44.94,121.72-116.89,129.28-3.56.38-7,1.47-10.55,2.23Zm782.17-9V.55h301.31v42c0,9.3-.63,18.65.17,27.89s-2.9,11-11.36,10.92c-59.45-.33-118.9-.18-178.36-.18h-18.8v91.22h11.22c44.84,0,89.68.26,134.52-.21,9.06-.09,11.18,2.79,11,11.35-.55,22.82-.19,45.67-.19,69.64h-157.2V433.75Zm946.6-.17V131.35c0-12.73,0-12.84,13.15-12.72,45.47.42,91.11-1.52,136.34,2,64.44,5,114.88,34,138.76,97.62,24.27,64.65,5.77,138.42-43.54,178.84-29.05,23.81-63.23,35.54-100.05,36.87-46.75,1.69-93.6.53-140.41.56a25.67,25.67,0,0,1-4.25-.93Zm79-66.49c15.88,0,30.74,0,45.61,0,53.49,0,87.17-30.16,93.17-83.38,4.3-38.22-16.37-76.23-49.29-89.72-29-11.89-59.29-5.57-89.49-7.25V367.09ZM810.65,191.62H670.3V120.53H924c0,13.41-.68,26.89.2,40.27.8,12.34-3,21.86-10.74,31.55C871.29,244.86,829.75,297.91,788,350.78c-2.24,2.83-4.37,5.75-7.86,10.36H925.71v72.45H669.53c0-19.79-.29-39.57.27-59.33.1-3.39,3.51-6.93,5.91-10Q740,282.46,804.34,200.72c1.78-2.27,3.3-4.76,6.31-9.1Zm137.74.08c0-22.44,0-43,0-63.56,0-2.27.37-4.54.64-7.48h253c0,19.11.21,37.91-.22,56.71-.07,2.83-2.86,5.81-4.86,8.35q-65.34,82.91-130.77,165.74c-2.15,2.73-4.07,5.64-7.43,10.31h12.7c41.17,0,82.35.17,123.52-.15,7.65-.06,10.51,1.82,10.29,10-.56,20.51-.19,41-.19,62.18H948.63c0-20.48-.16-40.62.21-60.74,0-2.53,2.69-5.16,4.5-7.46q62.73-79.87,125.56-159.69c3.2-4.07,6.33-8.19,10.95-14.19Z"/>
    </g>
  </g>
</svg>
