<svg xmlns="http://www.w3.org/2000/svg" width="365.62" height="331.44" viewBox="0 0 365.62 331.44"><g id="Layer_2" data-name="Layer 2"><g id="Layer_1-2" data-name="Layer 1"><path d="M365.41,199.15v28.46c-.32,0-.59.08-.86.08-9.26,0-18.52.21-27.76-.11-25.26-.86-47.33-9.76-65.83-27.06-15.72-14.7-25.65-32.84-31.06-53.55a125.22,125.22,0,0,1-4-37.56A115.5,115.5,0,0,1,260,43.4a107.39,107.39,0,0,1,56.73-39A115.58,115.58,0,0,1,348.8,0h16.57V28.65h-1.28c-5.43,0-10.87-.16-16.29.09-24.13,1.12-44.84,9.88-61.09,28.1a81.26,81.26,0,0,0-19,38.88,99.63,99.63,0,0,0-1.1,30.39c1.32,12.39,4.63,24.18,10.95,35,11.6,19.81,28.65,32.24,51.18,36.86a70.07,70.07,0,0,0,12.45,1.15c7.61.18,15.22.06,22.83.06Z"/><path d="M129.62,0V28.65h-1.33c-5.39,0-10.79-.15-16.18.09-22.71,1-42.53,8.88-58.56,25.3A79.84,79.84,0,0,0,32.14,95c-3.7,18.61-2.52,37,4.35,54.67,9.5,24.48,27,40.41,52.48,47.39a61.29,61.29,0,0,0,16.52,2.06c7.61,0,15.22,0,22.83,0h1.31V227.6c-.31,0-.62.09-.92.09-9.22,0-18.45.21-27.65-.11-26.23-.91-48.92-10.41-67.69-28.84-14.75-14.47-24.13-32.06-29.26-52A124.2,124.2,0,0,1,.32,106.42a115.6,115.6,0,0,1,23.9-62.93A107.59,107.59,0,0,1,78.85,5.06,115.17,115.17,0,0,1,113,0h16.58Z"/><path d="M.51,258.17H71.75V331.3H.51ZM59.38,293.6H12.93v2.16H59.38Z"/><path d="M176.86,100.58H148c0-.3-.06-.54-.06-.78,0-8.54-.08-17.07,0-25.61.17-11.92,1.83-23.61,6.19-34.8,5-12.83,12.93-23.27,24.89-30.4A60.48,60.48,0,0,1,202.91.92a134.6,134.6,0,0,1,14.2-.85c8.75-.13,17.5,0,26.25,0h1.35V28.65H243.4c-9.14,0-18.29-.06-27.43.08a46.65,46.65,0,0,0-18.43,3.85c-9.47,4.22-15.19,11.64-18.15,21.4a67.51,67.51,0,0,0-2.53,19.58c0,8.53,0,17.07,0,25.61Z"/><path d="M176.77,227.65H148V130h28.77Z"/><path d="M218.34,129.78h-29v-29h29Z"/><path d="M258.45,319.16l8.84,11.38c-2.37,0-4.53,0-6.68,0-.26,0-.57-.37-.77-.63-2.45-3.25-4.89-6.5-7.31-9.78a1.72,1.72,0,0,0-1.58-.82c-2.6.05-5.2,0-7.94,0v11.19H237.5V299.88h1c6.07,0,12.14,0,18.21,0a14,14,0,0,1,3.58.51c4.2,1.2,6.65,4.68,6.64,9.26a9.1,9.1,0,0,1-6.81,9.05C259.65,318.87,259.13,319,258.45,319.16Zm-15.4-5c3.17,0,6.2,0,9.23,0,1.71,0,3.43,0,5.13-.16a4.24,4.24,0,0,0,3.9-3.16,4.42,4.42,0,0,0-4.49-5.85c-4.36,0-8.71,0-13.07,0a5.62,5.62,0,0,0-.7.1Z"/><path d="M165.33,299.88c1.77,0,3.45,0,5.12,0a1.69,1.69,0,0,1,1,.62q9.09,10.74,18.17,21.52l.71.82V300h5.19v30.6c-1.77,0-3.51,0-5.25,0-.36,0-.74-.48-1-.82q-8.73-10.35-17.43-20.74l-1.23-1.44v23h-5.26Z"/><path d="M144.94,258c6.24.16,10.8,1.77,14.38,5.66A16,16,0,0,1,150.84,290a18.24,18.24,0,0,1-16.08-3c-4.94-3.73-6.85-8.88-6-14.92.9-6.48,4.79-10.7,10.86-12.85A35.13,35.13,0,0,1,144.94,258Zm1.29,27.32,1.07-.05a10.66,10.66,0,0,0,10.22-9.74c.56-5.71-2.69-10.48-8.17-11.79a16.27,16.27,0,0,0-4.46-.35,11,11,0,0,0-10,14.58C136.33,282.6,140.54,285.38,146.23,285.36Z"/><path d="M225.61,264.07v7.44h16.73v5.12H225.62v8h22.54v5c-.37,0-.75.05-1.12.05-8.61,0-17.22,0-25.83,0-1,0-1.24-.28-1.24-1.26,0-9.43,0-18.85,0-28.28,0-.35,0-.7,0-1.11h27.11v5Z"/><path d="M359.82,317.48H343.15v8h22.47v5h-28V300h27.1v5H343.12v7.4h16.7Z"/><path d="M291.12,276.58v8.05h22.51v5H285.57V259.12h27.11v4.93H291.16v7.48h16.7v5.05Z"/><path d="M158.79,305H137.25v7.39H154v5.06H137.25v8h22.51v5H131.68V300h27.11Z"/><path d="M209,317.44v8H231.5v5h-28V299.94h27.08v5H209v7.44H225.7v5.07Z"/><path d="M121.6,261.66l-2.15,4.52c-1.84-.6-3.61-1.23-5.41-1.75a22.55,22.55,0,0,0-10.39-.56,8.23,8.23,0,0,0-2.51.87c-1.82,1-1.87,3.21,0,4a37.31,37.31,0,0,0,6,1.72c3.18.76,6.43,1.31,9.58,2.19a11.83,11.83,0,0,1,4,2.16,7.94,7.94,0,0,1-.6,12.66,15.23,15.23,0,0,1-7.36,2.68,30.43,30.43,0,0,1-18.93-3.57l-.57-.35c.7-1.59,1.4-3.16,2-4.46,3,1,5.85,2.17,8.8,2.91a19.44,19.44,0,0,0,9.76-.07,8.29,8.29,0,0,0,2.52-1.13c2.12-1.44,2-4-.33-5a41.47,41.47,0,0,0-6.47-1.77c-3-.69-5.93-1.23-8.87-2a11.36,11.36,0,0,1-3.19-1.46,7.28,7.28,0,0,1-.64-12.06,13.31,13.31,0,0,1,6.58-2.62A29.65,29.65,0,0,1,121.6,261.66Z"/><path d="M119,315.31h5.32c0,.31.07.58.07.85,0,3.39,0,6.79,0,10.18a1.53,1.53,0,0,1-.49,1.14c-6.48,3.86-13.36,5.17-20.62,2.7a15.38,15.38,0,0,1-10.56-15.6,15.6,15.6,0,0,1,11.92-14.85,22.1,22.1,0,0,1,18.79,3.21c.23.16.44.35.73.58-1,1.48-1.91,2.93-2.73,4.17A65.88,65.88,0,0,0,115,305a15.31,15.31,0,0,0-8.87-.1,10.74,10.74,0,0,0,.6,20.7,19.2,19.2,0,0,0,11.54-1.1,1,1,0,0,0,.7-1.13C118.94,320.71,119,318.07,119,315.31Z"/><path d="M304.07,330.55c-1.81,0-3.56,0-5.3,0a1.29,1.29,0,0,1-.87-.69c-1-2-1.87-3.93-2.75-5.92a1.2,1.2,0,0,0-1.29-.82q-7.19,0-14.35,0a1.14,1.14,0,0,0-1.22.77c-.87,2-1.82,3.95-2.69,5.94a1.11,1.11,0,0,1-1.21.77c-1.67-.05-3.33,0-5.13,0,.22-.49.36-.85.53-1.19,4.5-9.5,9-19,13.51-28.51a1.44,1.44,0,0,1,1.61-1c1.32.07,2.64,0,4,.05a1.31,1.31,0,0,1,1,.53Q297,315.31,304,330.18A1.93,1.93,0,0,1,304.07,330.55Zm-17.34-24.83L281,318.07h11.43C290.53,314,288.68,309.94,286.73,305.72Z"/><path d="M197.28,281.55l2.94,4.47a19.28,19.28,0,0,1-5.79,3.17,23.2,23.2,0,0,1-15.34.17,15.93,15.93,0,0,1-.87-29.67c7.71-3.07,14.95-1.82,21.8,2.94-1,1.53-2,3-3,4.54-.36-.25-.66-.47-1-.68a16.23,16.23,0,0,0-14-2.46c-5,1.41-7.89,5.59-7.66,10.89a10.26,10.26,0,0,0,8.48,9.93,17.23,17.23,0,0,0,13.39-2.63C196.6,282,196.89,281.82,197.28,281.55Z"/><path d="M268.87,264v25.62h-5.52V264.09H251.22v-5H281V264Z"/><path d="M333.71,325.47v5H308.32V300h5.45v25.52Z"/><path d="M206.31,259.11h5.46v30.53h-5.46Z"/></g></g></svg>