<svg xmlns="http://www.w3.org/2000/svg" width="396.91" height="184.26" viewBox="0 0 396.91 184.26">
  <title>cnn-publisher-logo</title>
  <g id="Layer_2" data-name="Layer 2">
    <g id="Layer_1-2" data-name="Layer 1">
      <g>
        <path d="M.19,89.12c.13-.82.32-1.64.37-2.47A89.42,89.42,0,0,1,3.31,69.28,91.47,91.47,0,0,1,76.49,2.19,89.35,89.35,0,0,1,91.72.93Q106,1,120.21.94h1.18V22.82h-1.18c-9.79,0-19.58-.06-29.36,0a67.17,67.17,0,0,0-36.67,11,68.71,68.71,0,0,0-29.26,39.4,63.82,63.82,0,0,0-2.5,14.66c-1.05,20,5.18,37.38,18.79,52a67.81,67.81,0,0,0,33.95,19.87,70,70,0,0,0,17.07,2c18.7,0,37.4-.05,56.1,0A14.93,14.93,0,0,0,163.09,150a17.5,17.5,0,0,0,.31-3.47q0-28.47,0-57V35.13a7.43,7.43,0,0,1,.06-1.25,4.29,4.29,0,0,1,6.38-3.08A7.07,7.07,0,0,1,172.29,33a22.66,22.66,0,0,1,1.31,2q34.62,59.63,69.21,119.25a20.4,20.4,0,0,0,4.91,5.94,13.25,13.25,0,0,0,16.81,0,13,13,0,0,0,4.84-9.86c0-.29,0-.58,0-.87q0-57.19,0-114.4a6.1,6.1,0,0,1,.23-1.91,4.18,4.18,0,0,1,5.94-2.49,6.66,6.66,0,0,1,2.36,2,19,19,0,0,1,1.3,1.92q34.53,59.5,69.07,119a31.91,31.91,0,0,0,2.86,4.25,14.33,14.33,0,0,0,8.49,5.19,13.27,13.27,0,0,0,15.61-11.42c.08-.8.12-1.61.12-2.41q0-73.34,0-146.66V1.13c.73-.23,20.29-.3,21.73-.07v1.2q0,46.64,0,93.28,0,27.76,0,55.51A33.11,33.11,0,0,1,392.62,168a31.72,31.72,0,0,1-21.8,15.81,32.3,32.3,0,0,1-21.61-3.15,44.38,44.38,0,0,1-15-12.77,65.81,65.81,0,0,1-4.94-7.41q-18.58-32-37.2-64.05a3,3,0,0,0-.77-1c0,.29-.06.59-.06.89v9.4q0,22.32,0,44.65a34.55,34.55,0,0,1-4.11,16.85A31.73,31.73,0,0,1,265,183.77c-8.09,1.7-15.72.16-22.9-3.79a45.07,45.07,0,0,1-13.79-12.14,65.22,65.22,0,0,1-4.83-7.25l-37.2-64-.67-1.13-.22,0c0,.41,0,.81,0,1.21v49.8a52.79,52.79,0,0,1-1.06,11.35,33.57,33.57,0,0,1-6.07,13.58,30.6,30.6,0,0,1-17,10.89,45.47,45.47,0,0,1-11.78,1.44c-19.51,0-39,.06-58.53,0a88.59,88.59,0,0,1-47.43-13.77,90.52,90.52,0,0,1-38-47.44,85.32,85.32,0,0,1-4.52-20c-.21-2-.35-4-.54-6a7.29,7.29,0,0,0-.23-1Z" transform="translate(-0.19 -0.19)"/>
        <path d="M273.06.19l2.57.36a35.2,35.2,0,0,1,15.25,6,49,49,0,0,1,13,13.43c.88,1.31,1.72,2.66,2.51,4Q325,56.13,343.69,88.24c.19.33.4.64.59,1l.15-.07.06-.07a.24.24,0,0,0,0-.09,2.64,2.64,0,0,0,0-.29q0-43.68,0-87.37a.36.36,0,0,1,0-.1l0-.09c.66-.22,20.48-.29,21.79-.07,0,.23.05.48.06.73s0,.45,0,.68v147a8.66,8.66,0,0,1-.08,1.35,4.27,4.27,0,0,1-6.33,3,8.36,8.36,0,0,1-3.22-3.27c-1-1.67-2-3.34-2.94-5L287.05,30.35A20.83,20.83,0,0,0,283,25.1a13.28,13.28,0,0,0-9.5-3.72A12.79,12.79,0,0,0,261.79,29a11.64,11.64,0,0,0-1.19,4.85c0,.49,0,1,0,1.46q0,57,0,113.91a8.73,8.73,0,0,1-.11,1.54,4.26,4.26,0,0,1-5.89,3.24,6.13,6.13,0,0,1-2.51-1.93,19.11,19.11,0,0,1-1.53-2.23q-32.82-56.52-65.62-113l-4-6.95a18.87,18.87,0,0,0-4.89-5.7,13.2,13.2,0,0,0-17.64,1.12,12.8,12.8,0,0,0-3.76,9.07c0,.52,0,1,0,1.55q0,55.17,0,110.34a9.24,9.24,0,0,1-.25,2.29A6,6,0,0,1,149,152.9c-.39,0-.78,0-1.17,0-18.44,0-36.88,0-55.32,0A59.44,59.44,0,0,1,63.64,146c-16.84-9.1-27.53-23-31.34-41.79a60.49,60.49,0,0,1,40-69.44,56.62,56.62,0,0,1,15.24-3c1.7-.1,3.42-.17,5.13-.17h28.7V53.47H92.13a38.79,38.79,0,0,0-11.2,76A37.15,37.15,0,0,0,91.62,131c11.62,0,23.25,0,34.88,0a6.18,6.18,0,0,0,6.24-6.26c0-.42,0-.84,0-1.26q0-44.41,0-88.83a35.34,35.34,0,0,1,2.37-13.55C139.54,10.26,147.49,3.45,159,.85c1.16-.26,2.37-.31,3.55-.47a7.68,7.68,0,0,0,.83-.19h3.88a3.14,3.14,0,0,0,.73.19,26,26,0,0,1,5.53.91,38.11,38.11,0,0,1,16.37,9.18,57.66,57.66,0,0,1,10.69,13.68q18.62,32.07,37.25,64.12c.18.32.38.63.58.94l.22-.06V88q0-26.62,0-53.26a44.23,44.23,0,0,1,.33-5.4,32.76,32.76,0,0,1,8.41-18.56A31.52,31.52,0,0,1,266.62.57c.92-.14,1.84-.25,2.76-.38Z" transform="translate(-0.19 -0.19)"/>
      </g>
    </g>
  </g>
</svg>
