<svg xmlns="http://www.w3.org/2000/svg" width="774.33" height="217.81" viewBox="0 0 774.33 217.81">
  <defs>
    <style>
      .cls-1 {
        fill: #231f20;
      }
    </style>
  </defs>
  <title>Asset 1</title>
  <g id="Layer_2" data-name="Layer 2">
    <g id="Layer_1-2" data-name="Layer 1">
      <g id="Ibotta-Pink-logo">
        <g>
          <g>
            <path class="cls-1" d="M.82,69.09H48.68L44.92,212.24H1.87Z"/>
            <path class="cls-1" d="M120.78.61l-1,69.84q17.91-5.86,33.11-5.87A60.65,60.65,0,0,1,189,76.32q29.21,20.93,29.2,61.86,0,37.63-25.28,59.16-22.12,19-53.89,19a104,104,0,0,1-50.42-13.1A86.06,86.06,0,0,1,75,194q2.87-10.83,2.71-26.94L75.93,34A155.86,155.86,0,0,0,73.52,8.14Zm-2,110,.3,61.11a40.38,40.38,0,0,0,21.53,6.31q18.51,0,29-14.59,7.06-9.78,7.07-24.08,0-17.61-10.84-26.79a35.34,35.34,0,0,0-23.63-8.44A47.75,47.75,0,0,0,118.82,110.64Z"/>
            <path class="cls-1" d="M308.32,63.23a72.51,72.51,0,0,1,39.43,11.59Q383.29,97.4,383.27,140a73.71,73.71,0,0,1-8,33.41A75.62,75.62,0,0,1,342.79,207,78,78,0,0,1,305,216.45q-35.37,0-57-25.44Q230.5,170.4,230.51,142.1q0-34,24.68-57.65Q277.47,63.22,308.32,63.23Zm-.15,39.43q-17,0-27.24,13.7Q272.5,128,272.5,141a38.18,38.18,0,0,0,9.63,25.74q9.78,11.29,23.33,11.28a31.45,31.45,0,0,0,20.17-7.37q15.19-12,15.2-31.15,0-17.76-12.49-29.36Q320.21,102.67,308.17,102.66Z"/>
            <path class="cls-1" d="M488.64,78.88,488.48,114l-35.52-.3-.9,34-.15,6.63q0,10.23,3.16,14.9,5.26,7.53,13.7,7.53,6.47,0,16.7-4.82l11,28.45q-19.41,14.29-38.68,14.29t-33.26-12.79Q410.83,189.21,411,171.59l.15-58.69-19.26-.6L392,78h19.72l.15-21.07q.28-16.86-1.06-24.24l43.2.45c0,2.21-.15,5.78-.45,10.69-.1,1.71-.21,5.52-.31,11.44l-.6,23Z"/>
            <path class="cls-1" d="M597.31,78.88,597.16,114l-35.52-.3-.9,34-.15,6.63q0,10.23,3.16,14.9,5.25,7.53,13.69,7.53,6.46,0,16.71-4.82l11,28.45q-19.42,14.29-38.68,14.29-19.43,0-33.27-12.79t-13.55-30.26l.15-58.69-19.26-.6L500.68,78H520.4l.15-21.07q.3-16.86-1.06-24.24l43.2.45c0,2.21-.15,5.78-.45,10.69q-.15,2.56-.3,11.44l-.6,23Z"/>
            <path class="cls-1" d="M620,75.87q31-11.28,57.34-11.29t44,12q14.45,9.93,16.25,29.51a59.17,59.17,0,0,1,.3,6.17l.3,47.41q.3,30.56,9.94,48l-39.29,10.09-5.57-14.76q-15.19,13.26-37.18,13.25-26.49,0-41.84-19.72-11.88-15.35-11.88-33.41,0-22.28,17-36.58,15.5-13.09,37.93-13.09,14.6,0,31.31,7.22-2.86-23.18-28-23.18a101.21,101.21,0,0,0-39.89,8.59Zm55.69,65.32a20.64,20.64,0,0,0-16.11,7.08q-6,6.61-6,14.29,0,8.9,7.38,16.11a20.71,20.71,0,0,0,15,6,21.79,21.79,0,0,0,16.86-7.52,18.91,18.91,0,0,0,5-13.25q0-10.08-6.47-16.41A21.58,21.58,0,0,0,675.73,141.19Z"/>
            <path class="cls-1" d="M48.73,53.19H45.9C10.63,53.19,0,33.52,0,33.52V0S11.87,11.36,45.18,11.36h3.55Z"/>
          </g>
          <path class="cls-1" d="M769.85,74.83A15.25,15.25,0,0,1,743.78,64a15.28,15.28,0,1,1,26.07,10.85ZM749.73,54.69A12.73,12.73,0,0,0,745.9,64a12.88,12.88,0,0,0,3.81,9.37,13.13,13.13,0,0,0,18.62,0,13.3,13.3,0,0,0,0-18.68,13.11,13.11,0,0,0-18.6,0Zm9,.85a12.61,12.61,0,0,1,4.58.61,4.17,4.17,0,0,1,2.6,4.25,3.65,3.65,0,0,1-1.64,3.31,6.27,6.27,0,0,1-2.42.82,4,4,0,0,1,2.88,1.64,4.58,4.58,0,0,1,.91,2.6V70c0,.39,0,.8,0,1.24a2.74,2.74,0,0,0,.15.88l.1.21h-2.77l0-.17s0-.12,0-.19l-.06-.54V70.11c0-1.94-.53-3.22-1.58-3.84a7.17,7.17,0,0,0-3.3-.54h-2.33v6.6h-2.95V55.54Zm3.19,2.65a7.63,7.63,0,0,0-3.58-.63h-2.53v6.08h2.68a8.08,8.08,0,0,0,2.82-.37A2.59,2.59,0,0,0,763,60.64,2.54,2.54,0,0,0,761.92,58.19Z"/>
        </g>
      </g>
    </g>
  </g>
</svg>
