<svg xmlns="http://www.w3.org/2000/svg" width="88.77" height="19.84" viewBox="0 0 88.77 19.84">
  <defs>
    <style>
      .cls-1 {
        fill: #020b05;
      }
    </style>
  </defs>
  <title>klarna-pub-logo</title>
  <g id="Layer_2" data-name="Layer 2">
    <g id="Layer_1-2" data-name="Layer 1">
      <g>
        <path class="cls-1" d="M77.93,6.86a7.11,7.11,0,1,0,0,11.74v.86h4V6h-4ZM74.27,16.2a3.57,3.57,0,0,1-3.66-3.47,3.66,3.66,0,0,1,7.31,0A3.56,3.56,0,0,1,74.27,16.2Z"/>
        <rect class="cls-1" x="18.44" width="4.22" height="19.46"/>
        <path class="cls-1" d="M59.67,5.64a4.89,4.89,0,0,0-4.15,1.88V6h-4V19.46h4.06V12.39a2.83,2.83,0,0,1,3-3.05c1.77,0,2.79,1.06,2.79,3v7.1h4V10.9C65.41,7.77,62.92,5.64,59.67,5.64Z"/>
        <path class="cls-1" d="M35.41,6.86a7.11,7.11,0,1,0,0,11.74v.86h4V6h-4ZM31.75,16.2a3.57,3.57,0,0,1-3.66-3.47,3.66,3.66,0,0,1,7.31,0A3.56,3.56,0,0,1,31.75,16.2Z"/>
        <path class="cls-1" d="M45.68,7.76V6H41.55V19.46h4.14V13.18c0-2.12,2.29-3.26,3.89-3.26h.05V6A5,5,0,0,0,45.68,7.76Z"/>
        <path class="cls-1" d="M86.24,14.69a2.53,2.53,0,1,0,2.53,2.53A2.53,2.53,0,0,0,86.24,14.69Z"/>
        <path class="cls-1" d="M15.54,0H11.16A11.16,11.16,0,0,1,6.64,9l-1.73,1.3,6.71,9.15h5.52L11,11.05A15.5,15.5,0,0,0,15.54,0Z"/>
        <rect class="cls-1" width="4.38" height="19.47"/>
      </g>
    </g>
  </g>
</svg>
