<svg xmlns="http://www.w3.org/2000/svg" width="1194.45" height="274.96" viewBox="0 0 1194.45 274.96">
  <defs>
    <style>
      .cls-1 {
        fill: #221f20;
      }
    </style>
  </defs>
  <title>meredith-pub-logo</title>
  <g id="Layer_2" data-name="Layer 2">
    <g id="Layer_1-2" data-name="Layer 1">
      <g id="Tm7XtG">
        <g>
          <path class="cls-1" d="M423.91,191.75h-25v-2.92c0-20.71.12-41.43-.23-62.14-.13-8.23-3.21-15.55-10.73-20-13.55-8-30.05-.36-33.07,15.29a52.13,52.13,0,0,0-.88,9.66c-.08,19.06,0,38.11,0,57.16v2.88H329.05V83.49h24.8V95.88c9.57-10.21,20.73-15.43,34.23-14.83s24.28,6.27,30.9,18.61c2.15-2.47,4-5,6.29-7.17C437.3,81,451.55,78.25,467,83.25c15.17,4.9,23.59,16,26.24,31.61a51,51,0,0,1,.63,8.19q.07,33.31,0,66.64c0,.66-.07,1.31-.11,2H468.88c0-1.11,0-2.09,0-3.07,0-20.71.12-41.43-.25-62.14-.14-8.13-3.25-15.36-10.66-19.77-13.61-8.11-30.22-.37-33.15,15.43a57.59,57.59,0,0,0-.86,10.16c-.08,18.73,0,37.45,0,56.17Z"/>
          <path class="cls-1" d="M916.51,94.87V42.18h25V191.72H916.61V179.6c-1.75,1.53-3.09,2.81-4.55,4-22.94,18-65.08,14.66-78.69-23.2-7.3-20.31-6-40.66,6.77-58.82,11-15.58,26.65-21.91,45.58-20.2,11.55,1,21.77,5.16,30.16,13.36C916,94.78,916.16,94.78,916.51,94.87Zm-32.82,7.9c-10.8.42-20.23,6.2-25.63,17.9-4.2,9.11-4.54,18.67-1.9,28.25,3.71,13.42,14.23,22.15,27.68,23.31,11.82,1,24-6.34,29.53-17.92,3.59-7.52,4.26-15.42,3.17-23.6C914.44,114.91,901.12,102.79,883.69,102.77Z"/>
          <path class="cls-1" d="M1121.84,95.52c6.46-7.62,14-12.12,23-13.73,10.19-1.81,20.11-.77,29.36,4.07,12.16,6.35,18.06,17,19.7,30.19a93.08,93.08,0,0,1,.5,11.21c0,20.55,0,41.1,0,61.65v2.81h-25V189q0-29.33,0-58.66a31,31,0,0,0-3.56-15.37A20.44,20.44,0,0,0,1149,104c-16.32-1.42-26.91,8.33-27,24.87-.1,20,0,39.94,0,59.9v2.9h-24.86V42.21h24.73Z"/>
          <path class="cls-1" d="M617.83,146.43H538.47c1.83,17,16.11,28.47,33.2,27.24a39.94,39.94,0,0,0,25.18-11.23c.59-.56,1.23-1.07,1.92-1.67L613.4,173.7a52.14,52.14,0,0,1-11.83,11c-22.13,15.16-58.83,12.92-77.25-11.83-8.46-11.37-11.71-24.32-11-38.26.78-15.92,6.48-29.81,18.53-40.61,11.34-10.17,24.81-14,39.91-12.75,24.37,2,40.24,19,44.81,42,1.31,6.61,1.13,13.53,1.59,20.31A16.58,16.58,0,0,1,617.83,146.43Zm-79.51-16.69h54.82c-.34-12.69-9-27.6-25.7-28.24C548.4,100.78,539.32,117.23,538.32,129.74Z"/>
          <path class="cls-1" d="M815.11,146.42H735.62c1.72,10.25,6,18.77,15.46,23.4,13.83,6.81,27.08,4.77,39.37-4.27,1.93-1.42,3.68-3.07,5.66-4.75l14.6,12.94c-6.45,7.83-14.18,13.75-23.7,17-15,5.09-30,5-44.5-1.46-18.56-8.29-28.71-23.11-31.38-43-1.89-14.19.29-27.78,8-40,11.67-18.6,28.72-26.76,50.56-24.83,14.47,1.29,26.2,7.67,34.72,19.5A58.22,58.22,0,0,1,815,130.27C815.49,135.53,815.11,140.87,815.11,146.42Zm-24.59-16.67c-.6-12.81-9.17-28.57-27.65-28.27-14.27.23-27.84,14.2-27.12,28.27Z"/>
          <path class="cls-1" d="M137.67,27.61c5.54-5.51,10.74-11.43,16.68-16.47,13.17-11.16,28.37-14,44.59-8.22s26,17.64,29.38,34.58c.53,2.67.59,5.43.87,8.13,3.93.63,8,1,11.88,2A45,45,0,0,1,274.9,89c.58,13.76-4.2,25.34-13.9,35-4.48,4.46-8.92,9-13.37,13.46h-.36q-8.91-9-17.83-17.92l-.06-.31c4.89-4.86,9.87-9.63,14.64-14.61a19.61,19.61,0,0,0-27.53-27.88c-5.08,4.77-9.88,9.86-14.8,14.8l-.28,0c-.61-.68-1.2-1.37-1.84-2l-16-16.1c4.68-4.71,9.39-9.4,14-14.16,4.87-5,6.82-11,5.42-17.81-1.56-7.62-6.31-12.72-13.76-15s-14-.32-19.48,5C165,36.2,160.39,41,155.69,45.67l-.35,0c-.59-.68-1.15-1.39-1.78-2Q145.63,35.63,137.67,27.61Z"/>
          <path class="cls-1" d="M27.43,137.51c-4.56-4.61-9.14-9.2-13.67-13.85C1.11,110.68-3,95.29,2.24,78,7.58,60.64,19.9,50.39,37.7,46.68a32.43,32.43,0,0,1,4-.47c1.31-.12,2.63-.16,3.82-.23.81-4.47,1.23-9,2.44-13.22,9-31.88,49-43.29,73.49-21,5.52,5,10.62,10.55,15.91,15.85L119.4,45.52Q112.17,38.47,105,31.4a19,19,0,0,0-14.52-5.64c-8.21.36-14.14,4.6-17.34,12.17C70,45.29,71,52.27,76.42,58.21c4.83,5.27,10,10.23,15,15.32l-18,18.08C68.57,86.72,63.76,81.76,58.8,77a18.8,18.8,0,0,0-12.57-5.37A19.55,19.55,0,0,0,27.34,83.36a19.15,19.15,0,0,0,4.1,21.83q7,7.11,14,14.18c-.72.8-1.4,1.62-2.15,2.39L27.79,137.48A1.46,1.46,0,0,0,27.43,137.51Z"/>
          <path class="cls-1" d="M247.27,137.51h.36q6.92,7,13.84,14c20.9,21,17,54.93-8.09,70.7a43.74,43.74,0,0,1-21.68,6.6c-.82,0-1.63.09-2.13.12-.86,4.74-1.27,9.41-2.59,13.8-9.63,32-49.81,42.68-74.14,19.8-5.2-4.89-10.09-10.12-15.12-15.2.73-.78,1.44-1.59,2.19-2.36q7.76-7.86,15.53-15.71h.36c5.1,5.13,10,10.41,15.34,15.32A17.74,17.74,0,0,0,186.91,249c8-1.44,13.45-6.13,15.75-13.88,2.21-7.44.28-14.12-5.18-19.69-4.6-4.69-9.23-9.34-13.85-14,.63-.66,1.23-1.34,1.87-2l15.87-16h.34c4.93,4.94,9.71,10,14.81,14.78a19.59,19.59,0,0,0,28-27.31c-4.77-5.3-10.08-10.12-15.15-15.15v-.36Z"/>
          <path class="cls-1" d="M27.43,137.51a1.46,1.46,0,0,1,.36,0l5,5.17,12.66,13c-4.86,4.89-9.81,9.7-14.55,14.7a19.36,19.36,0,0,0,.45,27.19c7.45,7.5,19.58,8,27,.9,5.11-4.86,10-10,15-15a1.31,1.31,0,0,1,.27-.06l17.87,18c-4.81,4.84-9.64,9.65-14.43,14.51a18.08,18.08,0,0,0-5.51,15.16c.91,8.2,5.21,14.21,13.07,17s15,.76,21-5.1c4.58-4.47,9.1-9,13.65-13.52l18.07,17.92c-5.38,5.32-10.49,10.94-16.19,15.91-13.1,11.42-28.26,14.57-44.67,8.9s-26.18-17.37-29.7-34.29c-.6-2.9-.77-5.89-1.1-8.55-4.46-.77-8.89-1.12-13.07-2.32-33.2-9.59-43.5-50.81-19-75.73C18.26,146.7,22.86,142.11,27.43,137.51Z"/>
          <path class="cls-1" d="M1025.51,42.17h25.09V83.26h24.76v15c0,6.56,0,6.56-6.67,6.56h-17.88c-.07.8-.18,1.44-.18,2.07,0,14.64-.05,29.29,0,43.93a41.5,41.5,0,0,0,.87,8.16c1.53,7.51,6.85,12.14,14.54,12.87,3,.28,6,.47,9.1.72v21.61c-5.52-.46-11-.71-16.37-1.4a44.35,44.35,0,0,1-18.48-6.32c-8.14-5.2-12.25-12.94-13.76-22.17a79.27,79.27,0,0,1-1-12.4q-.1-54,0-108.07Z"/>
          <path class="cls-1" d="M639,83.44h24.74V99.27l.57.35a36.64,36.64,0,0,1,16.26-14.25,51.41,51.41,0,0,1,21.48-4.1v25.49c-3.85.21-7.68.19-11.44.68-15.3,2-25.9,13-26.38,28.43-.54,17.61-.27,35.26-.35,52.89v3H639Z"/>
          <path class="cls-1" d="M996,191.78H971.19V83.45H996Z"/>
          <path class="cls-1" d="M119.4,45.52l17.92-17.89a1,1,0,0,1,.35,0q8,8,15.89,16.06c.63.64,1.19,1.35,1.78,2L137.48,63.53c-.68-.59-1.39-1.15-2-1.78q-8-7.92-16.06-15.87A.87.87,0,0,1,119.4,45.52Z"/>
          <path class="cls-1" d="M137.43,247.4l-18.07-17.92a.47.47,0,0,1,0-.46l18.07-17.87.23,0c.62.67,1.23,1.35,1.87,2l15.9,16.08q-7.75,7.84-15.53,15.71c-.75.77-1.46,1.58-2.19,2.36A.72.72,0,0,1,137.43,247.4Z"/>
          <path class="cls-1" d="M971.15,42.12h24.71v24.4H971.15Z"/>
          <path class="cls-1" d="M201.69,91.59q9.39,9.48,18.79,19c2.93,3,5.93,5.82,8.9,8.73l.06.31-18,17.92-.37-.06-27.68-27.63,0-.32,18-17.87Z"/>
          <path class="cls-1" d="M155.69,45.67q11.37,11.44,22.73,22.9c1.63,1.64,3.24,3.31,4.85,5l-17.92,17.9c-1.78-1.73-3.56-3.44-5.33-5.19q-11.28-11.16-22.56-22.35c0-.12,0-.24,0-.36L155.34,45.7Z"/>
          <path class="cls-1" d="M211.47,137.51l18-17.92q8.91,9,17.83,17.92l-17.88,17.86Z"/>
          <path class="cls-1" d="M165.35,91.43l17.92-17.9.33,0,16,16.1c.64.65,1.23,1.34,1.84,2l-18,17.87c-.67-.6-1.38-1.17-2-1.81q-8.06-7.95-16.09-15.92A1.9,1.9,0,0,1,165.35,91.43Z"/>
          <path class="cls-1" d="M91.43,73.53a2.17,2.17,0,0,1,.36,0c.66.73,1.3,1.49,2,2.19q7.84,8,15.7,15.88l-18,17.92-18-17.74,0-.16Z"/>
          <path class="cls-1" d="M45.47,119.37a1.61,1.61,0,0,0,.38,0c.65.73,1.28,1.5,2,2.2q7.83,7.94,15.68,15.84c-1.08,1.15-2.14,2.31-3.24,3.44Q53,148.21,45.79,155.56l-.33.05-12.66-13-5-5.17,15.53-15.72C44.07,121,44.75,120.17,45.47,119.37Z"/>
          <path class="cls-1" d="M229.39,155.73q-13.83,13.85-27.68,27.68h-.34l-17.91-18a.86.86,0,0,1-.05-.27l27.69-27.73.37.06,17.92,17.86Z"/>
          <path class="cls-1" d="M183.45,201.49,155.8,229.26h-.36l-15.9-16.08c-.64-.64-1.25-1.32-1.87-2q13.85-13.83,27.68-27.68Z"/>
          <path class="cls-1" d="M183.45,201.49l-18.1-18a.46.46,0,0,1,0-.41c.76-.63,1.57-1.21,2.27-1.9q8-7.86,15.86-15.76l17.91,18-15.87,16c-.64.64-1.24,1.32-1.87,2Z"/>
          <path class="cls-1" d="M73.39,183.44,53.11,163l-7.32-7.42q7.24-7.35,14.47-14.71c1.1-1.13,2.16-2.29,3.23-3.44h.39c.61.67,1.19,1.36,1.83,2q12.89,12.95,25.8,25.88L73.66,183.38A1.31,1.31,0,0,0,73.39,183.44Z"/>
          <path class="cls-1" d="M73.66,183.38,91.51,165.3h.25c.62.67,1.22,1.36,1.86,2q7.95,8,15.93,16.08l-17.84,18h-.18Z"/>
          <path class="cls-1" d="M109.48,91.59q-7.86-7.94-15.7-15.88c-.69-.7-1.33-1.46-2-2.19,5.66-5.72,11.3-11.46,17-17.16,3.51-3.52,7.09-7,10.63-10.48q8,7.93,16.06,15.87c.64.63,1.35,1.19,2,1.78,0,.12,0,.24,0,.37q-13.82,13.84-27.62,27.71A1.45,1.45,0,0,0,109.48,91.59Z"/>
          <path class="cls-1" d="M109.84,183.4l27.6,27.75L119.37,229l-27.66-27.6,17.84-18A.93.93,0,0,0,109.84,183.4Z"/>
          <path class="cls-1" d="M183.42,109.82l-27.6,27.65h-.34l-17.74-18,27.6-27.66q8,8,16.09,15.92c.64.64,1.35,1.21,2,1.81Z"/>
          <path class="cls-1" d="M63.88,137.42h-.39q-7.83-7.92-15.67-15.84c-.69-.7-1.32-1.47-2-2.2l27.58-27.6,18,17.74a1.35,1.35,0,0,0,0,.29Z"/>
          <path class="cls-1" d="M91.43,109.8a1.35,1.35,0,0,1,0-.29l18-17.92a1.45,1.45,0,0,1,.36,0L130,112q3.67,3.72,7.34,7.46l-18,18q-13-13-26.07-26.07A24,24,0,0,0,91.43,109.8Z"/>
          <path class="cls-1" d="M155.48,137.46h.34l27.59,27.7a.87.87,0,0,0,.05.28q-7.92,7.89-15.86,15.76c-.7.69-1.51,1.27-2.27,1.9l-27.7-27.6Z"/>
          <path class="cls-1" d="M91.76,165.3l27.64-27.63,18.14,17.86-27.7,27.87a.93.93,0,0,1-.29,0q-8-8-15.93-16.08C93,166.66,92.38,166,91.76,165.3Z"/>
          <path class="cls-1" d="M137.54,155.53,119.4,137.67v-.22l18-18h.38l17.74,18-17.85,18Z"/>
        </g>
      </g>
    </g>
  </g>
</svg>
