<svg xmlns="http://www.w3.org/2000/svg" width="2667.05" height="400.01" viewBox="0 0 2667.05 400.01">
  <title>pmc-publisher-logo</title>
  <g id="Layer_2" data-name="Layer 2">
    <g id="Layer_1-2" data-name="Layer 1">
      <g id="Layer_2-2" data-name="Layer 2">
        <g id="Layer_1-2-2" data-name="Layer 1-2">
          <g>
            <path d="M650,0c7.3,1.35,14.67,2.39,21.88,4.11C692.3,9,710.5,17.68,723.15,35.33c8.63,12,12.63,25.65,12.78,40.29.25,24.15.74,48.34-.09,72.47-1.25,36.63-20.76,61.13-53.53,75.72A132.56,132.56,0,0,1,627.92,235q-279.9.1-559.8,0H61V400H0V180H626.42A116.91,116.91,0,0,0,641.84,179c21-2.8,33.06-14.49,34.23-35.71a438.3,438.3,0,0,0-.48-53.88C674.27,70,663.94,60.3,644.83,58a136.65,136.65,0,0,0-16.42-1.09Q317,56.81,5.49,56.84C3.66,56.84,1.83,57,0,57V0Z"/>
            <path d="M2667,56c-2.33.06-4.66.16-7,.16q-292.68,0-585.36.06c-15.54,0-30.91,1.89-45.67,7.15-27.59,9.82-43.87,31.08-44.83,60.53-.88,26.79-.58,53.63-.61,80.45,0,23.49-.43,47,.43,70.46,1.21,33.32,20,56.55,52.73,64.88a160.82,160.82,0,0,0,39,4.93q292.18.47,584.36.22c2.33,0,4.66.1,7,.16v55H2050c-9.62-1.68-19.32-3-28.86-5.1-17.52-3.79-34.11-10.11-49.06-20.21-29.25-19.74-43.55-48.11-47-82.51-.78-7.77-.86-15.62-.87-23.44-.07-47.3-.21-94.61,0-141.91.1-19.76,3.28-39.11,11.2-57.42,13.93-32.18,39.3-51.19,72.21-60.06,16.11-4.34,33-5.7,49.57-8.41L2063,0h604Z"/>
            <path d="M950,0a32.58,32.58,0,0,0,3.64,3q185.83,113.48,371.63,227c2.94,1.79,4.84,1.47,7.52-.12q156.4-93.07,312.87-186L1714.32,3A32.12,32.12,0,0,0,1718,0h46c0,9-.32,18,0,27,.16,4.51-1.23,7.07-5.2,9.43q-132.29,78.87-264.4,158c-41.7,24.94-83.48,49.77-125.09,74.86-29.9,18-59.5,18.25-89.53.23q-191-114.6-382.08-228.9c-3-1.79-4-3.74-4-7.13.25-11.16.18-22.32.24-33.48Z"/>
            <path d="M1703,400c0-2.16.16-4.33.16-6.49q0-136.47-.09-272.95c0-4,1.23-6.18,4.7-8.15,17.19-9.83,34.23-19.93,51.33-29.93,1.4-.82,2.83-1.59,4.79-2.68.11,2,.27,3.37.27,4.77V396c0,1.33-.1,2.66-.16,4Z"/>
            <path d="M894,400c-.06-1.66-.16-3.33-.16-5V79.9c1.74.86,3,1.4,4.23,2.1,17.52,10.25,35,20.63,52.6,30.7,3.21,1.83,4.26,3.79,4.25,7.39q-.13,136.69-.07,273.41c0,2.16.11,4.33.16,6.49Z"/>
          </g>
        </g>
      </g>
    </g>
  </g>
</svg>
