<svg xmlns="http://www.w3.org/2000/svg" width="1485.96" height="235.62" viewBox="0 0 1485.96 235.62">
  <defs>
    <style>
      .cls-1 {
        fill: #231f20;
      }
    </style>
  </defs>
  <title>shopback-pub-logo_1</title>
  <g id="Layer_2" data-name="Layer 2">
    <g id="Layer_1-2" data-name="Layer 1">
      <g>
        <path class="cls-1" d="M121.67,85.16c-6.4,1.27-9.6-1.61-10.56-8C108.87,64,98.31,55.7,83.26,55.7c-12.49,0-20.17,7.36-18.89,14.73,4.48,25,105.65,24.33,105.65,98,0,9.6-10.89,66.27-86.76,66.27C16,234.66,1.62,190.48,0,165.51c-.32-5.77,2.57-9.29,8.33-10.57l36.17-8c6.41-1.28,9.93,1.6,10.57,8.32,1.28,15.37,13.12,24.33,28.17,24.33,15.69,0,27.21-9.28,25.29-17.92C102.47,134.45,6.11,140.54,6.11,66.91,5.78,57.3,11.55.64,83.26.64c65.94,0,81.31,42.9,83.23,66,.32,5.76-2.56,9.28-8.32,10.56Z"/>
        <path class="cls-1" d="M238.52,5.76c6.09,0,9.61,3.52,9.61,9.61v80c0,6.08,3.52,9.6,9.6,9.6h30.73c6.41,0,9.61-3.52,9.61-9.6v-80c0-6.09,3.52-9.61,9.6-9.61h35.86q9.6,0,9.6,9.61V220.25c0,6.08-3.2,9.6-9.6,9.6H307.67c-6.08,0-9.6-3.52-9.6-9.6V169.67q0-9.6-9.61-9.6H257.73c-6.08,0-9.6,3.2-9.6,9.6v50.58c0,6.08-3.2,9.6-9.61,9.6H202.67c-6.08,0-9.6-3.52-9.6-9.6V15.37q0-9.61,9.6-9.61Z"/>
        <path class="cls-1" d="M542.65,157.82c0,21.14-4.48,77.8-80.36,77.8s-80.35-56.66-80.35-77.8v-80C381.94,56.66,386.42,0,462.29,0s80.36,56.66,80.36,77.79ZM487.59,94.76c0-24.65-1.61-39.7-25.3-39.7S437,70.11,437,94.76v46.1c0,24.65,1.59,39.69,25.28,39.69s25.3-15,25.3-39.69Z"/>
        <path class="cls-1" d="M651.49,5.76c57,0,80,24.33,80,76.83s-23,76.83-80,76.83H636.13c-6.09,0-9.61,3.21-9.61,9.61v51.22q0,9.62-9.6,9.6H581.06c-6.08,0-9.6-3.52-9.6-9.6V15.68c0-6.4,3.2-9.6,9.6-9.92Zm1.92,98.6c15.37,0,23.05-1.92,23.05-21.77s-7.68-21.77-23.05-21.77H636.13c-6.09,0-9.61,3.2-9.61,9.61V94.76c0,6.08,3.52,9.6,9.61,9.6Z"/>
        <path class="cls-1" d="M828.2,5.76c60.19,0,83.24,24.33,83.24,76.83,0,10.89-3.2,32-16.33,46.42,13.13,6.08,22.73,22.09,22.73,41.94,0,39.7-17.61,58.9-77.79,58.9H761c-6.08,0-9.61-3.52-9.61-9.6V15.68c0-6.4,3.21-9.6,9.61-9.92Zm7.69,178.63c15.37,0,23.05-1.6,23.05-16.64s-7-17.29-22.41-17.29H815.72c-6.08,0-9.6,3.2-9.6,9.61v14.72c0,6.4,3.52,9.6,9.6,9.6Zm-2.56-80c15.36,0,23-1.92,23-21.77s-7.69-21.77-23-21.77H816c-6.08,0-9.6,3.2-9.6,9.61V94.76c0,6.4,3.52,9.6,9.6,9.6Z"/>
        <path class="cls-1" d="M1094.24,219c0,7-3.2,10.88-9.61,10.88h-35.85c-6.08,0-9.6-3.19-9.6-9.6V192.4q0-9.6-9.61-9.61H1002c-6.08,0-9.6,3.21-9.6,9.61v27.85q0,9.62-9.61,9.6H947c-6.09,0-9.61-3.84-9.61-10.88V83.23C937.37,42.9,943.78,0,1015.81,0s78.43,42.9,78.43,83.23ZM1039.18,83.23c0-15.36-2.25-23.05-23.37-23.05s-23.37,7.69-23.37,23.05v34.9c0,6.08,3.52,9.6,9.6,9.6h27.53c6.4-.32,9.61-3.52,9.61-9.92Z"/>
        <path class="cls-1" d="M1121.45,77.79c0-21.13,4.48-77.79,80.35-77.79,68.19,0,78.75,45.78,80,70.43.32,4.48-2.57,8-7,9l-35.53,8c-6.73,1.29-11.85-3.2-12.81-9.92-1.6-14.09-7.36-22.41-24.65-22.41-23.69,0-25.29,15-25.29,39.7v46.1c0,24.65,1.6,39.69,25.29,39.69,17.61,0,22.41-8.32,24.33-23.05,1-6.72,6.08-10.88,12.49-9.28l36.17,8a8.53,8.53,0,0,1,7,9.29c-1.29,24.33-11.85,70.11-80,70.11-75.87,0-80.35-56.66-80.35-77.8Z"/>
        <path class="cls-1" d="M1483.84,218.33c4.48,6.4,1.6,11.52-6.08,11.52h-48c-5.13,0-8.64-1.92-11.53-6.4l-39.7-60.82c-1.28-1.92-3.19-1.92-4.47,0l-13.13,17.92a6.43,6.43,0,0,0-1.28,4.16v35.54c0,6.08-3.2,9.6-9.61,9.6h-36.49c-6.08,0-9.6-3.52-9.6-9.6V15.37c0-6.41,3.52-9.61,9.6-9.61H1350q9.62,0,9.61,9.61V79.71c0,3.2,2.24,3.84,3.84,1.28l50.26-69.15a12.86,12.86,0,0,1,11.52-6.08h47.38c8,0,10.57,5.12,6.09,11.85l-64.67,89c-1,1.6-1.28,2.88,0,4.48Z"/>
      </g>
    </g>
  </g>
</svg>
