<svg width="280" height="65" viewBox="0 0 280 65" fill="none" xmlns="http://www.w3.org/2000/svg">
<path d="M96.9056 38.1479C97.2836 37.1398 97.7876 36.7618 98.5437 36.7618C99.2367 36.7618 99.8667 37.3288 99.8667 38.2739C99.8667 40.353 96.7166 45.6453 89.9122 45.6453C83.4228 45.6453 79.2015 41.235 78.8235 35.5017C78.6975 33.5486 78.6975 30.4614 78.8235 28.4453C79.1385 22.5859 83.6118 18.5537 89.9122 18.5537C96.7166 18.5537 99.8037 23.783 99.8037 25.8621C99.8037 26.8702 99.1737 27.4372 98.4177 27.4372C97.7246 27.4372 97.2206 27.0592 96.8426 26.0512C95.7085 22.901 92.7473 21.3889 89.9122 21.3889C85.3129 21.3889 82.0367 24.287 81.8477 28.4453C81.7217 30.3354 81.7217 33.7376 81.8477 35.5647C82.2257 39.7859 85.1869 42.8101 89.9122 42.8101C92.6843 42.9361 95.7085 41.424 96.9056 38.1479Z" fill="#242424"/>
<path d="M121.225 40.6675V33.296C118.327 32.477 116.311 32.036 113.854 32.036C108.939 32.036 106.671 34.4301 106.671 37.4543C106.671 40.8565 108.939 42.8096 113.854 42.8096C116.5 42.8096 119.587 41.8645 121.225 40.6675ZM124.123 41.5495C124.123 42.1165 123.997 42.4946 123.493 42.9356C122.107 43.9436 118.39 45.7078 113.413 45.7078C107.112 45.7078 103.773 42.4946 103.773 37.3913C103.773 32.792 107.175 29.2638 113.665 29.2638C116.185 29.2638 118.264 29.6418 121.225 30.3979V28.2557C121.225 23.5935 119.02 21.6404 114.358 21.6404C111.774 21.6404 109.506 22.4594 107.931 23.0894C106.608 23.6565 105.726 22.9004 105.726 21.9554C105.726 21.4513 105.978 20.8213 106.608 20.5063C108.246 19.6242 111.27 18.7422 114.358 18.7422C120.721 18.7422 124.123 21.3883 124.123 27.8147V41.5495Z" fill="#242424"/>
<path d="M142.898 20.6958C142.898 21.3258 142.457 22.0188 141.323 22.0188C140.252 22.0188 139.37 21.5778 137.543 21.5778C134.141 21.5778 132.503 23.0899 132.503 26.6181V43.9441C132.503 44.8262 131.873 45.5192 131.054 45.5192C130.235 45.5192 129.604 44.8262 129.604 43.9441V26.4921C129.604 21.6408 132.44 18.8057 137.48 18.8057C139.181 18.8057 140.819 19.0577 141.638 19.3097C142.52 19.4357 142.898 20.0027 142.898 20.6958Z" fill="#242424"/>
<path d="M155.247 42.9364C157.956 42.9364 161.421 41.6133 162.618 40.6682V23.4682C161.295 22.6492 158.019 21.5151 154.68 21.5151C149.954 21.5151 147.812 23.9093 147.308 28.5085C147.182 30.1466 147.119 33.8008 147.308 35.6909C147.812 40.4792 150.332 42.9364 155.247 42.9364ZM154.806 18.6799C157.83 18.6799 160.665 19.562 162.618 20.3811V11.1195C162.618 10.2375 163.248 9.60742 164.067 9.60742C164.886 9.60742 165.516 10.2375 165.516 11.1195V41.2353C165.516 41.8023 165.453 42.1803 164.886 42.6213C163.752 43.5034 159.531 45.7085 155.184 45.7085C148.568 45.7085 144.851 41.8653 144.347 35.5649C144.221 33.8008 144.221 30.2726 144.347 28.5085C144.914 22.2082 148.505 18.6799 154.806 18.6799Z" fill="#242424"/>
<path d="M177.55 12.0646V42.6844C177.55 44.1965 176.416 45.3936 174.904 45.3936C173.518 45.3936 172.258 44.1965 172.258 42.6844V12.0646C172.258 10.5525 173.392 9.35547 174.904 9.35547C176.353 9.35547 177.55 10.5525 177.55 12.0646Z" fill="#242424"/>
<path d="M180.449 22.334C179.567 20.3178 181.079 18.4277 182.843 18.4277C184.229 18.4277 185.174 19.3098 185.552 20.4438L192.356 36.6988C192.419 36.8248 192.482 36.8248 192.545 36.8248C192.671 36.8248 192.734 36.7618 192.797 36.6988L199.035 20.5699C199.476 19.3098 200.421 18.4277 201.744 18.4277C203.697 18.4277 205.083 20.3808 204.264 22.334L194.813 44.8263C192.797 49.6145 190.025 52.9537 187.946 54.2768C187.253 54.7178 186.434 55.0329 185.678 55.0329C184.292 55.0329 183.158 54.0248 183.158 52.5127C183.158 51.7567 183.536 50.8746 184.292 50.3706C186.119 49.2365 188.198 47.0314 189.584 43.4402L180.449 22.334Z" fill="#242424"/>
<path d="M231.229 21.7668C231.229 20.3807 230.095 19.3727 228.709 19.3727H212.265V15.5925C212.265 14.0804 211.068 12.8833 209.619 12.8833C208.107 12.8833 206.973 14.0804 206.973 15.5925V36.6987C206.973 41.802 209.619 45.7712 215.352 45.7712C217.242 45.7712 219.447 45.4562 220.959 44.8261C222.283 44.2591 222.787 43.3771 222.787 42.369C222.787 40.8569 221.59 39.4708 219.51 39.9749C218.376 40.2899 217.179 40.7309 215.856 40.7309C213.399 40.7309 212.265 39.2818 212.265 36.7617V24.161H225.874V42.747C225.874 44.2591 227.134 45.4562 228.52 45.4562C230.032 45.4562 231.166 44.2591 231.166 42.747C231.229 42.684 231.229 21.8298 231.229 21.7668ZM228.52 14.9624C230.158 14.9624 231.481 13.5763 231.481 11.8752C231.481 10.2371 230.158 8.91406 228.52 8.91406C226.756 8.91406 225.496 10.2371 225.496 11.8752C225.496 13.5763 226.756 14.9624 228.52 14.9624Z" fill="#242424"/>
<path d="M252.399 36.9509C252.903 35.9428 253.659 35.5018 254.73 35.5018C256.179 35.5018 257.25 36.6359 257.25 38.211C257.25 40.7311 253.659 45.7084 246.539 45.7084C239.924 45.7084 235.388 41.1091 234.884 35.3128C234.758 33.2337 234.758 30.2095 234.884 28.1934C235.262 22.2081 240.05 18.0498 246.539 18.0498C253.659 18.0498 257.187 23.0271 257.187 25.5472C257.187 27.0593 256.179 28.2564 254.667 28.2564C253.659 28.2564 252.903 27.8154 252.399 26.8073C251.265 24.2872 249.059 23.1531 246.665 23.1531C242.885 23.1531 240.554 25.2952 240.302 28.6974C240.176 30.0205 240.176 33.1077 240.302 34.6828C240.617 38.022 242.759 40.5421 246.665 40.5421C249.059 40.6051 251.265 39.471 252.399 36.9509Z" fill="#242424"/>
<path d="M279.301 37.4549C279.301 42.5582 275.017 45.7714 269.157 45.7714C264.936 45.7714 261.975 44.6374 259.896 42.8733C258.888 41.9912 258.699 40.4791 259.392 39.471C260.211 38.337 261.534 38.085 262.92 38.967C264.558 40.1011 266.259 40.9201 269.409 40.9201C272.497 40.9201 274.009 39.5341 274.009 37.5809C274.009 36.1319 273.127 35.1868 270.543 34.6198C268.842 34.2417 268.842 34.2418 266.952 33.7377C262.542 32.6037 259.644 30.2725 259.644 26.1773C259.644 21.137 263.928 18.0498 269.535 18.0498C272.434 18.0498 275.395 18.9949 277.159 20.4439C278.293 21.326 278.104 23.0271 277.411 23.8461C276.592 24.7912 275.206 24.8542 273.946 24.2242C272.497 23.3421 271.047 22.9641 269.346 22.9641C266.259 22.9641 264.81 24.0982 264.81 26.1143C264.81 27.5004 265.692 28.2564 268.275 28.9494L272.182 29.8315C276.844 30.9656 279.301 33.4227 279.301 37.4549Z" fill="#242424"/>
<path d="M39.0051 13.0088H26.2783V25.7355H39.0051V13.0088Z" fill="#0075C9"/>
<path d="M39.0051 25.7988H26.2783V38.5256H39.0051V25.7988Z" fill="white"/>
<path d="M0.761719 0.282227V38.5254H13.5515V25.7987H26.2782V13.009H39.0679V0.282227H0.761719Z" fill="#54C0E8"/>
<path d="M26.278 25.7988H13.5513V38.5256H26.278V25.7988Z" fill="#0075C9"/>
<path d="M39.0681 25.7988V38.5256H26.2783V51.3153H51.7948V25.7988H39.0681Z" fill="#0075C9"/>
<path d="M39.0679 13.0088V25.7985H51.7946V51.315H64.5214V13.0088H39.0679Z" fill="#54C0E8"/>
<path d="M26.278 51.3151V38.5254H13.5513V64.0419H51.7945V51.3151H26.278Z" fill="#00A7E1"/>
</svg>
