<?xml version="1.0" encoding="UTF-8"?><svg id="Layer_1" xmlns="http://www.w3.org/2000/svg" viewBox="0 0 48 48"><defs><style>.cls-1{fill:none;stroke:#f3755d;stroke-linejoin:round;stroke-width:2px;}</style></defs><rect class="cls-1" x="16" y="35" width="16" height="12"/><rect class="cls-1" x="32" y="39" width="15" height="8"/><rect class="cls-1" x="1" y="41" width="15" height="6"/><path class="cls-1" d="M28,5c0,2.76-1.79,5-4,5s-4-2.24-4-5,1.79-4,4-4,4,1.24,4,4Z"/><line class="cls-1" x1="19" y1="25" x2="19" y2="35"/><line class="cls-1" x1="24" y1="27" x2="24" y2="35"/><line class="cls-1" x1="29" y1="25" x2="29" y2="35"/><path class="cls-1" d="M19,15v10h-2c-1.1,0-2-.9-2-2V14.58c0-2.04,1.53-3.75,3.56-3.98l5.44-.6"/><path class="cls-1" d="M29,15v10h2c1.1,0,2-.9,2-2V14.58c0-2.04-1.53-3.75-3.56-3.98l-5.44-.6"/><line class="cls-1" x1="19" y1="23" x2="29" y2="23"/><line class="cls-1" x1="41" y1="3" x2="46" y2="3"/><line class="cls-1" x1="38" y1="10" x2="43" y2="10"/><line class="cls-1" x1="40" y1="15" x2="45" y2="15"/><line class="cls-1" x1="37" y1="22" x2="42" y2="22"/><line class="cls-1" x1="8" y1="7" x2="13" y2="7"/><line class="cls-1" x1="2" y1="14" x2="7" y2="14"/><line class="cls-1" x1="6" y1="19" x2="11" y2="19"/></svg>