<?xml version="1.0" encoding="UTF-8"?><svg id="Layer_1" xmlns="http://www.w3.org/2000/svg" viewBox="0 0 48 48"><defs><style>.cls-1{fill:none;stroke:#f3755d;stroke-linejoin:round;stroke-width:2px;}</style></defs><polyline class="cls-1" points="37 47 1 47 1 1 47 1 47 37"/><line class="cls-1" x1="36" y1="9" x2="47" y2="9"/><line class="cls-1" x1="1" y1="9" x2="14" y2="9"/><line class="cls-1" x1="4" y1="5" x2="6" y2="5"/><line class="cls-1" x1="8" y1="5" x2="10" y2="5"/><line class="cls-1" x1="12" y1="5" x2="14" y2="5"/><circle class="cls-1" cx="25" cy="25" r="16"/><polyline class="cls-1" points="34 39 42 47 47 42 39 34"/><line class="cls-1" x1="25" y1="20" x2="25" y2="32"/><line class="cls-1" x1="20" y1="24" x2="20" y2="32"/><line class="cls-1" x1="35" y1="18" x2="35" y2="32"/><line class="cls-1" x1="30" y1="22" x2="30" y2="32"/><line class="cls-1" x1="15" y1="28" x2="15" y2="32"/></svg>