<?xml version="1.0" encoding="UTF-8"?><svg id="Layer_1" xmlns="http://www.w3.org/2000/svg" viewBox="0 0 48 47"><defs><style>.cls-1{fill:none;stroke:#f3755d;stroke-linejoin:round;stroke-width:1.88px;}</style></defs><g><path class="cls-1" d="M40.65,29.63c-1.69,4.26-4.97,7.72-9.11,9.65"/><path class="cls-1" d="M31.54,6.79c3.51,1.63,6.4,4.37,8.23,7.76"/><path class="cls-1" d="M8.23,14.55c1.83-3.39,4.72-6.13,8.23-7.76"/><path class="cls-1" d="M16.46,39.27c-4.14-1.92-7.42-5.38-9.11-9.65"/></g><g><path class="cls-1" d="M26.83,4.18c0,2.02-1.27,3.77-2.83,3.77s-2.83-1.75-2.83-3.77,1.27-2.83,2.83-2.83,2.83,.8,2.83,2.83Z"/><path class="cls-1" d="M29.65,14.55v-4.06c0-.92-.67-1.71-1.58-1.86l-4.08-.68-4.08,.68c-.91,.15-1.58,.94-1.58,1.86v4.06"/></g><g><path class="cls-1" d="M26.83,35.28c0,2.02-1.27,3.77-2.83,3.77s-2.83-1.75-2.83-3.77,1.27-2.83,2.83-2.83,2.83,.8,2.83,2.83Z"/><path class="cls-1" d="M29.65,45.65v-4.06c0-.92-.67-1.71-1.58-1.86l-4.08-.68-4.08,.68c-.91,.15-1.58,.94-1.58,1.86v4.06"/></g><g><path class="cls-1" d="M10.81,19.26c0,2.02-1.27,3.77-2.83,3.77s-2.83-1.75-2.83-3.77,1.27-2.83,2.83-2.83,2.83,.8,2.83,2.83Z"/><path class="cls-1" d="M13.63,29.63v-4.06c0-.92-.67-1.71-1.58-1.86l-4.08-.68-4.08,.68c-.91,.15-1.58,.94-1.58,1.86v4.06"/></g><g><path class="cls-1" d="M42.85,19.26c0,2.02-1.27,3.77-2.83,3.77s-2.83-1.75-2.83-3.77,1.27-2.83,2.83-2.83,2.83,.8,2.83,2.83Z"/><path class="cls-1" d="M45.67,29.63v-4.06c0-.92-.67-1.71-1.58-1.86l-4.08-.68-4.08,.68c-.91,.15-1.58,.94-1.58,1.86v4.06"/></g></svg>