<?xml version="1.0" encoding="UTF-8"?>
<svg width="405px" height="514px" viewBox="0 0 405 514" version="1.1" xmlns="http://www.w3.org/2000/svg" xmlns:xlink="http://www.w3.org/1999/xlink">
    <title>Group</title>
    <defs>
        <rect id="path-1" x="0" y="0" width="405" height="514"></rect>
    </defs>
    <g id="translations---outlined" stroke="none" stroke-width="1" fill="none" fill-rule="evenodd">
        <g id="ACI-DE-2021" transform="translate(-74.000000, -65.000000)">
            <g id="Group" transform="translate(74.000000, 65.000000)">
                <mask id="mask-2" fill="white">
                    <use xlink:href="#path-1"></use>
                </mask>
                <g id="Rectangle"></g>
                <g id="Group-4" mask="url(#mask-2)" fill-rule="nonzero">
                    <rect id="Rectangle-3" fill="#F4F2EF" x="0" y="0" width="405" height="231"></rect>
                    <path d="M107.864,147.072 C109.748,147.072 111.128,145.956 111.14,144.42 C111.152,142.728 109.88,142.296 108.44,142.032 C107.048,141.768 106.388,141.624 106.388,140.94 C106.388,140.292 106.94,139.968 107.708,139.968 C108.584,139.968 109.136,140.46 109.208,141.168 L110.972,141.168 C110.936,139.644 109.58,138.528 107.708,138.528 C105.884,138.528 104.576,139.596 104.576,141.072 C104.576,142.776 105.824,143.232 107.24,143.496 C108.644,143.772 109.328,143.916 109.328,144.624 C109.328,145.284 108.716,145.644 107.888,145.644 C106.856,145.644 106.208,145.08 106.148,144.264 L104.384,144.24 C104.408,145.872 105.824,147.072 107.864,147.072 Z M117.08,147 L117.08,140.148 L119.504,140.148 L119.504,138.6 L112.856,138.6 L112.856,140.148 L115.28,140.148 L115.28,147 L117.08,147 Z M127.76,147 L127.76,145.452 L123.788,145.452 L123.788,143.508 L126.908,143.508 L126.908,142.032 L123.788,142.032 L123.788,140.148 L127.628,140.148 L127.628,138.6 L121.988,138.6 L121.988,147 L127.76,147 Z M132.14,147 L132.14,138.6 L130.34,138.6 L130.34,147 L132.14,147 Z M138.728,147.072 C139.916,147.072 140.732,146.544 141.176,145.956 L141.368,147 L142.616,147 L142.616,142.332 L138.86,142.332 L138.86,143.76 L140.948,143.76 L140.948,143.868 C140.78,145.044 139.808,145.548 138.848,145.548 C137.408,145.548 136.568,144.42 136.568,142.8 C136.568,141.18 137.444,140.052 138.848,140.052 C139.88,140.052 140.564,140.664 140.78,141.588 L142.556,141.588 C142.328,139.776 140.924,138.528 138.896,138.528 C136.316,138.528 134.732,140.22 134.732,142.8 C134.732,145.38 136.328,147.072 138.728,147.072 Z M151.328,147 L151.328,145.452 L147.356,145.452 L147.356,143.508 L150.476,143.508 L150.476,142.032 L147.356,142.032 L147.356,140.148 L151.196,140.148 L151.196,138.6 L145.556,138.6 L145.556,147 L151.328,147 Z M155.708,147 L155.708,144.18 L157.232,144.18 L158.636,147 L160.628,147 L158.972,143.76 C159.848,143.34 160.412,142.476 160.412,141.396 C160.412,139.692 159.176,138.6 157.328,138.6 L153.908,138.6 L153.908,147 L155.708,147 Z M157.184,142.68 L155.708,142.68 L155.708,140.1 L157.184,140.1 C158.036,140.1 158.576,140.604 158.576,141.396 C158.576,142.176 158.036,142.68 157.184,142.68 Z M166.448,147.072 C168.716,147.072 169.904,145.764 169.904,143.376 L169.904,138.6 L168.104,138.6 L168.104,143.472 C168.104,144.804 167.612,145.524 166.448,145.524 C165.296,145.524 164.804,144.804 164.804,143.472 L164.804,138.6 L163.004,138.6 L163.004,143.376 C163.004,145.764 164.192,147.072 166.448,147.072 Z M174.548,147 L174.548,141.708 L178.112,147 L179.756,147 L179.756,138.6 L177.98,138.6 L177.98,143.892 L174.416,138.6 L172.784,138.6 L172.784,147 L174.548,147 Z M186.344,147.072 C187.532,147.072 188.348,146.544 188.792,145.956 L188.984,147 L190.232,147 L190.232,142.332 L186.476,142.332 L186.476,143.76 L188.564,143.76 L188.564,143.868 C188.396,145.044 187.424,145.548 186.464,145.548 C185.024,145.548 184.184,144.42 184.184,142.8 C184.184,141.18 185.06,140.052 186.464,140.052 C187.496,140.052 188.18,140.664 188.396,141.588 L190.172,141.588 C189.944,139.776 188.54,138.528 186.512,138.528 C183.932,138.528 182.348,140.22 182.348,142.8 C182.348,145.38 183.944,147.072 186.344,147.072 Z M200.564,147 C203.132,147 204.8,145.26 204.8,142.8 C204.8,140.34 203.132,138.6 200.564,138.6 L197.648,138.6 L197.648,147 L200.564,147 Z M200.564,145.5 L199.448,145.5 L199.448,140.1 L200.564,140.1 C202.124,140.1 202.964,141.204 202.964,142.8 C202.964,144.396 202.124,145.5 200.564,145.5 Z M213.176,147 L213.176,145.452 L209.204,145.452 L209.204,143.508 L212.324,143.508 L212.324,142.032 L209.204,142.032 L209.204,140.148 L213.044,140.148 L213.044,138.6 L207.404,138.6 L207.404,147 L213.176,147 Z M218.9,147.072 C220.784,147.072 222.164,145.956 222.176,144.42 C222.188,142.728 220.916,142.296 219.476,142.032 C218.084,141.768 217.424,141.624 217.424,140.94 C217.424,140.292 217.976,139.968 218.744,139.968 C219.62,139.968 220.172,140.46 220.244,141.168 L222.008,141.168 C221.972,139.644 220.616,138.528 218.744,138.528 C216.92,138.528 215.612,139.596 215.612,141.072 C215.612,142.776 216.86,143.232 218.276,143.496 C219.68,143.772 220.364,143.916 220.364,144.624 C220.364,145.284 219.752,145.644 218.924,145.644 C217.892,145.644 217.244,145.08 217.184,144.264 L215.42,144.24 C215.444,145.872 216.86,147.072 218.9,147.072 Z M232.58,147 C234.644,147 235.796,146.088 235.796,144.636 C235.796,143.436 235.028,142.848 233.84,142.692 C234.872,142.5 235.496,141.864 235.496,140.808 C235.496,139.404 234.368,138.6 232.424,138.6 L229.232,138.6 L229.232,147 L232.58,147 Z M232.472,142.056 L231.032,142.056 L231.032,140.016 L232.472,140.016 C233.252,140.016 233.696,140.412 233.696,141.036 C233.696,141.66 233.24,142.056 232.472,142.056 Z M232.592,145.572 L231.032,145.572 L231.032,143.448 L232.592,143.448 C233.444,143.448 233.948,143.844 233.948,144.528 C233.948,145.176 233.456,145.572 232.592,145.572 Z M243.62,147 L243.62,145.452 L240.284,145.452 L240.284,138.6 L238.484,138.6 L238.484,147 L243.62,147 Z M247.352,147 L248,145.164 L251.192,145.164 L251.84,147 L253.772,147 L250.724,138.6 L248.564,138.6 L245.492,147 L247.352,147 Z M250.7,143.712 L248.48,143.712 L249.584,140.52 L250.7,143.712 Z M259.46,147.072 C261.452,147.072 262.856,145.824 263.06,144 L261.26,144 C261.056,144.936 260.372,145.548 259.364,145.548 C257.996,145.548 257.18,144.408 257.18,142.8 C257.18,141.18 257.996,140.052 259.364,140.052 C260.372,140.052 261.056,140.664 261.26,141.6 L263.06,141.6 C262.856,139.776 261.452,138.528 259.46,138.528 C256.916,138.528 255.344,140.22 255.344,142.8 C255.344,145.38 256.916,147.072 259.46,147.072 Z M267.404,147 L267.404,144.792 L268.592,143.46 L270.992,147 L273.152,147 L269.864,142.068 L272.948,138.612 L270.764,138.612 L267.404,142.38 L267.404,138.612 L265.604,138.612 L265.604,147 L267.404,147 Z M278.78,144.276 L278.78,142.908 L274.58,142.908 L274.58,144.276 L278.78,144.276 Z M106.52,169 L106.52,165.592 L109.592,165.592 L109.592,164.116 L106.52,164.116 L106.52,162.148 L110.264,162.148 L110.264,160.6 L104.72,160.6 L104.72,169 L106.52,169 Z M114.548,169 L114.548,166.18 L116.072,166.18 L117.476,169 L119.468,169 L117.812,165.76 C118.688,165.34 119.252,164.476 119.252,163.396 C119.252,161.692 118.016,160.6 116.168,160.6 L112.748,160.6 L112.748,169 L114.548,169 Z M116.024,164.68 L114.548,164.68 L114.548,162.1 L116.024,162.1 C116.876,162.1 117.416,162.604 117.416,163.396 C117.416,164.176 116.876,164.68 116.024,164.68 Z M123.752,169 L123.752,160.6 L121.952,160.6 L121.952,169 L123.752,169 Z M129.596,169 C132.164,169 133.832,167.26 133.832,164.8 C133.832,162.34 132.164,160.6 129.596,160.6 L126.68,160.6 L126.68,169 L129.596,169 Z M129.596,167.5 L128.48,167.5 L128.48,162.1 L129.596,162.1 C131.156,162.1 131.996,163.204 131.996,164.8 C131.996,166.396 131.156,167.5 129.596,167.5 Z M137.264,169 L137.912,167.164 L141.104,167.164 L141.752,169 L143.684,169 L140.636,160.6 L138.476,160.6 L135.404,169 L137.264,169 Z M140.612,165.712 L138.392,165.712 L139.496,162.52 L140.612,165.712 Z M148.796,169 L148.796,165.88 L151.88,160.6 L149.876,160.6 L147.896,164.044 L146.012,160.6 L143.912,160.6 L146.996,165.88 L146.996,169 L148.796,169 Z M157.22,166.276 L157.22,164.908 L153.02,164.908 L153.02,166.276 L157.22,166.276 Z M163.304,169.072 C165.572,169.072 166.76,167.764 166.76,165.376 L166.76,160.6 L164.96,160.6 L164.96,165.472 C164.96,166.804 164.468,167.524 163.304,167.524 C162.152,167.524 161.66,166.804 161.66,165.472 L161.66,160.6 L159.86,160.6 L159.86,165.376 C159.86,167.764 161.048,169.072 163.304,169.072 Z M171.356,169 L171.356,163.372 L173.54,169 L175.004,169 L177.188,163.372 L177.188,169 L178.904,169 L178.904,160.6 L176.588,160.6 L174.332,166.768 L172.004,160.6 L169.64,160.6 L169.64,169 L171.356,169 Z M184.988,169.072 C186.872,169.072 188.252,167.956 188.264,166.42 C188.276,164.728 187.004,164.296 185.564,164.032 C184.172,163.768 183.512,163.624 183.512,162.94 C183.512,162.292 184.064,161.968 184.832,161.968 C185.708,161.968 186.26,162.46 186.332,163.168 L188.096,163.168 C188.06,161.644 186.704,160.528 184.832,160.528 C183.008,160.528 181.7,161.596 181.7,163.072 C181.7,164.776 182.948,165.232 184.364,165.496 C185.768,165.772 186.452,165.916 186.452,166.624 C186.452,167.284 185.84,167.644 185.012,167.644 C183.98,167.644 183.332,167.08 183.272,166.264 L181.508,166.24 C181.532,167.872 182.948,169.072 184.988,169.072 Z M191.732,169 L192.38,167.164 L195.572,167.164 L196.22,169 L198.152,169 L195.104,160.6 L192.944,160.6 L189.872,169 L191.732,169 Z M195.08,165.712 L192.86,165.712 L193.964,162.52 L195.08,165.712 Z M202.988,169 L202.988,162.148 L205.412,162.148 L205.412,160.6 L198.764,160.6 L198.764,162.148 L201.188,162.148 L201.188,169 L202.988,169 Z M214.388,169 L214.388,167.464 L209.972,167.464 L214.28,161.788 L214.28,160.6 L207.608,160.6 L207.608,162.136 L211.808,162.136 L207.5,167.812 L207.5,169 L214.388,169 Z M222.704,169 L222.704,167.452 L218.732,167.452 L218.732,165.508 L221.852,165.508 L221.852,164.032 L218.732,164.032 L218.732,162.148 L222.572,162.148 L222.572,160.6 L216.932,160.6 L216.932,169 L222.704,169 Z M228.428,169.072 C230.312,169.072 231.692,167.956 231.704,166.42 C231.716,164.728 230.444,164.296 229.004,164.032 C227.612,163.768 226.952,163.624 226.952,162.94 C226.952,162.292 227.504,161.968 228.272,161.968 C229.148,161.968 229.7,162.46 229.772,163.168 L231.536,163.168 C231.5,161.644 230.144,160.528 228.272,160.528 C226.448,160.528 225.14,161.596 225.14,163.072 C225.14,164.776 226.388,165.232 227.804,165.496 C229.208,165.772 229.892,165.916 229.892,166.624 C229.892,167.284 229.28,167.644 228.452,167.644 C227.42,167.644 226.772,167.08 226.712,166.264 L224.948,166.24 C224.972,167.872 226.388,169.072 228.428,169.072 Z M240.56,169 L240.56,160.6 L238.76,160.6 L238.76,169 L240.56,169 Z M245.204,169 L245.204,163.372 L247.388,169 L248.852,169 L251.036,163.372 L251.036,169 L252.752,169 L252.752,160.6 L250.436,160.6 L248.18,166.768 L245.852,160.6 L243.488,160.6 L243.488,169 L245.204,169 Z M109.004,191 L111.848,182.6 L109.988,182.6 L107.924,188.816 L105.908,182.6 L104,182.6 L106.856,191 L109.004,191 Z M119.84,191 L119.84,189.452 L115.868,189.452 L115.868,187.508 L118.988,187.508 L118.988,186.032 L115.868,186.032 L115.868,184.148 L119.708,184.148 L119.708,182.6 L114.068,182.6 L114.068,191 L119.84,191 Z M124.22,191 L124.22,188.18 L125.744,188.18 L127.148,191 L129.14,191 L127.484,187.76 C128.36,187.34 128.924,186.476 128.924,185.396 C128.924,183.692 127.688,182.6 125.84,182.6 L122.42,182.6 L122.42,191 L124.22,191 Z M125.696,186.68 L124.22,186.68 L124.22,184.1 L125.696,184.1 C126.548,184.1 127.088,184.604 127.088,185.396 C127.088,186.176 126.548,186.68 125.696,186.68 Z M135.164,191.072 C136.352,191.072 137.168,190.544 137.612,189.956 L137.804,191 L139.052,191 L139.052,186.332 L135.296,186.332 L135.296,187.76 L137.384,187.76 L137.384,187.868 C137.216,189.044 136.244,189.548 135.284,189.548 C133.844,189.548 133.004,188.42 133.004,186.8 C133.004,185.18 133.88,184.052 135.284,184.052 C136.316,184.052 137,184.664 137.216,185.588 L138.992,185.588 C138.764,183.776 137.36,182.528 135.332,182.528 C132.752,182.528 131.168,184.22 131.168,186.8 C131.168,189.38 132.764,191.072 135.164,191.072 Z M147.128,191 L147.128,189.452 L143.792,189.452 L143.792,182.6 L141.992,182.6 L141.992,191 L147.128,191 Z M155.372,191 L155.372,189.452 L151.4,189.452 L151.4,187.508 L154.52,187.508 L154.52,186.032 L151.4,186.032 L151.4,184.148 L155.24,184.148 L155.24,182.6 L149.6,182.6 L149.6,191 L155.372,191 Z M159.752,191 L159.752,182.6 L157.952,182.6 L157.952,191 L159.752,191 Z M166.46,191.072 C168.452,191.072 169.856,189.824 170.06,188 L168.26,188 C168.056,188.936 167.372,189.548 166.364,189.548 C164.996,189.548 164.18,188.408 164.18,186.8 C164.18,185.18 164.996,184.052 166.364,184.052 C167.372,184.052 168.056,184.664 168.26,185.6 L170.06,185.6 C169.856,183.776 168.452,182.528 166.46,182.528 C163.916,182.528 162.344,184.22 162.344,186.8 C162.344,189.38 163.916,191.072 166.46,191.072 Z M174.404,191 L174.404,187.532 L177.74,187.532 L177.74,191 L179.54,191 L179.54,182.6 L177.74,182.6 L177.74,185.972 L174.404,185.972 L174.404,182.6 L172.604,182.6 L172.604,191 L174.404,191 Z M193.436,191 L193.436,189.464 L189.02,189.464 L193.328,183.788 L193.328,182.6 L186.656,182.6 L186.656,184.136 L190.856,184.136 L186.548,189.812 L186.548,191 L193.436,191 Z M199.364,191.072 C201.632,191.072 202.82,189.764 202.82,187.376 L202.82,182.6 L201.02,182.6 L201.02,187.472 C201.02,188.804 200.528,189.524 199.364,189.524 C198.212,189.524 197.72,188.804 197.72,187.472 L197.72,182.6 L195.92,182.6 L195.92,187.376 C195.92,189.764 197.108,191.072 199.364,191.072 Z M207.416,191 L207.416,185.372 L209.6,191 L211.064,191 L213.248,185.372 L213.248,191 L214.964,191 L214.964,182.6 L212.648,182.6 L210.392,188.768 L208.064,182.6 L205.7,182.6 L205.7,191 L207.416,191 Z M226.664,191 L229.508,182.6 L227.648,182.6 L225.584,188.816 L223.568,182.6 L221.66,182.6 L224.516,191 L226.664,191 Z M235.172,191.072 C237.644,191.072 239.336,189.248 239.336,186.8 C239.336,184.352 237.644,182.528 235.172,182.528 C232.7,182.528 231.008,184.352 231.008,186.8 C231.008,189.248 232.7,191.072 235.172,191.072 Z M235.172,189.548 C233.756,189.548 232.844,188.384 232.844,186.8 C232.844,185.216 233.756,184.052 235.172,184.052 C236.576,184.052 237.488,185.216 237.488,186.8 C237.488,188.384 236.576,189.548 235.172,189.548 Z M243.728,191 L243.728,188.18 L245.252,188.18 L246.656,191 L248.648,191 L246.992,187.76 C247.868,187.34 248.432,186.476 248.432,185.396 C248.432,183.692 247.196,182.6 245.348,182.6 L241.928,182.6 L241.928,191 L243.728,191 Z M245.204,186.68 L243.728,186.68 L243.728,184.1 L245.204,184.1 C246.056,184.1 246.596,184.604 246.596,185.396 C246.596,186.176 246.056,186.68 245.204,186.68 Z M252.068,191 C253.484,191 254.3,190.184 254.3,188.768 L254.3,182.6 L252.5,182.6 L252.5,188.42 C252.5,189.116 252.224,189.452 251.516,189.452 L250.52,189.452 L250.52,191 L252.068,191 Z M258.152,191 L258.8,189.164 L261.992,189.164 L262.64,191 L264.572,191 L261.524,182.6 L259.364,182.6 L256.292,191 L258.152,191 Z M261.5,187.712 L259.28,187.712 L260.384,184.52 L261.5,187.712 Z M268.64,191 L268.64,187.532 L271.976,187.532 L271.976,191 L273.776,191 L273.776,182.6 L271.976,182.6 L271.976,185.972 L268.64,185.972 L268.64,182.6 L266.84,182.6 L266.84,191 L268.64,191 Z M278.504,191 L278.504,188.18 L280.028,188.18 L281.432,191 L283.424,191 L281.768,187.76 C282.644,187.34 283.208,186.476 283.208,185.396 C283.208,183.692 281.972,182.6 280.124,182.6 L276.704,182.6 L276.704,191 L278.504,191 Z M279.98,186.68 L278.504,186.68 L278.504,184.1 L279.98,184.1 C280.832,184.1 281.372,184.604 281.372,185.396 C281.372,186.176 280.832,186.68 279.98,186.68 Z" id="STEIGERUNGDESBLACK-FRIDAY-UMSATZESIMVERGLEICHZUMVORJAHR" fill="#025450"></path>
                    <path d="M128.975,117.036667 C142.75,117.036667 154.15,109.246667 154.15,93.9516667 C154.15,80.3666667 144.46,71.1516667 131.92,71.1516667 C126.22,71.1516667 121.565,73.0516667 118.145,76.2816667 L118.905,61.4616667 L150.065,61.4616667 L150.065,49.9666667 L106.46,49.9666667 L104.56,88.9166667 L117.765,88.9166667 C119.76,83.3116667 125.46,81.9816667 128.975,81.9816667 C135.91,81.9816667 140.375,87.0166667 140.375,93.9516667 C140.375,101.931667 134.77,105.826667 128.975,105.826667 C122.42,105.826667 117.86,101.076667 117.1,95.0916667 L103.515,95.0916667 C104.085,107.251667 113.49,117.036667 128.975,117.036667 Z M187.009444,117.036667 C200.784444,117.036667 212.184444,109.246667 212.184444,93.9516667 C212.184444,80.3666667 202.494444,71.1516667 189.954444,71.1516667 C184.254444,71.1516667 179.599444,73.0516667 176.179444,76.2816667 L176.939444,61.4616667 L208.099444,61.4616667 L208.099444,49.9666667 L164.494444,49.9666667 L162.594444,88.9166667 L175.799444,88.9166667 C177.794444,83.3116667 183.494444,81.9816667 187.009444,81.9816667 C193.944444,81.9816667 198.409444,87.0166667 198.409444,93.9516667 C198.409444,101.931667 192.804444,105.826667 187.009444,105.826667 C180.454444,105.826667 175.894444,101.076667 175.134444,95.0916667 L161.549444,95.0916667 C162.119444,107.251667 171.524444,117.036667 187.009444,117.036667 Z M237.728889,82.2666667 C247.798889,82.2666667 255.113889,75.3316667 255.113889,65.8316667 C255.113889,56.3316667 247.798889,49.3966667 237.728889,49.3966667 C227.753889,49.3966667 220.343889,56.3316667 220.343889,65.8316667 C220.343889,75.3316667 227.753889,82.2666667 237.728889,82.2666667 Z M244.283889,116.466667 L289.883889,49.9666667 L276.678889,49.9666667 L231.078889,116.466667 L244.283889,116.466667 Z M237.728889,72.5766667 C234.023889,72.5766667 231.173889,69.7266667 231.173889,65.8316667 C231.173889,61.9366667 234.023889,59.0866667 237.728889,59.0866667 C241.528889,59.0866667 244.378889,61.9366667 244.378889,65.8316667 C244.378889,69.7266667 241.528889,72.5766667 237.728889,72.5766667 Z M283.138889,117.036667 C293.113889,117.036667 300.523889,110.101667 300.523889,100.601667 C300.523889,91.1016667 293.113889,84.1666667 283.138889,84.1666667 C273.068889,84.1666667 265.753889,91.1016667 265.753889,100.601667 C265.753889,110.101667 273.068889,117.036667 283.138889,117.036667 Z M283.138889,107.346667 C279.338889,107.346667 276.488889,104.496667 276.488889,100.601667 C276.488889,96.8016667 279.338889,93.8566667 283.138889,93.8566667 C286.843889,93.8566667 289.693889,96.8016667 289.693889,100.601667 C289.693889,104.496667 286.843889,107.346667 283.138889,107.346667 Z" id="55%" fill="#42BFB6"></path>
                </g>
                <g id="Group-5" mask="url(#mask-2)" fill-rule="nonzero">
                    <g transform="translate(0.000000, 282.000000)">
                        <rect id="Rectangle-3" fill="#F4F2EF" x="0" y="0" width="405" height="231"></rect>
                        <path d="M129.165,101.466667 L129.165,34.9666667 L115.77,34.9666667 L115.77,41.4266667 C115.77,45.0366667 114.155,48.1716667 110.735,48.1716667 L100.76,48.1716667 L100.76,59.4766667 L111.875,59.4766667 C113.3,59.4766667 114.535,59.3816667 115.485,59.0016667 L115.485,101.466667 L129.165,101.466667 Z M167.239444,101.466667 L167.239444,34.9666667 L153.844444,34.9666667 L153.844444,41.4266667 C153.844444,45.0366667 152.229444,48.1716667 148.809444,48.1716667 L138.834444,48.1716667 L138.834444,59.4766667 L149.949444,59.4766667 C151.374444,59.4766667 152.609444,59.3816667 153.559444,59.0016667 L153.559444,101.466667 L167.239444,101.466667 Z M197.808888,67.2666667 C207.878888,67.2666667 215.193888,60.3316667 215.193888,50.8316667 C215.193888,41.3316667 207.878888,34.3966667 197.808888,34.3966667 C187.833888,34.3966667 180.423888,41.3316667 180.423888,50.8316667 C180.423888,60.3316667 187.833888,67.2666667 197.808888,67.2666667 Z M204.363888,101.466667 L249.963888,34.9666667 L236.758888,34.9666667 L191.158888,101.466667 L204.363888,101.466667 Z M197.808888,57.5766667 C194.103888,57.5766667 191.253888,54.7266667 191.253888,50.8316667 C191.253888,46.9366667 194.103888,44.0866667 197.808888,44.0866667 C201.608888,44.0866667 204.458888,46.9366667 204.458888,50.8316667 C204.458888,54.7266667 201.608888,57.5766667 197.808888,57.5766667 Z M243.218888,102.036667 C253.193888,102.036667 260.603888,95.1016667 260.603888,85.6016667 C260.603888,76.1016667 253.193888,69.1666667 243.218888,69.1666667 C233.148888,69.1666667 225.833888,76.1016667 225.833888,85.6016667 C225.833888,95.1016667 233.148888,102.036667 243.218888,102.036667 Z M243.218888,92.3466667 C239.418888,92.3466667 236.568888,89.4966667 236.568888,85.6016667 C236.568888,81.8016667 239.418888,78.8566667 243.218888,78.8566667 C246.923888,78.8566667 249.773888,81.8016667 249.773888,85.6016667 C249.773888,89.4966667 246.923888,92.3466667 243.218888,92.3466667 Z" id="11%" fill="#42BFB6"></path>
                        <path d="M107.864,135.072 C109.748,135.072 111.128,133.956 111.14,132.42 C111.152,130.728 109.88,130.296 108.44,130.032 C107.048,129.768 106.388,129.624 106.388,128.94 C106.388,128.292 106.94,127.968 107.708,127.968 C108.584,127.968 109.136,128.46 109.208,129.168 L110.972,129.168 C110.936,127.644 109.58,126.528 107.708,126.528 C105.884,126.528 104.576,127.596 104.576,129.072 C104.576,130.776 105.824,131.232 107.24,131.496 C108.644,131.772 109.328,131.916 109.328,132.624 C109.328,133.284 108.716,133.644 107.888,133.644 C106.856,133.644 106.208,133.08 106.148,132.264 L104.384,132.24 C104.408,133.872 105.824,135.072 107.864,135.072 Z M117.08,135 L117.08,128.148 L119.504,128.148 L119.504,126.6 L112.856,126.6 L112.856,128.148 L115.28,128.148 L115.28,135 L117.08,135 Z M127.76,135 L127.76,133.452 L123.788,133.452 L123.788,131.508 L126.908,131.508 L126.908,130.032 L123.788,130.032 L123.788,128.148 L127.628,128.148 L127.628,126.6 L121.988,126.6 L121.988,135 L127.76,135 Z M132.14,135 L132.14,126.6 L130.34,126.6 L130.34,135 L132.14,135 Z M138.728,135.072 C139.916,135.072 140.732,134.544 141.176,133.956 L141.368,135 L142.616,135 L142.616,130.332 L138.86,130.332 L138.86,131.76 L140.948,131.76 L140.948,131.868 C140.78,133.044 139.808,133.548 138.848,133.548 C137.408,133.548 136.568,132.42 136.568,130.8 C136.568,129.18 137.444,128.052 138.848,128.052 C139.88,128.052 140.564,128.664 140.78,129.588 L142.556,129.588 C142.328,127.776 140.924,126.528 138.896,126.528 C136.316,126.528 134.732,128.22 134.732,130.8 C134.732,133.38 136.328,135.072 138.728,135.072 Z M151.328,135 L151.328,133.452 L147.356,133.452 L147.356,131.508 L150.476,131.508 L150.476,130.032 L147.356,130.032 L147.356,128.148 L151.196,128.148 L151.196,126.6 L145.556,126.6 L145.556,135 L151.328,135 Z M155.708,135 L155.708,132.18 L157.232,132.18 L158.636,135 L160.628,135 L158.972,131.76 C159.848,131.34 160.412,130.476 160.412,129.396 C160.412,127.692 159.176,126.6 157.328,126.6 L153.908,126.6 L153.908,135 L155.708,135 Z M157.184,130.68 L155.708,130.68 L155.708,128.1 L157.184,128.1 C158.036,128.1 158.576,128.604 158.576,129.396 C158.576,130.176 158.036,130.68 157.184,130.68 Z M166.448,135.072 C168.716,135.072 169.904,133.764 169.904,131.376 L169.904,126.6 L168.104,126.6 L168.104,131.472 C168.104,132.804 167.612,133.524 166.448,133.524 C165.296,133.524 164.804,132.804 164.804,131.472 L164.804,126.6 L163.004,126.6 L163.004,131.376 C163.004,133.764 164.192,135.072 166.448,135.072 Z M174.548,135 L174.548,129.708 L178.112,135 L179.756,135 L179.756,126.6 L177.98,126.6 L177.98,131.892 L174.416,126.6 L172.784,126.6 L172.784,135 L174.548,135 Z M186.344,135.072 C187.532,135.072 188.348,134.544 188.792,133.956 L188.984,135 L190.232,135 L190.232,130.332 L186.476,130.332 L186.476,131.76 L188.564,131.76 L188.564,131.868 C188.396,133.044 187.424,133.548 186.464,133.548 C185.024,133.548 184.184,132.42 184.184,130.8 C184.184,129.18 185.06,128.052 186.464,128.052 C187.496,128.052 188.18,128.664 188.396,129.588 L190.172,129.588 C189.944,127.776 188.54,126.528 186.512,126.528 C183.932,126.528 182.348,128.22 182.348,130.8 C182.348,133.38 183.944,135.072 186.344,135.072 Z M200.564,135 C203.132,135 204.8,133.26 204.8,130.8 C204.8,128.34 203.132,126.6 200.564,126.6 L197.648,126.6 L197.648,135 L200.564,135 Z M200.564,133.5 L199.448,133.5 L199.448,128.1 L200.564,128.1 C202.124,128.1 202.964,129.204 202.964,130.8 C202.964,132.396 202.124,133.5 200.564,133.5 Z M213.176,135 L213.176,133.452 L209.204,133.452 L209.204,131.508 L212.324,131.508 L212.324,130.032 L209.204,130.032 L209.204,128.148 L213.044,128.148 L213.044,126.6 L207.404,126.6 L207.404,135 L213.176,135 Z M218.9,135.072 C220.784,135.072 222.164,133.956 222.176,132.42 C222.188,130.728 220.916,130.296 219.476,130.032 C218.084,129.768 217.424,129.624 217.424,128.94 C217.424,128.292 217.976,127.968 218.744,127.968 C219.62,127.968 220.172,128.46 220.244,129.168 L222.008,129.168 C221.972,127.644 220.616,126.528 218.744,126.528 C216.92,126.528 215.612,127.596 215.612,129.072 C215.612,130.776 216.86,131.232 218.276,131.496 C219.68,131.772 220.364,131.916 220.364,132.624 C220.364,133.284 219.752,133.644 218.924,133.644 C217.892,133.644 217.244,133.08 217.184,132.264 L215.42,132.24 C215.444,133.872 216.86,135.072 218.9,135.072 Z M108.38,157.072 C109.568,157.072 110.384,156.544 110.828,155.956 L111.02,157 L112.268,157 L112.268,152.332 L108.512,152.332 L108.512,153.76 L110.6,153.76 L110.6,153.868 C110.432,155.044 109.46,155.548 108.5,155.548 C107.06,155.548 106.22,154.42 106.22,152.8 C106.22,151.18 107.096,150.052 108.5,150.052 C109.532,150.052 110.216,150.664 110.432,151.588 L112.208,151.588 C111.98,149.776 110.576,148.528 108.548,148.528 C105.968,148.528 104.384,150.22 104.384,152.8 C104.384,155.38 105.98,157.072 108.38,157.072 Z M120.98,157 L120.98,155.452 L117.008,155.452 L117.008,153.508 L120.128,153.508 L120.128,152.032 L117.008,152.032 L117.008,150.148 L120.848,150.148 L120.848,148.6 L115.208,148.6 L115.208,157 L120.98,157 Z M126.704,157.072 C128.588,157.072 129.968,155.956 129.98,154.42 C129.992,152.728 128.72,152.296 127.28,152.032 C125.888,151.768 125.228,151.624 125.228,150.94 C125.228,150.292 125.78,149.968 126.548,149.968 C127.424,149.968 127.976,150.46 128.048,151.168 L129.812,151.168 C129.776,149.644 128.42,148.528 126.548,148.528 C124.724,148.528 123.416,149.596 123.416,151.072 C123.416,152.776 124.664,153.232 126.08,153.496 C127.484,153.772 128.168,153.916 128.168,154.624 C128.168,155.284 127.556,155.644 126.728,155.644 C125.696,155.644 125.048,155.08 124.988,154.264 L123.224,154.24 C123.248,155.872 124.664,157.072 126.704,157.072 Z M133.448,157 L134.096,155.164 L137.288,155.164 L137.936,157 L139.868,157 L136.82,148.6 L134.66,148.6 L131.588,157 L133.448,157 Z M136.796,153.712 L134.576,153.712 L135.68,150.52 L136.796,153.712 Z M143.852,157 L143.852,151.372 L146.036,157 L147.5,157 L149.684,151.372 L149.684,157 L151.4,157 L151.4,148.6 L149.084,148.6 L146.828,154.768 L144.5,148.6 L142.136,148.6 L142.136,157 L143.852,157 Z M158.108,157 L158.108,150.148 L160.532,150.148 L160.532,148.6 L153.884,148.6 L153.884,150.148 L156.308,150.148 L156.308,157 L158.108,157 Z M166.4,157.072 C168.668,157.072 169.856,155.764 169.856,153.376 L169.856,148.6 L168.056,148.6 L168.056,153.472 C168.056,154.804 167.564,155.524 166.4,155.524 C165.248,155.524 164.756,154.804 164.756,153.472 L164.756,148.6 L162.956,148.6 L162.956,153.376 C162.956,155.764 164.144,157.072 166.4,157.072 Z M174.452,157 L174.452,151.372 L176.636,157 L178.1,157 L180.284,151.372 L180.284,157 L182,157 L182,148.6 L179.684,148.6 L177.428,154.768 L175.1,148.6 L172.736,148.6 L172.736,157 L174.452,157 Z M188.084,157.072 C189.968,157.072 191.348,155.956 191.36,154.42 C191.372,152.728 190.1,152.296 188.66,152.032 C187.268,151.768 186.608,151.624 186.608,150.94 C186.608,150.292 187.16,149.968 187.928,149.968 C188.804,149.968 189.356,150.46 189.428,151.168 L191.192,151.168 C191.156,149.644 189.8,148.528 187.928,148.528 C186.104,148.528 184.796,149.596 184.796,151.072 C184.796,152.776 186.044,153.232 187.46,153.496 C188.864,153.772 189.548,153.916 189.548,154.624 C189.548,155.284 188.936,155.644 188.108,155.644 C187.076,155.644 186.428,155.08 186.368,154.264 L184.604,154.24 C184.628,155.872 186.044,157.072 188.084,157.072 Z M194.828,157 L195.476,155.164 L198.668,155.164 L199.316,157 L201.248,157 L198.2,148.6 L196.04,148.6 L192.968,157 L194.828,157 Z M198.176,153.712 L195.956,153.712 L197.06,150.52 L198.176,153.712 Z M206.084,157 L206.084,150.148 L208.508,150.148 L208.508,148.6 L201.86,148.6 L201.86,150.148 L204.284,150.148 L204.284,157 L206.084,157 Z M217.484,157 L217.484,155.464 L213.068,155.464 L217.376,149.788 L217.376,148.6 L210.704,148.6 L210.704,150.136 L214.904,150.136 L210.596,155.812 L210.596,157 L217.484,157 Z M225.8,157 L225.8,155.452 L221.828,155.452 L221.828,153.508 L224.948,153.508 L224.948,152.032 L221.828,152.032 L221.828,150.148 L225.668,150.148 L225.668,148.6 L220.028,148.6 L220.028,157 L225.8,157 Z M231.524,157.072 C233.408,157.072 234.788,155.956 234.8,154.42 C234.812,152.728 233.54,152.296 232.1,152.032 C230.708,151.768 230.048,151.624 230.048,150.94 C230.048,150.292 230.6,149.968 231.368,149.968 C232.244,149.968 232.796,150.46 232.868,151.168 L234.632,151.168 C234.596,149.644 233.24,148.528 231.368,148.528 C229.544,148.528 228.236,149.596 228.236,151.072 C228.236,152.776 229.484,153.232 230.9,153.496 C232.304,153.772 232.988,153.916 232.988,154.624 C232.988,155.284 232.376,155.644 231.548,155.644 C230.516,155.644 229.868,155.08 229.808,154.264 L228.044,154.24 C228.068,155.872 229.484,157.072 231.524,157.072 Z M243.656,157 L243.656,148.6 L241.856,148.6 L241.856,157 L243.656,157 Z M248.3,157 L248.3,151.372 L250.484,157 L251.948,157 L254.132,151.372 L254.132,157 L255.848,157 L255.848,148.6 L253.532,148.6 L251.276,154.768 L248.948,148.6 L246.584,148.6 L246.584,157 L248.3,157 Z M267.548,157 L270.392,148.6 L268.532,148.6 L266.468,154.816 L264.452,148.6 L262.544,148.6 L265.4,157 L267.548,157 Z M278.384,157 L278.384,155.452 L274.412,155.452 L274.412,153.508 L277.532,153.508 L277.532,152.032 L274.412,152.032 L274.412,150.148 L278.252,150.148 L278.252,148.6 L272.612,148.6 L272.612,157 L278.384,157 Z M282.764,157 L282.764,154.18 L284.288,154.18 L285.692,157 L287.684,157 L286.028,153.76 C286.904,153.34 287.468,152.476 287.468,151.396 C287.468,149.692 286.232,148.6 284.384,148.6 L280.964,148.6 L280.964,157 L282.764,157 Z M284.24,152.68 L282.764,152.68 L282.764,150.1 L284.24,150.1 C285.092,150.1 285.632,150.604 285.632,151.396 C285.632,152.176 285.092,152.68 284.24,152.68 Z M293.708,157.072 C294.896,157.072 295.712,156.544 296.156,155.956 L296.348,157 L297.596,157 L297.596,152.332 L293.84,152.332 L293.84,153.76 L295.928,153.76 L295.928,153.868 C295.76,155.044 294.788,155.548 293.828,155.548 C292.388,155.548 291.548,154.42 291.548,152.8 C291.548,151.18 292.424,150.052 293.828,150.052 C294.86,150.052 295.544,150.664 295.76,151.588 L297.536,151.588 C297.308,149.776 295.904,148.528 293.876,148.528 C291.296,148.528 289.712,150.22 289.712,152.8 C289.712,155.38 291.308,157.072 293.708,157.072 Z M305.672,157 L305.672,155.452 L302.336,155.452 L302.336,148.6 L300.536,148.6 L300.536,157 L305.672,157 Z M313.916,157 L313.916,155.452 L309.944,155.452 L309.944,153.508 L313.064,153.508 L313.064,152.032 L309.944,152.032 L309.944,150.148 L313.784,150.148 L313.784,148.6 L308.144,148.6 L308.144,157 L313.916,157 Z M318.296,157 L318.296,148.6 L316.496,148.6 L316.496,157 L318.296,157 Z M325.004,157.072 C326.996,157.072 328.4,155.824 328.604,154 L326.804,154 C326.6,154.936 325.916,155.548 324.908,155.548 C323.54,155.548 322.724,154.408 322.724,152.8 C322.724,151.18 323.54,150.052 324.908,150.052 C325.916,150.052 326.6,150.664 326.804,151.6 L328.604,151.6 C328.4,149.776 326.996,148.528 325.004,148.528 C322.46,148.528 320.888,150.22 320.888,152.8 C320.888,155.38 322.46,157.072 325.004,157.072 Z M332.948,157 L332.948,153.532 L336.284,153.532 L336.284,157 L338.084,157 L338.084,148.6 L336.284,148.6 L336.284,151.972 L332.948,151.972 L332.948,148.6 L331.148,148.6 L331.148,157 L332.948,157 Z M111.212,179 L111.212,177.464 L106.796,177.464 L111.104,171.788 L111.104,170.6 L104.432,170.6 L104.432,172.136 L108.632,172.136 L104.324,177.812 L104.324,179 L111.212,179 Z M117.14,179.072 C119.408,179.072 120.596,177.764 120.596,175.376 L120.596,170.6 L118.796,170.6 L118.796,175.472 C118.796,176.804 118.304,177.524 117.14,177.524 C115.988,177.524 115.496,176.804 115.496,175.472 L115.496,170.6 L113.696,170.6 L113.696,175.376 C113.696,177.764 114.884,179.072 117.14,179.072 Z M125.192,179 L125.192,173.372 L127.376,179 L128.84,179 L131.024,173.372 L131.024,179 L132.74,179 L132.74,170.6 L130.424,170.6 L128.168,176.768 L125.84,170.6 L123.476,170.6 L123.476,179 L125.192,179 Z M144.44,179 L147.284,170.6 L145.424,170.6 L143.36,176.816 L141.344,170.6 L139.436,170.6 L142.292,179 L144.44,179 Z M152.948,179.072 C155.42,179.072 157.112,177.248 157.112,174.8 C157.112,172.352 155.42,170.528 152.948,170.528 C150.476,170.528 148.784,172.352 148.784,174.8 C148.784,177.248 150.476,179.072 152.948,179.072 Z M152.948,177.548 C151.532,177.548 150.62,176.384 150.62,174.8 C150.62,173.216 151.532,172.052 152.948,172.052 C154.352,172.052 155.264,173.216 155.264,174.8 C155.264,176.384 154.352,177.548 152.948,177.548 Z M161.504,179 L161.504,176.18 L163.028,176.18 L164.432,179 L166.424,179 L164.768,175.76 C165.644,175.34 166.208,174.476 166.208,173.396 C166.208,171.692 164.972,170.6 163.124,170.6 L159.704,170.6 L159.704,179 L161.504,179 Z M162.98,174.68 L161.504,174.68 L161.504,172.1 L162.98,172.1 C163.832,172.1 164.372,172.604 164.372,173.396 C164.372,174.176 163.832,174.68 162.98,174.68 Z M169.844,179 C171.26,179 172.076,178.184 172.076,176.768 L172.076,170.6 L170.276,170.6 L170.276,176.42 C170.276,177.116 170,177.452 169.292,177.452 L168.296,177.452 L168.296,179 L169.844,179 Z M175.928,179 L176.576,177.164 L179.768,177.164 L180.416,179 L182.348,179 L179.3,170.6 L177.14,170.6 L174.068,179 L175.928,179 Z M179.276,175.712 L177.056,175.712 L178.16,172.52 L179.276,175.712 Z M186.416,179 L186.416,175.532 L189.752,175.532 L189.752,179 L191.552,179 L191.552,170.6 L189.752,170.6 L189.752,173.972 L186.416,173.972 L186.416,170.6 L184.616,170.6 L184.616,179 L186.416,179 Z M196.28,179 L196.28,176.18 L197.804,176.18 L199.208,179 L201.2,179 L199.544,175.76 C200.42,175.34 200.984,174.476 200.984,173.396 C200.984,171.692 199.748,170.6 197.9,170.6 L194.48,170.6 L194.48,179 L196.28,179 Z M197.756,174.68 L196.28,174.68 L196.28,172.1 L197.756,172.1 C198.608,172.1 199.148,172.604 199.148,173.396 C199.148,174.176 198.608,174.68 197.756,174.68 Z M211.952,179 L213.368,173.42 L214.82,179 L216.896,179 L219.224,170.6 L217.4,170.6 L215.816,176.732 L214.22,170.6 L212.6,170.6 L210.956,176.732 L209.408,170.588 L207.548,170.6 L209.876,179 L211.952,179 Z M222.8,169.856 C223.316,169.856 223.7,169.472 223.7,168.98 C223.7,168.476 223.316,168.104 222.8,168.104 C222.284,168.104 221.888,168.476 221.888,168.98 C221.888,169.472 222.284,169.856 222.8,169.856 Z M225.32,169.856 C225.836,169.856 226.232,169.472 226.232,168.98 C226.232,168.476 225.836,168.104 225.32,168.104 C224.816,168.104 224.42,168.476 224.42,168.98 C224.42,169.472 224.816,169.856 225.32,169.856 Z M221.768,179 L222.416,177.164 L225.608,177.164 L226.256,179 L228.188,179 L225.14,170.6 L222.98,170.6 L219.908,179 L221.768,179 Z M225.116,175.712 L222.896,175.712 L224,172.52 L225.116,175.712 Z M232.256,179 L232.256,175.532 L235.592,175.532 L235.592,179 L237.392,179 L237.392,170.6 L235.592,170.6 L235.592,173.972 L232.256,173.972 L232.256,170.6 L230.456,170.6 L230.456,179 L232.256,179 Z M242.12,179 L242.12,176.18 L243.644,176.18 L245.048,179 L247.04,179 L245.384,175.76 C246.26,175.34 246.824,174.476 246.824,173.396 C246.824,171.692 245.588,170.6 243.74,170.6 L240.32,170.6 L240.32,179 L242.12,179 Z M243.596,174.68 L242.12,174.68 L242.12,172.1 L243.596,172.1 C244.448,172.1 244.988,172.604 244.988,173.396 C244.988,174.176 244.448,174.68 243.596,174.68 Z M255.296,179 L255.296,177.452 L251.324,177.452 L251.324,175.508 L254.444,175.508 L254.444,174.032 L251.324,174.032 L251.324,172.148 L255.164,172.148 L255.164,170.6 L249.524,170.6 L249.524,179 L255.296,179 Z M259.64,179 L259.64,173.708 L263.204,179 L264.848,179 L264.848,170.6 L263.072,170.6 L263.072,175.892 L259.508,170.6 L257.876,170.6 L257.876,179 L259.64,179 Z M270.692,179 C273.26,179 274.928,177.26 274.928,174.8 C274.928,172.34 273.26,170.6 270.692,170.6 L267.776,170.6 L267.776,179 L270.692,179 Z M270.692,177.5 L269.576,177.5 L269.576,172.1 L270.692,172.1 C272.252,172.1 273.092,173.204 273.092,174.8 C273.092,176.396 272.252,177.5 270.692,177.5 Z M284.924,179 C287.492,179 289.16,177.26 289.16,174.8 C289.16,172.34 287.492,170.6 284.924,170.6 L282.008,170.6 L282.008,179 L284.924,179 Z M284.924,177.5 L283.808,177.5 L283.808,172.1 L284.924,172.1 C286.484,172.1 287.324,173.204 287.324,174.8 C287.324,176.396 286.484,177.5 284.924,177.5 Z M297.536,179 L297.536,177.452 L293.564,177.452 L293.564,175.508 L296.684,175.508 L296.684,174.032 L293.564,174.032 L293.564,172.148 L297.404,172.148 L297.404,170.6 L291.764,170.6 L291.764,179 L297.536,179 Z M301.916,179 L301.916,176.18 L303.44,176.18 L304.844,179 L306.836,179 L305.18,175.76 C306.056,175.34 306.62,174.476 306.62,173.396 C306.62,171.692 305.384,170.6 303.536,170.6 L300.116,170.6 L300.116,179 L301.916,179 Z M303.392,174.68 L301.916,174.68 L301.916,172.1 L303.392,172.1 C304.244,172.1 304.784,172.604 304.784,173.396 C304.784,174.176 304.244,174.68 303.392,174.68 Z M108.488,201 L108.488,194.148 L110.912,194.148 L110.912,192.6 L104.264,192.6 L104.264,194.148 L106.688,194.148 L106.688,201 L108.488,201 Z M115.196,201 L115.196,197.532 L118.532,197.532 L118.532,201 L120.332,201 L120.332,192.6 L118.532,192.6 L118.532,195.972 L115.196,195.972 L115.196,192.6 L113.396,192.6 L113.396,201 L115.196,201 Z M124.448,201 L125.096,199.164 L128.288,199.164 L128.936,201 L130.868,201 L127.82,192.6 L125.66,192.6 L122.588,201 L124.448,201 Z M127.796,197.712 L125.576,197.712 L126.68,194.52 L127.796,197.712 Z M134.9,201 L134.9,195.708 L138.464,201 L140.108,201 L140.108,192.6 L138.332,192.6 L138.332,197.892 L134.768,192.6 L133.136,192.6 L133.136,201 L134.9,201 Z M144.836,201 L144.836,198.792 L146.024,197.46 L148.424,201 L150.584,201 L147.296,196.068 L150.38,192.612 L148.196,192.612 L144.836,196.38 L144.836,192.612 L143.036,192.612 L143.036,201 L144.836,201 Z M155.396,201.072 C157.28,201.072 158.66,199.956 158.672,198.42 C158.684,196.728 157.412,196.296 155.972,196.032 C154.58,195.768 153.92,195.624 153.92,194.94 C153.92,194.292 154.472,193.968 155.24,193.968 C156.116,193.968 156.668,194.46 156.74,195.168 L158.504,195.168 C158.468,193.644 157.112,192.528 155.24,192.528 C153.416,192.528 152.108,193.596 152.108,195.072 C152.108,196.776 153.356,197.232 154.772,197.496 C156.176,197.772 156.86,197.916 156.86,198.624 C156.86,199.284 156.248,199.644 155.42,199.644 C154.388,199.644 153.74,199.08 153.68,198.264 L151.916,198.24 C151.94,199.872 153.356,201.072 155.396,201.072 Z M164.912,201.072 C166.1,201.072 166.916,200.544 167.36,199.956 L167.552,201 L168.8,201 L168.8,196.332 L165.044,196.332 L165.044,197.76 L167.132,197.76 L167.132,197.868 C166.964,199.044 165.992,199.548 165.032,199.548 C163.592,199.548 162.752,198.42 162.752,196.8 C162.752,195.18 163.628,194.052 165.032,194.052 C166.064,194.052 166.748,194.664 166.964,195.588 L168.74,195.588 C168.512,193.776 167.108,192.528 165.08,192.528 C162.5,192.528 160.916,194.22 160.916,196.8 C160.916,199.38 162.512,201.072 164.912,201.072 Z M173.54,201 L173.54,192.6 L171.74,192.6 L171.74,201 L173.54,201 Z M180.752,201 L183.596,192.6 L181.736,192.6 L179.672,198.816 L177.656,192.6 L175.748,192.6 L178.604,201 L180.752,201 Z M187.616,201 L187.616,192.6 L185.816,192.6 L185.816,201 L187.616,201 Z M192.308,201 L192.308,195.708 L195.872,201 L197.516,201 L197.516,192.6 L195.74,192.6 L195.74,197.892 L192.176,192.6 L190.544,192.6 L190.544,201 L192.308,201 Z M204.104,201.072 C205.292,201.072 206.108,200.544 206.552,199.956 L206.744,201 L207.992,201 L207.992,196.332 L204.236,196.332 L204.236,197.76 L206.324,197.76 L206.324,197.868 C206.156,199.044 205.184,199.548 204.224,199.548 C202.784,199.548 201.944,198.42 201.944,196.8 C201.944,195.18 202.82,194.052 204.224,194.052 C205.256,194.052 205.94,194.664 206.156,195.588 L207.932,195.588 C207.704,193.776 206.3,192.528 204.272,192.528 C201.692,192.528 200.108,194.22 200.108,196.8 C200.108,199.38 201.704,201.072 204.104,201.072 Z M214.892,198.276 L214.892,196.908 L210.692,196.908 L210.692,198.276 L214.892,198.276 Z M220.904,201 L222.32,195.42 L223.772,201 L225.848,201 L228.176,192.6 L226.352,192.6 L224.768,198.732 L223.172,192.6 L221.552,192.6 L219.908,198.732 L218.36,192.588 L216.5,192.6 L218.828,201 L220.904,201 Z M234.008,201.072 C236.48,201.072 238.172,199.248 238.172,196.8 C238.172,194.352 236.48,192.528 234.008,192.528 C231.536,192.528 229.844,194.352 229.844,196.8 C229.844,199.248 231.536,201.072 234.008,201.072 Z M234.008,199.548 C232.592,199.548 231.68,198.384 231.68,196.8 C231.68,195.216 232.592,194.052 234.008,194.052 C235.412,194.052 236.324,195.216 236.324,196.8 C236.324,198.384 235.412,199.548 234.008,199.548 Z M244.544,201.072 C246.536,201.072 247.94,199.824 248.144,198 L246.344,198 C246.14,198.936 245.456,199.548 244.448,199.548 C243.08,199.548 242.264,198.408 242.264,196.8 C242.264,195.18 243.08,194.052 244.448,194.052 C245.456,194.052 246.14,194.664 246.344,195.6 L248.144,195.6 C247.94,193.776 246.536,192.528 244.544,192.528 C242,192.528 240.428,194.22 240.428,196.8 C240.428,199.38 242,201.072 244.544,201.072 Z M252.488,201 L252.488,197.532 L255.824,197.532 L255.824,201 L257.624,201 L257.624,192.6 L255.824,192.6 L255.824,195.972 L252.488,195.972 L252.488,192.6 L250.688,192.6 L250.688,201 L252.488,201 Z M266.324,201 L266.324,199.452 L262.352,199.452 L262.352,197.508 L265.472,197.508 L265.472,196.032 L262.352,196.032 L262.352,194.148 L266.192,194.148 L266.192,192.6 L260.552,192.6 L260.552,201 L266.324,201 Z" id="STEIGERUNGDESGESAMTUMSATZESIMVERGLEICHZUMVORJAHRWÄHRENDDERTHANKSGIVING-WOCHE" fill="#025450"></path>
                    </g>
                </g>
                <rect id="Rectangle" mask="url(#mask-2)" x="0" y="0" width="405" height="514"></rect>
            </g>
        </g>
    </g>
</svg>