<?xml version="1.0" encoding="UTF-8"?>
<svg width="405px" height="513px" viewBox="0 0 405 513" version="1.1" xmlns="http://www.w3.org/2000/svg" xmlns:xlink="http://www.w3.org/1999/xlink">
    <!-- Generator: Sketch 55.2 (78181) - https://sketchapp.com -->
    <title>Group 2</title>
    <desc>Created with Sketch.</desc>
    <g id="data-illustrations" stroke="none" stroke-width="1" fill="none" fill-rule="evenodd">
        <g id="what-is-affiliate-copy-2" transform="translate(-565.000000, -291.000000)">
            <g id="50/50-L-Copy" transform="translate(54.000000, 255.000000)">
                <g id="hero" transform="translate(500.000000, 0.000000)">
                    <g id="Group-2" transform="translate(11.000000, 36.000000)">
                        <rect id="Rectangle-3" fill="#F4F2EF" fill-rule="nonzero" x="0" y="0" width="405" height="231"></rect>
                        <rect id="Rectangle-3" fill="#F4F2EF" fill-rule="nonzero" x="0" y="282" width="405" height="231"></rect>
                        <path d="M109.412,422.72 L111.572,422.72 L108.692,427.652 L108.692,431 L106.748,431 L106.748,427.652 L103.868,422.72 L106.028,422.72 L107.72,426.02 L109.412,422.72 Z M121.58,426.872 C121.58,429.548 119.648,431.144 117.188,431.144 C114.728,431.144 112.796,429.548 112.796,426.872 C112.796,424.196 114.728,422.588 117.188,422.588 C119.648,422.588 121.58,424.196 121.58,426.872 Z M119.612,426.824 C119.612,425.252 118.568,424.244 117.188,424.244 C115.808,424.244 114.764,425.24 114.764,426.824 C114.764,428.408 115.808,429.416 117.188,429.416 C118.568,429.416 119.612,428.408 119.612,426.824 Z M128.348,422.72 L130.508,422.72 L127.628,427.652 L127.628,431 L125.684,431 L125.684,427.652 L122.804,422.72 L124.964,422.72 L126.656,426.02 L128.348,422.72 Z M138.44,422.72 L138.44,431 L136.496,431 L136.496,422.72 L138.44,422.72 Z M148.94,422.72 L148.94,431 L146.948,431 L143.312,425.384 C143.312,425.384 143.348,426.38 143.348,427.256 L143.348,431 L141.452,431 L141.452,422.72 L143.528,422.72 L147.08,428.288 C147.08,428.288 147.044,427.352 147.044,426.476 L147.044,422.72 L148.94,422.72 Z M158.216,428.504 L158.864,430.016 C158.444,430.448 157.568,431.144 155.876,431.144 C153.44,431.144 151.532,429.536 151.532,426.872 C151.532,424.196 153.464,422.6 155.876,422.6 C157.58,422.6 158.504,423.308 158.72,423.536 L158.12,425.144 C157.964,424.94 157.076,424.28 155.984,424.28 C154.58,424.28 153.5,425.216 153.5,426.836 C153.5,428.456 154.628,429.38 155.984,429.38 C157.016,429.38 157.76,428.972 158.216,428.504 Z M165.704,427.58 L167.804,431 L165.548,431 L163.808,427.832 L163.196,427.832 L163.196,431 L161.252,431 L161.252,422.72 L164.228,422.72 C165.152,422.72 165.872,422.912 166.412,423.308 C166.964,423.716 167.324,424.376 167.324,425.204 C167.324,426.776 166.316,427.388 165.704,427.58 Z M165.368,425.276 C165.368,424.856 165.2,424.616 164.948,424.436 C164.708,424.256 164.396,424.22 163.952,424.22 L163.184,424.22 L163.184,426.344 L163.952,426.344 C164.396,426.344 164.708,426.296 164.948,426.116 C165.2,425.936 165.368,425.708 165.368,425.276 Z M175.424,429.428 L175.424,431 L169.952,431 L169.952,422.72 L175.316,422.72 L175.316,424.268 L171.884,424.268 L171.884,425.96 L175.124,425.96 L175.124,427.508 L171.884,427.508 L171.884,429.428 L175.424,429.428 Z M182.456,422.708 L185.576,431 L183.464,431 L182.876,429.332 L179.924,429.332 L179.336,431 L177.32,431 L180.44,422.708 L182.456,422.708 Z M180.368,427.82 L182.432,427.82 L181.4,424.844 L180.368,427.82 Z M193.136,428.48 C193.136,429.272 192.764,429.992 192.164,430.46 C191.576,430.928 190.808,431.144 189.92,431.144 C188.72,431.144 187.652,430.52 186.98,429.896 L187.94,428.48 C188.54,429.104 189.464,429.524 190.1,429.524 C190.724,429.524 191.204,429.224 191.204,428.672 C191.204,428.108 190.592,427.892 190.232,427.76 C189.872,427.628 189.248,427.412 188.972,427.292 C188.768,427.196 188.348,427.04 187.988,426.692 C187.628,426.356 187.34,425.876 187.34,425.096 C187.34,424.304 187.724,423.68 188.204,423.284 C188.672,422.888 189.428,422.624 190.388,422.624 C191.348,422.624 192.452,423.08 193.016,423.644 L192.188,425 C191.708,424.52 190.964,424.16 190.34,424.16 C189.716,424.16 189.26,424.4 189.26,424.904 C189.26,425.408 189.728,425.6 190.1,425.744 C190.46,425.888 191.072,426.104 191.336,426.212 C191.564,426.296 192.116,426.512 192.488,426.884 C192.836,427.232 193.136,427.736 193.136,428.48 Z M201.14,429.428 L201.14,431 L195.668,431 L195.668,422.72 L201.032,422.72 L201.032,424.268 L197.6,424.268 L197.6,425.96 L200.84,425.96 L200.84,427.508 L197.6,427.508 L197.6,429.428 L201.14,429.428 Z M209.648,422.72 L209.648,431 L207.704,431 L207.704,422.72 L209.648,422.72 Z M220.148,422.72 L220.148,431 L218.156,431 L214.52,425.384 C214.52,425.384 214.556,426.38 214.556,427.256 L214.556,431 L212.66,431 L212.66,422.72 L214.736,422.72 L218.288,428.288 C218.288,428.288 218.252,427.352 218.252,426.476 L218.252,422.72 L220.148,422.72 Z M235.388,426.872 C235.388,429.548 233.456,431.144 230.996,431.144 C228.536,431.144 226.604,429.548 226.604,426.872 C226.604,424.196 228.536,422.588 230.996,422.588 C233.456,422.588 235.388,424.196 235.388,426.872 Z M233.42,426.824 C233.42,425.252 232.376,424.244 230.996,424.244 C229.616,424.244 228.572,425.24 228.572,426.824 C228.572,428.408 229.616,429.416 230.996,429.416 C232.376,429.416 233.42,428.408 233.42,426.824 Z M242.816,422.72 L244.868,422.72 L241.796,431 L239.948,431 L236.876,422.72 L238.94,422.72 L240.884,428.42 L242.816,422.72 Z M252.548,429.428 L252.548,431 L247.076,431 L247.076,422.72 L252.44,422.72 L252.44,424.268 L249.008,424.268 L249.008,425.96 L252.248,425.96 L252.248,427.508 L249.008,427.508 L249.008,429.428 L252.548,429.428 Z M259.7,427.58 L261.8,431 L259.544,431 L257.804,427.832 L257.192,427.832 L257.192,431 L255.248,431 L255.248,422.72 L258.224,422.72 C259.148,422.72 259.868,422.912 260.408,423.308 C260.96,423.716 261.32,424.376 261.32,425.204 C261.32,426.776 260.312,427.388 259.7,427.58 Z M259.364,425.276 C259.364,424.856 259.196,424.616 258.944,424.436 C258.704,424.256 258.392,424.22 257.948,424.22 L257.18,424.22 L257.18,426.344 L257.948,426.344 C258.392,426.344 258.704,426.296 258.944,426.116 C259.196,425.936 259.364,425.708 259.364,425.276 Z M268.28,422.708 L271.4,431 L269.288,431 L268.7,429.332 L265.748,429.332 L265.16,431 L263.144,431 L266.264,422.708 L268.28,422.708 Z M266.192,427.82 L268.256,427.82 L267.224,424.844 L266.192,427.82 Z M278.408,429.392 L278.408,431 L273.608,431 L273.608,422.72 L275.54,422.72 L275.54,429.392 L278.408,429.392 Z M285.584,429.392 L285.584,431 L280.784,431 L280.784,422.72 L282.716,422.72 L282.716,429.392 L285.584,429.392 Z M109.208,449.58 L111.308,453 L109.052,453 L107.312,449.832 L106.7,449.832 L106.7,453 L104.756,453 L104.756,444.72 L107.732,444.72 C108.656,444.72 109.376,444.912 109.916,445.308 C110.468,445.716 110.828,446.376 110.828,447.204 C110.828,448.776 109.82,449.388 109.208,449.58 Z M108.872,447.276 C108.872,446.856 108.704,446.616 108.452,446.436 C108.212,446.256 107.9,446.22 107.456,446.22 L106.688,446.22 L106.688,448.344 L107.456,448.344 C107.9,448.344 108.212,448.296 108.452,448.116 C108.704,447.936 108.872,447.708 108.872,447.276 Z M118.928,451.428 L118.928,453 L113.456,453 L113.456,444.72 L118.82,444.72 L118.82,446.268 L115.388,446.268 L115.388,447.96 L118.628,447.96 L118.628,449.508 L115.388,449.508 L115.388,451.428 L118.928,451.428 Z M126.764,444.72 L128.816,444.72 L125.744,453 L123.896,453 L120.824,444.72 L122.888,444.72 L124.832,450.42 L126.764,444.72 Z M136.496,451.428 L136.496,453 L131.024,453 L131.024,444.72 L136.388,444.72 L136.388,446.268 L132.956,446.268 L132.956,447.96 L136.196,447.96 L136.196,449.508 L132.956,449.508 L132.956,451.428 L136.496,451.428 Z M146.684,444.72 L146.684,453 L144.692,453 L141.056,447.384 C141.056,447.384 141.092,448.38 141.092,449.256 L141.092,453 L139.196,453 L139.196,444.72 L141.272,444.72 L144.824,450.288 C144.824,450.288 144.788,449.352 144.788,448.476 L144.788,444.72 L146.684,444.72 Z M156.572,444.72 L156.572,449.544 C156.572,450.708 156.368,451.512 155.78,452.148 C155.204,452.772 154.304,453.132 153.104,453.132 C151.892,453.132 151.004,452.772 150.416,452.148 C149.84,451.512 149.636,450.708 149.636,449.544 L149.636,444.72 L151.592,444.72 L151.592,449.544 C151.592,450.132 151.64,450.588 151.916,450.924 C152.18,451.236 152.564,451.44 153.104,451.44 C153.644,451.44 154.028,451.236 154.292,450.924 C154.568,450.588 154.616,450.132 154.616,449.544 L154.616,444.72 L156.572,444.72 Z M164.996,451.428 L164.996,453 L159.524,453 L159.524,444.72 L164.888,444.72 L164.888,446.268 L161.456,446.268 L161.456,447.96 L164.696,447.96 L164.696,449.508 L161.456,449.508 L161.456,451.428 L164.996,451.428 Z M178.904,448.86 C178.904,450.468 178.256,451.428 177.56,452.016 C176.876,452.592 175.808,453 174.368,453 L171.56,453 L171.56,444.72 L174.368,444.72 C175.808,444.72 176.876,445.128 177.56,445.716 C178.256,446.292 178.904,447.252 178.904,448.86 Z M176.936,448.86 C176.936,447.84 176.552,447.252 176.204,446.916 C175.856,446.592 175.28,446.328 174.476,446.328 L173.492,446.328 L173.492,451.356 L174.476,451.356 C175.28,451.356 175.856,451.092 176.204,450.756 C176.552,450.432 176.936,449.88 176.936,448.86 Z M188.372,444.72 L188.372,449.544 C188.372,450.708 188.168,451.512 187.58,452.148 C187.004,452.772 186.104,453.132 184.904,453.132 C183.692,453.132 182.804,452.772 182.216,452.148 C181.64,451.512 181.436,450.708 181.436,449.544 L181.436,444.72 L183.392,444.72 L183.392,449.544 C183.392,450.132 183.44,450.588 183.716,450.924 C183.98,451.236 184.364,451.44 184.904,451.44 C185.444,451.44 185.828,451.236 186.092,450.924 C186.368,450.588 186.416,450.132 186.416,449.544 L186.416,444.72 L188.372,444.72 Z M195.776,449.58 L197.876,453 L195.62,453 L193.88,449.832 L193.268,449.832 L193.268,453 L191.324,453 L191.324,444.72 L194.3,444.72 C195.224,444.72 195.944,444.912 196.484,445.308 C197.036,445.716 197.396,446.376 197.396,447.204 C197.396,448.776 196.388,449.388 195.776,449.58 Z M195.44,447.276 C195.44,446.856 195.272,446.616 195.02,446.436 C194.78,446.256 194.468,446.22 194.024,446.22 L193.256,446.22 L193.256,448.344 L194.024,448.344 C194.468,448.344 194.78,448.296 195.02,448.116 C195.272,447.936 195.44,447.708 195.44,447.276 Z M201.968,444.72 L201.968,453 L200.024,453 L200.024,444.72 L201.968,444.72 Z M212.468,444.72 L212.468,453 L210.476,453 L206.84,447.384 C206.84,447.384 206.876,448.38 206.876,449.256 L206.876,453 L204.98,453 L204.98,444.72 L207.056,444.72 L210.608,450.288 C210.608,450.288 210.572,449.352 210.572,448.476 L210.572,444.72 L212.468,444.72 Z M223.052,448.284 L223.052,451.716 C222.632,452.088 221.648,453.132 219.368,453.132 C217.076,453.132 215.06,451.62 215.06,448.86 C215.06,446.1 217.076,444.6 219.392,444.6 C221.588,444.6 222.536,445.752 222.8,446.04 L221.516,447.156 C221.168,446.772 220.52,446.208 219.392,446.208 C218.06,446.208 217.028,447.18 217.028,448.86 C217.028,450.54 218.084,451.512 219.428,451.512 C220.772,451.512 221.156,450.984 221.156,450.984 L221.156,449.76 L219.416,449.76 L219.416,448.284 L223.052,448.284 Z M110.264,466.72 L110.264,468.256 L108.128,468.256 L108.128,475 L106.184,475 L106.184,468.256 L104.048,468.256 L104.048,466.72 L110.264,466.72 Z M119.78,466.72 L119.78,475 L117.836,475 L117.836,471.532 L114.512,471.532 L114.512,475 L112.568,475 L112.568,466.72 L114.512,466.72 L114.512,469.924 L117.836,469.924 L117.836,466.72 L119.78,466.72 Z M127.124,466.708 L130.244,475 L128.132,475 L127.544,473.332 L124.592,473.332 L124.004,475 L121.988,475 L125.108,466.708 L127.124,466.708 Z M125.036,471.82 L127.1,471.82 L126.068,468.844 L125.036,471.82 Z M139.94,466.72 L139.94,475 L137.948,475 L134.312,469.384 C134.312,469.384 134.348,470.38 134.348,471.256 L134.348,475 L132.452,475 L132.452,466.72 L134.528,466.72 L138.08,472.288 C138.08,472.288 138.044,471.352 138.044,470.476 L138.044,466.72 L139.94,466.72 Z M146.828,470.02 L149.948,475 L147.62,475 L145.544,471.544 L144.884,472.276 L144.884,475 L142.952,475 L142.952,466.72 L144.884,466.72 L144.884,469.744 L147.44,466.72 L149.744,466.72 L146.828,470.02 Z M157.472,472.48 C157.472,473.272 157.1,473.992 156.5,474.46 C155.912,474.928 155.144,475.144 154.256,475.144 C153.056,475.144 151.988,474.52 151.316,473.896 L152.276,472.48 C152.876,473.104 153.8,473.524 154.436,473.524 C155.06,473.524 155.54,473.224 155.54,472.672 C155.54,472.108 154.928,471.892 154.568,471.76 C154.208,471.628 153.584,471.412 153.308,471.292 C153.104,471.196 152.684,471.04 152.324,470.692 C151.964,470.356 151.676,469.876 151.676,469.096 C151.676,468.304 152.06,467.68 152.54,467.284 C153.008,466.888 153.764,466.624 154.724,466.624 C155.684,466.624 156.788,467.08 157.352,467.644 L156.524,469 C156.044,468.52 155.3,468.16 154.676,468.16 C154.052,468.16 153.596,468.4 153.596,468.904 C153.596,469.408 154.064,469.6 154.436,469.744 C154.796,469.888 155.408,470.104 155.672,470.212 C155.9,470.296 156.452,470.512 156.824,470.884 C157.172,471.232 157.472,471.736 157.472,472.48 Z M167.576,470.284 L167.576,473.716 C167.156,474.088 166.172,475.132 163.892,475.132 C161.6,475.132 159.584,473.62 159.584,470.86 C159.584,468.1 161.6,466.6 163.916,466.6 C166.112,466.6 167.06,467.752 167.324,468.04 L166.04,469.156 C165.692,468.772 165.044,468.208 163.916,468.208 C162.584,468.208 161.552,469.18 161.552,470.86 C161.552,472.54 162.608,473.512 163.952,473.512 C165.296,473.512 165.68,472.984 165.68,472.984 L165.68,471.76 L163.94,471.76 L163.94,470.284 L167.576,470.284 Z M172.376,466.72 L172.376,475 L170.432,475 L170.432,466.72 L172.376,466.72 Z M180.524,466.72 L182.576,466.72 L179.504,475 L177.656,475 L174.584,466.72 L176.648,466.72 L178.592,472.42 L180.524,466.72 Z M186.728,466.72 L186.728,475 L184.784,475 L184.784,466.72 L186.728,466.72 Z M197.228,466.72 L197.228,475 L195.236,475 L191.6,469.384 C191.6,469.384 191.636,470.38 191.636,471.256 L191.636,475 L189.74,475 L189.74,466.72 L191.816,466.72 L195.368,472.288 C195.368,472.288 195.332,471.352 195.332,470.476 L195.332,466.72 L197.228,466.72 Z M207.812,470.284 L207.812,473.716 C207.392,474.088 206.408,475.132 204.128,475.132 C201.836,475.132 199.82,473.62 199.82,470.86 C199.82,468.1 201.836,466.6 204.152,466.6 C206.348,466.6 207.296,467.752 207.56,468.04 L206.276,469.156 C205.928,468.772 205.28,468.208 204.152,468.208 C202.82,468.208 201.788,469.18 201.788,470.86 C201.788,472.54 202.844,473.512 204.188,473.512 C205.532,473.512 205.916,472.984 205.916,472.984 L205.916,471.76 L204.176,471.76 L204.176,470.284 L207.812,470.284 Z M223.568,466.72 L225.596,466.72 L223.196,475 L221.24,475 L219.668,469.324 L218.096,475 L216.14,475 L213.74,466.72 L215.768,466.72 L217.208,472.3 L218.696,466.72 L220.64,466.72 L222.14,472.3 L223.568,466.72 Z M233.288,473.428 L233.288,475 L227.816,475 L227.816,466.72 L233.18,466.72 L233.18,468.268 L229.748,468.268 L229.748,469.96 L232.988,469.96 L232.988,471.508 L229.748,471.508 L229.748,473.428 L233.288,473.428 Z M241.46,473.428 L241.46,475 L235.988,475 L235.988,466.72 L241.352,466.72 L241.352,468.268 L237.92,468.268 L237.92,469.96 L241.16,469.96 L241.16,471.508 L237.92,471.508 L237.92,473.428 L241.46,473.428 Z M248.036,470.02 L251.156,475 L248.828,475 L246.752,471.544 L246.092,472.276 L246.092,475 L244.16,475 L244.16,466.72 L246.092,466.72 L246.092,469.744 L248.648,466.72 L250.952,466.72 L248.036,470.02 Z" id="YOYINCREASEINOVERALLREVENUEDURINGTHANKSGIVINGWEEK" fill="#025450" fill-rule="nonzero"></path>
                        <path d="M133.6,324 L133.6,393 L118,393 L118,335.1 L105.5,335.1 L105.5,324 L133.6,324 Z M181.788889,324 L181.788889,393 L166.188889,393 L166.188889,335.1 L153.688889,335.1 L153.688889,324 L181.788889,324 Z M277.677778,376.4 C277.677778,387.2 270.277778,394.3 259.777778,394.3 C249.277778,394.3 241.877778,387.2 241.877778,376.4 C241.877778,365.6 249.277778,358.5 259.777778,358.5 C270.277778,358.5 277.677778,365.6 277.677778,376.4 Z M256.677778,322.2 L263.477778,326.3 L220.577778,395.4 L213.677778,391.3 L256.677778,322.2 Z M235.277778,341.2 C235.277778,352 227.877778,359.2 217.377778,359.2 C206.977778,359.2 199.477778,352 199.477778,341.2 C199.477778,330.4 206.977778,323.3 217.377778,323.3 C227.877778,323.3 235.277778,330.4 235.277778,341.2 Z M267.277778,376.2 C267.277778,371.2 264.677778,367.6 259.777778,367.6 C254.977778,367.6 252.377778,371.2 252.377778,376.2 C252.377778,381.3 254.977778,384.9 259.777778,384.9 C264.677778,384.9 267.277778,381.3 267.277778,376.2 Z M224.977778,341.1 C224.977778,336 222.277778,332.4 217.377778,332.4 C212.577778,332.4 210.077778,336 210.077778,341.1 C210.077778,346.1 212.577778,349.8 217.377778,349.8 C222.277778,349.8 224.977778,346.1 224.977778,341.1 Z" id="11%" fill="#42BFB6"></path>
                        <path d="M109.412,152.72 L111.572,152.72 L108.692,157.652 L108.692,161 L106.748,161 L106.748,157.652 L103.868,152.72 L106.028,152.72 L107.72,156.02 L109.412,152.72 Z M121.58,156.872 C121.58,159.548 119.648,161.144 117.188,161.144 C114.728,161.144 112.796,159.548 112.796,156.872 C112.796,154.196 114.728,152.588 117.188,152.588 C119.648,152.588 121.58,154.196 121.58,156.872 Z M119.612,156.824 C119.612,155.252 118.568,154.244 117.188,154.244 C115.808,154.244 114.764,155.24 114.764,156.824 C114.764,158.408 115.808,159.416 117.188,159.416 C118.568,159.416 119.612,158.408 119.612,156.824 Z M128.348,152.72 L130.508,152.72 L127.628,157.652 L127.628,161 L125.684,161 L125.684,157.652 L122.804,152.72 L124.964,152.72 L126.656,156.02 L128.348,152.72 Z M138.44,152.72 L138.44,161 L136.496,161 L136.496,152.72 L138.44,152.72 Z M148.94,152.72 L148.94,161 L146.948,161 L143.312,155.384 C143.312,155.384 143.348,156.38 143.348,157.256 L143.348,161 L141.452,161 L141.452,152.72 L143.528,152.72 L147.08,158.288 C147.08,158.288 147.044,157.352 147.044,156.476 L147.044,152.72 L148.94,152.72 Z M158.216,158.504 L158.864,160.016 C158.444,160.448 157.568,161.144 155.876,161.144 C153.44,161.144 151.532,159.536 151.532,156.872 C151.532,154.196 153.464,152.6 155.876,152.6 C157.58,152.6 158.504,153.308 158.72,153.536 L158.12,155.144 C157.964,154.94 157.076,154.28 155.984,154.28 C154.58,154.28 153.5,155.216 153.5,156.836 C153.5,158.456 154.628,159.38 155.984,159.38 C157.016,159.38 157.76,158.972 158.216,158.504 Z M165.704,157.58 L167.804,161 L165.548,161 L163.808,157.832 L163.196,157.832 L163.196,161 L161.252,161 L161.252,152.72 L164.228,152.72 C165.152,152.72 165.872,152.912 166.412,153.308 C166.964,153.716 167.324,154.376 167.324,155.204 C167.324,156.776 166.316,157.388 165.704,157.58 Z M165.368,155.276 C165.368,154.856 165.2,154.616 164.948,154.436 C164.708,154.256 164.396,154.22 163.952,154.22 L163.184,154.22 L163.184,156.344 L163.952,156.344 C164.396,156.344 164.708,156.296 164.948,156.116 C165.2,155.936 165.368,155.708 165.368,155.276 Z M175.424,159.428 L175.424,161 L169.952,161 L169.952,152.72 L175.316,152.72 L175.316,154.268 L171.884,154.268 L171.884,155.96 L175.124,155.96 L175.124,157.508 L171.884,157.508 L171.884,159.428 L175.424,159.428 Z M182.456,152.708 L185.576,161 L183.464,161 L182.876,159.332 L179.924,159.332 L179.336,161 L177.32,161 L180.44,152.708 L182.456,152.708 Z M180.368,157.82 L182.432,157.82 L181.4,154.844 L180.368,157.82 Z M193.136,158.48 C193.136,159.272 192.764,159.992 192.164,160.46 C191.576,160.928 190.808,161.144 189.92,161.144 C188.72,161.144 187.652,160.52 186.98,159.896 L187.94,158.48 C188.54,159.104 189.464,159.524 190.1,159.524 C190.724,159.524 191.204,159.224 191.204,158.672 C191.204,158.108 190.592,157.892 190.232,157.76 C189.872,157.628 189.248,157.412 188.972,157.292 C188.768,157.196 188.348,157.04 187.988,156.692 C187.628,156.356 187.34,155.876 187.34,155.096 C187.34,154.304 187.724,153.68 188.204,153.284 C188.672,152.888 189.428,152.624 190.388,152.624 C191.348,152.624 192.452,153.08 193.016,153.644 L192.188,155 C191.708,154.52 190.964,154.16 190.34,154.16 C189.716,154.16 189.26,154.4 189.26,154.904 C189.26,155.408 189.728,155.6 190.1,155.744 C190.46,155.888 191.072,156.104 191.336,156.212 C191.564,156.296 192.116,156.512 192.488,156.884 C192.836,157.232 193.136,157.736 193.136,158.48 Z M201.14,159.428 L201.14,161 L195.668,161 L195.668,152.72 L201.032,152.72 L201.032,154.268 L197.6,154.268 L197.6,155.96 L200.84,155.96 L200.84,157.508 L197.6,157.508 L197.6,159.428 L201.14,159.428 Z M209.648,152.72 L209.648,161 L207.704,161 L207.704,152.72 L209.648,152.72 Z M220.148,152.72 L220.148,161 L218.156,161 L214.52,155.384 C214.52,155.384 214.556,156.38 214.556,157.256 L214.556,161 L212.66,161 L212.66,152.72 L214.736,152.72 L218.288,158.288 C218.288,158.288 218.252,157.352 218.252,156.476 L218.252,152.72 L220.148,152.72 Z M233.444,158.624 C233.444,159.536 233.06,160.076 232.532,160.46 C232.004,160.844 231.26,161 230.408,161 L227.024,161 L227.024,152.72 L229.844,152.72 C230.6,152.72 231.332,152.78 231.884,153.068 C232.436,153.356 232.94,153.896 232.94,154.808 C232.94,155.72 232.352,156.416 231.728,156.632 L231.728,156.656 C232.76,156.908 233.444,157.604 233.444,158.624 Z M231.032,155.096 C231.032,154.7 230.864,154.472 230.624,154.328 C230.396,154.184 230.18,154.16 229.76,154.16 L228.956,154.16 L228.956,156.068 L229.712,156.068 C230.144,156.068 230.396,156.044 230.624,155.888 C230.864,155.72 231.032,155.504 231.032,155.096 Z M231.476,158.468 C231.476,158.096 231.344,157.844 231.056,157.64 C230.768,157.436 230.444,157.412 230.024,157.412 L228.956,157.412 L228.956,159.524 L230.024,159.524 C230.444,159.524 230.768,159.5 231.056,159.296 C231.344,159.104 231.476,158.828 231.476,158.468 Z M240.8,159.392 L240.8,161 L236,161 L236,152.72 L237.932,152.72 L237.932,159.392 L240.8,159.392 Z M247.508,152.708 L250.628,161 L248.516,161 L247.928,159.332 L244.976,159.332 L244.388,161 L242.372,161 L245.492,152.708 L247.508,152.708 Z M245.42,157.82 L247.484,157.82 L246.452,154.844 L245.42,157.82 Z M258.86,158.504 L259.508,160.016 C259.088,160.448 258.212,161.144 256.52,161.144 C254.084,161.144 252.176,159.536 252.176,156.872 C252.176,154.196 254.108,152.6 256.52,152.6 C258.224,152.6 259.148,153.308 259.364,153.536 L258.764,155.144 C258.608,154.94 257.72,154.28 256.628,154.28 C255.224,154.28 254.144,155.216 254.144,156.836 C254.144,158.456 255.272,159.38 256.628,159.38 C257.66,159.38 258.404,158.972 258.86,158.504 Z M265.772,156.02 L268.892,161 L266.564,161 L264.488,157.544 L263.828,158.276 L263.828,161 L261.896,161 L261.896,152.72 L263.828,152.72 L263.828,155.744 L266.384,152.72 L268.688,152.72 L265.772,156.02 Z M109.928,174.72 L109.928,176.268 L106.688,176.268 L106.688,178.296 L109.736,178.296 L109.736,179.844 L106.688,179.844 L106.688,183 L104.756,183 L104.756,174.72 L109.928,174.72 Z M116.972,179.58 L119.072,183 L116.816,183 L115.076,179.832 L114.464,179.832 L114.464,183 L112.52,183 L112.52,174.72 L115.496,174.72 C116.42,174.72 117.14,174.912 117.68,175.308 C118.232,175.716 118.592,176.376 118.592,177.204 C118.592,178.776 117.584,179.388 116.972,179.58 Z M116.636,177.276 C116.636,176.856 116.468,176.616 116.216,176.436 C115.976,176.256 115.664,176.22 115.22,176.22 L114.452,176.22 L114.452,178.344 L115.22,178.344 C115.664,178.344 115.976,178.296 116.216,178.116 C116.468,177.936 116.636,177.708 116.636,177.276 Z M123.164,174.72 L123.164,183 L121.22,183 L121.22,174.72 L123.164,174.72 Z M133.52,178.86 C133.52,180.468 132.872,181.428 132.176,182.016 C131.492,182.592 130.424,183 128.984,183 L126.176,183 L126.176,174.72 L128.984,174.72 C130.424,174.72 131.492,175.128 132.176,175.716 C132.872,176.292 133.52,177.252 133.52,178.86 Z M131.552,178.86 C131.552,177.84 131.168,177.252 130.82,176.916 C130.472,176.592 129.896,176.328 129.092,176.328 L128.108,176.328 L128.108,181.356 L129.092,181.356 C129.896,181.356 130.472,181.092 130.82,180.756 C131.168,180.432 131.552,179.88 131.552,178.86 Z M140.204,174.708 L143.324,183 L141.212,183 L140.624,181.332 L137.672,181.332 L137.084,183 L135.068,183 L138.188,174.708 L140.204,174.708 Z M138.116,179.82 L140.18,179.82 L139.148,176.844 L138.116,179.82 Z M149.108,174.72 L151.268,174.72 L148.388,179.652 L148.388,183 L146.444,183 L146.444,179.652 L143.564,174.72 L145.724,174.72 L147.416,178.02 L149.108,174.72 Z M161.708,179.58 L163.808,183 L161.552,183 L159.812,179.832 L159.2,179.832 L159.2,183 L157.256,183 L157.256,174.72 L160.232,174.72 C161.156,174.72 161.876,174.912 162.416,175.308 C162.968,175.716 163.328,176.376 163.328,177.204 C163.328,178.776 162.32,179.388 161.708,179.58 Z M161.372,177.276 C161.372,176.856 161.204,176.616 160.952,176.436 C160.712,176.256 160.4,176.22 159.956,176.22 L159.188,176.22 L159.188,178.344 L159.956,178.344 C160.4,178.344 160.712,178.296 160.952,178.116 C161.204,177.936 161.372,177.708 161.372,177.276 Z M171.428,181.428 L171.428,183 L165.956,183 L165.956,174.72 L171.32,174.72 L171.32,176.268 L167.888,176.268 L167.888,177.96 L171.128,177.96 L171.128,179.508 L167.888,179.508 L167.888,181.428 L171.428,181.428 Z M179.264,174.72 L181.316,174.72 L178.244,183 L176.396,183 L173.324,174.72 L175.388,174.72 L177.332,180.42 L179.264,174.72 Z M188.996,181.428 L188.996,183 L183.524,183 L183.524,174.72 L188.888,174.72 L188.888,176.268 L185.456,176.268 L185.456,177.96 L188.696,177.96 L188.696,179.508 L185.456,179.508 L185.456,181.428 L188.996,181.428 Z M199.184,174.72 L199.184,183 L197.192,183 L193.556,177.384 C193.556,177.384 193.592,178.38 193.592,179.256 L193.592,183 L191.696,183 L191.696,174.72 L193.772,174.72 L197.324,180.288 C197.324,180.288 197.288,179.352 197.288,178.476 L197.288,174.72 L199.184,174.72 Z M209.072,174.72 L209.072,179.544 C209.072,180.708 208.868,181.512 208.28,182.148 C207.704,182.772 206.804,183.132 205.604,183.132 C204.392,183.132 203.504,182.772 202.916,182.148 C202.34,181.512 202.136,180.708 202.136,179.544 L202.136,174.72 L204.092,174.72 L204.092,179.544 C204.092,180.132 204.14,180.588 204.416,180.924 C204.68,181.236 205.064,181.44 205.604,181.44 C206.144,181.44 206.528,181.236 206.792,180.924 C207.068,180.588 207.116,180.132 207.116,179.544 L207.116,174.72 L209.072,174.72 Z M217.496,181.428 L217.496,183 L212.024,183 L212.024,174.72 L217.388,174.72 L217.388,176.268 L213.956,176.268 L213.956,177.96 L217.196,177.96 L217.196,179.508 L213.956,179.508 L213.956,181.428 L217.496,181.428 Z" id="YOYINCREASEINBLACKFRIDAYREVENUE" fill="#025450" fill-rule="nonzero"></path>
                        <path d="M156.5,98.9 C156.5,115 142.6,123.1 128.9,123.1 C115.1,123.1 106.7,116.8 103.5,111.8 L110.9,102.3 C114.7,107.6 121.9,110.6 127.8,110.6 C133.7,110.6 140.8,107.2 140.8,98.9 C140.8,90.7 134,87.3 127.8,87.3 C123.3,87.3 118.3,88.7 115.2,90.9 L108.2,86.7 L113.5,53 L153.9,53 L153.9,65.4 L125.2,65.4 L123.2,77.8 C125.3,76.9 127.9,76.3 132.4,76.3 C142.9,76.3 156.5,82.9 156.5,98.9 Z M220.488889,98.9 C220.488889,115 206.588889,123.1 192.888889,123.1 C179.088889,123.1 170.688889,116.8 167.488889,111.8 L174.888889,102.3 C178.688889,107.6 185.888889,110.6 191.788889,110.6 C197.688889,110.6 204.788889,107.2 204.788889,98.9 C204.788889,90.7 197.988889,87.3 191.788889,87.3 C187.288889,87.3 182.288889,88.7 179.188889,90.9 L172.188889,86.7 L177.488889,53 L217.888889,53 L217.888889,65.4 L189.188889,65.4 L187.188889,77.8 C189.288889,76.9 191.888889,76.3 196.388889,76.3 C206.888889,76.3 220.488889,82.9 220.488889,98.9 Z M309.277778,105.4 C309.277778,116.2 301.877778,123.3 291.377778,123.3 C280.877778,123.3 273.477778,116.2 273.477778,105.4 C273.477778,94.6 280.877778,87.5 291.377778,87.5 C301.877778,87.5 309.277778,94.6 309.277778,105.4 Z M288.277778,51.2 L295.077778,55.3 L252.177778,124.4 L245.277778,120.3 L288.277778,51.2 Z M266.877778,70.2 C266.877778,81 259.477778,88.2 248.977778,88.2 C238.577778,88.2 231.077778,81 231.077778,70.2 C231.077778,59.4 238.577778,52.3 248.977778,52.3 C259.477778,52.3 266.877778,59.4 266.877778,70.2 Z M298.877778,105.2 C298.877778,100.2 296.277778,96.6 291.377778,96.6 C286.577778,96.6 283.977778,100.2 283.977778,105.2 C283.977778,110.3 286.577778,113.9 291.377778,113.9 C296.277778,113.9 298.877778,110.3 298.877778,105.2 Z M256.577778,70.1 C256.577778,65 253.877778,61.4 248.977778,61.4 C244.177778,61.4 241.677778,65 241.677778,70.1 C241.677778,75.1 244.177778,78.8 248.977778,78.8 C253.877778,78.8 256.577778,75.1 256.577778,70.1 Z" id="55%" fill="#42BFB6"></path>
                    </g>
                </g>
            </g>
        </g>
    </g>
</svg>