<?xml version="1.0" encoding="UTF-8"?>
<svg width="924px" height="534px" viewBox="0 0 924 534" version="1.1" xmlns="http://www.w3.org/2000/svg" xmlns:xlink="http://www.w3.org/1999/xlink">
    <!-- Generator: Sketch 55.2 (78181) - https://sketchapp.com -->
    <title>Group Copy 2</title>
    <desc>Created with Sketch.</desc>
    <defs>
        <linearGradient x1="0%" y1="69.0683463%" x2="100%" y2="69.0683484%" id="linearGradient-1">
            <stop stop-color="#A5DDEF" stop-opacity="0.3026934" offset="0%"></stop>
            <stop stop-color="#42BFB6" stop-opacity="0.497951267" offset="98.3926309%"></stop>
        </linearGradient>
        <linearGradient x1="0%" y1="50%" x2="100%" y2="50%" id="linearGradient-2">
            <stop stop-color="#A5DDEF" offset="0%"></stop>
            <stop stop-color="#5575C4" offset="100%"></stop>
        </linearGradient>
        <linearGradient x1="0%" y1="69.0683463%" x2="100%" y2="69.0683484%" id="linearGradient-3">
            <stop stop-color="#A5DDEF" offset="0%"></stop>
            <stop stop-color="#49C5B1" offset="100%"></stop>
        </linearGradient>
        <path d="M858.079988,186.990973 L855.867639,145.373943" id="path-4"></path>
        <filter x="-1168.4%" y="-47.6%" width="2410.5%" height="282.5%" filterUnits="objectBoundingBox" id="filter-5">
            <feMorphology radius="1" operator="dilate" in="SourceAlpha" result="shadowSpreadOuter1"></feMorphology>
            <feOffset dx="0" dy="22" in="shadowSpreadOuter1" result="shadowOffsetOuter1"></feOffset>
            <feMorphology radius="1" operator="erode" in="SourceAlpha" result="shadowInner"></feMorphology>
            <feOffset dx="0" dy="22" in="shadowInner" result="shadowInner"></feOffset>
            <feComposite in="shadowOffsetOuter1" in2="shadowInner" operator="out" result="shadowOffsetOuter1"></feComposite>
            <feGaussianBlur stdDeviation="8" in="shadowOffsetOuter1" result="shadowBlurOuter1"></feGaussianBlur>
            <feColorMatrix values="0 0 0 0 0   0 0 0 0 0   0 0 0 0 0  0 0 0 0.5 0" type="matrix" in="shadowBlurOuter1"></feColorMatrix>
        </filter>
        <path d="M858.162499,303.780808 L855.764827,258.030489" id="path-6"></path>
        <filter x="-1157.8%" y="-43.4%" width="2416.7%" height="267.0%" filterUnits="objectBoundingBox" id="filter-7">
            <feMorphology radius="1" operator="dilate" in="SourceAlpha" result="shadowSpreadOuter1"></feMorphology>
            <feOffset dx="0" dy="22" in="shadowSpreadOuter1" result="shadowOffsetOuter1"></feOffset>
            <feMorphology radius="1" operator="erode" in="SourceAlpha" result="shadowInner"></feMorphology>
            <feOffset dx="0" dy="22" in="shadowInner" result="shadowInner"></feOffset>
            <feComposite in="shadowOffsetOuter1" in2="shadowInner" operator="out" result="shadowOffsetOuter1"></feComposite>
            <feGaussianBlur stdDeviation="8" in="shadowOffsetOuter1" result="shadowBlurOuter1"></feGaussianBlur>
            <feColorMatrix values="0 0 0 0 0   0 0 0 0 0   0 0 0 0 0  0 0 0 0.5 0" type="matrix" in="shadowBlurOuter1"></feColorMatrix>
        </filter>
    </defs>
    <g id="data-illustrations" stroke="none" stroke-width="1" fill="none" fill-rule="evenodd">
        <g id="advertisers-graph-copy" transform="translate(-116.000000, -361.000000)">
            <g id="Group-Copy-2" transform="translate(110.000000, 353.000000)">
                <g id="Group-14" transform="translate(33.000000, 38.000000)" stroke="#EBEBEB" stroke-linecap="square" stroke-width="2">
                    <path d="M10.5,1.51075269 L10.5,475.622421" id="Line-3"></path>
                    <path d="M173.3,1.51075269 L173.3,475.622421" id="Line-3"></path>
                    <path d="M336.1,1.51075269 L336.1,475.622421" id="Line-3"></path>
                    <path d="M498.9,1.51075269 L498.9,475.622421" id="Line-3"></path>
                    <path d="M661.7,1.51075269 L661.7,475.622421" id="Line-3"></path>
                    <path d="M824.5,1.51075269 L824.5,475.622421" id="Line-3-Copy"></path>
                    <path d="M0.447826087,466 L823.974552,466" id="Line-Copy-5"></path>
                    <path d="M0.447826087,373 L823.974552,373" id="Line"></path>
                    <path d="M0.447826087,280 L823.974552,280" id="Line-Copy"></path>
                    <path d="M0.447826087,187 L823.974552,187" id="Line-Copy-2"></path>
                    <path d="M0.447826087,94 L823.974552,94" id="Line-Copy-3"></path>
                    <path d="M0.447826087,1 L823.974552,1" id="Line-Copy-4"></path>
                </g>
                <polygon id="Path-2" fill-opacity="0.321159309" fill="#293990" points="857 503.520996 43.03125 503.520996 43.03125 410.001953 206.504464 449.162851 369.448787 435.81406 532.402315 381.49131 695.022461 337.831055 857 317.90332"></polygon>
                <polygon id="Path-4" fill="url(#linearGradient-1)" points="43 391.117188 206.263672 366.789062 369.03418 326.791016 531.960938 270.260742 694.623012 209.648438 856.96875 132 856.96875 503.736328 43 503.736328"></polygon>
                <polyline id="Path-2" stroke="url(#linearGradient-2)" stroke-width="4" points="43.5991211 411.94043 206.504464 449.162851 369.448787 435.81406 532.402315 381.49131 695.245702 337.910156 857 318.119141"></polyline>
                <polyline id="Path-4" stroke="url(#linearGradient-3)" stroke-width="4" points="43 391.117188 206.367056 366.384072 369.083577 326.794141 532.114787 269.6968 694.94966 209.078125 856.96875 132"></polyline>
                <circle id="Oval-Copy-2" fill-opacity="0.192389642" fill="#42BFB6" cx="857" cy="131.91614" r="16"></circle>
                <circle id="Oval-Copy-3" stroke="#42BFB6" stroke-width="4" fill="#FFFFFF" cx="857" cy="131.91614" r="5"></circle>
                <path d="M874.857475,334.314784 L910.804812,293.168755" id="Path-3" stroke="#5575C4" stroke-width="4" style="mix-blend-mode: multiply;" stroke-linecap="round" stroke-dasharray="1,9" transform="translate(892.857475, 313.460294) rotate(221.000000) translate(-892.857475, -313.460294) "></path>
                <circle id="Oval-Copy" fill-opacity="0.150158435" fill="#5575C4" cx="857" cy="318" r="18"></circle>
                <circle id="Oval-Copy" stroke="#5575C4" stroke-width="4" fill="#FFFFFF" cx="857" cy="318" r="5"></circle>
                <polygon id="Triangle" fill="#5575C4" transform="translate(922.722887, 309.722887) rotate(83.000000) translate(-922.722887, -309.722887) " points="922.722887 303.222887 929.222887 316.222887 916.222887 316.222887"></polygon>
                <path d="M868.672042,126.334565 L920.447896,88.54221" id="Path-3" stroke="#42BFB6" stroke-width="4" style="mix-blend-mode: multiply;" stroke-linecap="round" stroke-linejoin="bevel" stroke-dasharray="1,9" transform="translate(894.559969, 107.438387) rotate(3.000000) translate(-894.559969, -107.438387) "></path>
                <polygon id="Triangle" fill="#42BFB6" transform="translate(920.649983, 90.102928) rotate(53.000000) translate(-920.649983, -90.102928) " points="920.649983 83.6029285 927.149983 96.6029285 914.149983 96.6029285"></polygon>
                <g id="Group-23" fill-rule="nonzero">
                    <path d="M68.7880859,18 L67.1376953,18 L65.5634766,12.4648438 C65.4957679,12.2236316 65.4111333,11.8755719 65.3095703,11.4206543 C65.2080073,10.9657367 65.1466472,10.649415 65.1254883,10.4716797 C65.0831704,10.7425144 65.0144048,11.0937478 64.9191895,11.5253906 C64.8239741,11.9570334 64.7446292,12.2786448 64.6811523,12.4902344 L63.1450195,18 L61.4946289,18 L60.2949219,13.3535156 L59.0761719,8.71972656 L60.625,8.71972656 L61.9516602,14.1279297 C62.159018,14.995447 62.3071285,15.7613899 62.3959961,16.4257812 C62.4425458,16.0660789 62.5123693,15.6640647 62.6054688,15.2197266 C62.6985682,14.7753884 62.7832027,14.4156915 62.859375,14.140625 L64.3701172,8.71972656 L65.8745117,8.71972656 L67.4233398,14.1660156 C67.5714526,14.6695989 67.7280265,15.4228465 67.8930664,16.4257812 C67.9565433,15.820635 68.1088855,15.0504604 68.3500977,14.1152344 L69.6704102,8.71972656 L71.206543,8.71972656 L68.7880859,18 Z M73.8535156,18 L72.3618164,18 L72.3618164,10.9794922 L73.8535156,10.9794922 L73.8535156,18 Z M72.2729492,9.11962891 C72.2729492,8.85302601 72.3459465,8.64778718 72.4919434,8.50390625 C72.6379402,8.36002532 72.8463528,8.28808594 73.1171875,8.28808594 C73.3795586,8.28808594 73.5837395,8.36002532 73.7297363,8.50390625 C73.8757332,8.64778718 73.9487305,8.85302601 73.9487305,9.11962891 C73.9487305,9.37353643 73.8757332,9.5734856 73.7297363,9.71948242 C73.5837395,9.86547925 73.3795586,9.93847656 73.1171875,9.93847656 C72.8463528,9.93847656 72.6379402,9.86547925 72.4919434,9.71948242 C72.3459465,9.5734856 72.2729492,9.37353643 72.2729492,9.11962891 Z M78.6015625,16.9208984 C78.9654966,16.9208984 79.3294253,16.8637701 79.6933594,16.7495117 L79.6933594,17.8730469 C79.5283195,17.9449873 79.3156751,18.0052895 79.0554199,18.0539551 C78.7951647,18.1026207 78.525392,18.1269531 78.2460938,18.1269531 C76.8326752,18.1269531 76.1259766,17.3821689 76.1259766,15.8925781 L76.1259766,12.109375 L75.1674805,12.109375 L75.1674805,11.4492188 L76.1958008,10.9033203 L76.7036133,9.41796875 L77.6240234,9.41796875 L77.6240234,10.9794922 L79.6235352,10.9794922 L79.6235352,12.109375 L77.6240234,12.109375 L77.6240234,15.8671875 C77.6240234,16.2268898 77.7139477,16.4924308 77.8937988,16.6638184 C78.07365,16.8352059 78.3095689,16.9208984 78.6015625,16.9208984 Z M87.2724609,18 L85.7744141,18 L85.7744141,13.6835938 C85.7744141,13.1419244 85.6654471,12.7377943 85.4475098,12.4711914 C85.2295725,12.2045885 84.8836287,12.0712891 84.409668,12.0712891 C83.7833628,12.0712891 83.3231623,12.258543 83.0290527,12.6330566 C82.7349432,13.0075702 82.5878906,13.634924 82.5878906,14.5151367 L82.5878906,18 L81.0961914,18 L81.0961914,8.12304688 L82.5878906,8.12304688 L82.5878906,10.6303711 C82.5878906,11.0323913 82.5625003,11.4619118 82.5117188,11.9189453 L82.6069336,11.9189453 C82.8100596,11.580402 83.0925275,11.3180348 83.4543457,11.1318359 C83.8161639,10.9456371 84.2382788,10.8525391 84.7207031,10.8525391 C86.4218835,10.8525391 87.2724609,11.7094641 87.2724609,13.4233398 L87.2724609,18 Z M99.0283203,11.5253906 C99.0283203,12.494471 98.7109407,13.2371393 98.0761719,13.753418 C97.4414031,14.2696966 96.537929,14.527832 95.3657227,14.527832 L94.4008789,14.527832 L94.4008789,18 L92.8837891,18 L92.8837891,8.71972656 L95.5561523,8.71972656 C96.7156633,8.71972656 97.5842256,8.95670336 98.1618652,9.43066406 C98.7395048,9.90462477 99.0283203,10.60286 99.0283203,11.5253906 Z M94.4008789,13.2519531 L95.2070312,13.2519531 C95.985681,13.2519531 96.5569643,13.1165378 96.9208984,12.8457031 C97.2848325,12.5748684 97.4667969,12.1516956 97.4667969,11.5761719 C97.4667969,11.0429661 97.3038753,10.6451836 96.9780273,10.3828125 C96.6521794,10.1204414 96.1443719,9.98925781 95.4545898,9.98925781 L94.4008789,9.98925781 L94.4008789,13.2519531 Z M105.115723,18 L104.817383,17.0224609 L104.766602,17.0224609 C104.428058,17.4498719 104.087404,17.7408033 103.744629,17.8952637 C103.401854,18.0497241 102.961754,18.1269531 102.424316,18.1269531 C101.734534,18.1269531 101.196047,17.9407571 100.808838,17.5683594 C100.421629,17.1959617 100.228027,16.6691115 100.228027,15.987793 C100.228027,15.2641565 100.496742,14.7182636 101.03418,14.3500977 C101.571617,13.9819318 102.390457,13.7809246 103.490723,13.7470703 L104.703125,13.7089844 L104.703125,13.3344727 C104.703125,12.8859027 104.59839,12.5505382 104.388916,12.3283691 C104.179442,12.1062001 103.854657,11.9951172 103.414551,11.9951172 C103.054848,11.9951172 102.709963,12.0480138 102.379883,12.1538086 C102.049803,12.2596034 101.732423,12.3844394 101.427734,12.5283203 L100.945312,11.4619141 C101.326174,11.2630198 101.742999,11.1117355 102.195801,11.0080566 C102.648603,10.9043777 103.076007,10.8525391 103.478027,10.8525391 C104.370935,10.8525391 105.044838,11.0471986 105.499756,11.4365234 C105.954673,11.8258483 106.182129,12.4373331 106.182129,13.2709961 L106.182129,18 L105.115723,18 Z M102.894043,16.984375 C103.435712,16.984375 103.870522,16.8330907 104.198486,16.5305176 C104.52645,16.2279445 104.69043,15.8037137 104.69043,15.2578125 L104.69043,14.6484375 L103.789062,14.6865234 C103.086585,14.7119142 102.575604,14.8293447 102.256104,15.0388184 C101.936603,15.2482921 101.776855,15.5688455 101.776855,16.0004883 C101.776855,16.3136409 101.869953,16.5559073 102.056152,16.7272949 C102.242351,16.8986825 102.521645,16.984375 102.894043,16.984375 Z M111.825195,10.8525391 C112.125653,10.8525391 112.373209,10.8736977 112.567871,10.9160156 L112.421875,12.3061523 C112.210285,12.2553708 111.990236,12.2299805 111.761719,12.2299805 C111.165036,12.2299805 110.681561,12.42464 110.311279,12.8139648 C109.940997,13.2032897 109.755859,13.7089813 109.755859,14.3310547 L109.755859,18 L108.26416,18 L108.26416,10.9794922 L109.432129,10.9794922 L109.628906,12.2172852 L109.705078,12.2172852 C109.937827,11.7983377 110.241453,11.4661471 110.615967,11.2207031 C110.99048,10.9752592 111.393553,10.8525391 111.825195,10.8525391 Z M116.484375,16.9208984 C116.848309,16.9208984 117.212238,16.8637701 117.576172,16.7495117 L117.576172,17.8730469 C117.411132,17.9449873 117.198488,18.0052895 116.938232,18.0539551 C116.677977,18.1026207 116.408205,18.1269531 116.128906,18.1269531 C114.715488,18.1269531 114.008789,17.3821689 114.008789,15.8925781 L114.008789,12.109375 L113.050293,12.109375 L113.050293,11.4492188 L114.078613,10.9033203 L114.586426,9.41796875 L115.506836,9.41796875 L115.506836,10.9794922 L117.506348,10.9794922 L117.506348,12.109375 L115.506836,12.109375 L115.506836,15.8671875 C115.506836,16.2268898 115.59676,16.4924308 115.776611,16.6638184 C115.956462,16.8352059 116.192381,16.9208984 116.484375,16.9208984 Z M125.155273,18 L123.657227,18 L123.657227,13.6835938 C123.657227,13.1419244 123.54826,12.7377943 123.330322,12.4711914 C123.112385,12.2045885 122.766441,12.0712891 122.29248,12.0712891 C121.661943,12.0712891 121.200685,12.2574851 120.908691,12.6298828 C120.616698,13.0022805 120.470703,13.6264605 120.470703,14.5024414 L120.470703,18 L118.979004,18 L118.979004,10.9794922 L120.146973,10.9794922 L120.356445,11.8999023 L120.432617,11.8999023 C120.644207,11.5655908 120.94466,11.3074553 121.333984,11.1254883 C121.723309,10.9435212 122.154946,10.8525391 122.628906,10.8525391 C124.313159,10.8525391 125.155273,11.7094641 125.155273,13.4233398 L125.155273,18 Z M130.296875,18.1269531 C129.205073,18.1269531 128.351321,17.8085156 127.735596,17.1716309 C127.11987,16.5347462 126.812012,15.6577204 126.812012,14.5405273 C126.812012,13.3937117 127.097653,12.4923535 127.668945,11.8364258 C128.240237,11.180498 129.025223,10.8525391 130.023926,10.8525391 C130.950688,10.8525391 131.682777,11.133949 132.220215,11.6967773 C132.757652,12.2596057 133.026367,13.034012 133.026367,14.0200195 L133.026367,14.8261719 L128.348145,14.8261719 C128.369303,15.5074904 128.553384,16.0311668 128.900391,16.3972168 C129.247398,16.7632668 129.736162,16.9462891 130.366699,16.9462891 C130.781415,16.9462891 131.16756,16.9071456 131.525146,16.8288574 C131.882733,16.7505693 132.266762,16.6204436 132.677246,16.4384766 L132.677246,17.6508789 C132.313312,17.8243824 131.945152,17.9471025 131.572754,18.019043 C131.200356,18.0909834 130.775067,18.1269531 130.296875,18.1269531 Z M130.023926,11.9824219 C129.549965,11.9824219 129.170167,12.1326482 128.884521,12.4331055 C128.598876,12.7335627 128.428548,13.1715466 128.373535,13.7470703 L131.560059,13.7470703 C131.551595,13.1673148 131.411948,12.728273 131.141113,12.4299316 C130.870279,12.1315903 130.497886,11.9824219 130.023926,11.9824219 Z M138.282227,10.8525391 C138.582684,10.8525391 138.83024,10.8736977 139.024902,10.9160156 L138.878906,12.3061523 C138.667317,12.2553708 138.447267,12.2299805 138.21875,12.2299805 C137.622067,12.2299805 137.138592,12.42464 136.768311,12.8139648 C136.398029,13.2032897 136.212891,13.7089813 136.212891,14.3310547 L136.212891,18 L134.721191,18 L134.721191,10.9794922 L135.88916,10.9794922 L136.085938,12.2172852 L136.162109,12.2172852 C136.394858,11.7983377 136.698484,11.4661471 137.072998,11.2207031 C137.447512,10.9752592 137.850584,10.8525391 138.282227,10.8525391 Z M145.378906,13.0361328 L146.432617,13.0361328 C147.139326,13.0361328 147.651366,12.9049492 147.96875,12.6425781 C148.286134,12.380207 148.444824,11.990888 148.444824,11.4746094 C148.444824,10.9498672 148.273439,10.5732433 147.930664,10.3447266 C147.587889,10.1162098 147.071618,10.0019531 146.381836,10.0019531 L145.378906,10.0019531 L145.378906,13.0361328 Z M145.378906,14.2929688 L145.378906,18 L143.861816,18 L143.861816,8.71972656 L146.483398,8.71972656 C147.680996,8.71972656 148.567543,8.94400817 149.143066,9.39257812 C149.71859,9.84114808 150.006348,10.5182246 150.006348,11.4238281 C150.006348,12.5791073 149.405442,13.4021785 148.203613,13.8930664 L150.825195,18 L149.098633,18 L146.876953,14.2929688 L145.378906,14.2929688 Z M155.078125,18.1269531 C153.986323,18.1269531 153.132571,17.8085156 152.516846,17.1716309 C151.90112,16.5347462 151.593262,15.6577204 151.593262,14.5405273 C151.593262,13.3937117 151.878903,12.4923535 152.450195,11.8364258 C153.021487,11.180498 153.806473,10.8525391 154.805176,10.8525391 C155.731938,10.8525391 156.464027,11.133949 157.001465,11.6967773 C157.538902,12.2596057 157.807617,13.034012 157.807617,14.0200195 L157.807617,14.8261719 L153.129395,14.8261719 C153.150553,15.5074904 153.334634,16.0311668 153.681641,16.3972168 C154.028648,16.7632668 154.517412,16.9462891 155.147949,16.9462891 C155.562665,16.9462891 155.94881,16.9071456 156.306396,16.8288574 C156.663983,16.7505693 157.048012,16.6204436 157.458496,16.4384766 L157.458496,17.6508789 C157.094562,17.8243824 156.726402,17.9471025 156.354004,18.019043 C155.981606,18.0909834 155.556317,18.1269531 155.078125,18.1269531 Z M154.805176,11.9824219 C154.331215,11.9824219 153.951417,12.1326482 153.665771,12.4331055 C153.380126,12.7335627 153.209798,13.1715466 153.154785,13.7470703 L156.341309,13.7470703 C156.332845,13.1673148 156.193198,12.728273 155.922363,12.4299316 C155.651529,12.1315903 155.279136,11.9824219 154.805176,11.9824219 Z M162.333496,18.1269531 C161.271316,18.1269531 160.464114,17.816979 159.911865,17.1970215 C159.359616,16.577064 159.083496,15.687343 159.083496,14.527832 C159.083496,13.3471621 159.372312,12.4394563 159.949951,11.8046875 C160.527591,11.1699187 161.362299,10.8525391 162.454102,10.8525391 C163.194665,10.8525391 163.861162,10.9900702 164.453613,11.2651367 L164.00293,12.4648438 C163.372393,12.2193998 162.85189,12.0966797 162.441406,12.0966797 C161.226882,12.0966797 160.619629,12.902824 160.619629,14.5151367 C160.619629,15.30225 160.770913,15.8936341 161.073486,16.2893066 C161.376059,16.6849792 161.819333,16.8828125 162.40332,16.8828125 C163.067712,16.8828125 163.696123,16.7177751 164.288574,16.3876953 L164.288574,17.6889648 C164.021971,17.8455411 163.737388,17.957682 163.434814,18.0253906 C163.132241,18.0930993 162.765139,18.1269531 162.333496,18.1269531 Z M169.5,10.8525391 C169.800457,10.8525391 170.048013,10.8736977 170.242676,10.9160156 L170.09668,12.3061523 C169.88509,12.2553708 169.66504,12.2299805 169.436523,12.2299805 C168.839841,12.2299805 168.356366,12.42464 167.986084,12.8139648 C167.615802,13.2032897 167.430664,13.7089813 167.430664,14.3310547 L167.430664,18 L165.938965,18 L165.938965,10.9794922 L167.106934,10.9794922 L167.303711,12.2172852 L167.379883,12.2172852 C167.612631,11.7983377 167.916258,11.4661471 168.290771,11.2207031 C168.665285,10.9752592 169.068357,10.8525391 169.5,10.8525391 Z M176.495117,18 L176.285645,17.0795898 L176.209473,17.0795898 C176.002115,17.4054378 175.706952,17.6614574 175.323975,17.8476562 C174.940997,18.0338551 174.504071,18.1269531 174.013184,18.1269531 C173.162593,18.1269531 172.527834,17.9153667 172.108887,17.4921875 C171.689939,17.0690083 171.480469,16.4279014 171.480469,15.5688477 L171.480469,10.9794922 L172.984863,10.9794922 L172.984863,15.3085938 C172.984863,15.8460313 173.094888,16.2491035 173.314941,16.5178223 C173.534995,16.7865411 173.87988,16.9208984 174.349609,16.9208984 C174.975915,16.9208984 175.436115,16.7336445 175.730225,16.3591309 C176.024334,15.9846173 176.171387,15.3572635 176.171387,14.4770508 L176.171387,10.9794922 L177.669434,10.9794922 L177.669434,18 L176.495117,18 Z M181.287598,18 L179.795898,18 L179.795898,10.9794922 L181.287598,10.9794922 L181.287598,18 Z M179.707031,9.11962891 C179.707031,8.85302601 179.780029,8.64778718 179.926025,8.50390625 C180.072022,8.36002532 180.280435,8.28808594 180.55127,8.28808594 C180.813641,8.28808594 181.017822,8.36002532 181.163818,8.50390625 C181.309815,8.64778718 181.382812,8.85302601 181.382812,9.11962891 C181.382812,9.37353643 181.309815,9.5734856 181.163818,9.71948242 C181.017822,9.86547925 180.813641,9.93847656 180.55127,9.93847656 C180.280435,9.93847656 180.072022,9.86547925 179.926025,9.71948242 C179.780029,9.5734856 179.707031,9.37353643 179.707031,9.11962891 Z M186.035645,16.9208984 C186.399579,16.9208984 186.763507,16.8637701 187.127441,16.7495117 L187.127441,17.8730469 C186.962402,17.9449873 186.749757,18.0052895 186.489502,18.0539551 C186.229247,18.1026207 185.959474,18.1269531 185.680176,18.1269531 C184.266757,18.1269531 183.560059,17.3821689 183.560059,15.8925781 L183.560059,12.109375 L182.601562,12.109375 L182.601562,11.4492188 L183.629883,10.9033203 L184.137695,9.41796875 L185.058105,9.41796875 L185.058105,10.9794922 L187.057617,10.9794922 L187.057617,12.109375 L185.058105,12.109375 L185.058105,15.8671875 C185.058105,16.2268898 185.14803,16.4924308 185.327881,16.6638184 C185.507732,16.8352059 185.743651,16.9208984 186.035645,16.9208984 Z M194.446289,18 L192.948242,18 L192.948242,13.6708984 C192.948242,13.1334609 192.846681,12.7325046 192.643555,12.4680176 C192.440429,12.2035306 192.123049,12.0712891 191.691406,12.0712891 C191.115883,12.0712891 190.693768,12.258543 190.425049,12.6330566 C190.15633,13.0075702 190.021973,13.6306923 190.021973,14.5024414 L190.021973,18 L188.530273,18 L188.530273,10.9794922 L189.698242,10.9794922 L189.907715,11.8999023 L189.983887,11.8999023 C190.178549,11.5655908 190.461017,11.3074553 190.831299,11.1254883 C191.201581,10.9435212 191.608884,10.8525391 192.053223,10.8525391 C193.13233,10.8525391 193.847492,11.2206994 194.19873,11.9570312 L194.300293,11.9570312 C194.507651,11.6100243 194.79964,11.3391937 195.17627,11.1445312 C195.552899,10.9498688 195.984535,10.8525391 196.471191,10.8525391 C197.309086,10.8525391 197.919513,11.0641255 198.30249,11.4873047 C198.685467,11.9104839 198.876953,12.5558225 198.876953,13.4233398 L198.876953,18 L197.385254,18 L197.385254,13.6708984 C197.385254,13.1334609 197.282634,12.7325046 197.077393,12.4680176 C196.872151,12.2035306 196.553713,12.0712891 196.12207,12.0712891 C195.542315,12.0712891 195.118084,12.2521955 194.849365,12.6140137 C194.580646,12.9758319 194.446289,13.5312463 194.446289,14.2802734 L194.446289,18 Z M204.024902,18.1269531 C202.9331,18.1269531 202.079349,17.8085156 201.463623,17.1716309 C200.847897,16.5347462 200.540039,15.6577204 200.540039,14.5405273 C200.540039,13.3937117 200.825681,12.4923535 201.396973,11.8364258 C201.968265,11.180498 202.75325,10.8525391 203.751953,10.8525391 C204.678716,10.8525391 205.410805,11.133949 205.948242,11.6967773 C206.48568,12.2596057 206.754395,13.034012 206.754395,14.0200195 L206.754395,14.8261719 L202.076172,14.8261719 C202.097331,15.5074904 202.281411,16.0311668 202.628418,16.3972168 C202.975425,16.7632668 203.46419,16.9462891 204.094727,16.9462891 C204.509442,16.9462891 204.895587,16.9071456 205.253174,16.8288574 C205.61076,16.7505693 205.99479,16.6204436 206.405273,16.4384766 L206.405273,17.6508789 C206.041339,17.8243824 205.673179,17.9471025 205.300781,18.019043 C204.928384,18.0909834 204.503095,18.1269531 204.024902,18.1269531 Z M203.751953,11.9824219 C203.277992,11.9824219 202.898195,12.1326482 202.612549,12.4331055 C202.326903,12.7335627 202.156576,13.1715466 202.101562,13.7470703 L205.288086,13.7470703 C205.279622,13.1673148 205.139975,12.728273 204.869141,12.4299316 C204.598306,12.1315903 204.225914,11.9824219 203.751953,11.9824219 Z M214.625488,18 L213.127441,18 L213.127441,13.6835938 C213.127441,13.1419244 213.018474,12.7377943 212.800537,12.4711914 C212.5826,12.2045885 212.236656,12.0712891 211.762695,12.0712891 C211.132158,12.0712891 210.6709,12.2574851 210.378906,12.6298828 C210.086913,13.0022805 209.940918,13.6264605 209.940918,14.5024414 L209.940918,18 L208.449219,18 L208.449219,10.9794922 L209.617188,10.9794922 L209.82666,11.8999023 L209.902832,11.8999023 C210.114422,11.5655908 210.414874,11.3074553 210.804199,11.1254883 C211.193524,10.9435212 211.62516,10.8525391 212.099121,10.8525391 C213.783374,10.8525391 214.625488,11.7094641 214.625488,13.4233398 L214.625488,18 Z M219.316406,16.9208984 C219.68034,16.9208984 220.044269,16.8637701 220.408203,16.7495117 L220.408203,17.8730469 C220.243163,17.9449873 220.030519,18.0052895 219.770264,18.0539551 C219.510008,18.1026207 219.240236,18.1269531 218.960938,18.1269531 C217.547519,18.1269531 216.84082,17.3821689 216.84082,15.8925781 L216.84082,12.109375 L215.882324,12.109375 L215.882324,11.4492188 L216.910645,10.9033203 L217.418457,9.41796875 L218.338867,9.41796875 L218.338867,10.9794922 L220.338379,10.9794922 L220.338379,12.109375 L218.338867,12.109375 L218.338867,15.8671875 C218.338867,16.2268898 218.428791,16.4924308 218.608643,16.6638184 C218.788494,16.8352059 219.024413,16.9208984 219.316406,16.9208984 Z" id="WithPartnerRecruitment" fill="#AAAAAA"></path>
                    <path d="M289.788086,18 L288.137695,18 L286.563477,12.4648438 C286.495768,12.2236316 286.411133,11.8755719 286.30957,11.4206543 C286.208007,10.9657367 286.146647,10.649415 286.125488,10.4716797 C286.08317,10.7425144 286.014405,11.0937478 285.919189,11.5253906 C285.823974,11.9570334 285.744629,12.2786448 285.681152,12.4902344 L284.14502,18 L282.494629,18 L281.294922,13.3535156 L280.076172,8.71972656 L281.625,8.71972656 L282.95166,14.1279297 C283.159018,14.995447 283.307128,15.7613899 283.395996,16.4257812 C283.442546,16.0660789 283.512369,15.6640647 283.605469,15.2197266 C283.698568,14.7753884 283.783203,14.4156915 283.859375,14.140625 L285.370117,8.71972656 L286.874512,8.71972656 L288.42334,14.1660156 C288.571453,14.6695989 288.728027,15.4228465 288.893066,16.4257812 C288.956543,15.820635 289.108886,15.0504604 289.350098,14.1152344 L290.67041,8.71972656 L292.206543,8.71972656 L289.788086,18 Z M294.853516,18 L293.361816,18 L293.361816,10.9794922 L294.853516,10.9794922 L294.853516,18 Z M293.272949,9.11962891 C293.272949,8.85302601 293.345947,8.64778718 293.491943,8.50390625 C293.63794,8.36002532 293.846353,8.28808594 294.117188,8.28808594 C294.379559,8.28808594 294.58374,8.36002532 294.729736,8.50390625 C294.875733,8.64778718 294.94873,8.85302601 294.94873,9.11962891 C294.94873,9.37353643 294.875733,9.5734856 294.729736,9.71948242 C294.58374,9.86547925 294.379559,9.93847656 294.117188,9.93847656 C293.846353,9.93847656 293.63794,9.86547925 293.491943,9.71948242 C293.345947,9.5734856 293.272949,9.37353643 293.272949,9.11962891 Z M299.601562,16.9208984 C299.965497,16.9208984 300.329425,16.8637701 300.693359,16.7495117 L300.693359,17.8730469 C300.528319,17.9449873 300.315675,18.0052895 300.05542,18.0539551 C299.795165,18.1026207 299.525392,18.1269531 299.246094,18.1269531 C297.832675,18.1269531 297.125977,17.3821689 297.125977,15.8925781 L297.125977,12.109375 L296.16748,12.109375 L296.16748,11.4492188 L297.195801,10.9033203 L297.703613,9.41796875 L298.624023,9.41796875 L298.624023,10.9794922 L300.623535,10.9794922 L300.623535,12.109375 L298.624023,12.109375 L298.624023,15.8671875 C298.624023,16.2268898 298.713948,16.4924308 298.893799,16.6638184 C299.07365,16.8352059 299.309569,16.9208984 299.601562,16.9208984 Z M308.272461,18 L306.774414,18 L306.774414,13.6835938 C306.774414,13.1419244 306.665447,12.7377943 306.44751,12.4711914 C306.229572,12.2045885 305.883629,12.0712891 305.409668,12.0712891 C304.783363,12.0712891 304.323162,12.258543 304.029053,12.6330566 C303.734943,13.0075702 303.587891,13.634924 303.587891,14.5151367 L303.587891,18 L302.096191,18 L302.096191,8.12304688 L303.587891,8.12304688 L303.587891,10.6303711 C303.587891,11.0323913 303.5625,11.4619118 303.511719,11.9189453 L303.606934,11.9189453 C303.81006,11.580402 304.092527,11.3180348 304.454346,11.1318359 C304.816164,10.9456371 305.238279,10.8525391 305.720703,10.8525391 C307.421884,10.8525391 308.272461,11.7094641 308.272461,13.4233398 L308.272461,18 Z M316.575195,14.4770508 C316.575195,15.6238664 316.28109,16.518877 315.692871,17.1621094 C315.104652,17.8053418 314.285813,18.1269531 313.236328,18.1269531 C312.5804,18.1269531 312.000654,17.9788426 311.49707,17.6826172 C310.993487,17.3863917 310.606284,16.961103 310.335449,16.4067383 C310.064615,15.8523735 309.929199,15.2091508 309.929199,14.4770508 C309.929199,13.3386987 310.221188,12.4500357 310.805176,11.8110352 C311.389163,11.1720346 312.212234,10.8525391 313.274414,10.8525391 C314.290044,10.8525391 315.094073,11.1794401 315.686523,11.833252 C316.278974,12.4870638 316.575195,13.3683213 316.575195,14.4770508 Z M311.465332,14.4770508 C311.465332,16.0978271 312.064122,16.9082031 313.261719,16.9082031 C314.446621,16.9082031 315.039062,16.0978271 315.039062,14.4770508 C315.039062,12.8732016 314.442389,12.0712891 313.249023,12.0712891 C312.622718,12.0712891 312.168865,12.2786438 311.887451,12.6933594 C311.606037,13.108075 311.465332,13.7026328 311.465332,14.4770508 Z M323.240234,18 L323.030762,17.0795898 L322.95459,17.0795898 C322.747232,17.4054378 322.452069,17.6614574 322.069092,17.8476562 C321.686115,18.0338551 321.249189,18.1269531 320.758301,18.1269531 C319.907711,18.1269531 319.272951,17.9153667 318.854004,17.4921875 C318.435056,17.0690083 318.225586,16.4279014 318.225586,15.5688477 L318.225586,10.9794922 L319.72998,10.9794922 L319.72998,15.3085938 C319.72998,15.8460313 319.840005,16.2491035 320.060059,16.5178223 C320.280112,16.7865411 320.624998,16.9208984 321.094727,16.9208984 C321.721032,16.9208984 322.181232,16.7336445 322.475342,16.3591309 C322.769451,15.9846173 322.916504,15.3572635 322.916504,14.4770508 L322.916504,10.9794922 L324.414551,10.9794922 L324.414551,18 L323.240234,18 Z M329.15625,16.9208984 C329.520184,16.9208984 329.884113,16.8637701 330.248047,16.7495117 L330.248047,17.8730469 C330.083007,17.9449873 329.870363,18.0052895 329.610107,18.0539551 C329.349852,18.1026207 329.08008,18.1269531 328.800781,18.1269531 C327.387363,18.1269531 326.680664,17.3821689 326.680664,15.8925781 L326.680664,12.109375 L325.722168,12.109375 L325.722168,11.4492188 L326.750488,10.9033203 L327.258301,9.41796875 L328.178711,9.41796875 L328.178711,10.9794922 L330.178223,10.9794922 L330.178223,12.109375 L328.178711,12.109375 L328.178711,15.8671875 C328.178711,16.2268898 328.268635,16.4924308 328.448486,16.6638184 C328.628337,16.8352059 328.864256,16.9208984 329.15625,16.9208984 Z M341.331055,11.5253906 C341.331055,12.494471 341.013675,13.2371393 340.378906,13.753418 C339.744137,14.2696966 338.840663,14.527832 337.668457,14.527832 L336.703613,14.527832 L336.703613,18 L335.186523,18 L335.186523,8.71972656 L337.858887,8.71972656 C339.018398,8.71972656 339.88696,8.95670336 340.4646,9.43066406 C341.042239,9.90462477 341.331055,10.60286 341.331055,11.5253906 Z M336.703613,13.2519531 L337.509766,13.2519531 C338.288415,13.2519531 338.859699,13.1165378 339.223633,12.8457031 C339.587567,12.5748684 339.769531,12.1516956 339.769531,11.5761719 C339.769531,11.0429661 339.60661,10.6451836 339.280762,10.3828125 C338.954914,10.1204414 338.447106,9.98925781 337.757324,9.98925781 L336.703613,9.98925781 L336.703613,13.2519531 Z M347.418457,18 L347.120117,17.0224609 L347.069336,17.0224609 C346.730793,17.4498719 346.390138,17.7408033 346.047363,17.8952637 C345.704588,18.0497241 345.264488,18.1269531 344.727051,18.1269531 C344.037269,18.1269531 343.498781,17.9407571 343.111572,17.5683594 C342.724363,17.1959617 342.530762,16.6691115 342.530762,15.987793 C342.530762,15.2641565 342.799476,14.7182636 343.336914,14.3500977 C343.874352,13.9819318 344.693191,13.7809246 345.793457,13.7470703 L347.005859,13.7089844 L347.005859,13.3344727 C347.005859,12.8859027 346.901124,12.5505382 346.69165,12.3283691 C346.482177,12.1062001 346.157392,11.9951172 345.717285,11.9951172 C345.357583,11.9951172 345.012697,12.0480138 344.682617,12.1538086 C344.352537,12.2596034 344.035158,12.3844394 343.730469,12.5283203 L343.248047,11.4619141 C343.628908,11.2630198 344.045733,11.1117355 344.498535,11.0080566 C344.951337,10.9043777 345.378741,10.8525391 345.780762,10.8525391 C346.67367,10.8525391 347.347573,11.0471986 347.80249,11.4365234 C348.257408,11.8258483 348.484863,12.4373331 348.484863,13.2709961 L348.484863,18 L347.418457,18 Z M345.196777,16.984375 C345.738447,16.984375 346.173257,16.8330907 346.501221,16.5305176 C346.829185,16.2279445 346.993164,15.8037137 346.993164,15.2578125 L346.993164,14.6484375 L346.091797,14.6865234 C345.389319,14.7119142 344.878338,14.8293447 344.558838,15.0388184 C344.239338,15.2482921 344.07959,15.5688455 344.07959,16.0004883 C344.07959,16.3136409 344.172688,16.5559073 344.358887,16.7272949 C344.545086,16.8986825 344.82438,16.984375 345.196777,16.984375 Z M354.12793,10.8525391 C354.428387,10.8525391 354.675943,10.8736977 354.870605,10.9160156 L354.724609,12.3061523 C354.51302,12.2553708 354.29297,12.2299805 354.064453,12.2299805 C353.46777,12.2299805 352.984295,12.42464 352.614014,12.8139648 C352.243732,13.2032897 352.058594,13.7089813 352.058594,14.3310547 L352.058594,18 L350.566895,18 L350.566895,10.9794922 L351.734863,10.9794922 L351.931641,12.2172852 L352.007812,12.2172852 C352.240561,11.7983377 352.544188,11.4661471 352.918701,11.2207031 C353.293215,10.9752592 353.696287,10.8525391 354.12793,10.8525391 Z M358.787109,16.9208984 C359.151043,16.9208984 359.514972,16.8637701 359.878906,16.7495117 L359.878906,17.8730469 C359.713866,17.9449873 359.501222,18.0052895 359.240967,18.0539551 C358.980712,18.1026207 358.710939,18.1269531 358.431641,18.1269531 C357.018222,18.1269531 356.311523,17.3821689 356.311523,15.8925781 L356.311523,12.109375 L355.353027,12.109375 L355.353027,11.4492188 L356.381348,10.9033203 L356.88916,9.41796875 L357.80957,9.41796875 L357.80957,10.9794922 L359.809082,10.9794922 L359.809082,12.109375 L357.80957,12.109375 L357.80957,15.8671875 C357.80957,16.2268898 357.899495,16.4924308 358.079346,16.6638184 C358.259197,16.8352059 358.495116,16.9208984 358.787109,16.9208984 Z M367.458008,18 L365.959961,18 L365.959961,13.6835938 C365.959961,13.1419244 365.850994,12.7377943 365.633057,12.4711914 C365.415119,12.2045885 365.069176,12.0712891 364.595215,12.0712891 C363.964678,12.0712891 363.503419,12.2574851 363.211426,12.6298828 C362.919432,13.0022805 362.773438,13.6264605 362.773438,14.5024414 L362.773438,18 L361.281738,18 L361.281738,10.9794922 L362.449707,10.9794922 L362.65918,11.8999023 L362.735352,11.8999023 C362.946941,11.5655908 363.247394,11.3074553 363.636719,11.1254883 C364.026044,10.9435212 364.45768,10.8525391 364.931641,10.8525391 C366.615894,10.8525391 367.458008,11.7094641 367.458008,13.4233398 L367.458008,18 Z M372.599609,18.1269531 C371.507807,18.1269531 370.654056,17.8085156 370.03833,17.1716309 C369.422604,16.5347462 369.114746,15.6577204 369.114746,14.5405273 C369.114746,13.3937117 369.400388,12.4923535 369.97168,11.8364258 C370.542972,11.180498 371.327957,10.8525391 372.32666,10.8525391 C373.253423,10.8525391 373.985512,11.133949 374.522949,11.6967773 C375.060387,12.2596057 375.329102,13.034012 375.329102,14.0200195 L375.329102,14.8261719 L370.650879,14.8261719 C370.672038,15.5074904 370.856118,16.0311668 371.203125,16.3972168 C371.550132,16.7632668 372.038897,16.9462891 372.669434,16.9462891 C373.084149,16.9462891 373.470294,16.9071456 373.827881,16.8288574 C374.185467,16.7505693 374.569497,16.6204436 374.97998,16.4384766 L374.97998,17.6508789 C374.616046,17.8243824 374.247886,17.9471025 373.875488,18.019043 C373.503091,18.0909834 373.077802,18.1269531 372.599609,18.1269531 Z M372.32666,11.9824219 C371.852699,11.9824219 371.472902,12.1326482 371.187256,12.4331055 C370.90161,12.7335627 370.731283,13.1715466 370.67627,13.7470703 L373.862793,13.7470703 C373.854329,13.1673148 373.714682,12.728273 373.443848,12.4299316 C373.173013,12.1315903 372.800621,11.9824219 372.32666,11.9824219 Z M380.584961,10.8525391 C380.885418,10.8525391 381.132974,10.8736977 381.327637,10.9160156 L381.181641,12.3061523 C380.970051,12.2553708 380.750001,12.2299805 380.521484,12.2299805 C379.924802,12.2299805 379.441327,12.42464 379.071045,12.8139648 C378.700763,13.2032897 378.515625,13.7089813 378.515625,14.3310547 L378.515625,18 L377.023926,18 L377.023926,10.9794922 L378.191895,10.9794922 L378.388672,12.2172852 L378.464844,12.2172852 C378.697592,11.7983377 379.001219,11.4661471 379.375732,11.2207031 C379.750246,10.9752592 380.153318,10.8525391 380.584961,10.8525391 Z M387.681641,13.0361328 L388.735352,13.0361328 C389.442061,13.0361328 389.9541,12.9049492 390.271484,12.6425781 C390.588869,12.380207 390.747559,11.990888 390.747559,11.4746094 C390.747559,10.9498672 390.576174,10.5732433 390.233398,10.3447266 C389.890623,10.1162098 389.374352,10.0019531 388.68457,10.0019531 L387.681641,10.0019531 L387.681641,13.0361328 Z M387.681641,14.2929688 L387.681641,18 L386.164551,18 L386.164551,8.71972656 L388.786133,8.71972656 C389.98373,8.71972656 390.870277,8.94400817 391.445801,9.39257812 C392.021324,9.84114808 392.309082,10.5182246 392.309082,11.4238281 C392.309082,12.5791073 391.708177,13.4021785 390.506348,13.8930664 L393.12793,18 L391.401367,18 L389.179688,14.2929688 L387.681641,14.2929688 Z M397.380859,18.1269531 C396.289057,18.1269531 395.435306,17.8085156 394.81958,17.1716309 C394.203854,16.5347462 393.895996,15.6577204 393.895996,14.5405273 C393.895996,13.3937117 394.181638,12.4923535 394.75293,11.8364258 C395.324222,11.180498 396.109207,10.8525391 397.10791,10.8525391 C398.034673,10.8525391 398.766762,11.133949 399.304199,11.6967773 C399.841637,12.2596057 400.110352,13.034012 400.110352,14.0200195 L400.110352,14.8261719 L395.432129,14.8261719 C395.453288,15.5074904 395.637368,16.0311668 395.984375,16.3972168 C396.331382,16.7632668 396.820147,16.9462891 397.450684,16.9462891 C397.865399,16.9462891 398.251544,16.9071456 398.609131,16.8288574 C398.966717,16.7505693 399.350747,16.6204436 399.76123,16.4384766 L399.76123,17.6508789 C399.397296,17.8243824 399.029136,17.9471025 398.656738,18.019043 C398.284341,18.0909834 397.859052,18.1269531 397.380859,18.1269531 Z M397.10791,11.9824219 C396.633949,11.9824219 396.254152,12.1326482 395.968506,12.4331055 C395.68286,12.7335627 395.512533,13.1715466 395.45752,13.7470703 L398.644043,13.7470703 C398.635579,13.1673148 398.495932,12.728273 398.225098,12.4299316 C397.954263,12.1315903 397.581871,11.9824219 397.10791,11.9824219 Z M404.63623,18.1269531 C403.574051,18.1269531 402.766848,17.816979 402.2146,17.1970215 C401.662351,16.577064 401.38623,15.687343 401.38623,14.527832 C401.38623,13.3471621 401.675046,12.4394563 402.252686,11.8046875 C402.830325,11.1699187 403.665034,10.8525391 404.756836,10.8525391 C405.4974,10.8525391 406.163897,10.9900702 406.756348,11.2651367 L406.305664,12.4648438 C405.675127,12.2193998 405.154624,12.0966797 404.744141,12.0966797 C403.529616,12.0966797 402.922363,12.902824 402.922363,14.5151367 C402.922363,15.30225 403.073648,15.8936341 403.376221,16.2893066 C403.678794,16.6849792 404.122067,16.8828125 404.706055,16.8828125 C405.370446,16.8828125 405.998858,16.7177751 406.591309,16.3876953 L406.591309,17.6889648 C406.324706,17.8455411 406.040122,17.957682 405.737549,18.0253906 C405.434976,18.0930993 405.067873,18.1269531 404.63623,18.1269531 Z M411.802734,10.8525391 C412.103192,10.8525391 412.350748,10.8736977 412.54541,10.9160156 L412.399414,12.3061523 C412.187824,12.2553708 411.967775,12.2299805 411.739258,12.2299805 C411.142575,12.2299805 410.6591,12.42464 410.288818,12.8139648 C409.918537,13.2032897 409.733398,13.7089813 409.733398,14.3310547 L409.733398,18 L408.241699,18 L408.241699,10.9794922 L409.409668,10.9794922 L409.606445,12.2172852 L409.682617,12.2172852 C409.915366,11.7983377 410.218992,11.4661471 410.593506,11.2207031 C410.968019,10.9752592 411.371092,10.8525391 411.802734,10.8525391 Z M418.797852,18 L418.588379,17.0795898 L418.512207,17.0795898 C418.304849,17.4054378 418.009686,17.6614574 417.626709,17.8476562 C417.243732,18.0338551 416.806806,18.1269531 416.315918,18.1269531 C415.465328,18.1269531 414.830569,17.9153667 414.411621,17.4921875 C413.992674,17.0690083 413.783203,16.4279014 413.783203,15.5688477 L413.783203,10.9794922 L415.287598,10.9794922 L415.287598,15.3085938 C415.287598,15.8460313 415.397623,16.2491035 415.617676,16.5178223 C415.837729,16.7865411 416.182615,16.9208984 416.652344,16.9208984 C417.278649,16.9208984 417.738849,16.7336445 418.032959,16.3591309 C418.327069,15.9846173 418.474121,15.3572635 418.474121,14.4770508 L418.474121,10.9794922 L419.972168,10.9794922 L419.972168,18 L418.797852,18 Z M423.590332,18 L422.098633,18 L422.098633,10.9794922 L423.590332,10.9794922 L423.590332,18 Z M422.009766,9.11962891 C422.009766,8.85302601 422.082763,8.64778718 422.22876,8.50390625 C422.374757,8.36002532 422.583169,8.28808594 422.854004,8.28808594 C423.116375,8.28808594 423.320556,8.36002532 423.466553,8.50390625 C423.61255,8.64778718 423.685547,8.85302601 423.685547,9.11962891 C423.685547,9.37353643 423.61255,9.5734856 423.466553,9.71948242 C423.320556,9.86547925 423.116375,9.93847656 422.854004,9.93847656 C422.583169,9.93847656 422.374757,9.86547925 422.22876,9.71948242 C422.082763,9.5734856 422.009766,9.37353643 422.009766,9.11962891 Z M428.338379,16.9208984 C428.702313,16.9208984 429.066242,16.8637701 429.430176,16.7495117 L429.430176,17.8730469 C429.265136,17.9449873 429.052492,18.0052895 428.792236,18.0539551 C428.531981,18.1026207 428.262208,18.1269531 427.98291,18.1269531 C426.569492,18.1269531 425.862793,17.3821689 425.862793,15.8925781 L425.862793,12.109375 L424.904297,12.109375 L424.904297,11.4492188 L425.932617,10.9033203 L426.44043,9.41796875 L427.36084,9.41796875 L427.36084,10.9794922 L429.360352,10.9794922 L429.360352,12.109375 L427.36084,12.109375 L427.36084,15.8671875 C427.36084,16.2268898 427.450764,16.4924308 427.630615,16.6638184 C427.810466,16.8352059 428.046385,16.9208984 428.338379,16.9208984 Z M436.749023,18 L435.250977,18 L435.250977,13.6708984 C435.250977,13.1334609 435.149415,12.7325046 434.946289,12.4680176 C434.743163,12.2035306 434.425783,12.0712891 433.994141,12.0712891 C433.418617,12.0712891 432.996502,12.258543 432.727783,12.6330566 C432.459064,13.0075702 432.324707,13.6306923 432.324707,14.5024414 L432.324707,18 L430.833008,18 L430.833008,10.9794922 L432.000977,10.9794922 L432.210449,11.8999023 L432.286621,11.8999023 C432.481284,11.5655908 432.763751,11.3074553 433.134033,11.1254883 C433.504315,10.9435212 433.911619,10.8525391 434.355957,10.8525391 C435.435064,10.8525391 436.150226,11.2206994 436.501465,11.9570312 L436.603027,11.9570312 C436.810385,11.6100243 437.102374,11.3391937 437.479004,11.1445312 C437.855633,10.9498688 438.28727,10.8525391 438.773926,10.8525391 C439.611821,10.8525391 440.222247,11.0641255 440.605225,11.4873047 C440.988202,11.9104839 441.179688,12.5558225 441.179688,13.4233398 L441.179688,18 L439.687988,18 L439.687988,13.6708984 C439.687988,13.1334609 439.585369,12.7325046 439.380127,12.4680176 C439.174885,12.2035306 438.856447,12.0712891 438.424805,12.0712891 C437.845049,12.0712891 437.420818,12.2521955 437.1521,12.6140137 C436.883381,12.9758319 436.749023,13.5312463 436.749023,14.2802734 L436.749023,18 Z M446.327637,18.1269531 C445.235834,18.1269531 444.382083,17.8085156 443.766357,17.1716309 C443.150632,16.5347462 442.842773,15.6577204 442.842773,14.5405273 C442.842773,13.3937117 443.128415,12.4923535 443.699707,11.8364258 C444.270999,11.180498 445.055985,10.8525391 446.054688,10.8525391 C446.98145,10.8525391 447.713539,11.133949 448.250977,11.6967773 C448.788414,12.2596057 449.057129,13.034012 449.057129,14.0200195 L449.057129,14.8261719 L444.378906,14.8261719 C444.400065,15.5074904 444.584145,16.0311668 444.931152,16.3972168 C445.278159,16.7632668 445.766924,16.9462891 446.397461,16.9462891 C446.812177,16.9462891 447.198322,16.9071456 447.555908,16.8288574 C447.913495,16.7505693 448.297524,16.6204436 448.708008,16.4384766 L448.708008,17.6508789 C448.344074,17.8243824 447.975913,17.9471025 447.603516,18.019043 C447.231118,18.0909834 446.805829,18.1269531 446.327637,18.1269531 Z M446.054688,11.9824219 C445.580727,11.9824219 445.200929,12.1326482 444.915283,12.4331055 C444.629637,12.7335627 444.45931,13.1715466 444.404297,13.7470703 L447.59082,13.7470703 C447.582357,13.1673148 447.44271,12.728273 447.171875,12.4299316 C446.90104,12.1315903 446.528648,11.9824219 446.054688,11.9824219 Z M456.928223,18 L455.430176,18 L455.430176,13.6835938 C455.430176,13.1419244 455.321209,12.7377943 455.103271,12.4711914 C454.885334,12.2045885 454.53939,12.0712891 454.06543,12.0712891 C453.434893,12.0712891 452.973634,12.2574851 452.681641,12.6298828 C452.389647,13.0022805 452.243652,13.6264605 452.243652,14.5024414 L452.243652,18 L450.751953,18 L450.751953,10.9794922 L451.919922,10.9794922 L452.129395,11.8999023 L452.205566,11.8999023 C452.417156,11.5655908 452.717609,11.3074553 453.106934,11.1254883 C453.496258,10.9435212 453.927895,10.8525391 454.401855,10.8525391 C456.086109,10.8525391 456.928223,11.7094641 456.928223,13.4233398 L456.928223,18 Z M461.619141,16.9208984 C461.983075,16.9208984 462.347003,16.8637701 462.710938,16.7495117 L462.710938,17.8730469 C462.545898,17.9449873 462.333253,18.0052895 462.072998,18.0539551 C461.812743,18.1026207 461.54297,18.1269531 461.263672,18.1269531 C459.850253,18.1269531 459.143555,17.3821689 459.143555,15.8925781 L459.143555,12.109375 L458.185059,12.109375 L458.185059,11.4492188 L459.213379,10.9033203 L459.721191,9.41796875 L460.641602,9.41796875 L460.641602,10.9794922 L462.641113,10.9794922 L462.641113,12.109375 L460.641602,12.109375 L460.641602,15.8671875 C460.641602,16.2268898 460.731526,16.4924308 460.911377,16.6638184 C461.091228,16.8352059 461.327147,16.9208984 461.619141,16.9208984 Z" id="WithoutPartnerRecruitment" fill="#AAAAAA"></path>
                    <circle id="Oval-2" fill="#49C5B1" cx="47" cy="14" r="4"></circle>
                    <circle id="Oval-2-Copy" fill="#6A7F9C" cx="268" cy="14" r="4"></circle>
                    <path d="M392.9,538.228 C392.9,540.16 391.232,541.132 389.588,541.132 C387.932,541.132 386.924,540.376 386.54,539.776 L387.428,538.636 C387.884,539.272 388.748,539.632 389.456,539.632 C390.164,539.632 391.016,539.224 391.016,538.228 C391.016,537.244 390.2,536.836 389.456,536.836 C388.916,536.836 388.316,537.004 387.944,537.268 L387.104,536.764 L387.74,532.72 L392.588,532.72 L392.588,534.208 L389.144,534.208 L388.904,535.696 C389.156,535.588 389.468,535.516 390.008,535.516 C391.268,535.516 392.9,536.308 392.9,538.228 Z M405.62,535.324 C405.62,536.212 405.308,536.848 404.756,537.316 C404.204,537.772 403.448,537.94 402.596,537.94 L401.576,537.94 L401.576,541 L399.632,541 L399.632,532.72 L402.596,532.72 C403.448,532.72 404.204,532.888 404.756,533.344 C405.308,533.8 405.62,534.436 405.62,535.324 Z M403.652,535.324 C403.652,534.904 403.484,534.616 403.256,534.448 C403.016,534.28 402.74,534.22 402.32,534.22 L401.564,534.22 L401.564,536.44 L402.32,536.44 C402.74,536.44 403.016,536.38 403.256,536.212 C403.484,536.044 403.652,535.744 403.652,535.324 Z M412.52,537.58 L414.62,541 L412.364,541 L410.624,537.832 L410.012,537.832 L410.012,541 L408.068,541 L408.068,532.72 L411.044,532.72 C411.968,532.72 412.688,532.912 413.228,533.308 C413.78,533.716 414.14,534.376 414.14,535.204 C414.14,536.776 413.132,537.388 412.52,537.58 Z M412.184,535.276 C412.184,534.856 412.016,534.616 411.764,534.436 C411.524,534.256 411.212,534.22 410.768,534.22 L410,534.22 L410,536.344 L410.768,536.344 C411.212,536.344 411.524,536.296 411.764,536.116 C412.016,535.936 412.184,535.708 412.184,535.276 Z M425.132,536.872 C425.132,539.548 423.2,541.144 420.74,541.144 C418.28,541.144 416.348,539.548 416.348,536.872 C416.348,534.196 418.28,532.588 420.74,532.588 C423.2,532.588 425.132,534.196 425.132,536.872 Z M423.164,536.824 C423.164,535.252 422.12,534.244 420.74,534.244 C419.36,534.244 418.316,535.24 418.316,536.824 C418.316,538.408 419.36,539.416 420.74,539.416 C422.12,539.416 423.164,538.408 423.164,536.824 Z M435.296,536.284 L435.296,539.716 C434.876,540.088 433.892,541.132 431.612,541.132 C429.32,541.132 427.304,539.62 427.304,536.86 C427.304,534.1 429.32,532.6 431.636,532.6 C433.832,532.6 434.78,533.752 435.044,534.04 L433.76,535.156 C433.412,534.772 432.764,534.208 431.636,534.208 C430.304,534.208 429.272,535.18 429.272,536.86 C429.272,538.54 430.328,539.512 431.672,539.512 C433.016,539.512 433.4,538.984 433.4,538.984 L433.4,537.76 L431.66,537.76 L431.66,536.284 L435.296,536.284 Z M442.604,537.58 L444.704,541 L442.448,541 L440.708,537.832 L440.096,537.832 L440.096,541 L438.152,541 L438.152,532.72 L441.128,532.72 C442.052,532.72 442.772,532.912 443.312,533.308 C443.864,533.716 444.224,534.376 444.224,535.204 C444.224,536.776 443.216,537.388 442.604,537.58 Z M442.268,535.276 C442.268,534.856 442.1,534.616 441.848,534.436 C441.608,534.256 441.296,534.22 440.852,534.22 L440.084,534.22 L440.084,536.344 L440.852,536.344 C441.296,536.344 441.608,536.296 441.848,536.116 C442.1,535.936 442.268,535.708 442.268,535.276 Z M451.184,532.708 L454.304,541 L452.192,541 L451.604,539.332 L448.652,539.332 L448.064,541 L446.048,541 L449.168,532.708 L451.184,532.708 Z M449.096,537.82 L451.16,537.82 L450.128,534.844 L449.096,537.82 Z M465.188,532.72 L465.8,541 L463.892,541 L463.568,535.36 L463.544,535.36 L461.768,541 L460.232,541 L458.444,535.36 L458.408,535.36 L458.108,541 L456.2,541 L456.824,532.72 L459.272,532.72 L461,538.168 L461.024,538.168 L462.728,532.72 L465.188,532.72 Z M477.02,532.72 L479.18,532.72 L476.3,537.652 L476.3,541 L474.356,541 L474.356,537.652 L471.476,532.72 L473.636,532.72 L475.328,536.02 L477.02,532.72 Z M486.776,539.428 L486.776,541 L481.304,541 L481.304,532.72 L486.668,532.72 L486.668,534.268 L483.236,534.268 L483.236,535.96 L486.476,535.96 L486.476,537.508 L483.236,537.508 L483.236,539.428 L486.776,539.428 Z M493.808,532.708 L496.928,541 L494.816,541 L494.228,539.332 L491.276,539.332 L490.688,541 L488.672,541 L491.792,532.708 L493.808,532.708 Z M491.72,537.82 L493.784,537.82 L492.752,534.844 L491.72,537.82 Z M503.588,537.58 L505.688,541 L503.432,541 L501.692,537.832 L501.08,537.832 L501.08,541 L499.136,541 L499.136,532.72 L502.112,532.72 C503.036,532.72 503.756,532.912 504.296,533.308 C504.848,533.716 505.208,534.376 505.208,535.204 C505.208,536.776 504.2,537.388 503.588,537.58 Z M503.252,535.276 C503.252,534.856 503.084,534.616 502.832,534.436 C502.592,534.256 502.28,534.22 501.836,534.22 L501.068,534.22 L501.068,536.344 L501.836,536.344 C502.28,536.344 502.592,536.296 502.832,536.116 C503.084,535.936 503.252,535.708 503.252,535.276 Z M513.428,538.48 C513.428,539.272 513.056,539.992 512.456,540.46 C511.868,540.928 511.1,541.144 510.212,541.144 C509.012,541.144 507.944,540.52 507.272,539.896 L508.232,538.48 C508.832,539.104 509.756,539.524 510.392,539.524 C511.016,539.524 511.496,539.224 511.496,538.672 C511.496,538.108 510.884,537.892 510.524,537.76 C510.164,537.628 509.54,537.412 509.264,537.292 C509.06,537.196 508.64,537.04 508.28,536.692 C507.92,536.356 507.632,535.876 507.632,535.096 C507.632,534.304 508.016,533.68 508.496,533.284 C508.964,532.888 509.72,532.624 510.68,532.624 C511.64,532.624 512.744,533.08 513.308,533.644 L512.48,535 C512,534.52 511.256,534.16 510.632,534.16 C510.008,534.16 509.552,534.4 509.552,534.904 C509.552,535.408 510.02,535.6 510.392,535.744 C510.752,535.888 511.364,536.104 511.628,536.212 C511.856,536.296 512.408,536.512 512.78,536.884 C513.128,537.232 513.428,537.736 513.428,538.48 Z" id="5PROGRAMYEARS" fill="#AAAAAA"></path>
                    <path d="M-78.256,270.324 C-78.256,271.212 -78.568,271.848 -79.12,272.316 C-79.672,272.772 -80.428,272.94 -81.28,272.94 L-82.3,272.94 L-82.3,276 L-84.244,276 L-84.244,267.72 L-81.28,267.72 C-80.428,267.72 -79.672,267.888 -79.12,268.344 C-78.568,268.8 -78.256,269.436 -78.256,270.324 Z M-80.224,270.324 C-80.224,269.904 -80.392,269.616 -80.62,269.448 C-80.86,269.28 -81.136,269.22 -81.556,269.22 L-82.312,269.22 L-82.312,271.44 L-81.556,271.44 C-81.136,271.44 -80.86,271.38 -80.62,271.212 C-80.392,271.044 -80.224,270.744 -80.224,270.324 Z M-70.336,274.428 L-70.336,276 L-75.808,276 L-75.808,267.72 L-70.444,267.72 L-70.444,269.268 L-73.876,269.268 L-73.876,270.96 L-70.636,270.96 L-70.636,272.508 L-73.876,272.508 L-73.876,274.428 L-70.336,274.428 Z M-63.184,272.58 L-61.084,276 L-63.34,276 L-65.08,272.832 L-65.692,272.832 L-65.692,276 L-67.636,276 L-67.636,267.72 L-64.66,267.72 C-63.736,267.72 -63.016,267.912 -62.476,268.308 C-61.924,268.716 -61.564,269.376 -61.564,270.204 C-61.564,271.776 -62.572,272.388 -63.184,272.58 Z M-63.52,270.276 C-63.52,269.856 -63.688,269.616 -63.94,269.436 C-64.18,269.256 -64.492,269.22 -64.936,269.22 L-65.704,269.22 L-65.704,271.344 L-64.936,271.344 C-64.492,271.344 -64.18,271.296 -63.94,271.116 C-63.688,270.936 -63.52,270.708 -63.52,270.276 Z M-52.672,273.504 L-52.024,275.016 C-52.444,275.448 -53.32,276.144 -55.012,276.144 C-57.448,276.144 -59.356,274.536 -59.356,271.872 C-59.356,269.196 -57.424,267.6 -55.012,267.6 C-53.308,267.6 -52.384,268.308 -52.168,268.536 L-52.768,270.144 C-52.924,269.94 -53.812,269.28 -54.904,269.28 C-56.308,269.28 -57.388,270.216 -57.388,271.836 C-57.388,273.456 -56.26,274.38 -54.904,274.38 C-53.872,274.38 -53.128,273.972 -52.672,273.504 Z M-44.164,274.428 L-44.164,276 L-49.636,276 L-49.636,267.72 L-44.272,267.72 L-44.272,269.268 L-47.704,269.268 L-47.704,270.96 L-44.464,270.96 L-44.464,272.508 L-47.704,272.508 L-47.704,274.428 L-44.164,274.428 Z M-33.976,267.72 L-33.976,276 L-35.968,276 L-39.604,270.384 C-39.604,270.384 -39.568,271.38 -39.568,272.256 L-39.568,276 L-41.464,276 L-41.464,267.72 L-39.388,267.72 L-35.836,273.288 C-35.836,273.288 -35.872,272.352 -35.872,271.476 L-35.872,267.72 L-33.976,267.72 Z M-25.456,267.72 L-25.456,269.256 L-27.592,269.256 L-27.592,276 L-29.536,276 L-29.536,269.256 L-31.672,269.256 L-31.672,267.72 L-25.456,267.72 Z M-14.836,272.58 L-12.736,276 L-14.992,276 L-16.732,272.832 L-17.344,272.832 L-17.344,276 L-19.288,276 L-19.288,267.72 L-16.312,267.72 C-15.388,267.72 -14.668,267.912 -14.128,268.308 C-13.576,268.716 -13.216,269.376 -13.216,270.204 C-13.216,271.776 -14.224,272.388 -14.836,272.58 Z M-15.172,270.276 C-15.172,269.856 -15.34,269.616 -15.592,269.436 C-15.832,269.256 -16.144,269.22 -16.588,269.22 L-17.356,269.22 L-17.356,271.344 L-16.588,271.344 C-16.144,271.344 -15.832,271.296 -15.592,271.116 C-15.34,270.936 -15.172,270.708 -15.172,270.276 Z M-5.116,274.428 L-5.116,276 L-10.588,276 L-10.588,267.72 L-5.224,267.72 L-5.224,269.268 L-8.656,269.268 L-8.656,270.96 L-5.416,270.96 L-5.416,272.508 L-8.656,272.508 L-8.656,274.428 L-5.116,274.428 Z M2.72,267.72 L4.772,267.72 L1.7,276 L-0.148,276 L-3.22,267.72 L-1.156,267.72 L0.788,273.42 L2.72,267.72 Z M12.452,274.428 L12.452,276 L6.98,276 L6.98,267.72 L12.344,267.72 L12.344,269.268 L8.912,269.268 L8.912,270.96 L12.152,270.96 L12.152,272.508 L8.912,272.508 L8.912,274.428 L12.452,274.428 Z M22.64,267.72 L22.64,276 L20.648,276 L17.012,270.384 C17.012,270.384 17.048,271.38 17.048,272.256 L17.048,276 L15.152,276 L15.152,267.72 L17.228,267.72 L20.78,273.288 C20.78,273.288 20.744,272.352 20.744,271.476 L20.744,267.72 L22.64,267.72 Z M32.528,267.72 L32.528,272.544 C32.528,273.708 32.324,274.512 31.736,275.148 C31.16,275.772 30.26,276.132 29.06,276.132 C27.848,276.132 26.96,275.772 26.372,275.148 C25.796,274.512 25.592,273.708 25.592,272.544 L25.592,267.72 L27.548,267.72 L27.548,272.544 C27.548,273.132 27.596,273.588 27.872,273.924 C28.136,274.236 28.52,274.44 29.06,274.44 C29.6,274.44 29.984,274.236 30.248,273.924 C30.524,273.588 30.572,273.132 30.572,272.544 L30.572,267.72 L32.528,267.72 Z M40.952,274.428 L40.952,276 L35.48,276 L35.48,267.72 L40.844,267.72 L40.844,269.268 L37.412,269.268 L37.412,270.96 L40.652,270.96 L40.652,272.508 L37.412,272.508 L37.412,274.428 L40.952,274.428 Z M55.088,271.284 L55.088,274.716 C54.668,275.088 53.684,276.132 51.404,276.132 C49.112,276.132 47.096,274.62 47.096,271.86 C47.096,269.1 49.112,267.6 51.428,267.6 C53.624,267.6 54.572,268.752 54.836,269.04 L53.552,270.156 C53.204,269.772 52.556,269.208 51.428,269.208 C50.096,269.208 49.064,270.18 49.064,271.86 C49.064,273.54 50.12,274.512 51.464,274.512 C52.808,274.512 53.192,273.984 53.192,273.984 L53.192,272.76 L51.452,272.76 L51.452,271.284 L55.088,271.284 Z M62.396,272.58 L64.496,276 L62.24,276 L60.5,272.832 L59.888,272.832 L59.888,276 L57.944,276 L57.944,267.72 L60.92,267.72 C61.844,267.72 62.564,267.912 63.104,268.308 C63.656,268.716 64.016,269.376 64.016,270.204 C64.016,271.776 63.008,272.388 62.396,272.58 Z M62.06,270.276 C62.06,269.856 61.892,269.616 61.64,269.436 C61.4,269.256 61.088,269.22 60.644,269.22 L59.876,269.22 L59.876,271.344 L60.644,271.344 C61.088,271.344 61.4,271.296 61.64,271.116 C61.892,270.936 62.06,270.708 62.06,270.276 Z M75.008,271.872 C75.008,274.548 73.076,276.144 70.616,276.144 C68.156,276.144 66.224,274.548 66.224,271.872 C66.224,269.196 68.156,267.588 70.616,267.588 C73.076,267.588 75.008,269.196 75.008,271.872 Z M73.04,271.824 C73.04,270.252 71.996,269.244 70.616,269.244 C69.236,269.244 68.192,270.24 68.192,271.824 C68.192,273.408 69.236,274.416 70.616,274.416 C71.996,274.416 73.04,273.408 73.04,271.824 Z M86.396,267.72 L88.424,267.72 L86.024,276 L84.068,276 L82.496,270.324 L80.924,276 L78.968,276 L76.568,267.72 L78.596,267.72 L80.036,273.3 L81.524,267.72 L83.468,267.72 L84.968,273.3 L86.396,267.72 Z M96.152,267.72 L96.152,269.256 L94.016,269.256 L94.016,276 L92.072,276 L92.072,269.256 L89.936,269.256 L89.936,267.72 L96.152,267.72 Z M105.668,267.72 L105.668,276 L103.724,276 L103.724,272.532 L100.4,272.532 L100.4,276 L98.456,276 L98.456,267.72 L100.4,267.72 L100.4,270.924 L103.724,270.924 L103.724,267.72 L105.668,267.72 Z" id="PERCENTREVENUEGROWTH" fill="#AAAAAA" transform="translate(10.712000, 271.866000) rotate(-90.000000) translate(-10.712000, -271.866000) "></path>
                </g>
                <path d="M551.712,130.8 C551.712,133.248 550.02,135.072 547.548,135.072 C545.076,135.072 543.384,133.248 543.384,130.8 C543.384,128.352 545.076,126.528 547.548,126.528 C550.02,126.528 551.712,128.352 551.712,130.8 Z M545.22,130.8 C545.22,132.384 546.132,133.548 547.548,133.548 C548.952,133.548 549.864,132.384 549.864,130.8 C549.864,129.216 548.952,128.052 547.548,128.052 C546.132,128.052 545.22,129.216 545.22,130.8 Z M554.004,126.6 L559.548,126.6 L559.548,128.148 L555.804,128.148 L555.804,130.116 L558.876,130.116 L558.876,131.592 L555.804,131.592 L555.804,135 L554.004,135 L554.004,126.6 Z M565.908,126.6 L569.328,126.6 C571.176,126.6 572.412,127.692 572.412,129.396 C572.412,130.476 571.848,131.34 570.972,131.76 L572.628,135 L570.636,135 L569.232,132.18 L567.708,132.18 L567.708,135 L565.908,135 L565.908,126.6 Z M567.708,128.1 L567.708,130.68 L569.184,130.68 C570.036,130.68 570.576,130.176 570.576,129.396 C570.576,128.604 570.036,128.1 569.184,128.1 L567.708,128.1 Z M574.812,126.6 L580.452,126.6 L580.452,128.148 L576.612,128.148 L576.612,130.032 L579.732,130.032 L579.732,131.508 L576.612,131.508 L576.612,133.452 L580.584,133.452 L580.584,135 L574.812,135 L574.812,126.6 Z M582.048,126.6 L583.956,126.6 L585.972,132.816 L588.036,126.6 L589.896,126.6 L587.052,135 L584.904,135 L582.048,126.6 Z M591.816,126.6 L597.456,126.6 L597.456,128.148 L593.616,128.148 L593.616,130.032 L596.736,130.032 L596.736,131.508 L593.616,131.508 L593.616,133.452 L597.588,133.452 L597.588,135 L591.816,135 L591.816,126.6 Z M599.868,135 L599.868,126.6 L601.5,126.6 L605.064,131.892 L605.064,126.6 L606.84,126.6 L606.84,135 L605.196,135 L601.632,129.708 L601.632,135 L599.868,135 Z M609.408,126.6 L611.208,126.6 L611.208,131.472 C611.208,132.804 611.7,133.524 612.852,133.524 C614.016,133.524 614.508,132.804 614.508,131.472 L614.508,126.6 L616.308,126.6 L616.308,131.376 C616.308,133.764 615.12,135.072 612.852,135.072 C610.596,135.072 609.408,133.764 609.408,131.376 L609.408,126.6 Z M618.888,126.6 L624.528,126.6 L624.528,128.148 L620.688,128.148 L620.688,130.032 L623.808,130.032 L623.808,131.508 L620.688,131.508 L620.688,133.452 L624.66,133.452 L624.66,135 L618.888,135 L618.888,126.6 Z M630.78,130.8 C630.78,128.22 632.352,126.528 634.896,126.528 C636.888,126.528 638.292,127.776 638.496,129.6 L636.696,129.6 C636.492,128.664 635.808,128.052 634.8,128.052 C633.432,128.052 632.616,129.18 632.616,130.8 C632.616,132.408 633.432,133.548 634.8,133.548 C635.808,133.548 636.492,132.936 636.696,132 L638.496,132 C638.292,133.824 636.888,135.072 634.896,135.072 C632.352,135.072 630.78,133.38 630.78,130.8 Z M648.648,130.8 C648.648,133.248 646.956,135.072 644.484,135.072 C642.012,135.072 640.32,133.248 640.32,130.8 C640.32,128.352 642.012,126.528 644.484,126.528 C646.956,126.528 648.648,128.352 648.648,130.8 Z M642.156,130.8 C642.156,132.384 643.068,133.548 644.484,133.548 C645.888,133.548 646.8,132.384 646.8,130.8 C646.8,129.216 645.888,128.052 644.484,128.052 C643.068,128.052 642.156,129.216 642.156,130.8 Z M650.94,126.6 L653.304,126.6 L655.632,132.768 L657.888,126.6 L660.204,126.6 L660.204,135 L658.488,135 L658.488,129.372 L656.304,135 L654.84,135 L652.656,129.372 L652.656,135 L650.94,135 L650.94,126.6 Z M662.844,126.6 L668.484,126.6 L668.484,128.148 L664.644,128.148 L664.644,130.032 L667.764,130.032 L667.764,131.508 L664.644,131.508 L664.644,133.452 L668.616,133.452 L668.616,135 L662.844,135 L662.844,126.6 Z M670.56,132.24 L672.324,132.264 C672.384,133.08 673.032,133.644 674.064,133.644 C674.892,133.644 675.504,133.284 675.504,132.624 C675.504,131.916 674.82,131.772 673.416,131.496 C672,131.232 670.752,130.776 670.752,129.072 C670.752,127.596 672.06,126.528 673.884,126.528 C675.756,126.528 677.112,127.644 677.148,129.168 L675.384,129.168 C675.312,128.46 674.76,127.968 673.884,127.968 C673.116,127.968 672.564,128.292 672.564,128.94 C672.564,129.624 673.224,129.768 674.616,130.032 C676.056,130.296 677.328,130.728 677.316,132.42 C677.304,133.956 675.924,135.072 674.04,135.072 C672,135.072 670.584,133.872 670.56,132.24 Z M683.772,126.6 L689.316,126.6 L689.316,128.148 L685.572,128.148 L685.572,130.116 L688.644,130.116 L688.644,131.592 L685.572,131.592 L685.572,135 L683.772,135 L683.772,126.6 Z M691.5,126.6 L694.92,126.6 C696.768,126.6 698.004,127.692 698.004,129.396 C698.004,130.476 697.44,131.34 696.564,131.76 L698.22,135 L696.228,135 L694.824,132.18 L693.3,132.18 L693.3,135 L691.5,135 L691.5,126.6 Z M693.3,128.1 L693.3,130.68 L694.776,130.68 C695.628,130.68 696.168,130.176 696.168,129.396 C696.168,128.604 695.628,128.1 694.776,128.1 L693.3,128.1 Z M708.276,130.8 C708.276,133.248 706.584,135.072 704.112,135.072 C701.64,135.072 699.948,133.248 699.948,130.8 C699.948,128.352 701.64,126.528 704.112,126.528 C706.584,126.528 708.276,128.352 708.276,130.8 Z M701.784,130.8 C701.784,132.384 702.696,133.548 704.112,133.548 C705.516,133.548 706.428,132.384 706.428,130.8 C706.428,129.216 705.516,128.052 704.112,128.052 C702.696,128.052 701.784,129.216 701.784,130.8 Z M710.568,126.6 L712.932,126.6 L715.26,132.768 L717.516,126.6 L719.832,126.6 L719.832,135 L718.116,135 L718.116,129.372 L715.932,135 L714.468,135 L712.284,129.372 L712.284,135 L710.568,135 L710.568,126.6 Z M543.72,142.6 L547.14,142.6 C548.988,142.6 550.224,143.692 550.224,145.396 C550.224,146.476 549.66,147.34 548.784,147.76 L550.44,151 L548.448,151 L547.044,148.18 L545.52,148.18 L545.52,151 L543.72,151 L543.72,142.6 Z M545.52,144.1 L545.52,146.68 L546.996,146.68 C547.848,146.68 548.388,146.176 548.388,145.396 C548.388,144.604 547.848,144.1 546.996,144.1 L545.52,144.1 Z M552.624,142.6 L558.264,142.6 L558.264,144.148 L554.424,144.148 L554.424,146.032 L557.544,146.032 L557.544,147.508 L554.424,147.508 L554.424,149.452 L558.396,149.452 L558.396,151 L552.624,151 L552.624,142.6 Z M560.124,146.8 C560.124,144.22 561.696,142.528 564.24,142.528 C566.232,142.528 567.636,143.776 567.84,145.6 L566.04,145.6 C565.836,144.664 565.152,144.052 564.144,144.052 C562.776,144.052 561.96,145.18 561.96,146.8 C561.96,148.408 562.776,149.548 564.144,149.548 C565.152,149.548 565.836,148.936 566.04,148 L567.84,148 C567.636,149.824 566.232,151.072 564.24,151.072 C561.696,151.072 560.124,149.38 560.124,146.8 Z M570.084,142.6 L573.504,142.6 C575.352,142.6 576.588,143.692 576.588,145.396 C576.588,146.476 576.024,147.34 575.148,147.76 L576.804,151 L574.812,151 L573.408,148.18 L571.884,148.18 L571.884,151 L570.084,151 L570.084,142.6 Z M571.884,144.1 L571.884,146.68 L573.36,146.68 C574.212,146.68 574.752,146.176 574.752,145.396 C574.752,144.604 574.212,144.1 573.36,144.1 L571.884,144.1 Z M578.88,142.6 L580.68,142.6 L580.68,147.472 C580.68,148.804 581.172,149.524 582.324,149.524 C583.488,149.524 583.98,148.804 583.98,147.472 L583.98,142.6 L585.78,142.6 L585.78,147.376 C585.78,149.764 584.592,151.072 582.324,151.072 C580.068,151.072 578.88,149.764 578.88,147.376 L578.88,142.6 Z M588.36,142.6 L590.16,142.6 L590.16,151 L588.36,151 L588.36,142.6 Z M592.332,142.6 L598.98,142.6 L598.98,144.148 L596.556,144.148 L596.556,151 L594.756,151 L594.756,144.148 L592.332,144.148 L592.332,142.6 Z M601.164,142.6 L606.804,142.6 L606.804,144.148 L602.964,144.148 L602.964,146.032 L606.084,146.032 L606.084,147.508 L602.964,147.508 L602.964,149.452 L606.936,149.452 L606.936,151 L601.164,151 L601.164,142.6 Z M609.216,151 L609.216,142.6 L612.132,142.6 C614.7,142.6 616.368,144.34 616.368,146.8 C616.368,149.26 614.7,151 612.132,151 L609.216,151 Z M611.016,149.5 L612.132,149.5 C613.692,149.5 614.532,148.396 614.532,146.8 C614.532,145.204 613.692,144.1 612.132,144.1 L611.016,144.1 L611.016,149.5 Z M622.848,142.6 L626.268,142.6 C628.092,142.6 629.304,143.692 629.304,145.396 C629.304,147.088 628.092,148.18 626.268,148.18 L624.648,148.18 L624.648,151 L622.848,151 L622.848,142.6 Z M624.648,144.1 L624.648,146.68 L626.1,146.68 C626.94,146.68 627.48,146.188 627.48,145.396 C627.48,144.592 626.94,144.1 626.1,144.1 L624.648,144.1 Z M631.452,142.6 L633.252,142.6 L633.252,147.472 C633.252,148.804 633.744,149.524 634.896,149.524 C636.06,149.524 636.552,148.804 636.552,147.472 L636.552,142.6 L638.352,142.6 L638.352,147.376 C638.352,149.764 637.164,151.072 634.896,151.072 C632.64,151.072 631.452,149.764 631.452,147.376 L631.452,142.6 Z M640.932,142.6 L644.124,142.6 C646.068,142.6 647.196,143.404 647.196,144.808 C647.196,145.864 646.572,146.5 645.54,146.692 C646.728,146.848 647.496,147.436 647.496,148.636 C647.496,150.088 646.344,151 644.28,151 L640.932,151 L640.932,142.6 Z M642.732,144.016 L642.732,146.056 L644.172,146.056 C644.94,146.056 645.396,145.66 645.396,145.036 C645.396,144.412 644.952,144.016 644.172,144.016 L642.732,144.016 Z M642.732,147.448 L642.732,149.572 L644.292,149.572 C645.156,149.572 645.648,149.176 645.648,148.528 C645.648,147.844 645.144,147.448 644.292,147.448 L642.732,147.448 Z M649.884,151 L649.884,142.6 L651.684,142.6 L651.684,149.452 L655.02,149.452 L655.02,151 L649.884,151 Z M657.192,142.6 L658.992,142.6 L658.992,151 L657.192,151 L657.192,142.6 Z M661.284,148.24 L663.048,148.264 C663.108,149.08 663.756,149.644 664.788,149.644 C665.616,149.644 666.228,149.284 666.228,148.624 C666.228,147.916 665.544,147.772 664.14,147.496 C662.724,147.232 661.476,146.776 661.476,145.072 C661.476,143.596 662.784,142.528 664.608,142.528 C666.48,142.528 667.836,143.644 667.872,145.168 L666.108,145.168 C666.036,144.46 665.484,143.968 664.608,143.968 C663.84,143.968 663.288,144.292 663.288,144.94 C663.288,145.624 663.948,145.768 665.34,146.032 C666.78,146.296 668.052,146.728 668.04,148.42 C668.028,149.956 666.648,151.072 664.764,151.072 C662.724,151.072 661.308,149.872 661.284,148.24 Z M670.32,142.6 L672.12,142.6 L672.12,145.972 L675.456,145.972 L675.456,142.6 L677.256,142.6 L677.256,151 L675.456,151 L675.456,147.532 L672.12,147.532 L672.12,151 L670.32,151 L670.32,142.6 Z M679.884,142.6 L685.524,142.6 L685.524,144.148 L681.684,144.148 L681.684,146.032 L684.804,146.032 L684.804,147.508 L681.684,147.508 L681.684,149.452 L685.656,149.452 L685.656,151 L679.884,151 L679.884,142.6 Z M687.936,142.6 L691.356,142.6 C693.204,142.6 694.44,143.692 694.44,145.396 C694.44,146.476 693.876,147.34 693,147.76 L694.656,151 L692.664,151 L691.26,148.18 L689.736,148.18 L689.736,151 L687.936,151 L687.936,142.6 Z M689.736,144.1 L689.736,146.68 L691.212,146.68 C692.064,146.68 692.604,146.176 692.604,145.396 C692.604,144.604 692.064,144.1 691.212,144.1 L689.736,144.1 Z M696.36,148.24 L698.124,148.264 C698.184,149.08 698.832,149.644 699.864,149.644 C700.692,149.644 701.304,149.284 701.304,148.624 C701.304,147.916 700.62,147.772 699.216,147.496 C697.8,147.232 696.552,146.776 696.552,145.072 C696.552,143.596 697.86,142.528 699.684,142.528 C701.556,142.528 702.912,143.644 702.948,145.168 L701.184,145.168 C701.112,144.46 700.56,143.968 699.684,143.968 C698.916,143.968 698.364,144.292 698.364,144.94 C698.364,145.624 699.024,145.768 700.416,146.032 C701.856,146.296 703.128,146.728 703.116,148.42 C703.104,149.956 701.724,151.072 699.84,151.072 C697.8,151.072 696.384,149.872 696.36,148.24 Z" id="OFREVENUECOMESFROMRECRUITEDPUBLISHERS" fill="#025450" fill-rule="nonzero"></path>
                <path d="M828.372,211.668 L831.552,209.028 C832.284,208.428 832.74,207.924 832.74,207.24 C832.74,206.412 832.2,205.968 831.396,205.968 C830.628,205.968 830.076,206.532 830.076,207.432 L830.076,207.564 L828.336,207.564 L828.336,207.336 C828.336,205.74 829.536,204.516 831.396,204.516 C833.412,204.516 834.492,205.596 834.492,207.168 C834.492,208.404 833.808,209.16 832.752,210.012 L830.868,211.548 L834.528,211.548 L834.528,213 L828.372,213 L828.372,211.668 Z M839.04,208.716 L836.424,204.6 L838.608,204.6 L840.264,207.24 L841.956,204.6 L843.924,204.6 L841.308,208.716 L844.056,213 L841.86,213 L840.072,210.18 L838.248,213 L836.292,213 L839.04,208.716 Z M849.876,204.6 L856.524,204.6 L856.524,206.148 L854.1,206.148 L854.1,213 L852.3,213 L852.3,206.148 L849.876,206.148 L849.876,204.6 Z M858.708,204.6 L860.508,204.6 L860.508,207.972 L863.844,207.972 L863.844,204.6 L865.644,204.6 L865.644,213 L863.844,213 L863.844,209.532 L860.508,209.532 L860.508,213 L858.708,213 L858.708,204.6 Z M868.272,204.6 L873.912,204.6 L873.912,206.148 L870.072,206.148 L870.072,208.032 L873.192,208.032 L873.192,209.508 L870.072,209.508 L870.072,211.452 L874.044,211.452 L874.044,213 L868.272,213 L868.272,204.6 Z M828.72,220.6 L832.14,220.6 C833.988,220.6 835.224,221.692 835.224,223.396 C835.224,224.476 834.66,225.34 833.784,225.76 L835.44,229 L833.448,229 L832.044,226.18 L830.52,226.18 L830.52,229 L828.72,229 L828.72,220.6 Z M830.52,222.1 L830.52,224.68 L831.996,224.68 C832.848,224.68 833.388,224.176 833.388,223.396 C833.388,222.604 832.848,222.1 831.996,222.1 L830.52,222.1 Z M837.624,220.6 L843.264,220.6 L843.264,222.148 L839.424,222.148 L839.424,224.032 L842.544,224.032 L842.544,225.508 L839.424,225.508 L839.424,227.452 L843.396,227.452 L843.396,229 L837.624,229 L837.624,220.6 Z M844.86,220.6 L846.768,220.6 L848.784,226.816 L850.848,220.6 L852.708,220.6 L849.864,229 L847.716,229 L844.86,220.6 Z M854.628,220.6 L860.268,220.6 L860.268,222.148 L856.428,222.148 L856.428,224.032 L859.548,224.032 L859.548,225.508 L856.428,225.508 L856.428,227.452 L860.4,227.452 L860.4,229 L854.628,229 L854.628,220.6 Z M862.68,229 L862.68,220.6 L864.312,220.6 L867.876,225.892 L867.876,220.6 L869.652,220.6 L869.652,229 L868.008,229 L864.444,223.708 L864.444,229 L862.68,229 Z M872.22,220.6 L874.02,220.6 L874.02,225.472 C874.02,226.804 874.512,227.524 875.664,227.524 C876.828,227.524 877.32,226.804 877.32,225.472 L877.32,220.6 L879.12,220.6 L879.12,225.376 C879.12,227.764 877.932,229.072 875.664,229.072 C873.408,229.072 872.22,227.764 872.22,225.376 L872.22,220.6 Z M881.7,220.6 L887.34,220.6 L887.34,222.148 L883.5,222.148 L883.5,224.032 L886.62,224.032 L886.62,225.508 L883.5,225.508 L883.5,227.452 L887.472,227.452 L887.472,229 L881.7,229 L881.7,220.6 Z M828.384,240.8 C828.384,238.22 829.968,236.528 832.548,236.528 C834.576,236.528 835.98,237.776 836.208,239.588 L834.432,239.588 C834.216,238.664 833.532,238.052 832.5,238.052 C831.096,238.052 830.22,239.18 830.22,240.8 C830.22,242.42 831.06,243.548 832.5,243.548 C833.46,243.548 834.432,243.044 834.6,241.868 L834.6,241.76 L832.512,241.76 L832.512,240.332 L836.268,240.332 L836.268,245 L835.02,245 L834.828,243.956 C834.384,244.544 833.568,245.072 832.38,245.072 C829.98,245.072 828.384,243.38 828.384,240.8 Z M838.908,236.6 L842.328,236.6 C844.176,236.6 845.412,237.692 845.412,239.396 C845.412,240.476 844.848,241.34 843.972,241.76 L845.628,245 L843.636,245 L842.232,242.18 L840.708,242.18 L840.708,245 L838.908,245 L838.908,236.6 Z M840.708,238.1 L840.708,240.68 L842.184,240.68 C843.036,240.68 843.576,240.176 843.576,239.396 C843.576,238.604 843.036,238.1 842.184,238.1 L840.708,238.1 Z M855.684,240.8 C855.684,243.248 853.992,245.072 851.52,245.072 C849.048,245.072 847.356,243.248 847.356,240.8 C847.356,238.352 849.048,236.528 851.52,236.528 C853.992,236.528 855.684,238.352 855.684,240.8 Z M849.192,240.8 C849.192,242.384 850.104,243.548 851.52,243.548 C852.924,243.548 853.836,242.384 853.836,240.8 C853.836,239.216 852.924,238.052 851.52,238.052 C850.104,238.052 849.192,239.216 849.192,240.8 Z M857.04,236.6 L858.9,236.588 L860.448,242.732 L862.092,236.6 L863.712,236.6 L865.308,242.732 L866.892,236.6 L868.716,236.6 L866.388,245 L864.312,245 L862.86,239.42 L861.444,245 L859.368,245 L857.04,236.6 Z M870.264,236.6 L876.912,236.6 L876.912,238.148 L874.488,238.148 L874.488,245 L872.688,245 L872.688,238.148 L870.264,238.148 L870.264,236.6 Z M879.096,236.6 L880.896,236.6 L880.896,239.972 L884.232,239.972 L884.232,236.6 L886.032,236.6 L886.032,245 L884.232,245 L884.232,241.532 L880.896,241.532 L880.896,245 L879.096,245 L879.096,236.6 Z" id="2XTHEREVENUEGROWTH" fill="#025450" fill-rule="nonzero"></path>
                <g id="Path-3-Copy" style="mix-blend-mode: multiply;" stroke-linecap="round" stroke-linejoin="bevel" stroke-dasharray="1,9" transform="translate(857.367639, 166.373943) rotate(3.000000) translate(-857.367639, -166.373943) ">
                    <use fill="black" fill-opacity="1" filter="url(#filter-5)" xlink:href="#path-4"></use>
                    <use stroke="#42BFB6" stroke-width="4" xlink:href="#path-4"></use>
                </g>
                <g id="Path-3-Copy-2" style="mix-blend-mode: multiply;" stroke-linecap="round" stroke-linejoin="bevel" stroke-dasharray="1,9" transform="translate(856.948952, 281.003232) rotate(3.000000) translate(-856.948952, -281.003232) ">
                    <use fill="black" fill-opacity="1" filter="url(#filter-7)" xlink:href="#path-6"></use>
                    <use stroke="#42BFB6" stroke-width="4" xlink:href="#path-6"></use>
                </g>
                <path d="M546.534,106.136 C543.828,102.242 542.31,96.764 542.31,90.362 C542.31,74.918 549.702,66.338 561.318,66.338 C569.964,66.338 576.762,71.354 577.818,79.802 L568.446,79.802 C567.588,76.106 564.75,73.994 560.592,73.994 C554.652,73.994 551.286,78.812 551.286,87.326 L551.286,88.448 C551.484,88.118 551.616,87.854 551.88,87.458 C554.058,84.158 558.018,82.046 562.77,82.046 C572.076,82.046 578.412,88.382 578.412,97.688 C578.412,107.126 571.482,113.396 561.186,113.396 C554.718,113.396 549.768,110.756 546.534,106.136 Z M568.974,97.688 C568.974,92.936 565.938,89.438 561.252,89.438 C556.566,89.438 553.332,92.87 553.332,97.688 C553.332,102.506 556.434,105.938 561.12,105.938 C565.806,105.938 568.974,102.44 568.974,97.688 Z M583.032,90.956 L583.032,88.844 C583.032,75.05 590.886,66.404 602.04,66.404 C613.26,66.404 621.114,75.05 621.114,88.844 L621.114,90.956 C621.114,105.014 613.26,113.396 602.04,113.396 C590.886,113.396 583.032,105.014 583.032,90.956 Z M611.61,89.174 C611.61,79.67 607.716,74.456 602.04,74.456 C596.43,74.456 592.536,79.67 592.536,89.174 L592.536,90.626 C592.536,100.196 596.43,105.344 602.04,105.344 C607.716,105.344 611.61,100.196 611.61,90.626 L611.61,89.174 Z M626.328,77.822 C626.328,71.222 631.476,66.404 638.406,66.404 C645.402,66.404 650.484,71.222 650.484,77.822 C650.484,84.422 645.402,89.24 638.406,89.24 C631.476,89.24 626.328,84.422 626.328,77.822 Z M633.786,113 L665.466,66.8 L674.64,66.8 L642.96,113 L633.786,113 Z M643.026,77.822 C643.026,75.116 641.046,73.136 638.406,73.136 C635.832,73.136 633.852,75.116 633.852,77.822 C633.852,80.528 635.832,82.508 638.406,82.508 C641.046,82.508 643.026,80.528 643.026,77.822 Z M657.876,101.978 C657.876,95.378 662.958,90.56 669.954,90.56 C676.884,90.56 682.032,95.378 682.032,101.978 C682.032,108.578 676.884,113.396 669.954,113.396 C662.958,113.396 657.876,108.578 657.876,101.978 Z M674.508,101.978 C674.508,99.338 672.528,97.292 669.954,97.292 C667.314,97.292 665.334,99.338 665.334,101.978 C665.334,104.684 667.314,106.664 669.954,106.664 C672.528,106.664 674.508,104.684 674.508,101.978 Z" id="60%" fill="#025450" fill-rule="nonzero"></path>
            </g>
        </g>
    </g>
</svg>