<?xml version="1.0" encoding="UTF-8"?>
<svg width="439px" height="501px" viewBox="0 0 439 501" version="1.1" xmlns="http://www.w3.org/2000/svg" xmlns:xlink="http://www.w3.org/1999/xlink">
    <!-- Generator: Sketch 55.2 (78181) - https://sketchapp.com -->
    <title>Group 2</title>
    <desc>Created with Sketch.</desc>
    <defs>
        <rect id="path-1" x="0" y="0" width="158" height="189"></rect>
        <path d="M13.539124,91.1972656 L14.4356084,91.1972656 C15.2735032,91.1972656 15.9004501,91.0317399 16.3164678,90.7006836 C16.7324855,90.3696273 16.9404912,89.8876985 16.9404912,89.2548828 C16.9404912,88.6162077 16.7661766,88.1445328 16.417542,87.8398438 C16.0689075,87.5351547 15.5225262,87.3828125 14.7783819,87.3828125 L13.539124,87.3828125 L13.539124,91.1972656 Z M19.6914678,89.1582031 C19.6914678,90.5410225 19.2593432,91.5986292 18.3950811,92.3310547 C17.5308189,93.0634802 16.3018273,93.4296875 14.7080694,93.4296875 L13.539124,93.4296875 L13.539124,98 L10.8145147,98 L10.8145147,85.1503906 L14.9190069,85.1503906 C16.4776084,85.1503906 17.6626551,85.4858365 18.4741826,86.1567383 C19.2857101,86.8276401 19.6914678,87.8281183 19.6914678,89.1582031 Z M25.9756475,89.8964844 C25.4072853,89.8964844 24.9619772,90.0766584 24.63971,90.4370117 C24.3174427,90.7973651 24.1328743,91.3085904 24.085999,91.9707031 L27.8477178,91.9707031 C27.835999,91.3085904 27.6631492,90.7973651 27.3291631,90.4370117 C26.9951771,90.0766584 26.5440097,89.8964844 25.9756475,89.8964844 Z M26.3535772,98.1757812 C24.771538,98.1757812 23.5352223,97.7392622 22.6445928,96.8662109 C21.7539633,95.9931597 21.3086553,94.7568439 21.3086553,93.1572266 C21.3086553,91.510734 21.7202723,90.2377975 22.5435186,89.3383789 C23.3667649,88.4389603 24.5049371,87.9892578 25.9580694,87.9892578 C27.3467482,87.9892578 28.4277921,88.3847617 29.2012334,89.1757812 C29.9746748,89.9668008 30.3613897,91.0595633 30.3613897,92.4541016 L30.3613897,93.7548828 L24.0244756,93.7548828 C24.0537726,94.5166054 24.2793563,95.111326 24.7012334,95.5390625 C25.1231105,95.966799 25.7149015,96.1806641 26.476624,96.1806641 C27.0684239,96.1806641 27.6279886,96.1191412 28.155335,95.9960938 C28.6826814,95.8730463 29.2334571,95.6767592 29.8076787,95.4072266 L29.8076787,97.4814453 C29.3389264,97.7158215 28.8379548,97.8901361 28.304749,98.0043945 C27.7715433,98.1186529 27.1211591,98.1757812 26.3535772,98.1757812 Z M38.0254522,87.9892578 C38.3887352,87.9892578 38.69049,88.0156247 38.9307256,88.0683594 L38.7285772,90.5820312 C38.5117792,90.5234372 38.24811,90.4941406 37.9375615,90.4941406 C37.0820885,90.4941406 36.4155913,90.713865 35.9380498,91.1533203 C35.4605084,91.5927756 35.2217412,92.2080039 35.2217412,92.9990234 L35.2217412,98 L32.5410772,98 L32.5410772,88.1738281 L34.5713506,88.1738281 L34.9668584,89.8261719 L35.0986944,89.8261719 C35.4033834,89.2753879 35.8150004,88.8315447 36.3335576,88.4946289 C36.8521149,88.1577132 37.4160741,87.9892578 38.0254522,87.9892578 Z M44.7051397,98.1757812 C41.6465306,98.1757812 40.117249,96.4970871 40.117249,93.1396484 C40.117249,91.4697182 40.5332605,90.1938521 41.3652959,89.3120117 C42.1973313,88.4301714 43.3897022,87.9892578 44.9424444,87.9892578 C46.0791688,87.9892578 47.0986898,88.2119118 48.0010381,88.6572266 L47.2100225,90.7314453 C46.7881454,90.5615226 46.3955712,90.4223638 46.0322881,90.3139648 C45.669005,90.2055659 45.3057274,90.1513672 44.9424444,90.1513672 C43.5479061,90.1513672 42.8506475,91.1415917 42.8506475,93.1220703 C42.8506475,95.0439549 43.5479061,96.0048828 44.9424444,96.0048828 C45.4580719,96.0048828 45.9356062,95.9360358 46.3750615,95.7983398 C46.8145169,95.6606438 47.2539656,95.445314 47.6934209,95.1523438 L47.6934209,97.4462891 C47.259825,97.7216811 46.8218411,97.9121088 46.3794561,98.0175781 C45.9370711,98.1230474 45.3789712,98.1757812 44.7051397,98.1757812 Z M54.039124,89.8964844 C53.4707618,89.8964844 53.0254538,90.0766584 52.7031865,90.4370117 C52.3809193,90.7973651 52.1963508,91.3085904 52.1494756,91.9707031 L55.9111944,91.9707031 C55.8994756,91.3085904 55.7266257,90.7973651 55.3926397,90.4370117 C55.0586536,90.0766584 54.6074863,89.8964844 54.039124,89.8964844 Z M54.4170537,98.1757812 C52.8350146,98.1757812 51.5986988,97.7392622 50.7080694,96.8662109 C49.8174399,95.9931597 49.3721319,94.7568439 49.3721319,93.1572266 C49.3721319,91.510734 49.7837488,90.2377975 50.6069951,89.3383789 C51.4302414,88.4389603 52.5684137,87.9892578 54.0215459,87.9892578 C55.4102247,87.9892578 56.4912686,88.3847617 57.26471,89.1757812 C58.0381514,89.9668008 58.4248662,91.0595633 58.4248662,92.4541016 L58.4248662,93.7548828 L52.0879522,93.7548828 C52.1172492,94.5166054 52.3428329,95.111326 52.76471,95.5390625 C53.1865871,95.966799 53.7783781,96.1806641 54.5401006,96.1806641 C55.1319004,96.1806641 55.6914652,96.1191412 56.2188115,95.9960938 C56.7461579,95.8730463 57.2969337,95.6767592 57.8711553,95.4072266 L57.8711553,97.4814453 C57.402403,97.7158215 56.9014314,97.8901361 56.3682256,98.0043945 C55.8350198,98.1186529 55.1846357,98.1757812 54.4170537,98.1757812 Z M69.6748662,98 L66.9942022,98 L66.9942022,92.2607422 C66.9942022,91.5517543 66.8682269,91.0200213 66.6162725,90.6655273 C66.3643181,90.3110334 65.9629549,90.1337891 65.4121709,90.1337891 C64.6621672,90.1337891 64.1201804,90.3842748 63.7861944,90.8852539 C63.4522083,91.386233 63.2852178,92.2167911 63.2852178,93.3769531 L63.2852178,98 L60.6045537,98 L60.6045537,88.1738281 L62.6524053,88.1738281 L63.0127569,89.4306641 L63.1621709,89.4306641 C63.4610005,88.9560523 63.8726175,88.5971692 64.3970342,88.3540039 C64.9214509,88.1108386 65.5176363,87.9892578 66.1856084,87.9892578 C67.3281923,87.9892578 68.1953711,88.2983368 68.7871709,88.9165039 C69.3789708,89.5346711 69.6748662,90.426752 69.6748662,91.5927734 L69.6748662,98 Z M76.5742803,96.0400391 C77.0430326,96.0400391 77.605527,95.937501 78.2617803,95.7324219 L78.2617803,97.7275391 C77.5938082,98.0263687 76.7735039,98.1757812 75.8008428,98.1757812 C74.7285718,98.1757812 73.9478179,97.9047879 73.4585576,97.362793 C72.9692974,96.8207981 72.7246709,96.0078179 72.7246709,94.9238281 L72.7246709,90.1865234 L71.4414678,90.1865234 L71.4414678,89.0527344 L72.9180303,88.15625 L73.6914678,86.0820312 L75.405335,86.0820312 L75.405335,88.1738281 L78.1563115,88.1738281 L78.1563115,90.1865234 L75.405335,90.1865234 L75.405335,94.9238281 C75.405335,95.3046894 75.5122675,95.5859366 75.7261358,95.7675781 C75.940004,95.9492197 76.222716,96.0400391 76.5742803,96.0400391 Z M86.4883428,98 L85.9697881,96.6640625 L85.8994756,96.6640625 C85.4483015,97.2324247 84.9839507,97.6264637 84.5064092,97.8461914 C84.0288678,98.0659191 83.4063154,98.1757812 82.6387334,98.1757812 C81.6953693,98.1757812 80.952701,97.9062527 80.4107061,97.3671875 C79.8687112,96.8281223 79.5977178,96.0605519 79.5977178,95.0644531 C79.5977178,94.0214792 79.9624602,93.2524439 80.6919561,92.7573242 C81.4214519,92.2622046 82.5215386,91.9882815 83.992249,91.9355469 L85.6973272,91.8828125 L85.6973272,91.4521484 C85.6973272,90.4560497 85.1875666,89.9580078 84.1680303,89.9580078 C83.3828701,89.9580078 82.4600278,90.1953101 81.3994756,90.6699219 L80.5117803,88.859375 C81.6426453,88.2675752 82.896539,87.9716797 84.273499,87.9716797 C85.591865,87.9716797 86.6025971,88.2587862 87.3057256,88.8330078 C88.0088541,89.4072294 88.3604131,90.2802676 88.3604131,91.4521484 L88.3604131,98 L86.4883428,98 Z M85.6973272,93.4472656 L84.6602178,93.4824219 C83.880917,93.5058595 83.3008447,93.6464831 82.9199834,93.9042969 C82.5391221,94.1621107 82.3486944,94.5546849 82.3486944,95.0820312 C82.3486944,95.8378944 82.7822838,96.2158203 83.6494756,96.2158203 C84.2705725,96.2158203 84.7671495,96.0371112 85.1392217,95.6796875 C85.5112939,95.3222638 85.6973272,94.8476592 85.6973272,94.2558594 L85.6973272,93.4472656 Z M99.6719365,88.1738281 L99.6719365,89.5361328 L98.1338506,89.9316406 C98.415102,90.3710959 98.5557256,90.8632785 98.5557256,91.4082031 C98.5557256,92.4628959 98.1880535,93.284665 97.4526983,93.8735352 C96.717343,94.4624053 95.6963571,94.7568359 94.38971,94.7568359 L93.9063115,94.7304688 L93.5108037,94.6865234 C93.2354117,94.897462 93.0977178,95.1318346 93.0977178,95.3896484 C93.0977178,95.7763691 93.5899004,95.9697266 94.5742803,95.9697266 L96.2442022,95.9697266 C97.3223326,95.9697266 98.1441017,96.2011696 98.7095342,96.6640625 C99.2749667,97.1269554 99.5576787,97.8066361 99.5576787,98.703125 C99.5576787,99.8515682 99.0786796,100.742184 98.120667,101.375 C97.1626544,102.007816 95.7871799,102.324219 93.9942022,102.324219 C92.6231016,102.324219 91.5757488,102.085452 90.8521123,101.60791 C90.1284759,101.130369 89.7666631,100.460942 89.7666631,99.5996094 C89.7666631,99.0078095 89.9512316,98.5126973 90.320374,98.1142578 C90.6895165,97.7158183 91.2315033,97.4316415 91.9463506,97.2617188 C91.6709586,97.1445307 91.4307266,96.9526381 91.2256475,96.6860352 C91.0205683,96.4194323 90.9180303,96.1367202 90.9180303,95.8378906 C90.9180303,95.4628888 91.0264277,95.1508802 91.2432256,94.9018555 C91.4600236,94.6528308 91.773497,94.4082043 92.1836553,94.1679688 C91.6680277,93.9453114 91.2593404,93.5878931 90.9575811,93.0957031 C90.6558218,92.6035132 90.5049444,92.0234408 90.5049444,91.3554688 C90.5049444,90.2831978 90.8535737,89.4541045 91.5508428,88.8681641 C92.2481119,88.2822236 93.2441957,87.9892578 94.539124,87.9892578 C94.8145161,87.9892578 95.1411729,88.0141599 95.5191045,88.0639648 C95.8970361,88.1137698 96.1387329,88.1503905 96.2442022,88.1738281 L99.6719365,88.1738281 Z M92.0869756,99.3886719 C92.0869756,99.7578143 92.2642199,100.047851 92.6187139,100.258789 C92.9732079,100.469728 93.4697849,100.575195 94.10846,100.575195 C95.0694023,100.575195 95.8223244,100.443361 96.367249,100.179688 C96.9121736,99.9160143 97.1846319,99.5556663 97.1846319,99.0986328 C97.1846319,98.7294903 97.0235007,98.4746101 96.7012334,98.3339844 C96.3789662,98.1933587 95.8809243,98.1230469 95.2070928,98.1230469 L93.8184209,98.1230469 C93.326231,98.1230469 92.914614,98.2387684 92.5835576,98.4702148 C92.2525013,98.7016613 92.0869756,99.0078106 92.0869756,99.3886719 Z M93.0625615,91.390625 C93.0625615,91.9238308 93.1841424,92.3457016 93.4273076,92.65625 C93.6704729,92.9667984 94.0410747,93.1220703 94.539124,93.1220703 C95.0430328,93.1220703 95.4121698,92.9667984 95.6465459,92.65625 C95.8809221,92.3457016 95.9981084,91.9238308 95.9981084,91.390625 C95.9981084,90.2070253 95.5117852,89.6152344 94.539124,89.6152344 C93.5547441,89.6152344 93.0625615,90.2070253 93.0625615,91.390625 Z M105.35846,89.8964844 C104.790098,89.8964844 104.34479,90.0766584 104.022522,90.4370117 C103.700255,90.7973651 103.515687,91.3085904 103.468812,91.9707031 L107.23053,91.9707031 C107.218811,91.3085904 107.045962,90.7973651 106.711976,90.4370117 C106.37799,90.0766584 105.926822,89.8964844 105.35846,89.8964844 Z M105.73639,98.1757812 C104.154351,98.1757812 102.918035,97.7392622 102.027405,96.8662109 C101.136776,95.9931597 100.691468,94.7568439 100.691468,93.1572266 C100.691468,91.510734 101.103085,90.2377975 101.926331,89.3383789 C102.749577,88.4389603 103.88775,87.9892578 105.340882,87.9892578 C106.729561,87.9892578 107.810605,88.3847617 108.584046,89.1757812 C109.357487,89.9668008 109.744202,91.0595633 109.744202,92.4541016 L109.744202,93.7548828 L103.407288,93.7548828 C103.436585,94.5166054 103.662169,95.111326 104.084046,95.5390625 C104.505923,95.966799 105.097714,96.1806641 105.859437,96.1806641 C106.451236,96.1806641 107.010801,96.1191412 107.538147,95.9960938 C108.065494,95.8730463 108.61627,95.6767592 109.190491,95.4072266 L109.190491,97.4814453 C108.721739,97.7158215 108.220767,97.8901361 107.687562,98.0043945 C107.154356,98.1186529 106.503972,98.1757812 105.73639,98.1757812 Z M118.735413,93.0693359 C118.735413,94.0419971 118.895079,94.7773413 119.214417,95.2753906 C119.533755,95.77344 120.053769,96.0224609 120.774476,96.0224609 C121.489323,96.0224609 122.003478,95.7749048 122.316956,95.2797852 C122.630434,94.7846655 122.787171,94.0478565 122.787171,93.0693359 C122.787171,92.0966748 122.628969,91.3671899 122.312562,90.8808594 C121.996154,90.3945288 121.477604,90.1513672 120.756897,90.1513672 C120.04205,90.1513672 119.52643,90.393064 119.210022,90.8764648 C118.893615,91.3598657 118.735413,92.0908154 118.735413,93.0693359 Z M125.529358,93.0693359 C125.529358,94.6689533 125.107488,95.9199174 124.263733,96.8222656 C123.419979,97.7246139 122.245186,98.1757812 120.739319,98.1757812 C119.795955,98.1757812 118.963932,97.9692403 118.243226,97.5561523 C117.522519,97.1430643 116.968813,96.5498086 116.582093,95.7763672 C116.195372,95.0029258 116.002015,94.1005911 116.002015,93.0693359 C116.002015,91.4638592 116.420956,90.2158248 117.258851,89.3251953 C118.096745,88.4345659 119.274468,87.9892578 120.792054,87.9892578 C121.735418,87.9892578 122.567441,88.1943339 123.288147,88.6044922 C124.008854,89.0146505 124.56256,89.6035118 124.94928,90.3710938 C125.336001,91.1386757 125.529358,92.0380808 125.529358,93.0693359 Z M133.175843,90.1865234 L130.85553,90.1865234 L130.85553,98 L128.174866,98 L128.174866,90.1865234 L126.698304,90.1865234 L126.698304,88.8945312 L128.174866,88.1738281 L128.174866,87.453125 C128.174866,86.3339788 128.450254,85.5166041 129.001038,85.0009766 C129.551822,84.485349 130.433649,84.2275391 131.646546,84.2275391 C132.572332,84.2275391 133.395566,84.365233 134.116272,84.640625 L133.430726,86.609375 C132.89166,86.4394523 132.393619,86.3544922 131.936585,86.3544922 C131.555724,86.3544922 131.280336,86.467284 131.110413,86.6928711 C130.94049,86.9184582 130.85553,87.2070295 130.85553,87.5585938 L130.85553,88.1738281 L133.175843,88.1738281 L133.175843,90.1865234 Z M0.223694361,120 L0.223694361,107.150391 L2.94830374,107.150391 L2.94830374,120 L0.223694361,120 Z M15.0420537,120 L12.3613897,120 L12.3613897,114.260742 C12.3613897,113.551754 12.2354144,113.020021 11.98346,112.665527 C11.7315056,112.311033 11.3301424,112.133789 10.7793584,112.133789 C10.0293547,112.133789 9.48736791,112.384275 9.15338186,112.885254 C8.81939582,113.386233 8.6524053,114.216791 8.6524053,115.376953 L8.6524053,120 L5.97174124,120 L5.97174124,110.173828 L8.0195928,110.173828 L8.37994436,111.430664 L8.52935842,111.430664 C8.82818804,110.956052 9.23980502,110.597169 9.7642217,110.354004 C10.2886384,110.110839 10.8848238,109.989258 11.5527959,109.989258 C12.6953798,109.989258 13.5625586,110.298337 14.1543584,110.916504 C14.7461583,111.534671 15.0420537,112.426752 15.0420537,113.592773 L15.0420537,120 Z M21.7920537,120.175781 C18.7334447,120.175781 17.2041631,118.497087 17.2041631,115.139648 C17.2041631,113.469718 17.6201746,112.193852 18.45221,111.312012 C19.2842454,110.430171 20.4766163,109.989258 22.0293584,109.989258 C23.1660829,109.989258 24.1856039,110.211912 25.0879522,110.657227 L24.2969365,112.731445 C23.8750594,112.561523 23.4824852,112.422364 23.1192022,112.313965 C22.7559191,112.205566 22.3926415,112.151367 22.0293584,112.151367 C20.6348202,112.151367 19.9375615,113.141592 19.9375615,115.12207 C19.9375615,117.043955 20.6348202,118.004883 22.0293584,118.004883 C22.544986,118.004883 23.0225203,117.936036 23.4619756,117.79834 C23.9014309,117.660644 24.3408797,117.445314 24.780335,117.152344 L24.780335,119.446289 C24.3467391,119.721681 23.9087552,119.912109 23.4663701,120.017578 C23.0239851,120.123047 22.4658852,120.175781 21.7920537,120.175781 Z M32.5410772,109.989258 C32.9043602,109.989258 33.206115,110.015625 33.4463506,110.068359 L33.2442022,112.582031 C33.0274042,112.523437 32.763735,112.494141 32.4531865,112.494141 C31.5977135,112.494141 30.9312163,112.713865 30.4536748,113.15332 C29.9761334,113.592776 29.7373662,114.208004 29.7373662,114.999023 L29.7373662,120 L27.0567022,120 L27.0567022,110.173828 L29.0869756,110.173828 L29.4824834,111.826172 L29.6143194,111.826172 C29.9190084,111.275388 30.3306254,110.831545 30.8491826,110.494629 C31.3677399,110.157713 31.9316991,109.989258 32.5410772,109.989258 Z M39.2998662,111.896484 C38.731504,111.896484 38.286196,112.076658 37.9639287,112.437012 C37.6416615,112.797365 37.457093,113.30859 37.4102178,113.970703 L41.1719365,113.970703 C41.1602177,113.30859 40.9873679,112.797365 40.6533819,112.437012 C40.3193958,112.076658 39.8682285,111.896484 39.2998662,111.896484 Z M39.6777959,120.175781 C38.0957568,120.175781 36.859441,119.739262 35.9688115,118.866211 C35.0781821,117.99316 34.632874,116.756844 34.632874,115.157227 C34.632874,113.510734 35.044491,112.237797 35.8677373,111.338379 C36.6909836,110.43896 37.8291558,109.989258 39.2822881,109.989258 C40.6709669,109.989258 41.7520108,110.384762 42.5254522,111.175781 C43.2988935,111.966801 43.6856084,113.059563 43.6856084,114.454102 L43.6856084,115.754883 L37.3486944,115.754883 C37.3779914,116.516605 37.6035751,117.111326 38.0254522,117.539062 C38.4473293,117.966799 39.0391202,118.180664 39.8008428,118.180664 C40.3926426,118.180664 40.9522073,118.119141 41.4795537,117.996094 C42.0069001,117.873046 42.5576759,117.676759 43.1318975,117.407227 L43.1318975,119.481445 C42.6631451,119.715821 42.1621736,119.890136 41.6289678,120.004395 C41.095762,120.118653 40.4453779,120.175781 39.6777959,120.175781 Z M54.6631475,120 L51.9824834,120 L51.9824834,114.260742 C51.9824834,113.551754 51.8638323,113.020021 51.6265264,112.665527 C51.3892205,112.311033 51.0156891,112.133789 50.5059209,112.133789 C49.8203706,112.133789 49.3223287,112.38574 49.0117803,112.889648 C48.7012319,113.393557 48.54596,114.22265 48.54596,115.376953 L48.54596,120 L45.8652959,120 L45.8652959,110.173828 L47.9131475,110.173828 L48.273499,111.430664 L48.4229131,111.430664 C48.6865863,110.97949 49.0674419,110.626466 49.5654912,110.371582 C50.0635406,110.116698 50.634824,109.989258 51.2793584,109.989258 C52.7500689,109.989258 53.7461527,110.469722 54.2676397,111.430664 L54.5049444,111.430664 C54.7686176,110.973631 55.1567973,110.619142 55.6694951,110.367188 C56.182193,110.115233 56.7608005,109.989258 57.405335,109.989258 C58.5186218,109.989258 59.3608985,110.274899 59.9321905,110.846191 C60.5034824,111.417483 60.789124,112.333002 60.789124,113.592773 L60.789124,120 L58.0996709,120 L58.0996709,114.260742 C58.0996709,113.551754 57.9810198,113.020021 57.7437139,112.665527 C57.506408,112.311033 57.1328766,112.133789 56.6231084,112.133789 C55.9668551,112.133789 55.4761374,112.368162 55.1509405,112.836914 C54.8257435,113.305666 54.6631475,114.0498 54.6631475,115.069336 L54.6631475,120 Z M67.6094365,111.896484 C67.0410743,111.896484 66.5957663,112.076658 66.273499,112.437012 C65.9512318,112.797365 65.7666633,113.30859 65.7197881,113.970703 L69.4815069,113.970703 C69.4697881,113.30859 69.2969382,112.797365 68.9629522,112.437012 C68.6289661,112.076658 68.1777988,111.896484 67.6094365,111.896484 Z M67.9873662,120.175781 C66.4053271,120.175781 65.1690113,119.739262 64.2783819,118.866211 C63.3877524,117.99316 62.9424444,116.756844 62.9424444,115.157227 C62.9424444,113.510734 63.3540613,112.237797 64.1773076,111.338379 C65.0005539,110.43896 66.1387262,109.989258 67.5918584,109.989258 C68.9805372,109.989258 70.0615811,110.384762 70.8350225,111.175781 C71.6084639,111.966801 71.9951787,113.059563 71.9951787,114.454102 L71.9951787,115.754883 L65.6582647,115.754883 C65.6875617,116.516605 65.9131454,117.111326 66.3350225,117.539062 C66.7568996,117.966799 67.3486906,118.180664 68.1104131,118.180664 C68.7022129,118.180664 69.2617777,118.119141 69.789124,117.996094 C70.3164704,117.873046 70.8672462,117.676759 71.4414678,117.407227 L71.4414678,119.481445 C70.9727155,119.715821 70.4717439,119.890136 69.9385381,120.004395 C69.4053323,120.118653 68.7549482,120.175781 67.9873662,120.175781 Z M83.2451787,120 L80.5645147,120 L80.5645147,114.260742 C80.5645147,113.551754 80.4385394,113.020021 80.186585,112.665527 C79.9346306,112.311033 79.5332674,112.133789 78.9824834,112.133789 C78.2324797,112.133789 77.6904929,112.384275 77.3565069,112.885254 C77.0225208,113.386233 76.8555303,114.216791 76.8555303,115.376953 L76.8555303,120 L74.1748662,120 L74.1748662,110.173828 L76.2227178,110.173828 L76.5830694,111.430664 L76.7324834,111.430664 C77.031313,110.956052 77.44293,110.597169 77.9673467,110.354004 C78.4917634,110.110839 79.0879488,109.989258 79.7559209,109.989258 C80.8985048,109.989258 81.7656836,110.298337 82.3574834,110.916504 C82.9492833,111.534671 83.2451787,112.426752 83.2451787,113.592773 L83.2451787,120 Z M90.1445928,118.040039 C90.6133451,118.040039 91.1758395,117.937501 91.8320928,117.732422 L91.8320928,119.727539 C91.1641207,120.026369 90.3438164,120.175781 89.3711553,120.175781 C88.2988843,120.175781 87.5181304,119.904788 87.0288701,119.362793 C86.5396099,118.820798 86.2949834,118.007818 86.2949834,116.923828 L86.2949834,112.186523 L85.0117803,112.186523 L85.0117803,111.052734 L86.4883428,110.15625 L87.2617803,108.082031 L88.9756475,108.082031 L88.9756475,110.173828 L91.726624,110.173828 L91.726624,112.186523 L88.9756475,112.186523 L88.9756475,116.923828 C88.9756475,117.304689 89.08258,117.585937 89.2964483,117.767578 C89.5103165,117.94922 89.7930285,118.040039 90.1445928,118.040039 Z M100.058655,120 L99.5401006,118.664062 L99.4697881,118.664062 C99.018614,119.232425 98.5542632,119.626464 98.0767217,119.846191 C97.5991803,120.065919 96.9766279,120.175781 96.2090459,120.175781 C95.2656818,120.175781 94.5230135,119.906253 93.9810186,119.367188 C93.4390237,118.828122 93.1680303,118.060552 93.1680303,117.064453 C93.1680303,116.021479 93.5327727,115.252444 94.2622686,114.757324 C94.9917644,114.262205 96.0918511,113.988282 97.5625615,113.935547 L99.2676397,113.882812 L99.2676397,113.452148 C99.2676397,112.45605 98.7578791,111.958008 97.7383428,111.958008 C96.9531826,111.958008 96.0303403,112.19531 94.9697881,112.669922 L94.0820928,110.859375 C95.2129578,110.267575 96.4668515,109.97168 97.8438115,109.97168 C99.1621775,109.97168 100.17291,110.258786 100.876038,110.833008 C101.579167,111.407229 101.930726,112.280268 101.930726,113.452148 L101.930726,120 L100.058655,120 Z M99.2676397,115.447266 L98.2305303,115.482422 C97.4512295,115.505859 96.8711572,115.646483 96.4902959,115.904297 C96.1094346,116.162111 95.9190069,116.554685 95.9190069,117.082031 C95.9190069,117.837894 96.3525963,118.21582 97.2197881,118.21582 C97.840885,118.21582 98.337462,118.037111 98.7095342,117.679688 C99.0816064,117.322264 99.2676397,116.847659 99.2676397,116.255859 L99.2676397,115.447266 Z M107.371155,120 L104.690491,120 L104.690491,106.324219 L107.371155,106.324219 L107.371155,120 Z M115.070374,120 L115.070374,107.150391 L117.794983,107.150391 L117.794983,117.75 L123.006897,117.75 L123.006897,120 L115.070374,120 Z M124.914124,107.633789 C124.914124,106.760738 125.400447,106.324219 126.373108,106.324219 C127.34577,106.324219 127.832093,106.760738 127.832093,107.633789 C127.832093,108.049807 127.710512,108.373534 127.467347,108.60498 C127.224181,108.836427 126.859439,108.952148 126.373108,108.952148 C125.400447,108.952148 124.914124,108.5127 124.914124,107.633789 Z M127.709046,120 L125.028382,120 L125.028382,110.173828 L127.709046,110.173828 L127.709046,120 Z M135.953187,112.186523 L133.632874,112.186523 L133.632874,120 L130.95221,120 L130.95221,112.186523 L129.475647,112.186523 L129.475647,110.894531 L130.95221,110.173828 L130.95221,109.453125 C130.95221,108.333979 131.227598,107.516604 131.778382,107.000977 C132.329166,106.485349 133.210993,106.227539 134.42389,106.227539 C135.349676,106.227539 136.17291,106.365233 136.893616,106.640625 L136.208069,108.609375 C135.669004,108.439452 135.170962,108.354492 134.713929,108.354492 C134.333067,108.354492 134.05768,108.467284 133.887757,108.692871 C133.717834,108.918458 133.632874,109.207029 133.632874,109.558594 L133.632874,110.173828 L135.953187,110.173828 L135.953187,112.186523 Z M141.630921,118.040039 C142.099673,118.040039 142.662168,117.937501 143.318421,117.732422 L143.318421,119.727539 C142.650449,120.026369 141.830145,120.175781 140.857483,120.175781 C139.785212,120.175781 139.004459,119.904788 138.515198,119.362793 C138.025938,118.820798 137.781312,118.007818 137.781312,116.923828 L137.781312,112.186523 L136.498108,112.186523 L136.498108,111.052734 L137.974671,110.15625 L138.748108,108.082031 L140.461976,108.082031 L140.461976,110.173828 L143.212952,110.173828 L143.212952,112.186523 L140.461976,112.186523 L140.461976,116.923828 C140.461976,117.304689 140.568908,117.585937 140.782776,117.767578 C140.996645,117.94922 141.279357,118.040039 141.630921,118.040039 Z" id="path-3"></path>
    </defs>
    <g id="data-illustrations" stroke="none" stroke-width="1" fill="none" fill-rule="evenodd">
        <g id="what-is-affiliate-copy" transform="translate(-621.000000, -180.000000)">
            <g id="Group-4" transform="translate(54.000000, 112.000000)">
                <g id="Group-2" transform="translate(568.000000, 68.000000)">
                    <rect id="Rectangle" fill="#A5DDEF" x="33" y="190" width="158" height="247"></rect>
                    <rect id="Rectangle-Copy" fill="#42BFB6" x="244" y="190" width="158" height="247"></rect>
                    <rect id="Rectangle-Copy-2" fill="#49C5B1" x="244" y="1" width="158" height="159"></rect>
                    <g id="Rectangle-Copy-3" transform="translate(244.000000, 1.000000)">
                        <mask id="mask-2" fill="white">
                            <use xlink:href="#path-1"></use>
                        </mask>
                        <use id="Rectangle-Copy-2" fill="#42BFB6" xlink:href="#path-1"></use>
                        <g id="Group" mask="url(#mask-2)" stroke="#A1FFF8" stroke-linecap="square">
                            <g transform="translate(-190.637695, -23.000000)">
                                <path d="M0.5,212 L212.224609,0.275390625" id="Line"></path>
                                <path d="M7.5,212 L219.224609,0.275390625" id="Line-Copy"></path>
                                <path d="M14.5,212 L226.224609,0.275390625" id="Line-Copy-2"></path>
                                <path d="M21.5,212 L233.224609,0.275390625" id="Line-Copy-3"></path>
                                <path d="M28.5,212 L240.224609,0.275390625" id="Line-Copy-4"></path>
                                <path d="M35.5,212 L247.224609,0.275390625" id="Line-Copy-5"></path>
                                <path d="M42.5,212 L254.224609,0.275390625" id="Line-Copy-6"></path>
                                <path d="M49.5,212 L261.224609,0.275390625" id="Line-Copy-7"></path>
                                <path d="M56.5,212 L268.224609,0.275390625" id="Line-Copy-8"></path>
                                <path d="M63.5,212 L275.224609,0.275390625" id="Line-Copy-9"></path>
                                <path d="M70.5,212 L282.224609,0.275390625" id="Line-Copy-10"></path>
                                <path d="M77.5,212 L289.224609,0.275390625" id="Line-Copy-11"></path>
                                <path d="M84.5,212 L296.224609,0.275390625" id="Line-Copy-12"></path>
                                <path d="M91.5,212 L303.224609,0.275390625" id="Line-Copy-13"></path>
                                <path d="M98.5,212 L310.224609,0.275390625" id="Line-Copy-14"></path>
                                <path d="M105.5,212 L317.224609,0.275390625" id="Line-Copy-15"></path>
                                <path d="M112.5,212 L324.224609,0.275390625" id="Line-Copy-16"></path>
                                <path d="M119.5,212 L331.224609,0.275390625" id="Line-Copy-17"></path>
                                <path d="M126.5,212 L338.224609,0.275390625" id="Line-Copy-18"></path>
                                <path d="M133.5,212 L345.224609,0.275390625" id="Line-Copy-19"></path>
                                <path d="M140.5,212 L352.224609,0.275390625" id="Line-Copy-20"></path>
                                <path d="M147.5,212 L359.224609,0.275390625" id="Line-Copy-21"></path>
                                <path d="M154.5,212 L366.224609,0.275390625" id="Line-Copy-22"></path>
                                <path d="M161.5,212 L373.224609,0.275390625" id="Line-Copy-23"></path>
                                <path d="M168.5,212 L380.224609,0.275390625" id="Line-Copy-24"></path>
                                <path d="M175.5,212 L387.224609,0.275390625" id="Line-Copy-25"></path>
                                <path d="M182.5,212 L394.224609,0.275390625" id="Line-Copy-26"></path>
                                <path d="M189.5,212 L401.224609,0.275390625" id="Line-Copy-27"></path>
                                <path d="M196.5,212 L408.224609,0.275390625" id="Line-Copy-28"></path>
                                <path d="M203.5,212 L415.224609,0.275390625" id="Line-Copy-29"></path>
                                <path d="M210.5,212 L422.224609,0.275390625" id="Line-Copy-30"></path>
                                <path d="M217.5,212 L429.224609,0.275390625" id="Line-Copy-31"></path>
                                <path d="M224.5,212 L436.224609,0.275390625" id="Line-Copy-32"></path>
                                <path d="M231.5,212 L443.224609,0.275390625" id="Line-Copy-33"></path>
                                <path d="M238.5,212 L450.224609,0.275390625" id="Line-Copy-34"></path>
                                <path d="M245.5,212 L457.224609,0.275390625" id="Line-Copy-35"></path>
                                <path d="M252.5,212 L464.224609,0.275390625" id="Line-Copy-36"></path>
                                <path d="M259.5,212 L471.224609,0.275390625" id="Line-Copy-37"></path>
                                <path d="M266.5,212 L478.224609,0.275390625" id="Line-Copy-38"></path>
                                <path d="M273.5,212 L485.224609,0.275390625" id="Line-Copy-39"></path>
                                <path d="M280.5,212 L492.224609,0.275390625" id="Line-Copy-40"></path>
                                <path d="M287.5,212 L499.224609,0.275390625" id="Line-Copy-41"></path>
                                <path d="M294.5,212 L506.224609,0.275390625" id="Line-Copy-42"></path>
                                <path d="M301.5,212 L513.224609,0.275390625" id="Line-Copy-43"></path>
                                <path d="M308.5,212 L520.224609,0.275390625" id="Line-Copy-44"></path>
                                <path d="M315.5,212 L527.224609,0.275390625" id="Line-Copy-45"></path>
                                <path d="M322.5,212 L534.224609,0.275390625" id="Line-Copy-46"></path>
                                <path d="M329.5,212 L541.224609,0.275390625" id="Line-Copy-47"></path>
                                <path d="M336.5,212 L548.224609,0.275390625" id="Line-Copy-48"></path>
                                <path d="M343.5,212 L555.224609,0.275390625" id="Line-Copy-49"></path>
                            </g>
                        </g>
                    </g>
                    <path d="M0.459033613,437 L436.275588,437" id="Line-2" stroke="#025450" stroke-width="2" stroke-linecap="square"></path>
                    <path d="M0.459033613,190 L436.275588,190" id="Line-2-Copy-3" stroke="#BFBDBB" stroke-width="2" stroke-linecap="square" stroke-dasharray="12"></path>
                    <g id="Group-3" transform="translate(38.747497, 0.000000)">
                        <path d="M178.619814,190 L177.619814,1" id="Line-3" stroke="#42BFB6" stroke-width="2" stroke-linecap="square"></path>
                        <path d="M178.619814,1 L191.114808,1" id="Line-4" stroke="#42BFB6" stroke-width="2" stroke-linecap="square"></path>
                        <path d="M178.619814,190 L191.114808,190" id="Line-4-Copy" stroke="#42BFB6" stroke-width="2" stroke-linecap="square"></path>
                        <path d="M164.367311,96 L176.862305,96" id="Line-4" stroke="#42BFB6" stroke-width="2" stroke-linecap="square"></path>
                        <g id="PercentageofIncrementalLift" fill-rule="nonzero">
                            <use fill="#101820" xlink:href="#path-3"></use>
                            <use fill="#42BFB6" xlink:href="#path-3"></use>
                        </g>
                    </g>
                    <path d="M67.2504883,474 L63.7875977,474 L58.1977539,464.279297 L58.1186523,464.279297 C58.229981,465.996102 58.2856445,467.220699 58.2856445,467.953125 L58.2856445,474 L55.8510742,474 L55.8510742,461.150391 L59.2875977,461.150391 L64.8686523,470.774414 L64.9301758,470.774414 C64.8422847,469.104484 64.7983398,467.923832 64.7983398,467.232422 L64.7983398,461.150391 L67.2504883,461.150391 L67.2504883,474 Z M72.409668,469.069336 C72.409668,470.041997 72.5693343,470.777341 72.8886719,471.275391 C73.2080094,471.77344 73.7280237,472.022461 74.4487305,472.022461 C75.1635778,472.022461 75.6777328,471.774905 75.9912109,471.279785 C76.3046891,470.784665 76.4614258,470.047856 76.4614258,469.069336 C76.4614258,468.096675 76.3032242,467.36719 75.9868164,466.880859 C75.6704086,466.394529 75.1518591,466.151367 74.4311523,466.151367 C73.716305,466.151367 73.2006852,466.393064 72.8842773,466.876465 C72.5678695,467.359866 72.409668,468.090815 72.409668,469.069336 Z M79.2036133,469.069336 C79.2036133,470.668953 78.7817425,471.919917 77.9379883,472.822266 C77.0942341,473.724614 75.9194411,474.175781 74.4135742,474.175781 C73.4702101,474.175781 72.6381872,473.96924 71.9174805,473.556152 C71.1967737,473.143064 70.6430683,472.549809 70.2563477,471.776367 C69.869627,471.002926 69.6762695,470.100591 69.6762695,469.069336 C69.6762695,467.463859 70.0952107,466.215825 70.9331055,465.325195 C71.7710003,464.434566 72.9487229,463.989258 74.4663086,463.989258 C75.4096727,463.989258 76.2416956,464.194334 76.9624023,464.604492 C77.6831091,465.01465 78.2368145,465.603512 78.6235352,466.371094 C79.0102558,467.138676 79.2036133,468.038081 79.2036133,469.069336 Z M90.4887695,474 L87.8081055,474 L87.8081055,468.260742 C87.8081055,467.551754 87.6821302,467.020021 87.4301758,466.665527 C87.1782214,466.311033 86.7768582,466.133789 86.2260742,466.133789 C85.4760705,466.133789 84.9340837,466.384275 84.6000977,466.885254 C84.2661116,467.386233 84.0991211,468.216791 84.0991211,469.376953 L84.0991211,474 L81.418457,474 L81.418457,464.173828 L83.4663086,464.173828 L83.8266602,465.430664 L83.9760742,465.430664 C84.2749038,464.956052 84.6865208,464.597169 85.2109375,464.354004 C85.7353542,464.110839 86.3315396,463.989258 86.9995117,463.989258 C88.1420956,463.989258 89.0092744,464.298337 89.6010742,464.916504 C90.1928741,465.534671 90.4887695,466.426752 90.4887695,467.592773 L90.4887695,474 Z M92.378418,470.273438 L92.378418,468.076172 L97.0981445,468.076172 L97.0981445,470.273438 L92.378418,470.273438 Z M107.117676,474 L106.186035,470.941406 L101.501465,470.941406 L100.569824,474 L97.6342773,474 L102.169434,461.097656 L105.500488,461.097656 L110.053223,474 L107.117676,474 Z M105.535645,468.65625 C104.674312,465.884752 104.189454,464.317385 104.081055,463.954102 C103.972656,463.590818 103.89502,463.303712 103.848145,463.092773 C103.654784,463.842777 103.101079,465.697251 102.187012,468.65625 L105.535645,468.65625 Z M116.891113,466.186523 L114.570801,466.186523 L114.570801,474 L111.890137,474 L111.890137,466.186523 L110.413574,466.186523 L110.413574,464.894531 L111.890137,464.173828 L111.890137,463.453125 C111.890137,462.333979 112.165525,461.516604 112.716309,461.000977 C113.267093,460.485349 114.14892,460.227539 115.361816,460.227539 C116.287602,460.227539 117.110836,460.365233 117.831543,460.640625 L117.145996,462.609375 C116.606931,462.439452 116.108889,462.354492 115.651855,462.354492 C115.270994,462.354492 114.995606,462.467284 114.825684,462.692871 C114.655761,462.918458 114.570801,463.207029 114.570801,463.558594 L114.570801,464.173828 L116.891113,464.173828 L116.891113,466.186523 Z M123.86084,466.186523 L121.540527,466.186523 L121.540527,474 L118.859863,474 L118.859863,466.186523 L117.383301,466.186523 L117.383301,464.894531 L118.859863,464.173828 L118.859863,463.453125 C118.859863,462.333979 119.135251,461.516604 119.686035,461.000977 C120.236819,460.485349 121.118646,460.227539 122.331543,460.227539 C123.257329,460.227539 124.080563,460.365233 124.80127,460.640625 L124.115723,462.609375 C123.576657,462.439452 123.078616,462.354492 122.621582,462.354492 C122.240721,462.354492 121.965333,462.467284 121.79541,462.692871 C121.625487,462.918458 121.540527,463.207029 121.540527,463.558594 L121.540527,464.173828 L123.86084,464.173828 L123.86084,466.186523 Z M125.258301,461.633789 C125.258301,460.760738 125.744624,460.324219 126.717285,460.324219 C127.689946,460.324219 128.17627,460.760738 128.17627,461.633789 C128.17627,462.049807 128.054689,462.373534 127.811523,462.60498 C127.568358,462.836427 127.203616,462.952148 126.717285,462.952148 C125.744624,462.952148 125.258301,462.5127 125.258301,461.633789 Z M128.053223,474 L125.372559,474 L125.372559,464.173828 L128.053223,464.173828 L128.053223,474 Z M133.546387,474 L130.865723,474 L130.865723,460.324219 L133.546387,460.324219 L133.546387,474 Z M136.244629,461.633789 C136.244629,460.760738 136.730952,460.324219 137.703613,460.324219 C138.676274,460.324219 139.162598,460.760738 139.162598,461.633789 C139.162598,462.049807 139.041017,462.373534 138.797852,462.60498 C138.554686,462.836427 138.189944,462.952148 137.703613,462.952148 C136.730952,462.952148 136.244629,462.5127 136.244629,461.633789 Z M139.039551,474 L136.358887,474 L136.358887,464.173828 L139.039551,464.173828 L139.039551,474 Z M148.092285,474 L147.57373,472.664062 L147.503418,472.664062 C147.052244,473.232425 146.587893,473.626464 146.110352,473.846191 C145.63281,474.065919 145.010258,474.175781 144.242676,474.175781 C143.299312,474.175781 142.556643,473.906253 142.014648,473.367188 C141.472654,472.828122 141.20166,472.060552 141.20166,471.064453 C141.20166,470.021479 141.566403,469.252444 142.295898,468.757324 C143.025394,468.262205 144.125481,467.988282 145.596191,467.935547 L147.30127,467.882812 L147.30127,467.452148 C147.30127,466.45605 146.791509,465.958008 145.771973,465.958008 C144.986812,465.958008 144.06397,466.19531 143.003418,466.669922 L142.115723,464.859375 C143.246588,464.267575 144.500481,463.97168 145.877441,463.97168 C147.195807,463.97168 148.206539,464.258786 148.909668,464.833008 C149.612796,465.407229 149.964355,466.280268 149.964355,467.452148 L149.964355,474 L148.092285,474 Z M147.30127,469.447266 L146.26416,469.482422 C145.484859,469.505859 144.904787,469.646483 144.523926,469.904297 C144.143065,470.162111 143.952637,470.554685 143.952637,471.082031 C143.952637,471.837894 144.386226,472.21582 145.253418,472.21582 C145.874515,472.21582 146.371092,472.037111 146.743164,471.679688 C147.115236,471.322264 147.30127,470.847659 147.30127,470.255859 L147.30127,469.447266 Z M156.86377,472.040039 C157.332522,472.040039 157.895016,471.937501 158.55127,471.732422 L158.55127,473.727539 C157.883297,474.026369 157.062993,474.175781 156.090332,474.175781 C155.018061,474.175781 154.237307,473.904788 153.748047,473.362793 C153.258787,472.820798 153.01416,472.007818 153.01416,470.923828 L153.01416,466.186523 L151.730957,466.186523 L151.730957,465.052734 L153.20752,464.15625 L153.980957,462.082031 L155.694824,462.082031 L155.694824,464.173828 L158.445801,464.173828 L158.445801,466.186523 L155.694824,466.186523 L155.694824,470.923828 C155.694824,471.304689 155.801757,471.585937 156.015625,471.767578 C156.229493,471.94922 156.512205,472.040039 156.86377,472.040039 Z M164.606934,465.896484 C164.038571,465.896484 163.593263,466.076658 163.270996,466.437012 C162.948729,466.797365 162.76416,467.30859 162.717285,467.970703 L166.479004,467.970703 C166.467285,467.30859 166.294435,466.797365 165.960449,466.437012 C165.626463,466.076658 165.175296,465.896484 164.606934,465.896484 Z M164.984863,474.175781 C163.402824,474.175781 162.166508,473.739262 161.275879,472.866211 C160.385249,471.99316 159.939941,470.756844 159.939941,469.157227 C159.939941,467.510734 160.351558,466.237797 161.174805,465.338379 C161.998051,464.43896 163.136223,463.989258 164.589355,463.989258 C165.978034,463.989258 167.059078,464.384762 167.83252,465.175781 C168.605961,465.966801 168.992676,467.059563 168.992676,468.454102 L168.992676,469.754883 L162.655762,469.754883 C162.685059,470.516605 162.910642,471.111326 163.33252,471.539062 C163.754397,471.966799 164.346188,472.180664 165.10791,472.180664 C165.69971,472.180664 166.259275,472.119141 166.786621,471.996094 C167.313967,471.873046 167.864743,471.676759 168.438965,471.407227 L168.438965,473.481445 C167.970213,473.715821 167.469241,473.890136 166.936035,474.004395 C166.402829,474.118653 165.752445,474.175781 164.984863,474.175781 Z M79.4892578,492.431641 C79.4892578,493.591803 79.0717815,494.505856 78.2368164,495.173828 C77.4018513,495.8418 76.2402418,496.175781 74.7519531,496.175781 C73.3808525,496.175781 72.167974,495.917971 71.1132812,495.402344 L71.1132812,492.871094 C71.9804731,493.257814 72.7143525,493.530273 73.3149414,493.688477 C73.9155303,493.84668 74.4648413,493.925781 74.9628906,493.925781 C75.5605499,493.925781 76.0190414,493.811525 76.3383789,493.583008 C76.6577164,493.354491 76.8173828,493.014651 76.8173828,492.563477 C76.8173828,492.311522 76.747071,492.087403 76.6064453,491.891113 C76.4658196,491.694823 76.2592787,491.50586 75.9868164,491.324219 C75.7143541,491.142577 75.1591839,490.852541 74.3212891,490.454102 C73.5361289,490.084959 72.9472676,489.73047 72.5546875,489.390625 C72.1621074,489.05078 71.848634,488.655276 71.6142578,488.204102 C71.3798816,487.752927 71.2626953,487.225589 71.2626953,486.62207 C71.2626953,485.485346 71.6479454,484.5918 72.418457,483.941406 C73.1889687,483.291012 74.2538995,482.96582 75.6132812,482.96582 C76.2812533,482.96582 76.918454,483.044921 77.5249023,483.203125 C78.1313507,483.361329 78.7656217,483.583983 79.4277344,483.871094 L78.5488281,485.989258 C77.8632778,485.708006 77.296389,485.511719 76.8481445,485.400391 C76.3999001,485.289062 75.9589865,485.233398 75.5253906,485.233398 C75.009763,485.233398 74.6142592,485.353514 74.3388672,485.59375 C74.0634752,485.833986 73.9257812,486.147459 73.9257812,486.53418 C73.9257812,486.774415 73.9814448,486.983886 74.0927734,487.162598 C74.2041021,487.341309 74.3813464,487.514159 74.6245117,487.681152 C74.867677,487.848145 75.4433548,488.148435 76.3515625,488.582031 C77.5527404,489.156253 78.3759743,489.731931 78.8212891,490.309082 C79.2666038,490.886233 79.4892578,491.593746 79.4892578,492.431641 Z M90.6777344,496 L87.9970703,496 L87.9970703,490.260742 C87.9970703,488.842766 87.4697318,488.133789 86.4150391,488.133789 C85.6650353,488.133789 85.1230485,488.388669 84.7890625,488.898438 C84.4550765,489.408206 84.2880859,490.234369 84.2880859,491.376953 L84.2880859,496 L81.6074219,496 L81.6074219,482.324219 L84.2880859,482.324219 L84.2880859,485.110352 C84.2880859,485.32715 84.2675783,485.83691 84.2265625,486.639648 L84.1650391,487.430664 L84.3056641,487.430664 C84.9033233,486.469722 85.8525326,485.989258 87.1533203,485.989258 C88.307623,485.989258 89.1835908,486.299802 89.78125,486.920898 C90.3789092,487.541995 90.6777344,488.432611 90.6777344,489.592773 L90.6777344,496 Z M95.5732422,491.069336 C95.5732422,492.041997 95.7329086,492.777341 96.0522461,493.275391 C96.3715836,493.77344 96.891598,494.022461 97.6123047,494.022461 C98.327152,494.022461 98.841307,493.774905 99.1547852,493.279785 C99.4682633,492.784665 99.625,492.047856 99.625,491.069336 C99.625,490.096675 99.4667985,489.36719 99.1503906,488.880859 C98.8339828,488.394529 98.3154333,488.151367 97.5947266,488.151367 C96.8798792,488.151367 96.3642594,488.393064 96.0478516,488.876465 C95.7314437,489.359866 95.5732422,490.090815 95.5732422,491.069336 Z M102.367188,491.069336 C102.367188,492.668953 101.945317,493.919917 101.101562,494.822266 C100.257808,495.724614 99.0830153,496.175781 97.5771484,496.175781 C96.6337843,496.175781 95.8017614,495.96924 95.0810547,495.556152 C94.360348,495.143064 93.8066426,494.549809 93.4199219,493.776367 C93.0332012,493.002926 92.8398438,492.100591 92.8398438,491.069336 C92.8398438,489.463859 93.2587849,488.215825 94.0966797,487.325195 C94.9345745,486.434566 96.1122971,485.989258 97.6298828,485.989258 C98.5732469,485.989258 99.4052698,486.194334 100.125977,486.604492 C100.846683,487.01465 101.400389,487.603512 101.787109,488.371094 C102.17383,489.138676 102.367188,490.038081 102.367188,491.069336 Z M109.978516,496.175781 C108.824213,496.175781 107.918949,495.75684 107.262695,494.918945 L107.12207,494.918945 C107.215821,495.739262 107.262695,496.213867 107.262695,496.342773 L107.262695,500.324219 L104.582031,500.324219 L104.582031,486.173828 L106.761719,486.173828 L107.139648,487.448242 L107.262695,487.448242 C107.889652,486.475581 108.818353,485.989258 110.048828,485.989258 C111.20899,485.989258 112.117184,486.437496 112.773438,487.333984 C113.429691,488.230473 113.757812,489.475578 113.757812,491.069336 C113.757812,492.118169 113.604005,493.029293 113.296387,493.802734 C112.988768,494.576176 112.550784,495.165037 111.982422,495.569336 C111.41406,495.973635 110.746098,496.175781 109.978516,496.175781 Z M109.1875,488.133789 C108.525387,488.133789 108.041994,488.3374 107.737305,488.744629 C107.432616,489.151858 107.274414,489.824214 107.262695,490.761719 L107.262695,491.051758 C107.262695,492.106451 107.419432,492.862302 107.73291,493.319336 C108.046388,493.776369 108.542965,494.004883 109.222656,494.004883 C110.423834,494.004883 111.024414,493.014658 111.024414,491.03418 C111.024414,490.067378 110.876466,489.342288 110.580566,488.858887 C110.284666,488.375486 109.820316,488.133789 109.1875,488.133789 Z M121.369141,496.175781 C120.214838,496.175781 119.309574,495.75684 118.65332,494.918945 L118.512695,494.918945 C118.606446,495.739262 118.65332,496.213867 118.65332,496.342773 L118.65332,500.324219 L115.972656,500.324219 L115.972656,486.173828 L118.152344,486.173828 L118.530273,487.448242 L118.65332,487.448242 C119.280277,486.475581 120.208978,485.989258 121.439453,485.989258 C122.599615,485.989258 123.507809,486.437496 124.164062,487.333984 C124.820316,488.230473 125.148438,489.475578 125.148438,491.069336 C125.148438,492.118169 124.99463,493.029293 124.687012,493.802734 C124.379393,494.576176 123.941409,495.165037 123.373047,495.569336 C122.804685,495.973635 122.136723,496.175781 121.369141,496.175781 Z M120.578125,488.133789 C119.916012,488.133789 119.432619,488.3374 119.12793,488.744629 C118.823241,489.151858 118.665039,489.824214 118.65332,490.761719 L118.65332,491.051758 C118.65332,492.106451 118.810057,492.862302 119.123535,493.319336 C119.437013,493.776369 119.93359,494.004883 120.613281,494.004883 C121.814459,494.004883 122.415039,493.014658 122.415039,491.03418 C122.415039,490.067378 122.267091,489.342288 121.971191,488.858887 C121.675291,488.375486 121.210941,488.133789 120.578125,488.133789 Z M131.432617,487.896484 C130.864255,487.896484 130.418947,488.076658 130.09668,488.437012 C129.774412,488.797365 129.589844,489.30859 129.542969,489.970703 L133.304688,489.970703 C133.292969,489.30859 133.120119,488.797365 132.786133,488.437012 C132.452147,488.076658 132.000979,487.896484 131.432617,487.896484 Z M131.810547,496.175781 C130.228508,496.175781 128.992192,495.739262 128.101562,494.866211 C127.210933,493.99316 126.765625,492.756844 126.765625,491.157227 C126.765625,489.510734 127.177242,488.237797 128.000488,487.338379 C128.823735,486.43896 129.961907,485.989258 131.415039,485.989258 C132.803718,485.989258 133.884762,486.384762 134.658203,487.175781 C135.431644,487.966801 135.818359,489.059563 135.818359,490.454102 L135.818359,491.754883 L129.481445,491.754883 C129.510742,492.516605 129.736326,493.111326 130.158203,493.539062 C130.58008,493.966799 131.171871,494.180664 131.933594,494.180664 C132.525394,494.180664 133.084958,494.119141 133.612305,493.996094 C134.139651,493.873046 134.690427,493.676759 135.264648,493.407227 L135.264648,495.481445 C134.795896,495.715821 134.294925,495.890136 133.761719,496.004395 C133.228513,496.118653 132.578129,496.175781 131.810547,496.175781 Z M143.482422,485.989258 C143.845705,485.989258 144.14746,486.015625 144.387695,486.068359 L144.185547,488.582031 C143.968749,488.523437 143.70508,488.494141 143.394531,488.494141 C142.539058,488.494141 141.872561,488.713865 141.39502,489.15332 C140.917478,489.592776 140.678711,490.208004 140.678711,490.999023 L140.678711,496 L137.998047,496 L137.998047,486.173828 L140.02832,486.173828 L140.423828,487.826172 L140.555664,487.826172 C140.860353,487.275388 141.27197,486.831545 141.790527,486.494629 C142.309085,486.157713 142.873044,485.989258 143.482422,485.989258 Z M153.027344,493.082031 C153.027344,494.089849 152.67725,494.857419 151.977051,495.384766 C151.276852,495.912112 150.229499,496.175781 148.834961,496.175781 C148.120114,496.175781 147.510745,496.127442 147.006836,496.030762 C146.502927,495.934082 146.031252,495.791993 145.591797,495.604492 L145.591797,493.389648 C146.089846,493.624025 146.650876,493.820312 147.274902,493.978516 C147.898929,494.13672 148.44824,494.21582 148.922852,494.21582 C149.895513,494.21582 150.381836,493.934573 150.381836,493.37207 C150.381836,493.161132 150.317383,492.989747 150.188477,492.85791 C150.05957,492.726074 149.836916,492.576661 149.520508,492.409668 C149.2041,492.242675 148.782229,492.047853 148.254883,491.825195 C147.49902,491.508787 146.943849,491.215822 146.589355,490.946289 C146.234862,490.676756 145.977052,490.367678 145.815918,490.019043 C145.654784,489.670408 145.574219,489.241213 145.574219,488.731445 C145.574219,487.858394 145.912594,487.183108 146.589355,486.705566 C147.266117,486.228025 148.22558,485.989258 149.467773,485.989258 C150.651373,485.989258 151.802729,486.247068 152.921875,486.762695 L152.113281,488.696289 C151.621091,488.485351 151.161135,488.312501 150.733398,488.177734 C150.305662,488.042968 149.869143,487.975586 149.423828,487.975586 C148.632809,487.975586 148.237305,488.189451 148.237305,488.617188 C148.237305,488.857423 148.364745,489.065429 148.619629,489.241211 C148.874513,489.416993 149.432613,489.677733 150.293945,490.023438 C151.061527,490.333986 151.624022,490.624022 151.981445,490.893555 C152.338869,491.163087 152.602538,491.473631 152.772461,491.825195 C152.942384,492.17676 153.027344,492.595701 153.027344,493.082031 Z" id="Non-AfliateShoppers" fill="#025450" fill-rule="nonzero"></path>
                    <path d="M296.41748,474 L295.48584,470.941406 L290.80127,470.941406 L289.869629,474 L286.934082,474 L291.469238,461.097656 L294.800293,461.097656 L299.353027,474 L296.41748,474 Z M294.835449,468.65625 C293.974117,465.884752 293.489258,464.317385 293.380859,463.954102 C293.27246,463.590818 293.194824,463.303712 293.147949,463.092773 C292.954589,463.842777 292.400883,465.697251 291.486816,468.65625 L294.835449,468.65625 Z M306.190918,466.186523 L303.870605,466.186523 L303.870605,474 L301.189941,474 L301.189941,466.186523 L299.713379,466.186523 L299.713379,464.894531 L301.189941,464.173828 L301.189941,463.453125 C301.189941,462.333979 301.465329,461.516604 302.016113,461.000977 C302.566897,460.485349 303.448724,460.227539 304.661621,460.227539 C305.587407,460.227539 306.410641,460.365233 307.131348,460.640625 L306.445801,462.609375 C305.906736,462.439452 305.408694,462.354492 304.95166,462.354492 C304.570799,462.354492 304.295411,462.467284 304.125488,462.692871 C303.955566,462.918458 303.870605,463.207029 303.870605,463.558594 L303.870605,464.173828 L306.190918,464.173828 L306.190918,466.186523 Z M313.160645,466.186523 L310.840332,466.186523 L310.840332,474 L308.159668,474 L308.159668,466.186523 L306.683105,466.186523 L306.683105,464.894531 L308.159668,464.173828 L308.159668,463.453125 C308.159668,462.333979 308.435056,461.516604 308.98584,461.000977 C309.536624,460.485349 310.418451,460.227539 311.631348,460.227539 C312.557134,460.227539 313.380367,460.365233 314.101074,460.640625 L313.415527,462.609375 C312.876462,462.439452 312.37842,462.354492 311.921387,462.354492 C311.540525,462.354492 311.265138,462.467284 311.095215,462.692871 C310.925292,462.918458 310.840332,463.207029 310.840332,463.558594 L310.840332,464.173828 L313.160645,464.173828 L313.160645,466.186523 Z M314.558105,461.633789 C314.558105,460.760738 315.044429,460.324219 316.01709,460.324219 C316.989751,460.324219 317.476074,460.760738 317.476074,461.633789 C317.476074,462.049807 317.354493,462.373534 317.111328,462.60498 C316.868163,462.836427 316.50342,462.952148 316.01709,462.952148 C315.044429,462.952148 314.558105,462.5127 314.558105,461.633789 Z M317.353027,474 L314.672363,474 L314.672363,464.173828 L317.353027,464.173828 L317.353027,474 Z M322.846191,474 L320.165527,474 L320.165527,460.324219 L322.846191,460.324219 L322.846191,474 Z M325.544434,461.633789 C325.544434,460.760738 326.030757,460.324219 327.003418,460.324219 C327.976079,460.324219 328.462402,460.760738 328.462402,461.633789 C328.462402,462.049807 328.340822,462.373534 328.097656,462.60498 C327.854491,462.836427 327.489749,462.952148 327.003418,462.952148 C326.030757,462.952148 325.544434,462.5127 325.544434,461.633789 Z M328.339355,474 L325.658691,474 L325.658691,464.173828 L328.339355,464.173828 L328.339355,474 Z M337.39209,474 L336.873535,472.664062 L336.803223,472.664062 C336.352049,473.232425 335.887698,473.626464 335.410156,473.846191 C334.932615,474.065919 334.310062,474.175781 333.54248,474.175781 C332.599116,474.175781 331.856448,473.906253 331.314453,473.367188 C330.772458,472.828122 330.501465,472.060552 330.501465,471.064453 C330.501465,470.021479 330.866207,469.252444 331.595703,468.757324 C332.325199,468.262205 333.425286,467.988282 334.895996,467.935547 L336.601074,467.882812 L336.601074,467.452148 C336.601074,466.45605 336.091314,465.958008 335.071777,465.958008 C334.286617,465.958008 333.363775,466.19531 332.303223,466.669922 L331.415527,464.859375 C332.546392,464.267575 333.800286,463.97168 335.177246,463.97168 C336.495612,463.97168 337.506344,464.258786 338.209473,464.833008 C338.912601,465.407229 339.26416,466.280268 339.26416,467.452148 L339.26416,474 L337.39209,474 Z M336.601074,469.447266 L335.563965,469.482422 C334.784664,469.505859 334.204592,469.646483 333.82373,469.904297 C333.442869,470.162111 333.252441,470.554685 333.252441,471.082031 C333.252441,471.837894 333.686031,472.21582 334.553223,472.21582 C335.17432,472.21582 335.670897,472.037111 336.042969,471.679688 C336.415041,471.322264 336.601074,470.847659 336.601074,470.255859 L336.601074,469.447266 Z M346.163574,472.040039 C346.632327,472.040039 347.194821,471.937501 347.851074,471.732422 L347.851074,473.727539 C347.183102,474.026369 346.362798,474.175781 345.390137,474.175781 C344.317866,474.175781 343.537112,473.904788 343.047852,473.362793 C342.558591,472.820798 342.313965,472.007818 342.313965,470.923828 L342.313965,466.186523 L341.030762,466.186523 L341.030762,465.052734 L342.507324,464.15625 L343.280762,462.082031 L344.994629,462.082031 L344.994629,464.173828 L347.745605,464.173828 L347.745605,466.186523 L344.994629,466.186523 L344.994629,470.923828 C344.994629,471.304689 345.101561,471.585937 345.31543,471.767578 C345.529298,471.94922 345.81201,472.040039 346.163574,472.040039 Z M353.906738,465.896484 C353.338376,465.896484 352.893068,466.076658 352.570801,466.437012 C352.248534,466.797365 352.063965,467.30859 352.01709,467.970703 L355.778809,467.970703 C355.76709,467.30859 355.59424,466.797365 355.260254,466.437012 C354.926268,466.076658 354.4751,465.896484 353.906738,465.896484 Z M354.284668,474.175781 C352.702629,474.175781 351.466313,473.739262 350.575684,472.866211 C349.685054,471.99316 349.239746,470.756844 349.239746,469.157227 C349.239746,467.510734 349.651363,466.237797 350.474609,465.338379 C351.297856,464.43896 352.436028,463.989258 353.88916,463.989258 C355.277839,463.989258 356.358883,464.384762 357.132324,465.175781 C357.905766,465.966801 358.29248,467.059563 358.29248,468.454102 L358.29248,469.754883 L351.955566,469.754883 C351.984863,470.516605 352.210447,471.111326 352.632324,471.539062 C353.054201,471.966799 353.645992,472.180664 354.407715,472.180664 C354.999515,472.180664 355.559079,472.119141 356.086426,471.996094 C356.613772,471.873046 357.164548,471.676759 357.73877,471.407227 L357.73877,473.481445 C357.270017,473.715821 356.769046,473.890136 356.23584,474.004395 C355.702634,474.118653 355.05225,474.175781 354.284668,474.175781 Z M290.489258,492.431641 C290.489258,493.591803 290.071782,494.505856 289.236816,495.173828 C288.401851,495.8418 287.240242,496.175781 285.751953,496.175781 C284.380853,496.175781 283.167974,495.917971 282.113281,495.402344 L282.113281,492.871094 C282.980473,493.257814 283.714352,493.530273 284.314941,493.688477 C284.91553,493.84668 285.464841,493.925781 285.962891,493.925781 C286.56055,493.925781 287.019041,493.811525 287.338379,493.583008 C287.657716,493.354491 287.817383,493.014651 287.817383,492.563477 C287.817383,492.311522 287.747071,492.087403 287.606445,491.891113 C287.46582,491.694823 287.259279,491.50586 286.986816,491.324219 C286.714354,491.142577 286.159184,490.852541 285.321289,490.454102 C284.536129,490.084959 283.947268,489.73047 283.554688,489.390625 C283.162107,489.05078 282.848634,488.655276 282.614258,488.204102 C282.379882,487.752927 282.262695,487.225589 282.262695,486.62207 C282.262695,485.485346 282.647945,484.5918 283.418457,483.941406 C284.188969,483.291012 285.253899,482.96582 286.613281,482.96582 C287.281253,482.96582 287.918454,483.044921 288.524902,483.203125 C289.131351,483.361329 289.765622,483.583983 290.427734,483.871094 L289.548828,485.989258 C288.863278,485.708006 288.296389,485.511719 287.848145,485.400391 C287.3999,485.289062 286.958987,485.233398 286.525391,485.233398 C286.009763,485.233398 285.614259,485.353514 285.338867,485.59375 C285.063475,485.833986 284.925781,486.147459 284.925781,486.53418 C284.925781,486.774415 284.981445,486.983886 285.092773,487.162598 C285.204102,487.341309 285.381346,487.514159 285.624512,487.681152 C285.867677,487.848145 286.443355,488.148435 287.351562,488.582031 C288.55274,489.156253 289.375974,489.731931 289.821289,490.309082 C290.266604,490.886233 290.489258,491.593746 290.489258,492.431641 Z M301.677734,496 L298.99707,496 L298.99707,490.260742 C298.99707,488.842766 298.469732,488.133789 297.415039,488.133789 C296.665035,488.133789 296.123049,488.388669 295.789062,488.898438 C295.455076,489.408206 295.288086,490.234369 295.288086,491.376953 L295.288086,496 L292.607422,496 L292.607422,482.324219 L295.288086,482.324219 L295.288086,485.110352 C295.288086,485.32715 295.267578,485.83691 295.226562,486.639648 L295.165039,487.430664 L295.305664,487.430664 C295.903323,486.469722 296.852533,485.989258 298.15332,485.989258 C299.307623,485.989258 300.183591,486.299802 300.78125,486.920898 C301.378909,487.541995 301.677734,488.432611 301.677734,489.592773 L301.677734,496 Z M306.573242,491.069336 C306.573242,492.041997 306.732909,492.777341 307.052246,493.275391 C307.371584,493.77344 307.891598,494.022461 308.612305,494.022461 C309.327152,494.022461 309.841307,493.774905 310.154785,493.279785 C310.468263,492.784665 310.625,492.047856 310.625,491.069336 C310.625,490.096675 310.466798,489.36719 310.150391,488.880859 C309.833983,488.394529 309.315433,488.151367 308.594727,488.151367 C307.879879,488.151367 307.364259,488.393064 307.047852,488.876465 C306.731444,489.359866 306.573242,490.090815 306.573242,491.069336 Z M313.367188,491.069336 C313.367188,492.668953 312.945317,493.919917 312.101562,494.822266 C311.257808,495.724614 310.083015,496.175781 308.577148,496.175781 C307.633784,496.175781 306.801761,495.96924 306.081055,495.556152 C305.360348,495.143064 304.806643,494.549809 304.419922,493.776367 C304.033201,493.002926 303.839844,492.100591 303.839844,491.069336 C303.839844,489.463859 304.258785,488.215825 305.09668,487.325195 C305.934575,486.434566 307.112297,485.989258 308.629883,485.989258 C309.573247,485.989258 310.40527,486.194334 311.125977,486.604492 C311.846683,487.01465 312.400389,487.603512 312.787109,488.371094 C313.17383,489.138676 313.367188,490.038081 313.367188,491.069336 Z M320.978516,496.175781 C319.824213,496.175781 318.918949,495.75684 318.262695,494.918945 L318.12207,494.918945 C318.215821,495.739262 318.262695,496.213867 318.262695,496.342773 L318.262695,500.324219 L315.582031,500.324219 L315.582031,486.173828 L317.761719,486.173828 L318.139648,487.448242 L318.262695,487.448242 C318.889652,486.475581 319.818353,485.989258 321.048828,485.989258 C322.20899,485.989258 323.117184,486.437496 323.773438,487.333984 C324.429691,488.230473 324.757812,489.475578 324.757812,491.069336 C324.757812,492.118169 324.604005,493.029293 324.296387,493.802734 C323.988768,494.576176 323.550784,495.165037 322.982422,495.569336 C322.41406,495.973635 321.746098,496.175781 320.978516,496.175781 Z M320.1875,488.133789 C319.525387,488.133789 319.041994,488.3374 318.737305,488.744629 C318.432616,489.151858 318.274414,489.824214 318.262695,490.761719 L318.262695,491.051758 C318.262695,492.106451 318.419432,492.862302 318.73291,493.319336 C319.046388,493.776369 319.542965,494.004883 320.222656,494.004883 C321.423834,494.004883 322.024414,493.014658 322.024414,491.03418 C322.024414,490.067378 321.876466,489.342288 321.580566,488.858887 C321.284666,488.375486 320.820316,488.133789 320.1875,488.133789 Z M332.369141,496.175781 C331.214838,496.175781 330.309574,495.75684 329.65332,494.918945 L329.512695,494.918945 C329.606446,495.739262 329.65332,496.213867 329.65332,496.342773 L329.65332,500.324219 L326.972656,500.324219 L326.972656,486.173828 L329.152344,486.173828 L329.530273,487.448242 L329.65332,487.448242 C330.280277,486.475581 331.208978,485.989258 332.439453,485.989258 C333.599615,485.989258 334.507809,486.437496 335.164062,487.333984 C335.820316,488.230473 336.148438,489.475578 336.148438,491.069336 C336.148438,492.118169 335.99463,493.029293 335.687012,493.802734 C335.379393,494.576176 334.941409,495.165037 334.373047,495.569336 C333.804685,495.973635 333.136723,496.175781 332.369141,496.175781 Z M331.578125,488.133789 C330.916012,488.133789 330.432619,488.3374 330.12793,488.744629 C329.823241,489.151858 329.665039,489.824214 329.65332,490.761719 L329.65332,491.051758 C329.65332,492.106451 329.810057,492.862302 330.123535,493.319336 C330.437013,493.776369 330.93359,494.004883 331.613281,494.004883 C332.814459,494.004883 333.415039,493.014658 333.415039,491.03418 C333.415039,490.067378 333.267091,489.342288 332.971191,488.858887 C332.675291,488.375486 332.210941,488.133789 331.578125,488.133789 Z M342.432617,487.896484 C341.864255,487.896484 341.418947,488.076658 341.09668,488.437012 C340.774412,488.797365 340.589844,489.30859 340.542969,489.970703 L344.304688,489.970703 C344.292969,489.30859 344.120119,488.797365 343.786133,488.437012 C343.452147,488.076658 343.000979,487.896484 342.432617,487.896484 Z M342.810547,496.175781 C341.228508,496.175781 339.992192,495.739262 339.101562,494.866211 C338.210933,493.99316 337.765625,492.756844 337.765625,491.157227 C337.765625,489.510734 338.177242,488.237797 339.000488,487.338379 C339.823735,486.43896 340.961907,485.989258 342.415039,485.989258 C343.803718,485.989258 344.884762,486.384762 345.658203,487.175781 C346.431644,487.966801 346.818359,489.059563 346.818359,490.454102 L346.818359,491.754883 L340.481445,491.754883 C340.510742,492.516605 340.736326,493.111326 341.158203,493.539062 C341.58008,493.966799 342.171871,494.180664 342.933594,494.180664 C343.525394,494.180664 344.084958,494.119141 344.612305,493.996094 C345.139651,493.873046 345.690427,493.676759 346.264648,493.407227 L346.264648,495.481445 C345.795896,495.715821 345.294925,495.890136 344.761719,496.004395 C344.228513,496.118653 343.578129,496.175781 342.810547,496.175781 Z M354.482422,485.989258 C354.845705,485.989258 355.14746,486.015625 355.387695,486.068359 L355.185547,488.582031 C354.968749,488.523437 354.70508,488.494141 354.394531,488.494141 C353.539058,488.494141 352.872561,488.713865 352.39502,489.15332 C351.917478,489.592776 351.678711,490.208004 351.678711,490.999023 L351.678711,496 L348.998047,496 L348.998047,486.173828 L351.02832,486.173828 L351.423828,487.826172 L351.555664,487.826172 C351.860353,487.275388 352.27197,486.831545 352.790527,486.494629 C353.309085,486.157713 353.873044,485.989258 354.482422,485.989258 Z M364.027344,493.082031 C364.027344,494.089849 363.67725,494.857419 362.977051,495.384766 C362.276852,495.912112 361.229499,496.175781 359.834961,496.175781 C359.120114,496.175781 358.510745,496.127442 358.006836,496.030762 C357.502927,495.934082 357.031252,495.791993 356.591797,495.604492 L356.591797,493.389648 C357.089846,493.624025 357.650876,493.820312 358.274902,493.978516 C358.898929,494.13672 359.44824,494.21582 359.922852,494.21582 C360.895513,494.21582 361.381836,493.934573 361.381836,493.37207 C361.381836,493.161132 361.317383,492.989747 361.188477,492.85791 C361.05957,492.726074 360.836916,492.576661 360.520508,492.409668 C360.2041,492.242675 359.782229,492.047853 359.254883,491.825195 C358.49902,491.508787 357.943849,491.215822 357.589355,490.946289 C357.234862,490.676756 356.977052,490.367678 356.815918,490.019043 C356.654784,489.670408 356.574219,489.241213 356.574219,488.731445 C356.574219,487.858394 356.912594,487.183108 357.589355,486.705566 C358.266117,486.228025 359.22558,485.989258 360.467773,485.989258 C361.651373,485.989258 362.802729,486.247068 363.921875,486.762695 L363.113281,488.696289 C362.621091,488.485351 362.161135,488.312501 361.733398,488.177734 C361.305662,488.042968 360.869143,487.975586 360.423828,487.975586 C359.632809,487.975586 359.237305,488.189451 359.237305,488.617188 C359.237305,488.857423 359.364745,489.065429 359.619629,489.241211 C359.874513,489.416993 360.432613,489.677733 361.293945,490.023438 C362.061527,490.333986 362.624022,490.624022 362.981445,490.893555 C363.338869,491.163087 363.602538,491.473631 363.772461,491.825195 C363.942384,492.17676 364.027344,492.595701 364.027344,493.082031 Z" id="AfliateShoppers" fill="#025450" fill-rule="nonzero"></path>
                </g>
            </g>
        </g>
    </g>
</svg>