<?xml version="1.0" encoding="UTF-8"?>
<svg width="924px" height="538px" viewBox="0 0 924 538" version="1.1" xmlns="http://www.w3.org/2000/svg" xmlns:xlink="http://www.w3.org/1999/xlink">
    <!-- Generator: Sketch 55.2 (78181) - https://sketchapp.com -->
    <title>Group 14</title>
    <desc>Created with Sketch.</desc>
    <defs>
        <linearGradient x1="0%" y1="69.0683463%" x2="100%" y2="69.0683484%" id="linearGradient-1">
            <stop stop-color="#A5DDEF" offset="0%"></stop>
            <stop stop-color="#49C5B1" offset="100%"></stop>
        </linearGradient>
        <linearGradient x1="0%" y1="69.0683463%" x2="100%" y2="69.0683484%" id="linearGradient-2">
            <stop stop-color="#A5DDEF" stop-opacity="0.3026934" offset="0%"></stop>
            <stop stop-color="#42BFB6" stop-opacity="0.497951267" offset="98.3926309%"></stop>
        </linearGradient>
        <linearGradient x1="0%" y1="50%" x2="100%" y2="50%" id="linearGradient-3">
            <stop stop-color="#A5DDEF" offset="0%"></stop>
            <stop stop-color="#5575C4" offset="100%"></stop>
        </linearGradient>
    </defs>
    <g id="translations" stroke="none" stroke-width="1" fill="none" fill-rule="evenodd">
        <g id="UK-2021" transform="translate(-107.000000, -119.000000)">
            <g id="Group-14" transform="translate(106.000000, 119.000000)">
                <g id="Group" transform="translate(0.447826, 0.000000)">
                    <g id="Group-2" transform="translate(0.552174, 0.000000)">
                        <polygon id="Line-3" fill="#EBEBEB" fill-rule="nonzero" points="36.744 30.3877058 36.744 506.499374 38.744 506.499374 38.744 30.3877058"></polygon>
                        <polygon id="Line-3" fill="#EBEBEB" fill-rule="nonzero" points="199.544 30.3877058 199.544 506.499374 201.544 506.499374 201.544 30.3877058"></polygon>
                        <polygon id="Line-3" fill="#EBEBEB" fill-rule="nonzero" points="362.344 30.3877058 362.344 506.499374 364.344 506.499374 364.344 30.3877058"></polygon>
                        <polygon id="Line-3" fill="#EBEBEB" fill-rule="nonzero" points="525.144 30.3877058 525.144 506.499374 527.144 506.499374 527.144 30.3877058"></polygon>
                        <polygon id="Line-3" fill="#EBEBEB" fill-rule="nonzero" points="687.944 30.3877058 687.944 506.499374 689.944 506.499374 689.944 30.3877058"></polygon>
                        <polygon id="Line-3-Copy" fill="#EBEBEB" fill-rule="nonzero" points="850.744 30.3877058 850.744 506.499374 852.744 506.499374 852.744 30.3877058"></polygon>
                        <polygon id="Line-Copy-5" fill="#EBEBEB" fill-rule="nonzero" points="26.6918261 496.876953 852.218552 496.876953 852.218552 494.876953 26.6918261 494.876953"></polygon>
                        <polygon id="Line" fill="#EBEBEB" fill-rule="nonzero" points="26.6918261 403.876953 852.218552 403.876953 852.218552 401.876953 26.6918261 401.876953"></polygon>
                        <polygon id="Line-Copy" fill="#EBEBEB" fill-rule="nonzero" points="26.6918261 310.876953 852.218552 310.876953 852.218552 308.876953 26.6918261 308.876953"></polygon>
                        <polygon id="Line-Copy-2" fill="#EBEBEB" fill-rule="nonzero" points="26.6918261 217.876953 852.218552 217.876953 852.218552 215.876953 26.6918261 215.876953"></polygon>
                        <polygon id="Line-Copy-3" fill="#EBEBEB" fill-rule="nonzero" points="26.6918261 124.876953 852.218552 124.876953 852.218552 122.876953 26.6918261 122.876953"></polygon>
                        <polygon id="Line-Copy-4" fill="#EBEBEB" fill-rule="nonzero" points="26.6918261 31.8769531 852.218552 31.8769531 852.218552 29.8769531 26.6918261 29.8769531"></polygon>
                        <path d="M688.334464,199.149038 L688.4959,199.080743 L688.413684,199.11135 L688.334464,199.149038 Z M525.661027,259.699419 L362.759263,316.751021 L200.224201,356.296802 L36.9446196,381.016675 L37.5433804,384.971607 L200.910437,360.238491 L201.083875,360.204332 L363.800396,320.614401 L363.988654,320.558679 L527.019864,263.461338 L689.89142,202.829413 L690.052856,202.761118 L852.071946,125.682993 L850.353554,122.070913 L688.413684,199.11135 L525.661027,259.699419 Z M362.666501,316.783509 L362.854759,316.727787 L362.759263,316.751021 L362.666501,316.783509 Z" id="Path-4" fill="url(#linearGradient-1)" fill-rule="nonzero"></path>
                        <path d="M873.607633,325.507596 L874.265563,324.754517 C874.992292,323.922689 874.907092,322.659228 874.075264,321.932499 C873.243436,321.20577 871.979975,321.29097 871.253246,322.122798 L870.595316,322.875877 C869.868587,323.707706 869.953787,324.971166 870.785615,325.697895 C871.617444,326.424625 872.880904,326.339425 873.607633,325.507596 Z M880.186931,317.976803 L880.844861,317.223724 C881.57159,316.391895 881.48639,315.128435 880.654561,314.401706 C879.822733,313.674977 878.559272,313.760176 877.832543,314.592005 L877.174614,315.345084 C876.447884,316.176913 876.533084,317.440373 877.364913,318.167102 C878.196741,318.893831 879.460202,318.808632 880.186931,317.976803 Z M886.766228,310.44601 L887.424158,309.692931 C888.150887,308.861102 888.065687,307.597642 887.233859,306.870913 C886.402031,306.144184 885.13857,306.229383 884.411841,307.061212 L883.753911,307.814291 C883.027182,308.64612 883.112382,309.90958 883.94421,310.636309 C884.776039,311.363038 886.039499,311.277839 886.766228,310.44601 Z M893.345526,302.915217 L894.003456,302.162138 C894.730185,301.330309 894.644985,300.066849 893.813156,299.34012 C892.981328,298.61339 891.717867,298.69859 890.991138,299.530419 L890.333209,300.283498 C889.606479,301.115326 889.691679,302.378787 890.523508,303.105516 C891.355336,303.832245 892.618797,303.747045 893.345526,302.915217 Z M899.924823,295.384424 L900.582753,294.631345 C901.309482,293.799516 901.224282,292.536056 900.392454,291.809326 C899.560625,291.082597 898.297165,291.167797 897.570436,291.999626 L896.912506,292.752705 C896.185777,293.584533 896.270977,294.847994 897.102805,295.574723 C897.934634,296.301452 899.198094,296.216252 899.924823,295.384424 Z M906.504121,287.853631 L907.16205,287.100552 C907.88878,286.268723 907.80358,285.005263 906.971751,284.278533 C906.139923,283.551804 904.876462,283.637004 904.149733,284.468833 L903.491803,285.221912 C902.765074,286.05374 902.850274,287.317201 903.682103,288.04393 C904.513931,288.770659 905.777392,288.685459 906.504121,287.853631 Z" id="Path-3" fill="#5575C4" fill-rule="nonzero" transform="translate(888.878683, 304.988214) rotate(221.000000) translate(-888.878683, -304.988214) "></path>
                        <path d="M864.095183,119.826952 L864.9029,119.237381 C865.795079,118.586159 865.990414,117.334985 865.339193,116.442806 C864.687971,115.550627 863.436797,115.355292 862.544618,116.006514 L861.736901,116.596084 C860.844721,117.247306 860.649387,118.49848 861.300608,119.390659 C861.95183,120.282838 863.203004,120.478173 864.095183,119.826952 Z M872.172352,113.931246 L872.980069,113.341675 C873.872248,112.690453 874.067583,111.439279 873.416361,110.5471 C872.765139,109.654921 871.513966,109.459586 870.621786,110.110808 L869.814069,110.700378 C868.92189,111.3516 868.726555,112.602774 869.377777,113.494953 C870.028998,114.387132 871.280172,114.582467 872.172352,113.931246 Z M880.24952,108.03554 L881.057237,107.445969 C881.949416,106.794747 882.144751,105.543573 881.493529,104.651394 C880.842308,103.759215 879.591134,103.56388 878.698955,104.215102 L877.891238,104.804672 C876.999058,105.455894 876.803724,106.707068 877.454945,107.599247 C878.106167,108.491426 879.357341,108.686761 880.24952,108.03554 Z M888.326689,102.139833 L889.134405,101.550263 C890.026585,100.899041 890.22192,99.6478674 889.570698,98.755688 C888.919476,97.8635086 887.668302,97.6681738 886.776123,98.3193955 L885.968406,98.9089661 C885.076227,99.5601878 884.880892,100.811362 885.532114,101.703541 C886.183335,102.59572 887.434509,102.791055 888.326689,102.139833 Z M896.403857,96.2441274 L897.211574,95.6545568 C898.103753,95.0033351 898.299088,93.7521613 897.647866,92.8599819 C896.996645,91.9678025 895.745471,91.7724677 894.853292,92.4236895 L894.045575,93.0132601 C893.153395,93.6644818 892.95806,94.9156556 893.609282,95.807835 C894.260504,96.7000143 895.511678,96.8953491 896.403857,96.2441274 Z M904.481026,90.3484214 L905.288742,89.7588508 C906.180922,89.1076291 906.376257,87.8564553 905.725035,86.9642759 C905.073813,86.0720965 903.822639,85.8767617 902.93046,86.5279834 L902.122743,87.117554 C901.230564,87.7687757 901.035229,89.0199495 901.686451,89.9121289 C902.337672,90.8043083 903.588846,90.9996431 904.481026,90.3484214 Z M912.558194,84.4527154 L913.365911,83.8631448 C914.25809,83.2119231 914.453425,81.9607493 913.802203,81.0685699 C913.150982,80.1763905 911.899808,79.9810557 911.007628,80.6322774 L910.199912,81.221848 C909.307732,81.8730697 909.112397,83.1242435 909.763619,84.0164229 C910.414841,84.9086023 911.666015,85.1039371 912.558194,84.4527154 Z" id="Path-3" fill="#42BFB6" fill-rule="nonzero" transform="translate(887.551406, 100.229614) rotate(3.000000) translate(-887.551406, -100.229614) "></path>
                        <path d="M63.0320859,9.87695312 L61.3816953,9.87695312 L59.8074766,4.34179688 C59.7397679,4.10058473 59.6551333,3.75252506 59.5535703,3.29760742 C59.4520073,2.84268978 59.3906472,2.52636808 59.3694883,2.34863281 C59.3271704,2.6194675 59.2584048,2.97070097 59.1631895,3.40234375 C59.0679741,3.83398653 58.9886292,4.1555979 58.9251523,4.3671875 L57.3890195,9.87695312 L55.7386289,9.87695312 L54.5389219,5.23046875 L53.3201719,0.596679688 L54.869,0.596679688 L56.1956602,6.00488281 C56.403018,6.87240017 56.5511285,7.63834303 56.6399961,8.30273438 C56.6865458,7.94303206 56.7563693,7.54101785 56.8494688,7.09667969 C56.9425682,6.65234153 57.0272027,6.2926446 57.103375,6.01757812 L58.6141172,0.596679688 L60.1185117,0.596679688 L61.6673398,6.04296875 C61.8154526,6.546552 61.9720265,7.29979967 62.1370664,8.30273438 C62.2005433,7.69758812 62.3528855,6.92741353 62.5940977,5.9921875 L63.9144102,0.596679688 L65.450543,0.596679688 L63.0320859,9.87695312 Z M68.0975156,9.87695312 L66.6058164,9.87695312 L66.6058164,2.85644531 L68.0975156,2.85644531 L68.0975156,9.87695312 Z M66.5169492,0.996582031 C66.5169492,0.729979136 66.5899465,0.524740303 66.7359434,0.380859375 C66.8819402,0.236978447 67.0903528,0.165039062 67.3611875,0.165039062 C67.6235586,0.165039062 67.8277395,0.236978447 67.9737363,0.380859375 C68.1197332,0.524740303 68.1927305,0.729979136 68.1927305,0.996582031 C68.1927305,1.25048955 68.1197332,1.45043872 67.9737363,1.59643555 C67.8277395,1.74243237 67.6235586,1.81542969 67.3611875,1.81542969 C67.0903528,1.81542969 66.8819402,1.74243237 66.7359434,1.59643555 C66.5899465,1.45043872 66.5169492,1.25048955 66.5169492,0.996582031 Z M72.8455625,8.79785156 C73.2094966,8.79785156 73.5734253,8.74072323 73.9373594,8.62646484 L73.9373594,9.75 C73.7723195,9.82194046 73.5596751,9.8822426 73.2994199,9.9309082 C73.0391647,9.97957381 72.769392,10.0039062 72.4900938,10.0039062 C71.0766752,10.0039062 70.3699766,9.25912203 70.3699766,7.76953125 L70.3699766,3.98632812 L69.4114805,3.98632812 L69.4114805,3.32617188 L70.4398008,2.78027344 L70.9476133,1.29492188 L71.8680234,1.29492188 L71.8680234,2.85644531 L73.8675352,2.85644531 L73.8675352,3.98632812 L71.8680234,3.98632812 L71.8680234,7.74414062 C71.8680234,8.10384294 71.9579477,8.36938391 72.1377988,8.54077148 C72.31765,8.71215906 72.5535689,8.79785156 72.8455625,8.79785156 Z M81.5164609,9.87695312 L80.0184141,9.87695312 L80.0184141,5.56054688 C80.0184141,5.0188775 79.9094471,4.61474743 79.6915098,4.34814453 C79.4735725,4.08154164 79.1276287,3.94824219 78.653668,3.94824219 C78.0273628,3.94824219 77.5671623,4.13549617 77.2730527,4.51000977 C76.9789432,4.88452336 76.8318906,5.51187711 76.8318906,6.39208984 L76.8318906,9.87695312 L75.3401914,9.87695312 L75.3401914,0 L76.8318906,0 L76.8318906,2.50732422 C76.8318906,2.90934446 76.8065003,3.3388649 76.7557188,3.79589844 L76.8509336,3.79589844 C77.0540596,3.45735508 77.3365275,3.19498791 77.6983457,3.00878906 C78.0601639,2.82259021 78.4822788,2.72949219 78.9647031,2.72949219 C80.6658835,2.72949219 81.5164609,3.58641721 81.5164609,5.30029297 L81.5164609,9.87695312 Z M93.2723203,3.40234375 C93.2723203,4.37142412 92.9549407,5.11409247 92.3201719,5.63037109 C91.6854031,6.14664972 90.781929,6.40478516 89.6097227,6.40478516 L88.6448789,6.40478516 L88.6448789,9.87695312 L87.1277891,9.87695312 L87.1277891,0.596679688 L89.8001523,0.596679688 C90.9596633,0.596679688 91.8282256,0.833656484 92.4058652,1.30761719 C92.9835048,1.78157789 93.2723203,2.4798131 93.2723203,3.40234375 Z M88.6448789,5.12890625 L89.4510313,5.12890625 C90.229681,5.12890625 90.8009643,4.99349094 91.1648984,4.72265625 C91.5288325,4.45182156 91.7107969,4.02864871 91.7107969,3.453125 C91.7107969,2.91991921 91.5478753,2.52213673 91.2220273,2.25976562 C90.8961794,1.99739452 90.3883719,1.86621094 89.6985898,1.86621094 L88.6448789,1.86621094 L88.6448789,5.12890625 Z M99.3597227,9.87695312 L99.0613828,8.89941406 L99.0106016,8.89941406 C98.6720582,9.32682505 98.3314041,9.61775639 97.9886289,9.7722168 C97.6458538,9.9266772 97.205754,10.0039062 96.6683164,10.0039062 C95.9785343,10.0039062 95.4400469,9.8177102 95.0528379,9.4453125 C94.6656289,9.0729148 94.4720273,8.5460646 94.4720273,7.86474609 C94.4720273,7.14110966 94.7407421,6.59521668 95.2781797,6.22705078 C95.8156173,5.85888488 96.6344567,5.65787777 97.7347227,5.62402344 L98.947125,5.5859375 L98.947125,5.21142578 C98.947125,4.76285583 98.8423897,4.42749135 98.632916,4.20532227 C98.4234423,3.98315319 98.0986571,3.87207031 97.6585508,3.87207031 C97.2988485,3.87207031 96.9539626,3.92496692 96.6238828,4.03076172 C96.293803,4.13655652 95.9764234,4.26139251 95.6717344,4.40527344 L95.1893125,3.33886719 C95.5701738,3.13997296 95.986999,2.98868867 96.4398008,2.88500977 C96.8926025,2.78133086 97.3200071,2.72949219 97.7220273,2.72949219 C98.6149355,2.72949219 99.2888382,2.9241517 99.7437559,3.31347656 C100.198673,3.70280143 100.426129,4.3142862 100.426129,5.14794922 L100.426129,9.87695312 L99.3597227,9.87695312 Z M97.138043,8.86132812 C97.6797123,8.86132812 98.1145224,8.71004383 98.4424863,8.4074707 C98.7704502,8.10489758 98.9344297,7.68066679 98.9344297,7.13476562 L98.9344297,6.52539062 L98.0330625,6.56347656 C97.330585,6.58886731 96.8196038,6.70629778 96.5001035,6.91577148 C96.1806032,7.12524519 96.0208555,7.44579862 96.0208555,7.87744141 C96.0208555,8.19059401 96.1139535,8.43286047 96.3001523,8.60424805 C96.4863512,8.77563562 96.7656453,8.86132812 97.138043,8.86132812 Z M106.069195,2.72949219 C106.369653,2.72949219 106.617209,2.75065083 106.811871,2.79296875 L106.665875,4.18310547 C106.454285,4.13232396 106.234236,4.10693359 106.005719,4.10693359 C105.409036,4.10693359 104.925561,4.30159311 104.555279,4.69091797 C104.184997,5.08024283 103.999859,5.58593439 103.999859,6.20800781 L103.999859,9.87695312 L102.50816,9.87695312 L102.50816,2.85644531 L103.676129,2.85644531 L103.872906,4.09423828 L103.949078,4.09423828 C104.181827,3.67529087 104.485453,3.34310019 104.859967,3.09765625 C105.23448,2.85221231 105.637553,2.72949219 106.069195,2.72949219 Z M110.728375,8.79785156 C111.092309,8.79785156 111.456238,8.74072323 111.820172,8.62646484 L111.820172,9.75 C111.655132,9.82194046 111.442488,9.8822426 111.182232,9.9309082 C110.921977,9.97957381 110.652205,10.0039062 110.372906,10.0039062 C108.959488,10.0039062 108.252789,9.25912203 108.252789,7.76953125 L108.252789,3.98632812 L107.294293,3.98632812 L107.294293,3.32617188 L108.322613,2.78027344 L108.830426,1.29492188 L109.750836,1.29492188 L109.750836,2.85644531 L111.750348,2.85644531 L111.750348,3.98632812 L109.750836,3.98632812 L109.750836,7.74414062 C109.750836,8.10384294 109.84076,8.36938391 110.020611,8.54077148 C110.200462,8.71215906 110.436381,8.79785156 110.728375,8.79785156 Z M119.399273,9.87695312 L117.901227,9.87695312 L117.901227,5.56054688 C117.901227,5.0188775 117.79226,4.61474743 117.574322,4.34814453 C117.356385,4.08154164 117.010441,3.94824219 116.53648,3.94824219 C115.905943,3.94824219 115.444685,4.13443824 115.152691,4.50683594 C114.860698,4.87923363 114.714703,5.50341359 114.714703,6.37939453 L114.714703,9.87695312 L113.223004,9.87695312 L113.223004,2.85644531 L114.390973,2.85644531 L114.600445,3.77685547 L114.676617,3.77685547 C114.888207,3.4425439 115.18866,3.18440846 115.577984,3.00244141 C115.967309,2.82047435 116.398946,2.72949219 116.872906,2.72949219 C118.557159,2.72949219 119.399273,3.58641721 119.399273,5.30029297 L119.399273,9.87695312 Z M124.540875,10.0039062 C123.449073,10.0039062 122.595321,9.68546868 121.979596,9.04858398 C121.36387,8.41169929 121.056012,7.53467355 121.056012,6.41748047 C121.056012,5.27066484 121.341653,4.36930667 121.912945,3.71337891 C122.484237,3.05745115 123.269223,2.72949219 124.267926,2.72949219 C125.194688,2.72949219 125.926777,3.01090213 126.464215,3.57373047 C127.001652,4.1365588 127.270367,4.91096512 127.270367,5.89697266 L127.270367,6.703125 L122.592145,6.703125 C122.613303,7.38444351 122.797384,7.90811991 123.144391,8.27416992 C123.491398,8.64021993 123.980162,8.82324219 124.610699,8.82324219 C125.025415,8.82324219 125.41156,8.7840987 125.769146,8.70581055 C126.126733,8.6275224 126.510762,8.49739674 126.921246,8.31542969 L126.921246,9.52783203 C126.557312,9.7013355 126.189152,9.82405563 125.816754,9.89599609 C125.444356,9.96793656 125.019067,10.0039062 124.540875,10.0039062 Z M124.267926,3.859375 C123.793965,3.859375 123.414167,4.00960136 123.128521,4.31005859 C122.842876,4.61051583 122.672548,5.04849973 122.617535,5.62402344 L125.804059,5.62402344 C125.795595,5.04426793 125.655948,4.6052261 125.385113,4.30688477 C125.114279,4.00854343 124.741886,3.859375 124.267926,3.859375 Z M132.526227,2.72949219 C132.826684,2.72949219 133.07424,2.75065083 133.268902,2.79296875 L133.122906,4.18310547 C132.911317,4.13232396 132.691267,4.10693359 132.46275,4.10693359 C131.866067,4.10693359 131.382592,4.30159311 131.012311,4.69091797 C130.642029,5.08024283 130.456891,5.58593439 130.456891,6.20800781 L130.456891,9.87695312 L128.965191,9.87695312 L128.965191,2.85644531 L130.13316,2.85644531 L130.329938,4.09423828 L130.406109,4.09423828 C130.638858,3.67529087 130.942484,3.34310019 131.316998,3.09765625 C131.691512,2.85221231 132.094584,2.72949219 132.526227,2.72949219 Z M139.622906,4.91308594 L140.676617,4.91308594 C141.383326,4.91308594 141.895366,4.78190235 142.21275,4.51953125 C142.530134,4.25716015 142.688824,3.86784112 142.688824,3.3515625 C142.688824,2.82682029 142.517439,2.45019646 142.174664,2.22167969 C141.831889,1.99316292 141.315618,1.87890625 140.625836,1.87890625 L139.622906,1.87890625 L139.622906,4.91308594 Z M139.622906,6.16992187 L139.622906,9.87695312 L138.105816,9.87695312 L138.105816,0.596679688 L140.727398,0.596679688 C141.924996,0.596679688 142.811543,0.820961299 143.387066,1.26953125 C143.96259,1.7181012 144.250348,2.39517776 144.250348,3.30078125 C144.250348,4.45606046 143.649442,5.27913166 142.447613,5.77001953 L145.069195,9.87695312 L143.342633,9.87695312 L141.120953,6.16992187 L139.622906,6.16992187 Z M149.322125,10.0039062 C148.230323,10.0039062 147.376571,9.68546868 146.760846,9.04858398 C146.14512,8.41169929 145.837262,7.53467355 145.837262,6.41748047 C145.837262,5.27066484 146.122903,4.36930667 146.694195,3.71337891 C147.265487,3.05745115 148.050473,2.72949219 149.049176,2.72949219 C149.975938,2.72949219 150.708027,3.01090213 151.245465,3.57373047 C151.782902,4.1365588 152.051617,4.91096512 152.051617,5.89697266 L152.051617,6.703125 L147.373395,6.703125 C147.394553,7.38444351 147.578634,7.90811991 147.925641,8.27416992 C148.272648,8.64021993 148.761412,8.82324219 149.391949,8.82324219 C149.806665,8.82324219 150.19281,8.7840987 150.550396,8.70581055 C150.907983,8.6275224 151.292012,8.49739674 151.702496,8.31542969 L151.702496,9.52783203 C151.338562,9.7013355 150.970402,9.82405563 150.598004,9.89599609 C150.225606,9.96793656 149.800317,10.0039062 149.322125,10.0039062 Z M149.049176,3.859375 C148.575215,3.859375 148.195417,4.00960136 147.909771,4.31005859 C147.624126,4.61051583 147.453798,5.04849973 147.398785,5.62402344 L150.585309,5.62402344 C150.576845,5.04426793 150.437198,4.6052261 150.166363,4.30688477 C149.895529,4.00854343 149.523136,3.859375 149.049176,3.859375 Z M156.577496,10.0039062 C155.515316,10.0039062 154.708114,9.69393214 154.155865,9.07397461 C153.603616,8.45401708 153.327496,7.56429616 153.327496,6.40478516 C153.327496,5.22411519 153.616312,4.31640942 154.193951,3.68164062 C154.771591,3.04687183 155.606299,2.72949219 156.698102,2.72949219 C157.438665,2.72949219 158.105162,2.86702336 158.697613,3.14208984 L158.24693,4.34179688 C157.616393,4.09635294 157.09589,3.97363281 156.685406,3.97363281 C155.470882,3.97363281 154.863629,4.77977709 154.863629,6.39208984 C154.863629,7.17920315 155.014913,7.77058721 155.317486,8.16625977 C155.620059,8.56193232 156.063333,8.75976562 156.64732,8.75976562 C157.311712,8.75976562 157.940123,8.59472821 158.532574,8.26464844 L158.532574,9.56591797 C158.265971,9.72249427 157.981388,9.83463508 157.678814,9.90234375 C157.376241,9.97005242 157.009139,10.0039062 156.577496,10.0039062 Z M163.744,2.72949219 C164.044457,2.72949219 164.292013,2.75065083 164.486676,2.79296875 L164.34068,4.18310547 C164.12909,4.13232396 163.90904,4.10693359 163.680523,4.10693359 C163.083841,4.10693359 162.600366,4.30159311 162.230084,4.69091797 C161.859802,5.08024283 161.674664,5.58593439 161.674664,6.20800781 L161.674664,9.87695312 L160.182965,9.87695312 L160.182965,2.85644531 L161.350934,2.85644531 L161.547711,4.09423828 L161.623883,4.09423828 C161.856631,3.67529087 162.160258,3.34310019 162.534771,3.09765625 C162.909285,2.85221231 163.312357,2.72949219 163.744,2.72949219 Z M170.739117,9.87695312 L170.529645,8.95654297 L170.453473,8.95654297 C170.246115,9.28239095 169.950952,9.53841053 169.567975,9.72460938 C169.184997,9.91080822 168.748071,10.0039062 168.257184,10.0039062 C167.406593,10.0039062 166.771834,9.79231982 166.352887,9.36914062 C165.933939,8.94596143 165.724469,8.30485456 165.724469,7.44580078 L165.724469,2.85644531 L167.228863,2.85644531 L167.228863,7.18554688 C167.228863,7.72298446 167.338888,8.1260566 167.558941,8.39477539 C167.778995,8.66349418 168.12388,8.79785156 168.593609,8.79785156 C169.219915,8.79785156 169.680115,8.61059758 169.974225,8.23608398 C170.268334,7.86157039 170.415387,7.23421664 170.415387,6.35400391 L170.415387,2.85644531 L171.913434,2.85644531 L171.913434,9.87695312 L170.739117,9.87695312 Z M175.531598,9.87695312 L174.039898,9.87695312 L174.039898,2.85644531 L175.531598,2.85644531 L175.531598,9.87695312 Z M173.951031,0.996582031 C173.951031,0.729979136 174.024029,0.524740303 174.170025,0.380859375 C174.316022,0.236978447 174.524435,0.165039062 174.79527,0.165039062 C175.057641,0.165039062 175.261822,0.236978447 175.407818,0.380859375 C175.553815,0.524740303 175.626813,0.729979136 175.626813,0.996582031 C175.626813,1.25048955 175.553815,1.45043872 175.407818,1.59643555 C175.261822,1.74243237 175.057641,1.81542969 174.79527,1.81542969 C174.524435,1.81542969 174.316022,1.74243237 174.170025,1.59643555 C174.024029,1.45043872 173.951031,1.25048955 173.951031,0.996582031 Z M180.279645,8.79785156 C180.643579,8.79785156 181.007507,8.74072323 181.371441,8.62646484 L181.371441,9.75 C181.206402,9.82194046 180.993757,9.8822426 180.733502,9.9309082 C180.473247,9.97957381 180.203474,10.0039062 179.924176,10.0039062 C178.510757,10.0039062 177.804059,9.25912203 177.804059,7.76953125 L177.804059,3.98632812 L176.845563,3.98632812 L176.845563,3.32617188 L177.873883,2.78027344 L178.381695,1.29492188 L179.302105,1.29492188 L179.302105,2.85644531 L181.301617,2.85644531 L181.301617,3.98632812 L179.302105,3.98632812 L179.302105,7.74414062 C179.302105,8.10384294 179.39203,8.36938391 179.571881,8.54077148 C179.751732,8.71215906 179.987651,8.79785156 180.279645,8.79785156 Z M188.690289,9.87695312 L187.192242,9.87695312 L187.192242,5.54785156 C187.192242,5.01041398 187.090681,4.6094577 186.887555,4.3449707 C186.684429,4.0804837 186.367049,3.94824219 185.935406,3.94824219 C185.359883,3.94824219 184.937768,4.13549617 184.669049,4.51000977 C184.40033,4.88452336 184.265973,5.50764538 184.265973,6.37939453 L184.265973,9.87695312 L182.774273,9.87695312 L182.774273,2.85644531 L183.942242,2.85644531 L184.151715,3.77685547 L184.227887,3.77685547 C184.422549,3.4425439 184.705017,3.18440846 185.075299,3.00244141 C185.445581,2.82047435 185.852884,2.72949219 186.297223,2.72949219 C187.37633,2.72949219 188.091492,3.09765257 188.44273,3.83398438 L188.544293,3.83398438 C188.751651,3.48697743 189.04364,3.21614681 189.42027,3.02148438 C189.796899,2.82682194 190.228535,2.72949219 190.715191,2.72949219 C191.553086,2.72949219 192.163513,2.94107861 192.54649,3.36425781 C192.929467,3.78743701 193.120953,4.43277561 193.120953,5.30029297 L193.120953,9.87695312 L191.629254,9.87695312 L191.629254,5.54785156 C191.629254,5.01041398 191.526634,4.6094577 191.321393,4.3449707 C191.116151,4.0804837 190.797713,3.94824219 190.36607,3.94824219 C189.786315,3.94824219 189.362084,4.12914858 189.093365,4.4909668 C188.824646,4.85278501 188.690289,5.40819938 188.690289,6.15722656 L188.690289,9.87695312 Z M198.268902,10.0039062 C197.1771,10.0039062 196.323349,9.68546868 195.707623,9.04858398 C195.091897,8.41169929 194.784039,7.53467355 194.784039,6.41748047 C194.784039,5.27066484 195.069681,4.36930667 195.640973,3.71337891 C196.212265,3.05745115 196.99725,2.72949219 197.995953,2.72949219 C198.922716,2.72949219 199.654805,3.01090213 200.192242,3.57373047 C200.72968,4.1365588 200.998395,4.91096512 200.998395,5.89697266 L200.998395,6.703125 L196.320172,6.703125 C196.341331,7.38444351 196.525411,7.90811991 196.872418,8.27416992 C197.219425,8.64021993 197.70819,8.82324219 198.338727,8.82324219 C198.753442,8.82324219 199.139587,8.7840987 199.497174,8.70581055 C199.85476,8.6275224 200.23879,8.49739674 200.649273,8.31542969 L200.649273,9.52783203 C200.285339,9.7013355 199.917179,9.82405563 199.544781,9.89599609 C199.172384,9.96793656 198.747095,10.0039062 198.268902,10.0039062 Z M197.995953,3.859375 C197.521992,3.859375 197.142195,4.00960136 196.856549,4.31005859 C196.570903,4.61051583 196.400576,5.04849973 196.345563,5.62402344 L199.532086,5.62402344 C199.523622,5.04426793 199.383975,4.6052261 199.113141,4.30688477 C198.842306,4.00854343 198.469914,3.859375 197.995953,3.859375 Z M208.869488,9.87695312 L207.371441,9.87695312 L207.371441,5.56054688 C207.371441,5.0188775 207.262474,4.61474743 207.044537,4.34814453 C206.8266,4.08154164 206.480656,3.94824219 206.006695,3.94824219 C205.376158,3.94824219 204.9149,4.13443824 204.622906,4.50683594 C204.330913,4.87923363 204.184918,5.50341359 204.184918,6.37939453 L204.184918,9.87695312 L202.693219,9.87695312 L202.693219,2.85644531 L203.861188,2.85644531 L204.07066,3.77685547 L204.146832,3.77685547 C204.358422,3.4425439 204.658874,3.18440846 205.048199,3.00244141 C205.437524,2.82047435 205.86916,2.72949219 206.343121,2.72949219 C208.027374,2.72949219 208.869488,3.58641721 208.869488,5.30029297 L208.869488,9.87695312 Z M213.560406,8.79785156 C213.92434,8.79785156 214.288269,8.74072323 214.652203,8.62646484 L214.652203,9.75 C214.487163,9.82194046 214.274519,9.8822426 214.014264,9.9309082 C213.754008,9.97957381 213.484236,10.0039062 213.204938,10.0039062 C211.791519,10.0039062 211.08482,9.25912203 211.08482,7.76953125 L211.08482,3.98632812 L210.126324,3.98632812 L210.126324,3.32617188 L211.154645,2.78027344 L211.662457,1.29492188 L212.582867,1.29492188 L212.582867,2.85644531 L214.582379,2.85644531 L214.582379,3.98632812 L212.582867,3.98632812 L212.582867,7.74414062 C212.582867,8.10384294 212.672791,8.36938391 212.852643,8.54077148 C213.032494,8.71215906 213.268413,8.79785156 213.560406,8.79785156 Z" id="WithPartnerRecruitment" fill="#AAAAAA" fill-rule="nonzero"></path>
                        <path d="M284.032086,9.87695312 L282.381695,9.87695312 L280.807477,4.34179688 C280.739768,4.10058473 280.655133,3.75252506 280.55357,3.29760742 C280.452007,2.84268978 280.390647,2.52636808 280.369488,2.34863281 C280.32717,2.6194675 280.258405,2.97070097 280.163189,3.40234375 C280.067974,3.83398653 279.988629,4.1555979 279.925152,4.3671875 L278.38902,9.87695312 L276.738629,9.87695312 L275.538922,5.23046875 L274.320172,0.596679688 L275.869,0.596679688 L277.19566,6.00488281 C277.403018,6.87240017 277.551128,7.63834303 277.639996,8.30273438 C277.686546,7.94303206 277.756369,7.54101785 277.849469,7.09667969 C277.942568,6.65234153 278.027203,6.2926446 278.103375,6.01757812 L279.614117,0.596679688 L281.118512,0.596679688 L282.66734,6.04296875 C282.815453,6.546552 282.972027,7.29979967 283.137066,8.30273438 C283.200543,7.69758812 283.352886,6.92741353 283.594098,5.9921875 L284.91441,0.596679688 L286.450543,0.596679688 L284.032086,9.87695312 Z M289.097516,9.87695312 L287.605816,9.87695312 L287.605816,2.85644531 L289.097516,2.85644531 L289.097516,9.87695312 Z M287.516949,0.996582031 C287.516949,0.729979136 287.589947,0.524740303 287.735943,0.380859375 C287.88194,0.236978447 288.090353,0.165039062 288.361188,0.165039062 C288.623559,0.165039062 288.82774,0.236978447 288.973736,0.380859375 C289.119733,0.524740303 289.19273,0.729979136 289.19273,0.996582031 C289.19273,1.25048955 289.119733,1.45043872 288.973736,1.59643555 C288.82774,1.74243237 288.623559,1.81542969 288.361188,1.81542969 C288.090353,1.81542969 287.88194,1.74243237 287.735943,1.59643555 C287.589947,1.45043872 287.516949,1.25048955 287.516949,0.996582031 Z M293.845563,8.79785156 C294.209497,8.79785156 294.573425,8.74072323 294.937359,8.62646484 L294.937359,9.75 C294.772319,9.82194046 294.559675,9.8822426 294.29942,9.9309082 C294.039165,9.97957381 293.769392,10.0039062 293.490094,10.0039062 C292.076675,10.0039062 291.369977,9.25912203 291.369977,7.76953125 L291.369977,3.98632812 L290.41148,3.98632812 L290.41148,3.32617188 L291.439801,2.78027344 L291.947613,1.29492188 L292.868023,1.29492188 L292.868023,2.85644531 L294.867535,2.85644531 L294.867535,3.98632812 L292.868023,3.98632812 L292.868023,7.74414062 C292.868023,8.10384294 292.957948,8.36938391 293.137799,8.54077148 C293.31765,8.71215906 293.553569,8.79785156 293.845563,8.79785156 Z M302.516461,9.87695312 L301.018414,9.87695312 L301.018414,5.56054688 C301.018414,5.0188775 300.909447,4.61474743 300.69151,4.34814453 C300.473572,4.08154164 300.127629,3.94824219 299.653668,3.94824219 C299.027363,3.94824219 298.567162,4.13549617 298.273053,4.51000977 C297.978943,4.88452336 297.831891,5.51187711 297.831891,6.39208984 L297.831891,9.87695312 L296.340191,9.87695312 L296.340191,0 L297.831891,0 L297.831891,2.50732422 C297.831891,2.90934446 297.8065,3.3388649 297.755719,3.79589844 L297.850934,3.79589844 C298.05406,3.45735508 298.336527,3.19498791 298.698346,3.00878906 C299.060164,2.82259021 299.482279,2.72949219 299.964703,2.72949219 C301.665884,2.72949219 302.516461,3.58641721 302.516461,5.30029297 L302.516461,9.87695312 Z M310.819195,6.35400391 C310.819195,7.50081954 310.52509,8.39583012 309.936871,9.0390625 C309.348652,9.68229488 308.529813,10.0039062 307.480328,10.0039062 C306.8244,10.0039062 306.244654,9.85579575 305.74107,9.55957031 C305.237487,9.26334487 304.850284,8.83805616 304.579449,8.28369141 C304.308615,7.72932666 304.173199,7.08610392 304.173199,6.35400391 C304.173199,5.21565186 304.465188,4.32698887 305.049176,3.68798828 C305.633163,3.04898769 306.456234,2.72949219 307.518414,2.72949219 C308.534044,2.72949219 309.338073,3.05639322 309.930523,3.71020508 C310.522974,4.36401694 310.819195,5.2452744 310.819195,6.35400391 Z M305.709332,6.35400391 C305.709332,7.97478024 306.308122,8.78515625 307.505719,8.78515625 C308.690621,8.78515625 309.283063,7.97478024 309.283063,6.35400391 C309.283063,4.75015474 308.686389,3.94824219 307.493023,3.94824219 C306.866718,3.94824219 306.412865,4.15559688 306.131451,4.5703125 C305.850037,4.98502812 305.709332,5.57958597 305.709332,6.35400391 Z M317.484234,9.87695312 L317.274762,8.95654297 L317.19859,8.95654297 C316.991232,9.28239095 316.696069,9.53841053 316.313092,9.72460938 C315.930115,9.91080822 315.493189,10.0039062 315.002301,10.0039062 C314.151711,10.0039062 313.516951,9.79231982 313.098004,9.36914062 C312.679056,8.94596143 312.469586,8.30485456 312.469586,7.44580078 L312.469586,2.85644531 L313.97398,2.85644531 L313.97398,7.18554688 C313.97398,7.72298446 314.084005,8.1260566 314.304059,8.39477539 C314.524112,8.66349418 314.868998,8.79785156 315.338727,8.79785156 C315.965032,8.79785156 316.425232,8.61059758 316.719342,8.23608398 C317.013451,7.86157039 317.160504,7.23421664 317.160504,6.35400391 L317.160504,2.85644531 L318.658551,2.85644531 L318.658551,9.87695312 L317.484234,9.87695312 Z M323.40025,8.79785156 C323.764184,8.79785156 324.128113,8.74072323 324.492047,8.62646484 L324.492047,9.75 C324.327007,9.82194046 324.114363,9.8822426 323.854107,9.9309082 C323.593852,9.97957381 323.32408,10.0039062 323.044781,10.0039062 C321.631363,10.0039062 320.924664,9.25912203 320.924664,7.76953125 L320.924664,3.98632812 L319.966168,3.98632812 L319.966168,3.32617188 L320.994488,2.78027344 L321.502301,1.29492188 L322.422711,1.29492188 L322.422711,2.85644531 L324.422223,2.85644531 L324.422223,3.98632812 L322.422711,3.98632812 L322.422711,7.74414062 C322.422711,8.10384294 322.512635,8.36938391 322.692486,8.54077148 C322.872337,8.71215906 323.108256,8.79785156 323.40025,8.79785156 Z M335.575055,3.40234375 C335.575055,4.37142412 335.257675,5.11409247 334.622906,5.63037109 C333.988137,6.14664972 333.084663,6.40478516 331.912457,6.40478516 L330.947613,6.40478516 L330.947613,9.87695312 L329.430523,9.87695312 L329.430523,0.596679688 L332.102887,0.596679688 C333.262398,0.596679688 334.13096,0.833656484 334.7086,1.30761719 C335.286239,1.78157789 335.575055,2.4798131 335.575055,3.40234375 Z M330.947613,5.12890625 L331.753766,5.12890625 C332.532415,5.12890625 333.103699,4.99349094 333.467633,4.72265625 C333.831567,4.45182156 334.013531,4.02864871 334.013531,3.453125 C334.013531,2.91991921 333.85061,2.52213673 333.524762,2.25976562 C333.198914,1.99739452 332.691106,1.86621094 332.001324,1.86621094 L330.947613,1.86621094 L330.947613,5.12890625 Z M341.662457,9.87695312 L341.364117,8.89941406 L341.313336,8.89941406 C340.974793,9.32682505 340.634138,9.61775639 340.291363,9.7722168 C339.948588,9.9266772 339.508488,10.0039062 338.971051,10.0039062 C338.281269,10.0039062 337.742781,9.8177102 337.355572,9.4453125 C336.968363,9.0729148 336.774762,8.5460646 336.774762,7.86474609 C336.774762,7.14110966 337.043476,6.59521668 337.580914,6.22705078 C338.118352,5.85888488 338.937191,5.65787777 340.037457,5.62402344 L341.249859,5.5859375 L341.249859,5.21142578 C341.249859,4.76285583 341.145124,4.42749135 340.93565,4.20532227 C340.726177,3.98315319 340.401392,3.87207031 339.961285,3.87207031 C339.601583,3.87207031 339.256697,3.92496692 338.926617,4.03076172 C338.596537,4.13655652 338.279158,4.26139251 337.974469,4.40527344 L337.492047,3.33886719 C337.872908,3.13997296 338.289733,2.98868867 338.742535,2.88500977 C339.195337,2.78133086 339.622741,2.72949219 340.024762,2.72949219 C340.91767,2.72949219 341.591573,2.9241517 342.04649,3.31347656 C342.501408,3.70280143 342.728863,4.3142862 342.728863,5.14794922 L342.728863,9.87695312 L341.662457,9.87695312 Z M339.440777,8.86132812 C339.982447,8.86132812 340.417257,8.71004383 340.745221,8.4074707 C341.073185,8.10489758 341.237164,7.68066679 341.237164,7.13476562 L341.237164,6.52539062 L340.335797,6.56347656 C339.633319,6.58886731 339.122338,6.70629778 338.802838,6.91577148 C338.483338,7.12524519 338.32359,7.44579862 338.32359,7.87744141 C338.32359,8.19059401 338.416688,8.43286047 338.602887,8.60424805 C338.789086,8.77563562 339.06838,8.86132812 339.440777,8.86132812 Z M348.37193,2.72949219 C348.672387,2.72949219 348.919943,2.75065083 349.114605,2.79296875 L348.968609,4.18310547 C348.75702,4.13232396 348.53697,4.10693359 348.308453,4.10693359 C347.71177,4.10693359 347.228295,4.30159311 346.858014,4.69091797 C346.487732,5.08024283 346.302594,5.58593439 346.302594,6.20800781 L346.302594,9.87695312 L344.810895,9.87695312 L344.810895,2.85644531 L345.978863,2.85644531 L346.175641,4.09423828 L346.251813,4.09423828 C346.484561,3.67529087 346.788188,3.34310019 347.162701,3.09765625 C347.537215,2.85221231 347.940287,2.72949219 348.37193,2.72949219 Z M353.031109,8.79785156 C353.395043,8.79785156 353.758972,8.74072323 354.122906,8.62646484 L354.122906,9.75 C353.957866,9.82194046 353.745222,9.8822426 353.484967,9.9309082 C353.224712,9.97957381 352.954939,10.0039062 352.675641,10.0039062 C351.262222,10.0039062 350.555523,9.25912203 350.555523,7.76953125 L350.555523,3.98632812 L349.597027,3.98632812 L349.597027,3.32617188 L350.625348,2.78027344 L351.13316,1.29492188 L352.05357,1.29492188 L352.05357,2.85644531 L354.053082,2.85644531 L354.053082,3.98632812 L352.05357,3.98632812 L352.05357,7.74414062 C352.05357,8.10384294 352.143495,8.36938391 352.323346,8.54077148 C352.503197,8.71215906 352.739116,8.79785156 353.031109,8.79785156 Z M361.702008,9.87695312 L360.203961,9.87695312 L360.203961,5.56054688 C360.203961,5.0188775 360.094994,4.61474743 359.877057,4.34814453 C359.659119,4.08154164 359.313176,3.94824219 358.839215,3.94824219 C358.208678,3.94824219 357.747419,4.13443824 357.455426,4.50683594 C357.163432,4.87923363 357.017438,5.50341359 357.017438,6.37939453 L357.017438,9.87695312 L355.525738,9.87695312 L355.525738,2.85644531 L356.693707,2.85644531 L356.90318,3.77685547 L356.979352,3.77685547 C357.190941,3.4425439 357.491394,3.18440846 357.880719,3.00244141 C358.270044,2.82047435 358.70168,2.72949219 359.175641,2.72949219 C360.859894,2.72949219 361.702008,3.58641721 361.702008,5.30029297 L361.702008,9.87695312 Z M366.843609,10.0039062 C365.751807,10.0039062 364.898056,9.68546868 364.28233,9.04858398 C363.666604,8.41169929 363.358746,7.53467355 363.358746,6.41748047 C363.358746,5.27066484 363.644388,4.36930667 364.21568,3.71337891 C364.786972,3.05745115 365.571957,2.72949219 366.57066,2.72949219 C367.497423,2.72949219 368.229512,3.01090213 368.766949,3.57373047 C369.304387,4.1365588 369.573102,4.91096512 369.573102,5.89697266 L369.573102,6.703125 L364.894879,6.703125 C364.916038,7.38444351 365.100118,7.90811991 365.447125,8.27416992 C365.794132,8.64021993 366.282897,8.82324219 366.913434,8.82324219 C367.328149,8.82324219 367.714294,8.7840987 368.071881,8.70581055 C368.429467,8.6275224 368.813497,8.49739674 369.22398,8.31542969 L369.22398,9.52783203 C368.860046,9.7013355 368.491886,9.82405563 368.119488,9.89599609 C367.747091,9.96793656 367.321802,10.0039062 366.843609,10.0039062 Z M366.57066,3.859375 C366.096699,3.859375 365.716902,4.00960136 365.431256,4.31005859 C365.14561,4.61051583 364.975283,5.04849973 364.92027,5.62402344 L368.106793,5.62402344 C368.098329,5.04426793 367.958682,4.6052261 367.687848,4.30688477 C367.417013,4.00854343 367.044621,3.859375 366.57066,3.859375 Z M374.828961,2.72949219 C375.129418,2.72949219 375.376974,2.75065083 375.571637,2.79296875 L375.425641,4.18310547 C375.214051,4.13232396 374.994001,4.10693359 374.765484,4.10693359 C374.168802,4.10693359 373.685327,4.30159311 373.315045,4.69091797 C372.944763,5.08024283 372.759625,5.58593439 372.759625,6.20800781 L372.759625,9.87695312 L371.267926,9.87695312 L371.267926,2.85644531 L372.435895,2.85644531 L372.632672,4.09423828 L372.708844,4.09423828 C372.941592,3.67529087 373.245219,3.34310019 373.619732,3.09765625 C373.994246,2.85221231 374.397318,2.72949219 374.828961,2.72949219 Z M381.925641,4.91308594 L382.979352,4.91308594 C383.686061,4.91308594 384.1981,4.78190235 384.515484,4.51953125 C384.832869,4.25716015 384.991559,3.86784112 384.991559,3.3515625 C384.991559,2.82682029 384.820174,2.45019646 384.477398,2.22167969 C384.134623,1.99316292 383.618352,1.87890625 382.92857,1.87890625 L381.925641,1.87890625 L381.925641,4.91308594 Z M381.925641,6.16992187 L381.925641,9.87695312 L380.408551,9.87695312 L380.408551,0.596679688 L383.030133,0.596679688 C384.22773,0.596679688 385.114277,0.820961299 385.689801,1.26953125 C386.265324,1.7181012 386.553082,2.39517776 386.553082,3.30078125 C386.553082,4.45606046 385.952177,5.27913166 384.750348,5.77001953 L387.37193,9.87695312 L385.645367,9.87695312 L383.423688,6.16992187 L381.925641,6.16992187 Z M391.624859,10.0039062 C390.533057,10.0039062 389.679306,9.68546868 389.06358,9.04858398 C388.447854,8.41169929 388.139996,7.53467355 388.139996,6.41748047 C388.139996,5.27066484 388.425638,4.36930667 388.99693,3.71337891 C389.568222,3.05745115 390.353207,2.72949219 391.35191,2.72949219 C392.278673,2.72949219 393.010762,3.01090213 393.548199,3.57373047 C394.085637,4.1365588 394.354352,4.91096512 394.354352,5.89697266 L394.354352,6.703125 L389.676129,6.703125 C389.697288,7.38444351 389.881368,7.90811991 390.228375,8.27416992 C390.575382,8.64021993 391.064147,8.82324219 391.694684,8.82324219 C392.109399,8.82324219 392.495544,8.7840987 392.853131,8.70581055 C393.210717,8.6275224 393.594747,8.49739674 394.00523,8.31542969 L394.00523,9.52783203 C393.641296,9.7013355 393.273136,9.82405563 392.900738,9.89599609 C392.528341,9.96793656 392.103052,10.0039062 391.624859,10.0039062 Z M391.35191,3.859375 C390.877949,3.859375 390.498152,4.00960136 390.212506,4.31005859 C389.92686,4.61051583 389.756533,5.04849973 389.70152,5.62402344 L392.888043,5.62402344 C392.879579,5.04426793 392.739932,4.6052261 392.469098,4.30688477 C392.198263,4.00854343 391.825871,3.859375 391.35191,3.859375 Z M398.88023,10.0039062 C397.818051,10.0039062 397.010848,9.69393214 396.4586,9.07397461 C395.906351,8.45401708 395.63023,7.56429616 395.63023,6.40478516 C395.63023,5.22411519 395.919046,4.31640942 396.496686,3.68164062 C397.074325,3.04687183 397.909034,2.72949219 399.000836,2.72949219 C399.7414,2.72949219 400.407897,2.86702336 401.000348,3.14208984 L400.549664,4.34179688 C399.919127,4.09635294 399.398624,3.97363281 398.988141,3.97363281 C397.773616,3.97363281 397.166363,4.77977709 397.166363,6.39208984 C397.166363,7.17920315 397.317648,7.77058721 397.620221,8.16625977 C397.922794,8.56193232 398.366067,8.75976562 398.950055,8.75976562 C399.614446,8.75976562 400.242858,8.59472821 400.835309,8.26464844 L400.835309,9.56591797 C400.568706,9.72249427 400.284122,9.83463508 399.981549,9.90234375 C399.678976,9.97005242 399.311873,10.0039062 398.88023,10.0039062 Z M406.046734,2.72949219 C406.347192,2.72949219 406.594748,2.75065083 406.78941,2.79296875 L406.643414,4.18310547 C406.431824,4.13232396 406.211775,4.10693359 405.983258,4.10693359 C405.386575,4.10693359 404.9031,4.30159311 404.532818,4.69091797 C404.162537,5.08024283 403.977398,5.58593439 403.977398,6.20800781 L403.977398,9.87695312 L402.485699,9.87695312 L402.485699,2.85644531 L403.653668,2.85644531 L403.850445,4.09423828 L403.926617,4.09423828 C404.159366,3.67529087 404.462992,3.34310019 404.837506,3.09765625 C405.212019,2.85221231 405.615092,2.72949219 406.046734,2.72949219 Z M413.041852,9.87695312 L412.832379,8.95654297 L412.756207,8.95654297 C412.548849,9.28239095 412.253686,9.53841053 411.870709,9.72460938 C411.487732,9.91080822 411.050806,10.0039062 410.559918,10.0039062 C409.709328,10.0039062 409.074569,9.79231982 408.655621,9.36914062 C408.236674,8.94596143 408.027203,8.30485456 408.027203,7.44580078 L408.027203,2.85644531 L409.531598,2.85644531 L409.531598,7.18554688 C409.531598,7.72298446 409.641623,8.1260566 409.861676,8.39477539 C410.081729,8.66349418 410.426615,8.79785156 410.896344,8.79785156 C411.522649,8.79785156 411.982849,8.61059758 412.276959,8.23608398 C412.571069,7.86157039 412.718121,7.23421664 412.718121,6.35400391 L412.718121,2.85644531 L414.216168,2.85644531 L414.216168,9.87695312 L413.041852,9.87695312 Z M417.834332,9.87695312 L416.342633,9.87695312 L416.342633,2.85644531 L417.834332,2.85644531 L417.834332,9.87695312 Z M416.253766,0.996582031 C416.253766,0.729979136 416.326763,0.524740303 416.47276,0.380859375 C416.618757,0.236978447 416.827169,0.165039062 417.098004,0.165039062 C417.360375,0.165039062 417.564556,0.236978447 417.710553,0.380859375 C417.85655,0.524740303 417.929547,0.729979136 417.929547,0.996582031 C417.929547,1.25048955 417.85655,1.45043872 417.710553,1.59643555 C417.564556,1.74243237 417.360375,1.81542969 417.098004,1.81542969 C416.827169,1.81542969 416.618757,1.74243237 416.47276,1.59643555 C416.326763,1.45043872 416.253766,1.25048955 416.253766,0.996582031 Z M422.582379,8.79785156 C422.946313,8.79785156 423.310242,8.74072323 423.674176,8.62646484 L423.674176,9.75 C423.509136,9.82194046 423.296492,9.8822426 423.036236,9.9309082 C422.775981,9.97957381 422.506208,10.0039062 422.22691,10.0039062 C420.813492,10.0039062 420.106793,9.25912203 420.106793,7.76953125 L420.106793,3.98632812 L419.148297,3.98632812 L419.148297,3.32617188 L420.176617,2.78027344 L420.68443,1.29492188 L421.60484,1.29492188 L421.60484,2.85644531 L423.604352,2.85644531 L423.604352,3.98632812 L421.60484,3.98632812 L421.60484,7.74414062 C421.60484,8.10384294 421.694764,8.36938391 421.874615,8.54077148 C422.054466,8.71215906 422.290385,8.79785156 422.582379,8.79785156 Z M430.993023,9.87695312 L429.494977,9.87695312 L429.494977,5.54785156 C429.494977,5.01041398 429.393415,4.6094577 429.190289,4.3449707 C428.987163,4.0804837 428.669783,3.94824219 428.238141,3.94824219 C427.662617,3.94824219 427.240502,4.13549617 426.971783,4.51000977 C426.703064,4.88452336 426.568707,5.50764538 426.568707,6.37939453 L426.568707,9.87695312 L425.077008,9.87695312 L425.077008,2.85644531 L426.244977,2.85644531 L426.454449,3.77685547 L426.530621,3.77685547 C426.725284,3.4425439 427.007751,3.18440846 427.378033,3.00244141 C427.748315,2.82047435 428.155619,2.72949219 428.599957,2.72949219 C429.679064,2.72949219 430.394226,3.09765257 430.745465,3.83398438 L430.847027,3.83398438 C431.054385,3.48697743 431.346374,3.21614681 431.723004,3.02148438 C432.099633,2.82682194 432.53127,2.72949219 433.017926,2.72949219 C433.855821,2.72949219 434.466247,2.94107861 434.849225,3.36425781 C435.232202,3.78743701 435.423688,4.43277561 435.423688,5.30029297 L435.423688,9.87695312 L433.931988,9.87695312 L433.931988,5.54785156 C433.931988,5.01041398 433.829369,4.6094577 433.624127,4.3449707 C433.418885,4.0804837 433.100447,3.94824219 432.668805,3.94824219 C432.089049,3.94824219 431.664818,4.12914858 431.3961,4.4909668 C431.127381,4.85278501 430.993023,5.40819938 430.993023,6.15722656 L430.993023,9.87695312 Z M440.571637,10.0039062 C439.479834,10.0039062 438.626083,9.68546868 438.010357,9.04858398 C437.394632,8.41169929 437.086773,7.53467355 437.086773,6.41748047 C437.086773,5.27066484 437.372415,4.36930667 437.943707,3.71337891 C438.514999,3.05745115 439.299985,2.72949219 440.298688,2.72949219 C441.22545,2.72949219 441.957539,3.01090213 442.494977,3.57373047 C443.032414,4.1365588 443.301129,4.91096512 443.301129,5.89697266 L443.301129,6.703125 L438.622906,6.703125 C438.644065,7.38444351 438.828145,7.90811991 439.175152,8.27416992 C439.522159,8.64021993 440.010924,8.82324219 440.641461,8.82324219 C441.056177,8.82324219 441.442322,8.7840987 441.799908,8.70581055 C442.157495,8.6275224 442.541524,8.49739674 442.952008,8.31542969 L442.952008,9.52783203 C442.588074,9.7013355 442.219913,9.82405563 441.847516,9.89599609 C441.475118,9.96793656 441.049829,10.0039062 440.571637,10.0039062 Z M440.298688,3.859375 C439.824727,3.859375 439.444929,4.00960136 439.159283,4.31005859 C438.873637,4.61051583 438.70331,5.04849973 438.648297,5.62402344 L441.83482,5.62402344 C441.826357,5.04426793 441.68671,4.6052261 441.415875,4.30688477 C441.14504,4.00854343 440.772648,3.859375 440.298688,3.859375 Z M451.172223,9.87695312 L449.674176,9.87695312 L449.674176,5.56054688 C449.674176,5.0188775 449.565209,4.61474743 449.347271,4.34814453 C449.129334,4.08154164 448.78339,3.94824219 448.30943,3.94824219 C447.678893,3.94824219 447.217634,4.13443824 446.925641,4.50683594 C446.633647,4.87923363 446.487652,5.50341359 446.487652,6.37939453 L446.487652,9.87695312 L444.995953,9.87695312 L444.995953,2.85644531 L446.163922,2.85644531 L446.373395,3.77685547 L446.449566,3.77685547 C446.661156,3.4425439 446.961609,3.18440846 447.350934,3.00244141 C447.740258,2.82047435 448.171895,2.72949219 448.645855,2.72949219 C450.330109,2.72949219 451.172223,3.58641721 451.172223,5.30029297 L451.172223,9.87695312 Z M455.863141,8.79785156 C456.227075,8.79785156 456.591003,8.74072323 456.954938,8.62646484 L456.954938,9.75 C456.789898,9.82194046 456.577253,9.8822426 456.316998,9.9309082 C456.056743,9.97957381 455.78697,10.0039062 455.507672,10.0039062 C454.094253,10.0039062 453.387555,9.25912203 453.387555,7.76953125 L453.387555,3.98632812 L452.429059,3.98632812 L452.429059,3.32617188 L453.457379,2.78027344 L453.965191,1.29492188 L454.885602,1.29492188 L454.885602,2.85644531 L456.885113,2.85644531 L456.885113,3.98632812 L454.885602,3.98632812 L454.885602,7.74414062 C454.885602,8.10384294 454.975526,8.36938391 455.155377,8.54077148 C455.335228,8.71215906 455.571147,8.79785156 455.863141,8.79785156 Z" id="WithoutPartnerRecruitment" fill="#AAAAAA" fill-rule="nonzero"></path>
                        <path d="M387.144,535.104953 C387.144,537.036953 385.476,538.008953 383.832,538.008953 C382.176,538.008953 381.168,537.252953 380.784,536.652953 L381.672,535.512953 C382.128,536.148953 382.992,536.508953 383.7,536.508953 C384.408,536.508953 385.26,536.100953 385.26,535.104953 C385.26,534.120953 384.444,533.712953 383.7,533.712953 C383.16,533.712953 382.56,533.880953 382.188,534.144953 L381.348,533.640953 L381.984,529.596953 L386.832,529.596953 L386.832,531.084953 L383.388,531.084953 L383.148,532.572953 C383.4,532.464953 383.712,532.392953 384.252,532.392953 C385.512,532.392953 387.144,533.184953 387.144,535.104953 Z M399.864,532.200953 C399.864,533.088953 399.552,533.724953 399,534.192953 C398.448,534.648953 397.692,534.816953 396.84,534.816953 L395.82,534.816953 L395.82,537.876953 L393.876,537.876953 L393.876,529.596953 L396.84,529.596953 C397.692,529.596953 398.448,529.764953 399,530.220953 C399.552,530.676953 399.864,531.312953 399.864,532.200953 Z M397.896,532.200953 C397.896,531.780953 397.728,531.492953 397.5,531.324953 C397.26,531.156953 396.984,531.096953 396.564,531.096953 L395.808,531.096953 L395.808,533.316953 L396.564,533.316953 C396.984,533.316953 397.26,533.256953 397.5,533.088953 C397.728,532.920953 397.896,532.620953 397.896,532.200953 Z M406.764,534.456953 L408.864,537.876953 L406.608,537.876953 L404.868,534.708953 L404.256,534.708953 L404.256,537.876953 L402.312,537.876953 L402.312,529.596953 L405.288,529.596953 C406.212,529.596953 406.932,529.788953 407.472,530.184953 C408.024,530.592953 408.384,531.252953 408.384,532.080953 C408.384,533.652953 407.376,534.264953 406.764,534.456953 Z M406.428,532.152953 C406.428,531.732953 406.26,531.492953 406.008,531.312953 C405.768,531.132953 405.456,531.096953 405.012,531.096953 L404.244,531.096953 L404.244,533.220953 L405.012,533.220953 C405.456,533.220953 405.768,533.172953 406.008,532.992953 C406.26,532.812953 406.428,532.584953 406.428,532.152953 Z M419.376,533.748953 C419.376,536.424953 417.444,538.020953 414.984,538.020953 C412.524,538.020953 410.592,536.424953 410.592,533.748953 C410.592,531.072953 412.524,529.464953 414.984,529.464953 C417.444,529.464953 419.376,531.072953 419.376,533.748953 Z M417.408,533.700953 C417.408,532.128953 416.364,531.120953 414.984,531.120953 C413.604,531.120953 412.56,532.116953 412.56,533.700953 C412.56,535.284953 413.604,536.292953 414.984,536.292953 C416.364,536.292953 417.408,535.284953 417.408,533.700953 Z M429.54,533.160953 L429.54,536.592953 C429.12,536.964953 428.136,538.008953 425.856,538.008953 C423.564,538.008953 421.548,536.496953 421.548,533.736953 C421.548,530.976953 423.564,529.476953 425.88,529.476953 C428.076,529.476953 429.024,530.628953 429.288,530.916953 L428.004,532.032953 C427.656,531.648953 427.008,531.084953 425.88,531.084953 C424.548,531.084953 423.516,532.056953 423.516,533.736953 C423.516,535.416953 424.572,536.388953 425.916,536.388953 C427.26,536.388953 427.644,535.860953 427.644,535.860953 L427.644,534.636953 L425.904,534.636953 L425.904,533.160953 L429.54,533.160953 Z M436.848,534.456953 L438.948,537.876953 L436.692,537.876953 L434.952,534.708953 L434.34,534.708953 L434.34,537.876953 L432.396,537.876953 L432.396,529.596953 L435.372,529.596953 C436.296,529.596953 437.016,529.788953 437.556,530.184953 C438.108,530.592953 438.468,531.252953 438.468,532.080953 C438.468,533.652953 437.46,534.264953 436.848,534.456953 Z M436.512,532.152953 C436.512,531.732953 436.344,531.492953 436.092,531.312953 C435.852,531.132953 435.54,531.096953 435.096,531.096953 L434.328,531.096953 L434.328,533.220953 L435.096,533.220953 C435.54,533.220953 435.852,533.172953 436.092,532.992953 C436.344,532.812953 436.512,532.584953 436.512,532.152953 Z M445.428,529.584953 L448.548,537.876953 L446.436,537.876953 L445.848,536.208953 L442.896,536.208953 L442.308,537.876953 L440.292,537.876953 L443.412,529.584953 L445.428,529.584953 Z M443.34,534.696953 L445.404,534.696953 L444.372,531.720953 L443.34,534.696953 Z M459.432,529.596953 L460.044,537.876953 L458.136,537.876953 L457.812,532.236953 L457.788,532.236953 L456.012,537.876953 L454.476,537.876953 L452.688,532.236953 L452.652,532.236953 L452.352,537.876953 L450.444,537.876953 L451.068,529.596953 L453.516,529.596953 L455.244,535.044953 L455.268,535.044953 L456.972,529.596953 L459.432,529.596953 Z M471.42,529.596953 L472.032,537.876953 L470.124,537.876953 L469.8,532.236953 L469.776,532.236953 L468,537.876953 L466.464,537.876953 L464.676,532.236953 L464.64,532.236953 L464.34,537.876953 L462.432,537.876953 L463.056,529.596953 L465.504,529.596953 L467.232,535.044953 L467.256,535.044953 L468.96,529.596953 L471.42,529.596953 Z M480.204,536.304953 L480.204,537.876953 L474.732,537.876953 L474.732,529.596953 L480.096,529.596953 L480.096,531.144953 L476.664,531.144953 L476.664,532.836953 L479.904,532.836953 L479.904,534.384953 L476.664,534.384953 L476.664,536.304953 L480.204,536.304953 Z M491.424,529.596953 L493.584,529.596953 L490.704,534.528953 L490.704,537.876953 L488.76,537.876953 L488.76,534.528953 L485.88,529.596953 L488.04,529.596953 L489.732,532.896953 L491.424,529.596953 Z M501.18,536.304953 L501.18,537.876953 L495.708,537.876953 L495.708,529.596953 L501.072,529.596953 L501.072,531.144953 L497.64,531.144953 L497.64,532.836953 L500.88,532.836953 L500.88,534.384953 L497.64,534.384953 L497.64,536.304953 L501.18,536.304953 Z M508.212,529.584953 L511.332,537.876953 L509.22,537.876953 L508.632,536.208953 L505.68,536.208953 L505.092,537.876953 L503.076,537.876953 L506.196,529.584953 L508.212,529.584953 Z M506.124,534.696953 L508.188,534.696953 L507.156,531.720953 L506.124,534.696953 Z M517.992,534.456953 L520.092,537.876953 L517.836,537.876953 L516.096,534.708953 L515.484,534.708953 L515.484,537.876953 L513.54,537.876953 L513.54,529.596953 L516.516,529.596953 C517.44,529.596953 518.16,529.788953 518.7,530.184953 C519.252,530.592953 519.612,531.252953 519.612,532.080953 C519.612,533.652953 518.604,534.264953 517.992,534.456953 Z M517.656,532.152953 C517.656,531.732953 517.488,531.492953 517.236,531.312953 C516.996,531.132953 516.684,531.096953 516.24,531.096953 L515.472,531.096953 L515.472,533.220953 L516.24,533.220953 C516.684,533.220953 516.996,533.172953 517.236,532.992953 C517.488,532.812953 517.656,532.584953 517.656,532.152953 Z M527.832,535.356953 C527.832,536.148953 527.46,536.868953 526.86,537.336953 C526.272,537.804953 525.504,538.020953 524.616,538.020953 C523.416,538.020953 522.348,537.396953 521.676,536.772953 L522.636,535.356953 C523.236,535.980953 524.16,536.400953 524.796,536.400953 C525.42,536.400953 525.9,536.100953 525.9,535.548953 C525.9,534.984953 525.288,534.768953 524.928,534.636953 C524.568,534.504953 523.944,534.288953 523.668,534.168953 C523.464,534.072953 523.044,533.916953 522.684,533.568953 C522.324,533.232953 522.036,532.752953 522.036,531.972953 C522.036,531.180953 522.42,530.556953 522.9,530.160953 C523.368,529.764953 524.124,529.500953 525.084,529.500953 C526.044,529.500953 527.148,529.956953 527.712,530.520953 L526.884,531.876953 C526.404,531.396953 525.66,531.036953 525.036,531.036953 C524.412,531.036953 523.956,531.276953 523.956,531.780953 C523.956,532.284953 524.424,532.476953 524.796,532.620953 C525.156,532.764953 525.768,532.980953 526.032,533.088953 C526.26,533.172953 526.812,533.388953 527.184,533.760953 C527.532,534.108953 527.832,534.612953 527.832,535.356953 Z" id="5PROGRAMMEYEARS" fill="#AAAAAA" fill-rule="nonzero"></path>
                        <path d="M-84.012,262.200953 C-84.012,263.088953 -84.324,263.724953 -84.876,264.192953 C-85.428,264.648953 -86.184,264.816953 -87.036,264.816953 L-88.056,264.816953 L-88.056,267.876953 L-90,267.876953 L-90,259.596953 L-87.036,259.596953 C-86.184,259.596953 -85.428,259.764953 -84.876,260.220953 C-84.324,260.676953 -84.012,261.312953 -84.012,262.200953 Z M-85.98,262.200953 C-85.98,261.780953 -86.148,261.492953 -86.376,261.324953 C-86.616,261.156953 -86.892,261.096953 -87.312,261.096953 L-88.068,261.096953 L-88.068,263.316953 L-87.312,263.316953 C-86.892,263.316953 -86.616,263.256953 -86.376,263.088953 C-86.148,262.920953 -85.98,262.620953 -85.98,262.200953 Z M-76.092,266.304953 L-76.092,267.876953 L-81.564,267.876953 L-81.564,259.596953 L-76.2,259.596953 L-76.2,261.144953 L-79.632,261.144953 L-79.632,262.836953 L-76.392,262.836953 L-76.392,264.384953 L-79.632,264.384953 L-79.632,266.304953 L-76.092,266.304953 Z M-68.94,264.456953 L-66.84,267.876953 L-69.096,267.876953 L-70.836,264.708953 L-71.448,264.708953 L-71.448,267.876953 L-73.392,267.876953 L-73.392,259.596953 L-70.416,259.596953 C-69.492,259.596953 -68.772,259.788953 -68.232,260.184953 C-67.68,260.592953 -67.32,261.252953 -67.32,262.080953 C-67.32,263.652953 -68.328,264.264953 -68.94,264.456953 Z M-69.276,262.152953 C-69.276,261.732953 -69.444,261.492953 -69.696,261.312953 C-69.936,261.132953 -70.248,261.096953 -70.692,261.096953 L-71.46,261.096953 L-71.46,263.220953 L-70.692,263.220953 C-70.248,263.220953 -69.936,263.172953 -69.696,262.992953 C-69.444,262.812953 -69.276,262.584953 -69.276,262.152953 Z M-58.428,265.380953 L-57.78,266.892953 C-58.2,267.324953 -59.076,268.020953 -60.768,268.020953 C-63.204,268.020953 -65.112,266.412953 -65.112,263.748953 C-65.112,261.072953 -63.18,259.476953 -60.768,259.476953 C-59.064,259.476953 -58.14,260.184953 -57.924,260.412953 L-58.524,262.020953 C-58.68,261.816953 -59.568,261.156953 -60.66,261.156953 C-62.064,261.156953 -63.144,262.092953 -63.144,263.712953 C-63.144,265.332953 -62.016,266.256953 -60.66,266.256953 C-59.628,266.256953 -58.884,265.848953 -58.428,265.380953 Z M-49.92,266.304953 L-49.92,267.876953 L-55.392,267.876953 L-55.392,259.596953 L-50.028,259.596953 L-50.028,261.144953 L-53.46,261.144953 L-53.46,262.836953 L-50.22,262.836953 L-50.22,264.384953 L-53.46,264.384953 L-53.46,266.304953 L-49.92,266.304953 Z M-39.732,259.596953 L-39.732,267.876953 L-41.724,267.876953 L-45.36,262.260953 C-45.36,262.260953 -45.324,263.256953 -45.324,264.132953 L-45.324,267.876953 L-47.22,267.876953 L-47.22,259.596953 L-45.144,259.596953 L-41.592,265.164953 C-41.592,265.164953 -41.628,264.228953 -41.628,263.352953 L-41.628,259.596953 L-39.732,259.596953 Z M-31.212,259.596953 L-31.212,261.132953 L-33.348,261.132953 L-33.348,267.876953 L-35.292,267.876953 L-35.292,261.132953 L-37.428,261.132953 L-37.428,259.596953 L-31.212,259.596953 Z M-20.592,264.456953 L-18.492,267.876953 L-20.748,267.876953 L-22.488,264.708953 L-23.1,264.708953 L-23.1,267.876953 L-25.044,267.876953 L-25.044,259.596953 L-22.068,259.596953 C-21.144,259.596953 -20.424,259.788953 -19.884,260.184953 C-19.332,260.592953 -18.972,261.252953 -18.972,262.080953 C-18.972,263.652953 -19.98,264.264953 -20.592,264.456953 Z M-20.928,262.152953 C-20.928,261.732953 -21.096,261.492953 -21.348,261.312953 C-21.588,261.132953 -21.9,261.096953 -22.344,261.096953 L-23.112,261.096953 L-23.112,263.220953 L-22.344,263.220953 C-21.9,263.220953 -21.588,263.172953 -21.348,262.992953 C-21.096,262.812953 -20.928,262.584953 -20.928,262.152953 Z M-10.872,266.304953 L-10.872,267.876953 L-16.344,267.876953 L-16.344,259.596953 L-10.98,259.596953 L-10.98,261.144953 L-14.412,261.144953 L-14.412,262.836953 L-11.172,262.836953 L-11.172,264.384953 L-14.412,264.384953 L-14.412,266.304953 L-10.872,266.304953 Z M-3.036,259.596953 L-0.984,259.596953 L-4.056,267.876953 L-5.904,267.876953 L-8.976,259.596953 L-6.912,259.596953 L-4.968,265.296953 L-3.036,259.596953 Z M6.696,266.304953 L6.696,267.876953 L1.224,267.876953 L1.224,259.596953 L6.588,259.596953 L6.588,261.144953 L3.156,261.144953 L3.156,262.836953 L6.396,262.836953 L6.396,264.384953 L3.156,264.384953 L3.156,266.304953 L6.696,266.304953 Z M16.884,259.596953 L16.884,267.876953 L14.892,267.876953 L11.256,262.260953 C11.256,262.260953 11.292,263.256953 11.292,264.132953 L11.292,267.876953 L9.396,267.876953 L9.396,259.596953 L11.472,259.596953 L15.024,265.164953 C15.024,265.164953 14.988,264.228953 14.988,263.352953 L14.988,259.596953 L16.884,259.596953 Z M26.772,259.596953 L26.772,264.420953 C26.772,265.584953 26.568,266.388953 25.98,267.024953 C25.404,267.648953 24.504,268.008953 23.304,268.008953 C22.092,268.008953 21.204,267.648953 20.616,267.024953 C20.04,266.388953 19.836,265.584953 19.836,264.420953 L19.836,259.596953 L21.792,259.596953 L21.792,264.420953 C21.792,265.008953 21.84,265.464953 22.116,265.800953 C22.38,266.112953 22.764,266.316953 23.304,266.316953 C23.844,266.316953 24.228,266.112953 24.492,265.800953 C24.768,265.464953 24.816,265.008953 24.816,264.420953 L24.816,259.596953 L26.772,259.596953 Z M35.196,266.304953 L35.196,267.876953 L29.724,267.876953 L29.724,259.596953 L35.088,259.596953 L35.088,261.144953 L31.656,261.144953 L31.656,262.836953 L34.896,262.836953 L34.896,264.384953 L31.656,264.384953 L31.656,266.304953 L35.196,266.304953 Z M49.332,263.160953 L49.332,266.592953 C48.912,266.964953 47.928,268.008953 45.648,268.008953 C43.356,268.008953 41.34,266.496953 41.34,263.736953 C41.34,260.976953 43.356,259.476953 45.672,259.476953 C47.868,259.476953 48.816,260.628953 49.08,260.916953 L47.796,262.032953 C47.448,261.648953 46.8,261.084953 45.672,261.084953 C44.34,261.084953 43.308,262.056953 43.308,263.736953 C43.308,265.416953 44.364,266.388953 45.708,266.388953 C47.052,266.388953 47.436,265.860953 47.436,265.860953 L47.436,264.636953 L45.696,264.636953 L45.696,263.160953 L49.332,263.160953 Z M56.64,264.456953 L58.74,267.876953 L56.484,267.876953 L54.744,264.708953 L54.132,264.708953 L54.132,267.876953 L52.188,267.876953 L52.188,259.596953 L55.164,259.596953 C56.088,259.596953 56.808,259.788953 57.348,260.184953 C57.9,260.592953 58.26,261.252953 58.26,262.080953 C58.26,263.652953 57.252,264.264953 56.64,264.456953 Z M56.304,262.152953 C56.304,261.732953 56.136,261.492953 55.884,261.312953 C55.644,261.132953 55.332,261.096953 54.888,261.096953 L54.12,261.096953 L54.12,263.220953 L54.888,263.220953 C55.332,263.220953 55.644,263.172953 55.884,262.992953 C56.136,262.812953 56.304,262.584953 56.304,262.152953 Z M69.252,263.748953 C69.252,266.424953 67.32,268.020953 64.86,268.020953 C62.4,268.020953 60.468,266.424953 60.468,263.748953 C60.468,261.072953 62.4,259.464953 64.86,259.464953 C67.32,259.464953 69.252,261.072953 69.252,263.748953 Z M67.284,263.700953 C67.284,262.128953 66.24,261.120953 64.86,261.120953 C63.48,261.120953 62.436,262.116953 62.436,263.700953 C62.436,265.284953 63.48,266.292953 64.86,266.292953 C66.24,266.292953 67.284,265.284953 67.284,263.700953 Z M80.64,259.596953 L82.668,259.596953 L80.268,267.876953 L78.312,267.876953 L76.74,262.200953 L75.168,267.876953 L73.212,267.876953 L70.812,259.596953 L72.84,259.596953 L74.28,265.176953 L75.768,259.596953 L77.712,259.596953 L79.212,265.176953 L80.64,259.596953 Z M90.396,259.596953 L90.396,261.132953 L88.26,261.132953 L88.26,267.876953 L86.316,267.876953 L86.316,261.132953 L84.18,261.132953 L84.18,259.596953 L90.396,259.596953 Z M99.912,259.596953 L99.912,267.876953 L97.968,267.876953 L97.968,264.408953 L94.644,264.408953 L94.644,267.876953 L92.7,267.876953 L92.7,259.596953 L94.644,259.596953 L94.644,262.800953 L97.968,262.800953 L97.968,259.596953 L99.912,259.596953 Z" id="PERCENTREVENUEGROWTH" fill="#AAAAAA" fill-rule="nonzero" transform="translate(4.956000, 263.742953) rotate(-90.000000) translate(-4.956000, -263.742953) "></path>
                        <path d="M545.956,122.676953 C545.956,125.124953 544.264,126.948953 541.792,126.948953 C539.32,126.948953 537.628,125.124953 537.628,122.676953 C537.628,120.228953 539.32,118.404953 541.792,118.404953 C544.264,118.404953 545.956,120.228953 545.956,122.676953 Z M539.464,122.676953 C539.464,124.260953 540.376,125.424953 541.792,125.424953 C543.196,125.424953 544.108,124.260953 544.108,122.676953 C544.108,121.092953 543.196,119.928953 541.792,119.928953 C540.376,119.928953 539.464,121.092953 539.464,122.676953 Z M548.248,118.476953 L553.792,118.476953 L553.792,120.024953 L550.048,120.024953 L550.048,121.992953 L553.12,121.992953 L553.12,123.468953 L550.048,123.468953 L550.048,126.876953 L548.248,126.876953 L548.248,118.476953 Z M560.152,118.476953 L563.572,118.476953 C565.42,118.476953 566.656,119.568953 566.656,121.272953 C566.656,122.352953 566.092,123.216953 565.216,123.636953 L566.872,126.876953 L564.88,126.876953 L563.476,124.056953 L561.952,124.056953 L561.952,126.876953 L560.152,126.876953 L560.152,118.476953 Z M561.952,119.976953 L561.952,122.556953 L563.428,122.556953 C564.28,122.556953 564.82,122.052953 564.82,121.272953 C564.82,120.480953 564.28,119.976953 563.428,119.976953 L561.952,119.976953 Z M569.056,118.476953 L574.696,118.476953 L574.696,120.024953 L570.856,120.024953 L570.856,121.908953 L573.976,121.908953 L573.976,123.384953 L570.856,123.384953 L570.856,125.328953 L574.828,125.328953 L574.828,126.876953 L569.056,126.876953 L569.056,118.476953 Z M576.292,118.476953 L578.2,118.476953 L580.216,124.692953 L582.28,118.476953 L584.14,118.476953 L581.296,126.876953 L579.148,126.876953 L576.292,118.476953 Z M586.06,118.476953 L591.7,118.476953 L591.7,120.024953 L587.86,120.024953 L587.86,121.908953 L590.98,121.908953 L590.98,123.384953 L587.86,123.384953 L587.86,125.328953 L591.832,125.328953 L591.832,126.876953 L586.06,126.876953 L586.06,118.476953 Z M594.112,126.876953 L594.112,118.476953 L595.744,118.476953 L599.308,123.768953 L599.308,118.476953 L601.084,118.476953 L601.084,126.876953 L599.44,126.876953 L595.876,121.584953 L595.876,126.876953 L594.112,126.876953 Z M603.652,118.476953 L605.452,118.476953 L605.452,123.348953 C605.452,124.680953 605.944,125.400953 607.096,125.400953 C608.26,125.400953 608.752,124.680953 608.752,123.348953 L608.752,118.476953 L610.552,118.476953 L610.552,123.252953 C610.552,125.640953 609.364,126.948953 607.096,126.948953 C604.84,126.948953 603.652,125.640953 603.652,123.252953 L603.652,118.476953 Z M613.132,118.476953 L618.772,118.476953 L618.772,120.024953 L614.932,120.024953 L614.932,121.908953 L618.052,121.908953 L618.052,123.384953 L614.932,123.384953 L614.932,125.328953 L618.904,125.328953 L618.904,126.876953 L613.132,126.876953 L613.132,118.476953 Z M625.024,122.676953 C625.024,120.096953 626.596,118.404953 629.14,118.404953 C631.132,118.404953 632.536,119.652953 632.74,121.476953 L630.94,121.476953 C630.736,120.540953 630.052,119.928953 629.044,119.928953 C627.676,119.928953 626.86,121.056953 626.86,122.676953 C626.86,124.284953 627.676,125.424953 629.044,125.424953 C630.052,125.424953 630.736,124.812953 630.94,123.876953 L632.74,123.876953 C632.536,125.700953 631.132,126.948953 629.14,126.948953 C626.596,126.948953 625.024,125.256953 625.024,122.676953 Z M642.892,122.676953 C642.892,125.124953 641.2,126.948953 638.728,126.948953 C636.256,126.948953 634.564,125.124953 634.564,122.676953 C634.564,120.228953 636.256,118.404953 638.728,118.404953 C641.2,118.404953 642.892,120.228953 642.892,122.676953 Z M636.4,122.676953 C636.4,124.260953 637.312,125.424953 638.728,125.424953 C640.132,125.424953 641.044,124.260953 641.044,122.676953 C641.044,121.092953 640.132,119.928953 638.728,119.928953 C637.312,119.928953 636.4,121.092953 636.4,122.676953 Z M645.184,118.476953 L647.548,118.476953 L649.876,124.644953 L652.132,118.476953 L654.448,118.476953 L654.448,126.876953 L652.732,126.876953 L652.732,121.248953 L650.548,126.876953 L649.084,126.876953 L646.9,121.248953 L646.9,126.876953 L645.184,126.876953 L645.184,118.476953 Z M657.088,118.476953 L662.728,118.476953 L662.728,120.024953 L658.888,120.024953 L658.888,121.908953 L662.008,121.908953 L662.008,123.384953 L658.888,123.384953 L658.888,125.328953 L662.86,125.328953 L662.86,126.876953 L657.088,126.876953 L657.088,118.476953 Z M664.804,124.116953 L666.568,124.140953 C666.628,124.956953 667.276,125.520953 668.308,125.520953 C669.136,125.520953 669.748,125.160953 669.748,124.500953 C669.748,123.792953 669.064,123.648953 667.66,123.372953 C666.244,123.108953 664.996,122.652953 664.996,120.948953 C664.996,119.472953 666.304,118.404953 668.128,118.404953 C670,118.404953 671.356,119.520953 671.392,121.044953 L669.628,121.044953 C669.556,120.336953 669.004,119.844953 668.128,119.844953 C667.36,119.844953 666.808,120.168953 666.808,120.816953 C666.808,121.500953 667.468,121.644953 668.86,121.908953 C670.3,122.172953 671.572,122.604953 671.56,124.296953 C671.548,125.832953 670.168,126.948953 668.284,126.948953 C666.244,126.948953 664.828,125.748953 664.804,124.116953 Z M678.016,118.476953 L683.56,118.476953 L683.56,120.024953 L679.816,120.024953 L679.816,121.992953 L682.888,121.992953 L682.888,123.468953 L679.816,123.468953 L679.816,126.876953 L678.016,126.876953 L678.016,118.476953 Z M685.744,118.476953 L689.164,118.476953 C691.012,118.476953 692.248,119.568953 692.248,121.272953 C692.248,122.352953 691.684,123.216953 690.808,123.636953 L692.464,126.876953 L690.472,126.876953 L689.068,124.056953 L687.544,124.056953 L687.544,126.876953 L685.744,126.876953 L685.744,118.476953 Z M687.544,119.976953 L687.544,122.556953 L689.02,122.556953 C689.872,122.556953 690.412,122.052953 690.412,121.272953 C690.412,120.480953 689.872,119.976953 689.02,119.976953 L687.544,119.976953 Z M702.52,122.676953 C702.52,125.124953 700.828,126.948953 698.356,126.948953 C695.884,126.948953 694.192,125.124953 694.192,122.676953 C694.192,120.228953 695.884,118.404953 698.356,118.404953 C700.828,118.404953 702.52,120.228953 702.52,122.676953 Z M696.028,122.676953 C696.028,124.260953 696.94,125.424953 698.356,125.424953 C699.76,125.424953 700.672,124.260953 700.672,122.676953 C700.672,121.092953 699.76,119.928953 698.356,119.928953 C696.94,119.928953 696.028,121.092953 696.028,122.676953 Z M704.812,118.476953 L707.176,118.476953 L709.504,124.644953 L711.76,118.476953 L714.076,118.476953 L714.076,126.876953 L712.36,126.876953 L712.36,121.248953 L710.176,126.876953 L708.712,126.876953 L706.528,121.248953 L706.528,126.876953 L704.812,126.876953 L704.812,118.476953 Z M537.964,134.476953 L541.384,134.476953 C543.232,134.476953 544.468,135.568953 544.468,137.272953 C544.468,138.352953 543.904,139.216953 543.028,139.636953 L544.684,142.876953 L542.692,142.876953 L541.288,140.056953 L539.764,140.056953 L539.764,142.876953 L537.964,142.876953 L537.964,134.476953 Z M539.764,135.976953 L539.764,138.556953 L541.24,138.556953 C542.092,138.556953 542.632,138.052953 542.632,137.272953 C542.632,136.480953 542.092,135.976953 541.24,135.976953 L539.764,135.976953 Z M546.868,134.476953 L552.508,134.476953 L552.508,136.024953 L548.668,136.024953 L548.668,137.908953 L551.788,137.908953 L551.788,139.384953 L548.668,139.384953 L548.668,141.328953 L552.64,141.328953 L552.64,142.876953 L546.868,142.876953 L546.868,134.476953 Z M554.368,138.676953 C554.368,136.096953 555.94,134.404953 558.484,134.404953 C560.476,134.404953 561.88,135.652953 562.084,137.476953 L560.284,137.476953 C560.08,136.540953 559.396,135.928953 558.388,135.928953 C557.02,135.928953 556.204,137.056953 556.204,138.676953 C556.204,140.284953 557.02,141.424953 558.388,141.424953 C559.396,141.424953 560.08,140.812953 560.284,139.876953 L562.084,139.876953 C561.88,141.700953 560.476,142.948953 558.484,142.948953 C555.94,142.948953 554.368,141.256953 554.368,138.676953 Z M564.328,134.476953 L567.748,134.476953 C569.596,134.476953 570.832,135.568953 570.832,137.272953 C570.832,138.352953 570.268,139.216953 569.392,139.636953 L571.048,142.876953 L569.056,142.876953 L567.652,140.056953 L566.128,140.056953 L566.128,142.876953 L564.328,142.876953 L564.328,134.476953 Z M566.128,135.976953 L566.128,138.556953 L567.604,138.556953 C568.456,138.556953 568.996,138.052953 568.996,137.272953 C568.996,136.480953 568.456,135.976953 567.604,135.976953 L566.128,135.976953 Z M573.124,134.476953 L574.924,134.476953 L574.924,139.348953 C574.924,140.680953 575.416,141.400953 576.568,141.400953 C577.732,141.400953 578.224,140.680953 578.224,139.348953 L578.224,134.476953 L580.024,134.476953 L580.024,139.252953 C580.024,141.640953 578.836,142.948953 576.568,142.948953 C574.312,142.948953 573.124,141.640953 573.124,139.252953 L573.124,134.476953 Z M582.604,134.476953 L584.404,134.476953 L584.404,142.876953 L582.604,142.876953 L582.604,134.476953 Z M586.576,134.476953 L593.224,134.476953 L593.224,136.024953 L590.8,136.024953 L590.8,142.876953 L589,142.876953 L589,136.024953 L586.576,136.024953 L586.576,134.476953 Z M595.408,134.476953 L601.048,134.476953 L601.048,136.024953 L597.208,136.024953 L597.208,137.908953 L600.328,137.908953 L600.328,139.384953 L597.208,139.384953 L597.208,141.328953 L601.18,141.328953 L601.18,142.876953 L595.408,142.876953 L595.408,134.476953 Z M603.46,142.876953 L603.46,134.476953 L606.376,134.476953 C608.944,134.476953 610.612,136.216953 610.612,138.676953 C610.612,141.136953 608.944,142.876953 606.376,142.876953 L603.46,142.876953 Z M605.26,141.376953 L606.376,141.376953 C607.936,141.376953 608.776,140.272953 608.776,138.676953 C608.776,137.080953 607.936,135.976953 606.376,135.976953 L605.26,135.976953 L605.26,141.376953 Z M617.092,134.476953 L620.512,134.476953 C622.336,134.476953 623.548,135.568953 623.548,137.272953 C623.548,138.964953 622.336,140.056953 620.512,140.056953 L618.892,140.056953 L618.892,142.876953 L617.092,142.876953 L617.092,134.476953 Z M618.892,135.976953 L618.892,138.556953 L620.344,138.556953 C621.184,138.556953 621.724,138.064953 621.724,137.272953 C621.724,136.468953 621.184,135.976953 620.344,135.976953 L618.892,135.976953 Z M625.696,134.476953 L627.496,134.476953 L627.496,139.348953 C627.496,140.680953 627.988,141.400953 629.14,141.400953 C630.304,141.400953 630.796,140.680953 630.796,139.348953 L630.796,134.476953 L632.596,134.476953 L632.596,139.252953 C632.596,141.640953 631.408,142.948953 629.14,142.948953 C626.884,142.948953 625.696,141.640953 625.696,139.252953 L625.696,134.476953 Z M635.176,134.476953 L638.368,134.476953 C640.312,134.476953 641.44,135.280953 641.44,136.684953 C641.44,137.740953 640.816,138.376953 639.784,138.568953 C640.972,138.724953 641.74,139.312953 641.74,140.512953 C641.74,141.964953 640.588,142.876953 638.524,142.876953 L635.176,142.876953 L635.176,134.476953 Z M636.976,135.892953 L636.976,137.932953 L638.416,137.932953 C639.184,137.932953 639.64,137.536953 639.64,136.912953 C639.64,136.288953 639.196,135.892953 638.416,135.892953 L636.976,135.892953 Z M636.976,139.324953 L636.976,141.448953 L638.536,141.448953 C639.4,141.448953 639.892,141.052953 639.892,140.404953 C639.892,139.720953 639.388,139.324953 638.536,139.324953 L636.976,139.324953 Z M644.128,142.876953 L644.128,134.476953 L645.928,134.476953 L645.928,141.328953 L649.264,141.328953 L649.264,142.876953 L644.128,142.876953 Z M651.436,134.476953 L653.236,134.476953 L653.236,142.876953 L651.436,142.876953 L651.436,134.476953 Z M655.528,140.116953 L657.292,140.140953 C657.352,140.956953 658,141.520953 659.032,141.520953 C659.86,141.520953 660.472,141.160953 660.472,140.500953 C660.472,139.792953 659.788,139.648953 658.384,139.372953 C656.968,139.108953 655.72,138.652953 655.72,136.948953 C655.72,135.472953 657.028,134.404953 658.852,134.404953 C660.724,134.404953 662.08,135.520953 662.116,137.044953 L660.352,137.044953 C660.28,136.336953 659.728,135.844953 658.852,135.844953 C658.084,135.844953 657.532,136.168953 657.532,136.816953 C657.532,137.500953 658.192,137.644953 659.584,137.908953 C661.024,138.172953 662.296,138.604953 662.284,140.296953 C662.272,141.832953 660.892,142.948953 659.008,142.948953 C656.968,142.948953 655.552,141.748953 655.528,140.116953 Z M664.564,134.476953 L666.364,134.476953 L666.364,137.848953 L669.7,137.848953 L669.7,134.476953 L671.5,134.476953 L671.5,142.876953 L669.7,142.876953 L669.7,139.408953 L666.364,139.408953 L666.364,142.876953 L664.564,142.876953 L664.564,134.476953 Z M674.128,134.476953 L679.768,134.476953 L679.768,136.024953 L675.928,136.024953 L675.928,137.908953 L679.048,137.908953 L679.048,139.384953 L675.928,139.384953 L675.928,141.328953 L679.9,141.328953 L679.9,142.876953 L674.128,142.876953 L674.128,134.476953 Z M682.18,134.476953 L685.6,134.476953 C687.448,134.476953 688.684,135.568953 688.684,137.272953 C688.684,138.352953 688.12,139.216953 687.244,139.636953 L688.9,142.876953 L686.908,142.876953 L685.504,140.056953 L683.98,140.056953 L683.98,142.876953 L682.18,142.876953 L682.18,134.476953 Z M683.98,135.976953 L683.98,138.556953 L685.456,138.556953 C686.308,138.556953 686.848,138.052953 686.848,137.272953 C686.848,136.480953 686.308,135.976953 685.456,135.976953 L683.98,135.976953 Z M690.604,140.116953 L692.368,140.140953 C692.428,140.956953 693.076,141.520953 694.108,141.520953 C694.936,141.520953 695.548,141.160953 695.548,140.500953 C695.548,139.792953 694.864,139.648953 693.46,139.372953 C692.044,139.108953 690.796,138.652953 690.796,136.948953 C690.796,135.472953 692.104,134.404953 693.928,134.404953 C695.8,134.404953 697.156,135.520953 697.192,137.044953 L695.428,137.044953 C695.356,136.336953 694.804,135.844953 693.928,135.844953 C693.16,135.844953 692.608,136.168953 692.608,136.816953 C692.608,137.500953 693.268,137.644953 694.66,137.908953 C696.1,138.172953 697.372,138.604953 697.36,140.296953 C697.348,141.832953 695.968,142.948953 694.084,142.948953 C692.044,142.948953 690.628,141.748953 690.604,140.116953 Z" id="OFREVENUECOMESFROMRECRUITEDPUBLISHERS" fill="#025450" fill-rule="nonzero"></path>
                        <path d="M854.321168,178.761757 L854.268084,177.763167 C854.209448,176.660155 853.267746,175.813521 852.164734,175.872157 C851.061722,175.930792 850.215088,176.872494 850.273723,177.975506 L850.326808,178.974096 C850.385444,180.077108 851.327146,180.923742 852.430158,180.865107 C853.53317,180.806471 854.379804,179.864769 854.321168,178.761757 Z M853.790321,168.775857 L853.737236,167.777267 C853.6786,166.674255 852.736899,165.827621 851.633887,165.886256 C850.530874,165.944892 849.68424,166.886594 849.742876,167.989606 L849.795961,168.988196 C849.854597,170.091208 850.796298,170.937842 851.89931,170.879206 C853.002322,170.820571 853.848957,169.878869 853.790321,168.775857 Z M853.259473,158.789957 L853.206389,157.791367 C853.147753,156.688355 852.206051,155.841721 851.103039,155.900356 C850.000027,155.958992 849.153393,156.900694 849.212028,158.003706 L849.265113,159.002296 C849.323749,160.105308 850.265451,160.951942 851.368463,160.893306 C852.471475,160.834671 853.318109,159.892969 853.259473,158.789957 Z M852.728626,148.804057 L852.675541,147.805467 C852.616905,146.702455 851.675204,145.85582 850.572192,145.914456 C849.469179,145.973092 848.622545,146.914794 848.681181,148.017806 L848.734266,149.016396 C848.792902,150.119408 849.734603,150.966042 850.837615,150.907406 C851.940627,150.84877 852.787262,149.907069 852.728626,148.804057 Z M852.197778,138.818157 L852.144694,137.819567 C852.086058,136.716555 851.144356,135.86992 850.041344,135.928556 C848.938332,135.987192 848.091698,136.928894 848.150334,138.031906 L848.203418,139.030496 C848.262054,140.133508 849.203756,140.980142 850.306768,140.921506 C851.40978,140.86287 852.256414,139.921169 852.197778,138.818157 Z" id="Path-3-Copy" fill="#42BFB6" fill-rule="nonzero" transform="translate(851.235751, 158.396831) rotate(3.000000) translate(-851.235751, -158.396831) "></path>
                        <path d="M854.403758,295.553089 L854.351422,294.55446 C854.293614,293.451404 853.352547,292.604064 852.249491,292.661873 C851.146436,292.719681 850.299096,293.660748 850.356904,294.763804 L850.40924,295.762433 C850.467049,296.865489 851.408116,297.712829 852.511171,297.65502 C853.614227,297.597212 854.461567,296.656145 854.403758,295.553089 Z M853.880399,285.566794 L853.828063,284.568164 C853.770254,283.465109 852.829188,282.617769 851.726132,282.675577 C850.623076,282.733386 849.775736,283.674453 849.833545,284.777508 L849.885881,285.776138 C849.943689,286.879194 850.884756,287.726534 851.987812,287.668725 C853.090867,287.610916 853.938208,286.66985 853.880399,285.566794 Z M853.357039,275.580499 L853.304703,274.581869 C853.246895,273.478813 852.305828,272.631473 851.202772,272.689282 C850.099717,272.747091 849.252376,273.688157 849.310185,274.791213 L849.362521,275.789842 C849.42033,276.892898 850.361396,277.740238 851.464452,277.68243 C852.567508,277.624621 853.414848,276.683554 853.357039,275.580499 Z M852.83368,265.594203 L852.781344,264.595574 C852.723535,263.492518 851.782469,262.645178 850.679413,262.702987 C849.576357,262.760795 848.729017,263.701862 848.786826,264.804918 L848.839162,265.803547 C848.89697,266.906603 849.838037,267.753943 850.941093,267.696134 C852.044148,267.638326 852.891488,266.697259 852.83368,265.594203 Z M852.31032,255.607908 L852.257984,254.609278 C852.200176,253.506223 851.259109,252.658883 850.156053,252.716691 C849.052998,252.7745 848.205657,253.715567 848.263466,254.818622 L848.315802,255.817252 C848.373611,256.920308 849.314677,257.767648 850.417733,257.709839 C851.520789,257.65203 852.368129,256.710964 852.31032,255.607908 Z" id="Path-3-Copy-2" fill="#42BFB6" fill-rule="nonzero" transform="translate(851.333612, 275.185856) rotate(3.000000) translate(-851.333612, -275.185856) "></path>
                        <path d="M540.778,98.0129531 C538.072,94.1189531 536.554,88.6409531 536.554,82.2389531 C536.554,66.7949531 543.946,58.2149531 555.562,58.2149531 C564.208,58.2149531 571.006,63.2309531 572.062,71.6789531 L562.69,71.6789531 C561.832,67.9829531 558.994,65.8709531 554.836,65.8709531 C548.896,65.8709531 545.53,70.6889531 545.53,79.2029531 L545.53,80.3249531 C545.728,79.9949531 545.86,79.7309531 546.124,79.3349531 C548.302,76.0349531 552.262,73.9229531 557.014,73.9229531 C566.32,73.9229531 572.656,80.2589531 572.656,89.5649531 C572.656,99.0029531 565.726,105.272953 555.43,105.272953 C548.962,105.272953 544.012,102.632953 540.778,98.0129531 Z M563.218,89.5649531 C563.218,84.8129531 560.182,81.3149531 555.496,81.3149531 C550.81,81.3149531 547.576,84.7469531 547.576,89.5649531 C547.576,94.3829531 550.678,97.8149531 555.364,97.8149531 C560.05,97.8149531 563.218,94.3169531 563.218,89.5649531 Z M577.276,82.8329531 L577.276,80.7209531 C577.276,66.9269531 585.13,58.2809531 596.284,58.2809531 C607.504,58.2809531 615.358,66.9269531 615.358,80.7209531 L615.358,82.8329531 C615.358,96.8909531 607.504,105.272953 596.284,105.272953 C585.13,105.272953 577.276,96.8909531 577.276,82.8329531 Z M605.854,81.0509531 C605.854,71.5469531 601.96,66.3329531 596.284,66.3329531 C590.674,66.3329531 586.78,71.5469531 586.78,81.0509531 L586.78,82.5029531 C586.78,92.0729531 590.674,97.2209531 596.284,97.2209531 C601.96,97.2209531 605.854,92.0729531 605.854,82.5029531 L605.854,81.0509531 Z M620.572,69.6989531 C620.572,63.0989531 625.72,58.2809531 632.65,58.2809531 C639.646,58.2809531 644.728,63.0989531 644.728,69.6989531 C644.728,76.2989531 639.646,81.1169531 632.65,81.1169531 C625.72,81.1169531 620.572,76.2989531 620.572,69.6989531 Z M628.03,104.876953 L659.71,58.6769531 L668.884,58.6769531 L637.204,104.876953 L628.03,104.876953 Z M637.27,69.6989531 C637.27,66.9929531 635.29,65.0129531 632.65,65.0129531 C630.076,65.0129531 628.096,66.9929531 628.096,69.6989531 C628.096,72.4049531 630.076,74.3849531 632.65,74.3849531 C635.29,74.3849531 637.27,72.4049531 637.27,69.6989531 Z M652.12,93.8549531 C652.12,87.2549531 657.202,82.4369531 664.198,82.4369531 C671.128,82.4369531 676.276,87.2549531 676.276,93.8549531 C676.276,100.454953 671.128,105.272953 664.198,105.272953 C657.202,105.272953 652.12,100.454953 652.12,93.8549531 Z M668.752,93.8549531 C668.752,91.2149531 666.772,89.1689531 664.198,89.1689531 C661.558,89.1689531 659.578,91.2149531 659.578,93.8549531 C659.578,96.5609531 661.558,98.5409531 664.198,98.5409531 C666.772,98.5409531 668.752,96.5609531 668.752,93.8549531 Z" id="60%" fill="#025450" fill-rule="nonzero"></path>
                        <polygon id="Path-2" fill-opacity="0.321159309" fill="#293990" points="851.244 495.397949 37.27525 495.397949 37.27525 401.878906 200.748464 441.039804 363.692787 427.691013 526.646315 373.368263 689.266461 329.708008 851.244 309.780273"></polygon>
                        <polygon id="Path-4" fill="url(#linearGradient-2)" points="37.244 382.994141 200.507672 358.666016 363.27818 318.667969 526.204938 262.137695 688.867012 201.525391 851.21275 123.876953 851.21275 495.613281 37.244 495.613281"></polygon>
                        <polygon id="Path-2" fill="url(#linearGradient-3)" fill-rule="nonzero" points="689.871538 331.755305 851.486893 311.98129 851.001107 308.010898 689.107866 327.818913 526.129259 371.436256 526.013808 371.470914 363.289098 425.717384 200.892929 439.021269 38.2886219 401.867632 37.3976203 405.767134 200.603998 443.058339 364.096477 429.664642 527.221618 375.284682"></polygon>
                        <circle id="Oval-Copy-2" fill-opacity="0.192389642" fill="#42BFB6" cx="851.244" cy="123.793093" r="16"></circle>
                        <circle id="Oval" fill="#FFFFFF" cx="851" cy="124" r="5"></circle>
                        <circle id="Oval-Copy" fill-opacity="0.150158435" fill="#5575C4" cx="851.244" cy="309.876953" r="18"></circle>
                        <circle id="Oval" fill="#FFFFFF" cx="851" cy="312" r="5"></circle>
                        <path d="M851.244,130.793093 C855.109993,130.793093 858.244,127.659086 858.244,123.793093 C858.244,119.9271 855.109993,116.793093 851.244,116.793093 C847.378007,116.793093 844.244,119.9271 844.244,123.793093 C844.244,127.659086 847.378007,130.793093 851.244,130.793093 Z M851.244,126.793093 C849.587146,126.793093 848.244,125.449947 848.244,123.793093 C848.244,122.136239 849.587146,120.793093 851.244,120.793093 C852.900854,120.793093 854.244,122.136239 854.244,123.793093 C854.244,125.449947 852.900854,126.793093 851.244,126.793093 Z" id="Oval-Copy-3" fill="#42BFB6" fill-rule="nonzero"></path>
                        <path d="M851.244,316.876953 C855.109993,316.876953 858.244,313.742946 858.244,309.876953 C858.244,306.01096 855.109993,302.876953 851.244,302.876953 C847.378007,302.876953 844.244,306.01096 844.244,309.876953 C844.244,313.742946 847.378007,316.876953 851.244,316.876953 Z M851.244,312.876953 C849.587146,312.876953 848.244,311.533807 848.244,309.876953 C848.244,308.220099 849.587146,306.876953 851.244,306.876953 C852.900854,306.876953 854.244,308.220099 854.244,309.876953 C854.244,311.533807 852.900854,312.876953 851.244,312.876953 Z" id="Oval-Copy" fill="#5575C4" fill-rule="nonzero"></path>
                        <polygon id="Triangle" fill="#5575C4" transform="translate(916.966887, 300.599840) rotate(83.000000) translate(-916.966887, -300.599840) " points="916.966887 294.09984 923.466887 307.09984 910.466887 307.09984"></polygon>
                        <polygon id="Triangle" fill="#42BFB6" transform="translate(914.893983, 81.979882) rotate(53.000000) translate(-914.893983, -81.979882) " points="914.893983 75.4798816 921.393983 88.4798816 908.393983 88.4798816"></polygon>
                        <circle id="Oval-2" fill="#49C5B1" fill-rule="nonzero" cx="41.244" cy="5.87695312" r="4"></circle>
                        <circle id="Oval-2-Copy" fill="#6A7F9C" fill-rule="nonzero" cx="262.244" cy="5.87695312" r="4"></circle>
                        <path d="M822.616,203.544953 L825.796,200.904953 C826.528,200.304953 826.984,199.800953 826.984,199.116953 C826.984,198.288953 826.444,197.844953 825.64,197.844953 C824.872,197.844953 824.32,198.408953 824.32,199.308953 L824.32,199.440953 L822.58,199.440953 L822.58,199.212953 C822.58,197.616953 823.78,196.392953 825.64,196.392953 C827.656,196.392953 828.736,197.472953 828.736,199.044953 C828.736,200.280953 828.052,201.036953 826.996,201.888953 L825.112,203.424953 L828.772,203.424953 L828.772,204.876953 L822.616,204.876953 L822.616,203.544953 Z M833.284,200.592953 L830.668,196.476953 L832.852,196.476953 L834.508,199.116953 L836.2,196.476953 L838.168,196.476953 L835.552,200.592953 L838.3,204.876953 L836.104,204.876953 L834.316,202.056953 L832.492,204.876953 L830.536,204.876953 L833.284,200.592953 Z M844.12,196.476953 L850.768,196.476953 L850.768,198.024953 L848.344,198.024953 L848.344,204.876953 L846.544,204.876953 L846.544,198.024953 L844.12,198.024953 L844.12,196.476953 Z M852.952,196.476953 L854.752,196.476953 L854.752,199.848953 L858.088,199.848953 L858.088,196.476953 L859.888,196.476953 L859.888,204.876953 L858.088,204.876953 L858.088,201.408953 L854.752,201.408953 L854.752,204.876953 L852.952,204.876953 L852.952,196.476953 Z M862.516,196.476953 L868.156,196.476953 L868.156,198.024953 L864.316,198.024953 L864.316,199.908953 L867.436,199.908953 L867.436,201.384953 L864.316,201.384953 L864.316,203.328953 L868.288,203.328953 L868.288,204.876953 L862.516,204.876953 L862.516,196.476953 Z M822.964,212.476953 L826.384,212.476953 C828.232,212.476953 829.468,213.568953 829.468,215.272953 C829.468,216.352953 828.904,217.216953 828.028,217.636953 L829.684,220.876953 L827.692,220.876953 L826.288,218.056953 L824.764,218.056953 L824.764,220.876953 L822.964,220.876953 L822.964,212.476953 Z M824.764,213.976953 L824.764,216.556953 L826.24,216.556953 C827.092,216.556953 827.632,216.052953 827.632,215.272953 C827.632,214.480953 827.092,213.976953 826.24,213.976953 L824.764,213.976953 Z M831.868,212.476953 L837.508,212.476953 L837.508,214.024953 L833.668,214.024953 L833.668,215.908953 L836.788,215.908953 L836.788,217.384953 L833.668,217.384953 L833.668,219.328953 L837.64,219.328953 L837.64,220.876953 L831.868,220.876953 L831.868,212.476953 Z M839.104,212.476953 L841.012,212.476953 L843.028,218.692953 L845.092,212.476953 L846.952,212.476953 L844.108,220.876953 L841.96,220.876953 L839.104,212.476953 Z M848.872,212.476953 L854.512,212.476953 L854.512,214.024953 L850.672,214.024953 L850.672,215.908953 L853.792,215.908953 L853.792,217.384953 L850.672,217.384953 L850.672,219.328953 L854.644,219.328953 L854.644,220.876953 L848.872,220.876953 L848.872,212.476953 Z M856.924,220.876953 L856.924,212.476953 L858.556,212.476953 L862.12,217.768953 L862.12,212.476953 L863.896,212.476953 L863.896,220.876953 L862.252,220.876953 L858.688,215.584953 L858.688,220.876953 L856.924,220.876953 Z M866.464,212.476953 L868.264,212.476953 L868.264,217.348953 C868.264,218.680953 868.756,219.400953 869.908,219.400953 C871.072,219.400953 871.564,218.680953 871.564,217.348953 L871.564,212.476953 L873.364,212.476953 L873.364,217.252953 C873.364,219.640953 872.176,220.948953 869.908,220.948953 C867.652,220.948953 866.464,219.640953 866.464,217.252953 L866.464,212.476953 Z M875.944,212.476953 L881.584,212.476953 L881.584,214.024953 L877.744,214.024953 L877.744,215.908953 L880.864,215.908953 L880.864,217.384953 L877.744,217.384953 L877.744,219.328953 L881.716,219.328953 L881.716,220.876953 L875.944,220.876953 L875.944,212.476953 Z M822.628,232.676953 C822.628,230.096953 824.212,228.404953 826.792,228.404953 C828.82,228.404953 830.224,229.652953 830.452,231.464953 L828.676,231.464953 C828.46,230.540953 827.776,229.928953 826.744,229.928953 C825.34,229.928953 824.464,231.056953 824.464,232.676953 C824.464,234.296953 825.304,235.424953 826.744,235.424953 C827.704,235.424953 828.676,234.920953 828.844,233.744953 L828.844,233.636953 L826.756,233.636953 L826.756,232.208953 L830.512,232.208953 L830.512,236.876953 L829.264,236.876953 L829.072,235.832953 C828.628,236.420953 827.812,236.948953 826.624,236.948953 C824.224,236.948953 822.628,235.256953 822.628,232.676953 Z M833.152,228.476953 L836.572,228.476953 C838.42,228.476953 839.656,229.568953 839.656,231.272953 C839.656,232.352953 839.092,233.216953 838.216,233.636953 L839.872,236.876953 L837.88,236.876953 L836.476,234.056953 L834.952,234.056953 L834.952,236.876953 L833.152,236.876953 L833.152,228.476953 Z M834.952,229.976953 L834.952,232.556953 L836.428,232.556953 C837.28,232.556953 837.82,232.052953 837.82,231.272953 C837.82,230.480953 837.28,229.976953 836.428,229.976953 L834.952,229.976953 Z M849.928,232.676953 C849.928,235.124953 848.236,236.948953 845.764,236.948953 C843.292,236.948953 841.6,235.124953 841.6,232.676953 C841.6,230.228953 843.292,228.404953 845.764,228.404953 C848.236,228.404953 849.928,230.228953 849.928,232.676953 Z M843.436,232.676953 C843.436,234.260953 844.348,235.424953 845.764,235.424953 C847.168,235.424953 848.08,234.260953 848.08,232.676953 C848.08,231.092953 847.168,229.928953 845.764,229.928953 C844.348,229.928953 843.436,231.092953 843.436,232.676953 Z M851.284,228.476953 L853.144,228.464953 L854.692,234.608953 L856.336,228.476953 L857.956,228.476953 L859.552,234.608953 L861.136,228.476953 L862.96,228.476953 L860.632,236.876953 L858.556,236.876953 L857.104,231.296953 L855.688,236.876953 L853.612,236.876953 L851.284,228.476953 Z M864.508,228.476953 L871.156,228.476953 L871.156,230.024953 L868.732,230.024953 L868.732,236.876953 L866.932,236.876953 L866.932,230.024953 L864.508,230.024953 L864.508,228.476953 Z M873.34,228.476953 L875.14,228.476953 L875.14,231.848953 L878.476,231.848953 L878.476,228.476953 L880.276,228.476953 L880.276,236.876953 L878.476,236.876953 L878.476,233.408953 L875.14,233.408953 L875.14,236.876953 L873.34,236.876953 L873.34,228.476953 Z" id="2XTHEREVENUEGROWTH" fill="#025450" fill-rule="nonzero"></path>
                    </g>
                </g>
            </g>
        </g>
    </g>
</svg>