<?xml version="1.0" encoding="UTF-8"?>
<svg width="18px" height="16px" viewBox="0 0 18 16" version="1.1" xmlns="http://www.w3.org/2000/svg" xmlns:xlink="http://www.w3.org/1999/xlink">
    <!-- Generator: Sketch 51.1 (57501) - http://www.bohemiancoding.com/sketch -->
    <title>Fill 263</title>
    <desc>Created with Sketch.</desc>
    <defs></defs>
    <g id="Symbols" stroke="none" stroke-width="1" fill="none" fill-rule="evenodd">
        <g id="footer/dark_icons_fill" transform="translate(-883.000000, -106.000000)" fill="#AAABAD">
            <g id="Group-12" transform="translate(-2.000000, 0.000000)">
                <g id="Group-2" transform="translate(810.000000, 104.000000)">
                    <path d="M87.310743,10.7612728 C86.4173678,10.7612728 85.6937744,11.4819283 85.6937744,12.3698789 L85.6937744,18 L81.6513527,18 C81.6513527,18 81.6990533,8.34836375 81.6513527,7.54406072 L85.6937744,7.54406072 L85.6937744,8.73845071 C85.6937744,8.73845071 86.9453081,7.57784145 88.8783941,7.57784145 C91.2723162,7.57784145 92.9701333,9.30146283 92.9701333,12.6481677 L92.9701333,18 L88.9277117,18 L88.9277117,12.3698789 C88.9277117,11.4819283 88.2041182,10.7612728 87.310743,10.7612728 L87.310743,10.7612728 Z M78.0050884,5.93545468 L77.9816423,5.93545468 C76.7600225,5.93545468 75.9701333,4.98476851 75.9701333,3.93997889 C75.9701333,2.87106017 76.7842771,2 78.0293429,2 C79.2752173,2 80.0408519,2.89921078 80.0651065,3.96812949 C80.0651065,5.01372342 79.2752173,5.93545468 78.0050884,5.93545468 L78.0050884,5.93545468 Z M80.0343841,18 L75.9919624,18 L75.9919624,7.54406072 L80.0343841,7.54406072 L80.0343841,18 Z" id="Fill-263"></path>
                </g>
            </g>
        </g>
    </g>
</svg>