<?xml version="1.0" encoding="UTF-8"?>
<svg width="20px" height="16px" viewBox="0 0 20 16" version="1.1" xmlns="http://www.w3.org/2000/svg" xmlns:xlink="http://www.w3.org/1999/xlink">
    <!-- Generator: Sketch 51.1 (57501) - http://www.bohemiancoding.com/sketch -->
    <title>Fill 264</title>
    <desc>Created with Sketch.</desc>
    <defs></defs>
    <g id="Symbols" stroke="none" stroke-width="1" fill="none" fill-rule="evenodd">
        <g id="footer/dark_icons_fill" transform="translate(-841.000000, -107.000000)" fill="#AAABAD">
            <g id="Group-12" transform="translate(-2.000000, 0.000000)">
                <g id="Group-2" transform="translate(810.000000, 104.000000)">
                    <path d="M50.9797333,5.08888889 C51.8144,4.58933333 51.8526222,4.23911111 52.1539556,3.29422222 C51.3735111,3.75733333 50.5086222,4.09422222 49.5886222,4.27644444 C48.8526222,3.49155556 47.8019556,3 46.6410667,3 C44.4099556,3 42.6019556,4.80977778 42.6019556,7.03911111 C42.6019556,7.35644444 42.6375111,7.66488889 42.7059556,7.96 C39.3486222,7.792 36.3726222,6.18311111 34.3806222,3.73866667 C34.0330667,4.336 33.8330667,5.03022222 33.8330667,5.77066667 C33.8330667,7.17244444 34.5468444,8.408 35.6304,9.13244444 C34.9681778,9.11111111 34.3459556,8.92977778 33.8010667,8.62755556 C33.8001778,8.64444444 33.8001778,8.66044444 33.8001778,8.67822222 C33.8001778,10.6355556 35.1930667,12.2675556 37.0410667,12.6391111 C36.4490667,12.8 35.8250667,12.8248889 35.2161778,12.7084444 C35.7308444,14.3128889 37.2224,15.4808889 38.9895111,15.5137778 C37.2615111,16.8684444 35.1184,17.4328889 33.0099556,17.1857778 C34.7975111,18.3315556 36.9201778,19 39.2010667,19 C46.6312889,19 50.6926222,12.8453333 50.6926222,7.50755556 C50.6926222,7.33155556 50.6899556,7.15911111 50.6819556,6.98488889 C51.4704,6.416 52.4188444,5.88533333 52.9601778,5.07466667 C52.2366222,5.39733333 51.6268444,5.408 50.9797333,5.08888889 Z" id="Fill-264"></path>
                </g>
            </g>
        </g>
    </g>
</svg>