<?xml version="1.0" encoding="UTF-8"?>
<svg width="38px" height="41px" viewBox="0 0 38 41" version="1.1" xmlns="http://www.w3.org/2000/svg" xmlns:xlink="http://www.w3.org/1999/xlink">
    <title>Group 20</title>
    <g id="Page-1" stroke="none" stroke-width="1" fill="none" fill-rule="evenodd" stroke-linecap="round" stroke-linejoin="round">
        <g id="icons-copy" transform="translate(-427.000000, -556.000000)" stroke="#025450" stroke-width="2">
            <g id="Group-20" transform="translate(428.000000, 557.000000)">
                <g id="Group-9" transform="translate(0.000000, 12.000000)">
                    <polyline id="Stroke-1" points="10.4 7.73529412 10.4 21.8817059 5.6 25.2058824 0.8 21.8817059 0.8 7.73529412"></polyline>
                    <line x1="5.6" y1="10.9117647" x2="5.6" y2="25.2058824" id="Stroke-5"></line>
                    <polyline id="Stroke-7" points="23.2 0.794117647 23.2 22.8817059 18.4 26.2058824 13.6 22.8817059 13.6 0.794117647"></polyline>
                    <polygon id="Stroke-3" points="10.4 7.73529412 5.6 10.9117647 0.8 7.73529412 5.6 4.55882353"></polygon>
                </g>
                <g id="Group-19" transform="translate(14.000000, 0.000000)">
                    <line x1="3.79166667" y1="15.0416667" x2="3.79166667" y2="37.2083333" id="Stroke-11"></line>
                    <polyline id="Stroke-13" points="21.2083333 3.95833333 21.2083333 33.8944167 16.4583333 37.2083333 11.7083333 33.8944167 11.7083333 3.95833333"></polyline>
                    <line x1="16.4583333" y1="7.125" x2="16.4583333" y2="37.2083333" id="Stroke-17"></line>
                    <polygon id="Stroke-10" points="9 12 4.5 15 0 12 4.5 9"></polygon>
                    <polygon id="Stroke-15" points="21.2083333 3.95833333 16.4583333 7.125 11.7083333 3.95833333 16.4583333 0.791666667"></polygon>
                </g>
            </g>
        </g>
    </g>
</svg>