<?xml version="1.0" encoding="UTF-8"?>
<svg width="40px" height="38px" viewBox="0 0 40 38" version="1.1" xmlns="http://www.w3.org/2000/svg" xmlns:xlink="http://www.w3.org/1999/xlink">
    <title>Group 23</title>
    <g id="Page-1" stroke="none" stroke-width="1" fill="none" fill-rule="evenodd" stroke-linejoin="round">
        <g id="icons-copy" transform="translate(-516.000000, -558.000000)">
            <g id="Group-23" transform="translate(517.000000, 559.000000)">
                <polyline id="Stroke-1" stroke="#025450" stroke-width="2" points="22 20 16 17.7229693 16 14"></polyline>
                <g id="Group-22">
                    <path d="M9.5,14.3804348 L9.5,17.7957391 L3.26008333,20.0042609 C1.76541667,20.5333043 0.791666667,21.9294783 0.791666667,23.4962609 L0.791666667,25.8253043 L17.4166667,25.8253043" id="Stroke-2" stroke="#025450" stroke-width="2"></path>
                    <path d="M18.7602833,7.90857391 C18.7602833,12.0031826 15.96095,15.3230087 12.5108667,15.3230087 C9.0592,15.3230087 6.25986667,12.0031826 6.25986667,7.90857391 C6.25986667,3.81396522 9.0592,0.495704348 12.5108667,0.495704348 C15.96095,0.495704348 18.7602833,3.81396522 18.7602833,7.90857391 Z" id="Stroke-4" stroke="#025450" stroke-width="2"></path>
                    <path d="M18.7108833,7.23913043 C18.5018833,7.26573913 18.3293,7.25165217 18.1187167,7.29078261 C15.9907167,7.69617391 14.6227167,6.93391304 13.45105,4.90695652 C12.7464667,6.23895652 10.5503833,7.29078261 8.7438,7.29078261 C7.85555,7.29078261 7.0908,7.11078261 6.32446667,6.71478261" id="Stroke-6" stroke="#025450" stroke-width="2"></path>
                    <line x1="26.125" y1="16.2298957" x2="26.125" y2="14.1841565" id="Stroke-8" stroke="#025450" stroke-width="2" stroke-linecap="round"></line>
                    <path d="M22.8022167,0.495234783 C26.2538833,0.495234783 29.0516333,3.81349565 29.0516333,7.90810435 C29.0516333,12.0042783 26.2538833,15.3241043 22.8022167,15.3241043" id="Stroke-10" stroke="#025450" stroke-width="2" stroke-linecap="round"></path>
                    <path d="M29.00255,7.23913043 C28.79355,7.26573913 28.6209667,7.25165217 28.4103833,7.29078261 C26.2823833,7.69617391 24.9143833,6.93391304 23.7427167,4.90695652" id="Stroke-12" stroke="#025450" stroke-width="2" stroke-linecap="round"></path>
                    <path d="M37.2083333,27.3913043 C37.2083333,31.7144348 33.6648333,35.2173913 29.2916667,35.2173913 C24.9185,35.2173913 21.375,31.7144348 21.375,27.3913043 C21.375,23.0697391 24.9185,19.5652174 29.2916667,19.5652174 C33.6648333,19.5652174 37.2083333,23.0697391 37.2083333,27.3913043 Z" id="Stroke-14" stroke="#025450" stroke-width="2"></path>
                    <path d="M27.4562667,29.1139826 C27.4562667,30.117287 28.2780167,30.9280696 29.29135,30.9280696 C30.3046833,30.9280696 31.1264333,30.117287 31.1264333,29.1139826 C31.1264333,28.1122435 30.3046833,27.2998957 29.29135,27.2998957 C28.2780167,27.2998957 27.4562667,26.4875478 27.4562667,25.4858087 C27.4562667,24.4840696 28.2780167,23.6701565 29.29135,23.6701565 C30.3046833,23.6701565 31.1264333,24.4840696 31.1264333,25.4858087" id="Stroke-16" stroke="#5575C4" stroke-width="1.75" stroke-linecap="round"></path>
                    <line x1="29.2916667" y1="30.9283826" x2="29.2916667" y2="32.1367304" id="Stroke-18" stroke="#5575C4" stroke-width="2" stroke-linecap="round"></line>
                    <line x1="29.2916667" y1="22.4618087" x2="29.2916667" y2="23.6701565" id="Stroke-20" stroke="#5575C4" stroke-width="1.75" stroke-linecap="round"></line>
                </g>
            </g>
        </g>
    </g>
</svg>