<?xml version="1.0" encoding="UTF-8"?>
<svg width="40px" height="40px" viewBox="0 0 40 40" version="1.1" xmlns="http://www.w3.org/2000/svg" xmlns:xlink="http://www.w3.org/1999/xlink">
    <title>multiple-11</title>
    <g id="Page-1" stroke="none" stroke-width="1" fill="none" fill-rule="evenodd" stroke-linecap="round" stroke-linejoin="round">
        <g id="icons-copy" transform="translate(-783.000000, -112.000000)" stroke-width="2">
            <g id="multiple-11" transform="translate(784.000000, 113.000000)">
                <path d="M6.04545455,9.5 L6.04545455,9.5 C4.13768182,9.5 2.59090909,7.95322727 2.59090909,6.04545455 L2.59090909,6.04545455 C2.59090909,4.13768182 4.13768182,2.59090909 6.04545455,2.59090909 L6.04545455,2.59090909 C7.95322727,2.59090909 9.5,4.13768182 9.5,6.04545455 L9.5,6.04545455 C9.5,7.95322727 7.95322727,9.5 6.04545455,9.5 Z" id="Shape" stroke="#5575C4" fill="#5575C4"></path>
                <path d="M8.63636364,35.4090909 L3.45454545,35.4090909 L2.59090909,25.9090909 L0,25.0454545 L0,17.2727273 C0,15.3649545 1.54677273,13.8181818 3.45454545,13.8181818 L8.63636364,13.8181818 C9.89209091,13.8181818 10.9915,14.4892273 11.5960455,15.4910455" id="Shape" stroke="#025450"></path>
                <path d="M31.9545455,9.5 L31.9545455,9.5 C33.8623182,9.5 35.4090909,7.95322727 35.4090909,6.04545455 L35.4090909,6.04545455 C35.4090909,4.13768182 33.8623182,2.59090909 31.9545455,2.59090909 L31.9545455,2.59090909 C30.0467727,2.59090909 28.5,4.13768182 28.5,6.04545455 L28.5,6.04545455 C28.5,7.95322727 30.0467727,9.5 31.9545455,9.5 Z" id="Shape" stroke="#5575C4" fill="#5575C4"></path>
                <path d="M29.3636364,35.4090909 L34.5454545,35.4090909 L35.4090909,25.9090909 L38,25.0454545 L38,17.2727273 C38,15.3649545 36.4532273,13.8181818 34.5454545,13.8181818 L29.3636364,13.8181818 C28.1079091,13.8181818 27.0085,14.4892273 26.4039545,15.4910455" id="Shape" stroke="#025450"></path>
                <path d="M19,10.3636364 L19,10.3636364 C16.1379091,10.3636364 13.8181818,8.04390909 13.8181818,5.18181818 L13.8181818,5.18181818 C13.8181818,2.31972727 16.1379091,0 19,0 L19,0 C21.8620909,0 24.1818182,2.31972727 24.1818182,5.18181818 L24.1818182,5.18181818 C24.1818182,8.04390909 21.8620909,10.3636364 19,10.3636364 Z" id="Shape" stroke="#5575C4" fill="#5575C4"></path>
                <path d="M23.3181818,38 L14.6818182,38 L13.8181818,27.6363636 L10.3636364,26.7727273 L10.3636364,18.1363636 C10.3636364,16.2285909 11.9104091,14.6818182 13.8181818,14.6818182 L24.1818182,14.6818182 C26.0895909,14.6818182 27.6363636,16.2285909 27.6363636,18.1363636 L27.6363636,26.7727273 L24.1818182,27.6363636 L23.3181818,38 Z" id="Shape" stroke="#025450"></path>
            </g>
        </g>
    </g>
</svg>