<?xml version="1.0" encoding="UTF-8"?>
<svg width="38px" height="38px" viewBox="0 0 38 38" version="1.1" xmlns="http://www.w3.org/2000/svg" xmlns:xlink="http://www.w3.org/1999/xlink">
    <title>Group 9</title>
    <defs>
        <polygon id="path-1" points="0 38 38 38 38 0 0 0"></polygon>
    </defs>
    <g id="Page-1" stroke="none" stroke-width="1" fill="none" fill-rule="evenodd">
        <g id="icons-copy" transform="translate(-606.000000, -557.000000)">
            <g id="Group-9" transform="translate(606.000000, 557.000000)">
                <path d="M37,19 C37,28.9422609 28.9422609,37 19,37 C9.05930435,37 1,28.9422609 1,19 C1,9.05773913 9.05930435,1 19,1 C28.9422609,1 37,9.05773913 37,19 Z" id="Stroke-1" stroke="#025450" stroke-width="2" stroke-linecap="round" stroke-linejoin="round" stroke-dasharray="7.5,4.81"></path>
                <mask id="mask-2" fill="white">
                    <use xlink:href="#path-1"></use>
                </mask>
                <g id="Clip-6"></g>
                <polygon id="Stroke-5" stroke="#5575C4" stroke-width="1.25" fill="#5575C4" stroke-linecap="round" stroke-linejoin="round" mask="url(#mask-2)" points="13 28 16 28 16 20 13 20"></polygon>
                <polygon id="Stroke-7" stroke="#5575C4" stroke-width="1.25" fill="#5575C4" stroke-linecap="round" stroke-linejoin="round" mask="url(#mask-2)" points="19 28 22 28 22 12 19 12"></polygon>
                <polygon id="Stroke-8" stroke="#5575C4" stroke-width="1.25" fill="#5575C4" stroke-linecap="round" stroke-linejoin="round" mask="url(#mask-2)" points="25 28 28 28 28 15 25 15"></polygon>
                <polyline id="Stroke-3" stroke="#025450" stroke-width="2" stroke-linecap="round" stroke-linejoin="round" mask="url(#mask-2)" points="30 28 9 28 9 12"></polyline>
            </g>
        </g>
    </g>
</svg>