<?xml version="1.0" encoding="UTF-8"?>
<svg width="42px" height="41px" viewBox="0 0 42 41" version="1.1" xmlns="http://www.w3.org/2000/svg" xmlns:xlink="http://www.w3.org/1999/xlink">
    <title>Group</title>
    <g id="Page-1" stroke="none" stroke-width="1" fill="none" fill-rule="evenodd">
        <g id="icons-copy" transform="translate(-338.000000, -777.000000)">
            <g id="Group" transform="translate(339.000000, 778.000000)">
                <path d="M39.1666667,30.8412698 C39.1666667,32.5848889 37.675,34 35.8333333,34 L4.16666667,34 C2.32666667,34 0.833333333,32.5848889 0.833333333,30.8412698 L0.833333333,3.99206349 C0.833333333,2.24844444 2.32666667,0.833333333 4.16666667,0.833333333 L35.8333333,0.833333333 C37.675,0.833333333 39.1666667,2.24844444 39.1666667,3.99206349 L39.1666667,30.8412698 L39.1666667,30.8412698 Z" id="Stroke-358" stroke="#025450" stroke-width="2" stroke-linecap="round" stroke-linejoin="round"></path>
                <line x1="1" y1="38.5" x2="39" y2="38.5" id="Line" stroke="#025450" stroke-width="2" stroke-linecap="round" fill-rule="nonzero"></line>
                <path d="M17.9115342,28.1449975 C16.547436,29.27125 14.7981873,29.9477539 12.8905436,29.9477539 C8.53180732,29.9477539 5,26.4159466 5,22.0572103 C5,17.698474 8.53180732,14.1666667 12.8905436,14.1666667 C14.5202074,14.1666667 16.0342752,14.6603766 17.2913759,15.5064255 L13.0944824,22.0572103 L17.9115342,28.1449975 Z" id="Stroke-363" fill="#5575C4"></path>
                <line x1="0.833333333" y1="9.16666667" x2="39.1666667" y2="9.16666667" id="Stroke-359" stroke="#025450" stroke-width="2" stroke-linecap="round" stroke-linejoin="round"></line>
                <path d="M6.83333333,5.16666667 C6.83333333,5.71866667 6.38533333,6.16666667 5.83333333,6.16666667 C5.28133333,6.16666667 4.83333333,5.71866667 4.83333333,5.16666667 C4.83333333,4.61466667 5.28133333,4.16666667 5.83333333,4.16666667 C6.38533333,4.16666667 6.83333333,4.61466667 6.83333333,5.16666667 L6.83333333,5.16666667 Z" id="Stroke-360" stroke="#025450" fill="#254A5D" stroke-linecap="round" stroke-linejoin="round"></path>
                <path d="M10.8333333,5.16666667 C10.8333333,5.71866667 10.3853333,6.16666667 9.83333333,6.16666667 C9.28133333,6.16666667 8.83333333,5.71866667 8.83333333,5.16666667 C8.83333333,4.61466667 9.28133333,4.16666667 9.83333333,4.16666667 C10.3853333,4.16666667 10.8333333,4.61466667 10.8333333,5.16666667 L10.8333333,5.16666667 Z" id="Stroke-361" stroke="#025450" fill="#254A5D" stroke-linecap="round" stroke-linejoin="round"></path>
                <path d="M14.8333333,5.16666667 C14.8333333,5.71866667 14.3853333,6.16666667 13.8333333,6.16666667 C13.2813333,6.16666667 12.8333333,5.71866667 12.8333333,5.16666667 C12.8333333,4.61466667 13.2813333,4.16666667 13.8333333,4.16666667 C14.3853333,4.16666667 14.8333333,4.61466667 14.8333333,5.16666667 L14.8333333,5.16666667 Z" id="Stroke-362" stroke="#025450" fill="#254A5D" stroke-linecap="round" stroke-linejoin="round"></path>
                <path d="M20.7810872,22.0572103 C20.7810872,26.4159466 17.2492799,29.9477539 12.8905436,29.9477539 C8.53180732,29.9477539 5,26.4159466 5,22.0572103 C5,17.698474 8.53180732,14.1666667 12.8905436,14.1666667 C17.2492799,14.1666667 20.7810872,17.698474 20.7810872,22.0572103 L20.7810872,22.0572103 Z" id="Stroke-363" stroke="#025450" stroke-width="2" stroke-linecap="round" stroke-linejoin="round"></path>
                <polyline id="Stroke-364" stroke="#025450" stroke-width="2" stroke-linecap="round" stroke-linejoin="round" points="17.3428618 15.5429353 12.8910171 22.0573681 17.9488555 28.1125713"></polyline>
                <line x1="25" y1="15.8333333" x2="35" y2="15.8333333" id="Stroke-366" stroke="#025450" stroke-width="2" stroke-linecap="round" stroke-linejoin="round"></line>
                <line x1="25" y1="19.8333333" x2="35" y2="19.8333333" id="Stroke-367" stroke="#025450" stroke-width="2" stroke-linecap="round" stroke-linejoin="round"></line>
                <line x1="25" y1="24" x2="35" y2="24" id="Stroke-368" stroke="#025450" stroke-width="2" stroke-linecap="round" stroke-linejoin="round"></line>
                <line x1="25" y1="28" x2="35" y2="28" id="Stroke-368-Copy" stroke="#025450" stroke-width="2" stroke-linecap="round" stroke-linejoin="round"></line>
            </g>
        </g>
    </g>
</svg>