<?xml version="1.0" encoding="UTF-8"?>
<svg width="1000px" height="600px" viewBox="0 0 1000 600" version="1.1" xmlns="http://www.w3.org/2000/svg" xmlns:xlink="http://www.w3.org/1999/xlink">
    <title>Group 36</title>
    <g id="Page-1" stroke="none" stroke-width="1" fill="none" fill-rule="evenodd">
        <g id="Group-36">
            <polygon id="Fill-1" fill="#FFFFFF" points="0 600 1000 600 1000 0 0 0"></polygon>
            <g id="Group-30" transform="translate(54, 107)">
                <path d="M773.8283,192.6256 C773.8283,225.9986 746.7743,253.0526 713.4013,253.0526 C680.0283,253.0526 652.9743,225.9986 652.9743,192.6256 C652.9743,159.2526 680.0283,132.1986 713.4013,132.1986 C746.7743,132.1986 773.8283,159.2526 773.8283,192.6256" id="Fill-3" fill="#C7E7DE"></path>
                <path d="M385.8491,192.6912 C385.8491,226.0642 358.7951,253.1182 325.4221,253.1182 C292.0491,253.1182 264.9951,226.0642 264.9951,192.6912 C264.9951,159.3182 292.0491,132.2642 325.4221,132.2642 C358.7951,132.2642 385.8491,159.3182 385.8491,192.6912" id="Fill-5" fill="#C7E7DE"></path>
                <path d="M120.854,60.427 C120.854,93.8 93.8,120.854 60.427,120.854 C27.054,120.854 0,93.8 0,60.427 C0,27.054 27.054,0 60.427,0 C93.8,0 120.854,27.054 120.854,60.427" id="Fill-7" fill="#C7E7DE"></path>
                <g id="Awareness" transform="translate(157.9853, 31.2793)" fill="#025450" fill-rule="nonzero">
                    <path d="M0,13.63278 L3.018687,13.63278 L4.0703586,10.6530438 L9.250815,10.6530438 L10.3024866,13.63278 L13.438026,13.63278 L8.4912744,0 L4.9857024,0 L0,13.63278 Z M4.8493746,8.2965204 L6.6411114,3.116064 L8.4523236,8.2965204 L4.8493746,8.2965204 Z" id="Shape"></path>
                    <polygon id="Path" points="11.490486 3.6224244 14.7623532 13.63278 17.6836632 13.63278 19.4754 7.595406 21.228186 13.63278 24.149496 13.63278 27.4408386 3.6224244 24.636381 3.6224244 22.591464 10.6919946 20.7607764 3.6224244 18.2874006 3.6224244 16.3982868 10.6725192 14.3923206 3.6224244"></polygon>
                    <path d="M37.0422108,11.3152074 C36.6332274,11.3152074 36.3995226,11.1788796 36.3995226,10.6725192 L36.3995226,7.1474718 C36.3995226,4.7519976 34.763589,3.505572 31.9591314,3.505572 C29.2910016,3.505572 27.5382156,4.6546206 27.3434616,6.7384884 L29.992116,6.7384884 C30.1089684,5.9984232 30.8100828,5.5115382 31.8228036,5.5115382 C32.9718522,5.5115382 33.692442,6.0958002 33.692442,6.9916686 L33.692442,7.4785536 L31.7059512,7.4785536 C28.7067396,7.4785536 27.1097568,8.6860284 27.1097568,10.808847 C27.1097568,12.7174362 28.6677888,13.7496324 30.8295582,13.7496324 C32.3875902,13.7496324 33.400311,13.1069442 34.1014254,11.9968464 C34.08195,12.951141 34.5298842,13.63278 35.9515884,13.63278 L37.3538172,13.63278 L37.3538172,11.3152074 L37.0422108,11.3152074 Z M33.692442,9.5039952 C33.6729666,10.8672732 32.7965736,11.7631416 31.355394,11.7631416 C30.4400502,11.7631416 29.8752636,11.3152074 29.8752636,10.614093 C29.8752636,9.7766508 30.5569026,9.3092412 31.6864758,9.3092412 L33.692442,9.3092412 L33.692442,9.5039952 Z" id="Shape"></path>
                    <path d="M44.0533548,3.6224244 C42.4953228,3.6224244 41.7163068,4.2261618 41.1709956,5.1220302 L40.9178154,3.6224244 L38.4249642,3.6224244 L38.4249642,13.63278 L41.1709956,13.63278 L41.1709956,8.7249792 C41.1709956,7.205898 41.7942084,6.1152756 43.430142,6.1152756 L44.5207644,6.1152756 L44.5207644,3.6224244 L44.0533548,3.6224244 Z" id="Path"></path>
                    <path d="M44.696043,8.6470776 C44.696043,11.7436662 46.7214846,13.7496324 50.1102042,13.7496324 C52.7393832,13.7496324 54.433743,12.1916004 54.7453494,10.2440604 L52.0382688,10.2440604 C51.804564,11.1788796 51.025548,11.6657646 49.9154502,11.6657646 C48.493746,11.6657646 47.6757792,10.7698962 47.5589268,9.3287166 L47.5589268,9.250815 L54.823251,9.250815 C54.8816772,8.9392086 54.9011526,8.6081268 54.9011526,8.3159958 C54.8622018,5.3752104 52.778334,3.505572 49.7401716,3.505572 C46.7214846,3.505572 44.696043,5.5115382 44.696043,8.6470776 Z M47.617353,7.4590782 C47.7731562,6.2710788 48.6690246,5.550489 49.857024,5.550489 C51.1034496,5.550489 51.9603672,6.232128 52.1551212,7.4590782 L47.617353,7.4590782 Z" id="Shape"></path>
                    <path d="M62.1460014,3.505572 C60.6074448,3.505572 59.692101,4.089834 59.0494128,4.86885 L58.7962326,3.6224244 L56.4007584,3.6224244 L56.4007584,13.63278 L59.1467898,13.63278 L59.1467898,8.5107498 C59.1467898,6.7774392 59.9647566,5.7647184 61.3864608,5.7647184 C62.7692142,5.7647184 63.4119024,6.6605868 63.4119024,8.3549466 L63.4119024,13.63278 L66.1579338,13.63278 L66.1579338,8.1991434 C66.1579338,4.5572436 64.1909184,3.505572 62.1460014,3.505572 Z" id="Path"></path>
                    <path d="M67.5017364,8.6470776 C67.5017364,11.7436662 69.527178,13.7496324 72.9158976,13.7496324 C75.5450766,13.7496324 77.2394364,12.1916004 77.5510428,10.2440604 L74.8439622,10.2440604 C74.6102574,11.1788796 73.8312414,11.6657646 72.7211436,11.6657646 C71.2994394,11.6657646 70.4814726,10.7698962 70.3646202,9.3287166 L70.3646202,9.250815 L77.6289444,9.250815 C77.6873706,8.9392086 77.706846,8.6081268 77.706846,8.3159958 C77.6678952,5.3752104 75.5840274,3.505572 72.545865,3.505572 C69.527178,3.505572 67.5017364,5.5115382 67.5017364,8.6470776 Z M70.4230464,7.4590782 C70.5788496,6.2710788 71.474718,5.550489 72.6627174,5.550489 C73.909143,5.550489 74.7660606,6.232128 74.9608146,7.4590782 L70.4230464,7.4590782 Z" id="Shape"></path>
                    <path d="M78.680616,10.3024866 C78.777993,12.4447806 80.6865822,13.7496324 83.452089,13.7496324 C86.1396942,13.7496324 87.9898572,12.4837314 87.9898572,10.4972406 C87.9898572,8.2380942 86.081268,7.7122584 83.8026462,7.4590782 C82.380942,7.303275 81.5240244,7.2448488 81.5240244,6.5047836 C81.5240244,5.84262 82.2251388,5.4336366 83.257335,5.4336366 C84.3869082,5.4336366 85.1464488,5.9789478 85.2243504,6.719013 L87.834054,6.719013 C87.6977262,4.674096 85.8670386,3.4860966 83.1794334,3.4666212 C80.628156,3.4666212 78.8948454,4.771473 78.8948454,6.7579638 C78.8948454,8.8223562 80.7060576,9.3287166 83.0236302,9.6208476 C84.620613,9.8156016 85.3217274,9.8935032 85.3217274,10.6919946 C85.3217274,11.4125844 84.5621868,11.782617 83.4326136,11.782617 C82.2056634,11.782617 81.3682212,11.1788796 81.2903196,10.3024866 L78.680616,10.3024866 Z" id="Path"></path>
                    <path d="M88.807824,10.3024866 C88.905201,12.4447806 90.8137902,13.7496324 93.579297,13.7496324 C96.2669022,13.7496324 98.1170652,12.4837314 98.1170652,10.4972406 C98.1170652,8.2380942 96.208476,7.7122584 93.9298542,7.4590782 C92.50815,7.303275 91.6512324,7.2448488 91.6512324,6.5047836 C91.6512324,5.84262 92.3523468,5.4336366 93.384543,5.4336366 C94.5141162,5.4336366 95.2736568,5.9789478 95.3515584,6.719013 L97.961262,6.719013 C97.8249342,4.674096 95.9942466,3.4860966 93.3066414,3.4666212 C90.755364,3.4666212 89.0220534,4.771473 89.0220534,6.7579638 C89.0220534,8.8223562 90.8332656,9.3287166 93.1508382,9.6208476 C94.747821,9.8156016 95.4489354,9.8935032 95.4489354,10.6919946 C95.4489354,11.4125844 94.6893948,11.782617 93.5598216,11.782617 C92.3328714,11.782617 91.4954292,11.1788796 91.4175276,10.3024866 L88.807824,10.3024866 Z" id="Path"></path>
                </g>
                <path d="M527.4027,60.4926 C527.4027,93.8656 500.3487,120.9196 466.9757,120.9196 C433.6027,120.9196 406.5487,93.8656 406.5487,60.4926 C406.5487,27.1196 433.6027,0.0656 466.9757,0.0656 C500.3487,0.0656 527.4027,27.1196 527.4027,60.4926" id="Fill-10" fill="#C7E7DE"></path>
                <g id="Consideration" transform="translate(559.6019, 30.734)" fill="#025450" fill-rule="nonzero">
                    <path d="M0,7.3617012 C0,11.5489122 2.5512774,14.2949436 6.6800622,14.2949436 C9.9129786,14.2949436 12.1916004,12.269502 12.5226822,9.3092412 L9.6013722,9.3092412 C9.2702904,10.8283224 8.1601926,11.8215678 6.524259,11.8215678 C4.3040634,11.8215678 2.9797362,9.9714048 2.9797362,7.3617012 C2.9797362,4.7325222 4.3040634,2.9018346 6.524259,2.9018346 C8.1601926,2.9018346 9.2702904,3.89508 9.6013722,5.4141612 L12.5226822,5.4141612 C12.1916004,2.4539004 9.9129786,0.4284588 6.6800622,0.4284588 C2.5512774,0.4284588 0,3.1744902 0,7.3617012 Z" id="Path"></path>
                    <path d="M18.891138,14.2949436 C22.0851036,14.2949436 24.1689714,12.269502 24.1689714,9.1729134 C24.1689714,6.0958002 22.0851036,4.0508832 18.891138,4.0508832 C15.6971724,4.0508832 13.6133046,6.0958002 13.6133046,9.1729134 C13.6133046,12.2500266 15.6971724,14.2949436 18.891138,14.2949436 Z M18.891138,12.0552726 C17.3525814,12.0552726 16.4177622,10.8672732 16.4177622,9.1729134 C16.4177622,7.4785536 17.3525814,6.2905542 18.891138,6.2905542 C20.4296946,6.2905542 21.3839892,7.4785536 21.3839892,9.1729134 C21.3839892,10.8672732 20.4296946,12.0552726 18.891138,12.0552726 Z" id="Shape"></path>
                    <path d="M31.4332956,4.0508832 C29.894739,4.0508832 28.9793952,4.6351452 28.336707,5.4141612 L28.0835268,4.1677356 L25.6880526,4.1677356 L25.6880526,14.1780912 L28.434084,14.1780912 L28.434084,9.056061 C28.434084,7.3227504 29.2520508,6.3100296 30.673755,6.3100296 C32.0565084,6.3100296 32.6991966,7.205898 32.6991966,8.9002578 L32.6991966,14.1780912 L35.445228,14.1780912 L35.445228,8.7444546 C35.445228,5.1025548 33.4782126,4.0508832 31.4332956,4.0508832 Z" id="Path"></path>
                    <path d="M36.808506,10.8477978 C36.905883,12.9900918 38.8144722,14.2949436 41.579979,14.2949436 C44.2675842,14.2949436 46.1177472,13.0290426 46.1177472,11.0425518 C46.1177472,8.7834054 44.209158,8.2575696 41.9305362,8.0043894 C40.508832,7.8485862 39.6519144,7.79016 39.6519144,7.0500948 C39.6519144,6.3879312 40.3530288,5.9789478 41.385225,5.9789478 C42.5147982,5.9789478 43.2743388,6.524259 43.3522404,7.2643242 L45.961944,7.2643242 C45.8256162,5.2194072 43.9949286,4.0314078 41.3073234,4.0119324 C38.756046,4.0119324 37.0227354,5.3167842 37.0227354,7.303275 C37.0227354,9.3676674 38.8339476,9.8740278 41.1515202,10.1661588 C42.748503,10.3609128 43.4496174,10.4388144 43.4496174,11.2373058 C43.4496174,11.9578956 42.6900768,12.3279282 41.5605036,12.3279282 C40.3335534,12.3279282 39.4961112,11.7241908 39.4182096,10.8477978 L36.808506,10.8477978 Z" id="Path"></path>
                    <path d="M49.078008,0 C48.1626642,0 47.4810252,0.6426882 47.4810252,1.5385566 C47.4810252,2.434425 48.1626642,3.0965886 49.078008,3.0965886 C49.9738764,3.0965886 50.6555154,2.434425 50.6555154,1.5385566 C50.6555154,0.6426882 49.9738764,0 49.078008,0 Z M47.6952546,4.1677356 L47.6952546,14.1780912 L50.441286,14.1780912 L50.441286,4.1677356 L47.6952546,4.1677356 Z" id="Shape"></path>
                    <path d="M59.6141994,0.5453112 L59.6141994,5.4141612 C58.9715112,4.5961944 57.9782658,4.0508832 56.5955124,4.0508832 C53.9273826,4.0508832 51.9603672,6.0568494 51.9603672,9.153438 C51.9603672,12.3279282 53.9273826,14.314419 56.6149878,14.2949436 C58.0561674,14.2949436 59.0299374,13.6522554 59.692101,12.7953378 L59.9647566,14.1780912 L62.3602308,14.1780912 L62.3602308,0.5453112 L59.6141994,0.5453112 Z M57.2187252,12.0552726 C55.7191194,12.0552726 54.7648248,10.8867486 54.7648248,9.1729134 C54.7648248,7.4590782 55.7191194,6.2905542 57.2187252,6.2905542 C58.718331,6.2905542 59.6531502,7.4785536 59.6531502,9.1923888 C59.6531502,10.8867486 58.718331,12.0552726 57.2187252,12.0552726 Z" id="Shape"></path>
                    <path d="M63.879312,9.1923888 C63.879312,12.2889774 65.9047536,14.2949436 69.2934732,14.2949436 C71.9226522,14.2949436 73.617012,12.7369116 73.9286184,10.7893716 L71.2215378,10.7893716 C70.987833,11.7241908 70.208817,12.2110758 69.0987192,12.2110758 C67.677015,12.2110758 66.8590482,11.3152074 66.7421958,9.8740278 L66.7421958,9.7961262 L74.00652,9.7961262 C74.0649462,9.4845198 74.0844216,9.153438 74.0844216,8.861307 C74.0454708,5.9205216 71.961603,4.0508832 68.9234406,4.0508832 C65.9047536,4.0508832 63.879312,6.0568494 63.879312,9.1923888 Z M66.800622,8.0043894 C66.9564252,6.81639 67.8522936,6.0958002 69.040293,6.0958002 C70.2867186,6.0958002 71.1436362,6.7774392 71.3383902,8.0043894 L66.800622,8.0043894 Z" id="Shape"></path>
                    <path d="M81.212418,4.1677356 C79.654386,4.1677356 78.87537,4.771473 78.3300588,5.6673414 L78.0768786,4.1677356 L75.5840274,4.1677356 L75.5840274,14.1780912 L78.3300588,14.1780912 L78.3300588,9.2702904 C78.3300588,7.7512092 78.9532716,6.6605868 80.5892052,6.6605868 L81.6798276,6.6605868 L81.6798276,4.1677356 L81.212418,4.1677356 Z" id="Path"></path>
                    <path d="M91.8654618,11.8605186 C91.4564784,11.8605186 91.2227736,11.7241908 91.2227736,11.2178304 L91.2227736,7.692783 C91.2227736,5.2973088 89.58684,4.0508832 86.7823824,4.0508832 C84.1142526,4.0508832 82.3614666,5.1999318 82.1667126,7.2837996 L84.815367,7.2837996 C84.9322194,6.5437344 85.6333338,6.0568494 86.6460546,6.0568494 C87.7951032,6.0568494 88.515693,6.6411114 88.515693,7.5369798 L88.515693,8.0238648 L86.5292022,8.0238648 C83.5299906,8.0238648 81.9330078,9.2313396 81.9330078,11.3541582 C81.9330078,13.2627474 83.4910398,14.2949436 85.6528092,14.2949436 C87.2108412,14.2949436 88.223562,13.6522554 88.9246764,12.5421576 C88.905201,13.4964522 89.3531352,14.1780912 90.7748394,14.1780912 L92.1770682,14.1780912 L92.1770682,11.8605186 L91.8654618,11.8605186 Z M88.515693,10.0493064 C88.4962176,11.4125844 87.6198246,12.3084528 86.178645,12.3084528 C85.2633012,12.3084528 84.6985146,11.8605186 84.6985146,11.1594042 C84.6985146,10.321962 85.3801536,9.8545524 86.5097268,9.8545524 L88.515693,9.8545524 L88.515693,10.0493064 Z" id="Shape"></path>
                    <path d="M93.8909034,11.3152074 C93.8909034,13.2237966 94.845198,14.1780912 96.7537872,14.1780912 L99.032409,14.1780912 L99.032409,11.8605186 L97.6107048,11.8605186 C96.9095904,11.8605186 96.6369348,11.5683876 96.6369348,10.8672732 L96.6369348,6.4853082 L98.9155566,6.4853082 L98.9155566,4.1677356 L96.6369348,4.1677356 L96.6369348,1.363278 L93.8909034,1.363278 L93.8909034,4.1677356 L92.2354944,4.1677356 L92.2354944,6.4853082 L93.8909034,6.4853082 L93.8909034,11.3152074 Z" id="Path"></path>
                    <path d="M101.564211,0 C100.648867,0 99.9672282,0.6426882 99.9672282,1.5385566 C99.9672282,2.434425 100.648867,3.0965886 101.564211,3.0965886 C102.460079,3.0965886 103.141718,2.434425 103.141718,1.5385566 C103.141718,0.6426882 102.460079,0 101.564211,0 Z M100.181458,4.1677356 L100.181458,14.1780912 L102.927489,14.1780912 L102.927489,4.1677356 L100.181458,4.1677356 Z" id="Shape"></path>
                    <path d="M109.724404,14.2949436 C112.918369,14.2949436 115.002237,12.269502 115.002237,9.1729134 C115.002237,6.0958002 112.918369,4.0508832 109.724404,4.0508832 C106.530438,4.0508832 104.44657,6.0958002 104.44657,9.1729134 C104.44657,12.2500266 106.530438,14.2949436 109.724404,14.2949436 Z M109.724404,12.0552726 C108.185847,12.0552726 107.251028,10.8672732 107.251028,9.1729134 C107.251028,7.4785536 108.185847,6.2905542 109.724404,6.2905542 C111.26296,6.2905542 112.217255,7.4785536 112.217255,9.1729134 C112.217255,10.8672732 111.26296,12.0552726 109.724404,12.0552726 Z" id="Shape"></path>
                    <path d="M122.266561,4.0508832 C120.728005,4.0508832 119.812661,4.6351452 119.169973,5.4141612 L118.916792,4.1677356 L116.521318,4.1677356 L116.521318,14.1780912 L119.26735,14.1780912 L119.26735,9.056061 C119.26735,7.3227504 120.085316,6.3100296 121.507021,6.3100296 C122.889774,6.3100296 123.532462,7.205898 123.532462,8.9002578 L123.532462,14.1780912 L126.278494,14.1780912 L126.278494,8.7444546 C126.278494,5.1025548 124.311478,4.0508832 122.266561,4.0508832 Z" id="Path"></path>
                </g>
                <g id="Conversion" transform="translate(526.299, 165.1142)" fill="#025450" fill-rule="nonzero">
                    <path d="M0,7.3617012 C0,11.5489122 2.5512774,14.2949436 6.6800622,14.2949436 C9.9129786,14.2949436 12.1916004,12.269502 12.5226822,9.3092412 L9.6013722,9.3092412 C9.2702904,10.8283224 8.1601926,11.8215678 6.524259,11.8215678 C4.3040634,11.8215678 2.9797362,9.9714048 2.9797362,7.3617012 C2.9797362,4.7325222 4.3040634,2.9018346 6.524259,2.9018346 C8.1601926,2.9018346 9.2702904,3.89508 9.6013722,5.4141612 L12.5226822,5.4141612 C12.1916004,2.4539004 9.9129786,0.4284588 6.6800622,0.4284588 C2.5512774,0.4284588 0,3.1744902 0,7.3617012 Z" id="Path"></path>
                    <path d="M18.891138,14.2949436 C22.0851036,14.2949436 24.1689714,12.269502 24.1689714,9.1729134 C24.1689714,6.0958002 22.0851036,4.0508832 18.891138,4.0508832 C15.6971724,4.0508832 13.6133046,6.0958002 13.6133046,9.1729134 C13.6133046,12.2500266 15.6971724,14.2949436 18.891138,14.2949436 Z M18.891138,12.0552726 C17.3525814,12.0552726 16.4177622,10.8672732 16.4177622,9.1729134 C16.4177622,7.4785536 17.3525814,6.2905542 18.891138,6.2905542 C20.4296946,6.2905542 21.3839892,7.4785536 21.3839892,9.1729134 C21.3839892,10.8672732 20.4296946,12.0552726 18.891138,12.0552726 Z" id="Shape"></path>
                    <path d="M31.4332956,4.0508832 C29.894739,4.0508832 28.9793952,4.6351452 28.336707,5.4141612 L28.0835268,4.1677356 L25.6880526,4.1677356 L25.6880526,14.1780912 L28.434084,14.1780912 L28.434084,9.056061 C28.434084,7.3227504 29.2520508,6.3100296 30.673755,6.3100296 C32.0565084,6.3100296 32.6991966,7.205898 32.6991966,8.9002578 L32.6991966,14.1780912 L35.445228,14.1780912 L35.445228,8.7444546 C35.445228,5.1025548 33.4782126,4.0508832 31.4332956,4.0508832 Z" id="Path"></path>
                    <polygon id="Path" points="35.5036542 4.1677356 39.1066032 14.1780912 42.5147982 14.1780912 46.1177472 4.1677356 43.235388 4.1677356 40.8593892 11.3736336 38.4444396 4.1677356"></polygon>
                    <path d="M45.864567,9.1923888 C45.864567,12.2889774 47.8900086,14.2949436 51.2787282,14.2949436 C53.9079072,14.2949436 55.602267,12.7369116 55.9138734,10.7893716 L53.2067928,10.7893716 C52.973088,11.7241908 52.194072,12.2110758 51.0839742,12.2110758 C49.66227,12.2110758 48.8443032,11.3152074 48.7274508,9.8740278 L48.7274508,9.7961262 L55.991775,9.7961262 C56.0502012,9.4845198 56.0696766,9.153438 56.0696766,8.861307 C56.0307258,5.9205216 53.946858,4.0508832 50.9086956,4.0508832 C47.8900086,4.0508832 45.864567,6.0568494 45.864567,9.1923888 Z M48.785877,8.0043894 C48.9416802,6.81639 49.8375486,6.0958002 51.025548,6.0958002 C52.2719736,6.0958002 53.1288912,6.7774392 53.3236452,8.0043894 L48.785877,8.0043894 Z" id="Shape"></path>
                    <path d="M63.197673,4.1677356 C61.639641,4.1677356 60.860625,4.771473 60.3153138,5.6673414 L60.0621336,4.1677356 L57.5692824,4.1677356 L57.5692824,14.1780912 L60.3153138,14.1780912 L60.3153138,9.2702904 C60.3153138,7.7512092 60.9385266,6.6605868 62.5744602,6.6605868 L63.6650826,6.6605868 L63.6650826,4.1677356 L63.197673,4.1677356 Z" id="Path"></path>
                    <path d="M64.1324922,10.8477978 C64.2298692,12.9900918 66.1384584,14.2949436 68.9039652,14.2949436 C71.5915704,14.2949436 73.4417334,13.0290426 73.4417334,11.0425518 C73.4417334,8.7834054 71.5331442,8.2575696 69.2545224,8.0043894 C67.8328182,7.8485862 66.9759006,7.79016 66.9759006,7.0500948 C66.9759006,6.3879312 67.677015,5.9789478 68.7092112,5.9789478 C69.8387844,5.9789478 70.598325,6.524259 70.6762266,7.2643242 L73.2859302,7.2643242 C73.1496024,5.2194072 71.3189148,4.0314078 68.6313096,4.0119324 C66.0800322,4.0119324 64.3467216,5.3167842 64.3467216,7.303275 C64.3467216,9.3676674 66.1579338,9.8740278 68.4755064,10.1661588 C70.0724892,10.3609128 70.7736036,10.4388144 70.7736036,11.2373058 C70.7736036,11.9578956 70.014063,12.3279282 68.8844898,12.3279282 C67.6575396,12.3279282 66.8200974,11.7241908 66.7421958,10.8477978 L64.1324922,10.8477978 Z" id="Path"></path>
                    <path d="M76.4019942,0 C75.4866504,0 74.8050114,0.6426882 74.8050114,1.5385566 C74.8050114,2.434425 75.4866504,3.0965886 76.4019942,3.0965886 C77.2978626,3.0965886 77.9795016,2.434425 77.9795016,1.5385566 C77.9795016,0.6426882 77.2978626,0 76.4019942,0 Z M75.0192408,4.1677356 L75.0192408,14.1780912 L77.7652722,14.1780912 L77.7652722,4.1677356 L75.0192408,4.1677356 Z" id="Shape"></path>
                    <path d="M84.5621868,14.2949436 C87.7561524,14.2949436 89.8400202,12.269502 89.8400202,9.1729134 C89.8400202,6.0958002 87.7561524,4.0508832 84.5621868,4.0508832 C81.3682212,4.0508832 79.2843534,6.0958002 79.2843534,9.1729134 C79.2843534,12.2500266 81.3682212,14.2949436 84.5621868,14.2949436 Z M84.5621868,12.0552726 C83.0236302,12.0552726 82.088811,10.8672732 82.088811,9.1729134 C82.088811,7.4785536 83.0236302,6.2905542 84.5621868,6.2905542 C86.1007434,6.2905542 87.055038,7.4785536 87.055038,9.1729134 C87.055038,10.8672732 86.1007434,12.0552726 84.5621868,12.0552726 Z" id="Shape"></path>
                    <path d="M97.1043444,4.0508832 C95.5657878,4.0508832 94.650444,4.6351452 94.0077558,5.4141612 L93.7545756,4.1677356 L91.3591014,4.1677356 L91.3591014,14.1780912 L94.1051328,14.1780912 L94.1051328,9.056061 C94.1051328,7.3227504 94.9230996,6.3100296 96.3448038,6.3100296 C97.7275572,6.3100296 98.3702454,7.205898 98.3702454,8.9002578 L98.3702454,14.1780912 L101.116277,14.1780912 L101.116277,8.7444546 C101.116277,5.1025548 99.1492614,4.0508832 97.1043444,4.0508832 Z" id="Path"></path>
                </g>
                <path d="M551.9985,325.4328 C551.9985,358.8058 524.9445,385.8598 491.5715,385.8598 C458.1985,385.8598 431.1445,358.8058 431.1445,325.4328 C431.1445,292.0598 458.1985,265.0058 491.5715,265.0058 C524.9445,265.0058 551.9985,292.0598 551.9985,325.4328" id="Fill-12" fill="#C7E7DE"></path>
                <g id="Advocacy" transform="translate(581.9394, 297.2422)" fill="#025450" fill-rule="nonzero">
                    <path d="M0,13.63278 L3.018687,13.63278 L4.0703586,10.6530438 L9.250815,10.6530438 L10.3024866,13.63278 L13.438026,13.63278 L8.4912744,0 L4.9857024,0 L0,13.63278 Z M4.8493746,8.2965204 L6.6411114,3.116064 L8.4523236,8.2965204 L4.8493746,8.2965204 Z" id="Shape"></path>
                    <path d="M20.7997272,0 L20.7997272,4.86885 C20.157039,4.0508832 19.1637936,3.505572 17.7810402,3.505572 C15.1129104,3.505572 13.145895,5.5115382 13.145895,8.6081268 C13.145895,11.782617 15.1129104,13.7691078 17.8005156,13.7496324 C19.2416952,13.7496324 20.2154652,13.1069442 20.8776288,12.2500266 L21.1502844,13.63278 L23.5457586,13.63278 L23.5457586,0 L20.7997272,0 Z M18.404253,11.5099614 C16.9046472,11.5099614 15.9503526,10.3414374 15.9503526,8.6276022 C15.9503526,6.913767 16.9046472,5.745243 18.404253,5.745243 C19.9038588,5.745243 20.838678,6.9332424 20.838678,8.6470776 C20.838678,10.3414374 19.9038588,11.5099614 18.404253,11.5099614 Z" id="Shape"></path>
                    <polygon id="Path" points="24.4805778 3.6224244 28.0835268 13.63278 31.4917218 13.63278 35.0946708 3.6224244 32.2123116 3.6224244 29.8363128 10.8283224 27.4213632 3.6224244"></polygon>
                    <path d="M40.119324,13.7496324 C43.3132896,13.7496324 45.3971574,11.7241908 45.3971574,8.6276022 C45.3971574,5.550489 43.3132896,3.505572 40.119324,3.505572 C36.9253584,3.505572 34.8414906,5.550489 34.8414906,8.6276022 C34.8414906,11.7047154 36.9253584,13.7496324 40.119324,13.7496324 Z M40.119324,11.5099614 C38.5807674,11.5099614 37.6459482,10.321962 37.6459482,8.6276022 C37.6459482,6.9332424 38.5807674,5.745243 40.119324,5.745243 C41.6578806,5.745243 42.6121752,6.9332424 42.6121752,8.6276022 C42.6121752,10.321962 41.6578806,11.5099614 40.119324,11.5099614 Z" id="Shape"></path>
                    <path d="M56.5370862,9.835077 L53.7131532,9.835077 C53.4989238,10.8672732 52.778334,11.5099614 51.6877116,11.5099614 C50.246532,11.5099614 49.3311882,10.321962 49.3311882,8.6276022 C49.3311882,6.913767 50.246532,5.745243 51.6877116,5.745243 C52.7393832,5.745243 53.459973,6.3879312 53.6936778,7.3617012 L56.5370862,7.3617012 C56.1475782,4.9857024 54.4142676,3.505572 51.707187,3.505572 C48.5521722,3.505572 46.5267306,5.5115382 46.5267306,8.6276022 C46.5267306,11.7047154 48.5326968,13.7496324 51.6877116,13.7496324 C54.4142676,13.7496324 56.1670536,12.2500266 56.5370862,9.835077 Z" id="Path"></path>
                    <path d="M67.5601626,11.3152074 C67.1511792,11.3152074 66.9174744,11.1788796 66.9174744,10.6725192 L66.9174744,7.1474718 C66.9174744,4.7519976 65.2815408,3.505572 62.4770832,3.505572 C59.8089534,3.505572 58.0561674,4.6546206 57.8614134,6.7384884 L60.5100678,6.7384884 C60.6269202,5.9984232 61.3280346,5.5115382 62.3407554,5.5115382 C63.489804,5.5115382 64.2103938,6.0958002 64.2103938,6.9916686 L64.2103938,7.4785536 L62.223903,7.4785536 C59.2246914,7.4785536 57.6277086,8.6860284 57.6277086,10.808847 C57.6277086,12.7174362 59.1857406,13.7496324 61.34751,13.7496324 C62.905542,13.7496324 63.9182628,13.1069442 64.6193772,11.9968464 C64.5999018,12.951141 65.047836,13.63278 66.4695402,13.63278 L67.871769,13.63278 L67.871769,11.3152074 L67.5601626,11.3152074 Z M64.2103938,9.5039952 C64.1909184,10.8672732 63.3145254,11.7631416 61.8733458,11.7631416 C60.958002,11.7631416 60.3932154,11.3152074 60.3932154,10.614093 C60.3932154,9.7766508 61.0748544,9.3092412 62.2044276,9.3092412 L64.2103938,9.3092412 L64.2103938,9.5039952 Z" id="Shape"></path>
                    <path d="M78.5637636,9.835077 L75.7398306,9.835077 C75.5256012,10.8672732 74.8050114,11.5099614 73.714389,11.5099614 C72.2732094,11.5099614 71.3578656,10.321962 71.3578656,8.6276022 C71.3578656,6.913767 72.2732094,5.745243 73.714389,5.745243 C74.7660606,5.745243 75.4866504,6.3879312 75.7203552,7.3617012 L78.5637636,7.3617012 C78.1742556,4.9857024 76.440945,3.505572 73.7338644,3.505572 C70.5788496,3.505572 68.553408,5.5115382 68.553408,8.6276022 C68.553408,11.7047154 70.5593742,13.7496324 73.714389,13.7496324 C76.440945,13.7496324 78.193731,12.2500266 78.5637636,9.835077 Z" id="Path"></path>
                    <path d="M78.1742556,3.6224244 L82.0303848,13.6912062 L81.7772046,14.3533698 C81.504549,15.0350088 81.2708442,15.2102874 80.5697298,15.2102874 L79.0506486,15.2102874 L79.0506486,17.52786 L81.7187784,17.52786 C83.2768104,17.52786 83.7831708,16.7098932 84.4063836,15.0544842 L88.8467748,3.6224244 L85.9059894,3.6224244 L83.5299906,10.808847 L81.0955656,3.6224244 L78.1742556,3.6224244 Z" id="Path"></path>
                </g>
                <path d="M781.2404,325.0766 C781.2404,332.9296 774.8734,339.2966 767.0204,339.2966 C759.1674,339.2966 752.8004,332.9296 752.8004,325.0766 C752.8004,317.2236 759.1674,310.8566 767.0204,310.8566 C774.8734,310.8566 781.2404,317.2236 781.2404,325.0766" id="Fill-14" fill="#FDBD68"></path>
                <path d="M60.5771,60.3511 L825.1251,60.3511 C861.5091,60.3511 891.0041,89.8461 891.0041,126.2301 L891.0041,127.5921 C891.0041,163.9761 861.5091,193.4711 825.1251,193.4711 L126.4561,193.4711 C90.0721,193.4711 60.5771,222.9661 60.5771,259.3511 L60.5771,259.3511 C60.5771,295.7351 90.0721,325.2301 126.4561,325.2301 L758.5021,325.2301" id="Stroke-16" stroke="#025450"></path>
                <g id="Retention" transform="translate(152.9894, 165.1061)" fill="#025450" fill-rule="nonzero">
                    <path d="M0,0.5453112 L0,14.1780912 L2.92131,14.1780912 L2.92131,9.6013722 L5.3946858,9.6013722 L7.6733076,14.1780912 L10.906224,14.1780912 L8.2186188,8.9197332 C9.640323,8.2380942 10.5556668,6.8358654 10.5556668,5.0830794 C10.5556668,2.3175726 8.5497006,0.5453112 5.550489,0.5453112 L0,0.5453112 Z M2.92131,2.9797362 L5.3167842,2.9797362 C6.6995376,2.9797362 7.5759306,3.797703 7.5759306,5.0830794 C7.5759306,6.3489804 6.6995376,7.1669472 5.3167842,7.1669472 L2.92131,7.1669472 L2.92131,2.9797362 Z" id="Shape"></path>
                    <path d="M11.0425518,9.1923888 C11.0425518,12.2889774 13.0679934,14.2949436 16.456713,14.2949436 C19.085892,14.2949436 20.7802518,12.7369116 21.0918582,10.7893716 L18.3847776,10.7893716 C18.1510728,11.7241908 17.3720568,12.2110758 16.261959,12.2110758 C14.8402548,12.2110758 14.022288,11.3152074 13.9054356,9.8740278 L13.9054356,9.7961262 L21.1697598,9.7961262 C21.228186,9.4845198 21.2476614,9.153438 21.2476614,8.861307 C21.2087106,5.9205216 19.1248428,4.0508832 16.0866804,4.0508832 C13.0679934,4.0508832 11.0425518,6.0568494 11.0425518,9.1923888 Z M13.9638618,8.0043894 C14.119665,6.81639 15.0155334,6.0958002 16.2035328,6.0958002 C17.4499584,6.0958002 18.306876,6.7774392 18.50163,8.0043894 L13.9638618,8.0043894 Z" id="Shape"></path>
                    <path d="M23.3120538,11.3152074 C23.3120538,13.2237966 24.2663484,14.1780912 26.1749376,14.1780912 L28.4535594,14.1780912 L28.4535594,11.8605186 L27.0318552,11.8605186 C26.3307408,11.8605186 26.0580852,11.5683876 26.0580852,10.8672732 L26.0580852,6.4853082 L28.336707,6.4853082 L28.336707,4.1677356 L26.0580852,4.1677356 L26.0580852,1.363278 L23.3120538,1.363278 L23.3120538,4.1677356 L21.6566448,4.1677356 L21.6566448,6.4853082 L23.3120538,6.4853082 L23.3120538,11.3152074 Z" id="Path"></path>
                    <path d="M28.9014936,9.1923888 C28.9014936,12.2889774 30.9269352,14.2949436 34.3156548,14.2949436 C36.9448338,14.2949436 38.6391936,12.7369116 38.9508,10.7893716 L36.2437194,10.7893716 C36.0100146,11.7241908 35.2309986,12.2110758 34.1209008,12.2110758 C32.6991966,12.2110758 31.8812298,11.3152074 31.7643774,9.8740278 L31.7643774,9.7961262 L39.0287016,9.7961262 C39.0871278,9.4845198 39.1066032,9.153438 39.1066032,8.861307 C39.0676524,5.9205216 36.9837846,4.0508832 33.9456222,4.0508832 C30.9269352,4.0508832 28.9014936,6.0568494 28.9014936,9.1923888 Z M31.8228036,8.0043894 C31.9786068,6.81639 32.8744752,6.0958002 34.0624746,6.0958002 C35.3089002,6.0958002 36.1658178,6.7774392 36.3605718,8.0043894 L31.8228036,8.0043894 Z" id="Shape"></path>
                    <path d="M46.351452,4.0508832 C44.8128954,4.0508832 43.8975516,4.6351452 43.2548634,5.4141612 L43.0016832,4.1677356 L40.606209,4.1677356 L40.606209,14.1780912 L43.3522404,14.1780912 L43.3522404,9.056061 C43.3522404,7.3227504 44.1702072,6.3100296 45.5919114,6.3100296 C46.9746648,6.3100296 47.617353,7.205898 47.617353,8.9002578 L47.617353,14.1780912 L50.3633844,14.1780912 L50.3633844,8.7444546 C50.3633844,5.1025548 48.396369,4.0508832 46.351452,4.0508832 Z" id="Path"></path>
                    <path d="M52.7393832,11.3152074 C52.7393832,13.2237966 53.6936778,14.1780912 55.602267,14.1780912 L57.8808888,14.1780912 L57.8808888,11.8605186 L56.4591846,11.8605186 C55.7580702,11.8605186 55.4854146,11.5683876 55.4854146,10.8672732 L55.4854146,6.4853082 L57.7640364,6.4853082 L57.7640364,4.1677356 L55.4854146,4.1677356 L55.4854146,1.363278 L52.7393832,1.363278 L52.7393832,4.1677356 L51.0839742,4.1677356 L51.0839742,6.4853082 L52.7393832,6.4853082 L52.7393832,11.3152074 Z" id="Path"></path>
                    <path d="M60.4126908,0 C59.497347,0 58.815708,0.6426882 58.815708,1.5385566 C58.815708,2.434425 59.497347,3.0965886 60.4126908,3.0965886 C61.3085592,3.0965886 61.9901982,2.434425 61.9901982,1.5385566 C61.9901982,0.6426882 61.3085592,0 60.4126908,0 Z M59.0299374,4.1677356 L59.0299374,14.1780912 L61.7759688,14.1780912 L61.7759688,4.1677356 L59.0299374,4.1677356 Z" id="Shape"></path>
                    <path d="M68.5728834,14.2949436 C71.766849,14.2949436 73.8507168,12.269502 73.8507168,9.1729134 C73.8507168,6.0958002 71.766849,4.0508832 68.5728834,4.0508832 C65.3789178,4.0508832 63.29505,6.0958002 63.29505,9.1729134 C63.29505,12.2500266 65.3789178,14.2949436 68.5728834,14.2949436 Z M68.5728834,12.0552726 C67.0343268,12.0552726 66.0995076,10.8672732 66.0995076,9.1729134 C66.0995076,7.4785536 67.0343268,6.2905542 68.5728834,6.2905542 C70.11144,6.2905542 71.0657346,7.4785536 71.0657346,9.1729134 C71.0657346,10.8672732 70.11144,12.0552726 68.5728834,12.0552726 Z" id="Shape"></path>
                    <path d="M81.115041,4.0508832 C79.5764844,4.0508832 78.6611406,4.6351452 78.0184524,5.4141612 L77.7652722,4.1677356 L75.369798,4.1677356 L75.369798,14.1780912 L78.1158294,14.1780912 L78.1158294,9.056061 C78.1158294,7.3227504 78.9337962,6.3100296 80.3555004,6.3100296 C81.7382538,6.3100296 82.380942,7.205898 82.380942,8.9002578 L82.380942,14.1780912 L85.1269734,14.1780912 L85.1269734,8.7444546 C85.1269734,5.1025548 83.159958,4.0508832 81.115041,4.0508832 Z" id="Path"></path>
                </g>
                <path d="M66.0775,60.427 C66.0775,63.548 63.5475,66.078 60.4265,66.078 C57.3065,66.078 54.7765,63.548 54.7765,60.427 C54.7765,57.306 57.3065,54.776 60.4265,54.776 C63.5475,54.776 66.0775,57.306 66.0775,60.427" id="Fill-19" fill="#F3755D"></path>
                <path d="M472.6262,60.427 C472.6262,63.548 470.0962,66.078 466.9752,66.078 C463.8552,66.078 461.3252,63.548 461.3252,60.427 C461.3252,57.306 463.8552,54.776 466.9752,54.776 C470.0962,54.776 472.6262,57.306 472.6262,60.427" id="Fill-21" fill="#5575C4"></path>
                <path d="M497.222,325.3673 C497.222,328.4883 494.692,331.0183 491.571,331.0183 C488.451,331.0183 485.921,328.4883 485.921,325.3673 C485.921,322.2463 488.451,319.7163 491.571,319.7163 C494.692,319.7163 497.222,322.2463 497.222,325.3673" id="Fill-23" fill="#6D1D35"></path>
                <path d="M331.0726,192.6912 C331.0726,195.8122 328.5426,198.3422 325.4216,198.3422 C322.3016,198.3422 319.7716,195.8122 319.7716,192.6912 C319.7716,189.5702 322.3016,187.0402 325.4216,187.0402 C328.5426,187.0402 331.0726,189.5702 331.0726,192.6912" id="Fill-25" fill="#FDBD68"></path>
                <path d="M719.0518,192.6256 C719.0518,195.7466 716.5218,198.2766 713.4008,198.2766 C710.2808,198.2766 707.7508,195.7466 707.7508,192.6256 C707.7508,189.5046 710.2808,186.9746 713.4008,186.9746 C716.5218,186.9746 719.0518,189.5046 719.0518,192.6256" id="Fill-27" fill="#42BFB6"></path>
                <path d="M775.2404,325.0766 C775.2404,329.6166 771.5604,333.2966 767.0204,333.2966 C762.4804,333.2966 758.8004,329.6166 758.8004,325.0766 C758.8004,320.5366 762.4804,316.8566 767.0204,316.8566 C771.5604,316.8566 775.2404,320.5366 775.2404,325.0766" id="Fill-29" fill="#FCF2E6"></path>
                <path d="M775.2404,325.0766 C775.2404,329.6166 771.5604,333.2966 767.0204,333.2966 C762.4804,333.2966 758.8004,329.6166 758.8004,325.0766 C758.8004,320.5366 762.4804,316.8566 767.0204,316.8566 C771.5604,316.8566 775.2404,320.5366 775.2404,325.0766 Z" id="Stroke-31" stroke="#E5E5E5" stroke-width="0.885"></path>
            </g>
        </g>
    </g>
</svg>