<?xml version="1.0" encoding="UTF-8"?>
<svg width="601px" height="440px" viewBox="0 0 601 440" version="1.1" xmlns="http://www.w3.org/2000/svg" xmlns:xlink="http://www.w3.org/1999/xlink">
    <title>Group 37</title>
    <g id="Page-1" stroke="none" stroke-width="1" fill="none" fill-rule="evenodd">
        <g id="Group-37" transform="translate(0.7429, 0.248)">
            <path d="M362.932412,257.217659 C362.932412,357.438674 281.687768,438.683318 181.466753,438.683318 C81.2457373,438.683318 0,357.438674 0,257.217659 C0,156.996643 81.2457373,75.752 181.466753,75.752 C281.687768,75.752 362.932412,156.996643 362.932412,257.217659" id="Fill-5" fill="#DBF1FA"></path>
            <path d="M418.534341,438.998405 C318.313326,438.998405 237.067588,357.753761 237.067588,257.532746 C237.067588,157.31173 318.313326,76.0670867 418.534341,76.0670867 C518.755357,76.0670867 600,157.31173 600,257.532746 C600,357.753761 518.755357,438.998405 418.534341,438.998405 Z" id="Fill-7" fill="#025450"></path>
            <path d="M362.932412,257.532746 C362.932412,202.619623 338.53922,153.406632 300.000164,120.130161 C261.461108,153.406632 237.067916,202.619623 237.067916,257.532746 C237.067916,312.445868 261.461108,361.658859 300.000164,394.93533 C338.53922,361.658859 362.932412,312.445868 362.932412,257.532746" id="Fill-9" fill="#5575C4"></path>
            <path d="M468.854105,207.38439 C441.201195,207.38439 418.703671,229.88082 418.703671,257.532636 C418.703671,285.184452 441.201195,307.680882 468.854105,307.680882 C496.504828,307.680882 519.000164,285.184452 519.000164,257.532636 C519.000164,229.88082 496.504828,207.38439 468.854105,207.38439 M468.854105,212.930286 C493.447475,212.930286 513.453174,232.937079 513.453174,257.532636 C513.453174,282.126006 493.447475,302.134986 468.854105,302.134986 C444.26183,302.134986 424.250661,282.126006 424.250661,257.532636 C424.250661,232.937079 444.26183,212.930286 468.854105,212.930286" id="Fill-11" fill="#FFFFFF"></path>
            <path d="M491.154624,244.805625 L464.708247,244.805625 C464.241167,244.805625 463.843,245.142535 463.764241,245.601959 L462.529268,252.849909 C462.429726,253.434033 462.879305,253.967839 463.473273,253.967839 L480.43037,253.967839 C481.023245,253.967839 481.473918,254.501645 481.374376,255.086863 L480.712587,258.965709 L478.46907,272.124906 C477.999802,274.880352 475.374526,277.122776 472.61908,277.122776 L459.199542,277.122776 C458.732462,277.122776 458.333201,277.458592 458.255537,277.91911 L457.019469,285.16706 C456.919927,285.751184 457.3706,286.28499 457.963475,286.28499 L471.05704,286.28499 C478.865049,286.28499 486.301144,279.932915 487.632378,272.124906 L489.875896,258.965709 L492.098629,245.924649 C492.198171,245.339431 491.747499,244.805625 491.154624,244.805625" id="Fill-13" fill="#FFFFFF"></path>
            <path d="M459.106345,261.097214 C456.350899,261.097214 454.490234,258.855885 454.959502,256.099345 L457.20302,242.940147 C457.672288,240.184701 460.297564,237.943372 463.05301,237.943372 L476.473641,237.943372 C476.939628,237.943372 477.338889,237.606461 477.417647,237.145944 L478.652621,229.899088 C478.752162,229.31387 478.30149,228.780064 477.708615,228.780064 L464.61505,228.780064 C456.807041,228.780064 449.370946,235.132138 448.040806,242.940147 L445.797288,256.099345 C444.466054,263.907354 449.736296,270.259429 457.544306,270.259429 L470.963843,270.259429 C471.430923,270.259429 471.82909,269.923612 471.907848,269.463095 L473.143916,262.216238 C473.243458,261.631021 472.792785,261.097214 472.19991,261.097214 L459.106345,261.097214 Z" id="Fill-15" fill="#FFFFFF"></path>
            <g id="Intersection" transform="translate(207.2971, 0)" fill="#293990" fill-rule="nonzero">
                <polygon id="Path" points="0 0.952 0 24.752 5.1 24.752 5.1 0.952"></polygon>
                <path d="M18.802,7.072 C16.116,7.072 14.518,8.092 13.396,9.452 L12.954,7.276 L8.772,7.276 L8.772,24.752 L13.566,24.752 L13.566,15.81 C13.566,12.784 14.994,11.016 17.476,11.016 C19.89,11.016 21.012,12.58 21.012,15.538 L21.012,24.752 L25.806,24.752 L25.806,15.266 C25.806,8.908 22.372,7.072 18.802,7.072 Z" id="Path"></path>
                <path d="M29.954,19.754 C29.954,23.086 31.62,24.752 34.952,24.752 L38.93,24.752 L38.93,20.706 L36.448,20.706 C35.224,20.706 34.748,20.196 34.748,18.972 L34.748,11.322 L38.726,11.322 L38.726,7.276 L34.748,7.276 L34.748,2.38 L29.954,2.38 L29.954,7.276 L27.064,7.276 L27.064,11.322 L29.954,11.322 L29.954,19.754 Z" id="Path"></path>
                <path d="M39.712,16.048 C39.712,21.454 43.248,24.956 49.164,24.956 C53.754,24.956 56.712,22.236 57.256,18.836 L52.53,18.836 C52.122,20.468 50.762,21.318 48.824,21.318 C46.342,21.318 44.914,19.754 44.71,17.238 L44.71,17.102 L57.392,17.102 C57.494,16.558 57.528,15.98 57.528,15.47 C57.46,10.336 53.822,7.072 48.518,7.072 C43.248,7.072 39.712,10.574 39.712,16.048 Z M44.812,13.974 C45.084,11.9 46.648,10.642 48.722,10.642 C50.898,10.642 52.394,11.832 52.734,13.974 L44.812,13.974 Z" id="Shape"></path>
                <path d="M69.972,7.276 C67.252,7.276 65.892,8.33 64.94,9.894 L64.498,7.276 L60.146,7.276 L60.146,24.752 L64.94,24.752 L64.94,16.184 C64.94,13.532 66.028,11.628 68.884,11.628 L70.788,11.628 L70.788,7.276 L69.972,7.276 Z" id="Path"></path>
                <path d="M71.604,18.938 C71.774,22.678 75.106,24.956 79.934,24.956 C84.626,24.956 87.856,22.746 87.856,19.278 C87.856,15.334 84.524,14.416 80.546,13.974 C78.064,13.702 76.568,13.6 76.568,12.308 C76.568,11.152 77.792,10.438 79.594,10.438 C81.566,10.438 82.892,11.39 83.028,12.682 L87.584,12.682 C87.346,9.112 84.15,7.038 79.458,7.004 C75.004,7.004 71.978,9.282 71.978,12.75 C71.978,16.354 75.14,17.238 79.186,17.748 C81.974,18.088 83.198,18.224 83.198,19.618 C83.198,20.876 81.872,21.522 79.9,21.522 C77.758,21.522 76.296,20.468 76.16,18.938 L71.604,18.938 Z" id="Path"></path>
                <path d="M89.93,16.048 C89.93,21.454 93.466,24.956 99.382,24.956 C103.972,24.956 106.93,22.236 107.474,18.836 L102.748,18.836 C102.34,20.468 100.98,21.318 99.042,21.318 C96.56,21.318 95.132,19.754 94.928,17.238 L94.928,17.102 L107.61,17.102 C107.712,16.558 107.746,15.98 107.746,15.47 C107.678,10.336 104.04,7.072 98.736,7.072 C93.466,7.072 89.93,10.574 89.93,16.048 Z M95.03,13.974 C95.302,11.9 96.866,10.642 98.94,10.642 C101.116,10.642 102.612,11.832 102.952,13.974 L95.03,13.974 Z" id="Shape"></path>
                <path d="M127.16,18.122 L122.23,18.122 C121.856,19.924 120.598,21.046 118.694,21.046 C116.178,21.046 114.58,18.972 114.58,16.014 C114.58,13.022 116.178,10.982 118.694,10.982 C120.53,10.982 121.788,12.104 122.196,13.804 L127.16,13.804 C126.48,9.656 123.454,7.072 118.728,7.072 C113.22,7.072 109.684,10.574 109.684,16.014 C109.684,21.386 113.186,24.956 118.694,24.956 C123.454,24.956 126.514,22.338 127.16,18.122 Z" id="Path"></path>
                <path d="M130.866,19.754 C130.866,23.086 132.532,24.752 135.864,24.752 L139.842,24.752 L139.842,20.706 L137.36,20.706 C136.136,20.706 135.66,20.196 135.66,18.972 L135.66,11.322 L139.638,11.322 L139.638,7.276 L135.66,7.276 L135.66,2.38 L130.866,2.38 L130.866,7.276 L127.976,7.276 L127.976,11.322 L130.866,11.322 L130.866,19.754 Z" id="Path"></path>
                <path d="M144.262,0 C142.664,0 141.474,1.122 141.474,2.686 C141.474,4.25 142.664,5.406 144.262,5.406 C145.826,5.406 147.016,4.25 147.016,2.686 C147.016,1.122 145.826,0 144.262,0 Z M141.848,7.276 L141.848,24.752 L146.642,24.752 L146.642,7.276 L141.848,7.276 Z" id="Shape"></path>
                <path d="M158.508,24.956 C164.084,24.956 167.722,21.42 167.722,16.014 C167.722,10.642 164.084,7.072 158.508,7.072 C152.932,7.072 149.294,10.642 149.294,16.014 C149.294,21.386 152.932,24.956 158.508,24.956 Z M158.508,21.046 C155.822,21.046 154.19,18.972 154.19,16.014 C154.19,13.056 155.822,10.982 158.508,10.982 C161.194,10.982 162.86,13.056 162.86,16.014 C162.86,18.972 161.194,21.046 158.508,21.046 Z" id="Shape"></path>
                <path d="M180.404,7.072 C177.718,7.072 176.12,8.092 174.998,9.452 L174.556,7.276 L170.374,7.276 L170.374,24.752 L175.168,24.752 L175.168,15.81 C175.168,12.784 176.596,11.016 179.078,11.016 C181.492,11.016 182.614,12.58 182.614,15.538 L182.614,24.752 L187.408,24.752 L187.408,15.266 C187.408,8.908 183.974,7.072 180.404,7.072 Z" id="Path"></path>
            </g>
            <g id="Where-your-program-should-be." transform="translate(188.7051, 33.552)" fill="#5575C4" fill-rule="nonzero">
                <polygon id="Path" points="0 0 3.264 11.2 4.928 11.2 7.472 2.32 10.032 11.2 11.696 11.2 14.976 0 13.536 0 10.896 9.408 8.24 0 6.832 0 4.08 9.408 1.456 0"></polygon>
                <path d="M20.32,2.944 C18.944,2.944 18.112,3.616 17.632,4.384 L17.632,0 L16.32,0 L16.32,11.2 L17.632,11.2 L17.632,7.12 C17.632,5.28 18.576,4.144 20.096,4.144 C21.504,4.144 22.32,5.04 22.32,6.736 L22.32,11.2 L23.632,11.2 L23.632,6.656 C23.632,3.952 22.144,2.944 20.32,2.944 Z" id="Path"></path>
                <path d="M25.024,7.12 C25.024,9.616 26.624,11.296 29.072,11.296 C30.96,11.296 32.304,10.096 32.624,8.464 L31.296,8.464 C31.024,9.52 30.128,10.128 28.976,10.128 C27.456,10.128 26.448,9.072 26.4,7.488 L26.4,7.376 L32.736,7.376 C32.752,7.184 32.768,6.992 32.768,6.816 C32.704,4.4 31.136,2.944 28.896,2.944 C26.592,2.944 25.024,4.608 25.024,7.12 Z M26.48,6.288 C26.608,4.96 27.712,4.096 28.912,4.096 C30.272,4.096 31.28,4.88 31.408,6.288 L26.48,6.288 Z" id="Shape"></path>
                <path d="M38.048,3.04 C36.592,3.04 35.968,3.648 35.584,4.272 L35.408,3.04 L34.272,3.04 L34.272,11.2 L35.584,11.2 L35.584,7.04 C35.584,5.744 36.048,4.32 37.76,4.32 L38.416,4.32 L38.416,3.04 L38.048,3.04 Z" id="Path"></path>
                <path d="M38.4,7.12 C38.4,9.616 40,11.296 42.448,11.296 C44.336,11.296 45.68,10.096 46,8.464 L44.672,8.464 C44.4,9.52 43.504,10.128 42.352,10.128 C40.832,10.128 39.824,9.072 39.776,7.488 L39.776,7.376 L46.112,7.376 C46.128,7.184 46.144,6.992 46.144,6.816 C46.08,4.4 44.512,2.944 42.272,2.944 C39.968,2.944 38.4,4.608 38.4,7.12 Z M39.856,6.288 C39.984,4.96 41.088,4.096 42.288,4.096 C43.648,4.096 44.656,4.88 44.784,6.288 L39.856,6.288 Z" id="Shape"></path>
                <path d="M51.024,3.04 L54.224,11.264 L53.808,12.24 C53.488,13.008 53.376,13.2 52.624,13.2 L51.456,13.2 L51.456,14.4 L53.024,14.4 C54.176,14.4 54.48,13.888 54.992,12.576 L58.752,3.04 L57.36,3.04 L54.928,9.696 L52.416,3.04 L51.024,3.04 Z" id="Path"></path>
                <path d="M62.848,11.296 C65.232,11.296 66.896,9.6 66.896,7.12 C66.896,4.64 65.232,2.944 62.848,2.944 C60.464,2.944 58.8,4.64 58.8,7.12 C58.8,9.6 60.464,11.296 62.848,11.296 Z M62.848,10.128 C61.232,10.128 60.144,8.864 60.144,7.12 C60.144,5.376 61.232,4.112 62.848,4.112 C64.464,4.112 65.552,5.376 65.552,7.12 C65.552,8.864 64.464,10.128 62.848,10.128 Z" id="Shape"></path>
                <path d="M74.112,3.04 L74.112,7.12 C74.112,8.96 73.216,10.096 71.728,10.096 C70.368,10.096 69.6,9.2 69.6,7.504 L69.6,3.04 L68.288,3.04 L68.288,7.584 C68.288,10.288 69.712,11.296 71.504,11.296 C72.848,11.296 73.632,10.72 74.112,10.112 L74.288,11.2 L75.424,11.2 L75.424,3.04 L74.112,3.04 Z" id="Path"></path>
                <path d="M80.992,3.04 C79.536,3.04 78.912,3.648 78.528,4.272 L78.352,3.04 L77.216,3.04 L77.216,11.2 L78.528,11.2 L78.528,7.04 C78.528,5.744 78.992,4.32 80.704,4.32 L81.36,4.32 L81.36,3.04 L80.992,3.04 Z" id="Path"></path>
                <path d="M90.864,2.944 C89.488,2.944 88.608,3.6 88.064,4.352 L87.888,3.04 L86.752,3.04 L86.752,14.4 L88.064,14.4 L88.064,9.952 C88.56,10.736 89.488,11.296 90.864,11.296 C93.12,11.296 94.784,9.616 94.784,7.12 C94.784,4.464 93.12,2.944 90.864,2.944 Z M90.736,10.128 C89.136,10.128 88.048,8.88 88.048,7.088 C88.048,5.344 89.136,4.112 90.736,4.112 C92.352,4.112 93.44,5.344 93.44,7.12 C93.44,8.896 92.352,10.128 90.736,10.128 Z" id="Shape"></path>
                <path d="M100.064,3.04 C98.608,3.04 97.984,3.648 97.6,4.272 L97.424,3.04 L96.288,3.04 L96.288,11.2 L97.6,11.2 L97.6,7.04 C97.6,5.744 98.064,4.32 99.776,4.32 L100.432,4.32 L100.432,3.04 L100.064,3.04 Z" id="Path"></path>
                <path d="M104.464,11.296 C106.848,11.296 108.512,9.6 108.512,7.12 C108.512,4.64 106.848,2.944 104.464,2.944 C102.08,2.944 100.416,4.64 100.416,7.12 C100.416,9.6 102.08,11.296 104.464,11.296 Z M104.464,10.128 C102.848,10.128 101.76,8.864 101.76,7.12 C101.76,5.376 102.848,4.112 104.464,4.112 C106.08,4.112 107.168,5.376 107.168,7.12 C107.168,8.864 106.08,10.128 104.464,10.128 Z" id="Shape"></path>
                <path d="M116.624,3.04 L116.448,4.448 C115.936,3.536 115.024,2.944 113.648,2.944 C111.392,2.944 109.728,4.624 109.728,7.12 C109.728,9.776 111.392,11.296 113.648,11.296 C115.024,11.296 115.904,10.72 116.448,9.792 L116.448,10.752 C116.448,12.528 115.52,13.328 113.808,13.328 C112.448,13.328 111.536,12.752 111.312,11.728 L109.968,11.728 C110.176,13.52 111.632,14.496 113.712,14.496 C116.512,14.496 117.76,13.152 117.76,10.8 L117.76,3.04 L116.624,3.04 Z M113.776,10.128 C112.16,10.128 111.072,8.896 111.072,7.12 C111.072,5.344 112.16,4.112 113.776,4.112 C115.376,4.112 116.464,5.36 116.464,7.152 C116.464,8.896 115.376,10.128 113.776,10.128 Z" id="Shape"></path>
                <path d="M123.328,3.04 C121.872,3.04 121.248,3.648 120.864,4.272 L120.688,3.04 L119.552,3.04 L119.552,11.2 L120.864,11.2 L120.864,7.04 C120.864,5.744 121.328,4.32 123.04,4.32 L123.696,4.32 L123.696,3.04 L123.328,3.04 Z" id="Path"></path>
                <path d="M131.36,10 C131.024,10 130.816,9.808 130.816,9.408 L130.816,5.888 C130.816,3.984 129.616,2.944 127.536,2.944 C125.568,2.944 124.272,3.888 124.08,5.488 L125.392,5.488 C125.552,4.656 126.32,4.112 127.472,4.112 C128.752,4.112 129.504,4.752 129.504,5.808 L129.504,6.368 L127.104,6.368 C124.96,6.368 123.824,7.28 123.824,8.912 C123.824,10.4 125.04,11.296 126.832,11.296 C128.24,11.296 129.056,10.672 129.568,9.936 C129.584,10.736 129.952,11.2 131.04,11.2 L131.76,11.2 L131.76,10 L131.36,10 Z M129.504,7.872 C129.504,9.232 128.56,10.176 126.928,10.176 C125.84,10.176 125.152,9.632 125.152,8.832 C125.152,7.904 125.808,7.472 126.976,7.472 L129.504,7.472 L129.504,7.872 Z" id="Shape"></path>
                <path d="M141.872,2.944 C140.416,2.944 139.536,3.616 139.04,4.496 C138.576,3.456 137.6,2.944 136.464,2.944 C135.2,2.944 134.512,3.568 134.08,4.16 L133.904,3.04 L132.768,3.04 L132.768,11.2 L134.08,11.2 L134.08,6.896 C134.08,5.264 134.896,4.144 136.24,4.144 C137.488,4.144 138.208,4.976 138.208,6.576 L138.208,11.2 L139.52,11.2 L139.52,6.832 C139.52,5.168 140.352,4.144 141.712,4.144 C142.944,4.144 143.648,4.976 143.648,6.576 L143.648,11.2 L144.96,11.2 L144.96,6.496 C144.96,3.92 143.568,2.944 141.872,2.944 Z" id="Path"></path>
                <path d="M150.544,8.512 C150.576,10.304 152.016,11.296 154.096,11.296 C155.888,11.296 157.328,10.352 157.328,8.832 C157.328,7.024 155.84,6.64 154.016,6.416 C152.864,6.272 152.016,6.192 152.016,5.296 C152.016,4.544 152.768,4.048 153.872,4.048 C154.976,4.048 155.76,4.688 155.856,5.52 L157.168,5.52 C157.04,3.824 155.712,2.944 153.872,2.928 C152.08,2.912 150.72,3.904 150.72,5.392 C150.72,7.088 152.176,7.424 153.952,7.648 C155.152,7.792 156.032,7.904 156.032,8.928 C156.032,9.68 155.232,10.176 154.096,10.176 C152.768,10.176 151.904,9.472 151.856,8.512 L150.544,8.512 Z" id="Path"></path>
                <path d="M162.816,2.944 C161.44,2.944 160.608,3.616 160.128,4.384 L160.128,0 L158.816,0 L158.816,11.2 L160.128,11.2 L160.128,7.12 C160.128,5.28 161.072,4.144 162.592,4.144 C164,4.144 164.816,5.04 164.816,6.736 L164.816,11.2 L166.128,11.2 L166.128,6.656 C166.128,3.952 164.64,2.944 162.816,2.944 Z" id="Path"></path>
                <path d="M171.568,11.296 C173.952,11.296 175.616,9.6 175.616,7.12 C175.616,4.64 173.952,2.944 171.568,2.944 C169.184,2.944 167.52,4.64 167.52,7.12 C167.52,9.6 169.184,11.296 171.568,11.296 Z M171.568,10.128 C169.952,10.128 168.864,8.864 168.864,7.12 C168.864,5.376 169.952,4.112 171.568,4.112 C173.184,4.112 174.272,5.376 174.272,7.12 C174.272,8.864 173.184,10.128 171.568,10.128 Z" id="Shape"></path>
                <path d="M182.832,3.04 L182.832,7.12 C182.832,8.96 181.936,10.096 180.448,10.096 C179.088,10.096 178.32,9.2 178.32,7.504 L178.32,3.04 L177.008,3.04 L177.008,7.584 C177.008,10.288 178.432,11.296 180.224,11.296 C181.568,11.296 182.352,10.72 182.832,10.112 L183.008,11.2 L184.144,11.2 L184.144,3.04 L182.832,3.04 Z" id="Path"></path>
                <polygon id="Path" points="185.936 0 185.936 11.2 187.248 11.2 187.248 0"></polygon>
                <path d="M195.472,0 L195.472,4.288 C194.976,3.504 194.048,2.944 192.672,2.944 C190.416,2.944 188.752,4.624 188.752,7.12 C188.752,9.776 190.416,11.296 192.672,11.296 C194.048,11.296 194.928,10.64 195.472,9.888 L195.648,11.2 L196.784,11.2 L196.784,0 L195.472,0 Z M192.8,10.128 C191.184,10.128 190.096,8.896 190.096,7.12 C190.096,5.344 191.184,4.112 192.8,4.112 C194.4,4.112 195.488,5.36 195.488,7.152 C195.488,8.896 194.4,10.128 192.8,10.128 Z" id="Shape"></path>
                <path d="M206.88,2.944 C205.504,2.944 204.624,3.6 204.08,4.352 L204.08,0 L202.768,0 L202.768,11.2 L203.904,11.2 L204.08,9.952 C204.576,10.736 205.504,11.296 206.88,11.296 C209.136,11.296 210.8,9.616 210.8,7.12 C210.8,4.464 209.136,2.944 206.88,2.944 Z M206.752,10.128 C205.152,10.128 204.064,8.88 204.064,7.088 C204.064,5.344 205.152,4.112 206.752,4.112 C208.368,4.112 209.456,5.344 209.456,7.12 C209.456,8.896 208.368,10.128 206.752,10.128 Z" id="Shape"></path>
                <path d="M212.016,7.12 C212.016,9.616 213.616,11.296 216.064,11.296 C217.952,11.296 219.296,10.096 219.616,8.464 L218.288,8.464 C218.016,9.52 217.12,10.128 215.968,10.128 C214.448,10.128 213.44,9.072 213.392,7.488 L213.392,7.376 L219.728,7.376 C219.744,7.184 219.76,6.992 219.76,6.816 C219.696,4.4 218.128,2.944 215.888,2.944 C213.584,2.944 212.016,4.608 212.016,7.12 Z M213.472,6.288 C213.6,4.96 214.704,4.096 215.904,4.096 C217.264,4.096 218.272,4.88 218.4,6.288 L213.472,6.288 Z" id="Shape"></path>
                <path d="M220.0464,10.4 C220.0464,10.944 220.4304,11.296 220.9584,11.296 C221.4864,11.296 221.8704,10.944 221.8704,10.4 C221.8704,9.856 221.4864,9.504 220.9584,9.504 C220.4304,9.504 220.0464,9.856 220.0464,10.4 Z" id="Path"></path>
            </g>
            <g id="Your-Data" transform="translate(64.9161, 249.8031)" fill="#293990" fill-rule="nonzero">
                <polygon id="Path" points="0 0 6.2226639 10.653588 6.2226639 16.94889 9.8545689 16.94889 9.8545689 10.653588 16.0772328 0 12.0337119 0 8.0386164 6.9490449 4.2372225 0"></polygon>
                <path d="M21.4040268,17.0941662 C25.3749096,17.0941662 27.9656685,14.5760454 27.9656685,10.7262261 C27.9656685,6.9006195 25.3749096,4.358286 21.4040268,4.358286 C17.433144,4.358286 14.8423851,6.9006195 14.8423851,10.7262261 C14.8423851,14.5518327 17.433144,17.0941662 21.4040268,17.0941662 Z M21.4040268,14.3097057 C19.4912235,14.3097057 18.3290139,12.832731 18.3290139,10.7262261 C18.3290139,8.6197212 19.4912235,7.1427465 21.4040268,7.1427465 C23.3168301,7.1427465 24.5032524,8.6197212 24.5032524,10.7262261 C24.5032524,12.832731 23.3168301,14.3097057 21.4040268,14.3097057 Z" id="Shape"></path>
                <path d="M38.1592152,4.5035622 L38.1592152,10.6293753 C38.1592152,12.9295818 37.1664945,14.2612803 35.4716055,14.2612803 C33.7767165,14.2612803 33.0503355,13.0506453 33.0503355,10.8472896 L33.0503355,4.5035622 L29.6363448,4.5035622 L29.6363448,11.2589055 C29.6363448,15.7866804 32.0091894,17.0941662 34.5757356,17.0941662 C36.3432627,17.0941662 37.4328342,16.4162106 38.2318533,15.4477026 L38.5466184,16.94889 L41.5732059,16.94889 L41.5732059,4.5035622 L38.1592152,4.5035622 Z" id="Path"></path>
                <path d="M50.9435208,4.5035622 C49.0065048,4.5035622 48.0379968,5.2541559 47.3600412,6.3679401 L47.0452761,4.5035622 L43.9460505,4.5035622 L43.9460505,16.94889 L47.3600412,16.94889 L47.3600412,10.8472896 C47.3600412,8.958699 48.1348476,7.6027878 50.1687144,7.6027878 L51.5246256,7.6027878 L51.5246256,4.5035622 L50.9435208,4.5035622 Z" id="Path"></path>
                <path d="M59.321115,16.94889 L65.2048011,16.94889 C70.3863189,16.94889 73.7518842,13.4380485 73.7518842,8.474445 C73.7518842,3.5108415 70.3863189,0 65.2048011,0 L59.321115,0 L59.321115,16.94889 Z M62.95302,13.9223025 L62.95302,3.0265875 L65.2048011,3.0265875 C68.3524521,3.0265875 70.0473411,5.2541559 70.0473411,8.474445 C70.0473411,11.6947341 68.3524521,13.9223025 65.2048011,13.9223025 L62.95302,13.9223025 Z" id="Shape"></path>
                <path d="M87.5773359,14.0675787 C87.0688692,14.0675787 86.7783168,13.8980898 86.7783168,13.2685596 L86.7783168,8.8860609 C86.7783168,5.9078988 84.74445,4.358286 81.2578212,4.358286 C77.9406813,4.358286 75.7615383,5.7868353 75.5194113,8.3775942 L78.8123385,8.3775942 C78.9576147,7.4575116 79.8292719,6.8521941 81.0883323,6.8521941 C82.5168816,6.8521941 83.4127515,7.5785751 83.4127515,8.6923593 L83.4127515,9.2976768 L80.9430561,9.2976768 C77.2143003,9.2976768 75.2288589,10.7988642 75.2288589,13.4380485 C75.2288589,15.8108931 77.1658749,17.0941662 79.8534846,17.0941662 C81.7905006,17.0941662 83.049561,16.2951471 83.9212182,14.9150232 C83.8970055,16.1014455 84.4538976,16.94889 86.2214247,16.94889 L87.9647391,16.94889 L87.9647391,14.0675787 L87.5773359,14.0675787 Z M83.4127515,11.8157976 C83.3885388,13.5106866 82.2989673,14.6244708 80.5072275,14.6244708 C79.3692306,14.6244708 78.6670623,14.0675787 78.6670623,13.1959215 C78.6670623,12.1547754 79.5145068,11.5736706 80.9188434,11.5736706 L83.4127515,11.5736706 L83.4127515,11.8157976 Z" id="Shape"></path>
                <path d="M90.0954567,13.3896231 C90.0954567,15.7624677 91.281879,16.94889 93.6547236,16.94889 L96.4876095,16.94889 L96.4876095,14.0675787 L94.7200824,14.0675787 C93.8484252,14.0675787 93.5094474,13.7043882 93.5094474,12.832731 L93.5094474,7.3848735 L96.3423333,7.3848735 L96.3423333,4.5035622 L93.5094474,4.5035622 L93.5094474,1.0169334 L90.0954567,1.0169334 L90.0954567,4.5035622 L88.0373772,4.5035622 L88.0373772,7.3848735 L90.0954567,7.3848735 L90.0954567,13.3896231 Z" id="Path"></path>
                <path d="M109.635106,14.0675787 C109.126639,14.0675787 108.836087,13.8980898 108.836087,13.2685596 L108.836087,8.8860609 C108.836087,5.9078988 106.80222,4.358286 103.315591,4.358286 C99.998451,4.358286 97.819308,5.7868353 97.577181,8.3775942 L100.870108,8.3775942 C101.015384,7.4575116 101.887042,6.8521941 103.146102,6.8521941 C104.574651,6.8521941 105.470521,7.5785751 105.470521,8.6923593 L105.470521,9.2976768 L103.000826,9.2976768 C99.27207,9.2976768 97.2866286,10.7988642 97.2866286,13.4380485 C97.2866286,15.8108931 99.2236446,17.0941662 101.911254,17.0941662 C103.84827,17.0941662 105.107331,16.2951471 105.978988,14.9150232 C105.954775,16.1014455 106.511667,16.94889 108.279194,16.94889 L110.022509,16.94889 L110.022509,14.0675787 L109.635106,14.0675787 Z M105.470521,11.8157976 C105.446309,13.5106866 104.356737,14.6244708 102.564997,14.6244708 C101.427,14.6244708 100.724832,14.0675787 100.724832,13.1959215 C100.724832,12.1547754 101.572277,11.5736706 102.976613,11.5736706 L105.470521,11.5736706 L105.470521,11.8157976 Z" id="Shape"></path>
            </g>
            <line x1="299.7571" y1="128.252" x2="299.804033" y2="67.752" id="Stroke-19" stroke="#5575C4"></line>
        </g>
    </g>
</svg>