<?xml version="1.0" encoding="UTF-8"?>
<svg id="Layer_2" data-name="Layer 2" xmlns="http://www.w3.org/2000/svg" viewBox="0 0 778.52 192.29">
  <defs>
    <style>
      .cls-1 {
        fill: #a38fef;
      }

      .cls-1, .cls-2 {
        stroke-width: 0px;
      }

      .cls-2 {
        fill: #025450;
      }
    </style>
  </defs>
  <g id="Layer_1-2" data-name="Layer 1">
    <g>
      <g>
        <path class="cls-2" d="M93.98,0c46.45,0,78.85,29.97,82.36,72.1h-49.69c-3.51-18.09-15.94-31.06-35.38-31.06-25.93,0-40.51,22.69-40.51,55.09s14.58,55.09,40.51,55.09c19.44,0,31.87-12.96,35.38-31.06h49.69c-3.51,42.13-35.91,72.1-82.36,72.1-58.6.02-93.98-37.79-93.98-96.13S35.38,0,93.98,0Z"/>
        <path class="cls-2" d="M273.31,1.62v135.84c0,33.23-20.26,53.2-53.47,53.2h-40.23v-42.13h22.95c15.12,0,21.07-7.28,21.07-22.14V1.62h49.69Z"/>
        <path class="cls-2" d="M338.82,1.62v109.65c0,25.12,8.64,39.17,31.06,39.17s31.06-14.05,31.06-39.17V1.62h49.69v106.95c0,53.75-27.82,83.72-80.74,83.72s-80.74-29.97-80.74-83.72V1.62h49.69Z"/>
      </g>
      <g>
        <path class="cls-1" d="M536.41,98.86c15.8-12.59,23.57-22.23,23.57-34.55,0-15.8-9.91-23.57-24.1-23.57-13.12,0-23.57,10.71-23.57,27.85v2.68h-47.67v-5.36c0-35.62,27.59-64.28,71.24-64.28,47.4,0,71.78,25.18,71.78,60.8,0,27.32-13.66,43.65-37.76,62.67l-34.28,27.05h72.85v38.83h-142.21v-35.62l70.17-56.51Z"/>
        <path class="cls-1" d="M696.03,3.52h58.65v111.95h23.84v38.3h-23.84v37.23h-46.06v-37.23h-89.45v-38.3L696.03,3.52ZM708.62,115.47V47.71l-46.07,67.76h46.07Z"/>
      </g>
    </g>
  </g>
</svg>