<?xml version="1.0" encoding="UTF-8"?>
<svg width="21px" height="14px" viewBox="0 0 21 14" version="1.1" xmlns="http://www.w3.org/2000/svg" xmlns:xlink="http://www.w3.org/1999/xlink">
    <!-- Generator: Sketch 51.2 (57519) - http://www.bohemiancoding.com/sketch -->
    <title>Fill 100 + Fill 101</title>
    <desc>Created with Sketch.</desc>
    <defs></defs>
    <g id="Symbols" stroke="none" stroke-width="1" fill="none" fill-rule="evenodd">
        <g id="footer/dark_icons_fill" transform="translate(-764.000000, -109.000000)" fill="#AAABAD">
            <g id="Group-12" transform="translate(-2.000000, 0.000000)">
                <g id="Group-2" transform="translate(766.000000, 104.000000)">
                    <g id="Fill-100-+-Fill-101" transform="translate(0.990044, 5.000000)">
                        <path d="M19.7354545,0.887272727 L10.2863636,8.53545455 C10.2027273,8.60272727 10.1009091,8.63636364 10,8.63636364 C9.89909091,8.63636364 9.79727273,8.60272727 9.71363636,8.53545455 L0.265454545,0.887272727 C0.100909091,1.16090909 0,1.47636364 0,1.81818182 L0,11.8181818 C0,12.8209091 0.815454545,13.6363636 1.81818182,13.6363636 L18.1818182,13.6363636 C19.1845455,13.6363636 20,12.8209091 20,11.8181818 L20,1.81818182 C20,1.47636364 19.8990909,1.16090909 19.7354545,0.887272727" id="Fill-100"></path>
                        <path d="M19.08,0.247272727 C18.8136364,0.0936363636 18.51,0 18.1818182,0 L1.81818182,0 C1.49,0 1.18636364,0.0936363636 0.92,0.247272727 L10,7.59727273 L19.08,0.247272727" id="Fill-101"></path>
                    </g>
                </g>
            </g>
        </g>
    </g>
</svg>