<?xml version="1.0" encoding="utf-8"?>
<!-- Generator: Adobe Illustrator 28.3.0, SVG Export Plug-In . SVG Version: 6.00 Build 0)  -->
<svg version="1.1" id="Layer_1" xmlns="http://www.w3.org/2000/svg" xmlns:xlink="http://www.w3.org/1999/xlink" x="0px" y="0px"
	 viewBox="0 0 29 29" style="enable-background:new 0 0 29 29;" xml:space="preserve">
<style type="text/css">
	.st0{fill-rule:evenodd;clip-rule:evenodd;fill:#FFFFFF;}
	.st1{fill-rule:evenodd;clip-rule:evenodd;fill:#0B66C2;}
</style>
<g id="Page-1">
	<g id="Sticky-Share" transform="translate(-23.000000, -359.000000)">
		<g id="social-icons" transform="translate(23.000000, 291.000000)">
			<g id="Group-4" transform="translate(0.000000, 68.000000)">
				<circle id="Oval" class="st0" cx="14" cy="15" r="12"/>
				<path id="Shape" class="st1" d="M22.2,21v-5.6c0-3-1.6-4.4-3.7-4.4c-1.7,0-2.5,0.9-2.9,1.6v-1.4h-3.2c0,0.9,0,9.7,0,9.7h3.2
					v-5.4c0-0.3,0-0.6,0.1-0.8c0.2-0.6,0.8-1.2,1.7-1.2c1.2,0,1.6,0.9,1.6,2.2V21L22.2,21L22.2,21z M9,9.9c1.1,0,1.8-0.7,1.8-1.7
					c0-1-0.7-1.7-1.8-1.7S7.2,7.3,7.2,8.3C7.2,9.2,7.9,9.9,9,9.9L9,9.9z M14.2,28.5C6.4,28.5,0,22.1,0,14.2C0,6.4,6.4,0,14.2,0
					s14.2,6.4,14.2,14.2C28.5,22.1,22.1,28.5,14.2,28.5z M10.6,21v-9.7H7.4V21H10.6z"/>
			</g>
		</g>
	</g>
</g>
</svg>
