<?xml version="1.0" encoding="UTF-8"?>
<svg width="405px" height="513px" viewBox="0 0 405 513" version="1.1" xmlns="http://www.w3.org/2000/svg" xmlns:xlink="http://www.w3.org/1999/xlink">
    <title>Group 3</title>
    <g id="translations---outlined" stroke="none" stroke-width="1" fill="none" fill-rule="evenodd">
        <g id="ACI-ES-2021" transform="translate(-74.000000, -65.000000)">
            <g id="Group-3" transform="translate(74.000000, 65.000000)">
                <g id="Group" fill-rule="nonzero">
                    <rect id="Rectangle-3" fill="#F4F2EF" x="0" y="0" width="405" height="231"></rect>
                    <path d="M107.636,161 C110.204,161 111.872,159.26 111.872,156.8 C111.872,154.34 110.204,152.6 107.636,152.6 L104.72,152.6 L104.72,161 L107.636,161 Z M107.636,159.5 L106.52,159.5 L106.52,154.1 L107.636,154.1 C109.196,154.1 110.036,155.204 110.036,156.8 C110.036,158.396 109.196,159.5 107.636,159.5 Z M120.248,161 L120.248,159.452 L116.276,159.452 L116.276,157.508 L119.396,157.508 L119.396,156.032 L116.276,156.032 L116.276,154.148 L120.116,154.148 L120.116,152.6 L114.476,152.6 L114.476,161 L120.248,161 Z M128.492,161 L129.14,159.164 L132.332,159.164 L132.98,161 L134.912,161 L131.864,152.6 L129.704,152.6 L126.632,161 L128.492,161 Z M131.84,157.712 L129.62,157.712 L130.724,154.52 L131.84,157.712 Z M140.06,161.072 C142.328,161.072 143.516,159.764 143.516,157.376 L143.516,152.6 L141.716,152.6 L141.716,157.472 C141.716,158.804 141.224,159.524 140.06,159.524 C138.908,159.524 138.416,158.804 138.416,157.472 L138.416,152.6 L136.616,152.6 L136.616,157.376 C136.616,159.764 137.804,161.072 140.06,161.072 Z M148.112,161 L148.112,155.372 L150.296,161 L151.76,161 L153.944,155.372 L153.944,161 L155.66,161 L155.66,152.6 L153.344,152.6 L151.088,158.768 L148.76,152.6 L146.396,152.6 L146.396,161 L148.112,161 Z M164.372,161 L164.372,159.452 L160.4,159.452 L160.4,157.508 L163.52,157.508 L163.52,156.032 L160.4,156.032 L160.4,154.148 L164.24,154.148 L164.24,152.6 L158.6,152.6 L158.6,161 L164.372,161 Z M168.716,161 L168.716,155.708 L172.28,161 L173.924,161 L173.924,152.6 L172.148,152.6 L172.148,157.892 L168.584,152.6 L166.952,152.6 L166.952,161 L168.716,161 Z M180.62,161 L180.62,154.148 L183.044,154.148 L183.044,152.6 L176.396,152.6 L176.396,154.148 L178.82,154.148 L178.82,161 L180.62,161 Z M188.78,161.072 C191.252,161.072 192.944,159.248 192.944,156.8 C192.944,154.352 191.252,152.528 188.78,152.528 C186.308,152.528 184.616,154.352 184.616,156.8 C184.616,159.248 186.308,161.072 188.78,161.072 Z M188.78,159.548 C187.364,159.548 186.452,158.384 186.452,156.8 C186.452,155.216 187.364,154.052 188.78,154.052 C190.184,154.052 191.096,155.216 191.096,156.8 C191.096,158.384 190.184,159.548 188.78,159.548 Z M201.812,161 L201.812,152.6 L200.012,152.6 L200.012,161 L201.812,161 Z M206.504,161 L206.504,155.708 L210.068,161 L211.712,161 L211.712,152.6 L209.936,152.6 L209.936,157.892 L206.372,152.6 L204.74,152.6 L204.74,161 L206.504,161 Z M218.408,161 L218.408,154.148 L220.832,154.148 L220.832,152.6 L214.184,152.6 L214.184,154.148 L216.608,154.148 L216.608,161 L218.408,161 Z M229.088,161 L229.088,159.452 L225.116,159.452 L225.116,157.508 L228.236,157.508 L228.236,156.032 L225.116,156.032 L225.116,154.148 L228.956,154.148 L228.956,152.6 L223.316,152.6 L223.316,161 L229.088,161 Z M233.468,161 L233.468,158.18 L234.992,158.18 L236.396,161 L238.388,161 L236.732,157.76 C237.608,157.34 238.172,156.476 238.172,155.396 C238.172,153.692 236.936,152.6 235.088,152.6 L231.668,152.6 L231.668,161 L233.468,161 Z M234.944,156.68 L233.468,156.68 L233.468,154.1 L234.944,154.1 C235.796,154.1 236.336,154.604 236.336,155.396 C236.336,156.176 235.796,156.68 234.944,156.68 Z M242,161 L242.648,159.164 L245.84,159.164 L246.488,161 L248.42,161 L245.372,152.6 L243.212,152.6 L240.14,161 L242,161 Z M245.348,157.712 L243.128,157.712 L244.232,154.52 L245.348,157.712 Z M252.452,161 L252.452,155.708 L256.016,161 L257.66,161 L257.66,152.6 L255.884,152.6 L255.884,157.892 L252.32,152.6 L250.688,152.6 L250.688,161 L252.452,161 Z M263.972,161.072 C266.24,161.072 267.428,159.764 267.428,157.376 L267.428,152.6 L265.628,152.6 L265.628,157.472 C265.628,158.804 265.136,159.524 263.972,159.524 C262.82,159.524 262.328,158.804 262.328,157.472 L262.328,152.6 L260.528,152.6 L260.528,157.376 C260.528,159.764 261.716,161.072 263.972,161.072 Z M270.992,161 L271.64,159.164 L274.832,159.164 L275.48,161 L277.412,161 L274.364,152.6 L272.204,152.6 L269.132,161 L270.992,161 Z M274.34,157.712 L272.12,157.712 L273.224,154.52 L274.34,157.712 Z M284.816,161 L284.816,159.452 L281.48,159.452 L281.48,152.6 L279.68,152.6 L279.68,161 L284.816,161 Z M294.68,161 C297.248,161 298.916,159.26 298.916,156.8 C298.916,154.34 297.248,152.6 294.68,152.6 L291.764,152.6 L291.764,161 L294.68,161 Z M294.68,159.5 L293.564,159.5 L293.564,154.1 L294.68,154.1 C296.24,154.1 297.08,155.204 297.08,156.8 C297.08,158.396 296.24,159.5 294.68,159.5 Z M307.292,161 L307.292,159.452 L303.32,159.452 L303.32,157.508 L306.44,157.508 L306.44,156.032 L303.32,156.032 L303.32,154.148 L307.16,154.148 L307.16,152.6 L301.52,152.6 L301.52,161 L307.292,161 Z M109.856,183 L109.856,181.452 L106.52,181.452 L106.52,174.6 L104.72,174.6 L104.72,183 L109.856,183 Z M115.532,183.072 C118.004,183.072 119.696,181.248 119.696,178.8 C119.696,176.352 118.004,174.528 115.532,174.528 C113.06,174.528 111.368,176.352 111.368,178.8 C111.368,181.248 113.06,183.072 115.532,183.072 Z M115.532,181.548 C114.116,181.548 113.204,180.384 113.204,178.8 C113.204,177.216 114.116,176.052 115.532,176.052 C116.936,176.052 117.848,177.216 117.848,178.8 C117.848,180.384 116.936,181.548 115.532,181.548 Z M125.432,183.072 C127.316,183.072 128.696,181.956 128.708,180.42 C128.72,178.728 127.448,178.296 126.008,178.032 C124.616,177.768 123.956,177.624 123.956,176.94 C123.956,176.292 124.508,175.968 125.276,175.968 C126.152,175.968 126.704,176.46 126.776,177.168 L128.54,177.168 C128.504,175.644 127.148,174.528 125.276,174.528 C123.452,174.528 122.144,175.596 122.144,177.072 C122.144,178.776 123.392,179.232 124.808,179.496 C126.212,179.772 126.896,179.916 126.896,180.624 C126.896,181.284 126.284,181.644 125.456,181.644 C124.424,181.644 123.776,181.08 123.716,180.264 L121.952,180.24 C121.976,181.872 123.392,183.072 125.432,183.072 Z M137.564,183 L137.564,174.6 L135.764,174.6 L135.764,183 L137.564,183 Z M142.256,183 L142.256,177.708 L145.82,183 L147.464,183 L147.464,174.6 L145.688,174.6 L145.688,179.892 L142.124,174.6 L140.492,174.6 L140.492,183 L142.256,183 Z M154.052,183.072 C155.24,183.072 156.056,182.544 156.5,181.956 L156.692,183 L157.94,183 L157.94,178.332 L154.184,178.332 L154.184,179.76 L156.272,179.76 L156.272,179.868 C156.104,181.044 155.132,181.548 154.172,181.548 C152.732,181.548 151.892,180.42 151.892,178.8 C151.892,177.18 152.768,176.052 154.172,176.052 C155.204,176.052 155.888,176.664 156.104,177.588 L157.88,177.588 C157.652,175.776 156.248,174.528 154.22,174.528 C151.64,174.528 150.056,176.22 150.056,178.8 C150.056,181.38 151.652,183.072 154.052,183.072 Z M162.68,183 L162.68,180.18 L164.204,180.18 L165.608,183 L167.6,183 L165.944,179.76 C166.82,179.34 167.384,178.476 167.384,177.396 C167.384,175.692 166.148,174.6 164.3,174.6 L160.88,174.6 L160.88,183 L162.68,183 Z M164.156,178.68 L162.68,178.68 L162.68,176.1 L164.156,176.1 C165.008,176.1 165.548,176.604 165.548,177.396 C165.548,178.176 165.008,178.68 164.156,178.68 Z M175.856,183 L175.856,181.452 L171.884,181.452 L171.884,179.508 L175.004,179.508 L175.004,178.032 L171.884,178.032 L171.884,176.148 L175.724,176.148 L175.724,174.6 L170.084,174.6 L170.084,183 L175.856,183 Z M181.58,183.072 C183.464,183.072 184.844,181.956 184.856,180.42 C184.868,178.728 183.596,178.296 182.156,178.032 C180.764,177.768 180.104,177.624 180.104,176.94 C180.104,176.292 180.656,175.968 181.424,175.968 C182.3,175.968 182.852,176.46 182.924,177.168 L184.688,177.168 C184.652,175.644 183.296,174.528 181.424,174.528 C179.6,174.528 178.292,175.596 178.292,177.072 C178.292,178.776 179.54,179.232 180.956,179.496 C182.36,179.772 183.044,179.916 183.044,180.624 C183.044,181.284 182.432,181.644 181.604,181.644 C180.572,181.644 179.924,181.08 179.864,180.264 L178.1,180.24 C178.124,181.872 179.54,183.072 181.58,183.072 Z M191.264,183.072 C193.736,183.072 195.428,181.248 195.428,178.8 C195.428,176.352 193.736,174.528 191.264,174.528 C188.792,174.528 187.1,176.352 187.1,178.8 C187.1,181.248 188.792,183.072 191.264,183.072 Z M191.264,181.548 C189.848,181.548 188.936,180.384 188.936,178.8 C188.936,177.216 189.848,176.052 191.264,176.052 C192.668,176.052 193.58,177.216 193.58,178.8 C193.58,180.384 192.668,181.548 191.264,181.548 Z M201.164,183.072 C203.048,183.072 204.428,181.956 204.44,180.42 C204.452,178.728 203.18,178.296 201.74,178.032 C200.348,177.768 199.688,177.624 199.688,176.94 C199.688,176.292 200.24,175.968 201.008,175.968 C201.884,175.968 202.436,176.46 202.508,177.168 L204.272,177.168 C204.236,175.644 202.88,174.528 201.008,174.528 C199.184,174.528 197.876,175.596 197.876,177.072 C197.876,178.776 199.124,179.232 200.54,179.496 C201.944,179.772 202.628,179.916 202.628,180.624 C202.628,181.284 202.016,181.644 201.188,181.644 C200.156,181.644 199.508,181.08 199.448,180.264 L197.684,180.24 C197.708,181.872 199.124,183.072 201.164,183.072 Z M217.268,183 L217.268,181.452 L213.296,181.452 L213.296,179.508 L216.416,179.508 L216.416,178.032 L213.296,178.032 L213.296,176.148 L217.136,176.148 L217.136,174.6 L211.496,174.6 L211.496,183 L217.268,183 Z M221.612,183 L221.612,177.708 L225.176,183 L226.82,183 L226.82,174.6 L225.044,174.6 L225.044,179.892 L221.48,174.6 L219.848,174.6 L219.848,183 L221.612,183 Z M237.572,183 C239.636,183 240.788,182.088 240.788,180.636 C240.788,179.436 240.02,178.848 238.832,178.692 C239.864,178.5 240.488,177.864 240.488,176.808 C240.488,175.404 239.36,174.6 237.416,174.6 L234.224,174.6 L234.224,183 L237.572,183 Z M237.464,178.056 L236.024,178.056 L236.024,176.016 L237.464,176.016 C238.244,176.016 238.688,176.412 238.688,177.036 C238.688,177.66 238.232,178.056 237.464,178.056 Z M237.584,181.572 L236.024,181.572 L236.024,179.448 L237.584,179.448 C238.436,179.448 238.94,179.844 238.94,180.528 C238.94,181.176 238.448,181.572 237.584,181.572 Z M248.612,183 L248.612,181.452 L245.276,181.452 L245.276,174.6 L243.476,174.6 L243.476,183 L248.612,183 Z M252.344,183 L252.992,181.164 L256.184,181.164 L256.832,183 L258.764,183 L255.716,174.6 L253.556,174.6 L250.484,183 L252.344,183 Z M255.692,179.712 L253.472,179.712 L254.576,176.52 L255.692,179.712 Z M264.452,183.072 C266.444,183.072 267.848,181.824 268.052,180 L266.252,180 C266.048,180.936 265.364,181.548 264.356,181.548 C262.988,181.548 262.172,180.408 262.172,178.8 C262.172,177.18 262.988,176.052 264.356,176.052 C265.364,176.052 266.048,176.664 266.252,177.6 L268.052,177.6 C267.848,175.776 266.444,174.528 264.452,174.528 C261.908,174.528 260.336,176.22 260.336,178.8 C260.336,181.38 261.908,183.072 264.452,183.072 Z M272.396,183 L272.396,180.792 L273.584,179.46 L275.984,183 L278.144,183 L274.856,178.068 L277.94,174.612 L275.756,174.612 L272.396,178.38 L272.396,174.612 L270.596,174.612 L270.596,183 L272.396,183 Z" id="DEAUMENTOINTERANUALDELOSINGRESOSENBLACK" fill="#025450"></path>
                    <path d="M128.975,126.036667 C142.75,126.036667 154.15,118.246667 154.15,102.951667 C154.15,89.3666667 144.46,80.1516667 131.92,80.1516667 C126.22,80.1516667 121.565,82.0516667 118.145,85.2816667 L118.905,70.4616667 L150.065,70.4616667 L150.065,58.9666667 L106.46,58.9666667 L104.56,97.9166667 L117.765,97.9166667 C119.76,92.3116667 125.46,90.9816667 128.975,90.9816667 C135.91,90.9816667 140.375,96.0166667 140.375,102.951667 C140.375,110.931667 134.77,114.826667 128.975,114.826667 C122.42,114.826667 117.86,110.076667 117.1,104.091667 L103.515,104.091667 C104.085,116.251667 113.49,126.036667 128.975,126.036667 Z M187.009444,126.036667 C200.784444,126.036667 212.184444,118.246667 212.184444,102.951667 C212.184444,89.3666667 202.494444,80.1516667 189.954444,80.1516667 C184.254444,80.1516667 179.599444,82.0516667 176.179444,85.2816667 L176.939444,70.4616667 L208.099444,70.4616667 L208.099444,58.9666667 L164.494444,58.9666667 L162.594444,97.9166667 L175.799444,97.9166667 C177.794444,92.3116667 183.494444,90.9816667 187.009444,90.9816667 C193.944444,90.9816667 198.409444,96.0166667 198.409444,102.951667 C198.409444,110.931667 192.804444,114.826667 187.009444,114.826667 C180.454444,114.826667 175.894444,110.076667 175.134444,104.091667 L161.549444,104.091667 C162.119444,116.251667 171.524444,126.036667 187.009444,126.036667 Z M237.728889,91.2666667 C247.798889,91.2666667 255.113889,84.3316667 255.113889,74.8316667 C255.113889,65.3316667 247.798889,58.3966667 237.728889,58.3966667 C227.753889,58.3966667 220.343889,65.3316667 220.343889,74.8316667 C220.343889,84.3316667 227.753889,91.2666667 237.728889,91.2666667 Z M244.283889,125.466667 L289.883889,58.9666667 L276.678889,58.9666667 L231.078889,125.466667 L244.283889,125.466667 Z M237.728889,81.5766667 C234.023889,81.5766667 231.173889,78.7266667 231.173889,74.8316667 C231.173889,70.9366667 234.023889,68.0866667 237.728889,68.0866667 C241.528889,68.0866667 244.378889,70.9366667 244.378889,74.8316667 C244.378889,78.7266667 241.528889,81.5766667 237.728889,81.5766667 Z M283.138889,126.036667 C293.113889,126.036667 300.523889,119.101667 300.523889,109.601667 C300.523889,100.101667 293.113889,93.1666667 283.138889,93.1666667 C273.068889,93.1666667 265.753889,100.101667 265.753889,109.601667 C265.753889,119.101667 273.068889,126.036667 283.138889,126.036667 Z M283.138889,116.346667 C279.338889,116.346667 276.488889,113.496667 276.488889,109.601667 C276.488889,105.801667 279.338889,102.856667 283.138889,102.856667 C286.843889,102.856667 289.693889,105.801667 289.693889,109.601667 C289.693889,113.496667 286.843889,116.346667 283.138889,116.346667 Z" id="55%" fill="#42BFB6"></path>
                </g>
                <g id="Group-5" transform="translate(0.000000, 282.000000)" fill-rule="nonzero">
                    <rect id="Rectangle-3" fill="#F4F2EF" x="0" y="0" width="405" height="231"></rect>
                    <path d="M129.165,112.466667 L129.165,45.9666667 L115.77,45.9666667 L115.77,52.4266667 C115.77,56.0366667 114.155,59.1716667 110.735,59.1716667 L100.76,59.1716667 L100.76,70.4766667 L111.875,70.4766667 C113.3,70.4766667 114.535,70.3816667 115.485,70.0016667 L115.485,112.466667 L129.165,112.466667 Z M167.239444,112.466667 L167.239444,45.9666667 L153.844444,45.9666667 L153.844444,52.4266667 C153.844444,56.0366667 152.229444,59.1716667 148.809444,59.1716667 L138.834444,59.1716667 L138.834444,70.4766667 L149.949444,70.4766667 C151.374444,70.4766667 152.609444,70.3816667 153.559444,70.0016667 L153.559444,112.466667 L167.239444,112.466667 Z M197.808888,78.2666667 C207.878888,78.2666667 215.193888,71.3316667 215.193888,61.8316667 C215.193888,52.3316667 207.878888,45.3966667 197.808888,45.3966667 C187.833888,45.3966667 180.423888,52.3316667 180.423888,61.8316667 C180.423888,71.3316667 187.833888,78.2666667 197.808888,78.2666667 Z M204.363888,112.466667 L249.963888,45.9666667 L236.758888,45.9666667 L191.158888,112.466667 L204.363888,112.466667 Z M197.808888,68.5766667 C194.103888,68.5766667 191.253888,65.7266667 191.253888,61.8316667 C191.253888,57.9366667 194.103888,55.0866667 197.808888,55.0866667 C201.608888,55.0866667 204.458888,57.9366667 204.458888,61.8316667 C204.458888,65.7266667 201.608888,68.5766667 197.808888,68.5766667 Z M243.218888,113.036667 C253.193888,113.036667 260.603888,106.101667 260.603888,96.6016667 C260.603888,87.1016667 253.193888,80.1666667 243.218888,80.1666667 C233.148888,80.1666667 225.833888,87.1016667 225.833888,96.6016667 C225.833888,106.101667 233.148888,113.036667 243.218888,113.036667 Z M243.218888,103.346667 C239.418888,103.346667 236.568888,100.496667 236.568888,96.6016667 C236.568888,92.8016667 239.418888,89.8566667 243.218888,89.8566667 C246.923888,89.8566667 249.773888,92.8016667 249.773888,96.6016667 C249.773888,100.496667 246.923888,103.346667 243.218888,103.346667 Z" id="11%" fill="#42BFB6"></path>
                    <path d="M107.636,149 C110.204,149 111.872,147.26 111.872,144.8 C111.872,142.34 110.204,140.6 107.636,140.6 L104.72,140.6 L104.72,149 L107.636,149 Z M107.636,147.5 L106.52,147.5 L106.52,142.1 L107.636,142.1 C109.196,142.1 110.036,143.204 110.036,144.8 C110.036,146.396 109.196,147.5 107.636,147.5 Z M120.248,149 L120.248,147.452 L116.276,147.452 L116.276,145.508 L119.396,145.508 L119.396,144.032 L116.276,144.032 L116.276,142.148 L120.116,142.148 L120.116,140.6 L114.476,140.6 L114.476,149 L120.248,149 Z M128.492,149 L129.14,147.164 L132.332,147.164 L132.98,149 L134.912,149 L131.864,140.6 L129.704,140.6 L126.632,149 L128.492,149 Z M131.84,145.712 L129.62,145.712 L130.724,142.52 L131.84,145.712 Z M140.06,149.072 C142.328,149.072 143.516,147.764 143.516,145.376 L143.516,140.6 L141.716,140.6 L141.716,145.472 C141.716,146.804 141.224,147.524 140.06,147.524 C138.908,147.524 138.416,146.804 138.416,145.472 L138.416,140.6 L136.616,140.6 L136.616,145.376 C136.616,147.764 137.804,149.072 140.06,149.072 Z M148.112,149 L148.112,143.372 L150.296,149 L151.76,149 L153.944,143.372 L153.944,149 L155.66,149 L155.66,140.6 L153.344,140.6 L151.088,146.768 L148.76,140.6 L146.396,140.6 L146.396,149 L148.112,149 Z M164.372,149 L164.372,147.452 L160.4,147.452 L160.4,145.508 L163.52,145.508 L163.52,144.032 L160.4,144.032 L160.4,142.148 L164.24,142.148 L164.24,140.6 L158.6,140.6 L158.6,149 L164.372,149 Z M168.716,149 L168.716,143.708 L172.28,149 L173.924,149 L173.924,140.6 L172.148,140.6 L172.148,145.892 L168.584,140.6 L166.952,140.6 L166.952,149 L168.716,149 Z M180.62,149 L180.62,142.148 L183.044,142.148 L183.044,140.6 L176.396,140.6 L176.396,142.148 L178.82,142.148 L178.82,149 L180.62,149 Z M188.78,149.072 C191.252,149.072 192.944,147.248 192.944,144.8 C192.944,142.352 191.252,140.528 188.78,140.528 C186.308,140.528 184.616,142.352 184.616,144.8 C184.616,147.248 186.308,149.072 188.78,149.072 Z M188.78,147.548 C187.364,147.548 186.452,146.384 186.452,144.8 C186.452,143.216 187.364,142.052 188.78,142.052 C190.184,142.052 191.096,143.216 191.096,144.8 C191.096,146.384 190.184,147.548 188.78,147.548 Z M201.812,149 L201.812,140.6 L200.012,140.6 L200.012,149 L201.812,149 Z M206.504,149 L206.504,143.708 L210.068,149 L211.712,149 L211.712,140.6 L209.936,140.6 L209.936,145.892 L206.372,140.6 L204.74,140.6 L204.74,149 L206.504,149 Z M218.408,149 L218.408,142.148 L220.832,142.148 L220.832,140.6 L214.184,140.6 L214.184,142.148 L216.608,142.148 L216.608,149 L218.408,149 Z M229.088,149 L229.088,147.452 L225.116,147.452 L225.116,145.508 L228.236,145.508 L228.236,144.032 L225.116,144.032 L225.116,142.148 L228.956,142.148 L228.956,140.6 L223.316,140.6 L223.316,149 L229.088,149 Z M233.468,149 L233.468,146.18 L234.992,146.18 L236.396,149 L238.388,149 L236.732,145.76 C237.608,145.34 238.172,144.476 238.172,143.396 C238.172,141.692 236.936,140.6 235.088,140.6 L231.668,140.6 L231.668,149 L233.468,149 Z M234.944,144.68 L233.468,144.68 L233.468,142.1 L234.944,142.1 C235.796,142.1 236.336,142.604 236.336,143.396 C236.336,144.176 235.796,144.68 234.944,144.68 Z M242,149 L242.648,147.164 L245.84,147.164 L246.488,149 L248.42,149 L245.372,140.6 L243.212,140.6 L240.14,149 L242,149 Z M245.348,145.712 L243.128,145.712 L244.232,142.52 L245.348,145.712 Z M252.452,149 L252.452,143.708 L256.016,149 L257.66,149 L257.66,140.6 L255.884,140.6 L255.884,145.892 L252.32,140.6 L250.688,140.6 L250.688,149 L252.452,149 Z M263.972,149.072 C266.24,149.072 267.428,147.764 267.428,145.376 L267.428,140.6 L265.628,140.6 L265.628,145.472 C265.628,146.804 265.136,147.524 263.972,147.524 C262.82,147.524 262.328,146.804 262.328,145.472 L262.328,140.6 L260.528,140.6 L260.528,145.376 C260.528,147.764 261.716,149.072 263.972,149.072 Z M270.992,149 L271.64,147.164 L274.832,147.164 L275.48,149 L277.412,149 L274.364,140.6 L272.204,140.6 L269.132,149 L270.992,149 Z M274.34,145.712 L272.12,145.712 L273.224,142.52 L274.34,145.712 Z M284.816,149 L284.816,147.452 L281.48,147.452 L281.48,140.6 L279.68,140.6 L279.68,149 L284.816,149 Z M294.68,149 C297.248,149 298.916,147.26 298.916,144.8 C298.916,142.34 297.248,140.6 294.68,140.6 L291.764,140.6 L291.764,149 L294.68,149 Z M294.68,147.5 L293.564,147.5 L293.564,142.1 L294.68,142.1 C296.24,142.1 297.08,143.204 297.08,144.8 C297.08,146.396 296.24,147.5 294.68,147.5 Z M307.292,149 L307.292,147.452 L303.32,147.452 L303.32,145.508 L306.44,145.508 L306.44,144.032 L303.32,144.032 L303.32,142.148 L307.16,142.148 L307.16,140.6 L301.52,140.6 L301.52,149 L307.292,149 Z M109.856,171 L109.856,169.452 L106.52,169.452 L106.52,162.6 L104.72,162.6 L104.72,171 L109.856,171 Z M115.532,171.072 C118.004,171.072 119.696,169.248 119.696,166.8 C119.696,164.352 118.004,162.528 115.532,162.528 C113.06,162.528 111.368,164.352 111.368,166.8 C111.368,169.248 113.06,171.072 115.532,171.072 Z M115.532,169.548 C114.116,169.548 113.204,168.384 113.204,166.8 C113.204,165.216 114.116,164.052 115.532,164.052 C116.936,164.052 117.848,165.216 117.848,166.8 C117.848,168.384 116.936,169.548 115.532,169.548 Z M125.432,171.072 C127.316,171.072 128.696,169.956 128.708,168.42 C128.72,166.728 127.448,166.296 126.008,166.032 C124.616,165.768 123.956,165.624 123.956,164.94 C123.956,164.292 124.508,163.968 125.276,163.968 C126.152,163.968 126.704,164.46 126.776,165.168 L128.54,165.168 C128.504,163.644 127.148,162.528 125.276,162.528 C123.452,162.528 122.144,163.596 122.144,165.072 C122.144,166.776 123.392,167.232 124.808,167.496 C126.212,167.772 126.896,167.916 126.896,168.624 C126.896,169.284 126.284,169.644 125.456,169.644 C124.424,169.644 123.776,169.08 123.716,168.264 L121.952,168.24 C121.976,169.872 123.392,171.072 125.432,171.072 Z M137.564,171 L137.564,162.6 L135.764,162.6 L135.764,171 L137.564,171 Z M142.256,171 L142.256,165.708 L145.82,171 L147.464,171 L147.464,162.6 L145.688,162.6 L145.688,167.892 L142.124,162.6 L140.492,162.6 L140.492,171 L142.256,171 Z M154.052,171.072 C155.24,171.072 156.056,170.544 156.5,169.956 L156.692,171 L157.94,171 L157.94,166.332 L154.184,166.332 L154.184,167.76 L156.272,167.76 L156.272,167.868 C156.104,169.044 155.132,169.548 154.172,169.548 C152.732,169.548 151.892,168.42 151.892,166.8 C151.892,165.18 152.768,164.052 154.172,164.052 C155.204,164.052 155.888,164.664 156.104,165.588 L157.88,165.588 C157.652,163.776 156.248,162.528 154.22,162.528 C151.64,162.528 150.056,164.22 150.056,166.8 C150.056,169.38 151.652,171.072 154.052,171.072 Z M162.68,171 L162.68,168.18 L164.204,168.18 L165.608,171 L167.6,171 L165.944,167.76 C166.82,167.34 167.384,166.476 167.384,165.396 C167.384,163.692 166.148,162.6 164.3,162.6 L160.88,162.6 L160.88,171 L162.68,171 Z M164.156,166.68 L162.68,166.68 L162.68,164.1 L164.156,164.1 C165.008,164.1 165.548,164.604 165.548,165.396 C165.548,166.176 165.008,166.68 164.156,166.68 Z M175.856,171 L175.856,169.452 L171.884,169.452 L171.884,167.508 L175.004,167.508 L175.004,166.032 L171.884,166.032 L171.884,164.148 L175.724,164.148 L175.724,162.6 L170.084,162.6 L170.084,171 L175.856,171 Z M181.58,171.072 C183.464,171.072 184.844,169.956 184.856,168.42 C184.868,166.728 183.596,166.296 182.156,166.032 C180.764,165.768 180.104,165.624 180.104,164.94 C180.104,164.292 180.656,163.968 181.424,163.968 C182.3,163.968 182.852,164.46 182.924,165.168 L184.688,165.168 C184.652,163.644 183.296,162.528 181.424,162.528 C179.6,162.528 178.292,163.596 178.292,165.072 C178.292,166.776 179.54,167.232 180.956,167.496 C182.36,167.772 183.044,167.916 183.044,168.624 C183.044,169.284 182.432,169.644 181.604,169.644 C180.572,169.644 179.924,169.08 179.864,168.264 L178.1,168.24 C178.124,169.872 179.54,171.072 181.58,171.072 Z M191.264,171.072 C193.736,171.072 195.428,169.248 195.428,166.8 C195.428,164.352 193.736,162.528 191.264,162.528 C188.792,162.528 187.1,164.352 187.1,166.8 C187.1,169.248 188.792,171.072 191.264,171.072 Z M191.264,169.548 C189.848,169.548 188.936,168.384 188.936,166.8 C188.936,165.216 189.848,164.052 191.264,164.052 C192.668,164.052 193.58,165.216 193.58,166.8 C193.58,168.384 192.668,169.548 191.264,169.548 Z M201.164,171.072 C203.048,171.072 204.428,169.956 204.44,168.42 C204.452,166.728 203.18,166.296 201.74,166.032 C200.348,165.768 199.688,165.624 199.688,164.94 C199.688,164.292 200.24,163.968 201.008,163.968 C201.884,163.968 202.436,164.46 202.508,165.168 L204.272,165.168 C204.236,163.644 202.88,162.528 201.008,162.528 C199.184,162.528 197.876,163.596 197.876,165.072 C197.876,166.776 199.124,167.232 200.54,167.496 C201.944,167.772 202.628,167.916 202.628,168.624 C202.628,169.284 202.016,169.644 201.188,169.644 C200.156,169.644 199.508,169.08 199.448,168.264 L197.684,168.24 C197.708,169.872 199.124,171.072 201.164,171.072 Z M215.264,171 L215.264,164.148 L217.688,164.148 L217.688,162.6 L211.04,162.6 L211.04,164.148 L213.464,164.148 L213.464,171 L215.264,171 Z M223.424,171.072 C225.896,171.072 227.588,169.248 227.588,166.8 C227.588,164.352 225.896,162.528 223.424,162.528 C220.952,162.528 219.26,164.352 219.26,166.8 C219.26,169.248 220.952,171.072 223.424,171.072 Z M223.424,169.548 C222.008,169.548 221.096,168.384 221.096,166.8 C221.096,165.216 222.008,164.052 223.424,164.052 C224.828,164.052 225.74,165.216 225.74,166.8 C225.74,168.384 224.828,169.548 223.424,169.548 Z M233.372,171 L233.372,164.148 L235.796,164.148 L235.796,162.6 L229.148,162.6 L229.148,164.148 L231.572,164.148 L231.572,171 L233.372,171 Z M238.268,171 L238.916,169.164 L242.108,169.164 L242.756,171 L244.688,171 L241.64,162.6 L239.48,162.6 L236.408,171 L238.268,171 Z M241.616,167.712 L239.396,167.712 L240.5,164.52 L241.616,167.712 Z M252.092,171 L252.092,169.452 L248.756,169.452 L248.756,162.6 L246.956,162.6 L246.956,171 L252.092,171 Z M260.336,171 L260.336,169.452 L256.364,169.452 L256.364,167.508 L259.484,167.508 L259.484,166.032 L256.364,166.032 L256.364,164.148 L260.204,164.148 L260.204,162.6 L254.564,162.6 L254.564,171 L260.336,171 Z M266.06,171.072 C267.944,171.072 269.324,169.956 269.336,168.42 C269.348,166.728 268.076,166.296 266.636,166.032 C265.244,165.768 264.584,165.624 264.584,164.94 C264.584,164.292 265.136,163.968 265.904,163.968 C266.78,163.968 267.332,164.46 267.404,165.168 L269.168,165.168 C269.132,163.644 267.776,162.528 265.904,162.528 C264.08,162.528 262.772,163.596 262.772,165.072 C262.772,166.776 264.02,167.232 265.436,167.496 C266.84,167.772 267.524,167.916 267.524,168.624 C267.524,169.284 266.912,169.644 266.084,169.644 C265.052,169.644 264.404,169.08 264.344,168.264 L262.58,168.24 C262.604,169.872 264.02,171.072 266.06,171.072 Z M107.636,193 C110.204,193 111.872,191.26 111.872,188.8 C111.872,186.34 110.204,184.6 107.636,184.6 L104.72,184.6 L104.72,193 L107.636,193 Z M107.636,191.5 L106.52,191.5 L106.52,186.1 L107.636,186.1 C109.196,186.1 110.036,187.204 110.036,188.8 C110.036,190.396 109.196,191.5 107.636,191.5 Z M117.86,193.072 C120.128,193.072 121.316,191.764 121.316,189.376 L121.316,184.6 L119.516,184.6 L119.516,189.472 C119.516,190.804 119.024,191.524 117.86,191.524 C116.708,191.524 116.216,190.804 116.216,189.472 L116.216,184.6 L114.416,184.6 L114.416,189.376 C114.416,191.764 115.604,193.072 117.86,193.072 Z M125.996,193 L125.996,190.18 L127.52,190.18 L128.924,193 L130.916,193 L129.26,189.76 C130.136,189.34 130.7,188.476 130.7,187.396 C130.7,185.692 129.464,184.6 127.616,184.6 L124.196,184.6 L124.196,193 L125.996,193 Z M127.472,188.68 L125.996,188.68 L125.996,186.1 L127.472,186.1 C128.324,186.1 128.864,186.604 128.864,187.396 C128.864,188.176 128.324,188.68 127.472,188.68 Z M134.528,193 L135.176,191.164 L138.368,191.164 L139.016,193 L140.948,193 L137.9,184.6 L135.74,184.6 L132.668,193 L134.528,193 Z M137.876,189.712 L135.656,189.712 L136.76,186.52 L137.876,189.712 Z M144.98,193 L144.98,187.708 L148.544,193 L150.188,193 L150.188,184.6 L148.412,184.6 L148.412,189.892 L144.848,184.6 L143.216,184.6 L143.216,193 L144.98,193 Z M156.884,193 L156.884,186.148 L159.308,186.148 L159.308,184.6 L152.66,184.6 L152.66,186.148 L155.084,186.148 L155.084,193 L156.884,193 Z M167.564,193 L167.564,191.452 L163.592,191.452 L163.592,189.508 L166.712,189.508 L166.712,188.032 L163.592,188.032 L163.592,186.148 L167.432,186.148 L167.432,184.6 L161.792,184.6 L161.792,193 L167.564,193 Z M179.756,193 L179.756,191.452 L176.42,191.452 L176.42,184.6 L174.62,184.6 L174.62,193 L179.756,193 Z M183.488,193 L184.136,191.164 L187.328,191.164 L187.976,193 L189.908,193 L186.86,184.6 L184.7,184.6 L181.628,193 L183.488,193 Z M186.836,189.712 L184.616,189.712 L185.72,186.52 L186.836,189.712 Z M199.796,193.072 C201.68,193.072 203.06,191.956 203.072,190.42 C203.084,188.728 201.812,188.296 200.372,188.032 C198.98,187.768 198.32,187.624 198.32,186.94 C198.32,186.292 198.872,185.968 199.64,185.968 C200.516,185.968 201.068,186.46 201.14,187.168 L202.904,187.168 C202.868,185.644 201.512,184.528 199.64,184.528 C197.816,184.528 196.508,185.596 196.508,187.072 C196.508,188.776 197.756,189.232 199.172,189.496 C200.576,189.772 201.26,189.916 201.26,190.624 C201.26,191.284 200.648,191.644 199.82,191.644 C198.788,191.644 198.14,191.08 198.08,190.264 L196.316,190.24 C196.34,191.872 197.756,193.072 199.796,193.072 Z M211.424,193 L211.424,191.452 L207.452,191.452 L207.452,189.508 L210.572,189.508 L210.572,188.032 L207.452,188.032 L207.452,186.148 L211.292,186.148 L211.292,184.6 L205.652,184.6 L205.652,193 L211.424,193 Z M215.72,193 L215.72,187.372 L217.904,193 L219.368,193 L221.552,187.372 L221.552,193 L223.268,193 L223.268,184.6 L220.952,184.6 L218.696,190.768 L216.368,184.6 L214.004,184.6 L214.004,193 L215.72,193 Z M227.396,193 L228.044,191.164 L231.236,191.164 L231.884,193 L233.816,193 L230.768,184.6 L228.608,184.6 L225.536,193 L227.396,193 Z M230.744,189.712 L228.524,189.712 L229.628,186.52 L230.744,189.712 Z M237.848,193 L237.848,187.708 L241.412,193 L243.056,193 L243.056,184.6 L241.28,184.6 L241.28,189.892 L237.716,184.6 L236.084,184.6 L236.084,193 L237.848,193 Z M247.172,193 L247.82,191.164 L251.012,191.164 L251.66,193 L253.592,193 L250.544,184.6 L248.384,184.6 L245.312,193 L247.172,193 Z M250.52,189.712 L248.3,189.712 L249.404,186.52 L250.52,189.712 Z M263.252,193 C265.82,193 267.488,191.26 267.488,188.8 C267.488,186.34 265.82,184.6 263.252,184.6 L260.336,184.6 L260.336,193 L263.252,193 Z M263.252,191.5 L262.136,191.5 L262.136,186.1 L263.252,186.1 C264.812,186.1 265.652,187.204 265.652,188.8 C265.652,190.396 264.812,191.5 263.252,191.5 Z M275.864,193 L275.864,191.452 L271.892,191.452 L271.892,189.508 L275.012,189.508 L275.012,188.032 L271.892,188.032 L271.892,186.148 L275.732,186.148 L275.732,184.6 L270.092,184.6 L270.092,193 L275.864,193 Z" id="DEAUMENTOINTERANUALDELOSINGRESOSTOTALESDURANTELASEMANADE" fill="#025450"></path>
                </g>
                <rect id="Rectangle" x="0" y="0" width="405" height="513"></rect>
            </g>
        </g>
    </g>
</svg>